G04 #@! TF.FileFunction,Copper,L1,Top,Signal*
%FSLAX46Y46*%
G04 Gerber Fmt 4.6, Leading zero omitted, Abs format (unit mm)*
G04 Created by KiCad (PCBNEW (2015-04-03 BZR 5570)-product) date Sun Apr 12 09:32:45 2015*
%MOMM*%
G01*
G04 APERTURE LIST*
%ADD10C,0.150000*%
%ADD11C,1.600000*%
%ADD12C,2.500000*%
%ADD13R,1.400000X1.400000*%
%ADD14C,1.400000*%
%ADD15C,2.946400*%
%ADD16C,0.254000*%
%ADD17C,0.350000*%
G04 APERTURE END LIST*
D10*
D11*
X126085600Y-130465000D03*
X126085600Y-134965000D03*
D12*
X128585600Y-129215000D03*
X128585600Y-136215000D03*
D11*
X126085600Y-115860000D03*
X126085600Y-120360000D03*
D12*
X128585600Y-114610000D03*
X128585600Y-121610000D03*
D11*
X126085600Y-106335000D03*
X126085600Y-110835000D03*
D12*
X128585600Y-105085000D03*
X128585600Y-112085000D03*
D13*
X128270000Y-92885000D03*
D14*
X128270000Y-94885000D03*
X128270000Y-96885000D03*
X128270000Y-98885000D03*
D15*
X132765800Y-86842600D03*
X132765800Y-132867400D03*
D16*
X125285601Y-134165001D02*
X126085600Y-134965000D01*
X123190000Y-97155000D02*
X123190000Y-132069400D01*
X123190000Y-132069400D02*
X125285601Y-134165001D01*
X127460000Y-92885000D02*
X123190000Y-97155000D01*
X128270000Y-92885000D02*
X127460000Y-92885000D01*
X126730000Y-94885000D02*
X123825000Y-97790000D01*
X123825000Y-97790000D02*
X123825000Y-118099400D01*
X123825000Y-118099400D02*
X125285601Y-119560001D01*
X128270000Y-94885000D02*
X126730000Y-94885000D01*
X125285601Y-119560001D02*
X126085600Y-120360000D01*
X128270000Y-96885000D02*
X126000000Y-96885000D01*
X126000000Y-96885000D02*
X124460000Y-98425000D01*
X124460000Y-98425000D02*
X124460000Y-109209400D01*
X124460000Y-109209400D02*
X125285601Y-110035001D01*
X125285601Y-110035001D02*
X126085600Y-110835000D01*
D17*
X126085600Y-130465000D03*
X126085600Y-134965000D03*
X128585600Y-129215000D03*
X128585600Y-136215000D03*
X126085600Y-115860000D03*
X126085600Y-120360000D03*
X128585600Y-114610000D03*
X128585600Y-121610000D03*
X126085600Y-106335000D03*
X126085600Y-110835000D03*
X128585600Y-105085000D03*
X128585600Y-112085000D03*
X128270000Y-92885000D03*
X128270000Y-94885000D03*
X128270000Y-96885000D03*
X128270000Y-98885000D03*
X132765800Y-86842600D03*
X132765800Y-132867400D03*
M02*
