G75*
G70*
%OFA0B0*%
%FSLAX24Y24*%
%IPPOS*%
%LPD*%
%AMOC8*
5,1,8,0,0,1.08239X$1,22.5*
%
%ADD10C,0.0594*%
%ADD11C,0.0886*%
%ADD12R,0.0515X0.0515*%
%ADD13C,0.0515*%
%ADD14C,0.0090*%
%ADD15C,0.0100*%
D10*
X002556Y001794D03*
X002556Y003566D03*
X002556Y007544D03*
X002556Y009316D03*
X002556Y011294D03*
X002556Y013066D03*
D11*
X003541Y013558D03*
X003541Y010802D03*
X003541Y009808D03*
X003541Y007052D03*
X003541Y004058D03*
X003541Y001302D03*
D12*
X003916Y017861D03*
D13*
X003916Y017074D03*
X003916Y016286D03*
X003916Y015499D03*
D14*
X003350Y005885D02*
X003076Y005885D01*
X003076Y005475D01*
X003076Y005680D02*
X003213Y005680D01*
X002915Y005543D02*
X002915Y005475D01*
X002846Y005475D01*
X002846Y005543D01*
X002915Y005543D01*
X002659Y005543D02*
X002591Y005475D01*
X002386Y005475D01*
X002386Y005885D01*
X002591Y005885D01*
X002659Y005817D01*
X002659Y005749D01*
X002591Y005680D01*
X002386Y005680D01*
X002591Y005680D02*
X002659Y005612D01*
X002659Y005543D01*
D15*
X001166Y004180D02*
X001780Y003566D01*
X002556Y003566D01*
X001166Y004180D02*
X001166Y016430D01*
X002597Y017861D01*
X003916Y017861D01*
X003916Y017074D02*
X002560Y017074D01*
X001416Y015930D01*
X001416Y009680D01*
X001780Y009316D01*
X002556Y009316D01*
X002556Y013066D02*
X002030Y013066D01*
X001666Y013430D01*
X001666Y015430D01*
X002523Y016286D01*
X003916Y016286D01*
M02*
