G75*
G70*
%OFA0B0*%
%FSLAX24Y24*%
%IPPOS*%
%LPD*%
%AMOC8*
5,1,8,0,0,1.08239X$1,22.5*
%
%ADD10C,0.0070*%
D10*
X002575Y019436D02*
X002550Y019678D01*
X002469Y019704D01*
X002393Y019743D01*
X002205Y019589D01*
X002075Y019718D01*
X002229Y019907D01*
X002190Y019983D01*
X002450Y020090D01*
X002471Y020050D01*
X002501Y020014D01*
X002536Y019985D01*
X002577Y019963D01*
X002621Y019950D01*
X002666Y019946D01*
X002716Y019951D01*
X002764Y019967D01*
X002808Y019993D01*
X002844Y020028D01*
X002873Y020070D01*
X002892Y020116D01*
X002900Y020166D01*
X002898Y020217D01*
X002885Y020265D01*
X002861Y020310D01*
X002829Y020349D01*
X002789Y020380D01*
X002743Y020401D01*
X002694Y020413D01*
X002643Y020413D01*
X002594Y020403D01*
X002548Y020382D01*
X002507Y020352D01*
X002474Y020314D01*
X002450Y020270D01*
X002190Y020377D01*
X002229Y020453D01*
X002075Y020642D01*
X002205Y020771D01*
X002393Y020617D01*
X002469Y020656D01*
X002550Y020682D01*
X002575Y020924D01*
X002758Y020924D01*
X002782Y020682D01*
X002864Y020656D01*
X002939Y020617D01*
X003128Y020771D01*
X003257Y020642D01*
X003104Y020453D01*
X003143Y020377D01*
X003169Y020296D01*
X003411Y020271D01*
X003411Y020089D01*
X003169Y020064D01*
X003143Y019983D01*
X003104Y019907D01*
X003257Y019718D01*
X003128Y019589D01*
X002939Y019743D01*
X002864Y019704D01*
X002782Y019678D01*
X002758Y019436D01*
X002575Y019436D01*
X002571Y019473D02*
X002761Y019473D01*
X002768Y019542D02*
X002564Y019542D01*
X002557Y019610D02*
X002775Y019610D01*
X002785Y019679D02*
X002547Y019679D01*
X002612Y019953D02*
X002205Y019953D01*
X002210Y019884D02*
X003122Y019884D01*
X003127Y019953D02*
X002721Y019953D01*
X002837Y020021D02*
X003155Y020021D01*
X003178Y019816D02*
X002155Y019816D01*
X002099Y019747D02*
X003234Y019747D01*
X003218Y019679D02*
X003018Y019679D01*
X003102Y019610D02*
X003149Y019610D01*
X003411Y020090D02*
X002881Y020090D01*
X002899Y020158D02*
X003411Y020158D01*
X003411Y020227D02*
X002895Y020227D01*
X002869Y020295D02*
X003178Y020295D01*
X003147Y020364D02*
X002810Y020364D01*
X002900Y020638D02*
X002432Y020638D01*
X002368Y020638D02*
X002079Y020638D01*
X002135Y020569D02*
X003198Y020569D01*
X003142Y020501D02*
X002190Y020501D01*
X002218Y020432D02*
X003114Y020432D01*
X003048Y020706D02*
X003193Y020706D01*
X003254Y020638D02*
X002964Y020638D01*
X002780Y020706D02*
X002553Y020706D01*
X002560Y020775D02*
X002773Y020775D01*
X002766Y020843D02*
X002567Y020843D01*
X002574Y020912D02*
X002759Y020912D01*
X002523Y020364D02*
X002223Y020364D01*
X002284Y020706D02*
X002140Y020706D01*
X002388Y020295D02*
X002464Y020295D01*
X002448Y020090D02*
X002450Y020090D01*
X002495Y020021D02*
X002283Y020021D01*
X002314Y019679D02*
X002115Y019679D01*
X002183Y019610D02*
X002230Y019610D01*
M02*
