G75*
G70*
%OFA0B0*%
%FSLAX24Y24*%
%IPPOS*%
%LPD*%
%AMOC8*
5,1,8,0,0,1.08239X$1,22.5*
%
%ADD10C,0.0000*%
D10*
X000666Y000430D02*
X000666Y022930D01*
X007666Y022930D01*
X007666Y018430D01*
X005166Y018430D01*
X005166Y004930D01*
X007666Y004930D01*
X007666Y000430D01*
X000666Y000430D01*
X004541Y002620D02*
X004543Y002671D01*
X004549Y002721D01*
X004559Y002771D01*
X004573Y002819D01*
X004590Y002867D01*
X004611Y002913D01*
X004636Y002957D01*
X004664Y002999D01*
X004696Y003039D01*
X004730Y003076D01*
X004767Y003110D01*
X004807Y003142D01*
X004849Y003170D01*
X004893Y003195D01*
X004939Y003216D01*
X004987Y003233D01*
X005035Y003247D01*
X005085Y003257D01*
X005135Y003263D01*
X005186Y003265D01*
X005237Y003263D01*
X005287Y003257D01*
X005337Y003247D01*
X005385Y003233D01*
X005433Y003216D01*
X005479Y003195D01*
X005523Y003170D01*
X005565Y003142D01*
X005605Y003110D01*
X005642Y003076D01*
X005676Y003039D01*
X005708Y002999D01*
X005736Y002957D01*
X005761Y002913D01*
X005782Y002867D01*
X005799Y002819D01*
X005813Y002771D01*
X005823Y002721D01*
X005829Y002671D01*
X005831Y002620D01*
X005829Y002569D01*
X005823Y002519D01*
X005813Y002469D01*
X005799Y002421D01*
X005782Y002373D01*
X005761Y002327D01*
X005736Y002283D01*
X005708Y002241D01*
X005676Y002201D01*
X005642Y002164D01*
X005605Y002130D01*
X005565Y002098D01*
X005523Y002070D01*
X005479Y002045D01*
X005433Y002024D01*
X005385Y002007D01*
X005337Y001993D01*
X005287Y001983D01*
X005237Y001977D01*
X005186Y001975D01*
X005135Y001977D01*
X005085Y001983D01*
X005035Y001993D01*
X004987Y002007D01*
X004939Y002024D01*
X004893Y002045D01*
X004849Y002070D01*
X004807Y002098D01*
X004767Y002130D01*
X004730Y002164D01*
X004696Y002201D01*
X004664Y002241D01*
X004636Y002283D01*
X004611Y002327D01*
X004590Y002373D01*
X004573Y002421D01*
X004559Y002469D01*
X004549Y002519D01*
X004543Y002569D01*
X004541Y002620D01*
X004541Y020740D02*
X004543Y020791D01*
X004549Y020841D01*
X004559Y020891D01*
X004573Y020939D01*
X004590Y020987D01*
X004611Y021033D01*
X004636Y021077D01*
X004664Y021119D01*
X004696Y021159D01*
X004730Y021196D01*
X004767Y021230D01*
X004807Y021262D01*
X004849Y021290D01*
X004893Y021315D01*
X004939Y021336D01*
X004987Y021353D01*
X005035Y021367D01*
X005085Y021377D01*
X005135Y021383D01*
X005186Y021385D01*
X005237Y021383D01*
X005287Y021377D01*
X005337Y021367D01*
X005385Y021353D01*
X005433Y021336D01*
X005479Y021315D01*
X005523Y021290D01*
X005565Y021262D01*
X005605Y021230D01*
X005642Y021196D01*
X005676Y021159D01*
X005708Y021119D01*
X005736Y021077D01*
X005761Y021033D01*
X005782Y020987D01*
X005799Y020939D01*
X005813Y020891D01*
X005823Y020841D01*
X005829Y020791D01*
X005831Y020740D01*
X005829Y020689D01*
X005823Y020639D01*
X005813Y020589D01*
X005799Y020541D01*
X005782Y020493D01*
X005761Y020447D01*
X005736Y020403D01*
X005708Y020361D01*
X005676Y020321D01*
X005642Y020284D01*
X005605Y020250D01*
X005565Y020218D01*
X005523Y020190D01*
X005479Y020165D01*
X005433Y020144D01*
X005385Y020127D01*
X005337Y020113D01*
X005287Y020103D01*
X005237Y020097D01*
X005186Y020095D01*
X005135Y020097D01*
X005085Y020103D01*
X005035Y020113D01*
X004987Y020127D01*
X004939Y020144D01*
X004893Y020165D01*
X004849Y020190D01*
X004807Y020218D01*
X004767Y020250D01*
X004730Y020284D01*
X004696Y020321D01*
X004664Y020361D01*
X004636Y020403D01*
X004611Y020447D01*
X004590Y020493D01*
X004573Y020541D01*
X004559Y020589D01*
X004549Y020639D01*
X004543Y020689D01*
X004541Y020740D01*
M02*
