G75*
G70*
%OFA0B0*%
%FSLAX24Y24*%
%IPPOS*%
%LPD*%
%AMOC8*
5,1,8,0,0,1.08239X$1,22.5*
%
%ADD10C,0.0070*%
%ADD11C,0.0080*%
D10*
X001651Y001263D02*
X002989Y001263D01*
X002989Y004097D02*
X001651Y004097D01*
X001651Y001263D01*
X001741Y004250D02*
X001686Y004305D01*
X001741Y004250D02*
X001851Y004250D01*
X001906Y004305D01*
X001906Y004361D01*
X001851Y004416D01*
X001741Y004416D01*
X001686Y004471D01*
X001686Y004526D01*
X001741Y004581D01*
X001851Y004581D01*
X001906Y004526D01*
X002054Y004581D02*
X002054Y004250D01*
X002164Y004361D01*
X002274Y004250D01*
X002274Y004581D01*
X002422Y004471D02*
X002532Y004581D01*
X002532Y004250D01*
X002422Y004250D02*
X002643Y004250D01*
X002989Y007013D02*
X001651Y007013D01*
X001651Y009847D01*
X002989Y009847D01*
X002643Y010000D02*
X002422Y010000D01*
X002643Y010221D01*
X002643Y010276D01*
X002588Y010331D01*
X002477Y010331D01*
X002422Y010276D01*
X002274Y010331D02*
X002274Y010000D01*
X002164Y010111D01*
X002054Y010000D01*
X002054Y010331D01*
X001906Y010276D02*
X001851Y010331D01*
X001741Y010331D01*
X001686Y010276D01*
X001686Y010221D01*
X001741Y010166D01*
X001851Y010166D01*
X001906Y010111D01*
X001906Y010055D01*
X001851Y010000D01*
X001741Y010000D01*
X001686Y010055D01*
X001651Y010763D02*
X002989Y010763D01*
X002989Y013597D02*
X001651Y013597D01*
X001651Y010763D01*
X001741Y013750D02*
X001686Y013805D01*
X001741Y013750D02*
X001851Y013750D01*
X001906Y013805D01*
X001906Y013861D01*
X001851Y013916D01*
X001741Y013916D01*
X001686Y013971D01*
X001686Y014026D01*
X001741Y014081D01*
X001851Y014081D01*
X001906Y014026D01*
X002054Y014081D02*
X002054Y013750D01*
X002164Y013861D01*
X002274Y013750D01*
X002274Y014081D01*
X002422Y014026D02*
X002477Y014081D01*
X002588Y014081D01*
X002643Y014026D01*
X002643Y013971D01*
X002588Y013916D01*
X002643Y013861D01*
X002643Y013805D01*
X002588Y013750D01*
X002477Y013750D01*
X002422Y013805D01*
X002532Y013916D02*
X002588Y013916D01*
X002341Y014711D02*
X004310Y014711D01*
X004310Y018649D01*
X002341Y018649D01*
X002341Y014711D01*
X002188Y014802D02*
X002188Y014857D01*
X002133Y014912D01*
X001858Y014912D01*
X001858Y014857D02*
X001858Y014967D01*
X001968Y015115D02*
X001858Y015225D01*
X002188Y015225D01*
X002188Y015115D02*
X002188Y015335D01*
X002188Y014802D02*
X002133Y014746D01*
X002499Y014869D02*
X004152Y014869D01*
X004152Y015263D01*
X004131Y013597D02*
X004092Y013597D01*
X004131Y013597D02*
X004131Y010763D01*
X004092Y010763D01*
X004131Y009847D02*
X004092Y009847D01*
X004131Y009847D02*
X004131Y007013D01*
X004092Y007013D01*
X004131Y004097D02*
X004092Y004097D01*
X004131Y004097D02*
X004131Y001263D01*
X004092Y001263D01*
X002499Y014869D02*
X002499Y018491D01*
X004152Y018491D01*
X004152Y018215D01*
D11*
X001146Y001869D02*
X001006Y001728D01*
X001426Y001728D01*
X001426Y002009D02*
X001006Y002009D01*
X001146Y001869D01*
X001006Y002189D02*
X001356Y002189D01*
X001426Y002259D01*
X001426Y002399D01*
X001356Y002469D01*
X001006Y002469D01*
X001006Y002649D02*
X001006Y002929D01*
X001006Y002789D02*
X001426Y002789D01*
X001426Y003110D02*
X001426Y003390D01*
X001426Y003110D02*
X001006Y003110D01*
X001006Y003390D01*
X001216Y003250D02*
X001216Y003110D01*
X001286Y007378D02*
X001006Y007378D01*
X001006Y007659D02*
X001286Y007659D01*
X001426Y007519D01*
X001286Y007378D01*
X001356Y007839D02*
X001076Y007839D01*
X001006Y007909D01*
X001006Y008049D01*
X001076Y008119D01*
X001356Y008119D01*
X001426Y008049D01*
X001426Y007909D01*
X001356Y007839D01*
X001426Y008299D02*
X001426Y008579D01*
X001426Y008299D02*
X001006Y008299D01*
X001216Y008760D02*
X001216Y009040D01*
X001286Y011228D02*
X001006Y011228D01*
X001006Y011509D02*
X001286Y011509D01*
X001426Y011369D01*
X001286Y011228D01*
X001356Y011689D02*
X001076Y011689D01*
X001006Y011759D01*
X001006Y011899D01*
X001076Y011969D01*
X001356Y011969D01*
X001426Y011899D01*
X001426Y011759D01*
X001356Y011689D01*
X001426Y012149D02*
X001426Y012429D01*
X001426Y012149D02*
X001006Y012149D01*
X001076Y012750D02*
X001356Y012750D01*
X001216Y012610D02*
X001216Y012890D01*
X004666Y012912D02*
X005166Y012912D01*
X005166Y012990D02*
X004666Y012990D01*
X004666Y013069D02*
X005166Y013069D01*
X005166Y013147D02*
X004666Y013147D01*
X004666Y013226D02*
X005166Y013226D01*
X005166Y013304D02*
X004666Y013304D01*
X004666Y013383D02*
X005166Y013383D01*
X005166Y013461D02*
X004666Y013461D01*
X004666Y013540D02*
X005166Y013540D01*
X005166Y013618D02*
X004666Y013618D01*
X004666Y013697D02*
X005166Y013697D01*
X005166Y013775D02*
X004666Y013775D01*
X004666Y013854D02*
X005166Y013854D01*
X005166Y013932D02*
X004666Y013932D01*
X004666Y014011D02*
X005166Y014011D01*
X005166Y014089D02*
X004666Y014089D01*
X004666Y014168D02*
X005166Y014168D01*
X005166Y014246D02*
X004666Y014246D01*
X004666Y014325D02*
X005166Y014325D01*
X005166Y014403D02*
X004666Y014403D01*
X004666Y014482D02*
X005166Y014482D01*
X005166Y014560D02*
X004666Y014560D01*
X004666Y014639D02*
X005166Y014639D01*
X005166Y014717D02*
X004666Y014717D01*
X004666Y014796D02*
X005166Y014796D01*
X005166Y014874D02*
X004666Y014874D01*
X004666Y014953D02*
X005166Y014953D01*
X005166Y015031D02*
X004666Y015031D01*
X004666Y015110D02*
X005166Y015110D01*
X005166Y015188D02*
X004666Y015188D01*
X004666Y015267D02*
X005166Y015267D01*
X005166Y015345D02*
X004666Y015345D01*
X004666Y015424D02*
X005166Y015424D01*
X005166Y015502D02*
X004666Y015502D01*
X004666Y015581D02*
X005166Y015581D01*
X005166Y015659D02*
X004666Y015659D01*
X004666Y015738D02*
X005166Y015738D01*
X005166Y015816D02*
X004666Y015816D01*
X004666Y015895D02*
X005166Y015895D01*
X005166Y015973D02*
X004666Y015973D01*
X004666Y016052D02*
X005166Y016052D01*
X005166Y016130D02*
X004666Y016130D01*
X004666Y016209D02*
X005166Y016209D01*
X005166Y016287D02*
X004666Y016287D01*
X004666Y016366D02*
X005166Y016366D01*
X005166Y016444D02*
X004666Y016444D01*
X004666Y016523D02*
X005166Y016523D01*
X005166Y016601D02*
X004666Y016601D01*
X004666Y016680D02*
X005166Y016680D01*
X005166Y016758D02*
X004666Y016758D01*
X004666Y016837D02*
X005166Y016837D01*
X005166Y016915D02*
X004666Y016915D01*
X004666Y016994D02*
X005166Y016994D01*
X005166Y017072D02*
X004666Y017072D01*
X004666Y017151D02*
X005166Y017151D01*
X005166Y017229D02*
X004666Y017229D01*
X004666Y017308D02*
X005166Y017308D01*
X005166Y017386D02*
X004666Y017386D01*
X004666Y017465D02*
X005166Y017465D01*
X005166Y017543D02*
X004666Y017543D01*
X004666Y017622D02*
X005166Y017622D01*
X005166Y017700D02*
X004666Y017700D01*
X004666Y017779D02*
X005166Y017779D01*
X005166Y017857D02*
X004666Y017857D01*
X004666Y017936D02*
X005166Y017936D01*
X005166Y018014D02*
X004666Y018014D01*
X004666Y018093D02*
X005166Y018093D01*
X005166Y018171D02*
X004666Y018171D01*
X004666Y018250D02*
X005166Y018250D01*
X005166Y018328D02*
X004666Y018328D01*
X004666Y018407D02*
X005166Y018407D01*
X005166Y018430D02*
X007666Y018430D01*
X007666Y019680D01*
X004666Y019680D01*
X004666Y003680D01*
X007666Y003680D01*
X007666Y004930D01*
X005166Y004930D01*
X005166Y018430D01*
X004666Y018485D02*
X007666Y018485D01*
X007666Y018564D02*
X004666Y018564D01*
X004666Y018642D02*
X007666Y018642D01*
X007666Y018721D02*
X004666Y018721D01*
X004666Y018799D02*
X007666Y018799D01*
X007666Y018878D02*
X004666Y018878D01*
X004666Y018956D02*
X007666Y018956D01*
X007666Y019035D02*
X004666Y019035D01*
X004666Y019113D02*
X007666Y019113D01*
X007666Y019192D02*
X004666Y019192D01*
X004666Y019270D02*
X007666Y019270D01*
X007666Y019349D02*
X004666Y019349D01*
X004666Y019427D02*
X007666Y019427D01*
X007666Y019506D02*
X004666Y019506D01*
X004666Y019584D02*
X007666Y019584D01*
X007666Y019663D02*
X004666Y019663D01*
X004666Y012833D02*
X005166Y012833D01*
X005166Y012755D02*
X004666Y012755D01*
X004666Y012676D02*
X005166Y012676D01*
X005166Y012598D02*
X004666Y012598D01*
X004666Y012519D02*
X005166Y012519D01*
X005166Y012441D02*
X004666Y012441D01*
X004666Y012362D02*
X005166Y012362D01*
X005166Y012284D02*
X004666Y012284D01*
X004666Y012205D02*
X005166Y012205D01*
X005166Y012127D02*
X004666Y012127D01*
X004666Y012048D02*
X005166Y012048D01*
X005166Y011970D02*
X004666Y011970D01*
X004666Y011891D02*
X005166Y011891D01*
X005166Y011813D02*
X004666Y011813D01*
X004666Y011734D02*
X005166Y011734D01*
X005166Y011656D02*
X004666Y011656D01*
X004666Y011577D02*
X005166Y011577D01*
X005166Y011499D02*
X004666Y011499D01*
X004666Y011420D02*
X005166Y011420D01*
X005166Y011342D02*
X004666Y011342D01*
X004666Y011263D02*
X005166Y011263D01*
X005166Y011185D02*
X004666Y011185D01*
X004666Y011106D02*
X005166Y011106D01*
X005166Y011028D02*
X004666Y011028D01*
X004666Y010949D02*
X005166Y010949D01*
X005166Y010871D02*
X004666Y010871D01*
X004666Y010792D02*
X005166Y010792D01*
X005166Y010714D02*
X004666Y010714D01*
X004666Y010635D02*
X005166Y010635D01*
X005166Y010557D02*
X004666Y010557D01*
X004666Y010478D02*
X005166Y010478D01*
X005166Y010400D02*
X004666Y010400D01*
X004666Y010321D02*
X005166Y010321D01*
X005166Y010243D02*
X004666Y010243D01*
X004666Y010164D02*
X005166Y010164D01*
X005166Y010086D02*
X004666Y010086D01*
X004666Y010007D02*
X005166Y010007D01*
X005166Y009929D02*
X004666Y009929D01*
X004666Y009850D02*
X005166Y009850D01*
X005166Y009772D02*
X004666Y009772D01*
X004666Y009693D02*
X005166Y009693D01*
X005166Y009615D02*
X004666Y009615D01*
X004666Y009536D02*
X005166Y009536D01*
X005166Y009458D02*
X004666Y009458D01*
X004666Y009379D02*
X005166Y009379D01*
X005166Y009301D02*
X004666Y009301D01*
X004666Y009222D02*
X005166Y009222D01*
X005166Y009144D02*
X004666Y009144D01*
X004666Y009065D02*
X005166Y009065D01*
X005166Y008987D02*
X004666Y008987D01*
X004666Y008908D02*
X005166Y008908D01*
X005166Y008830D02*
X004666Y008830D01*
X004666Y008751D02*
X005166Y008751D01*
X005166Y008673D02*
X004666Y008673D01*
X004666Y008594D02*
X005166Y008594D01*
X005166Y008516D02*
X004666Y008516D01*
X004666Y008437D02*
X005166Y008437D01*
X005166Y008359D02*
X004666Y008359D01*
X004666Y008280D02*
X005166Y008280D01*
X005166Y008202D02*
X004666Y008202D01*
X004666Y008123D02*
X005166Y008123D01*
X005166Y008045D02*
X004666Y008045D01*
X004666Y007966D02*
X005166Y007966D01*
X005166Y007888D02*
X004666Y007888D01*
X004666Y007809D02*
X005166Y007809D01*
X005166Y007731D02*
X004666Y007731D01*
X004666Y007652D02*
X005166Y007652D01*
X005166Y007574D02*
X004666Y007574D01*
X004666Y007495D02*
X005166Y007495D01*
X005166Y007417D02*
X004666Y007417D01*
X004666Y007338D02*
X005166Y007338D01*
X005166Y007260D02*
X004666Y007260D01*
X004666Y007181D02*
X005166Y007181D01*
X005166Y007103D02*
X004666Y007103D01*
X004666Y007024D02*
X005166Y007024D01*
X005166Y006946D02*
X004666Y006946D01*
X004666Y006867D02*
X005166Y006867D01*
X005166Y006789D02*
X004666Y006789D01*
X004666Y006710D02*
X005166Y006710D01*
X005166Y006632D02*
X004666Y006632D01*
X004666Y006553D02*
X005166Y006553D01*
X005166Y006475D02*
X004666Y006475D01*
X004666Y006396D02*
X005166Y006396D01*
X005166Y006318D02*
X004666Y006318D01*
X004666Y006239D02*
X005166Y006239D01*
X005166Y006161D02*
X004666Y006161D01*
X004666Y006082D02*
X005166Y006082D01*
X005166Y006004D02*
X004666Y006004D01*
X004666Y005925D02*
X005166Y005925D01*
X005166Y005847D02*
X004666Y005847D01*
X004666Y005768D02*
X005166Y005768D01*
X005166Y005690D02*
X004666Y005690D01*
X004666Y005611D02*
X005166Y005611D01*
X005166Y005533D02*
X004666Y005533D01*
X004666Y005454D02*
X005166Y005454D01*
X005166Y005376D02*
X004666Y005376D01*
X004666Y005297D02*
X005166Y005297D01*
X005166Y005219D02*
X004666Y005219D01*
X004666Y005140D02*
X005166Y005140D01*
X005166Y005062D02*
X004666Y005062D01*
X004666Y004983D02*
X005166Y004983D01*
X004666Y004905D02*
X007666Y004905D01*
X007666Y004826D02*
X004666Y004826D01*
X004666Y004748D02*
X007666Y004748D01*
X007666Y004669D02*
X004666Y004669D01*
X004666Y004591D02*
X007666Y004591D01*
X007666Y004512D02*
X004666Y004512D01*
X004666Y004434D02*
X007666Y004434D01*
X007666Y004355D02*
X004666Y004355D01*
X004666Y004277D02*
X007666Y004277D01*
X007666Y004198D02*
X004666Y004198D01*
X004666Y004120D02*
X007666Y004120D01*
X007666Y004041D02*
X004666Y004041D01*
X004666Y003963D02*
X007666Y003963D01*
X007666Y003884D02*
X004666Y003884D01*
X004666Y003806D02*
X007666Y003806D01*
X007666Y003727D02*
X004666Y003727D01*
M02*
