G75*
G70*
%OFA0B0*%
%FSLAX24Y24*%
%IPPOS*%
%LPD*%
%AMOC8*
5,1,8,0,0,1.08239X$1,22.5*
%
%ADD10C,0.0070*%
%ADD11C,0.0080*%
%ADD12C,0.0100*%
D10*
X003906Y000575D02*
X003906Y000825D01*
X004031Y000825D01*
X004073Y000784D01*
X004073Y000700D01*
X004031Y000658D01*
X003906Y000658D01*
X003989Y000658D02*
X004073Y000575D01*
X004200Y000617D02*
X004242Y000575D01*
X004325Y000575D01*
X004367Y000617D01*
X004367Y000658D01*
X004325Y000700D01*
X004284Y000700D01*
X004325Y000700D02*
X004367Y000742D01*
X004367Y000784D01*
X004325Y000825D01*
X004242Y000825D01*
X004200Y000784D01*
X004500Y000980D02*
X004500Y000340D01*
X005820Y000340D01*
X005820Y000980D01*
X004500Y000980D01*
X004500Y001090D02*
X004500Y001730D01*
X005820Y001730D01*
X005820Y001090D01*
X004500Y001090D01*
X004367Y001375D02*
X004200Y001375D01*
X004284Y001375D02*
X004284Y001625D01*
X004200Y001542D01*
X004073Y001584D02*
X004073Y001500D01*
X004031Y001458D01*
X003906Y001458D01*
X003906Y001375D02*
X003906Y001625D01*
X004031Y001625D01*
X004073Y001584D01*
X003989Y001458D02*
X004073Y001375D01*
X004500Y001840D02*
X004500Y002480D01*
X005820Y002480D01*
X005820Y001840D01*
X004500Y001840D01*
X004367Y002075D02*
X004200Y002075D01*
X004367Y002242D01*
X004367Y002284D01*
X004325Y002325D01*
X004242Y002325D01*
X004200Y002284D01*
X004073Y002284D02*
X004073Y002200D01*
X004031Y002158D01*
X003906Y002158D01*
X003906Y002075D02*
X003906Y002325D01*
X004031Y002325D01*
X004073Y002284D01*
X003989Y002158D02*
X004073Y002075D01*
X009438Y002126D02*
X009563Y002126D01*
X009605Y002168D01*
X009605Y002335D01*
X009563Y002376D01*
X009438Y002376D01*
X009438Y002126D01*
X009733Y002126D02*
X009900Y002126D01*
X009816Y002126D02*
X009816Y002376D01*
X009733Y002293D01*
X012670Y002510D02*
X014150Y002510D01*
X014150Y003310D01*
X012670Y003310D01*
X012670Y002510D01*
X013506Y002384D02*
X013506Y002217D01*
X013547Y002175D01*
X013631Y002175D01*
X013673Y002217D01*
X013800Y002217D02*
X013842Y002175D01*
X013925Y002175D01*
X013967Y002217D01*
X013967Y002258D01*
X013925Y002300D01*
X013884Y002300D01*
X013925Y002300D02*
X013967Y002342D01*
X013967Y002384D01*
X013925Y002425D01*
X013842Y002425D01*
X013800Y002384D01*
X013673Y002384D02*
X013631Y002425D01*
X013547Y002425D01*
X013506Y002384D01*
X019250Y002590D02*
X019250Y003230D01*
X020570Y003230D01*
X020570Y002590D01*
X019250Y002590D01*
X020456Y002325D02*
X020581Y002325D01*
X020623Y002284D01*
X020623Y002200D01*
X020581Y002158D01*
X020456Y002158D01*
X020456Y002075D02*
X020456Y002325D01*
X020750Y002325D02*
X020750Y002200D01*
X020834Y002242D01*
X020875Y002242D01*
X020917Y002200D01*
X020917Y002117D01*
X020875Y002075D01*
X020792Y002075D01*
X020750Y002117D01*
X020623Y002075D02*
X020539Y002158D01*
X020750Y002325D02*
X020917Y002325D01*
X021000Y002480D02*
X021000Y001840D01*
X022320Y001840D01*
X022320Y002480D01*
X021000Y002480D01*
X023294Y002861D02*
X023924Y002861D01*
X023926Y002891D01*
X023931Y002920D01*
X023941Y002948D01*
X023953Y002975D01*
X023969Y003000D01*
X023988Y003023D01*
X024010Y003043D01*
X024034Y003060D01*
X024060Y003075D01*
X024087Y003085D01*
X024116Y003093D01*
X024145Y003097D01*
X024175Y003097D01*
X024204Y003093D01*
X024233Y003085D01*
X024260Y003075D01*
X024286Y003060D01*
X024310Y003043D01*
X024332Y003023D01*
X024351Y003000D01*
X024367Y002975D01*
X024379Y002948D01*
X024389Y002920D01*
X024394Y002891D01*
X024396Y002861D01*
X025026Y002861D01*
X025026Y005459D01*
X023294Y005459D01*
X023294Y002861D01*
X025938Y002476D02*
X026063Y002476D01*
X026105Y002435D01*
X026105Y002268D01*
X026063Y002226D01*
X025938Y002226D01*
X025938Y002476D01*
X026233Y002435D02*
X026275Y002476D01*
X026358Y002476D01*
X026400Y002435D01*
X026400Y002393D01*
X026233Y002226D01*
X026400Y002226D01*
X027090Y002250D02*
X027730Y002250D01*
X027730Y003570D01*
X027090Y003570D01*
X027090Y002250D01*
X028272Y002404D02*
X028548Y002404D01*
X029339Y002404D02*
X029339Y002778D01*
X028981Y002916D02*
X028981Y002542D01*
X029339Y002404D02*
X029654Y002404D01*
X030166Y002404D02*
X030481Y002404D01*
X030481Y002778D01*
X030048Y002916D02*
X029772Y002916D01*
X028981Y002916D02*
X028666Y002916D01*
X028154Y002916D02*
X027839Y002916D01*
X027839Y002542D01*
X030245Y002225D02*
X030245Y002142D01*
X030286Y002100D01*
X030286Y001973D02*
X030453Y001973D01*
X030495Y001931D01*
X030495Y001847D01*
X030453Y001806D01*
X030286Y001806D01*
X030245Y001847D01*
X030245Y001931D01*
X030286Y001973D01*
X030412Y001889D02*
X030495Y001973D01*
X030495Y002100D02*
X030328Y002267D01*
X030286Y002267D01*
X030245Y002225D01*
X030495Y002267D02*
X030495Y002100D01*
X031005Y002105D02*
X031130Y001980D01*
X031130Y002147D01*
X031255Y002105D02*
X031005Y002105D01*
X030840Y002250D02*
X031480Y002250D01*
X031480Y003570D01*
X030840Y003570D01*
X030840Y002250D01*
X032022Y002404D02*
X032298Y002404D01*
X032731Y002542D02*
X032731Y002916D01*
X032416Y002916D01*
X031904Y002916D02*
X031589Y002916D01*
X031589Y002542D01*
X033089Y002404D02*
X033089Y002778D01*
X033522Y002916D02*
X033798Y002916D01*
X034231Y002778D02*
X034231Y002404D01*
X033916Y002404D01*
X034245Y002343D02*
X034245Y002176D01*
X034245Y002259D02*
X033994Y002259D01*
X034078Y002176D01*
X034036Y002048D02*
X034203Y002048D01*
X034245Y002006D01*
X034245Y001923D01*
X034203Y001881D01*
X034036Y001881D01*
X033994Y001923D01*
X033994Y002006D01*
X034036Y002048D01*
X034161Y001965D02*
X034245Y002048D01*
X034590Y002250D02*
X035230Y002250D01*
X035230Y003570D01*
X034590Y003570D01*
X034590Y002250D01*
X034855Y002147D02*
X034896Y002064D01*
X034980Y001980D01*
X034980Y002105D01*
X035022Y002147D01*
X035063Y002147D01*
X035105Y002105D01*
X035105Y002022D01*
X035063Y001980D01*
X034980Y001980D01*
X034938Y001853D02*
X034896Y001853D01*
X034855Y001811D01*
X034855Y001727D01*
X034896Y001686D01*
X034938Y001853D02*
X035105Y001686D01*
X035105Y001853D01*
X036031Y001884D02*
X036031Y001717D01*
X036073Y001675D01*
X036156Y001675D01*
X036198Y001717D01*
X036198Y001884D01*
X036156Y001926D01*
X036073Y001926D01*
X036031Y001884D01*
X036115Y001759D02*
X036198Y001675D01*
X036326Y001717D02*
X036368Y001675D01*
X036451Y001675D01*
X036493Y001717D01*
X036493Y001800D01*
X036451Y001842D01*
X036409Y001842D01*
X036326Y001800D01*
X036326Y001926D01*
X036493Y001926D01*
X037706Y001975D02*
X037706Y001725D01*
X037706Y001808D02*
X037831Y001808D01*
X037873Y001850D01*
X037873Y001934D01*
X037831Y001975D01*
X037706Y001975D01*
X038000Y001934D02*
X038042Y001975D01*
X038125Y001975D01*
X038167Y001934D01*
X038167Y001892D01*
X038125Y001850D01*
X038042Y001850D01*
X038000Y001892D01*
X038000Y001934D01*
X038042Y001850D02*
X038000Y001808D01*
X038000Y001767D01*
X038042Y001725D01*
X038125Y001725D01*
X038167Y001767D01*
X038167Y001808D01*
X038125Y001850D01*
X038250Y001840D02*
X038250Y002480D01*
X039570Y002480D01*
X039570Y001840D01*
X038250Y001840D01*
X037873Y001725D02*
X037789Y001808D01*
X038250Y001730D02*
X038250Y001090D01*
X039570Y001090D01*
X039570Y001730D01*
X038250Y001730D01*
X038167Y001425D02*
X038167Y001384D01*
X038000Y001217D01*
X038000Y001175D01*
X037873Y001175D02*
X037789Y001258D01*
X037831Y001258D02*
X037706Y001258D01*
X037706Y001175D02*
X037706Y001425D01*
X037831Y001425D01*
X037873Y001384D01*
X037873Y001300D01*
X037831Y001258D01*
X038000Y001425D02*
X038167Y001425D01*
X038250Y000980D02*
X038250Y000340D01*
X039570Y000340D01*
X039570Y000980D01*
X038250Y000980D01*
X038075Y000675D02*
X037992Y000675D01*
X037950Y000634D01*
X037950Y000592D01*
X037992Y000550D01*
X038117Y000550D01*
X038117Y000467D02*
X038117Y000634D01*
X038075Y000675D01*
X037823Y000634D02*
X037823Y000550D01*
X037781Y000508D01*
X037656Y000508D01*
X037656Y000425D02*
X037656Y000675D01*
X037781Y000675D01*
X037823Y000634D01*
X037739Y000508D02*
X037823Y000425D01*
X037950Y000467D02*
X037992Y000425D01*
X038075Y000425D01*
X038117Y000467D01*
X035105Y001391D02*
X034855Y001391D01*
X034855Y001516D01*
X034896Y001558D01*
X034980Y001558D01*
X035022Y001516D01*
X035022Y001391D01*
X035022Y001474D02*
X035105Y001558D01*
X032693Y001834D02*
X032526Y001667D01*
X032526Y001625D01*
X032398Y001625D02*
X032315Y001709D01*
X032398Y001667D02*
X032356Y001625D01*
X032273Y001625D01*
X032231Y001667D01*
X032231Y001834D01*
X032273Y001876D01*
X032356Y001876D01*
X032398Y001834D01*
X032398Y001667D01*
X032526Y001876D02*
X032693Y001876D01*
X032693Y001834D01*
X031255Y001853D02*
X031255Y001686D01*
X031088Y001853D01*
X031046Y001853D01*
X031005Y001811D01*
X031005Y001727D01*
X031046Y001686D01*
X031046Y001558D02*
X031130Y001558D01*
X031172Y001516D01*
X031172Y001391D01*
X031255Y001391D02*
X031005Y001391D01*
X031005Y001516D01*
X031046Y001558D01*
X031172Y001474D02*
X031255Y001558D01*
X028893Y001717D02*
X028893Y001759D01*
X028851Y001800D01*
X028726Y001800D01*
X028726Y001717D01*
X028768Y001675D01*
X028851Y001675D01*
X028893Y001717D01*
X028809Y001884D02*
X028726Y001800D01*
X028809Y001884D02*
X028893Y001926D01*
X028598Y001884D02*
X028556Y001926D01*
X028473Y001926D01*
X028431Y001884D01*
X028431Y001717D01*
X028473Y001675D01*
X028556Y001675D01*
X028598Y001717D01*
X028598Y001884D01*
X028515Y001759D02*
X028598Y001675D01*
X033089Y002404D02*
X033404Y002404D01*
X035339Y002542D02*
X035339Y002916D01*
X035654Y002916D01*
X036166Y002916D02*
X036481Y002916D01*
X036481Y002542D01*
X036839Y002404D02*
X036839Y002778D01*
X037272Y002916D02*
X037548Y002916D01*
X038095Y002997D02*
X038095Y003081D01*
X038136Y003123D01*
X038303Y003123D01*
X038345Y003081D01*
X038345Y002997D01*
X038303Y002956D01*
X038136Y002956D01*
X038095Y002997D01*
X038262Y003039D02*
X038345Y003123D01*
X038303Y003250D02*
X038345Y003292D01*
X038345Y003375D01*
X038303Y003417D01*
X038262Y003417D01*
X038220Y003375D01*
X038220Y003334D01*
X038220Y003375D02*
X038178Y003417D01*
X038136Y003417D01*
X038095Y003375D01*
X038095Y003292D01*
X038136Y003250D01*
X037570Y003590D02*
X036250Y003590D01*
X036250Y004230D01*
X037570Y004230D01*
X037570Y003590D01*
X036230Y003500D02*
X035590Y003500D01*
X035590Y004820D01*
X036230Y004820D01*
X036230Y003500D01*
X034205Y003591D02*
X033955Y003591D01*
X033955Y003716D01*
X033996Y003758D01*
X034080Y003758D01*
X034122Y003716D01*
X034122Y003591D01*
X034122Y003674D02*
X034205Y003758D01*
X034205Y003886D02*
X034205Y004053D01*
X034205Y003969D02*
X033955Y003969D01*
X034038Y003886D01*
X035215Y003865D02*
X035215Y003990D01*
X035256Y004032D01*
X035340Y004032D01*
X035382Y003990D01*
X035382Y003865D01*
X035465Y003865D02*
X035215Y003865D01*
X035382Y003948D02*
X035465Y004032D01*
X035465Y004160D02*
X035465Y004326D01*
X035465Y004243D02*
X035215Y004243D01*
X035298Y004160D01*
X036615Y004355D02*
X036615Y004605D01*
X036740Y004605D01*
X036782Y004564D01*
X036782Y004480D01*
X036740Y004438D01*
X036615Y004438D01*
X036698Y004438D02*
X036782Y004355D01*
X036910Y004355D02*
X037076Y004355D01*
X036993Y004355D02*
X036993Y004605D01*
X036910Y004522D01*
X037204Y004522D02*
X037288Y004605D01*
X037288Y004355D01*
X037371Y004355D02*
X037204Y004355D01*
X035465Y004496D02*
X035465Y004579D01*
X035423Y004621D01*
X035382Y004621D01*
X035340Y004579D01*
X035340Y004496D01*
X035298Y004454D01*
X035256Y004454D01*
X035215Y004496D01*
X035215Y004579D01*
X035256Y004621D01*
X035298Y004621D01*
X035340Y004579D01*
X035340Y004496D02*
X035382Y004454D01*
X035423Y004454D01*
X035465Y004496D01*
X034205Y004347D02*
X034205Y004180D01*
X034038Y004347D01*
X033996Y004347D01*
X033955Y004305D01*
X033955Y004222D01*
X033996Y004180D01*
X033820Y004230D02*
X033820Y003590D01*
X032500Y003590D01*
X032500Y004230D01*
X033820Y004230D01*
X031715Y004260D02*
X031548Y004426D01*
X031506Y004426D01*
X031465Y004385D01*
X031465Y004301D01*
X031506Y004260D01*
X031715Y004260D02*
X031715Y004426D01*
X031673Y004554D02*
X031506Y004721D01*
X031673Y004721D01*
X031715Y004679D01*
X031715Y004596D01*
X031673Y004554D01*
X031506Y004554D01*
X031465Y004596D01*
X031465Y004679D01*
X031506Y004721D01*
X031840Y004820D02*
X032480Y004820D01*
X032480Y003500D01*
X031840Y003500D01*
X031840Y004820D01*
X030455Y004305D02*
X030413Y004347D01*
X030246Y004347D01*
X030413Y004180D01*
X030455Y004222D01*
X030455Y004305D01*
X030246Y004347D02*
X030205Y004305D01*
X030205Y004222D01*
X030246Y004180D01*
X030413Y004180D01*
X030070Y004230D02*
X030070Y003590D01*
X028750Y003590D01*
X028750Y004230D01*
X030070Y004230D01*
X030455Y004053D02*
X030455Y003886D01*
X030455Y003969D02*
X030205Y003969D01*
X030288Y003886D01*
X030246Y003758D02*
X030330Y003758D01*
X030372Y003716D01*
X030372Y003591D01*
X030455Y003591D02*
X030205Y003591D01*
X030205Y003716D01*
X030246Y003758D01*
X030372Y003674D02*
X030455Y003758D01*
X031465Y003965D02*
X031465Y004090D01*
X031506Y004132D01*
X031590Y004132D01*
X031632Y004090D01*
X031632Y003965D01*
X031715Y003965D02*
X031465Y003965D01*
X031632Y004048D02*
X031715Y004132D01*
X028730Y003500D02*
X028090Y003500D01*
X028090Y004820D01*
X028730Y004820D01*
X028730Y003500D01*
X026965Y003576D02*
X026965Y003410D01*
X026798Y003576D01*
X026756Y003576D01*
X026715Y003535D01*
X026715Y003451D01*
X026756Y003410D01*
X026218Y003411D02*
X026218Y003244D01*
X026218Y003327D02*
X025967Y003327D01*
X026051Y003244D01*
X025967Y003116D02*
X026176Y003116D01*
X026218Y003074D01*
X026218Y002991D01*
X026176Y002949D01*
X025967Y002949D01*
X026715Y003115D02*
X026715Y003240D01*
X026756Y003282D01*
X026840Y003282D01*
X026882Y003240D01*
X026882Y003115D01*
X026965Y003115D02*
X026715Y003115D01*
X026882Y003198D02*
X026965Y003282D01*
X026923Y003704D02*
X026965Y003746D01*
X026965Y003829D01*
X026923Y003871D01*
X026840Y003871D01*
X026798Y003829D01*
X026798Y003788D01*
X026840Y003704D01*
X026715Y003704D01*
X026715Y003871D01*
X027715Y003865D02*
X027715Y003990D01*
X027756Y004032D01*
X027840Y004032D01*
X027882Y003990D01*
X027882Y003865D01*
X027965Y003865D02*
X027715Y003865D01*
X027882Y003948D02*
X027965Y004032D01*
X027965Y004160D02*
X027965Y004326D01*
X027965Y004243D02*
X027715Y004243D01*
X027798Y004160D01*
X027798Y004454D02*
X027840Y004496D01*
X027840Y004621D01*
X027923Y004621D02*
X027756Y004621D01*
X027715Y004579D01*
X027715Y004496D01*
X027756Y004454D01*
X027798Y004454D01*
X027923Y004454D02*
X027965Y004496D01*
X027965Y004579D01*
X027923Y004621D01*
X027480Y004500D02*
X026840Y004500D01*
X026840Y005820D01*
X027480Y005820D01*
X027480Y004500D01*
X026715Y004515D02*
X026465Y004515D01*
X026465Y004640D01*
X026506Y004682D01*
X026590Y004682D01*
X026632Y004640D01*
X026632Y004515D01*
X026632Y004598D02*
X026715Y004682D01*
X026715Y004810D02*
X026548Y004976D01*
X026506Y004976D01*
X026465Y004935D01*
X026465Y004851D01*
X026506Y004810D01*
X026715Y004810D02*
X026715Y004976D01*
X026715Y005104D02*
X026548Y005271D01*
X026506Y005271D01*
X026465Y005229D01*
X026465Y005146D01*
X026506Y005104D01*
X026715Y005104D02*
X026715Y005271D01*
X022245Y005248D02*
X022161Y005165D01*
X022203Y005248D02*
X022245Y005206D01*
X022245Y005123D01*
X022203Y005081D01*
X022036Y005081D01*
X021994Y005123D01*
X021994Y005206D01*
X022036Y005248D01*
X022203Y005248D01*
X022203Y005376D02*
X022161Y005376D01*
X022120Y005418D01*
X022120Y005501D01*
X022161Y005543D01*
X022203Y005543D01*
X022245Y005501D01*
X022245Y005418D01*
X022203Y005376D01*
X022120Y005418D02*
X022078Y005376D01*
X022036Y005376D01*
X021994Y005418D01*
X021994Y005501D01*
X022036Y005543D01*
X022078Y005543D01*
X022120Y005501D01*
X022231Y005654D02*
X021916Y005654D01*
X022231Y005654D02*
X022231Y006028D01*
X021798Y006166D02*
X021522Y006166D01*
X021089Y006028D02*
X021089Y005654D01*
X021404Y005654D01*
X020820Y005840D02*
X020820Y006480D01*
X019500Y006480D01*
X019500Y005840D01*
X020820Y005840D01*
X020731Y005416D02*
X020731Y005042D01*
X020840Y005070D02*
X021480Y005070D01*
X021480Y003750D01*
X020840Y003750D01*
X020840Y005070D01*
X020298Y004904D02*
X020022Y004904D01*
X019589Y005042D02*
X019589Y005416D01*
X019904Y005416D01*
X020416Y005416D02*
X020731Y005416D01*
X018070Y005730D02*
X018070Y005090D01*
X016750Y005090D01*
X016750Y005730D01*
X018070Y005730D01*
X017955Y004965D02*
X017872Y004965D01*
X017830Y004924D01*
X017703Y004924D02*
X017661Y004965D01*
X017577Y004965D01*
X017536Y004924D01*
X017536Y004757D01*
X017577Y004715D01*
X017661Y004715D01*
X017703Y004757D01*
X017830Y004715D02*
X017997Y004882D01*
X017997Y004924D01*
X017955Y004965D01*
X017997Y004715D02*
X017830Y004715D01*
X019331Y004434D02*
X019373Y004476D01*
X019456Y004476D01*
X019498Y004434D01*
X019498Y004267D01*
X019456Y004225D01*
X019373Y004225D01*
X019331Y004267D01*
X019331Y004434D01*
X019415Y004309D02*
X019498Y004225D01*
X019626Y004350D02*
X019793Y004350D01*
X019751Y004225D02*
X019751Y004476D01*
X019626Y004350D01*
X021605Y004414D02*
X021688Y004330D01*
X021605Y004414D02*
X021855Y004414D01*
X021855Y004497D02*
X021855Y004330D01*
X021855Y004203D02*
X021855Y004036D01*
X021688Y004203D01*
X021646Y004203D01*
X021605Y004161D01*
X021605Y004077D01*
X021646Y004036D01*
X021646Y003908D02*
X021730Y003908D01*
X021772Y003866D01*
X021772Y003741D01*
X021855Y003741D02*
X021605Y003741D01*
X021605Y003866D01*
X021646Y003908D01*
X021772Y003824D02*
X021855Y003908D01*
X019643Y003605D02*
X019560Y003522D01*
X019643Y003605D02*
X019643Y003355D01*
X019560Y003355D02*
X019726Y003355D01*
X019432Y003397D02*
X019390Y003355D01*
X019307Y003355D01*
X019265Y003397D01*
X019265Y003564D01*
X019307Y003605D01*
X019390Y003605D01*
X019432Y003564D01*
X009965Y005230D02*
X009885Y005245D01*
X009865Y005275D01*
X009842Y005312D01*
X009828Y005353D01*
X009824Y005397D01*
X009830Y005440D01*
X009843Y005471D01*
X009860Y005500D01*
X009800Y005500D01*
X009600Y005400D01*
X009573Y005392D01*
X009544Y005390D01*
X009516Y005394D01*
X009490Y005405D01*
X009480Y005411D01*
X009471Y005420D01*
X009465Y005430D01*
X009451Y005459D01*
X009440Y005490D01*
X009431Y005543D01*
X009431Y005597D01*
X009440Y005650D01*
X009456Y005697D01*
X009480Y005740D01*
X009496Y005759D01*
X009515Y005774D01*
X009538Y005783D01*
X009562Y005788D01*
X009586Y005787D01*
X009610Y005780D01*
X009649Y005767D01*
X009690Y005760D01*
X009690Y005820D01*
X009660Y005880D01*
X009651Y005906D01*
X009649Y005934D01*
X009655Y005961D01*
X009668Y005985D01*
X009687Y006005D01*
X009710Y006020D01*
X009754Y006037D01*
X009800Y006050D01*
X009851Y006057D01*
X009902Y006056D01*
X009952Y006047D01*
X010000Y006030D01*
X010060Y005995D01*
X010088Y005968D01*
X010109Y005935D01*
X010124Y005899D01*
X010130Y005860D01*
X010125Y005822D01*
X010115Y005785D01*
X010100Y005750D01*
X010160Y005750D01*
X010183Y005770D01*
X010210Y005784D01*
X010240Y005791D01*
X010270Y005790D01*
X010297Y005778D01*
X010320Y005760D01*
X010338Y005737D01*
X010350Y005710D01*
X010370Y005665D01*
X010381Y005634D01*
X010387Y005601D01*
X010386Y005568D01*
X010380Y005535D01*
X010350Y005440D01*
X010337Y005414D01*
X010318Y005392D01*
X010296Y005373D01*
X010270Y005360D01*
X010250Y005355D01*
X010230Y005355D01*
X010210Y005360D01*
X010137Y005395D01*
X010070Y005440D01*
X009940Y005540D01*
X009900Y005510D01*
X009890Y005451D01*
X009892Y005391D01*
X009906Y005333D01*
X009930Y005279D01*
X009965Y005230D01*
X009922Y005298D02*
X009851Y005298D01*
X009827Y005366D02*
X009898Y005366D01*
X009891Y005435D02*
X009829Y005435D01*
X009899Y005503D02*
X009438Y005503D01*
X009431Y005572D02*
X010386Y005572D01*
X010379Y005640D02*
X009438Y005640D01*
X009463Y005709D02*
X010351Y005709D01*
X010298Y005777D02*
X010196Y005777D01*
X010112Y005777D02*
X009690Y005777D01*
X009677Y005846D02*
X010128Y005846D01*
X010118Y005914D02*
X009651Y005914D01*
X009666Y005983D02*
X010073Y005983D01*
X009930Y006051D02*
X009807Y006051D01*
X009619Y005777D02*
X009523Y005777D01*
X009261Y005650D02*
X009263Y005700D01*
X009269Y005750D01*
X009279Y005799D01*
X009292Y005847D01*
X009310Y005895D01*
X009331Y005940D01*
X009355Y005984D01*
X009383Y006026D01*
X009414Y006065D01*
X009448Y006102D01*
X009485Y006136D01*
X009524Y006167D01*
X009566Y006195D01*
X009610Y006219D01*
X009655Y006240D01*
X009703Y006258D01*
X009751Y006271D01*
X009800Y006281D01*
X009850Y006287D01*
X009900Y006289D01*
X009950Y006287D01*
X010000Y006281D01*
X010049Y006271D01*
X010097Y006258D01*
X010145Y006240D01*
X010190Y006219D01*
X010234Y006195D01*
X010276Y006167D01*
X010315Y006136D01*
X010352Y006102D01*
X010386Y006065D01*
X010417Y006026D01*
X010445Y005984D01*
X010469Y005940D01*
X010490Y005895D01*
X010508Y005847D01*
X010521Y005799D01*
X010531Y005750D01*
X010537Y005700D01*
X010539Y005650D01*
X010537Y005600D01*
X010531Y005550D01*
X010521Y005501D01*
X010508Y005453D01*
X010490Y005405D01*
X010469Y005360D01*
X010445Y005316D01*
X010417Y005274D01*
X010386Y005235D01*
X010352Y005198D01*
X010315Y005164D01*
X010276Y005133D01*
X010234Y005105D01*
X010190Y005081D01*
X010145Y005060D01*
X010097Y005042D01*
X010049Y005029D01*
X010000Y005019D01*
X009950Y005013D01*
X009900Y005011D01*
X009850Y005013D01*
X009800Y005019D01*
X009751Y005029D01*
X009703Y005042D01*
X009655Y005060D01*
X009610Y005081D01*
X009566Y005105D01*
X009524Y005133D01*
X009485Y005164D01*
X009448Y005198D01*
X009414Y005235D01*
X009383Y005274D01*
X009355Y005316D01*
X009331Y005360D01*
X009310Y005405D01*
X009292Y005453D01*
X009279Y005501D01*
X009269Y005550D01*
X009263Y005600D01*
X009261Y005650D01*
X009463Y005435D02*
X009669Y005435D01*
X009988Y005503D02*
X010370Y005503D01*
X010347Y005435D02*
X010078Y005435D01*
X010197Y005366D02*
X010282Y005366D01*
X003820Y004230D02*
X003820Y003590D01*
X002500Y003590D01*
X002500Y004230D01*
X003820Y004230D01*
X003271Y004614D02*
X003104Y004447D01*
X003104Y004405D01*
X002976Y004405D02*
X002810Y004405D01*
X002893Y004405D02*
X002893Y004655D01*
X002810Y004572D01*
X002682Y004614D02*
X002682Y004530D01*
X002640Y004488D01*
X002515Y004488D01*
X002515Y004405D02*
X002515Y004655D01*
X002640Y004655D01*
X002682Y004614D01*
X003104Y004655D02*
X003271Y004655D01*
X003271Y004614D01*
X002682Y004405D02*
X002598Y004488D01*
X001983Y006244D02*
X001899Y006244D01*
X001857Y006286D01*
X001857Y006369D02*
X001941Y006411D01*
X001983Y006411D01*
X002024Y006369D01*
X002024Y006286D01*
X001983Y006244D01*
X001730Y006286D02*
X001730Y006452D01*
X001688Y006494D01*
X001563Y006494D01*
X001563Y006244D01*
X001688Y006244D01*
X001730Y006286D01*
X001857Y006369D02*
X001857Y006494D01*
X002024Y006494D01*
X015289Y006716D02*
X015330Y006674D01*
X015414Y006674D01*
X015456Y006716D01*
X015456Y006924D01*
X015583Y006882D02*
X015625Y006924D01*
X015709Y006924D01*
X015750Y006882D01*
X015750Y006841D01*
X015583Y006674D01*
X015750Y006674D01*
X015289Y006716D02*
X015289Y006924D01*
X019695Y006845D02*
X019695Y006595D01*
X019695Y006678D02*
X019820Y006678D01*
X019862Y006720D01*
X019862Y006804D01*
X019820Y006845D01*
X019695Y006845D01*
X019990Y006762D02*
X020073Y006845D01*
X020073Y006595D01*
X019990Y006595D02*
X020156Y006595D01*
X020284Y006637D02*
X020326Y006595D01*
X020409Y006595D01*
X020451Y006637D01*
X020451Y006678D01*
X020409Y006720D01*
X020368Y006720D01*
X020409Y006720D02*
X020451Y006762D01*
X020451Y006804D01*
X020409Y006845D01*
X020326Y006845D01*
X020284Y006804D01*
X019862Y006595D02*
X019778Y006678D01*
X037666Y005701D02*
X037666Y005519D01*
X037908Y005494D01*
X037934Y005413D01*
X037973Y005337D01*
X037819Y005148D01*
X037948Y005019D01*
X038137Y005173D01*
X038213Y005134D01*
X038320Y005393D01*
X038280Y005415D01*
X038244Y005444D01*
X038215Y005480D01*
X038193Y005520D01*
X038180Y005564D01*
X038176Y005610D01*
X038181Y005660D01*
X038197Y005708D01*
X038223Y005751D01*
X038258Y005788D01*
X038300Y005817D01*
X038346Y005836D01*
X038396Y005844D01*
X038447Y005841D01*
X038495Y005828D01*
X038540Y005805D01*
X038579Y005772D01*
X038610Y005732D01*
X038631Y005687D01*
X038643Y005638D01*
X038643Y005587D01*
X038633Y005538D01*
X038612Y005491D01*
X038582Y005451D01*
X038544Y005418D01*
X038500Y005393D01*
X038607Y005134D01*
X038683Y005173D01*
X038872Y005019D01*
X039001Y005148D01*
X038847Y005337D01*
X038886Y005413D01*
X038912Y005494D01*
X039154Y005519D01*
X039154Y005701D01*
X038912Y005726D01*
X038886Y005807D01*
X038847Y005883D01*
X039001Y006072D01*
X038872Y006201D01*
X038683Y006047D01*
X038607Y006086D01*
X038526Y006112D01*
X038501Y006354D01*
X038319Y006354D01*
X038294Y006112D01*
X038213Y006086D01*
X038137Y006047D01*
X037948Y006201D01*
X037819Y006072D01*
X037973Y005883D01*
X037934Y005807D01*
X037908Y005726D01*
X037666Y005701D01*
X037666Y005640D02*
X038179Y005640D01*
X038179Y005572D02*
X037666Y005572D01*
X037819Y005503D02*
X038203Y005503D01*
X038256Y005435D02*
X037927Y005435D01*
X037958Y005366D02*
X038309Y005366D01*
X038281Y005298D02*
X037941Y005298D01*
X037885Y005229D02*
X038252Y005229D01*
X038224Y005161D02*
X038160Y005161D01*
X038122Y005161D02*
X037829Y005161D01*
X037875Y005092D02*
X038038Y005092D01*
X037954Y005024D02*
X037944Y005024D01*
X038596Y005161D02*
X038660Y005161D01*
X038698Y005161D02*
X038991Y005161D01*
X038945Y005092D02*
X038782Y005092D01*
X038866Y005024D02*
X038876Y005024D01*
X038935Y005229D02*
X038568Y005229D01*
X038539Y005298D02*
X038879Y005298D01*
X038862Y005366D02*
X038511Y005366D01*
X038563Y005435D02*
X038893Y005435D01*
X039001Y005503D02*
X038617Y005503D01*
X038640Y005572D02*
X039154Y005572D01*
X039154Y005640D02*
X038642Y005640D01*
X038621Y005709D02*
X039084Y005709D01*
X038896Y005777D02*
X038573Y005777D01*
X038867Y005846D02*
X037953Y005846D01*
X037948Y005914D02*
X038872Y005914D01*
X038928Y005983D02*
X037892Y005983D01*
X037836Y006051D02*
X038132Y006051D01*
X038144Y006051D02*
X038676Y006051D01*
X038688Y006051D02*
X038984Y006051D01*
X038953Y006120D02*
X038772Y006120D01*
X038856Y006188D02*
X038885Y006188D01*
X038525Y006120D02*
X038295Y006120D01*
X038302Y006188D02*
X038518Y006188D01*
X038511Y006257D02*
X038309Y006257D01*
X038316Y006325D02*
X038504Y006325D01*
X037964Y006188D02*
X037935Y006188D01*
X037867Y006120D02*
X038048Y006120D01*
X037924Y005777D02*
X038247Y005777D01*
X038197Y005709D02*
X037736Y005709D01*
X041500Y005840D02*
X041500Y006480D01*
X042820Y006480D01*
X042820Y005840D01*
X041500Y005840D01*
X041500Y005480D02*
X041500Y004840D01*
X042820Y004840D01*
X042820Y005480D01*
X041500Y005480D01*
X041761Y004725D02*
X041886Y004725D01*
X041928Y004684D01*
X041928Y004600D01*
X041886Y004558D01*
X041761Y004558D01*
X041761Y004475D02*
X041761Y004725D01*
X042056Y004642D02*
X042139Y004725D01*
X042139Y004475D01*
X042056Y004475D02*
X042223Y004475D01*
X042350Y004517D02*
X042392Y004475D01*
X042475Y004475D01*
X042517Y004517D01*
X042517Y004600D01*
X042475Y004642D01*
X042434Y004642D01*
X042350Y004600D01*
X042350Y004725D01*
X042517Y004725D01*
X041928Y004475D02*
X041844Y004558D01*
X045000Y004730D02*
X045000Y004090D01*
X046320Y004090D01*
X046320Y004730D01*
X045000Y004730D01*
X046938Y004376D02*
X047063Y004376D01*
X047105Y004335D01*
X047105Y004168D01*
X047063Y004126D01*
X046938Y004126D01*
X046938Y004376D01*
X047233Y004251D02*
X047358Y004376D01*
X047358Y004126D01*
X047399Y004251D02*
X047233Y004251D01*
X045925Y003975D02*
X045800Y003850D01*
X045967Y003850D01*
X045925Y003725D02*
X045925Y003975D01*
X045589Y003975D02*
X045506Y003892D01*
X045589Y003975D02*
X045589Y003725D01*
X045506Y003725D02*
X045673Y003725D01*
X045378Y003725D02*
X045294Y003808D01*
X045336Y003808D02*
X045211Y003808D01*
X045211Y003725D02*
X045211Y003975D01*
X045336Y003975D01*
X045378Y003934D01*
X045378Y003850D01*
X045336Y003808D01*
X037981Y002778D02*
X037981Y002404D01*
X037666Y002404D01*
X037154Y002404D02*
X036839Y002404D01*
X036048Y002404D02*
X035772Y002404D01*
X043188Y002376D02*
X043188Y002126D01*
X043313Y002126D01*
X043355Y002168D01*
X043355Y002335D01*
X043313Y002376D01*
X043188Y002376D01*
X043483Y002335D02*
X043525Y002376D01*
X043608Y002376D01*
X043650Y002335D01*
X043650Y002293D01*
X043608Y002251D01*
X043650Y002210D01*
X043650Y002168D01*
X043608Y002126D01*
X043525Y002126D01*
X043483Y002168D01*
X043566Y002251D02*
X043608Y002251D01*
X022320Y001730D02*
X022320Y001090D01*
X021000Y001090D01*
X021000Y001730D01*
X022320Y001730D01*
X020925Y001425D02*
X020800Y001300D01*
X020967Y001300D01*
X020925Y001175D02*
X020925Y001425D01*
X020673Y001384D02*
X020673Y001300D01*
X020631Y001258D01*
X020506Y001258D01*
X020506Y001175D02*
X020506Y001425D01*
X020631Y001425D01*
X020673Y001384D01*
X020589Y001258D02*
X020673Y001175D01*
X021000Y000980D02*
X021000Y000340D01*
X022320Y000340D01*
X022320Y000980D01*
X021000Y000980D01*
X020917Y000875D02*
X020834Y000834D01*
X020750Y000750D01*
X020875Y000750D01*
X020917Y000708D01*
X020917Y000667D01*
X020875Y000625D01*
X020792Y000625D01*
X020750Y000667D01*
X020750Y000750D01*
X020623Y000750D02*
X020581Y000708D01*
X020456Y000708D01*
X020456Y000625D02*
X020456Y000875D01*
X020581Y000875D01*
X020623Y000834D01*
X020623Y000750D01*
X020539Y000708D02*
X020623Y000625D01*
X041495Y006595D02*
X041495Y006845D01*
X041620Y006845D01*
X041662Y006804D01*
X041662Y006720D01*
X041620Y006678D01*
X041495Y006678D01*
X041578Y006678D02*
X041662Y006595D01*
X041790Y006595D02*
X041956Y006595D01*
X041873Y006595D02*
X041873Y006845D01*
X041790Y006762D01*
X042084Y006720D02*
X042168Y006804D01*
X042251Y006845D01*
X042209Y006720D02*
X042084Y006720D01*
X042084Y006637D01*
X042126Y006595D01*
X042209Y006595D01*
X042251Y006637D01*
X042251Y006678D01*
X042209Y006720D01*
D11*
X047790Y005882D02*
X047790Y005745D01*
X047671Y005784D02*
X047640Y005823D01*
X047606Y005859D01*
X047569Y005892D01*
X047530Y005923D01*
X047488Y005950D01*
X047444Y005974D01*
X047398Y005994D01*
X047351Y006010D01*
X047303Y006023D01*
X047254Y006032D01*
X047205Y006037D01*
X047155Y006038D01*
X047105Y006035D01*
X047056Y006028D01*
X047007Y006017D01*
X046960Y006003D01*
X046913Y005984D01*
X046869Y005963D01*
X046826Y005937D01*
X046785Y005908D01*
X046747Y005877D01*
X046711Y005842D01*
X046678Y005804D01*
X046648Y005764D01*
X046668Y005036D02*
X046699Y004999D01*
X046733Y004964D01*
X046770Y004932D01*
X046809Y004903D01*
X046850Y004877D01*
X046893Y004854D01*
X046937Y004834D01*
X046983Y004818D01*
X047030Y004806D01*
X047078Y004798D01*
X047127Y004793D01*
X047175Y004792D01*
X047224Y004795D01*
X047272Y004802D01*
X047319Y004812D01*
X047366Y004826D01*
X047411Y004844D01*
X047455Y004865D01*
X047497Y004889D01*
X047537Y004917D01*
X047575Y004948D01*
X047610Y004981D01*
X047643Y005017D01*
X047672Y005056D01*
X047790Y005075D02*
X047790Y004938D01*
X047756Y004896D01*
X047719Y004856D01*
X047679Y004819D01*
X047637Y004784D01*
X047593Y004753D01*
X047547Y004725D01*
X047499Y004700D01*
X047449Y004678D01*
X047398Y004660D01*
X047346Y004646D01*
X047293Y004635D01*
X047239Y004628D01*
X047185Y004624D01*
X047131Y004625D01*
X047077Y004629D01*
X047023Y004636D01*
X046970Y004648D01*
X046918Y004663D01*
X046867Y004682D01*
X046818Y004704D01*
X046770Y004729D01*
X046724Y004758D01*
X046680Y004790D01*
X046638Y004824D01*
X046599Y004862D01*
X046563Y004902D01*
X046529Y004945D01*
X046499Y004989D01*
X046471Y005036D01*
X046471Y005784D02*
X046499Y005831D01*
X046529Y005875D01*
X046563Y005918D01*
X046599Y005958D01*
X046638Y005996D01*
X046680Y006030D01*
X046724Y006062D01*
X046770Y006091D01*
X046818Y006116D01*
X046867Y006138D01*
X046918Y006157D01*
X046970Y006172D01*
X047023Y006184D01*
X047077Y006191D01*
X047131Y006195D01*
X047185Y006196D01*
X047239Y006192D01*
X047293Y006185D01*
X047346Y006174D01*
X047398Y006160D01*
X047449Y006142D01*
X047499Y006120D01*
X047547Y006095D01*
X047593Y006067D01*
X047637Y006036D01*
X047679Y006001D01*
X047719Y005964D01*
X047756Y005924D01*
X047790Y005882D01*
X041882Y002394D02*
X040938Y002394D01*
X041804Y000938D02*
X041410Y000544D01*
X041804Y000544D01*
X041804Y000938D01*
X041804Y000867D02*
X041733Y000867D01*
X041804Y000788D02*
X041654Y000788D01*
X041576Y000710D02*
X041804Y000710D01*
X041804Y000631D02*
X041497Y000631D01*
X041419Y000553D02*
X041804Y000553D01*
X041882Y000426D02*
X040938Y000426D01*
X024632Y000426D02*
X023688Y000426D01*
X024160Y000544D02*
X024554Y000938D01*
X024554Y000544D01*
X024160Y000544D01*
X024169Y000553D02*
X024554Y000553D01*
X024554Y000631D02*
X024247Y000631D01*
X024326Y000710D02*
X024554Y000710D01*
X024554Y000788D02*
X024404Y000788D01*
X024483Y000867D02*
X024554Y000867D01*
X024632Y002394D02*
X023688Y002394D01*
X008132Y002394D02*
X007188Y002394D01*
X008054Y000938D02*
X007660Y000544D01*
X008054Y000544D01*
X008054Y000938D01*
X008054Y000867D02*
X007983Y000867D01*
X008054Y000788D02*
X007904Y000788D01*
X007826Y000710D02*
X008054Y000710D01*
X008054Y000631D02*
X007747Y000631D01*
X007669Y000553D02*
X008054Y000553D01*
X008132Y000426D02*
X007188Y000426D01*
X000530Y004938D02*
X000530Y005075D01*
X000649Y005036D02*
X000680Y004997D01*
X000714Y004961D01*
X000751Y004928D01*
X000790Y004897D01*
X000832Y004870D01*
X000876Y004846D01*
X000922Y004826D01*
X000969Y004810D01*
X001017Y004797D01*
X001066Y004788D01*
X001115Y004783D01*
X001165Y004782D01*
X001215Y004785D01*
X001264Y004792D01*
X001313Y004803D01*
X001360Y004817D01*
X001407Y004836D01*
X001451Y004857D01*
X001494Y004883D01*
X001535Y004912D01*
X001573Y004943D01*
X001609Y004978D01*
X001642Y005016D01*
X001672Y005056D01*
X001652Y005784D02*
X001621Y005821D01*
X001587Y005856D01*
X001550Y005888D01*
X001511Y005917D01*
X001470Y005943D01*
X001427Y005966D01*
X001383Y005986D01*
X001337Y006002D01*
X001290Y006014D01*
X001242Y006022D01*
X001193Y006027D01*
X001145Y006028D01*
X001096Y006025D01*
X001048Y006018D01*
X001001Y006008D01*
X000954Y005994D01*
X000909Y005976D01*
X000865Y005955D01*
X000823Y005931D01*
X000783Y005903D01*
X000745Y005872D01*
X000710Y005839D01*
X000677Y005803D01*
X000648Y005764D01*
X000530Y005745D02*
X000530Y005882D01*
X000564Y005924D01*
X000601Y005964D01*
X000641Y006001D01*
X000683Y006036D01*
X000727Y006067D01*
X000773Y006095D01*
X000821Y006120D01*
X000871Y006142D01*
X000922Y006160D01*
X000974Y006174D01*
X001027Y006185D01*
X001081Y006192D01*
X001135Y006196D01*
X001189Y006195D01*
X001243Y006191D01*
X001297Y006184D01*
X001350Y006172D01*
X001402Y006157D01*
X001453Y006138D01*
X001502Y006116D01*
X001550Y006091D01*
X001596Y006062D01*
X001640Y006030D01*
X001682Y005996D01*
X001721Y005958D01*
X001757Y005918D01*
X001791Y005875D01*
X001821Y005831D01*
X001849Y005784D01*
X001849Y005036D02*
X001821Y004989D01*
X001791Y004945D01*
X001757Y004902D01*
X001721Y004862D01*
X001682Y004824D01*
X001640Y004790D01*
X001596Y004758D01*
X001550Y004729D01*
X001502Y004704D01*
X001453Y004682D01*
X001402Y004663D01*
X001350Y004648D01*
X001297Y004636D01*
X001243Y004629D01*
X001189Y004625D01*
X001135Y004624D01*
X001081Y004628D01*
X001027Y004635D01*
X000974Y004646D01*
X000922Y004660D01*
X000871Y004678D01*
X000821Y004700D01*
X000773Y004725D01*
X000727Y004753D01*
X000683Y004784D01*
X000641Y004819D01*
X000601Y004856D01*
X000564Y004896D01*
X000530Y004938D01*
X016266Y005977D02*
X017054Y005977D01*
X017054Y006843D02*
X016266Y006843D01*
D12*
X015410Y006660D02*
X015410Y004660D01*
X014410Y004660D01*
X014410Y006660D01*
X015410Y006660D01*
X018410Y006660D02*
X019410Y006660D01*
X019410Y004660D01*
X018410Y004660D01*
X018410Y006660D01*
X017160Y005910D02*
X017162Y005923D01*
X017167Y005936D01*
X017176Y005947D01*
X017187Y005954D01*
X017200Y005959D01*
X017213Y005960D01*
X017227Y005957D01*
X017239Y005951D01*
X017249Y005942D01*
X017256Y005930D01*
X017260Y005917D01*
X017260Y005903D01*
X017256Y005890D01*
X017249Y005878D01*
X017239Y005869D01*
X017227Y005863D01*
X017213Y005860D01*
X017200Y005861D01*
X017187Y005866D01*
X017176Y005873D01*
X017167Y005884D01*
X017162Y005897D01*
X017160Y005910D01*
X008660Y006660D02*
X008660Y004660D01*
X007660Y004660D01*
X007660Y006660D01*
X008660Y006660D01*
X004660Y006660D02*
X004660Y004660D01*
X003660Y004660D01*
X003660Y006660D01*
X004660Y006660D01*
X028910Y006660D02*
X028910Y004660D01*
X029910Y004660D01*
X029910Y006660D01*
X028910Y006660D01*
X032910Y006660D02*
X033910Y006660D01*
X033910Y004660D01*
X032910Y004660D01*
X032910Y006660D01*
X039660Y006660D02*
X040660Y006660D01*
X040660Y004660D01*
X039660Y004660D01*
X039660Y006660D01*
X043660Y006660D02*
X044660Y006660D01*
X044660Y004660D01*
X043660Y004660D01*
X043660Y006660D01*
M02*
