G75*
G70*
%OFA0B0*%
%FSLAX24Y24*%
%IPPOS*%
%LPD*%
%AMOC8*
5,1,8,0,0,1.08239X$1,22.5*
%
%ADD10C,0.0700*%
%ADD11R,0.0515X0.0515*%
%ADD12C,0.0515*%
%ADD13C,0.0760*%
%ADD14R,0.0433X0.0394*%
%ADD15C,0.0120*%
%ADD16C,0.0340*%
%ADD17C,0.0160*%
%ADD18C,0.0100*%
D10*
X004160Y005160D03*
X008160Y005160D03*
X008160Y006160D03*
X004160Y006160D03*
X014910Y006160D03*
X018910Y006160D03*
X018910Y005160D03*
X014910Y005160D03*
X029410Y005160D03*
X033410Y005160D03*
X033410Y006160D03*
X029410Y006160D03*
X040160Y006160D03*
X044160Y006160D03*
X044160Y005160D03*
X040160Y005160D03*
D11*
X046660Y005410D03*
X014548Y002160D03*
X001660Y005410D03*
D12*
X000660Y005410D03*
X015335Y002160D03*
X016123Y002160D03*
X016910Y002160D03*
X017697Y002160D03*
X018485Y002160D03*
X019272Y002160D03*
X047660Y005410D03*
D13*
X024910Y005910D03*
X023410Y005910D03*
D14*
X030825Y003160D03*
X031495Y003160D03*
X034575Y003160D03*
X035245Y003160D03*
X027995Y002910D03*
X027325Y002910D03*
D15*
X002692Y000436D02*
X002595Y000380D01*
X019945Y000380D01*
X019863Y000462D01*
X019810Y000590D01*
X019810Y000730D01*
X019863Y000858D01*
X019915Y000910D01*
X019863Y000962D01*
X019810Y001090D01*
X019810Y001230D01*
X019863Y001358D01*
X019962Y001457D01*
X020090Y001510D01*
X020093Y001510D01*
X020060Y001590D01*
X020060Y001730D01*
X020113Y001858D01*
X020212Y001957D01*
X020340Y002010D01*
X020480Y002010D01*
X020608Y001957D01*
X020645Y001920D01*
X021712Y001920D01*
X021807Y001880D01*
X022018Y001670D01*
X025302Y001670D01*
X025440Y001807D01*
X025513Y001880D01*
X025608Y001920D01*
X027175Y001920D01*
X027212Y001957D01*
X027340Y002010D01*
X027480Y002010D01*
X027608Y001957D01*
X027645Y001920D01*
X030962Y001920D01*
X031057Y001880D01*
X031130Y001807D01*
X031130Y001807D01*
X031268Y001670D01*
X042052Y001670D01*
X042440Y002057D01*
X042440Y002057D01*
X042513Y002130D01*
X042608Y002170D01*
X044425Y002170D01*
X044462Y002207D01*
X044590Y002260D01*
X044730Y002260D01*
X044858Y002207D01*
X044957Y002108D01*
X044988Y002032D01*
X045094Y002428D01*
X045316Y002812D01*
X045628Y003124D01*
X046012Y003346D01*
X046439Y003460D01*
X046881Y003460D01*
X047308Y003346D01*
X047692Y003124D01*
X047940Y002876D01*
X047940Y005071D01*
X047908Y005039D01*
X047747Y004973D01*
X047573Y004973D01*
X047412Y005039D01*
X047289Y005162D01*
X047223Y005323D01*
X047223Y005497D01*
X047289Y005658D01*
X047412Y005781D01*
X047573Y005847D01*
X047747Y005847D01*
X047908Y005781D01*
X047940Y005749D01*
X047940Y006940D01*
X025705Y006940D01*
X026385Y006260D01*
X026480Y006260D01*
X026608Y006207D01*
X026707Y006108D01*
X026760Y005980D01*
X026760Y005840D01*
X026707Y005712D01*
X026608Y005613D01*
X026480Y005560D01*
X026340Y005560D01*
X026212Y005613D01*
X026113Y005712D01*
X026060Y005840D01*
X026060Y005935D01*
X025315Y006680D01*
X024465Y006680D01*
X024711Y006434D01*
X024799Y006470D01*
X025021Y006470D01*
X025227Y006385D01*
X025385Y006227D01*
X025470Y006021D01*
X025470Y005799D01*
X025385Y005593D01*
X025227Y005435D01*
X025118Y005390D01*
X025755Y005390D01*
X025890Y005255D01*
X026005Y005140D01*
X026815Y005140D01*
X026930Y005255D01*
X026930Y005895D01*
X026863Y005962D01*
X026810Y006090D01*
X026810Y006230D01*
X026863Y006358D01*
X026962Y006457D01*
X027090Y006510D01*
X027230Y006510D01*
X027358Y006457D01*
X027457Y006358D01*
X027510Y006230D01*
X027510Y006090D01*
X027457Y005962D01*
X027390Y005895D01*
X027390Y005065D01*
X027215Y004890D01*
X028948Y004890D01*
X028880Y005055D01*
X028880Y005265D01*
X028961Y005460D01*
X029110Y005609D01*
X029232Y005660D01*
X029110Y005711D01*
X028961Y005860D01*
X028880Y006055D01*
X028880Y006265D01*
X028961Y006460D01*
X029110Y006609D01*
X029305Y006690D01*
X029515Y006690D01*
X029710Y006609D01*
X029859Y006460D01*
X029940Y006265D01*
X029940Y006055D01*
X029859Y005860D01*
X029710Y005711D01*
X029588Y005660D01*
X029710Y005609D01*
X029859Y005460D01*
X029940Y005265D01*
X029940Y005055D01*
X029872Y004890D01*
X032948Y004890D01*
X032880Y005055D01*
X032880Y005265D01*
X032961Y005460D01*
X033110Y005609D01*
X033261Y005672D01*
X033214Y005687D01*
X033143Y005724D01*
X033078Y005771D01*
X033021Y005828D01*
X032974Y005893D01*
X032937Y005964D01*
X032913Y006041D01*
X032900Y006120D01*
X032900Y006120D01*
X033370Y006120D01*
X033370Y006200D01*
X033370Y006670D01*
X033370Y006670D01*
X033291Y006657D01*
X033214Y006633D01*
X033143Y006596D01*
X033078Y006549D01*
X033021Y006492D01*
X032974Y006427D01*
X032937Y006356D01*
X032913Y006279D01*
X032900Y006200D01*
X033370Y006200D01*
X033450Y006200D01*
X033450Y006670D01*
X033450Y006670D01*
X033529Y006657D01*
X033606Y006633D01*
X033677Y006596D01*
X033742Y006549D01*
X033799Y006492D01*
X033846Y006427D01*
X033883Y006356D01*
X033907Y006279D01*
X033920Y006200D01*
X033920Y006200D01*
X033450Y006200D01*
X033450Y006120D01*
X033920Y006120D01*
X033920Y006120D01*
X033907Y006041D01*
X033883Y005964D01*
X033846Y005893D01*
X033799Y005828D01*
X033742Y005771D01*
X033677Y005724D01*
X033606Y005687D01*
X033559Y005672D01*
X033710Y005609D01*
X033859Y005460D01*
X033940Y005265D01*
X033940Y005055D01*
X033872Y004890D01*
X035005Y004890D01*
X035140Y004755D01*
X035255Y004640D01*
X038895Y004640D01*
X038962Y004707D01*
X039090Y004760D01*
X039230Y004760D01*
X039358Y004707D01*
X039457Y004608D01*
X039510Y004480D01*
X039510Y004340D01*
X039457Y004212D01*
X039358Y004113D01*
X039230Y004060D01*
X039090Y004060D01*
X038962Y004113D01*
X038895Y004180D01*
X035135Y004180D01*
X035207Y004108D01*
X035260Y003980D01*
X035260Y003840D01*
X035207Y003712D01*
X035108Y003613D01*
X034980Y003560D01*
X034840Y003560D01*
X034805Y003575D01*
X034805Y003537D01*
X034866Y003537D01*
X034910Y003493D01*
X034954Y003537D01*
X035536Y003537D01*
X035570Y003503D01*
X035613Y003608D01*
X035712Y003707D01*
X035840Y003760D01*
X035980Y003760D01*
X036108Y003707D01*
X036207Y003608D01*
X036260Y003480D01*
X036260Y003340D01*
X036207Y003212D01*
X036108Y003113D01*
X035980Y003060D01*
X035885Y003060D01*
X035755Y002930D01*
X035641Y002930D01*
X035641Y002889D01*
X035536Y002783D01*
X034954Y002783D01*
X034910Y002827D01*
X034866Y002783D01*
X034284Y002783D01*
X034179Y002889D01*
X034179Y003431D01*
X034284Y003537D01*
X034345Y003537D01*
X034345Y003815D01*
X033980Y004180D01*
X031385Y004180D01*
X031457Y004108D01*
X031510Y003980D01*
X031510Y003840D01*
X031457Y003712D01*
X031358Y003613D01*
X031230Y003560D01*
X031090Y003560D01*
X031055Y003575D01*
X031055Y003537D01*
X031116Y003537D01*
X031160Y003493D01*
X031204Y003537D01*
X031786Y003537D01*
X031820Y003503D01*
X031863Y003608D01*
X031962Y003707D01*
X032090Y003760D01*
X032230Y003760D01*
X032358Y003707D01*
X032457Y003608D01*
X032510Y003480D01*
X032510Y003340D01*
X032457Y003212D01*
X032358Y003113D01*
X032230Y003060D01*
X032135Y003060D01*
X032005Y002930D01*
X031891Y002930D01*
X031891Y002889D01*
X031786Y002783D01*
X031204Y002783D01*
X031160Y002827D01*
X031116Y002783D01*
X030534Y002783D01*
X030429Y002889D01*
X030429Y003431D01*
X030496Y003499D01*
X030430Y003565D01*
X030430Y003680D01*
X028635Y003680D01*
X028707Y003608D01*
X028760Y003480D01*
X028760Y003340D01*
X028707Y003212D01*
X028640Y003145D01*
X028640Y002958D01*
X028505Y002824D01*
X028391Y002710D01*
X028391Y002639D01*
X028286Y002533D01*
X027704Y002533D01*
X027660Y002577D01*
X027616Y002533D01*
X027034Y002533D01*
X026929Y002639D01*
X026929Y002680D01*
X026925Y002680D01*
X026858Y002613D01*
X026730Y002560D01*
X026590Y002560D01*
X026462Y002613D01*
X026395Y002680D01*
X024565Y002680D01*
X023935Y003310D01*
X023840Y003310D01*
X023712Y003363D01*
X023613Y003462D01*
X023560Y003590D01*
X023560Y003730D01*
X023613Y003858D01*
X023685Y003930D01*
X022425Y003930D01*
X022358Y003863D01*
X022230Y003810D01*
X022090Y003810D01*
X021962Y003863D01*
X021863Y003962D01*
X021810Y004090D01*
X021810Y004230D01*
X021863Y004358D01*
X021905Y004400D01*
X021768Y004400D01*
X021170Y003802D01*
X021170Y003145D01*
X021207Y003108D01*
X021260Y002980D01*
X021260Y002840D01*
X021207Y002712D01*
X021108Y002613D01*
X020980Y002560D01*
X020840Y002560D01*
X020712Y002613D01*
X020613Y002712D01*
X020560Y002840D01*
X020560Y002980D01*
X020613Y003108D01*
X020650Y003145D01*
X020650Y003650D01*
X020645Y003650D01*
X020608Y003613D01*
X020480Y003560D01*
X020340Y003560D01*
X020212Y003613D01*
X020175Y003650D01*
X020145Y003650D01*
X020108Y003613D01*
X019980Y003560D01*
X019840Y003560D01*
X019712Y003613D01*
X019613Y003712D01*
X019560Y003840D01*
X019560Y003980D01*
X019613Y004108D01*
X019712Y004207D01*
X019840Y004260D01*
X019980Y004260D01*
X020108Y004207D01*
X020145Y004170D01*
X020175Y004170D01*
X020212Y004207D01*
X020340Y004260D01*
X020480Y004260D01*
X020608Y004207D01*
X020645Y004170D01*
X020802Y004170D01*
X021440Y004807D01*
X021513Y004880D01*
X021608Y004920D01*
X023212Y004920D01*
X023307Y004880D01*
X023518Y004670D01*
X023905Y004670D01*
X023863Y004712D01*
X023810Y004840D01*
X023810Y004980D01*
X023814Y004988D01*
X023755Y004930D01*
X023065Y004930D01*
X022565Y005430D01*
X022430Y005565D01*
X022430Y005895D01*
X022363Y005962D01*
X022310Y006090D01*
X022310Y006230D01*
X022363Y006358D01*
X022435Y006430D01*
X021505Y006430D01*
X020890Y005815D01*
X020890Y005675D01*
X020957Y005608D01*
X021010Y005480D01*
X021010Y005340D01*
X020957Y005212D01*
X020858Y005113D01*
X020730Y005060D01*
X020590Y005060D01*
X020462Y005113D01*
X020363Y005212D01*
X020310Y005340D01*
X020310Y005480D01*
X020363Y005608D01*
X020430Y005675D01*
X020430Y006005D01*
X021105Y006680D01*
X015040Y006680D01*
X015210Y006609D01*
X015359Y006460D01*
X015440Y006265D01*
X015440Y006185D01*
X015462Y006207D01*
X015590Y006260D01*
X015730Y006260D01*
X015858Y006207D01*
X015957Y006108D01*
X016010Y005980D01*
X016010Y005840D01*
X015957Y005712D01*
X015858Y005613D01*
X015730Y005560D01*
X015635Y005560D01*
X015411Y005336D01*
X015440Y005265D01*
X015440Y005055D01*
X015359Y004860D01*
X015210Y004711D01*
X015015Y004630D01*
X014805Y004630D01*
X014610Y004711D01*
X014461Y004860D01*
X014432Y004930D01*
X014315Y004930D01*
X014180Y005065D01*
X013930Y005315D01*
X013930Y005895D01*
X013863Y005962D01*
X013810Y006090D01*
X013810Y006230D01*
X013863Y006358D01*
X013962Y006457D01*
X014090Y006510D01*
X014230Y006510D01*
X014358Y006457D01*
X014430Y006385D01*
X014461Y006460D01*
X014610Y006609D01*
X014780Y006680D01*
X013755Y006680D01*
X013505Y006430D01*
X011175Y006430D01*
X011108Y006363D01*
X010980Y006310D01*
X010840Y006310D01*
X010712Y006363D01*
X010613Y006462D01*
X010560Y006590D01*
X010560Y006730D01*
X010613Y006858D01*
X010695Y006940D01*
X000380Y006940D01*
X000380Y005749D01*
X000412Y005781D01*
X000573Y005847D01*
X000747Y005847D01*
X000908Y005781D01*
X001031Y005658D01*
X001097Y005497D01*
X001097Y005323D01*
X001031Y005162D01*
X000908Y005039D01*
X000747Y004973D01*
X000573Y004973D01*
X000412Y005039D01*
X000380Y005071D01*
X000380Y002876D01*
X000628Y003124D01*
X001012Y003346D01*
X001439Y003460D01*
X001881Y003460D01*
X002308Y003346D01*
X002692Y003124D01*
X003004Y002812D01*
X003226Y002428D01*
X003340Y002001D01*
X003340Y001559D01*
X003226Y001132D01*
X003004Y000748D01*
X002692Y000436D01*
X002625Y000397D02*
X019928Y000397D01*
X019841Y000516D02*
X002771Y000516D01*
X002890Y000634D02*
X019810Y000634D01*
X019819Y000753D02*
X003007Y000753D01*
X003075Y000871D02*
X019876Y000871D01*
X019852Y000990D02*
X003144Y000990D01*
X003212Y001108D02*
X019810Y001108D01*
X019810Y001227D02*
X003251Y001227D01*
X003283Y001345D02*
X019858Y001345D01*
X019978Y001464D02*
X003314Y001464D01*
X003340Y001582D02*
X020063Y001582D01*
X020060Y001701D02*
X003340Y001701D01*
X003340Y001819D02*
X014119Y001819D01*
X014110Y001828D02*
X014216Y001723D01*
X014880Y001723D01*
X014985Y001828D01*
X014985Y001891D01*
X015087Y001789D01*
X015248Y001723D01*
X015422Y001723D01*
X015583Y001789D01*
X015706Y001912D01*
X015729Y001967D01*
X015752Y001912D01*
X015875Y001789D01*
X016036Y001723D01*
X016210Y001723D01*
X016370Y001789D01*
X016493Y001912D01*
X016527Y001993D01*
X016553Y001941D01*
X016592Y001888D01*
X016638Y001842D01*
X016691Y001803D01*
X016750Y001773D01*
X016812Y001753D01*
X016877Y001743D01*
X016891Y001743D01*
X016891Y002141D01*
X016929Y002141D01*
X016929Y001743D01*
X016943Y001743D01*
X017008Y001753D01*
X017070Y001773D01*
X017129Y001803D01*
X017182Y001842D01*
X017228Y001888D01*
X017267Y001941D01*
X017293Y001993D01*
X017327Y001912D01*
X017450Y001789D01*
X017610Y001723D01*
X017784Y001723D01*
X017945Y001789D01*
X018068Y001912D01*
X018091Y001967D01*
X018114Y001912D01*
X018237Y001789D01*
X018398Y001723D01*
X018572Y001723D01*
X018733Y001789D01*
X018856Y001912D01*
X018879Y001967D01*
X018901Y001912D01*
X019024Y001789D01*
X019185Y001723D01*
X019359Y001723D01*
X019520Y001789D01*
X019643Y001912D01*
X019710Y002073D01*
X019710Y002247D01*
X019643Y002408D01*
X019520Y002531D01*
X019359Y002597D01*
X019185Y002597D01*
X019024Y002531D01*
X018901Y002408D01*
X018879Y002353D01*
X018856Y002408D01*
X018733Y002531D01*
X018572Y002597D01*
X018398Y002597D01*
X018237Y002531D01*
X018114Y002408D01*
X018091Y002353D01*
X018068Y002408D01*
X017945Y002531D01*
X017784Y002597D01*
X017610Y002597D01*
X017450Y002531D01*
X017327Y002408D01*
X017293Y002327D01*
X017267Y002379D01*
X017228Y002432D01*
X017182Y002478D01*
X017129Y002517D01*
X017070Y002547D01*
X017008Y002567D01*
X016943Y002577D01*
X016929Y002577D01*
X016929Y002179D01*
X016891Y002179D01*
X016891Y002577D01*
X016877Y002577D01*
X016812Y002567D01*
X016750Y002547D01*
X016691Y002517D01*
X016638Y002478D01*
X016592Y002432D01*
X016553Y002379D01*
X016527Y002327D01*
X016493Y002408D01*
X016370Y002531D01*
X016210Y002597D01*
X016036Y002597D01*
X016018Y002590D01*
X015890Y002718D01*
X015890Y002895D01*
X015957Y002962D01*
X016010Y003090D01*
X016010Y003230D01*
X015957Y003358D01*
X015890Y003425D01*
X015890Y004560D01*
X015980Y004560D01*
X016108Y004613D01*
X016207Y004712D01*
X016260Y004840D01*
X016260Y004980D01*
X016207Y005108D01*
X016108Y005207D01*
X015980Y005260D01*
X015840Y005260D01*
X015712Y005207D01*
X015613Y005108D01*
X015560Y004980D01*
X015560Y004885D01*
X015430Y004755D01*
X015430Y003425D01*
X015363Y003358D01*
X015310Y003230D01*
X015310Y003090D01*
X015363Y002962D01*
X015430Y002895D01*
X015430Y002594D01*
X015422Y002597D01*
X015248Y002597D01*
X015087Y002531D01*
X014985Y002429D01*
X014985Y002492D01*
X014880Y002597D01*
X014216Y002597D01*
X014110Y002492D01*
X014110Y001828D01*
X014110Y001938D02*
X003340Y001938D01*
X003325Y002056D02*
X014110Y002056D01*
X014110Y002175D02*
X003294Y002175D01*
X003262Y002293D02*
X014110Y002293D01*
X014110Y002412D02*
X003230Y002412D01*
X003167Y002530D02*
X014148Y002530D01*
X014947Y002530D02*
X015087Y002530D01*
X015430Y002649D02*
X003098Y002649D01*
X003030Y002767D02*
X015430Y002767D01*
X015890Y002767D02*
X016090Y002767D01*
X016113Y002712D02*
X016212Y002613D01*
X016340Y002560D01*
X016480Y002560D01*
X016608Y002613D01*
X016707Y002712D01*
X016760Y002840D01*
X016760Y002980D01*
X016707Y003108D01*
X016640Y003175D01*
X016640Y004145D01*
X016707Y004212D01*
X016760Y004340D01*
X016760Y004480D01*
X016707Y004608D01*
X016608Y004707D01*
X016480Y004760D01*
X016340Y004760D01*
X016212Y004707D01*
X016113Y004608D01*
X016060Y004480D01*
X016060Y004340D01*
X016113Y004212D01*
X016180Y004145D01*
X016180Y003175D01*
X016113Y003108D01*
X016060Y002980D01*
X016060Y002840D01*
X016113Y002712D01*
X016177Y002649D02*
X015959Y002649D01*
X016643Y002649D02*
X020677Y002649D01*
X020590Y002767D02*
X016730Y002767D01*
X016760Y002886D02*
X020560Y002886D01*
X020570Y003004D02*
X016750Y003004D01*
X016070Y003004D02*
X015974Y003004D01*
X015890Y002886D02*
X016060Y002886D01*
X015430Y002886D02*
X002930Y002886D01*
X002812Y003004D02*
X015346Y003004D01*
X015310Y003123D02*
X002693Y003123D01*
X002489Y003241D02*
X015315Y003241D01*
X015365Y003360D02*
X002256Y003360D01*
X001064Y003360D02*
X000380Y003360D01*
X000380Y003478D02*
X015430Y003478D01*
X015430Y003597D02*
X000380Y003597D01*
X000380Y003715D02*
X015430Y003715D01*
X015430Y003834D02*
X000380Y003834D01*
X000380Y003952D02*
X015430Y003952D01*
X015430Y004071D02*
X000380Y004071D01*
X000380Y004189D02*
X015430Y004189D01*
X015890Y004189D02*
X016136Y004189D01*
X016684Y004189D02*
X018136Y004189D01*
X018113Y004212D02*
X018212Y004113D01*
X018340Y004060D01*
X018480Y004060D01*
X018608Y004113D01*
X018707Y004212D01*
X018760Y004340D01*
X018760Y004480D01*
X018707Y004608D01*
X018640Y004675D01*
X018640Y004698D01*
X018805Y004630D01*
X019015Y004630D01*
X019210Y004711D01*
X019359Y004860D01*
X019440Y005055D01*
X019440Y005265D01*
X019359Y005460D01*
X019210Y005609D01*
X019059Y005672D01*
X019106Y005687D01*
X019177Y005724D01*
X019242Y005771D01*
X019299Y005828D01*
X019346Y005893D01*
X019383Y005964D01*
X019407Y006041D01*
X019420Y006120D01*
X018950Y006120D01*
X018950Y006200D01*
X019420Y006200D01*
X019420Y006200D01*
X019407Y006279D01*
X019383Y006356D01*
X019346Y006427D01*
X019299Y006492D01*
X019242Y006549D01*
X019177Y006596D01*
X019106Y006633D01*
X019029Y006657D01*
X018950Y006670D01*
X018950Y006670D01*
X018950Y006200D01*
X018870Y006200D01*
X018870Y006670D01*
X018870Y006670D01*
X018791Y006657D01*
X018714Y006633D01*
X018643Y006596D01*
X018578Y006549D01*
X018521Y006492D01*
X018474Y006427D01*
X018437Y006356D01*
X018413Y006279D01*
X018400Y006200D01*
X018870Y006200D01*
X018870Y006120D01*
X018400Y006120D01*
X018400Y006120D01*
X018413Y006041D01*
X018422Y006010D01*
X018340Y006010D01*
X018212Y005957D01*
X018113Y005858D01*
X018060Y005730D01*
X018060Y005590D01*
X018113Y005462D01*
X018180Y005395D01*
X018180Y004675D01*
X018113Y004608D01*
X018060Y004480D01*
X018060Y004340D01*
X018113Y004212D01*
X018684Y004189D02*
X019694Y004189D01*
X020126Y004189D02*
X020194Y004189D01*
X020626Y004189D02*
X020821Y004189D01*
X021557Y004189D02*
X021810Y004189D01*
X021818Y004071D02*
X021438Y004071D01*
X021320Y003952D02*
X021873Y003952D01*
X022034Y003834D02*
X021201Y003834D01*
X021170Y003715D02*
X023560Y003715D01*
X023603Y003834D02*
X022286Y003834D01*
X021170Y003597D02*
X023560Y003597D01*
X023607Y003478D02*
X021170Y003478D01*
X020650Y003478D02*
X016640Y003478D01*
X016640Y003597D02*
X019752Y003597D01*
X020068Y003597D02*
X020252Y003597D01*
X020568Y003597D02*
X020650Y003597D01*
X019612Y003715D02*
X016640Y003715D01*
X016640Y003834D02*
X019563Y003834D01*
X019560Y003952D02*
X016640Y003952D01*
X016640Y004071D02*
X018315Y004071D01*
X018505Y004071D02*
X019598Y004071D01*
X018746Y004308D02*
X020940Y004308D01*
X021058Y004426D02*
X018760Y004426D01*
X018074Y004308D02*
X016746Y004308D01*
X016760Y004426D02*
X018060Y004426D01*
X018087Y004545D02*
X016733Y004545D01*
X016652Y004663D02*
X018168Y004663D01*
X018652Y004663D02*
X018725Y004663D01*
X018733Y004545D02*
X021177Y004545D01*
X021295Y004663D02*
X019095Y004663D01*
X019281Y004782D02*
X021414Y004782D01*
X021560Y004900D02*
X019376Y004900D01*
X019425Y005019D02*
X022976Y005019D01*
X022858Y005137D02*
X020882Y005137D01*
X020975Y005256D02*
X022739Y005256D01*
X022621Y005374D02*
X021010Y005374D01*
X021005Y005493D02*
X022502Y005493D01*
X022430Y005611D02*
X020954Y005611D01*
X020890Y005730D02*
X022430Y005730D01*
X022430Y005848D02*
X020923Y005848D01*
X020430Y005848D02*
X019314Y005848D01*
X019383Y005967D02*
X020430Y005967D01*
X020510Y006085D02*
X019414Y006085D01*
X019420Y006120D02*
X019420Y006120D01*
X019419Y006204D02*
X020628Y006204D01*
X020747Y006322D02*
X019394Y006322D01*
X018950Y006322D02*
X018870Y006322D01*
X018870Y006204D02*
X018950Y006204D01*
X018426Y006322D02*
X015417Y006322D01*
X015440Y006204D02*
X015459Y006204D01*
X015861Y006204D02*
X018401Y006204D01*
X018400Y006200D02*
X018400Y006200D01*
X018406Y006085D02*
X015966Y006085D01*
X016010Y005967D02*
X018235Y005967D01*
X018109Y005848D02*
X016010Y005848D01*
X015964Y005730D02*
X018060Y005730D01*
X018060Y005611D02*
X015853Y005611D01*
X015568Y005493D02*
X018101Y005493D01*
X018180Y005374D02*
X015449Y005374D01*
X015440Y005256D02*
X015830Y005256D01*
X015990Y005256D02*
X018180Y005256D01*
X018180Y005137D02*
X016178Y005137D01*
X015642Y005137D02*
X015440Y005137D01*
X015425Y005019D02*
X015576Y005019D01*
X016244Y005019D02*
X018180Y005019D01*
X018180Y004900D02*
X016260Y004900D01*
X016236Y004782D02*
X018180Y004782D01*
X016168Y004663D02*
X016158Y004663D01*
X016087Y004545D02*
X015890Y004545D01*
X015430Y004545D02*
X000380Y004545D01*
X000380Y004663D02*
X003975Y004663D01*
X004055Y004630D02*
X004265Y004630D01*
X004460Y004711D01*
X004609Y004860D01*
X004638Y004930D01*
X004755Y004930D01*
X004890Y005065D01*
X005390Y005565D01*
X005390Y006145D01*
X005457Y006212D01*
X005510Y006340D01*
X005510Y006480D01*
X005457Y006608D01*
X005358Y006707D01*
X005230Y006760D01*
X005090Y006760D01*
X004962Y006707D01*
X004863Y006608D01*
X004810Y006480D01*
X004810Y006340D01*
X004863Y006212D01*
X004930Y006145D01*
X004930Y005755D01*
X004617Y005442D01*
X004609Y005460D01*
X004460Y005609D01*
X004338Y005660D01*
X004460Y005711D01*
X004609Y005860D01*
X004690Y006055D01*
X004690Y006265D01*
X004609Y006460D01*
X004460Y006609D01*
X004265Y006690D01*
X004055Y006690D01*
X003860Y006609D01*
X003711Y006460D01*
X003630Y006265D01*
X003630Y006055D01*
X003711Y005860D01*
X003860Y005711D01*
X003982Y005660D01*
X003860Y005609D01*
X003711Y005460D01*
X003630Y005265D01*
X003630Y005055D01*
X003711Y004860D01*
X003860Y004711D01*
X004055Y004630D01*
X004345Y004663D02*
X007975Y004663D01*
X008055Y004630D02*
X008265Y004630D01*
X008460Y004711D01*
X008609Y004860D01*
X008690Y005055D01*
X008690Y005265D01*
X008609Y005460D01*
X008460Y005609D01*
X008309Y005672D01*
X008356Y005687D01*
X008427Y005724D01*
X008492Y005771D01*
X008549Y005828D01*
X008596Y005893D01*
X008633Y005964D01*
X008657Y006041D01*
X008670Y006120D01*
X008200Y006120D01*
X008200Y006200D01*
X008670Y006200D01*
X008670Y006200D01*
X008657Y006279D01*
X008633Y006356D01*
X008596Y006427D01*
X008549Y006492D01*
X008492Y006549D01*
X008427Y006596D01*
X008356Y006633D01*
X008279Y006657D01*
X008200Y006670D01*
X008200Y006670D01*
X008200Y006200D01*
X008120Y006200D01*
X008120Y006670D01*
X008120Y006670D01*
X008041Y006657D01*
X007964Y006633D01*
X007893Y006596D01*
X007828Y006549D01*
X007771Y006492D01*
X007724Y006427D01*
X007687Y006356D01*
X007663Y006279D01*
X007650Y006200D01*
X008120Y006200D01*
X008120Y006120D01*
X007650Y006120D01*
X007650Y006120D01*
X007663Y006041D01*
X007687Y005964D01*
X007724Y005893D01*
X007771Y005828D01*
X007828Y005771D01*
X007893Y005724D01*
X007964Y005687D01*
X008011Y005672D01*
X007860Y005609D01*
X007711Y005460D01*
X007630Y005265D01*
X007630Y005055D01*
X007711Y004860D01*
X007860Y004711D01*
X008055Y004630D01*
X008345Y004663D02*
X014725Y004663D01*
X015095Y004663D02*
X015430Y004663D01*
X015456Y004782D02*
X015281Y004782D01*
X015376Y004900D02*
X015560Y004900D01*
X014539Y004782D02*
X008531Y004782D01*
X008626Y004900D02*
X014444Y004900D01*
X014226Y005019D02*
X008675Y005019D01*
X008690Y005137D02*
X014108Y005137D01*
X013989Y005256D02*
X008690Y005256D01*
X008645Y005374D02*
X013930Y005374D01*
X013930Y005493D02*
X008577Y005493D01*
X007743Y005493D02*
X005318Y005493D01*
X005199Y005374D02*
X007675Y005374D01*
X007630Y005256D02*
X005081Y005256D01*
X004962Y005137D02*
X007630Y005137D01*
X007645Y005019D02*
X004844Y005019D01*
X004626Y004900D02*
X007694Y004900D01*
X007789Y004782D02*
X004531Y004782D01*
X003789Y004782D02*
X000380Y004782D01*
X000380Y004900D02*
X003694Y004900D01*
X003645Y005019D02*
X002038Y005019D01*
X001992Y004973D02*
X002097Y005078D01*
X002097Y005742D01*
X001992Y005847D01*
X001328Y005847D01*
X001223Y005742D01*
X001223Y005078D01*
X001328Y004973D01*
X001992Y004973D01*
X001282Y005019D02*
X000858Y005019D01*
X000462Y005019D02*
X000380Y005019D01*
X001006Y005137D02*
X001223Y005137D01*
X001223Y005256D02*
X001070Y005256D01*
X001097Y005374D02*
X001223Y005374D01*
X001223Y005493D02*
X001097Y005493D01*
X001050Y005611D02*
X001223Y005611D01*
X001223Y005730D02*
X000959Y005730D01*
X000380Y005848D02*
X003722Y005848D01*
X003666Y005967D02*
X000380Y005967D01*
X000380Y006085D02*
X003630Y006085D01*
X003630Y006204D02*
X000380Y006204D01*
X000380Y006322D02*
X003653Y006322D01*
X003703Y006441D02*
X000380Y006441D01*
X000380Y006559D02*
X003809Y006559D01*
X004024Y006678D02*
X000380Y006678D01*
X000380Y006796D02*
X010588Y006796D01*
X010670Y006915D02*
X000380Y006915D01*
X004296Y006678D02*
X004933Y006678D01*
X005387Y006678D02*
X010560Y006678D01*
X010573Y006559D02*
X008478Y006559D01*
X008587Y006441D02*
X010635Y006441D01*
X010811Y006322D02*
X008644Y006322D01*
X008669Y006204D02*
X013810Y006204D01*
X013848Y006322D02*
X011009Y006322D01*
X008670Y006120D02*
X008670Y006120D01*
X008664Y006085D02*
X013812Y006085D01*
X013861Y005967D02*
X008633Y005967D01*
X008564Y005848D02*
X013930Y005848D01*
X013930Y005730D02*
X008435Y005730D01*
X008456Y005611D02*
X013930Y005611D01*
X013946Y006441D02*
X013516Y006441D01*
X013634Y006559D02*
X014559Y006559D01*
X014453Y006441D02*
X014374Y006441D01*
X015261Y006559D02*
X018592Y006559D01*
X018483Y006441D02*
X015367Y006441D01*
X015046Y006678D02*
X021102Y006678D01*
X020984Y006559D02*
X019228Y006559D01*
X019337Y006441D02*
X020865Y006441D01*
X021397Y006322D02*
X022348Y006322D01*
X022310Y006204D02*
X021279Y006204D01*
X021160Y006085D02*
X022312Y006085D01*
X022361Y005967D02*
X021042Y005967D01*
X020430Y005730D02*
X019185Y005730D01*
X019206Y005611D02*
X020366Y005611D01*
X020315Y005493D02*
X019327Y005493D01*
X019395Y005374D02*
X020310Y005374D01*
X020345Y005256D02*
X019440Y005256D01*
X019440Y005137D02*
X020438Y005137D01*
X023260Y004900D02*
X023810Y004900D01*
X023834Y004782D02*
X023406Y004782D01*
X021842Y004308D02*
X021675Y004308D01*
X016180Y004071D02*
X015890Y004071D01*
X015890Y003952D02*
X016180Y003952D01*
X016180Y003834D02*
X015890Y003834D01*
X015890Y003715D02*
X016180Y003715D01*
X016180Y003597D02*
X015890Y003597D01*
X015890Y003478D02*
X016180Y003478D01*
X016180Y003360D02*
X015955Y003360D01*
X016640Y003360D02*
X020650Y003360D01*
X021170Y003360D02*
X023721Y003360D01*
X024004Y003241D02*
X021170Y003241D01*
X021192Y003123D02*
X024122Y003123D01*
X024241Y003004D02*
X021250Y003004D01*
X021260Y002886D02*
X024359Y002886D01*
X024478Y002767D02*
X021230Y002767D01*
X021143Y002649D02*
X026427Y002649D01*
X026893Y002649D02*
X026929Y002649D01*
X028391Y002649D02*
X045222Y002649D01*
X045290Y002767D02*
X028449Y002767D01*
X028567Y002886D02*
X030432Y002886D01*
X030429Y003004D02*
X028640Y003004D01*
X028640Y003123D02*
X030429Y003123D01*
X030429Y003241D02*
X028719Y003241D01*
X028760Y003360D02*
X030429Y003360D01*
X030475Y003478D02*
X028760Y003478D01*
X028712Y003597D02*
X030430Y003597D01*
X031318Y003597D02*
X031858Y003597D01*
X031982Y003715D02*
X031458Y003715D01*
X031507Y003834D02*
X034327Y003834D01*
X034345Y003715D02*
X032338Y003715D01*
X032462Y003597D02*
X034345Y003597D01*
X034225Y003478D02*
X032510Y003478D01*
X032510Y003360D02*
X034179Y003360D01*
X034179Y003241D02*
X032469Y003241D01*
X032367Y003123D02*
X034179Y003123D01*
X034179Y003004D02*
X032079Y003004D01*
X031888Y002886D02*
X034182Y002886D01*
X035638Y002886D02*
X045390Y002886D01*
X045508Y003004D02*
X035829Y003004D01*
X036117Y003123D02*
X045627Y003123D01*
X045831Y003241D02*
X036219Y003241D01*
X036260Y003360D02*
X046064Y003360D01*
X047256Y003360D02*
X047940Y003360D01*
X047940Y003478D02*
X036260Y003478D01*
X036212Y003597D02*
X047940Y003597D01*
X047940Y003715D02*
X036088Y003715D01*
X035732Y003715D02*
X035208Y003715D01*
X035257Y003834D02*
X047940Y003834D01*
X047940Y003952D02*
X035260Y003952D01*
X035222Y004071D02*
X039065Y004071D01*
X039255Y004071D02*
X047940Y004071D01*
X047940Y004189D02*
X039434Y004189D01*
X039496Y004308D02*
X047940Y004308D01*
X047940Y004426D02*
X039510Y004426D01*
X039483Y004545D02*
X047940Y004545D01*
X047940Y004663D02*
X044345Y004663D01*
X044265Y004630D02*
X044460Y004711D01*
X044609Y004860D01*
X044690Y005055D01*
X044690Y005265D01*
X044609Y005460D01*
X044460Y005609D01*
X044309Y005672D01*
X044356Y005687D01*
X044427Y005724D01*
X044492Y005771D01*
X044549Y005828D01*
X044596Y005893D01*
X044633Y005964D01*
X044657Y006041D01*
X044670Y006120D01*
X044200Y006120D01*
X044200Y006200D01*
X044670Y006200D01*
X044670Y006200D01*
X044657Y006279D01*
X044633Y006356D01*
X044596Y006427D01*
X044549Y006492D01*
X044492Y006549D01*
X044427Y006596D01*
X044356Y006633D01*
X044279Y006657D01*
X044200Y006670D01*
X044200Y006670D01*
X044200Y006200D01*
X044120Y006200D01*
X044120Y006670D01*
X044120Y006670D01*
X044041Y006657D01*
X043964Y006633D01*
X043893Y006596D01*
X043828Y006549D01*
X043771Y006492D01*
X043724Y006427D01*
X043687Y006356D01*
X043663Y006279D01*
X043650Y006200D01*
X044120Y006200D01*
X044120Y006120D01*
X043650Y006120D01*
X043650Y006120D01*
X043663Y006041D01*
X043687Y005964D01*
X043724Y005893D01*
X043771Y005828D01*
X043828Y005771D01*
X043893Y005724D01*
X043964Y005687D01*
X044011Y005672D01*
X043860Y005609D01*
X043711Y005460D01*
X043630Y005265D01*
X043630Y005055D01*
X043711Y004860D01*
X043860Y004711D01*
X044055Y004630D01*
X044265Y004630D01*
X043975Y004663D02*
X040345Y004663D01*
X040265Y004630D02*
X040460Y004711D01*
X040609Y004860D01*
X040690Y005055D01*
X040690Y005265D01*
X040609Y005460D01*
X040460Y005609D01*
X040338Y005660D01*
X040460Y005711D01*
X040609Y005860D01*
X040690Y006055D01*
X040690Y006265D01*
X040609Y006460D01*
X040460Y006609D01*
X040265Y006690D01*
X040055Y006690D01*
X039860Y006609D01*
X039711Y006460D01*
X039630Y006265D01*
X039630Y006055D01*
X039711Y005860D01*
X039860Y005711D01*
X039982Y005660D01*
X039860Y005609D01*
X039711Y005460D01*
X039630Y005265D01*
X039630Y005055D01*
X039711Y004860D01*
X039860Y004711D01*
X040055Y004630D01*
X040265Y004630D01*
X039975Y004663D02*
X039402Y004663D01*
X038918Y004663D02*
X035232Y004663D01*
X035114Y004782D02*
X039789Y004782D01*
X039694Y004900D02*
X033876Y004900D01*
X033925Y005019D02*
X039645Y005019D01*
X039630Y005137D02*
X033940Y005137D01*
X033940Y005256D02*
X039630Y005256D01*
X039675Y005374D02*
X033895Y005374D01*
X033827Y005493D02*
X039743Y005493D01*
X040577Y005493D02*
X043743Y005493D01*
X043675Y005374D02*
X040645Y005374D01*
X040690Y005256D02*
X043630Y005256D01*
X043630Y005137D02*
X040690Y005137D01*
X040675Y005019D02*
X043645Y005019D01*
X043694Y004900D02*
X040626Y004900D01*
X040531Y004782D02*
X043789Y004782D01*
X044531Y004782D02*
X047940Y004782D01*
X047940Y004900D02*
X044626Y004900D01*
X044675Y005019D02*
X046282Y005019D01*
X046328Y004973D02*
X046992Y004973D01*
X047097Y005078D01*
X047097Y005742D01*
X046992Y005847D01*
X046328Y005847D01*
X046223Y005742D01*
X046223Y005078D01*
X046328Y004973D01*
X047038Y005019D02*
X047462Y005019D01*
X047858Y005019D02*
X047940Y005019D01*
X047314Y005137D02*
X047097Y005137D01*
X047097Y005256D02*
X047250Y005256D01*
X047223Y005374D02*
X047097Y005374D01*
X047097Y005493D02*
X047223Y005493D01*
X047270Y005611D02*
X047097Y005611D01*
X047097Y005730D02*
X047361Y005730D01*
X047940Y005848D02*
X044564Y005848D01*
X044633Y005967D02*
X047940Y005967D01*
X047940Y006085D02*
X044664Y006085D01*
X044670Y006120D02*
X044670Y006120D01*
X044669Y006204D02*
X047940Y006204D01*
X047940Y006322D02*
X044644Y006322D01*
X044200Y006322D02*
X044120Y006322D01*
X044120Y006204D02*
X044200Y006204D01*
X043676Y006322D02*
X040667Y006322D01*
X040690Y006204D02*
X043651Y006204D01*
X043650Y006200D02*
X043650Y006200D01*
X043656Y006085D02*
X040690Y006085D01*
X040654Y005967D02*
X043687Y005967D01*
X043756Y005848D02*
X040598Y005848D01*
X040479Y005730D02*
X043885Y005730D01*
X043864Y005611D02*
X040456Y005611D01*
X039864Y005611D02*
X033706Y005611D01*
X033685Y005730D02*
X039841Y005730D01*
X039722Y005848D02*
X033814Y005848D01*
X033006Y005848D02*
X029848Y005848D01*
X029904Y005967D02*
X032937Y005967D01*
X032906Y006085D02*
X029940Y006085D01*
X029940Y006204D02*
X032901Y006204D01*
X032900Y006200D02*
X032900Y006200D01*
X032926Y006322D02*
X029917Y006322D01*
X029867Y006441D02*
X032983Y006441D01*
X033092Y006559D02*
X029761Y006559D01*
X029059Y006559D02*
X026086Y006559D01*
X026205Y006441D02*
X026946Y006441D01*
X027374Y006441D02*
X028953Y006441D01*
X028903Y006322D02*
X027472Y006322D01*
X027510Y006204D02*
X028880Y006204D01*
X028880Y006085D02*
X027508Y006085D01*
X027459Y005967D02*
X028916Y005967D01*
X028972Y005848D02*
X027390Y005848D01*
X026930Y005848D02*
X026760Y005848D01*
X026760Y005967D02*
X026861Y005967D01*
X026812Y006085D02*
X026716Y006085D01*
X026810Y006204D02*
X026611Y006204D01*
X026848Y006322D02*
X026323Y006322D01*
X025791Y006204D02*
X025395Y006204D01*
X025290Y006322D02*
X025673Y006322D01*
X025554Y006441D02*
X025093Y006441D01*
X025436Y006559D02*
X024586Y006559D01*
X024705Y006441D02*
X024727Y006441D01*
X024386Y006109D02*
X024065Y006430D01*
X023618Y006430D01*
X023727Y006385D01*
X023885Y006227D01*
X023970Y006021D01*
X023970Y005799D01*
X023904Y005640D01*
X024416Y005640D01*
X024350Y005799D01*
X024350Y006021D01*
X024386Y006109D01*
X024376Y006085D02*
X023944Y006085D01*
X023970Y005967D02*
X024350Y005967D01*
X024350Y005848D02*
X023970Y005848D01*
X023941Y005730D02*
X024379Y005730D01*
X025392Y005611D02*
X026217Y005611D01*
X026106Y005730D02*
X025441Y005730D01*
X025470Y005848D02*
X026060Y005848D01*
X026028Y005967D02*
X025470Y005967D01*
X025444Y006085D02*
X025910Y006085D01*
X024291Y006204D02*
X023895Y006204D01*
X023790Y006322D02*
X024173Y006322D01*
X024468Y006678D02*
X025317Y006678D01*
X025968Y006678D02*
X029274Y006678D01*
X029546Y006678D02*
X040024Y006678D01*
X040296Y006678D02*
X047940Y006678D01*
X047940Y006796D02*
X025849Y006796D01*
X025731Y006915D02*
X047940Y006915D01*
X047940Y006559D02*
X044478Y006559D01*
X044587Y006441D02*
X047940Y006441D01*
X044200Y006441D02*
X044120Y006441D01*
X044120Y006559D02*
X044200Y006559D01*
X043842Y006559D02*
X040511Y006559D01*
X040617Y006441D02*
X043733Y006441D01*
X039809Y006559D02*
X033728Y006559D01*
X033837Y006441D02*
X039703Y006441D01*
X039653Y006322D02*
X033894Y006322D01*
X033919Y006204D02*
X039630Y006204D01*
X039630Y006085D02*
X033914Y006085D01*
X033883Y005967D02*
X039666Y005967D01*
X044435Y005730D02*
X046223Y005730D01*
X046223Y005611D02*
X044456Y005611D01*
X044577Y005493D02*
X046223Y005493D01*
X046223Y005374D02*
X044645Y005374D01*
X044690Y005256D02*
X046223Y005256D01*
X046223Y005137D02*
X044690Y005137D01*
X035608Y003597D02*
X035068Y003597D01*
X034208Y003952D02*
X031510Y003952D01*
X031472Y004071D02*
X034090Y004071D01*
X032944Y004900D02*
X029876Y004900D01*
X029925Y005019D02*
X032895Y005019D01*
X032880Y005137D02*
X029940Y005137D01*
X029940Y005256D02*
X032880Y005256D01*
X032925Y005374D02*
X029895Y005374D01*
X029827Y005493D02*
X032993Y005493D01*
X033114Y005611D02*
X029706Y005611D01*
X029729Y005730D02*
X033135Y005730D01*
X033370Y006204D02*
X033450Y006204D01*
X033450Y006322D02*
X033370Y006322D01*
X033370Y006441D02*
X033450Y006441D01*
X033450Y006559D02*
X033370Y006559D01*
X029091Y005730D02*
X027390Y005730D01*
X027390Y005611D02*
X029114Y005611D01*
X028993Y005493D02*
X027390Y005493D01*
X027390Y005374D02*
X028925Y005374D01*
X028880Y005256D02*
X027390Y005256D01*
X027390Y005137D02*
X028880Y005137D01*
X028895Y005019D02*
X027344Y005019D01*
X027225Y004900D02*
X028944Y004900D01*
X026930Y005256D02*
X025890Y005256D01*
X025771Y005374D02*
X026930Y005374D01*
X026930Y005493D02*
X025284Y005493D01*
X026603Y005611D02*
X026930Y005611D01*
X026930Y005730D02*
X026714Y005730D01*
X018950Y006441D02*
X018870Y006441D01*
X018870Y006559D02*
X018950Y006559D01*
X014774Y006678D02*
X013753Y006678D01*
X008200Y006559D02*
X008120Y006559D01*
X008120Y006441D02*
X008200Y006441D01*
X007842Y006559D02*
X005477Y006559D01*
X005510Y006441D02*
X007733Y006441D01*
X007676Y006322D02*
X005502Y006322D01*
X005448Y006204D02*
X007651Y006204D01*
X007650Y006200D02*
X007650Y006200D01*
X008120Y006204D02*
X008200Y006204D01*
X008200Y006322D02*
X008120Y006322D01*
X007656Y006085D02*
X005390Y006085D01*
X005390Y005967D02*
X007687Y005967D01*
X007756Y005848D02*
X005390Y005848D01*
X004930Y005848D02*
X004598Y005848D01*
X004654Y005967D02*
X004930Y005967D01*
X004930Y006085D02*
X004690Y006085D01*
X004690Y006204D02*
X004872Y006204D01*
X004818Y006322D02*
X004667Y006322D01*
X004617Y006441D02*
X004810Y006441D01*
X004843Y006559D02*
X004511Y006559D01*
X004479Y005730D02*
X004904Y005730D01*
X004786Y005611D02*
X004456Y005611D01*
X004577Y005493D02*
X004667Y005493D01*
X005390Y005611D02*
X007864Y005611D01*
X007885Y005730D02*
X005390Y005730D01*
X003864Y005611D02*
X002097Y005611D01*
X002097Y005730D02*
X003841Y005730D01*
X003743Y005493D02*
X002097Y005493D01*
X002097Y005374D02*
X003675Y005374D01*
X003630Y005256D02*
X002097Y005256D01*
X002097Y005137D02*
X003630Y005137D01*
X000380Y004426D02*
X015430Y004426D01*
X015430Y004308D02*
X000380Y004308D01*
X000380Y003241D02*
X000831Y003241D01*
X000627Y003123D02*
X000380Y003123D01*
X000380Y003004D02*
X000508Y003004D01*
X000390Y002886D02*
X000380Y002886D01*
X014976Y001819D02*
X015058Y001819D01*
X015613Y001819D02*
X015845Y001819D01*
X015741Y001938D02*
X015717Y001938D01*
X016400Y001819D02*
X016669Y001819D01*
X016556Y001938D02*
X016504Y001938D01*
X016891Y001938D02*
X016929Y001938D01*
X016929Y001819D02*
X016891Y001819D01*
X017151Y001819D02*
X017420Y001819D01*
X017316Y001938D02*
X017264Y001938D01*
X016929Y002056D02*
X016891Y002056D01*
X016891Y002293D02*
X016929Y002293D01*
X016929Y002412D02*
X016891Y002412D01*
X016577Y002412D02*
X016490Y002412D01*
X017243Y002412D02*
X017330Y002412D01*
X017449Y002530D02*
X017103Y002530D01*
X016929Y002530D02*
X016891Y002530D01*
X016717Y002530D02*
X016371Y002530D01*
X017946Y002530D02*
X018236Y002530D01*
X018733Y002530D02*
X019024Y002530D01*
X019521Y002530D02*
X045153Y002530D01*
X045090Y002412D02*
X019639Y002412D01*
X019691Y002293D02*
X045058Y002293D01*
X045026Y002175D02*
X044890Y002175D01*
X044978Y002056D02*
X044995Y002056D01*
X044430Y002175D02*
X019710Y002175D01*
X019703Y002056D02*
X042438Y002056D01*
X042320Y001938D02*
X027627Y001938D01*
X027193Y001938D02*
X020627Y001938D01*
X020193Y001938D02*
X019654Y001938D01*
X019550Y001819D02*
X020097Y001819D01*
X018995Y001819D02*
X018762Y001819D01*
X018866Y001938D02*
X018891Y001938D01*
X018207Y001819D02*
X017975Y001819D01*
X018079Y001938D02*
X018103Y001938D01*
X018118Y002412D02*
X018065Y002412D01*
X018852Y002412D02*
X018905Y002412D01*
X021869Y001819D02*
X025451Y001819D01*
X025333Y001701D02*
X021987Y001701D01*
X020628Y003123D02*
X016692Y003123D01*
X016640Y003241D02*
X020650Y003241D01*
X016180Y003241D02*
X016005Y003241D01*
X016010Y003123D02*
X016128Y003123D01*
X016074Y004308D02*
X015890Y004308D01*
X015890Y004426D02*
X016060Y004426D01*
X031119Y001819D02*
X042201Y001819D01*
X042083Y001701D02*
X031237Y001701D01*
X047489Y003241D02*
X047940Y003241D01*
X047940Y003123D02*
X047693Y003123D01*
X047812Y003004D02*
X047940Y003004D01*
X047930Y002886D02*
X047940Y002886D01*
D16*
X042910Y002910D03*
X042160Y002910D03*
X041410Y002910D03*
X040660Y002910D03*
X039910Y002910D03*
X039160Y002910D03*
X036660Y002660D03*
X036410Y003160D03*
X035910Y003410D03*
X034910Y003910D03*
X032160Y003410D03*
X032660Y003160D03*
X032910Y002660D03*
X033160Y002160D03*
X029410Y002160D03*
X027410Y001660D03*
X024410Y001910D03*
X023910Y001910D03*
X024160Y002160D03*
X023910Y002660D03*
X024410Y002660D03*
X024160Y002910D03*
X023660Y002910D03*
X020910Y002910D03*
X018910Y002910D03*
X016410Y002910D03*
X015660Y003160D03*
X012410Y002910D03*
X009410Y002910D03*
X008660Y002910D03*
X007910Y002910D03*
X007160Y002910D03*
X006410Y002910D03*
X005660Y002910D03*
X007660Y001910D03*
X019910Y003910D03*
X020410Y003910D03*
X022160Y004160D03*
X020160Y004410D03*
X018410Y004410D03*
X016410Y004410D03*
X015910Y004910D03*
X016410Y005410D03*
X018410Y005660D03*
X020660Y005410D03*
X021260Y005810D03*
X022660Y006160D03*
X024160Y005910D03*
X025660Y005660D03*
X026410Y005910D03*
X027160Y006160D03*
X024160Y004910D03*
X026910Y004160D03*
X027410Y004160D03*
X024410Y003660D03*
X023910Y003660D03*
X028410Y003410D03*
X028910Y003160D03*
X026660Y002910D03*
X029160Y002660D03*
X031160Y003910D03*
X039160Y004410D03*
X036910Y002160D03*
X041160Y001910D03*
X044660Y001910D03*
X044910Y001410D03*
X044660Y000910D03*
X027660Y001160D03*
X027410Y000660D03*
X020410Y001660D03*
X020160Y001160D03*
X020160Y000660D03*
X015660Y005910D03*
X014160Y006160D03*
X010910Y006660D03*
X005160Y006410D03*
X017910Y006410D03*
D17*
X020910Y003910D02*
X021660Y004660D01*
X023160Y004660D01*
X023410Y004410D01*
X025410Y004410D01*
X025660Y004160D01*
X026910Y004160D01*
X027410Y004160D01*
X020910Y003910D02*
X020410Y003910D01*
X019910Y003910D01*
X020910Y003910D02*
X020910Y002910D01*
X020410Y001660D02*
X021660Y001660D01*
X021910Y001410D01*
X025410Y001410D01*
X025660Y001660D01*
X027410Y001660D01*
X030910Y001660D01*
X031160Y001410D01*
X042160Y001410D01*
X042660Y001910D01*
X044660Y001910D01*
X044910Y001410D02*
X042910Y001410D01*
X042410Y000910D01*
X030910Y000910D01*
X030660Y001160D01*
X027660Y001160D01*
X025910Y001160D01*
X025660Y000910D01*
X021660Y000910D01*
X021410Y001160D01*
X020160Y001160D01*
X020160Y000660D02*
X021160Y000660D01*
X021410Y000410D01*
X025910Y000410D01*
X026160Y000660D01*
X027410Y000660D01*
X030410Y000660D01*
X030660Y000410D01*
X042660Y000410D01*
X043160Y000910D01*
X044660Y000910D01*
D18*
X035910Y003410D02*
X035660Y003160D01*
X035245Y003160D01*
X034575Y003160D02*
X034575Y003910D01*
X034075Y004410D01*
X028160Y004410D01*
X027410Y003660D01*
X025660Y003660D01*
X025160Y004160D01*
X022160Y004160D01*
X023910Y003660D02*
X024660Y002910D01*
X026660Y002910D01*
X027325Y002910D01*
X027995Y002910D02*
X028266Y002910D01*
X028410Y003054D01*
X028410Y003410D01*
X028160Y003910D02*
X027660Y003410D01*
X024660Y003410D01*
X024410Y003660D01*
X028160Y003910D02*
X030660Y003910D01*
X030660Y003660D01*
X030825Y003495D01*
X030825Y003160D01*
X031495Y003160D02*
X031910Y003160D01*
X032160Y003410D01*
X031160Y003910D02*
X030660Y003910D01*
X034575Y003910D02*
X034910Y003910D01*
X035160Y004410D02*
X034910Y004660D01*
X025660Y004660D01*
X025410Y004910D01*
X024160Y004910D01*
X023660Y005160D02*
X023160Y005160D01*
X022660Y005660D01*
X022660Y006160D01*
X021410Y006660D02*
X020660Y005910D01*
X020660Y005410D01*
X018410Y005660D02*
X018410Y004410D01*
X016410Y004410D02*
X016410Y002910D01*
X015660Y003160D02*
X015660Y004660D01*
X015910Y004910D01*
X014910Y005160D02*
X014410Y005160D01*
X014160Y005410D01*
X014160Y006160D01*
X014910Y005160D02*
X015660Y005910D01*
X013660Y006910D02*
X013410Y006660D01*
X010910Y006660D01*
X013660Y006910D02*
X025410Y006910D01*
X026410Y005910D01*
X027160Y006160D02*
X027160Y005160D01*
X026910Y004910D01*
X025910Y004910D01*
X025660Y005160D01*
X024660Y005160D01*
X024410Y005410D01*
X023910Y005410D01*
X023660Y005160D01*
X024910Y005910D02*
X024160Y006660D01*
X021410Y006660D01*
X035160Y004410D02*
X039160Y004410D01*
X016123Y002160D02*
X015660Y002623D01*
X015660Y003160D01*
X005160Y005660D02*
X004660Y005160D01*
X004160Y005160D01*
X005160Y005660D02*
X005160Y006410D01*
M02*
