G75*
G70*
%OFA0B0*%
%FSLAX24Y24*%
%IPPOS*%
%LPD*%
%AMOC8*
5,1,8,0,0,1.08239X$1,22.5*
%
%ADD10C,0.1370*%
%ADD11C,0.0780*%
%ADD12R,0.0789X0.0230*%
%ADD13R,0.0595X0.0595*%
%ADD14C,0.0595*%
%ADD15R,0.0946X0.0631*%
%ADD16R,0.0946X0.0474*%
%ADD17R,0.0513X0.0474*%
%ADD18R,0.0395X0.0434*%
%ADD19C,0.0840*%
%ADD20R,0.0749X0.0218*%
%ADD21C,0.0090*%
%ADD22R,0.0592X0.0671*%
%ADD23R,0.0474X0.0513*%
D10*
X001660Y001780D03*
X046660Y001780D03*
D11*
X044160Y005160D03*
X040160Y005160D03*
X040160Y006160D03*
X044160Y006160D03*
X033410Y006160D03*
X029410Y006160D03*
X029410Y005160D03*
X033410Y005160D03*
X018910Y005160D03*
X014910Y005160D03*
X014910Y006160D03*
X018910Y006160D03*
X008160Y006160D03*
X004160Y006160D03*
X004160Y005160D03*
X008160Y005160D03*
D12*
X022841Y005056D03*
X022841Y005312D03*
X025479Y005312D03*
X025479Y005056D03*
X025479Y004800D03*
X025479Y004544D03*
X025479Y004288D03*
X025479Y004032D03*
X025479Y003776D03*
X025479Y003520D03*
X025479Y003264D03*
X025479Y003008D03*
X022841Y003008D03*
X022841Y003264D03*
X022841Y003520D03*
X022841Y003776D03*
X022841Y004032D03*
X022841Y004288D03*
X022841Y004544D03*
X022841Y004800D03*
D13*
X014548Y002160D03*
X001660Y005410D03*
X046660Y005410D03*
D14*
X047660Y005410D03*
X019272Y002160D03*
X018485Y002160D03*
X017697Y002160D03*
X016910Y002160D03*
X016123Y002160D03*
X015335Y002160D03*
X000660Y005410D03*
D15*
X006636Y002119D03*
X008684Y002119D03*
X008684Y000701D03*
X006636Y000701D03*
X023136Y000701D03*
X025184Y000701D03*
X025184Y002119D03*
X023136Y002119D03*
X040386Y002119D03*
X042434Y002119D03*
X042434Y000701D03*
X040386Y000701D03*
D16*
X040386Y001410D03*
X042434Y001410D03*
X025184Y001410D03*
X023136Y001410D03*
X008684Y001410D03*
X006636Y001410D03*
D17*
X004825Y000660D03*
X005495Y000660D03*
X005495Y001410D03*
X004825Y001410D03*
X004825Y002160D03*
X005495Y002160D03*
X003495Y003910D03*
X002825Y003910D03*
X017075Y005410D03*
X017745Y005410D03*
X019825Y006160D03*
X020495Y006160D03*
X029075Y003910D03*
X029745Y003910D03*
X032825Y003910D03*
X033495Y003910D03*
X036575Y003910D03*
X037245Y003910D03*
X045325Y004410D03*
X045995Y004410D03*
X042495Y005160D03*
X041825Y005160D03*
X041825Y006160D03*
X042495Y006160D03*
X020245Y002910D03*
X019575Y002910D03*
X021325Y002160D03*
X021995Y002160D03*
X021995Y001410D03*
X021325Y001410D03*
X021325Y000660D03*
X021995Y000660D03*
X038575Y000660D03*
X039245Y000660D03*
X039245Y001410D03*
X038575Y001410D03*
X038575Y002160D03*
X039245Y002160D03*
D18*
X037410Y002266D03*
X036304Y002266D03*
X035516Y002266D03*
X033660Y002266D03*
X032554Y002266D03*
X031766Y002266D03*
X029910Y002266D03*
X028804Y002266D03*
X028016Y002266D03*
X028410Y003054D03*
X029516Y003054D03*
X030304Y003054D03*
X032160Y003054D03*
X033266Y003054D03*
X034054Y003054D03*
X035910Y003054D03*
X037016Y003054D03*
X037804Y003054D03*
X021660Y005516D03*
X020160Y005554D03*
X019766Y004766D03*
X020554Y004766D03*
X021266Y006304D03*
X022054Y006304D03*
D19*
X023410Y005910D03*
X024910Y005910D03*
D20*
X017093Y006154D03*
X016227Y006154D03*
X016227Y006410D03*
X017093Y006410D03*
X017093Y006666D03*
X016227Y006666D03*
D21*
X011594Y003115D02*
X011320Y003115D01*
X011320Y002705D01*
X011158Y002705D02*
X011090Y002705D01*
X011090Y002773D01*
X011158Y002773D01*
X011158Y002705D01*
X010903Y002773D02*
X010835Y002705D01*
X010630Y002705D01*
X010630Y003115D01*
X010835Y003115D01*
X010903Y003047D01*
X010903Y002979D01*
X010835Y002910D01*
X010630Y002910D01*
X010835Y002910D02*
X010903Y002842D01*
X010903Y002773D01*
X011320Y002910D02*
X011457Y002910D01*
D22*
X013036Y002910D03*
X013784Y002910D03*
D23*
X021160Y004075D03*
X021160Y004745D03*
X027160Y004825D03*
X028410Y004495D03*
X032160Y004495D03*
X035910Y004495D03*
X035910Y003825D03*
X034910Y003245D03*
X032160Y003825D03*
X031160Y003245D03*
X028410Y003825D03*
X027410Y003245D03*
X027410Y002575D03*
X031160Y002575D03*
X034910Y002575D03*
X027160Y005495D03*
M02*
