%
M48
M72
T01C0.0180
T02C0.0315
T03C0.0400
T04C0.0460
T05C0.1290
%
T01
X7660Y1910
X7910Y2910
X8660Y2910
X9410Y2910
X7160Y2910
X6410Y2910
X5660Y2910
X12410Y2910
X15660Y3160
X16410Y2910
X18910Y2910
X20910Y2910
X23660Y2910
X24160Y2910
X23910Y2660
X24410Y2660
X26660Y2910
X28910Y3160
X28410Y3410
X31160Y3910
X32160Y3410
X32660Y3160
X32910Y2660
X33160Y2160
X36660Y2660
X36410Y3160
X35910Y3410
X34910Y3910
X39160Y4410
X39160Y2910
X39910Y2910
X40660Y2910
X41410Y2910
X42160Y2910
X42910Y2910
X36910Y2160
X41160Y1910
X44660Y1910
X44910Y1410
X44660Y910
X29410Y2160
X27410Y1660
X24410Y1910
X23910Y1910
X24160Y2160
X20410Y1660
X20160Y1160
X20160Y660
X27410Y660
X27660Y1160
X29160Y2660
X24410Y3660
X23910Y3660
X22160Y4160
X20410Y3910
X19910Y3910
X20160Y4410
X18410Y4410
X16410Y4410
X15910Y4910
X16410Y5410
X18410Y5660
X20660Y5410
X21260Y5810
X22660Y6160
X24160Y5910
X25660Y5660
X26410Y5910
X27160Y6160
X24160Y4910
X26910Y4160
X27410Y4160
X15660Y5910
X14160Y6160
X10910Y6660
X5160Y6410
X17910Y6410
T02
X1660Y5410
X660Y5410
X14548Y2160
X15335Y2160
X16123Y2160
X16910Y2160
X17697Y2160
X18485Y2160
X19272Y2160
X46660Y5410
X47660Y5410
T03
X44160Y5160
X40160Y5160
X40160Y6160
X44160Y6160
X33410Y6160
X29410Y6160
X29410Y5160
X33410Y5160
X18910Y5160
X14910Y5160
X14910Y6160
X18910Y6160
X8160Y6160
X4160Y6160
X4160Y5160
X8160Y5160
T04
X23410Y5910
X24910Y5910
T05
X1660Y1780
X46660Y1780
M30
