%
M48
M72
T01C0.0180
%
T01
X12581Y5173
X12081Y6673
X11081Y7173
X10831Y7673
X9831Y7423
X15331Y7673
X16331Y7673
X15331Y6673
X17831Y9173
X16331Y10673
X16081Y11423
X15831Y11923
X17081Y12673
X17581Y13423
X16831Y14673
X11331Y15173
X10331Y15423
X10331Y17423
X11081Y18173
X15081Y17173
X15581Y17173
X16081Y17173
X17081Y17173
X15331Y17673
X15331Y18673
X11081Y13173
X11081Y12673
X11581Y12673
X10581Y12173
X11331Y11923
X11081Y11423
X10581Y10923
X9581Y10923
X13331Y11173
X13331Y12173
M30
