G75*
G70*
%OFA0B0*%
%FSLAX24Y24*%
%IPPOS*%
%LPD*%
%AMOC8*
5,1,8,0,0,1.08239X$1,22.5*
%
%ADD10R,0.0395X0.0434*%
%ADD11R,0.0434X0.0395*%
%ADD12R,0.0789X0.0230*%
%ADD13R,0.0600X0.0550*%
%ADD14R,0.0474X0.0513*%
%ADD15C,0.0090*%
%ADD16R,0.0513X0.0474*%
%ADD17C,0.0580*%
D10*
X012937Y005779D03*
X013725Y005779D03*
X013331Y006567D03*
X010475Y008529D03*
X009687Y008529D03*
X010081Y009317D03*
X016687Y008529D03*
X017475Y008529D03*
X017081Y009317D03*
X017081Y015779D03*
X017475Y016567D03*
X016687Y016567D03*
D11*
X013187Y017779D03*
X012475Y017779D03*
X011687Y018173D03*
X012475Y018567D03*
X013187Y018567D03*
X013975Y018173D03*
X009937Y014067D03*
X010725Y013673D03*
X009937Y013279D03*
D12*
X012262Y013324D03*
X012262Y013069D03*
X012262Y012813D03*
X012262Y012557D03*
X012262Y012301D03*
X012262Y012045D03*
X012262Y011789D03*
X012262Y011533D03*
X012262Y011277D03*
X012262Y011021D03*
X014900Y011021D03*
X014900Y011277D03*
X014900Y011533D03*
X014900Y011789D03*
X014900Y012045D03*
X014900Y012301D03*
X014900Y012557D03*
X014900Y012813D03*
X014900Y013069D03*
X014900Y013324D03*
D13*
X016081Y014048D03*
X017581Y014048D03*
X017581Y014798D03*
X016081Y014798D03*
D14*
X016081Y015838D03*
X016081Y016507D03*
X011331Y016507D03*
X011331Y015838D03*
X011331Y014507D03*
X011331Y013838D03*
X010081Y012507D03*
X010081Y011838D03*
X010831Y010257D03*
X010831Y009588D03*
X014331Y006507D03*
X014331Y005838D03*
D15*
X012886Y016868D02*
X012681Y016868D01*
X012613Y016936D01*
X012613Y017005D01*
X012681Y017073D01*
X012886Y017073D01*
X012681Y017073D02*
X012613Y017141D01*
X012613Y017210D01*
X012681Y017278D01*
X012886Y017278D01*
X012886Y016868D01*
X012426Y016868D02*
X012358Y016868D01*
X012358Y016936D01*
X012426Y016936D01*
X012426Y016868D01*
X012196Y016868D02*
X012196Y017278D01*
X011922Y017278D01*
X012059Y017073D02*
X012196Y017073D01*
D16*
X013746Y017173D03*
X014416Y017173D03*
X010166Y014923D03*
X009496Y014923D03*
X016996Y007923D03*
X017666Y007923D03*
D17*
X011581Y006023D02*
X011581Y005323D01*
X015581Y005323D02*
X015581Y006023D01*
X010331Y016048D02*
X010331Y016798D01*
X009331Y016798D02*
X009331Y016048D01*
M02*
