G75*
G70*
%OFA0B0*%
%FSLAX24Y24*%
%IPPOS*%
%LPD*%
%AMOC8*
5,1,8,0,0,1.08239X$1,22.5*
%
%ADD10R,0.0552X0.0552*%
%ADD11R,0.0474X0.0513*%
%ADD12R,0.0513X0.0474*%
%ADD13C,0.0580*%
D10*
X012581Y005759D03*
X012581Y006586D03*
X014581Y006586D03*
X014581Y005759D03*
X016418Y008173D03*
X017244Y008173D03*
X017244Y010173D03*
X016418Y010173D03*
X014581Y011759D03*
X014581Y012586D03*
X012581Y012586D03*
X012581Y011759D03*
X010744Y010173D03*
X009918Y010173D03*
X009918Y008173D03*
X010744Y008173D03*
X010744Y014173D03*
X009918Y014173D03*
X009918Y016173D03*
X010744Y016173D03*
X012581Y017759D03*
X012581Y018586D03*
X014581Y018586D03*
X014581Y017759D03*
X016418Y016173D03*
X017244Y016173D03*
X017244Y014173D03*
X016418Y014173D03*
D11*
X016331Y014838D03*
X017331Y014838D03*
X017331Y015507D03*
X016331Y015507D03*
X010831Y015507D03*
X009831Y015507D03*
X009831Y014838D03*
X010831Y014838D03*
X010831Y009507D03*
X009831Y009507D03*
X009831Y008838D03*
X010831Y008838D03*
X016331Y008838D03*
X017331Y008838D03*
X017331Y009507D03*
X016331Y009507D03*
D12*
X013916Y011673D03*
X013246Y011673D03*
X013246Y012673D03*
X013916Y012673D03*
X013916Y017673D03*
X013246Y017673D03*
X013246Y018673D03*
X013916Y018673D03*
X013916Y006673D03*
X013246Y006673D03*
X013246Y005673D03*
X013916Y005673D03*
D13*
X011581Y005323D02*
X011581Y006023D01*
X015581Y006023D02*
X015581Y005323D01*
M02*
