G75*
G70*
%OFA0B0*%
%FSLAX24Y24*%
%IPPOS*%
%LPD*%
%AMOC8*
5,1,8,0,0,1.08239X$1,22.5*
%
%ADD10C,0.0080*%
%ADD11R,0.0240X0.0760*%
%ADD12C,0.0070*%
%ADD13R,0.0760X0.0240*%
D10*
X011231Y005083D02*
X011601Y004713D01*
X011931Y004713D01*
X015231Y004713D01*
X015561Y004713D01*
X015931Y005083D01*
X018291Y007443D01*
X018291Y011153D01*
X017671Y011773D01*
X016951Y011773D01*
X015371Y010193D01*
X014851Y010713D01*
X016311Y012173D01*
X014851Y013633D01*
X015371Y014153D01*
X016951Y012573D01*
X017671Y012573D01*
X017671Y011773D01*
X017671Y012573D02*
X018291Y013193D01*
X018291Y016903D01*
X015561Y019633D01*
X011601Y019633D01*
X008871Y016903D01*
X008871Y013193D01*
X009491Y012573D01*
X010211Y012573D01*
X011791Y014153D01*
X012311Y013633D01*
X010851Y012173D01*
X012311Y010713D01*
X011791Y010193D01*
X010211Y011773D01*
X009491Y011773D01*
X009491Y012573D01*
X009491Y011773D02*
X008871Y011153D01*
X008871Y007443D01*
X011231Y005083D01*
X011231Y006373D01*
X011931Y006373D01*
X011931Y004713D01*
X012241Y005413D02*
X012241Y006933D01*
X012921Y006933D01*
X012921Y006353D01*
X012921Y005993D01*
X012921Y005413D01*
X012241Y005413D01*
X010501Y005823D02*
X012311Y007633D01*
X011791Y008153D01*
X009981Y006343D01*
X012311Y007633D02*
X014851Y007633D01*
X016661Y005823D01*
X017181Y006343D02*
X015371Y008153D01*
X014851Y007633D01*
X014921Y006933D02*
X014241Y006933D01*
X014241Y006353D01*
X014241Y005993D01*
X014241Y005413D01*
X014921Y005413D01*
X014921Y006933D01*
X015231Y006373D02*
X015231Y004713D01*
X015931Y005083D02*
X015931Y006373D01*
X015231Y006373D01*
X016071Y007833D02*
X016071Y008513D01*
X016651Y008513D01*
X017011Y008513D01*
X017591Y008513D01*
X017591Y007833D01*
X016071Y007833D01*
X015371Y008153D02*
X015371Y010193D01*
X014851Y010713D02*
X012311Y010713D01*
X011791Y010193D02*
X011791Y008153D01*
X011091Y007833D02*
X011091Y008513D01*
X010511Y008513D01*
X010151Y008513D01*
X009571Y008513D01*
X009571Y007833D01*
X011091Y007833D01*
X011091Y009833D02*
X010511Y009833D01*
X010151Y009833D01*
X009571Y009833D01*
X009571Y010513D01*
X011091Y010513D01*
X011091Y009833D01*
X012241Y011413D02*
X012241Y012933D01*
X012921Y012933D01*
X012921Y012353D01*
X012921Y011993D01*
X012921Y011413D01*
X012241Y011413D01*
X014241Y011413D02*
X014241Y011993D01*
X014241Y012353D01*
X014241Y012933D01*
X014921Y012933D01*
X014921Y011413D01*
X014241Y011413D01*
X016071Y010513D02*
X017591Y010513D01*
X017591Y009833D01*
X017011Y009833D01*
X016651Y009833D01*
X016071Y009833D01*
X016071Y010513D01*
X014851Y013633D02*
X012311Y013633D01*
X011091Y013833D02*
X009571Y013833D01*
X009571Y014513D01*
X010151Y014513D01*
X010511Y014513D01*
X011091Y014513D01*
X011091Y013833D01*
X011791Y014153D02*
X011791Y016193D01*
X009981Y018003D01*
X010501Y018523D02*
X012311Y016713D01*
X011791Y016193D01*
X011091Y016513D02*
X011091Y015833D01*
X010511Y015833D01*
X010151Y015833D01*
X009571Y015833D01*
X009571Y016513D01*
X011091Y016513D01*
X012311Y016713D02*
X014851Y016713D01*
X016661Y018523D01*
X017181Y018003D02*
X015371Y016193D01*
X014851Y016713D01*
X014921Y017413D02*
X014241Y017413D01*
X014241Y017993D01*
X014241Y018353D01*
X014241Y018933D01*
X014921Y018933D01*
X014921Y017413D01*
X016071Y016513D02*
X017591Y016513D01*
X017591Y015833D01*
X017011Y015833D01*
X016651Y015833D01*
X016071Y015833D01*
X016071Y016513D01*
X015371Y016193D02*
X015371Y014153D01*
X016071Y013833D02*
X016071Y014513D01*
X016651Y014513D01*
X017011Y014513D01*
X017591Y014513D01*
X017591Y013833D01*
X016071Y013833D01*
X012921Y017413D02*
X012241Y017413D01*
X012241Y018933D01*
X012921Y018933D01*
X012921Y018353D01*
X012921Y017993D01*
X012921Y017413D01*
D11*
X011171Y016173D03*
X015991Y016173D03*
X017671Y014173D03*
X009491Y014173D03*
X011171Y010173D03*
X015991Y010173D03*
X017671Y008173D03*
X009491Y008173D03*
D12*
X009511Y008513D02*
X010151Y008513D01*
X010151Y009833D01*
X009511Y009833D01*
X009511Y008513D01*
X009336Y008928D02*
X009086Y008928D01*
X009086Y009053D01*
X009127Y009095D01*
X009211Y009095D01*
X009253Y009053D01*
X009253Y008928D01*
X009253Y009011D02*
X009336Y009095D01*
X009294Y009222D02*
X009336Y009264D01*
X009336Y009348D01*
X009294Y009389D01*
X009127Y009389D01*
X009086Y009348D01*
X009086Y009264D01*
X009127Y009222D01*
X009169Y009222D01*
X009211Y009264D01*
X009211Y009389D01*
X010511Y009833D02*
X011151Y009833D01*
X011151Y008513D01*
X010511Y008513D01*
X010511Y009833D01*
X011326Y009418D02*
X011367Y009460D01*
X011534Y009293D01*
X011576Y009335D01*
X011576Y009418D01*
X011534Y009460D01*
X011367Y009460D01*
X011326Y009418D02*
X011326Y009335D01*
X011367Y009293D01*
X011534Y009293D01*
X011576Y009165D02*
X011576Y008999D01*
X011576Y009082D02*
X011326Y009082D01*
X011409Y008999D01*
X011367Y008871D02*
X011451Y008871D01*
X011493Y008829D01*
X011493Y008704D01*
X011576Y008704D02*
X011326Y008704D01*
X011326Y008829D01*
X011367Y008871D01*
X011493Y008787D02*
X011576Y008871D01*
X010666Y007728D02*
X010708Y007686D01*
X010541Y007520D01*
X010583Y007478D01*
X010666Y007478D01*
X010708Y007520D01*
X010708Y007686D01*
X010666Y007728D02*
X010583Y007728D01*
X010541Y007686D01*
X010541Y007520D01*
X010413Y007478D02*
X010247Y007478D01*
X010330Y007478D02*
X010330Y007728D01*
X010247Y007645D01*
X010119Y007686D02*
X010119Y007520D01*
X010077Y007478D01*
X009952Y007478D01*
X009952Y007728D01*
X010077Y007728D01*
X010119Y007686D01*
X012296Y007468D02*
X012296Y007218D01*
X012421Y007218D01*
X012463Y007260D01*
X012463Y007426D01*
X012421Y007468D01*
X012296Y007468D01*
X012591Y007385D02*
X012674Y007468D01*
X012674Y007218D01*
X012591Y007218D02*
X012757Y007218D01*
X012885Y007218D02*
X013052Y007218D01*
X012969Y007218D02*
X012969Y007468D01*
X012885Y007385D01*
X013286Y007368D02*
X013286Y007118D01*
X013286Y007201D02*
X013411Y007201D01*
X013453Y007243D01*
X013453Y007326D01*
X013411Y007368D01*
X013286Y007368D01*
X013369Y007201D02*
X013453Y007118D01*
X013581Y007118D02*
X013747Y007118D01*
X013664Y007118D02*
X013664Y007368D01*
X013581Y007285D01*
X013875Y007326D02*
X013917Y007368D01*
X014000Y007368D01*
X014042Y007326D01*
X014042Y007285D01*
X013875Y007118D01*
X014042Y007118D01*
X014241Y006993D02*
X014241Y006353D01*
X012921Y006353D01*
X012921Y006993D01*
X014241Y006993D01*
X014346Y007068D02*
X014471Y007068D01*
X014513Y007110D01*
X014513Y007276D01*
X014471Y007318D01*
X014346Y007318D01*
X014346Y007068D01*
X014641Y007068D02*
X014807Y007068D01*
X014724Y007068D02*
X014724Y007318D01*
X014641Y007235D01*
X014935Y007276D02*
X014977Y007318D01*
X015060Y007318D01*
X015102Y007276D01*
X015102Y007235D01*
X014935Y007068D01*
X015102Y007068D01*
X017346Y007468D02*
X017471Y007468D01*
X017513Y007510D01*
X017513Y007676D01*
X017471Y007718D01*
X017346Y007718D01*
X017346Y007468D01*
X017641Y007468D02*
X017807Y007468D01*
X017724Y007468D02*
X017724Y007718D01*
X017641Y007635D01*
X017651Y008513D02*
X017011Y008513D01*
X017011Y009833D01*
X017651Y009833D01*
X017651Y008513D01*
X016651Y008513D02*
X016011Y008513D01*
X016011Y009833D01*
X016651Y009833D01*
X016651Y008513D01*
X015876Y008949D02*
X015626Y008949D01*
X015626Y009074D01*
X015667Y009115D01*
X015751Y009115D01*
X015793Y009074D01*
X015793Y008949D01*
X015793Y009032D02*
X015876Y009115D01*
X015876Y009243D02*
X015876Y009410D01*
X015876Y009327D02*
X015626Y009327D01*
X015709Y009243D01*
X017786Y009428D02*
X017786Y009553D01*
X017827Y009595D01*
X017911Y009595D01*
X017953Y009553D01*
X017953Y009428D01*
X018036Y009428D02*
X017786Y009428D01*
X017953Y009511D02*
X018036Y009595D01*
X018036Y009722D02*
X017869Y009889D01*
X017827Y009889D01*
X017786Y009848D01*
X017786Y009764D01*
X017827Y009722D01*
X018036Y009722D02*
X018036Y009889D01*
X017557Y010668D02*
X017391Y010668D01*
X017557Y010835D01*
X017557Y010876D01*
X017516Y010918D01*
X017432Y010918D01*
X017391Y010876D01*
X017263Y010876D02*
X017221Y010918D01*
X017096Y010918D01*
X017096Y010668D01*
X017221Y010668D01*
X017263Y010710D01*
X017263Y010876D01*
X015376Y011794D02*
X015376Y011919D01*
X015334Y011961D01*
X015167Y011961D01*
X015126Y011919D01*
X015126Y011794D01*
X015376Y011794D01*
X015376Y012089D02*
X015376Y012255D01*
X015376Y012172D02*
X015126Y012172D01*
X015209Y012089D01*
X015251Y012383D02*
X015251Y012550D01*
X015376Y012508D02*
X015126Y012508D01*
X015251Y012383D01*
X014241Y012353D02*
X012921Y012353D01*
X012921Y012993D01*
X014241Y012993D01*
X014241Y012353D01*
X014241Y011993D02*
X012921Y011993D01*
X012921Y011353D01*
X014241Y011353D01*
X014241Y011993D01*
X013976Y011128D02*
X014018Y011086D01*
X014018Y011045D01*
X013976Y011003D01*
X014018Y010961D01*
X014018Y010920D01*
X013976Y010878D01*
X013893Y010878D01*
X013851Y010920D01*
X013935Y011003D02*
X013976Y011003D01*
X013976Y011128D02*
X013893Y011128D01*
X013851Y011086D01*
X013640Y011128D02*
X013640Y010878D01*
X013557Y010878D02*
X013723Y010878D01*
X013557Y011045D02*
X013640Y011128D01*
X013429Y011086D02*
X013429Y011003D01*
X013387Y010961D01*
X013262Y010961D01*
X013262Y010878D02*
X013262Y011128D01*
X013387Y011128D01*
X013429Y011086D01*
X013345Y010961D02*
X013429Y010878D01*
X012086Y011838D02*
X012086Y011963D01*
X012044Y012005D01*
X011877Y012005D01*
X011836Y011963D01*
X011836Y011838D01*
X012086Y011838D01*
X012086Y012132D02*
X012086Y012299D01*
X012086Y012216D02*
X011836Y012216D01*
X011919Y012132D01*
X011877Y012427D02*
X011836Y012469D01*
X011836Y012552D01*
X011877Y012594D01*
X011919Y012594D01*
X011961Y012552D01*
X012003Y012594D01*
X012044Y012594D01*
X012086Y012552D01*
X012086Y012469D01*
X012044Y012427D01*
X011961Y012511D02*
X011961Y012552D01*
X013286Y013118D02*
X013286Y013368D01*
X013411Y013368D01*
X013453Y013326D01*
X013453Y013243D01*
X013411Y013201D01*
X013286Y013201D01*
X013369Y013201D02*
X013453Y013118D01*
X013581Y013118D02*
X013747Y013118D01*
X013664Y013118D02*
X013664Y013368D01*
X013581Y013285D01*
X013875Y013243D02*
X014000Y013368D01*
X014000Y013118D01*
X014042Y013243D02*
X013875Y013243D01*
X016296Y013468D02*
X016421Y013468D01*
X016463Y013510D01*
X016463Y013676D01*
X016421Y013718D01*
X016296Y013718D01*
X016296Y013468D01*
X016591Y013510D02*
X016632Y013468D01*
X016716Y013468D01*
X016757Y013510D01*
X016757Y013551D01*
X016716Y013593D01*
X016674Y013593D01*
X016716Y013593D02*
X016757Y013635D01*
X016757Y013676D01*
X016716Y013718D01*
X016632Y013718D01*
X016591Y013676D01*
X016651Y014513D02*
X016011Y014513D01*
X016011Y015833D01*
X016651Y015833D01*
X016651Y014513D01*
X017011Y014513D02*
X017651Y014513D01*
X017651Y015833D01*
X017011Y015833D01*
X017011Y014513D01*
X017786Y014928D02*
X017786Y015053D01*
X017827Y015095D01*
X017911Y015095D01*
X017953Y015053D01*
X017953Y014928D01*
X018036Y014928D02*
X017786Y014928D01*
X017953Y015011D02*
X018036Y015095D01*
X017911Y015222D02*
X017911Y015389D01*
X018036Y015348D02*
X017786Y015348D01*
X017911Y015222D01*
X015876Y015285D02*
X015834Y015243D01*
X015876Y015285D02*
X015876Y015368D01*
X015834Y015410D01*
X015793Y015410D01*
X015751Y015368D01*
X015751Y015327D01*
X015751Y015368D02*
X015709Y015410D01*
X015667Y015410D01*
X015626Y015368D01*
X015626Y015285D01*
X015667Y015243D01*
X015667Y015115D02*
X015751Y015115D01*
X015793Y015074D01*
X015793Y014949D01*
X015793Y015032D02*
X015876Y015115D01*
X015876Y014949D02*
X015626Y014949D01*
X015626Y015074D01*
X015667Y015115D01*
X017147Y016628D02*
X017272Y016628D01*
X017313Y016670D01*
X017313Y016836D01*
X017272Y016878D01*
X017147Y016878D01*
X017147Y016628D01*
X017441Y016753D02*
X017608Y016753D01*
X017566Y016878D02*
X017441Y016753D01*
X017566Y016628D02*
X017566Y016878D01*
X015326Y017939D02*
X015326Y018064D01*
X015284Y018105D01*
X015117Y018105D01*
X015076Y018064D01*
X015076Y017939D01*
X015326Y017939D01*
X015284Y018233D02*
X015326Y018275D01*
X015326Y018358D01*
X015284Y018400D01*
X015201Y018400D01*
X015159Y018358D01*
X015159Y018317D01*
X015201Y018233D01*
X015076Y018233D01*
X015076Y018400D01*
X014241Y018353D02*
X012921Y018353D01*
X012921Y018993D01*
X014241Y018993D01*
X014241Y018353D01*
X014241Y017993D02*
X012921Y017993D01*
X012921Y017353D01*
X014241Y017353D01*
X014241Y017993D01*
X014068Y017228D02*
X013985Y017186D01*
X013901Y017103D01*
X014026Y017103D01*
X014068Y017061D01*
X014068Y017020D01*
X014026Y016978D01*
X013943Y016978D01*
X013901Y017020D01*
X013901Y017103D01*
X013773Y017103D02*
X013732Y017061D01*
X013607Y017061D01*
X013690Y017061D02*
X013773Y016978D01*
X013773Y017103D02*
X013773Y017186D01*
X013732Y017228D01*
X013607Y017228D01*
X013607Y016978D01*
X012086Y017988D02*
X012086Y018113D01*
X012044Y018155D01*
X011877Y018155D01*
X011836Y018113D01*
X011836Y017988D01*
X012086Y017988D01*
X012044Y018282D02*
X012086Y018324D01*
X012086Y018408D01*
X012044Y018449D01*
X012003Y018449D01*
X011961Y018408D01*
X011961Y018282D01*
X012044Y018282D01*
X011961Y018282D02*
X011877Y018366D01*
X011836Y018449D01*
X013086Y019118D02*
X013086Y019368D01*
X013211Y019368D01*
X013253Y019326D01*
X013253Y019243D01*
X013211Y019201D01*
X013086Y019201D01*
X013169Y019201D02*
X013253Y019118D01*
X013381Y019160D02*
X013422Y019118D01*
X013506Y019118D01*
X013547Y019160D01*
X013547Y019243D01*
X013506Y019285D01*
X013464Y019285D01*
X013381Y019243D01*
X013381Y019368D01*
X013547Y019368D01*
X010557Y016868D02*
X010391Y016868D01*
X010263Y016826D02*
X010221Y016868D01*
X010096Y016868D01*
X010096Y016618D01*
X010221Y016618D01*
X010263Y016660D01*
X010263Y016826D01*
X010391Y016660D02*
X010391Y016618D01*
X010391Y016660D02*
X010557Y016826D01*
X010557Y016868D01*
X010511Y015833D02*
X011151Y015833D01*
X011151Y014513D01*
X010511Y014513D01*
X010511Y015833D01*
X010151Y015833D02*
X010151Y014513D01*
X009511Y014513D01*
X009511Y015833D01*
X010151Y015833D01*
X009294Y015322D02*
X009127Y015489D01*
X009086Y015489D01*
X009086Y015322D01*
X009127Y015195D02*
X009211Y015195D01*
X009253Y015153D01*
X009253Y015028D01*
X009336Y015028D02*
X009086Y015028D01*
X009086Y015153D01*
X009127Y015195D01*
X009253Y015111D02*
X009336Y015195D01*
X009336Y015322D02*
X009294Y015322D01*
X011276Y014968D02*
X011276Y014885D01*
X011317Y014843D01*
X011359Y014843D01*
X011401Y014885D01*
X011401Y014968D01*
X011443Y015010D01*
X011484Y015010D01*
X011526Y014968D01*
X011526Y014885D01*
X011484Y014843D01*
X011443Y014843D01*
X011401Y014885D01*
X011401Y014968D02*
X011359Y015010D01*
X011317Y015010D01*
X011276Y014968D01*
X011317Y014715D02*
X011401Y014715D01*
X011443Y014674D01*
X011443Y014549D01*
X011443Y014632D02*
X011526Y014715D01*
X011526Y014549D02*
X011276Y014549D01*
X011276Y014674D01*
X011317Y014715D01*
X010516Y013728D02*
X010433Y013728D01*
X010391Y013686D01*
X010391Y013645D01*
X010433Y013603D01*
X010516Y013603D01*
X010558Y013561D01*
X010558Y013520D01*
X010516Y013478D01*
X010433Y013478D01*
X010391Y013520D01*
X010391Y013561D01*
X010433Y013603D01*
X010516Y013603D02*
X010558Y013645D01*
X010558Y013686D01*
X010516Y013728D01*
X010263Y013686D02*
X010222Y013728D01*
X010097Y013728D01*
X010097Y013478D01*
X010222Y013478D01*
X010263Y013520D01*
X010263Y013686D01*
X010282Y010868D02*
X010241Y010826D01*
X010241Y010785D01*
X010282Y010743D01*
X010407Y010743D01*
X010407Y010660D02*
X010407Y010826D01*
X010366Y010868D01*
X010282Y010868D01*
X010113Y010826D02*
X010071Y010868D01*
X009946Y010868D01*
X009946Y010618D01*
X010071Y010618D01*
X010113Y010660D01*
X010113Y010826D01*
X010241Y010660D02*
X010282Y010618D01*
X010366Y010618D01*
X010407Y010660D01*
X011599Y006758D02*
X011683Y006758D01*
X011641Y006758D02*
X011641Y006550D01*
X011599Y006508D01*
X011558Y006508D01*
X011516Y006550D01*
X011811Y006508D02*
X011977Y006508D01*
X011894Y006508D02*
X011894Y006758D01*
X011811Y006675D01*
X012921Y005993D02*
X014241Y005993D01*
X014241Y005353D01*
X012921Y005353D01*
X012921Y005993D01*
X013262Y005228D02*
X013387Y005228D01*
X013429Y005186D01*
X013429Y005103D01*
X013387Y005061D01*
X013262Y005061D01*
X013262Y004978D02*
X013262Y005228D01*
X013345Y005061D02*
X013429Y004978D01*
X013557Y004978D02*
X013723Y004978D01*
X013640Y004978D02*
X013640Y005228D01*
X013557Y005145D01*
X013851Y005145D02*
X013935Y005228D01*
X013935Y004978D01*
X014018Y004978D02*
X013851Y004978D01*
X014776Y004993D02*
X015063Y004993D01*
X014919Y005136D02*
X014919Y004850D01*
X016254Y005608D02*
X016296Y005650D01*
X016296Y005691D01*
X016254Y005733D01*
X016046Y005733D01*
X016046Y005691D02*
X016046Y005775D01*
X016087Y005902D02*
X016046Y005944D01*
X016046Y006028D01*
X016087Y006069D01*
X016129Y006069D01*
X016296Y005902D01*
X016296Y006069D01*
X012897Y005000D02*
X012897Y004833D01*
X012897Y004958D02*
X012730Y004958D01*
X012730Y005000D02*
X012730Y004833D01*
X012602Y004875D02*
X012602Y005041D01*
X012561Y005083D01*
X012436Y005083D01*
X012436Y004833D01*
X012561Y004833D01*
X012602Y004875D01*
X012730Y005000D02*
X012814Y005083D01*
X012897Y005000D01*
X012308Y005041D02*
X012266Y005083D01*
X012183Y005083D01*
X012141Y005041D01*
X012141Y005000D01*
X012183Y004958D01*
X012266Y004958D01*
X012308Y004916D01*
X012308Y004875D01*
X012266Y004833D01*
X012183Y004833D01*
X012141Y004875D01*
D13*
X014581Y005333D03*
X012581Y007013D03*
X014581Y011333D03*
X012581Y013013D03*
X014581Y017333D03*
X012581Y019013D03*
M02*
