G75*
G70*
%OFA0B0*%
%FSLAX24Y24*%
%IPPOS*%
%LPD*%
%AMOC8*
5,1,8,0,0,1.08239X$1,22.5*
%
%ADD10C,0.0070*%
%ADD11C,0.0080*%
D10*
X013440Y005188D02*
X013398Y005230D01*
X013398Y005272D01*
X013440Y005313D01*
X013565Y005313D01*
X013565Y005230D01*
X013523Y005188D01*
X013440Y005188D01*
X013565Y005313D02*
X013482Y005397D01*
X013398Y005438D01*
X013693Y005397D02*
X013735Y005438D01*
X013818Y005438D01*
X013860Y005397D01*
X013860Y005230D01*
X013818Y005188D01*
X013735Y005188D01*
X013693Y005230D01*
X013693Y005397D01*
X013776Y005272D02*
X013693Y005188D01*
X014011Y005513D02*
X014651Y005513D01*
X014651Y006833D01*
X014011Y006833D01*
X014011Y005513D01*
X013469Y005917D02*
X013193Y005917D01*
X012760Y006055D02*
X012760Y006429D01*
X013075Y006429D01*
X013587Y006429D02*
X013902Y006429D01*
X013902Y006055D01*
X013982Y006958D02*
X014065Y006958D01*
X014107Y007000D01*
X013940Y007166D01*
X013940Y007000D01*
X013982Y006958D01*
X014107Y007000D02*
X014107Y007166D01*
X014065Y007208D01*
X013982Y007208D01*
X013940Y007166D01*
X014235Y007166D02*
X014276Y007208D01*
X014360Y007208D01*
X014401Y007166D01*
X014529Y007166D02*
X014529Y007083D01*
X014571Y007041D01*
X014696Y007041D01*
X014696Y006958D02*
X014696Y007208D01*
X014571Y007208D01*
X014529Y007166D01*
X014613Y007041D02*
X014529Y006958D01*
X014401Y006958D02*
X014235Y007125D01*
X014235Y007166D01*
X014235Y006958D02*
X014401Y006958D01*
X016259Y006423D02*
X016546Y006423D01*
X016857Y007258D02*
X016857Y007300D01*
X016690Y007466D01*
X016690Y007508D01*
X016857Y007508D01*
X016671Y007603D02*
X016671Y008243D01*
X017991Y008243D01*
X017991Y007603D01*
X016671Y007603D01*
X017068Y007508D02*
X017068Y007258D01*
X017151Y007258D02*
X016985Y007258D01*
X017151Y007425D02*
X017068Y007508D01*
X017279Y007466D02*
X017279Y007383D01*
X017321Y007341D01*
X017446Y007341D01*
X017446Y007258D02*
X017446Y007508D01*
X017321Y007508D01*
X017279Y007466D01*
X017363Y007341D02*
X017279Y007258D01*
X015996Y008258D02*
X015996Y008423D01*
X015941Y008478D01*
X015831Y008478D01*
X015776Y008423D01*
X015776Y008258D01*
X015776Y008368D02*
X015666Y008478D01*
X015721Y008626D02*
X015831Y008626D01*
X015886Y008681D01*
X015886Y008791D01*
X015831Y008846D01*
X015776Y008846D01*
X015776Y008626D01*
X015721Y008626D02*
X015666Y008681D01*
X015666Y008791D01*
X015886Y008994D02*
X015666Y009105D01*
X015886Y009215D01*
X015721Y009363D02*
X015721Y009418D01*
X015666Y009418D01*
X015666Y009363D01*
X015721Y009363D01*
X016510Y009179D02*
X016510Y008805D01*
X016943Y008667D02*
X017219Y008667D01*
X017652Y008805D02*
X017652Y009179D01*
X017337Y009179D01*
X017796Y008956D02*
X017796Y008789D01*
X017796Y008872D02*
X018047Y008872D01*
X017963Y008789D01*
X018005Y008661D02*
X017838Y008661D01*
X017796Y008619D01*
X017796Y008536D01*
X017838Y008494D01*
X018005Y008494D01*
X018047Y008536D01*
X018047Y008619D01*
X018005Y008661D01*
X017880Y008578D02*
X017796Y008661D01*
X016825Y009179D02*
X016510Y009179D01*
X015996Y008258D02*
X015666Y008258D01*
X011151Y009263D02*
X011151Y010583D01*
X010511Y010583D01*
X010511Y009263D01*
X011151Y009263D01*
X010652Y009179D02*
X010652Y008805D01*
X010219Y008667D02*
X009943Y008667D01*
X009510Y008805D02*
X009510Y009179D01*
X009825Y009179D01*
X009346Y009113D02*
X009221Y009113D01*
X009263Y009197D01*
X009263Y009238D01*
X009221Y009280D01*
X009138Y009280D01*
X009096Y009238D01*
X009096Y009155D01*
X009138Y009113D01*
X009138Y008985D02*
X009096Y008944D01*
X009096Y008860D01*
X009138Y008819D01*
X009304Y008819D01*
X009346Y008860D01*
X009346Y008944D01*
X009304Y008985D01*
X009138Y008985D01*
X009096Y008985D02*
X009179Y008902D01*
X009346Y009113D02*
X009346Y009280D01*
X010337Y009179D02*
X010652Y009179D01*
X010396Y009874D02*
X010396Y009999D01*
X010354Y010041D01*
X010271Y010041D01*
X010229Y009999D01*
X010229Y009874D01*
X010146Y009874D02*
X010396Y009874D01*
X010229Y009957D02*
X010146Y010041D01*
X010146Y010169D02*
X010313Y010335D01*
X010354Y010335D01*
X010396Y010294D01*
X010396Y010210D01*
X010354Y010169D01*
X010146Y010169D02*
X010146Y010335D01*
X010146Y010463D02*
X010146Y010630D01*
X010146Y010547D02*
X010396Y010547D01*
X010313Y010463D01*
X010313Y011138D02*
X010397Y011221D01*
X010355Y011221D02*
X010480Y011221D01*
X010480Y011138D02*
X010480Y011388D01*
X010355Y011388D01*
X010313Y011346D01*
X010313Y011263D01*
X010355Y011221D01*
X010185Y011138D02*
X010018Y011305D01*
X010018Y011346D01*
X010060Y011388D01*
X010144Y011388D01*
X010185Y011346D01*
X010185Y011138D02*
X010018Y011138D01*
X009891Y011180D02*
X009849Y011138D01*
X009766Y011138D01*
X009724Y011180D01*
X009724Y011221D01*
X009766Y011263D01*
X009807Y011263D01*
X009766Y011263D02*
X009724Y011305D01*
X009724Y011346D01*
X009766Y011388D01*
X009849Y011388D01*
X009891Y011346D01*
X009761Y011513D02*
X010401Y011513D01*
X010401Y012833D01*
X009761Y012833D01*
X009761Y011513D01*
X012715Y010874D02*
X012715Y013472D01*
X013345Y013472D01*
X013347Y013442D01*
X013352Y013413D01*
X013362Y013385D01*
X013374Y013358D01*
X013390Y013333D01*
X013409Y013310D01*
X013431Y013290D01*
X013455Y013273D01*
X013481Y013258D01*
X013508Y013248D01*
X013537Y013240D01*
X013566Y013236D01*
X013596Y013236D01*
X013625Y013240D01*
X013654Y013248D01*
X013681Y013258D01*
X013707Y013273D01*
X013731Y013290D01*
X013753Y013310D01*
X013772Y013333D01*
X013788Y013358D01*
X013800Y013385D01*
X013810Y013413D01*
X013815Y013442D01*
X013817Y013472D01*
X014447Y013472D01*
X014447Y010874D01*
X012715Y010874D01*
X015235Y010558D02*
X015401Y010558D01*
X015318Y010558D02*
X015318Y010808D01*
X015401Y010725D01*
X015529Y010808D02*
X015529Y010600D01*
X015571Y010558D01*
X015654Y010558D01*
X015696Y010600D01*
X015696Y010808D01*
X016636Y010761D02*
X016636Y010651D01*
X016691Y010596D01*
X016911Y010816D01*
X016691Y010816D01*
X016636Y010761D01*
X016691Y010596D02*
X016911Y010596D01*
X016966Y010651D01*
X016966Y010761D01*
X016911Y010816D01*
X017156Y010761D02*
X017211Y010816D01*
X017156Y010761D02*
X017156Y010651D01*
X017211Y010596D01*
X017431Y010596D01*
X017486Y010651D01*
X017486Y010761D01*
X017431Y010816D01*
X017321Y010964D02*
X017321Y011185D01*
X017211Y011333D02*
X017431Y011553D01*
X017211Y011553D01*
X017156Y011498D01*
X017156Y011388D01*
X017211Y011333D01*
X017431Y011333D01*
X017486Y011388D01*
X017486Y011498D01*
X017431Y011553D01*
X017486Y011701D02*
X017321Y011701D01*
X017376Y011811D01*
X017376Y011866D01*
X017321Y011921D01*
X017211Y011921D01*
X017156Y011866D01*
X017156Y011756D01*
X017211Y011701D01*
X017486Y011701D02*
X017486Y011921D01*
X016966Y011866D02*
X016801Y011701D01*
X016801Y011921D01*
X016636Y011866D02*
X016966Y011866D01*
X016966Y011443D02*
X016636Y011443D01*
X016636Y011333D02*
X016636Y011553D01*
X016856Y011333D02*
X016966Y011443D01*
X016966Y011185D02*
X016636Y010964D01*
X016636Y010448D02*
X016636Y010228D01*
X016636Y010338D02*
X016966Y010338D01*
X016856Y010228D01*
X017156Y010228D02*
X017486Y010228D01*
X017486Y010393D01*
X017431Y010448D01*
X017321Y010448D01*
X017266Y010393D01*
X017266Y010228D01*
X017307Y013008D02*
X017528Y013008D01*
X017418Y013008D02*
X017418Y013338D01*
X017528Y013228D01*
X017676Y013228D02*
X017676Y013008D01*
X017676Y013173D02*
X017896Y013173D01*
X017896Y013228D02*
X017786Y013338D01*
X017676Y013228D01*
X017896Y013228D02*
X017896Y013008D01*
X016946Y013708D02*
X016726Y013708D01*
X016836Y013708D02*
X016836Y014038D01*
X016946Y013928D01*
X016286Y013338D02*
X016176Y013228D01*
X016176Y013008D01*
X016028Y013063D02*
X015807Y013283D01*
X015807Y013063D01*
X015863Y013008D01*
X015973Y013008D01*
X016028Y013063D01*
X016028Y013283D01*
X015973Y013338D01*
X015863Y013338D01*
X015807Y013283D01*
X016176Y013173D02*
X016396Y013173D01*
X016396Y013228D02*
X016286Y013338D01*
X016396Y013228D02*
X016396Y013008D01*
X011651Y013513D02*
X011011Y013513D01*
X011011Y014833D01*
X011651Y014833D01*
X011651Y013513D01*
X010587Y013417D02*
X010587Y013102D01*
X010213Y013102D01*
X009596Y013210D02*
X009596Y013294D01*
X009554Y013335D01*
X009388Y013335D01*
X009346Y013294D01*
X009346Y013210D01*
X009388Y013169D01*
X009554Y013169D01*
X009596Y013210D01*
X009429Y013252D02*
X009346Y013335D01*
X009346Y013463D02*
X009388Y013463D01*
X009554Y013630D01*
X009596Y013630D01*
X009596Y013463D01*
X010075Y013535D02*
X010075Y013811D01*
X010587Y013929D02*
X010587Y014244D01*
X010213Y014244D01*
X010646Y014460D02*
X010646Y014544D01*
X010688Y014585D01*
X010646Y014460D02*
X010688Y014419D01*
X010854Y014419D01*
X010896Y014460D01*
X010896Y014544D01*
X010854Y014585D01*
X010813Y014713D02*
X010896Y014797D01*
X010646Y014797D01*
X010646Y014880D02*
X010646Y014713D01*
X010491Y014603D02*
X010491Y015243D01*
X009171Y015243D01*
X009171Y014603D01*
X010491Y014603D01*
X009846Y015358D02*
X009846Y015608D01*
X009721Y015608D01*
X009679Y015566D01*
X009679Y015483D01*
X009721Y015441D01*
X009846Y015441D01*
X009763Y015441D02*
X009679Y015358D01*
X009551Y015358D02*
X009385Y015358D01*
X009468Y015358D02*
X009468Y015608D01*
X009551Y015525D01*
X009257Y015483D02*
X009257Y015608D01*
X009090Y015608D01*
X009132Y015525D02*
X009090Y015483D01*
X009090Y015400D01*
X009132Y015358D01*
X009215Y015358D01*
X009257Y015400D01*
X009257Y015483D02*
X009173Y015525D01*
X009132Y015525D01*
X011011Y015513D02*
X011651Y015513D01*
X011651Y016833D01*
X011011Y016833D01*
X011011Y015513D01*
X010990Y016958D02*
X011157Y016958D01*
X010990Y017125D01*
X010990Y017166D01*
X011032Y017208D01*
X011115Y017208D01*
X011157Y017166D01*
X011285Y017166D02*
X011326Y017208D01*
X011410Y017208D01*
X011451Y017166D01*
X011579Y017166D02*
X011579Y017083D01*
X011621Y017041D01*
X011746Y017041D01*
X011746Y016958D02*
X011746Y017208D01*
X011621Y017208D01*
X011579Y017166D01*
X011663Y017041D02*
X011579Y016958D01*
X011451Y016958D02*
X011285Y017125D01*
X011285Y017166D01*
X011285Y016958D02*
X011451Y016958D01*
X011825Y017602D02*
X012199Y017602D01*
X011825Y017602D02*
X011825Y017917D01*
X012337Y018035D02*
X012337Y018311D01*
X011825Y018429D02*
X011825Y018744D01*
X012199Y018744D01*
X012204Y018858D02*
X012246Y018900D01*
X012246Y019066D01*
X012204Y019108D01*
X012121Y019108D01*
X012079Y019066D01*
X012079Y018900D01*
X012121Y018858D01*
X012204Y018858D01*
X012163Y018941D02*
X012079Y018858D01*
X011951Y018983D02*
X011785Y018983D01*
X011826Y019108D02*
X011951Y018983D01*
X011826Y018858D02*
X011826Y019108D01*
X013385Y019066D02*
X013385Y019025D01*
X013426Y018983D01*
X013385Y018941D01*
X013385Y018900D01*
X013426Y018858D01*
X013510Y018858D01*
X013551Y018900D01*
X013468Y018983D02*
X013426Y018983D01*
X013385Y019066D02*
X013426Y019108D01*
X013510Y019108D01*
X013551Y019066D01*
X013679Y019066D02*
X013679Y018900D01*
X013721Y018858D01*
X013804Y018858D01*
X013846Y018900D01*
X013846Y019066D01*
X013804Y019108D01*
X013721Y019108D01*
X013679Y019066D01*
X013763Y018941D02*
X013679Y018858D01*
X013837Y018744D02*
X013463Y018744D01*
X013837Y018744D02*
X013837Y018429D01*
X013325Y018311D02*
X013325Y018035D01*
X013837Y017917D02*
X013837Y017602D01*
X013463Y017602D01*
X013421Y017493D02*
X013421Y016853D01*
X014741Y016853D01*
X014741Y017493D01*
X013421Y017493D01*
X014190Y017650D02*
X014190Y017816D01*
X014232Y017858D01*
X014315Y017858D01*
X014357Y017816D01*
X014357Y017775D01*
X014315Y017733D01*
X014190Y017733D01*
X014190Y017650D02*
X014232Y017608D01*
X014315Y017608D01*
X014357Y017650D01*
X014485Y017608D02*
X014651Y017608D01*
X014568Y017608D02*
X014568Y017858D01*
X014651Y017775D01*
X014779Y017816D02*
X014779Y017733D01*
X014821Y017691D01*
X014946Y017691D01*
X014946Y017608D02*
X014946Y017858D01*
X014821Y017858D01*
X014779Y017816D01*
X014863Y017691D02*
X014779Y017608D01*
X014869Y018082D02*
X014740Y018211D01*
X014894Y018400D01*
X014855Y018476D01*
X014829Y018557D01*
X014587Y018581D01*
X014587Y018764D01*
X014829Y018789D01*
X014855Y018870D01*
X014894Y018946D01*
X014740Y019135D01*
X014869Y019264D01*
X015058Y019110D01*
X015134Y019149D01*
X015215Y019175D01*
X015240Y019417D01*
X015422Y019417D01*
X015447Y019175D01*
X015528Y019149D01*
X015604Y019110D01*
X015793Y019264D01*
X015922Y019135D01*
X015768Y018946D01*
X015807Y018870D01*
X015833Y018789D01*
X016075Y018764D01*
X016075Y018581D01*
X015833Y018557D01*
X015807Y018476D01*
X015768Y018400D01*
X015922Y018211D01*
X015793Y018082D01*
X015604Y018236D01*
X015528Y018196D01*
X015421Y018456D01*
X015461Y018478D01*
X015497Y018507D01*
X015526Y018543D01*
X015548Y018583D01*
X015561Y018627D01*
X015565Y018673D01*
X015560Y018723D01*
X015544Y018771D01*
X015518Y018814D01*
X015483Y018851D01*
X015441Y018880D01*
X015395Y018898D01*
X015345Y018907D01*
X015294Y018904D01*
X015246Y018891D01*
X015201Y018868D01*
X015162Y018835D01*
X015131Y018795D01*
X015110Y018750D01*
X015098Y018700D01*
X015098Y018650D01*
X015108Y018600D01*
X015129Y018554D01*
X015159Y018514D01*
X015197Y018481D01*
X015241Y018456D01*
X015134Y018196D01*
X015058Y018236D01*
X014869Y018082D01*
X014852Y018099D02*
X014890Y018099D01*
X014974Y018167D02*
X014784Y018167D01*
X014760Y018236D02*
X015150Y018236D01*
X015178Y018304D02*
X014816Y018304D01*
X014872Y018373D02*
X015207Y018373D01*
X015235Y018441D02*
X014872Y018441D01*
X014844Y018510D02*
X015163Y018510D01*
X015118Y018578D02*
X014617Y018578D01*
X014587Y018647D02*
X015098Y018647D01*
X015102Y018715D02*
X014587Y018715D01*
X014780Y018784D02*
X015126Y018784D01*
X015182Y018852D02*
X014849Y018852D01*
X014881Y018921D02*
X015781Y018921D01*
X015804Y018989D02*
X014858Y018989D01*
X014803Y019058D02*
X015859Y019058D01*
X015915Y019126D02*
X015624Y019126D01*
X015573Y019126D02*
X015089Y019126D01*
X015038Y019126D02*
X014747Y019126D01*
X014800Y019195D02*
X014954Y019195D01*
X014869Y019263D02*
X014870Y019263D01*
X015217Y019195D02*
X015445Y019195D01*
X015438Y019263D02*
X015224Y019263D01*
X015231Y019332D02*
X015431Y019332D01*
X015424Y019400D02*
X015238Y019400D01*
X015708Y019195D02*
X015862Y019195D01*
X015793Y019263D02*
X015792Y019263D01*
X015813Y018852D02*
X015481Y018852D01*
X015536Y018784D02*
X015882Y018784D01*
X016075Y018715D02*
X015561Y018715D01*
X015563Y018647D02*
X016075Y018647D01*
X016045Y018578D02*
X015545Y018578D01*
X015499Y018510D02*
X015818Y018510D01*
X015790Y018441D02*
X015427Y018441D01*
X015455Y018373D02*
X015790Y018373D01*
X015846Y018304D02*
X015484Y018304D01*
X015512Y018236D02*
X015902Y018236D01*
X015878Y018167D02*
X015688Y018167D01*
X015772Y018099D02*
X015810Y018099D01*
X015761Y016833D02*
X016401Y016833D01*
X016401Y015513D01*
X015761Y015513D01*
X015761Y016833D01*
X015646Y016788D02*
X015604Y016830D01*
X015563Y016830D01*
X015521Y016788D01*
X015521Y016705D01*
X015563Y016663D01*
X015604Y016663D01*
X015646Y016705D01*
X015646Y016788D01*
X015521Y016788D02*
X015479Y016830D01*
X015438Y016830D01*
X015396Y016788D01*
X015396Y016705D01*
X015438Y016663D01*
X015479Y016663D01*
X015521Y016705D01*
X015396Y016535D02*
X015396Y016369D01*
X015396Y016452D02*
X015646Y016452D01*
X015563Y016369D01*
X015604Y016241D02*
X015521Y016241D01*
X015479Y016199D01*
X015479Y016074D01*
X015396Y016074D02*
X015646Y016074D01*
X015646Y016199D01*
X015604Y016241D01*
X015479Y016157D02*
X015396Y016241D01*
X016510Y016291D02*
X016510Y015917D01*
X016825Y015917D01*
X017337Y015917D02*
X017652Y015917D01*
X017652Y016291D01*
X017766Y016252D02*
X017933Y016419D01*
X017974Y016419D01*
X018016Y016378D01*
X018016Y016294D01*
X017974Y016252D01*
X017974Y016125D02*
X017808Y016125D01*
X017766Y016083D01*
X017766Y016000D01*
X017808Y015958D01*
X017974Y015958D01*
X018016Y016000D01*
X018016Y016083D01*
X017974Y016125D01*
X017849Y016041D02*
X017766Y016125D01*
X017766Y016252D02*
X017766Y016419D01*
X017219Y016429D02*
X016943Y016429D01*
X016891Y015238D02*
X016781Y015238D01*
X016726Y015183D01*
X016946Y014963D01*
X016891Y014908D01*
X016781Y014908D01*
X016726Y014963D01*
X016726Y015183D01*
X016891Y015238D02*
X016946Y015183D01*
X016946Y014963D01*
X010796Y006580D02*
X010796Y006413D01*
X011046Y006413D01*
X011004Y006285D02*
X011046Y006244D01*
X011046Y006160D01*
X011004Y006119D01*
X010838Y006119D01*
X010796Y006160D01*
X010796Y006244D01*
X010838Y006285D01*
X010838Y005991D02*
X010796Y005949D01*
X010796Y005866D01*
X010838Y005824D01*
X010921Y005866D02*
X010921Y005949D01*
X010879Y005991D01*
X010838Y005991D01*
X010921Y005866D02*
X010963Y005824D01*
X011004Y005824D01*
X011046Y005866D01*
X011046Y005949D01*
X011004Y005991D01*
D11*
X011931Y006373D02*
X011931Y004713D01*
X011231Y005083D02*
X011231Y006373D01*
X011931Y006373D01*
X015231Y006373D02*
X015231Y004713D01*
X015931Y005083D02*
X015931Y006373D01*
X015231Y006373D01*
X015671Y009763D02*
X015671Y009973D01*
X015741Y010043D01*
X015811Y010043D01*
X015881Y009973D01*
X015881Y009763D01*
X015671Y009763D02*
X016091Y009763D01*
X016091Y009973D01*
X016021Y010043D01*
X015951Y010043D01*
X015881Y009973D01*
X015731Y013573D02*
X015731Y013723D01*
X016431Y013723D01*
X016431Y013573D01*
X015731Y013573D01*
X015731Y013622D02*
X016431Y013622D01*
X016431Y013623D02*
X015731Y013623D01*
X015731Y015123D01*
X016431Y015123D01*
X016431Y013623D01*
X016431Y013700D02*
X015731Y013700D01*
X017231Y013700D02*
X017931Y013700D01*
X017931Y013723D02*
X017931Y013573D01*
X017231Y013573D01*
X017231Y013723D01*
X017931Y013723D01*
X017931Y013623D02*
X017231Y013623D01*
X017231Y015123D01*
X017931Y015123D01*
X017931Y013623D01*
X017931Y013622D02*
X017231Y013622D01*
M02*
