G75*
G70*
%OFA0B0*%
%FSLAX24Y24*%
%IPPOS*%
%LPD*%
%AMOC8*
5,1,8,0,0,1.08239X$1,22.5*
%
%ADD10C,0.0000*%
%ADD11C,0.0080*%
%ADD12C,0.0070*%
D10*
X010400Y020400D02*
X023900Y019400D01*
X034400Y019400D01*
X047900Y020400D01*
X047900Y036650D01*
X046650Y036650D01*
X046574Y036652D01*
X046498Y036658D01*
X046423Y036667D01*
X046348Y036681D01*
X046274Y036698D01*
X046201Y036719D01*
X046129Y036743D01*
X046058Y036772D01*
X045989Y036803D01*
X045922Y036838D01*
X045857Y036877D01*
X045793Y036919D01*
X045732Y036964D01*
X045673Y037012D01*
X045617Y037063D01*
X045563Y037117D01*
X045512Y037173D01*
X045464Y037232D01*
X045419Y037293D01*
X045377Y037357D01*
X045338Y037422D01*
X045303Y037489D01*
X045272Y037558D01*
X045243Y037629D01*
X045219Y037701D01*
X045198Y037774D01*
X045181Y037848D01*
X045167Y037923D01*
X045158Y037998D01*
X045152Y038074D01*
X045150Y038150D01*
X045152Y038226D01*
X045158Y038302D01*
X045167Y038377D01*
X045181Y038452D01*
X045198Y038526D01*
X045219Y038599D01*
X045243Y038671D01*
X045272Y038742D01*
X045303Y038811D01*
X045338Y038878D01*
X045377Y038943D01*
X045419Y039007D01*
X045464Y039068D01*
X045512Y039127D01*
X045563Y039183D01*
X045617Y039237D01*
X045673Y039288D01*
X045732Y039336D01*
X045793Y039381D01*
X045857Y039423D01*
X045922Y039462D01*
X045989Y039497D01*
X046058Y039528D01*
X046129Y039557D01*
X046201Y039581D01*
X046274Y039602D01*
X046348Y039619D01*
X046423Y039633D01*
X046498Y039642D01*
X046574Y039648D01*
X046650Y039650D01*
X047900Y039650D01*
X047900Y040900D01*
X034400Y041900D01*
X023900Y041900D01*
X010400Y040900D01*
X010400Y039650D01*
X011650Y039650D01*
X011726Y039648D01*
X011802Y039642D01*
X011877Y039633D01*
X011952Y039619D01*
X012026Y039602D01*
X012099Y039581D01*
X012171Y039557D01*
X012242Y039528D01*
X012311Y039497D01*
X012378Y039462D01*
X012443Y039423D01*
X012507Y039381D01*
X012568Y039336D01*
X012627Y039288D01*
X012683Y039237D01*
X012737Y039183D01*
X012788Y039127D01*
X012836Y039068D01*
X012881Y039007D01*
X012923Y038943D01*
X012962Y038878D01*
X012997Y038811D01*
X013028Y038742D01*
X013057Y038671D01*
X013081Y038599D01*
X013102Y038526D01*
X013119Y038452D01*
X013133Y038377D01*
X013142Y038302D01*
X013148Y038226D01*
X013150Y038150D01*
X013148Y038074D01*
X013142Y037998D01*
X013133Y037923D01*
X013119Y037848D01*
X013102Y037774D01*
X013081Y037701D01*
X013057Y037629D01*
X013028Y037558D01*
X012997Y037489D01*
X012962Y037422D01*
X012923Y037357D01*
X012881Y037293D01*
X012836Y037232D01*
X012788Y037173D01*
X012737Y037117D01*
X012683Y037063D01*
X012627Y037012D01*
X012568Y036964D01*
X012507Y036919D01*
X012443Y036877D01*
X012378Y036838D01*
X012311Y036803D01*
X012242Y036772D01*
X012171Y036743D01*
X012099Y036719D01*
X012026Y036698D01*
X011952Y036681D01*
X011877Y036667D01*
X011802Y036658D01*
X011726Y036652D01*
X011650Y036650D01*
X010400Y036650D01*
X010400Y020400D01*
X017900Y033150D02*
X025400Y033150D01*
X025400Y037525D01*
X017900Y037525D01*
X017900Y033150D01*
X028737Y025900D02*
X028739Y025940D01*
X028745Y025981D01*
X028755Y026020D01*
X028768Y026058D01*
X028786Y026095D01*
X028807Y026129D01*
X028831Y026162D01*
X028858Y026192D01*
X028888Y026219D01*
X028921Y026243D01*
X028955Y026264D01*
X028992Y026282D01*
X029030Y026295D01*
X029069Y026305D01*
X029110Y026311D01*
X029150Y026313D01*
X029190Y026311D01*
X029231Y026305D01*
X029270Y026295D01*
X029308Y026282D01*
X029345Y026264D01*
X029379Y026243D01*
X029412Y026219D01*
X029442Y026192D01*
X029469Y026162D01*
X029493Y026129D01*
X029514Y026095D01*
X029532Y026058D01*
X029545Y026020D01*
X029555Y025981D01*
X029561Y025940D01*
X029563Y025900D01*
X029561Y025860D01*
X029555Y025819D01*
X029545Y025780D01*
X029532Y025742D01*
X029514Y025705D01*
X029493Y025671D01*
X029469Y025638D01*
X029442Y025608D01*
X029412Y025581D01*
X029379Y025557D01*
X029345Y025536D01*
X029308Y025518D01*
X029270Y025505D01*
X029231Y025495D01*
X029190Y025489D01*
X029150Y025487D01*
X029110Y025489D01*
X029069Y025495D01*
X029030Y025505D01*
X028992Y025518D01*
X028955Y025536D01*
X028921Y025557D01*
X028888Y025581D01*
X028858Y025608D01*
X028831Y025638D01*
X028807Y025671D01*
X028786Y025705D01*
X028768Y025742D01*
X028755Y025780D01*
X028745Y025819D01*
X028739Y025860D01*
X028737Y025900D01*
X039737Y028150D02*
X039739Y028190D01*
X039745Y028231D01*
X039755Y028270D01*
X039768Y028308D01*
X039786Y028345D01*
X039807Y028379D01*
X039831Y028412D01*
X039858Y028442D01*
X039888Y028469D01*
X039921Y028493D01*
X039955Y028514D01*
X039992Y028532D01*
X040030Y028545D01*
X040069Y028555D01*
X040110Y028561D01*
X040150Y028563D01*
X040190Y028561D01*
X040231Y028555D01*
X040270Y028545D01*
X040308Y028532D01*
X040345Y028514D01*
X040379Y028493D01*
X040412Y028469D01*
X040442Y028442D01*
X040469Y028412D01*
X040493Y028379D01*
X040514Y028345D01*
X040532Y028308D01*
X040545Y028270D01*
X040555Y028231D01*
X040561Y028190D01*
X040563Y028150D01*
X040561Y028110D01*
X040555Y028069D01*
X040545Y028030D01*
X040532Y027992D01*
X040514Y027955D01*
X040493Y027921D01*
X040469Y027888D01*
X040442Y027858D01*
X040412Y027831D01*
X040379Y027807D01*
X040345Y027786D01*
X040308Y027768D01*
X040270Y027755D01*
X040231Y027745D01*
X040190Y027739D01*
X040150Y027737D01*
X040110Y027739D01*
X040069Y027745D01*
X040030Y027755D01*
X039992Y027768D01*
X039955Y027786D01*
X039921Y027807D01*
X039888Y027831D01*
X039858Y027858D01*
X039831Y027888D01*
X039807Y027921D01*
X039786Y027955D01*
X039768Y027992D01*
X039755Y028030D01*
X039745Y028069D01*
X039739Y028110D01*
X039737Y028150D01*
X039737Y022650D02*
X039739Y022690D01*
X039745Y022731D01*
X039755Y022770D01*
X039768Y022808D01*
X039786Y022845D01*
X039807Y022879D01*
X039831Y022912D01*
X039858Y022942D01*
X039888Y022969D01*
X039921Y022993D01*
X039955Y023014D01*
X039992Y023032D01*
X040030Y023045D01*
X040069Y023055D01*
X040110Y023061D01*
X040150Y023063D01*
X040190Y023061D01*
X040231Y023055D01*
X040270Y023045D01*
X040308Y023032D01*
X040345Y023014D01*
X040379Y022993D01*
X040412Y022969D01*
X040442Y022942D01*
X040469Y022912D01*
X040493Y022879D01*
X040514Y022845D01*
X040532Y022808D01*
X040545Y022770D01*
X040555Y022731D01*
X040561Y022690D01*
X040563Y022650D01*
X040561Y022610D01*
X040555Y022569D01*
X040545Y022530D01*
X040532Y022492D01*
X040514Y022455D01*
X040493Y022421D01*
X040469Y022388D01*
X040442Y022358D01*
X040412Y022331D01*
X040379Y022307D01*
X040345Y022286D01*
X040308Y022268D01*
X040270Y022255D01*
X040231Y022245D01*
X040190Y022239D01*
X040150Y022237D01*
X040110Y022239D01*
X040069Y022245D01*
X040030Y022255D01*
X039992Y022268D01*
X039955Y022286D01*
X039921Y022307D01*
X039888Y022331D01*
X039858Y022358D01*
X039831Y022388D01*
X039807Y022421D01*
X039786Y022455D01*
X039768Y022492D01*
X039755Y022530D01*
X039745Y022569D01*
X039739Y022610D01*
X039737Y022650D01*
D11*
X039150Y024400D02*
X045150Y024400D01*
X045150Y021400D01*
X039150Y020900D01*
X039150Y024400D01*
X039150Y026400D02*
X045150Y026400D01*
X045150Y029900D01*
X039150Y029900D01*
X039150Y026400D01*
X022399Y029900D02*
X022201Y029276D01*
X022033Y028643D01*
X021894Y028004D01*
X021786Y027358D01*
X021709Y026708D01*
X021662Y026055D01*
X021647Y025400D01*
X021662Y024745D01*
X021709Y024092D01*
X021786Y023442D01*
X021894Y022796D01*
X022033Y022157D01*
X022201Y021524D01*
X022399Y020900D01*
X022400Y020900D02*
X035900Y020900D01*
X035900Y029900D02*
X022400Y029900D01*
X019150Y029900D02*
X019150Y026400D01*
X013150Y026400D01*
X013150Y029900D01*
X019150Y029900D01*
X035901Y029900D02*
X036099Y029276D01*
X036267Y028643D01*
X036406Y028004D01*
X036514Y027358D01*
X036591Y026708D01*
X036638Y026055D01*
X036653Y025400D01*
X036638Y024745D01*
X036591Y024092D01*
X036514Y023442D01*
X036406Y022796D01*
X036267Y022157D01*
X036099Y021524D01*
X035901Y020900D01*
X019150Y020900D02*
X013150Y021400D01*
X013150Y024400D01*
X019150Y024400D01*
X019150Y020900D01*
D12*
X016519Y022685D02*
X016519Y023015D01*
X016299Y023015D02*
X016519Y022685D01*
X016299Y022685D02*
X016299Y023015D01*
X016163Y023015D02*
X016053Y023015D01*
X016108Y023015D02*
X016108Y022685D01*
X016053Y022685D02*
X016163Y022685D01*
X015905Y022685D02*
X015905Y023015D01*
X015795Y022905D01*
X015685Y023015D01*
X015685Y022685D01*
X015655Y027935D02*
X015655Y028265D01*
X015803Y028210D02*
X015803Y027990D01*
X015858Y027935D01*
X015968Y027935D01*
X016024Y027990D01*
X016024Y028210D01*
X015968Y028265D01*
X015858Y028265D01*
X015803Y028210D01*
X015655Y028100D02*
X015435Y028100D01*
X015435Y027935D02*
X015435Y028265D01*
X016172Y028265D02*
X016172Y027990D01*
X016227Y027935D01*
X016337Y027935D01*
X016392Y027990D01*
X016392Y028265D01*
X016540Y028265D02*
X016705Y028265D01*
X016760Y028210D01*
X016760Y028100D01*
X016705Y028045D01*
X016540Y028045D01*
X016540Y027935D02*
X016540Y028265D01*
X016650Y028045D02*
X016760Y027935D01*
X022935Y024015D02*
X022935Y023685D01*
X023155Y023685D01*
X023303Y023685D02*
X023524Y023685D01*
X023672Y023685D02*
X023672Y024015D01*
X023892Y024015D01*
X024040Y024015D02*
X024260Y024015D01*
X024150Y024015D02*
X024150Y023685D01*
X023782Y023850D02*
X023672Y023850D01*
X023524Y024015D02*
X023303Y024015D01*
X023303Y023685D01*
X023303Y023850D02*
X023413Y023850D01*
X028185Y023905D02*
X028240Y023850D01*
X028350Y023850D01*
X028405Y023795D01*
X028405Y023740D01*
X028350Y023685D01*
X028240Y023685D01*
X028185Y023740D01*
X028185Y023905D02*
X028185Y023960D01*
X028240Y024015D01*
X028350Y024015D01*
X028405Y023960D01*
X028553Y024015D02*
X028774Y023685D01*
X028774Y024015D01*
X028922Y023960D02*
X028922Y023740D01*
X028977Y023685D01*
X029087Y023685D01*
X029142Y023740D01*
X029142Y023960D01*
X029087Y024015D01*
X028977Y024015D01*
X028922Y023960D01*
X029290Y023960D02*
X029290Y023740D01*
X029345Y023685D01*
X029455Y023685D01*
X029510Y023740D01*
X029510Y023960D01*
X029455Y024015D01*
X029345Y024015D01*
X029290Y023960D01*
X029658Y024015D02*
X029878Y024015D01*
X029878Y023960D01*
X029658Y023740D01*
X029658Y023685D01*
X029878Y023685D01*
X030027Y023685D02*
X030247Y023685D01*
X030137Y023850D02*
X030027Y023850D01*
X030027Y024015D02*
X030027Y023685D01*
X030027Y024015D02*
X030247Y024015D01*
X028553Y024015D02*
X028553Y023685D01*
X033935Y023685D02*
X033935Y024015D01*
X034100Y024015D01*
X034155Y023960D01*
X034155Y023850D01*
X034100Y023795D01*
X033935Y023795D01*
X034045Y023795D02*
X034155Y023685D01*
X034303Y023685D02*
X034413Y023685D01*
X034358Y023685D02*
X034358Y024015D01*
X034303Y024015D02*
X034413Y024015D01*
X034549Y023960D02*
X034549Y023740D01*
X034604Y023685D01*
X034714Y023685D01*
X034769Y023740D01*
X034769Y023850D01*
X034659Y023850D01*
X034769Y023960D02*
X034714Y024015D01*
X034604Y024015D01*
X034549Y023960D01*
X034917Y024015D02*
X034917Y023685D01*
X034917Y023850D02*
X035137Y023850D01*
X035137Y024015D02*
X035137Y023685D01*
X035396Y023685D02*
X035396Y024015D01*
X035506Y024015D02*
X035285Y024015D01*
X041485Y022705D02*
X041485Y022485D01*
X041485Y022650D02*
X041705Y022650D01*
X041705Y022705D02*
X041705Y022485D01*
X041853Y022485D02*
X042074Y022485D01*
X042222Y022485D02*
X042222Y022705D01*
X042332Y022815D01*
X042442Y022705D01*
X042442Y022485D01*
X042590Y022485D02*
X042590Y022815D01*
X042755Y022815D01*
X042810Y022760D01*
X042810Y022650D01*
X042755Y022595D01*
X042590Y022595D01*
X042700Y022595D02*
X042810Y022485D01*
X042958Y022485D02*
X042958Y022815D01*
X043068Y022705D01*
X043178Y022815D01*
X043178Y022485D01*
X043695Y022540D02*
X043750Y022485D01*
X043860Y022485D01*
X043915Y022540D01*
X043915Y022595D01*
X043860Y022650D01*
X043750Y022650D01*
X043695Y022705D01*
X043695Y022760D01*
X043750Y022815D01*
X043860Y022815D01*
X043915Y022760D01*
X044063Y022815D02*
X044063Y022485D01*
X044283Y022485D01*
X044173Y022650D02*
X044063Y022650D01*
X044063Y022815D02*
X044283Y022815D01*
X044432Y022815D02*
X044652Y022815D01*
X044542Y022815D02*
X044542Y022485D01*
X042442Y022650D02*
X042222Y022650D01*
X041853Y022815D02*
X041853Y022485D01*
X041705Y022705D02*
X041595Y022815D01*
X041485Y022705D01*
X041895Y028135D02*
X041895Y028465D01*
X041785Y028465D02*
X042005Y028465D01*
X042153Y028465D02*
X042263Y028465D01*
X042208Y028465D02*
X042208Y028135D01*
X042153Y028135D02*
X042263Y028135D01*
X042399Y028135D02*
X042399Y028465D01*
X042509Y028355D01*
X042619Y028465D01*
X042619Y028135D01*
X042767Y028135D02*
X042987Y028135D01*
X042877Y028300D02*
X042767Y028300D01*
X042767Y028465D02*
X042767Y028135D01*
X042767Y028465D02*
X042987Y028465D01*
X043504Y028410D02*
X043504Y028355D01*
X043559Y028300D01*
X043669Y028300D01*
X043724Y028245D01*
X043724Y028190D01*
X043669Y028135D01*
X043559Y028135D01*
X043504Y028190D01*
X043504Y028410D02*
X043559Y028465D01*
X043669Y028465D01*
X043724Y028410D01*
X043872Y028465D02*
X043872Y028135D01*
X044092Y028135D01*
X043982Y028300D02*
X043872Y028300D01*
X043872Y028465D02*
X044092Y028465D01*
X044240Y028465D02*
X044461Y028465D01*
X044351Y028465D02*
X044351Y028135D01*
M02*
