G75*
G70*
%OFA0B0*%
%FSLAX24Y24*%
%IPPOS*%
%LPD*%
%AMOC8*
5,1,8,0,0,1.08239X$1,22.5*
%
%ADD10C,0.0000*%
%ADD11C,0.3000*%
%ADD12C,0.0100*%
%ADD13C,0.0320*%
%ADD14C,0.0080*%
%ADD15C,0.0160*%
%ADD16C,0.0240*%
D10*
X010400Y020400D02*
X023900Y019400D01*
X034400Y019400D01*
X047900Y020400D01*
X047900Y036650D01*
X046650Y036650D01*
X046574Y036652D01*
X046498Y036658D01*
X046423Y036667D01*
X046348Y036681D01*
X046274Y036698D01*
X046201Y036719D01*
X046129Y036743D01*
X046058Y036772D01*
X045989Y036803D01*
X045922Y036838D01*
X045857Y036877D01*
X045793Y036919D01*
X045732Y036964D01*
X045673Y037012D01*
X045617Y037063D01*
X045563Y037117D01*
X045512Y037173D01*
X045464Y037232D01*
X045419Y037293D01*
X045377Y037357D01*
X045338Y037422D01*
X045303Y037489D01*
X045272Y037558D01*
X045243Y037629D01*
X045219Y037701D01*
X045198Y037774D01*
X045181Y037848D01*
X045167Y037923D01*
X045158Y037998D01*
X045152Y038074D01*
X045150Y038150D01*
X045152Y038226D01*
X045158Y038302D01*
X045167Y038377D01*
X045181Y038452D01*
X045198Y038526D01*
X045219Y038599D01*
X045243Y038671D01*
X045272Y038742D01*
X045303Y038811D01*
X045338Y038878D01*
X045377Y038943D01*
X045419Y039007D01*
X045464Y039068D01*
X045512Y039127D01*
X045563Y039183D01*
X045617Y039237D01*
X045673Y039288D01*
X045732Y039336D01*
X045793Y039381D01*
X045857Y039423D01*
X045922Y039462D01*
X045989Y039497D01*
X046058Y039528D01*
X046129Y039557D01*
X046201Y039581D01*
X046274Y039602D01*
X046348Y039619D01*
X046423Y039633D01*
X046498Y039642D01*
X046574Y039648D01*
X046650Y039650D01*
X047900Y039650D01*
X047900Y040900D01*
X034400Y041900D01*
X023900Y041900D01*
X010400Y040900D01*
X010400Y039650D01*
X011650Y039650D01*
X011726Y039648D01*
X011802Y039642D01*
X011877Y039633D01*
X011952Y039619D01*
X012026Y039602D01*
X012099Y039581D01*
X012171Y039557D01*
X012242Y039528D01*
X012311Y039497D01*
X012378Y039462D01*
X012443Y039423D01*
X012507Y039381D01*
X012568Y039336D01*
X012627Y039288D01*
X012683Y039237D01*
X012737Y039183D01*
X012788Y039127D01*
X012836Y039068D01*
X012881Y039007D01*
X012923Y038943D01*
X012962Y038878D01*
X012997Y038811D01*
X013028Y038742D01*
X013057Y038671D01*
X013081Y038599D01*
X013102Y038526D01*
X013119Y038452D01*
X013133Y038377D01*
X013142Y038302D01*
X013148Y038226D01*
X013150Y038150D01*
X013148Y038074D01*
X013142Y037998D01*
X013133Y037923D01*
X013119Y037848D01*
X013102Y037774D01*
X013081Y037701D01*
X013057Y037629D01*
X013028Y037558D01*
X012997Y037489D01*
X012962Y037422D01*
X012923Y037357D01*
X012881Y037293D01*
X012836Y037232D01*
X012788Y037173D01*
X012737Y037117D01*
X012683Y037063D01*
X012627Y037012D01*
X012568Y036964D01*
X012507Y036919D01*
X012443Y036877D01*
X012378Y036838D01*
X012311Y036803D01*
X012242Y036772D01*
X012171Y036743D01*
X012099Y036719D01*
X012026Y036698D01*
X011952Y036681D01*
X011877Y036667D01*
X011802Y036658D01*
X011726Y036652D01*
X011650Y036650D01*
X010400Y036650D01*
X010400Y020400D01*
X017900Y033150D02*
X025400Y033150D01*
X025400Y037525D01*
X017900Y037525D01*
X017900Y033150D01*
X028737Y025900D02*
X028739Y025940D01*
X028745Y025981D01*
X028755Y026020D01*
X028768Y026058D01*
X028786Y026095D01*
X028807Y026129D01*
X028831Y026162D01*
X028858Y026192D01*
X028888Y026219D01*
X028921Y026243D01*
X028955Y026264D01*
X028992Y026282D01*
X029030Y026295D01*
X029069Y026305D01*
X029110Y026311D01*
X029150Y026313D01*
X029190Y026311D01*
X029231Y026305D01*
X029270Y026295D01*
X029308Y026282D01*
X029345Y026264D01*
X029379Y026243D01*
X029412Y026219D01*
X029442Y026192D01*
X029469Y026162D01*
X029493Y026129D01*
X029514Y026095D01*
X029532Y026058D01*
X029545Y026020D01*
X029555Y025981D01*
X029561Y025940D01*
X029563Y025900D01*
X029561Y025860D01*
X029555Y025819D01*
X029545Y025780D01*
X029532Y025742D01*
X029514Y025705D01*
X029493Y025671D01*
X029469Y025638D01*
X029442Y025608D01*
X029412Y025581D01*
X029379Y025557D01*
X029345Y025536D01*
X029308Y025518D01*
X029270Y025505D01*
X029231Y025495D01*
X029190Y025489D01*
X029150Y025487D01*
X029110Y025489D01*
X029069Y025495D01*
X029030Y025505D01*
X028992Y025518D01*
X028955Y025536D01*
X028921Y025557D01*
X028888Y025581D01*
X028858Y025608D01*
X028831Y025638D01*
X028807Y025671D01*
X028786Y025705D01*
X028768Y025742D01*
X028755Y025780D01*
X028745Y025819D01*
X028739Y025860D01*
X028737Y025900D01*
X039737Y028150D02*
X039739Y028190D01*
X039745Y028231D01*
X039755Y028270D01*
X039768Y028308D01*
X039786Y028345D01*
X039807Y028379D01*
X039831Y028412D01*
X039858Y028442D01*
X039888Y028469D01*
X039921Y028493D01*
X039955Y028514D01*
X039992Y028532D01*
X040030Y028545D01*
X040069Y028555D01*
X040110Y028561D01*
X040150Y028563D01*
X040190Y028561D01*
X040231Y028555D01*
X040270Y028545D01*
X040308Y028532D01*
X040345Y028514D01*
X040379Y028493D01*
X040412Y028469D01*
X040442Y028442D01*
X040469Y028412D01*
X040493Y028379D01*
X040514Y028345D01*
X040532Y028308D01*
X040545Y028270D01*
X040555Y028231D01*
X040561Y028190D01*
X040563Y028150D01*
X040561Y028110D01*
X040555Y028069D01*
X040545Y028030D01*
X040532Y027992D01*
X040514Y027955D01*
X040493Y027921D01*
X040469Y027888D01*
X040442Y027858D01*
X040412Y027831D01*
X040379Y027807D01*
X040345Y027786D01*
X040308Y027768D01*
X040270Y027755D01*
X040231Y027745D01*
X040190Y027739D01*
X040150Y027737D01*
X040110Y027739D01*
X040069Y027745D01*
X040030Y027755D01*
X039992Y027768D01*
X039955Y027786D01*
X039921Y027807D01*
X039888Y027831D01*
X039858Y027858D01*
X039831Y027888D01*
X039807Y027921D01*
X039786Y027955D01*
X039768Y027992D01*
X039755Y028030D01*
X039745Y028069D01*
X039739Y028110D01*
X039737Y028150D01*
X039737Y022650D02*
X039739Y022690D01*
X039745Y022731D01*
X039755Y022770D01*
X039768Y022808D01*
X039786Y022845D01*
X039807Y022879D01*
X039831Y022912D01*
X039858Y022942D01*
X039888Y022969D01*
X039921Y022993D01*
X039955Y023014D01*
X039992Y023032D01*
X040030Y023045D01*
X040069Y023055D01*
X040110Y023061D01*
X040150Y023063D01*
X040190Y023061D01*
X040231Y023055D01*
X040270Y023045D01*
X040308Y023032D01*
X040345Y023014D01*
X040379Y022993D01*
X040412Y022969D01*
X040442Y022942D01*
X040469Y022912D01*
X040493Y022879D01*
X040514Y022845D01*
X040532Y022808D01*
X040545Y022770D01*
X040555Y022731D01*
X040561Y022690D01*
X040563Y022650D01*
X040561Y022610D01*
X040555Y022569D01*
X040545Y022530D01*
X040532Y022492D01*
X040514Y022455D01*
X040493Y022421D01*
X040469Y022388D01*
X040442Y022358D01*
X040412Y022331D01*
X040379Y022307D01*
X040345Y022286D01*
X040308Y022268D01*
X040270Y022255D01*
X040231Y022245D01*
X040190Y022239D01*
X040150Y022237D01*
X040110Y022239D01*
X040069Y022245D01*
X040030Y022255D01*
X039992Y022268D01*
X039955Y022286D01*
X039921Y022307D01*
X039888Y022331D01*
X039858Y022358D01*
X039831Y022388D01*
X039807Y022421D01*
X039786Y022455D01*
X039768Y022492D01*
X039755Y022530D01*
X039745Y022569D01*
X039739Y022610D01*
X039737Y022650D01*
D11*
X029150Y035650D03*
D12*
X030287Y034787D02*
X025610Y034787D01*
X025610Y034689D02*
X030189Y034689D01*
X030090Y034590D02*
X025610Y034590D01*
X025610Y034492D02*
X029992Y034492D01*
X029893Y034393D02*
X025610Y034393D01*
X025610Y034295D02*
X029795Y034295D01*
X029696Y034196D02*
X025610Y034196D01*
X025610Y034150D02*
X025610Y037612D01*
X025487Y037735D01*
X017813Y037735D01*
X017690Y037612D01*
X017690Y033650D01*
X010610Y033650D01*
X010610Y036440D01*
X011896Y036440D01*
X012368Y036579D01*
X012781Y036844D01*
X012781Y036844D01*
X013103Y037216D01*
X013308Y037663D01*
X013308Y037663D01*
X013378Y038150D01*
X013308Y038637D01*
X013103Y039084D01*
X012781Y039456D01*
X012368Y039721D01*
X011896Y039860D01*
X010610Y039860D01*
X010610Y040705D01*
X023908Y041690D01*
X034392Y041690D01*
X047690Y040705D01*
X047690Y039860D01*
X046404Y039860D01*
X045932Y039721D01*
X045519Y039456D01*
X045197Y039084D01*
X044992Y038637D01*
X044992Y038637D01*
X044922Y038150D01*
X044992Y037663D01*
X045197Y037216D01*
X045519Y036844D01*
X045932Y036579D01*
X046404Y036440D01*
X047690Y036440D01*
X047690Y033650D01*
X040650Y033650D01*
X040150Y034150D01*
X036900Y034150D01*
X036900Y037400D01*
X030650Y037400D01*
X030650Y035150D01*
X029650Y034150D01*
X025610Y034150D01*
X025610Y034886D02*
X030386Y034886D01*
X030484Y034984D02*
X025610Y034984D01*
X025610Y035083D02*
X030583Y035083D01*
X030650Y035181D02*
X025610Y035181D01*
X025610Y035280D02*
X030650Y035280D01*
X030650Y035378D02*
X025610Y035378D01*
X025610Y035477D02*
X030650Y035477D01*
X030650Y035575D02*
X025610Y035575D01*
X025610Y035674D02*
X030650Y035674D01*
X030650Y035772D02*
X025610Y035772D01*
X025610Y035871D02*
X030650Y035871D01*
X030650Y035969D02*
X025610Y035969D01*
X025610Y036068D02*
X030650Y036068D01*
X030650Y036166D02*
X025610Y036166D01*
X025610Y036265D02*
X030650Y036265D01*
X030650Y036363D02*
X025610Y036363D01*
X025610Y036462D02*
X030650Y036462D01*
X030650Y036560D02*
X025610Y036560D01*
X025610Y036659D02*
X030650Y036659D01*
X030650Y036757D02*
X025610Y036757D01*
X025610Y036856D02*
X026671Y036856D01*
X026690Y036836D02*
X026826Y036780D01*
X026974Y036780D01*
X027110Y036836D01*
X027214Y036940D01*
X027270Y037076D01*
X027270Y037224D01*
X027214Y037360D01*
X027190Y037383D01*
X027190Y037958D01*
X027146Y038064D01*
X026838Y038372D01*
X026928Y038462D01*
X026986Y038404D01*
X027092Y038360D01*
X027958Y038360D01*
X028064Y038404D01*
X028146Y038486D01*
X028190Y038592D01*
X028190Y039890D01*
X030110Y039890D01*
X030110Y038592D01*
X030154Y038486D01*
X030236Y038404D01*
X030342Y038360D01*
X031958Y038360D01*
X032064Y038404D01*
X032646Y038986D01*
X032690Y039092D01*
X032690Y039110D01*
X033917Y039110D01*
X033940Y039086D01*
X034076Y039030D01*
X034224Y039030D01*
X034360Y039086D01*
X034383Y039110D01*
X037780Y039110D01*
X038360Y038530D01*
X038360Y037383D01*
X038336Y037360D01*
X038280Y037224D01*
X038280Y037076D01*
X038336Y036940D01*
X038440Y036836D01*
X038576Y036780D01*
X038724Y036780D01*
X038860Y036836D01*
X038883Y036860D01*
X039280Y036860D01*
X039610Y036530D01*
X039610Y035633D01*
X039586Y035610D01*
X039530Y035474D01*
X039530Y035326D01*
X039586Y035190D01*
X039690Y035086D01*
X039826Y035030D01*
X039974Y035030D01*
X040110Y035086D01*
X040214Y035190D01*
X040270Y035326D01*
X040270Y035474D01*
X040214Y035610D01*
X040190Y035633D01*
X040190Y036708D01*
X040146Y036814D01*
X039646Y037314D01*
X039564Y037396D01*
X039458Y037440D01*
X038940Y037440D01*
X038940Y038708D01*
X038896Y038814D01*
X038320Y039390D01*
X040042Y039390D01*
X041390Y038042D01*
X041390Y036508D01*
X040680Y035797D01*
X040640Y035702D01*
X040640Y034913D01*
X040586Y034860D01*
X040530Y034724D01*
X040530Y034576D01*
X040586Y034440D01*
X040690Y034336D01*
X040826Y034280D01*
X040974Y034280D01*
X041110Y034336D01*
X041214Y034440D01*
X041262Y034557D01*
X041326Y034530D01*
X041474Y034530D01*
X041610Y034586D01*
X041714Y034690D01*
X041762Y034807D01*
X041826Y034780D01*
X041974Y034780D01*
X042110Y034836D01*
X042214Y034940D01*
X042262Y035057D01*
X042326Y035030D01*
X042474Y035030D01*
X042610Y035086D01*
X042714Y035190D01*
X042770Y035326D01*
X042770Y035474D01*
X042714Y035610D01*
X042660Y035663D01*
X042660Y038952D01*
X042620Y039047D01*
X041120Y040547D01*
X041047Y040620D01*
X040952Y040660D01*
X035683Y040660D01*
X035714Y040690D01*
X035770Y040826D01*
X035770Y040974D01*
X035714Y041110D01*
X035610Y041214D01*
X035474Y041270D01*
X035398Y041270D01*
X035370Y041297D01*
X035297Y041370D01*
X035202Y041410D01*
X023913Y041410D01*
X023860Y041464D01*
X023724Y041520D01*
X023576Y041520D01*
X023440Y041464D01*
X023336Y041360D01*
X023280Y041224D01*
X023280Y041076D01*
X023336Y040940D01*
X023367Y040910D01*
X023258Y040910D01*
X023020Y041148D01*
X023020Y041224D01*
X022964Y041360D01*
X022860Y041464D01*
X022724Y041520D01*
X022576Y041520D01*
X022440Y041464D01*
X022336Y041360D01*
X022280Y041224D01*
X022280Y041076D01*
X022336Y040940D01*
X022440Y040836D01*
X022576Y040780D01*
X022652Y040780D01*
X022772Y040660D01*
X020848Y040660D01*
X020753Y040620D01*
X019652Y039520D01*
X019576Y039520D01*
X019440Y039464D01*
X019336Y039360D01*
X019280Y039224D01*
X019280Y039076D01*
X019336Y038940D01*
X019440Y038836D01*
X019576Y038780D01*
X019724Y038780D01*
X019860Y038836D01*
X019964Y038940D01*
X020020Y039076D01*
X020020Y039152D01*
X021008Y040140D01*
X021272Y040140D01*
X020652Y039520D01*
X020576Y039520D01*
X020440Y039464D01*
X020336Y039360D01*
X020280Y039224D01*
X020280Y039076D01*
X020336Y038940D01*
X020440Y038836D01*
X020576Y038780D01*
X020724Y038780D01*
X020860Y038836D01*
X020964Y038940D01*
X021020Y039076D01*
X021020Y039152D01*
X021758Y039890D01*
X022022Y039890D01*
X021652Y039520D01*
X021576Y039520D01*
X021440Y039464D01*
X021336Y039360D01*
X021280Y039224D01*
X021280Y039076D01*
X021336Y038940D01*
X021440Y038836D01*
X021576Y038780D01*
X021724Y038780D01*
X021860Y038836D01*
X021964Y038940D01*
X022020Y039076D01*
X022020Y039152D01*
X022508Y039640D01*
X024702Y039640D01*
X024797Y039680D01*
X024870Y039753D01*
X025008Y039890D01*
X026360Y039890D01*
X026360Y039092D01*
X026404Y038986D01*
X026462Y038928D01*
X026263Y038730D01*
X019037Y038730D01*
X018680Y039087D01*
X018587Y039180D01*
X018466Y039230D01*
X017770Y039230D01*
X017770Y039724D01*
X017714Y039860D01*
X017610Y039964D01*
X017474Y040020D01*
X016076Y040020D01*
X015940Y039964D01*
X015836Y039860D01*
X015780Y039724D01*
X015780Y037826D01*
X015836Y037690D01*
X015940Y037586D01*
X016076Y037530D01*
X016974Y037530D01*
X017110Y037586D01*
X017610Y038086D01*
X017714Y038190D01*
X017770Y038326D01*
X017770Y038570D01*
X018263Y038570D01*
X018620Y038213D01*
X018713Y038120D01*
X018834Y038070D01*
X026320Y038070D01*
X026610Y037780D01*
X026610Y037383D01*
X026586Y037360D01*
X026530Y037224D01*
X026530Y037076D01*
X026586Y036940D01*
X026690Y036836D01*
X026581Y036954D02*
X025610Y036954D01*
X025610Y037053D02*
X026540Y037053D01*
X026530Y037151D02*
X025610Y037151D01*
X025610Y037250D02*
X026541Y037250D01*
X026582Y037348D02*
X025610Y037348D01*
X025610Y037447D02*
X026610Y037447D01*
X026610Y037545D02*
X025610Y037545D01*
X025578Y037644D02*
X026610Y037644D01*
X026610Y037742D02*
X017265Y037742D01*
X017167Y037644D02*
X017722Y037644D01*
X017690Y037545D02*
X017010Y037545D01*
X017364Y037841D02*
X026549Y037841D01*
X026451Y037939D02*
X017462Y037939D01*
X017561Y038038D02*
X026352Y038038D01*
X026877Y038333D02*
X035198Y038333D01*
X035190Y038336D02*
X035326Y038280D01*
X035474Y038280D01*
X035610Y038336D01*
X035663Y038390D01*
X037292Y038390D01*
X037640Y038042D01*
X037640Y037163D01*
X037586Y037110D01*
X037530Y036974D01*
X037530Y036826D01*
X037586Y036690D01*
X037690Y036586D01*
X037826Y036530D01*
X037974Y036530D01*
X038110Y036586D01*
X038214Y036690D01*
X038270Y036826D01*
X038270Y036974D01*
X038214Y037110D01*
X038160Y037163D01*
X038160Y038202D01*
X038120Y038297D01*
X037620Y038797D01*
X037547Y038870D01*
X037452Y038910D01*
X035663Y038910D01*
X035610Y038964D01*
X035474Y039020D01*
X035326Y039020D01*
X035190Y038964D01*
X035086Y038860D01*
X035030Y038724D01*
X035030Y038576D01*
X035086Y038440D01*
X035190Y038336D01*
X035095Y038432D02*
X032092Y038432D01*
X032190Y038530D02*
X035049Y038530D01*
X035030Y038629D02*
X032289Y038629D01*
X032387Y038727D02*
X035031Y038727D01*
X035072Y038826D02*
X032486Y038826D01*
X032584Y038924D02*
X035151Y038924D01*
X035400Y038650D02*
X037400Y038650D01*
X037900Y038150D01*
X037900Y036900D01*
X038241Y036757D02*
X039383Y036757D01*
X039481Y036659D02*
X038182Y036659D01*
X038046Y036560D02*
X039580Y036560D01*
X039610Y036462D02*
X036900Y036462D01*
X036900Y036560D02*
X037754Y036560D01*
X037618Y036659D02*
X036900Y036659D01*
X036900Y036757D02*
X037559Y036757D01*
X037530Y036856D02*
X036900Y036856D01*
X036900Y036954D02*
X037530Y036954D01*
X037563Y037053D02*
X036900Y037053D01*
X036900Y037151D02*
X037628Y037151D01*
X037640Y037250D02*
X036900Y037250D01*
X036900Y037348D02*
X037640Y037348D01*
X037640Y037447D02*
X027190Y037447D01*
X027190Y037545D02*
X037640Y037545D01*
X037640Y037644D02*
X027190Y037644D01*
X027190Y037742D02*
X037640Y037742D01*
X037640Y037841D02*
X027190Y037841D01*
X027190Y037939D02*
X037640Y037939D01*
X037640Y038038D02*
X027157Y038038D01*
X027074Y038136D02*
X037546Y038136D01*
X037448Y038235D02*
X026976Y038235D01*
X026958Y038432D02*
X026898Y038432D01*
X026457Y038924D02*
X021947Y038924D01*
X021998Y039023D02*
X026389Y039023D01*
X026360Y039121D02*
X022020Y039121D01*
X022087Y039220D02*
X026360Y039220D01*
X026360Y039318D02*
X022186Y039318D01*
X022284Y039417D02*
X026360Y039417D01*
X026360Y039515D02*
X022383Y039515D01*
X022481Y039614D02*
X026360Y039614D01*
X026360Y039712D02*
X024830Y039712D01*
X024928Y039811D02*
X026360Y039811D01*
X026359Y038826D02*
X021833Y038826D01*
X021467Y038826D02*
X020833Y038826D01*
X020947Y038924D02*
X021353Y038924D01*
X021302Y039023D02*
X020998Y039023D01*
X021020Y039121D02*
X021280Y039121D01*
X021280Y039220D02*
X021087Y039220D01*
X021186Y039318D02*
X021319Y039318D01*
X021284Y039417D02*
X021393Y039417D01*
X021383Y039515D02*
X021564Y039515D01*
X021481Y039614D02*
X021746Y039614D01*
X021844Y039712D02*
X021580Y039712D01*
X021678Y039811D02*
X021943Y039811D01*
X021650Y040150D02*
X020650Y039150D01*
X020393Y039417D02*
X020284Y039417D01*
X020319Y039318D02*
X020186Y039318D01*
X020280Y039220D02*
X020087Y039220D01*
X020020Y039121D02*
X020280Y039121D01*
X020302Y039023D02*
X019998Y039023D01*
X019947Y038924D02*
X020353Y038924D01*
X020467Y038826D02*
X019833Y038826D01*
X019467Y038826D02*
X018941Y038826D01*
X018843Y038924D02*
X019353Y038924D01*
X019302Y039023D02*
X018744Y039023D01*
X018646Y039121D02*
X019280Y039121D01*
X019280Y039220D02*
X018491Y039220D01*
X018303Y038530D02*
X017770Y038530D01*
X017770Y038432D02*
X018402Y038432D01*
X018500Y038333D02*
X017770Y038333D01*
X017732Y038235D02*
X018599Y038235D01*
X018620Y038213D02*
X018620Y038213D01*
X018697Y038136D02*
X017659Y038136D01*
X017690Y037447D02*
X013209Y037447D01*
X013254Y037545D02*
X016040Y037545D01*
X015883Y037644D02*
X013299Y037644D01*
X013319Y037742D02*
X015815Y037742D01*
X015780Y037841D02*
X013333Y037841D01*
X013347Y037939D02*
X015780Y037939D01*
X015780Y038038D02*
X013361Y038038D01*
X013376Y038136D02*
X015780Y038136D01*
X015780Y038235D02*
X013365Y038235D01*
X013378Y038150D02*
X013378Y038150D01*
X013351Y038333D02*
X015780Y038333D01*
X015780Y038432D02*
X013337Y038432D01*
X013323Y038530D02*
X015780Y038530D01*
X015780Y038629D02*
X013309Y038629D01*
X013308Y038637D02*
X013308Y038637D01*
X013266Y038727D02*
X015780Y038727D01*
X015780Y038826D02*
X013221Y038826D01*
X013176Y038924D02*
X015780Y038924D01*
X015780Y039023D02*
X013131Y039023D01*
X013103Y039084D02*
X013103Y039084D01*
X013071Y039121D02*
X015780Y039121D01*
X015780Y039220D02*
X012986Y039220D01*
X012901Y039318D02*
X015780Y039318D01*
X015780Y039417D02*
X012815Y039417D01*
X012781Y039456D02*
X012781Y039456D01*
X012781Y039456D01*
X012689Y039515D02*
X015780Y039515D01*
X015780Y039614D02*
X012536Y039614D01*
X012382Y039712D02*
X015780Y039712D01*
X015816Y039811D02*
X012064Y039811D01*
X012368Y039721D02*
X012368Y039721D01*
X010610Y039909D02*
X015886Y039909D01*
X016046Y040008D02*
X010610Y040008D01*
X010610Y040106D02*
X020238Y040106D01*
X020140Y040008D02*
X017504Y040008D01*
X017664Y039909D02*
X020041Y039909D01*
X019943Y039811D02*
X017734Y039811D01*
X017770Y039712D02*
X019844Y039712D01*
X019746Y039614D02*
X017770Y039614D01*
X017770Y039515D02*
X019564Y039515D01*
X019393Y039417D02*
X017770Y039417D01*
X017770Y039318D02*
X019319Y039318D01*
X019650Y039150D02*
X020900Y040400D01*
X024150Y040400D01*
X024400Y040650D01*
X034400Y040650D01*
X034900Y040150D01*
X040650Y040150D01*
X042150Y038650D01*
X042150Y035900D01*
X041900Y035650D01*
X041900Y035150D01*
X042159Y034886D02*
X044890Y034886D01*
X044890Y034984D02*
X042232Y034984D01*
X041991Y034787D02*
X044890Y034787D01*
X044890Y034689D02*
X041712Y034689D01*
X041754Y034787D02*
X041809Y034787D01*
X041613Y034590D02*
X044890Y034590D01*
X044890Y034492D02*
X041235Y034492D01*
X041166Y034393D02*
X044870Y034393D01*
X044890Y034413D02*
X044836Y034360D01*
X044780Y034224D01*
X044780Y034076D01*
X044836Y033940D01*
X044940Y033836D01*
X045076Y033780D01*
X045224Y033780D01*
X045360Y033836D01*
X045464Y033940D01*
X045512Y034057D01*
X045576Y034030D01*
X045724Y034030D01*
X045788Y034057D01*
X045836Y033940D01*
X045940Y033836D01*
X046076Y033780D01*
X046224Y033780D01*
X046360Y033836D01*
X046464Y033940D01*
X046520Y034076D01*
X046520Y034224D01*
X046464Y034360D01*
X046410Y034413D01*
X046410Y035702D01*
X046370Y035797D01*
X043660Y038508D01*
X043660Y038637D01*
X043714Y038690D01*
X043770Y038826D01*
X043770Y038974D01*
X043714Y039110D01*
X043610Y039214D01*
X043474Y039270D01*
X043326Y039270D01*
X043190Y039214D01*
X043086Y039110D01*
X043030Y038974D01*
X043030Y038826D01*
X043086Y038690D01*
X043140Y038637D01*
X043140Y038348D01*
X043180Y038253D01*
X043253Y038180D01*
X044460Y036972D01*
X044440Y036964D01*
X044336Y036860D01*
X044280Y036724D01*
X044280Y036576D01*
X044336Y036440D01*
X044440Y036336D01*
X044576Y036280D01*
X044652Y036280D01*
X044912Y036020D01*
X044826Y036020D01*
X044690Y035964D01*
X044586Y035860D01*
X044530Y035724D01*
X044530Y035576D01*
X044586Y035440D01*
X044690Y035336D01*
X044826Y035280D01*
X044890Y035280D01*
X044890Y034413D01*
X044809Y034295D02*
X041009Y034295D01*
X040791Y034295D02*
X036900Y034295D01*
X036900Y034393D02*
X040634Y034393D01*
X040565Y034492D02*
X036900Y034492D01*
X036900Y034590D02*
X040530Y034590D01*
X040530Y034689D02*
X036900Y034689D01*
X036900Y034787D02*
X040556Y034787D01*
X040612Y034886D02*
X036900Y034886D01*
X036900Y034984D02*
X040640Y034984D01*
X040640Y035083D02*
X040100Y035083D01*
X040204Y035181D02*
X040640Y035181D01*
X040640Y035280D02*
X040251Y035280D01*
X040270Y035378D02*
X040640Y035378D01*
X040640Y035477D02*
X040269Y035477D01*
X040228Y035575D02*
X040640Y035575D01*
X040640Y035674D02*
X040190Y035674D01*
X040190Y035772D02*
X040669Y035772D01*
X040753Y035871D02*
X040190Y035871D01*
X040190Y035969D02*
X040851Y035969D01*
X040950Y036068D02*
X040190Y036068D01*
X040190Y036166D02*
X041048Y036166D01*
X041147Y036265D02*
X040190Y036265D01*
X040190Y036363D02*
X041245Y036363D01*
X041344Y036462D02*
X040190Y036462D01*
X040190Y036560D02*
X041390Y036560D01*
X041390Y036659D02*
X040190Y036659D01*
X040170Y036757D02*
X041390Y036757D01*
X041390Y036856D02*
X040105Y036856D01*
X040006Y036954D02*
X041390Y036954D01*
X041390Y037053D02*
X039908Y037053D01*
X039809Y037151D02*
X041390Y037151D01*
X041390Y037250D02*
X039711Y037250D01*
X039612Y037348D02*
X041390Y037348D01*
X041390Y037447D02*
X038940Y037447D01*
X038940Y037545D02*
X041390Y037545D01*
X041390Y037644D02*
X038940Y037644D01*
X038940Y037742D02*
X041390Y037742D01*
X041390Y037841D02*
X038940Y037841D01*
X038940Y037939D02*
X041390Y037939D01*
X041390Y038038D02*
X038940Y038038D01*
X038940Y038136D02*
X041296Y038136D01*
X041198Y038235D02*
X038940Y038235D01*
X038940Y038333D02*
X041099Y038333D01*
X041001Y038432D02*
X038940Y038432D01*
X038940Y038530D02*
X040902Y038530D01*
X040804Y038629D02*
X038940Y038629D01*
X038932Y038727D02*
X040705Y038727D01*
X040607Y038826D02*
X038885Y038826D01*
X038786Y038924D02*
X040508Y038924D01*
X040410Y039023D02*
X038688Y039023D01*
X038589Y039121D02*
X040311Y039121D01*
X040213Y039220D02*
X038491Y039220D01*
X038392Y039318D02*
X040114Y039318D01*
X040150Y039650D02*
X034400Y039650D01*
X033900Y040150D01*
X024900Y040150D01*
X024650Y039900D01*
X022400Y039900D01*
X021650Y039150D01*
X020844Y039712D02*
X020580Y039712D01*
X020678Y039811D02*
X020943Y039811D01*
X021041Y039909D02*
X020777Y039909D01*
X020875Y040008D02*
X021140Y040008D01*
X021238Y040106D02*
X020974Y040106D01*
X020632Y040500D02*
X010610Y040500D01*
X010610Y040402D02*
X020534Y040402D01*
X020435Y040303D02*
X010610Y040303D01*
X010610Y040205D02*
X020337Y040205D01*
X020731Y040599D02*
X010610Y040599D01*
X010610Y040697D02*
X022735Y040697D01*
X022539Y040796D02*
X011832Y040796D01*
X013162Y040894D02*
X022383Y040894D01*
X022315Y040993D02*
X014492Y040993D01*
X015822Y041091D02*
X022280Y041091D01*
X022280Y041190D02*
X017151Y041190D01*
X018481Y041288D02*
X022307Y041288D01*
X022363Y041387D02*
X019811Y041387D01*
X021141Y041485D02*
X022492Y041485D01*
X022470Y041584D02*
X035830Y041584D01*
X035634Y041190D02*
X041149Y041190D01*
X041069Y040599D02*
X047690Y040599D01*
X047690Y040697D02*
X035716Y040697D01*
X035757Y040796D02*
X046468Y040796D01*
X046236Y039811D02*
X041857Y039811D01*
X041759Y039909D02*
X047690Y039909D01*
X047690Y040008D02*
X041660Y040008D01*
X041562Y040106D02*
X047690Y040106D01*
X047690Y040205D02*
X041463Y040205D01*
X041365Y040303D02*
X047690Y040303D01*
X047690Y040402D02*
X041266Y040402D01*
X041168Y040500D02*
X047690Y040500D01*
X045932Y039721D02*
X045932Y039721D01*
X045918Y039712D02*
X041956Y039712D01*
X042054Y039614D02*
X045764Y039614D01*
X045611Y039515D02*
X042153Y039515D01*
X042251Y039417D02*
X045485Y039417D01*
X045519Y039456D02*
X045519Y039456D01*
X045399Y039318D02*
X042350Y039318D01*
X042448Y039220D02*
X043205Y039220D01*
X043098Y039121D02*
X042547Y039121D01*
X042631Y039023D02*
X043050Y039023D01*
X043030Y038924D02*
X042660Y038924D01*
X042660Y038826D02*
X043030Y038826D01*
X043071Y038727D02*
X042660Y038727D01*
X042660Y038629D02*
X043140Y038629D01*
X043140Y038530D02*
X042660Y038530D01*
X042660Y038432D02*
X043140Y038432D01*
X043146Y038333D02*
X042660Y038333D01*
X042660Y038235D02*
X043198Y038235D01*
X043296Y038136D02*
X042660Y038136D01*
X042660Y038038D02*
X043395Y038038D01*
X043493Y037939D02*
X042660Y037939D01*
X042660Y037841D02*
X043592Y037841D01*
X043690Y037742D02*
X042660Y037742D01*
X042660Y037644D02*
X043789Y037644D01*
X043887Y037545D02*
X042660Y037545D01*
X042660Y037447D02*
X043986Y037447D01*
X044084Y037348D02*
X042660Y037348D01*
X042660Y037250D02*
X044183Y037250D01*
X044281Y037151D02*
X042660Y037151D01*
X042660Y037053D02*
X044380Y037053D01*
X044431Y036954D02*
X042660Y036954D01*
X042660Y036856D02*
X044335Y036856D01*
X044294Y036757D02*
X042660Y036757D01*
X042660Y036659D02*
X044280Y036659D01*
X044287Y036560D02*
X042660Y036560D01*
X042660Y036462D02*
X044328Y036462D01*
X044414Y036363D02*
X042660Y036363D01*
X042660Y036265D02*
X044668Y036265D01*
X044766Y036166D02*
X042660Y036166D01*
X042660Y036068D02*
X044865Y036068D01*
X044703Y035969D02*
X042660Y035969D01*
X042660Y035871D02*
X044597Y035871D01*
X044550Y035772D02*
X042660Y035772D01*
X042660Y035674D02*
X044530Y035674D01*
X044531Y035575D02*
X042728Y035575D01*
X042769Y035477D02*
X044571Y035477D01*
X044649Y035378D02*
X042770Y035378D01*
X042751Y035280D02*
X044890Y035280D01*
X044890Y035181D02*
X042704Y035181D01*
X042600Y035083D02*
X044890Y035083D01*
X045150Y035400D02*
X044900Y035650D01*
X045150Y035400D02*
X045150Y034150D01*
X045488Y033999D02*
X045812Y033999D01*
X045876Y033901D02*
X045424Y033901D01*
X045277Y033802D02*
X046023Y033802D01*
X046277Y033802D02*
X047690Y033802D01*
X047690Y033704D02*
X040596Y033704D01*
X040498Y033802D02*
X045023Y033802D01*
X044876Y033901D02*
X040399Y033901D01*
X040301Y033999D02*
X044812Y033999D01*
X044780Y034098D02*
X040202Y034098D01*
X040900Y034650D02*
X040900Y035650D01*
X041650Y036400D01*
X041650Y038150D01*
X040150Y039650D01*
X040400Y039900D02*
X034650Y039900D01*
X034150Y040400D01*
X024650Y040400D01*
X024400Y040150D01*
X021650Y040150D01*
X020746Y039614D02*
X020481Y039614D01*
X020564Y039515D02*
X020383Y039515D01*
X022650Y041150D02*
X023150Y040650D01*
X023900Y040650D01*
X024150Y040900D01*
X034650Y040900D01*
X034900Y040650D01*
X035150Y040400D01*
X040900Y040400D01*
X042400Y038900D01*
X042400Y035400D01*
X041900Y036150D02*
X041900Y038400D01*
X040400Y039900D01*
X039819Y041288D02*
X035380Y041288D01*
X035258Y041387D02*
X038489Y041387D01*
X037159Y041485D02*
X023808Y041485D01*
X023800Y041682D02*
X034500Y041682D01*
X035150Y041150D02*
X023650Y041150D01*
X023307Y041288D02*
X022993Y041288D01*
X023020Y041190D02*
X023280Y041190D01*
X023280Y041091D02*
X023077Y041091D01*
X023175Y040993D02*
X023315Y040993D01*
X023363Y041387D02*
X022937Y041387D01*
X022808Y041485D02*
X023492Y041485D01*
X028190Y039811D02*
X030110Y039811D01*
X030110Y039712D02*
X028190Y039712D01*
X028190Y039614D02*
X030110Y039614D01*
X030110Y039515D02*
X028190Y039515D01*
X028190Y039417D02*
X030110Y039417D01*
X030110Y039318D02*
X028190Y039318D01*
X028190Y039220D02*
X030110Y039220D01*
X030110Y039121D02*
X028190Y039121D01*
X028190Y039023D02*
X030110Y039023D01*
X030110Y038924D02*
X028190Y038924D01*
X028190Y038826D02*
X030110Y038826D01*
X030110Y038727D02*
X028190Y038727D01*
X028190Y038629D02*
X030110Y038629D01*
X030136Y038530D02*
X028164Y038530D01*
X028092Y038432D02*
X030208Y038432D01*
X030650Y037348D02*
X027218Y037348D01*
X027259Y037250D02*
X030650Y037250D01*
X030650Y037151D02*
X027270Y037151D01*
X027260Y037053D02*
X030650Y037053D01*
X030650Y036954D02*
X027219Y036954D01*
X027129Y036856D02*
X030650Y036856D01*
X032900Y036150D02*
X029900Y033150D01*
X025900Y033150D01*
X025150Y032400D01*
X011650Y032400D01*
X010900Y031650D01*
X010900Y025150D01*
X011650Y024400D01*
X012650Y024400D01*
X012400Y025650D02*
X012400Y030650D01*
X019900Y030650D01*
X019900Y025650D01*
X012400Y025650D01*
X012400Y025725D02*
X019900Y025725D01*
X019900Y025823D02*
X012400Y025823D01*
X012400Y025922D02*
X019900Y025922D01*
X019900Y026020D02*
X012400Y026020D01*
X012400Y026119D02*
X019900Y026119D01*
X019900Y026217D02*
X012400Y026217D01*
X012400Y026316D02*
X019900Y026316D01*
X019900Y026414D02*
X012400Y026414D01*
X012400Y026513D02*
X019900Y026513D01*
X019900Y026611D02*
X012400Y026611D01*
X012400Y026710D02*
X019900Y026710D01*
X019900Y026808D02*
X012400Y026808D01*
X012400Y026907D02*
X019900Y026907D01*
X019900Y027005D02*
X012400Y027005D01*
X012400Y027104D02*
X019900Y027104D01*
X019900Y027202D02*
X012400Y027202D01*
X012400Y027301D02*
X019900Y027301D01*
X019900Y027399D02*
X012400Y027399D01*
X012400Y027498D02*
X019900Y027498D01*
X019900Y027596D02*
X012400Y027596D01*
X012400Y027695D02*
X019900Y027695D01*
X019900Y027793D02*
X012400Y027793D01*
X012400Y027892D02*
X019900Y027892D01*
X019900Y027990D02*
X012400Y027990D01*
X012400Y028089D02*
X019900Y028089D01*
X019900Y028187D02*
X012400Y028187D01*
X012400Y028286D02*
X019900Y028286D01*
X019900Y028384D02*
X012400Y028384D01*
X012400Y028483D02*
X019900Y028483D01*
X019900Y028581D02*
X012400Y028581D01*
X012400Y028680D02*
X019900Y028680D01*
X019900Y028778D02*
X012400Y028778D01*
X012400Y028877D02*
X019900Y028877D01*
X019900Y028975D02*
X012400Y028975D01*
X012400Y029074D02*
X019900Y029074D01*
X019900Y029172D02*
X012400Y029172D01*
X012400Y029271D02*
X019900Y029271D01*
X019900Y029369D02*
X012400Y029369D01*
X012400Y029468D02*
X019900Y029468D01*
X019900Y029566D02*
X012400Y029566D01*
X012400Y029665D02*
X019900Y029665D01*
X019900Y029763D02*
X012400Y029763D01*
X012400Y029862D02*
X019900Y029862D01*
X019900Y029960D02*
X012400Y029960D01*
X012400Y030059D02*
X019900Y030059D01*
X019900Y030157D02*
X012400Y030157D01*
X012400Y030256D02*
X019900Y030256D01*
X019900Y030354D02*
X012400Y030354D01*
X012400Y030453D02*
X019900Y030453D01*
X019900Y030551D02*
X012400Y030551D01*
X010610Y033704D02*
X017690Y033704D01*
X017690Y033802D02*
X010610Y033802D01*
X010610Y033901D02*
X017690Y033901D01*
X017690Y033999D02*
X010610Y033999D01*
X010610Y034098D02*
X017690Y034098D01*
X017690Y034196D02*
X010610Y034196D01*
X010610Y034295D02*
X017690Y034295D01*
X017690Y034393D02*
X010610Y034393D01*
X010610Y034492D02*
X017690Y034492D01*
X017690Y034590D02*
X010610Y034590D01*
X010610Y034689D02*
X017690Y034689D01*
X017690Y034787D02*
X010610Y034787D01*
X010610Y034886D02*
X017690Y034886D01*
X017690Y034984D02*
X010610Y034984D01*
X010610Y035083D02*
X017690Y035083D01*
X017690Y035181D02*
X010610Y035181D01*
X010610Y035280D02*
X017690Y035280D01*
X017690Y035378D02*
X010610Y035378D01*
X010610Y035477D02*
X017690Y035477D01*
X017690Y035575D02*
X010610Y035575D01*
X010610Y035674D02*
X017690Y035674D01*
X017690Y035772D02*
X010610Y035772D01*
X010610Y035871D02*
X017690Y035871D01*
X017690Y035969D02*
X010610Y035969D01*
X010610Y036068D02*
X017690Y036068D01*
X017690Y036166D02*
X010610Y036166D01*
X010610Y036265D02*
X017690Y036265D01*
X017690Y036363D02*
X010610Y036363D01*
X011969Y036462D02*
X017690Y036462D01*
X017690Y036560D02*
X012305Y036560D01*
X012368Y036579D02*
X012368Y036579D01*
X012492Y036659D02*
X017690Y036659D01*
X017690Y036757D02*
X012645Y036757D01*
X012791Y036856D02*
X017690Y036856D01*
X017690Y036954D02*
X012876Y036954D01*
X012962Y037053D02*
X017690Y037053D01*
X017690Y037151D02*
X013047Y037151D01*
X013103Y037216D02*
X013103Y037216D01*
X013119Y037250D02*
X017690Y037250D01*
X017690Y037348D02*
X013164Y037348D01*
X019150Y030900D02*
X019900Y031650D01*
X025650Y031650D01*
X026400Y032400D01*
X030400Y032400D01*
X032650Y034650D01*
X032650Y033150D02*
X032400Y033150D01*
X030900Y031650D01*
X026900Y031650D01*
X026150Y030900D01*
X026150Y030150D01*
X026150Y030157D02*
X021476Y030157D01*
X021441Y030059D02*
X026150Y030059D01*
X026150Y029960D02*
X021406Y029960D01*
X021372Y029862D02*
X026150Y029862D01*
X026150Y029763D02*
X021337Y029763D01*
X021302Y029665D02*
X026150Y029665D01*
X026150Y029566D02*
X021273Y029566D01*
X021292Y029636D02*
X021650Y030650D01*
X026150Y030650D01*
X026150Y020150D01*
X021650Y020150D01*
X021292Y021164D01*
X021011Y022202D01*
X020810Y023258D01*
X020688Y024326D01*
X020648Y025400D01*
X020688Y026474D01*
X020810Y027542D01*
X021011Y028598D01*
X021292Y029636D01*
X021246Y029468D02*
X026150Y029468D01*
X026150Y029369D02*
X021220Y029369D01*
X021193Y029271D02*
X026150Y029271D01*
X026150Y029172D02*
X021167Y029172D01*
X021140Y029074D02*
X026150Y029074D01*
X026150Y028975D02*
X021113Y028975D01*
X021087Y028877D02*
X026150Y028877D01*
X026150Y028778D02*
X021060Y028778D01*
X021033Y028680D02*
X026150Y028680D01*
X026150Y028581D02*
X021008Y028581D01*
X020989Y028483D02*
X026150Y028483D01*
X026150Y028384D02*
X020970Y028384D01*
X020952Y028286D02*
X026150Y028286D01*
X026150Y028187D02*
X020933Y028187D01*
X020914Y028089D02*
X026150Y028089D01*
X026150Y027990D02*
X020895Y027990D01*
X020876Y027892D02*
X026150Y027892D01*
X026150Y027793D02*
X020858Y027793D01*
X020839Y027695D02*
X026150Y027695D01*
X026150Y027596D02*
X020820Y027596D01*
X020805Y027498D02*
X026150Y027498D01*
X026150Y027399D02*
X020794Y027399D01*
X020782Y027301D02*
X026150Y027301D01*
X026150Y027202D02*
X020771Y027202D01*
X020760Y027104D02*
X026150Y027104D01*
X026150Y027005D02*
X020749Y027005D01*
X020738Y026907D02*
X026150Y026907D01*
X026150Y026808D02*
X020726Y026808D01*
X020715Y026710D02*
X026150Y026710D01*
X026150Y026611D02*
X020704Y026611D01*
X020693Y026513D02*
X026150Y026513D01*
X026150Y026414D02*
X020686Y026414D01*
X020682Y026316D02*
X026150Y026316D01*
X026150Y026217D02*
X020679Y026217D01*
X020675Y026119D02*
X026150Y026119D01*
X026150Y026020D02*
X020671Y026020D01*
X020668Y025922D02*
X026150Y025922D01*
X026150Y025823D02*
X020664Y025823D01*
X020660Y025725D02*
X026150Y025725D01*
X026150Y025626D02*
X020656Y025626D01*
X020653Y025528D02*
X026150Y025528D01*
X026150Y025429D02*
X020649Y025429D01*
X020650Y025331D02*
X026150Y025331D01*
X026150Y025232D02*
X020654Y025232D01*
X020658Y025134D02*
X026150Y025134D01*
X026150Y025035D02*
X020662Y025035D01*
X020665Y024937D02*
X026150Y024937D01*
X026150Y024838D02*
X020669Y024838D01*
X020673Y024740D02*
X026150Y024740D01*
X026150Y024641D02*
X020676Y024641D01*
X020680Y024543D02*
X026150Y024543D01*
X026150Y024444D02*
X020684Y024444D01*
X020688Y024346D02*
X026150Y024346D01*
X026150Y024247D02*
X020697Y024247D01*
X020708Y024149D02*
X026150Y024149D01*
X026150Y024050D02*
X020720Y024050D01*
X020731Y023952D02*
X026150Y023952D01*
X026150Y023853D02*
X020742Y023853D01*
X020753Y023755D02*
X026150Y023755D01*
X026150Y023656D02*
X020764Y023656D01*
X020776Y023558D02*
X026150Y023558D01*
X026150Y023459D02*
X020787Y023459D01*
X020798Y023361D02*
X026150Y023361D01*
X026150Y023262D02*
X020809Y023262D01*
X020828Y023164D02*
X026150Y023164D01*
X026150Y023065D02*
X020846Y023065D01*
X020865Y022967D02*
X026150Y022967D01*
X026150Y022868D02*
X020884Y022868D01*
X020903Y022770D02*
X026150Y022770D01*
X026150Y022671D02*
X020922Y022671D01*
X020940Y022573D02*
X026150Y022573D01*
X026150Y022474D02*
X020959Y022474D01*
X020978Y022376D02*
X026150Y022376D01*
X026150Y022277D02*
X020997Y022277D01*
X021017Y022179D02*
X026150Y022179D01*
X026150Y022080D02*
X021044Y022080D01*
X021071Y021982D02*
X026150Y021982D01*
X026150Y021883D02*
X021097Y021883D01*
X021124Y021785D02*
X026150Y021785D01*
X026150Y021686D02*
X021151Y021686D01*
X021177Y021588D02*
X026150Y021588D01*
X026150Y021489D02*
X021204Y021489D01*
X021231Y021391D02*
X026150Y021391D01*
X026150Y021292D02*
X021257Y021292D01*
X021284Y021194D02*
X026150Y021194D01*
X026150Y021095D02*
X021316Y021095D01*
X021351Y020997D02*
X026150Y020997D01*
X026150Y020898D02*
X021386Y020898D01*
X021420Y020800D02*
X026150Y020800D01*
X026150Y020701D02*
X021455Y020701D01*
X021490Y020603D02*
X026150Y020603D01*
X026150Y020504D02*
X021525Y020504D01*
X021560Y020406D02*
X026150Y020406D01*
X026150Y020307D02*
X021594Y020307D01*
X021629Y020209D02*
X026150Y020209D01*
X026650Y020209D02*
X031650Y020209D01*
X031650Y020150D02*
X026650Y020150D01*
X026650Y030650D01*
X031650Y030650D01*
X031650Y020150D01*
X031650Y020307D02*
X026650Y020307D01*
X026650Y020406D02*
X031650Y020406D01*
X031650Y020504D02*
X026650Y020504D01*
X026650Y020603D02*
X031650Y020603D01*
X031650Y020701D02*
X026650Y020701D01*
X026650Y020800D02*
X031650Y020800D01*
X031650Y020898D02*
X026650Y020898D01*
X026650Y020997D02*
X031650Y020997D01*
X031650Y021095D02*
X026650Y021095D01*
X026650Y021194D02*
X031650Y021194D01*
X031650Y021292D02*
X026650Y021292D01*
X026650Y021391D02*
X031650Y021391D01*
X031650Y021489D02*
X026650Y021489D01*
X026650Y021588D02*
X031650Y021588D01*
X031650Y021686D02*
X026650Y021686D01*
X026650Y021785D02*
X031650Y021785D01*
X031650Y021883D02*
X026650Y021883D01*
X026650Y021982D02*
X031650Y021982D01*
X031650Y022080D02*
X026650Y022080D01*
X026650Y022179D02*
X031650Y022179D01*
X031650Y022277D02*
X026650Y022277D01*
X026650Y022376D02*
X031650Y022376D01*
X031650Y022474D02*
X026650Y022474D01*
X026650Y022573D02*
X031650Y022573D01*
X031650Y022671D02*
X026650Y022671D01*
X026650Y022770D02*
X031650Y022770D01*
X031650Y022868D02*
X026650Y022868D01*
X026650Y022967D02*
X031650Y022967D01*
X031650Y023065D02*
X026650Y023065D01*
X026650Y023164D02*
X031650Y023164D01*
X031650Y023262D02*
X026650Y023262D01*
X026650Y023361D02*
X031650Y023361D01*
X031650Y023459D02*
X026650Y023459D01*
X026650Y023558D02*
X031650Y023558D01*
X031650Y023656D02*
X026650Y023656D01*
X026650Y023755D02*
X031650Y023755D01*
X031650Y023853D02*
X026650Y023853D01*
X026650Y023952D02*
X031650Y023952D01*
X031650Y024050D02*
X026650Y024050D01*
X026650Y024149D02*
X031650Y024149D01*
X031650Y024247D02*
X026650Y024247D01*
X026650Y024346D02*
X031650Y024346D01*
X031650Y024444D02*
X026650Y024444D01*
X026650Y024543D02*
X031650Y024543D01*
X031650Y024641D02*
X026650Y024641D01*
X026650Y024740D02*
X031650Y024740D01*
X031650Y024838D02*
X026650Y024838D01*
X026650Y024937D02*
X031650Y024937D01*
X031650Y025035D02*
X026650Y025035D01*
X026650Y025134D02*
X031650Y025134D01*
X031650Y025232D02*
X026650Y025232D01*
X026650Y025331D02*
X031650Y025331D01*
X031650Y025429D02*
X029476Y025429D01*
X029469Y025422D02*
X029628Y025581D01*
X029713Y025788D01*
X029713Y026012D01*
X029628Y026219D01*
X029469Y026378D01*
X029262Y026463D01*
X029038Y026463D01*
X028831Y026378D01*
X028672Y026219D01*
X028587Y026012D01*
X028587Y025788D01*
X028672Y025581D01*
X028831Y025422D01*
X029038Y025337D01*
X029262Y025337D01*
X029469Y025422D01*
X029575Y025528D02*
X031650Y025528D01*
X031650Y025626D02*
X029647Y025626D01*
X029687Y025725D02*
X031650Y025725D01*
X031650Y025823D02*
X029713Y025823D01*
X029713Y025922D02*
X031650Y025922D01*
X031650Y026020D02*
X029710Y026020D01*
X029669Y026119D02*
X031650Y026119D01*
X031650Y026217D02*
X029628Y026217D01*
X029531Y026316D02*
X031650Y026316D01*
X031650Y026414D02*
X029380Y026414D01*
X028920Y026414D02*
X026650Y026414D01*
X026650Y026316D02*
X028769Y026316D01*
X028672Y026217D02*
X026650Y026217D01*
X026650Y026119D02*
X028631Y026119D01*
X028590Y026020D02*
X026650Y026020D01*
X026650Y025922D02*
X028587Y025922D01*
X028587Y025823D02*
X026650Y025823D01*
X026650Y025725D02*
X028613Y025725D01*
X028653Y025626D02*
X026650Y025626D01*
X026650Y025528D02*
X028725Y025528D01*
X028824Y025429D02*
X026650Y025429D01*
X026650Y026513D02*
X031650Y026513D01*
X031650Y026611D02*
X026650Y026611D01*
X026650Y026710D02*
X031650Y026710D01*
X031650Y026808D02*
X026650Y026808D01*
X026650Y026907D02*
X031650Y026907D01*
X031650Y027005D02*
X026650Y027005D01*
X026650Y027104D02*
X031650Y027104D01*
X031650Y027202D02*
X026650Y027202D01*
X026650Y027301D02*
X031650Y027301D01*
X031650Y027399D02*
X026650Y027399D01*
X026650Y027498D02*
X031650Y027498D01*
X031650Y027596D02*
X026650Y027596D01*
X026650Y027695D02*
X031650Y027695D01*
X031650Y027793D02*
X026650Y027793D01*
X026650Y027892D02*
X031650Y027892D01*
X031650Y027990D02*
X026650Y027990D01*
X026650Y028089D02*
X031650Y028089D01*
X031650Y028187D02*
X026650Y028187D01*
X026650Y028286D02*
X031650Y028286D01*
X031650Y028384D02*
X026650Y028384D01*
X026650Y028483D02*
X031650Y028483D01*
X031650Y028581D02*
X026650Y028581D01*
X026650Y028680D02*
X031650Y028680D01*
X031650Y028778D02*
X026650Y028778D01*
X026650Y028877D02*
X031650Y028877D01*
X031650Y028975D02*
X026650Y028975D01*
X026650Y029074D02*
X031650Y029074D01*
X031650Y029172D02*
X026650Y029172D01*
X026650Y029271D02*
X031650Y029271D01*
X031650Y029369D02*
X026650Y029369D01*
X026650Y029468D02*
X031650Y029468D01*
X031650Y029566D02*
X026650Y029566D01*
X026650Y029665D02*
X031650Y029665D01*
X031650Y029763D02*
X026650Y029763D01*
X026650Y029862D02*
X031650Y029862D01*
X031650Y029960D02*
X026650Y029960D01*
X026650Y030059D02*
X031650Y030059D01*
X031650Y030157D02*
X026650Y030157D01*
X026650Y030256D02*
X031650Y030256D01*
X031650Y030354D02*
X026650Y030354D01*
X026650Y030453D02*
X031650Y030453D01*
X031650Y030400D02*
X031650Y031150D01*
X032400Y031900D01*
X034900Y031900D01*
X035400Y032400D01*
X036400Y031150D02*
X036400Y029650D01*
X036928Y029862D02*
X032150Y029862D01*
X032150Y029960D02*
X036893Y029960D01*
X036858Y030059D02*
X032150Y030059D01*
X032150Y030157D02*
X036824Y030157D01*
X036789Y030256D02*
X032150Y030256D01*
X032150Y030354D02*
X036754Y030354D01*
X036719Y030453D02*
X032150Y030453D01*
X032150Y030551D02*
X036685Y030551D01*
X036650Y030650D02*
X037007Y029636D01*
X037287Y028598D01*
X037488Y027542D01*
X037610Y026474D01*
X037650Y025400D01*
X037610Y024326D01*
X037488Y023258D01*
X037287Y022202D01*
X037007Y021164D01*
X036650Y020150D01*
X032150Y020150D01*
X032150Y030650D01*
X036650Y030650D01*
X036962Y029763D02*
X032150Y029763D01*
X032150Y029665D02*
X036997Y029665D01*
X037026Y029566D02*
X032150Y029566D01*
X032150Y029468D02*
X037053Y029468D01*
X037079Y029369D02*
X032150Y029369D01*
X032150Y029271D02*
X037106Y029271D01*
X037132Y029172D02*
X032150Y029172D01*
X032150Y029074D02*
X037159Y029074D01*
X037186Y028975D02*
X032150Y028975D01*
X032150Y028877D02*
X037212Y028877D01*
X037239Y028778D02*
X032150Y028778D01*
X032150Y028680D02*
X037265Y028680D01*
X037290Y028581D02*
X032150Y028581D01*
X032150Y028483D02*
X037309Y028483D01*
X037328Y028384D02*
X032150Y028384D01*
X032150Y028286D02*
X037347Y028286D01*
X037366Y028187D02*
X032150Y028187D01*
X032150Y028089D02*
X037384Y028089D01*
X037403Y027990D02*
X032150Y027990D01*
X032150Y027892D02*
X037422Y027892D01*
X037441Y027793D02*
X032150Y027793D01*
X032150Y027695D02*
X037459Y027695D01*
X037478Y027596D02*
X032150Y027596D01*
X032150Y027498D02*
X037493Y027498D01*
X037505Y027399D02*
X032150Y027399D01*
X032150Y027301D02*
X037516Y027301D01*
X037527Y027202D02*
X032150Y027202D01*
X032150Y027104D02*
X037538Y027104D01*
X037549Y027005D02*
X032150Y027005D01*
X032150Y026907D02*
X037560Y026907D01*
X037572Y026808D02*
X032150Y026808D01*
X032150Y026710D02*
X037583Y026710D01*
X037594Y026611D02*
X032150Y026611D01*
X032150Y026513D02*
X037605Y026513D01*
X037612Y026414D02*
X032150Y026414D01*
X032150Y026316D02*
X037616Y026316D01*
X037619Y026217D02*
X032150Y026217D01*
X032150Y026119D02*
X037623Y026119D01*
X037627Y026020D02*
X032150Y026020D01*
X032150Y025922D02*
X037630Y025922D01*
X037634Y025823D02*
X032150Y025823D01*
X032150Y025725D02*
X037638Y025725D01*
X037641Y025626D02*
X032150Y025626D01*
X032150Y025528D02*
X037645Y025528D01*
X037649Y025429D02*
X032150Y025429D01*
X032150Y025331D02*
X037647Y025331D01*
X037644Y025232D02*
X032150Y025232D01*
X032150Y025134D02*
X037640Y025134D01*
X037636Y025035D02*
X032150Y025035D01*
X032150Y024937D02*
X037633Y024937D01*
X037629Y024838D02*
X032150Y024838D01*
X032150Y024740D02*
X037625Y024740D01*
X037621Y024641D02*
X032150Y024641D01*
X032150Y024543D02*
X037618Y024543D01*
X037614Y024444D02*
X032150Y024444D01*
X032150Y024346D02*
X037610Y024346D01*
X037601Y024247D02*
X032150Y024247D01*
X032150Y024149D02*
X037589Y024149D01*
X037578Y024050D02*
X032150Y024050D01*
X032150Y023952D02*
X037567Y023952D01*
X037556Y023853D02*
X032150Y023853D01*
X032150Y023755D02*
X037545Y023755D01*
X037534Y023656D02*
X032150Y023656D01*
X032150Y023558D02*
X037522Y023558D01*
X037511Y023459D02*
X032150Y023459D01*
X032150Y023361D02*
X037500Y023361D01*
X037489Y023262D02*
X032150Y023262D01*
X032150Y023164D02*
X037471Y023164D01*
X037452Y023065D02*
X032150Y023065D01*
X032150Y022967D02*
X037433Y022967D01*
X037414Y022868D02*
X032150Y022868D01*
X032150Y022770D02*
X037396Y022770D01*
X037377Y022671D02*
X032150Y022671D01*
X032150Y022573D02*
X037358Y022573D01*
X037339Y022474D02*
X032150Y022474D01*
X032150Y022376D02*
X037320Y022376D01*
X037302Y022277D02*
X032150Y022277D01*
X032150Y022179D02*
X037281Y022179D01*
X037255Y022080D02*
X032150Y022080D01*
X032150Y021982D02*
X037228Y021982D01*
X037201Y021883D02*
X032150Y021883D01*
X032150Y021785D02*
X037175Y021785D01*
X037148Y021686D02*
X032150Y021686D01*
X032150Y021588D02*
X037122Y021588D01*
X037095Y021489D02*
X032150Y021489D01*
X032150Y021391D02*
X037069Y021391D01*
X037042Y021292D02*
X032150Y021292D01*
X032150Y021194D02*
X037015Y021194D01*
X036983Y021095D02*
X032150Y021095D01*
X032150Y020997D02*
X036948Y020997D01*
X036914Y020898D02*
X032150Y020898D01*
X032150Y020800D02*
X036879Y020800D01*
X036844Y020701D02*
X032150Y020701D01*
X032150Y020603D02*
X036810Y020603D01*
X036775Y020504D02*
X032150Y020504D01*
X032150Y020406D02*
X036740Y020406D01*
X036705Y020307D02*
X032150Y020307D01*
X032150Y020209D02*
X036671Y020209D01*
X038400Y020209D02*
X038990Y020209D01*
X038400Y020150D02*
X038400Y025150D01*
X045900Y025150D01*
X045900Y020900D01*
X038400Y020150D01*
X038400Y020307D02*
X039975Y020307D01*
X040960Y020406D02*
X038400Y020406D01*
X038400Y020504D02*
X041945Y020504D01*
X042930Y020603D02*
X038400Y020603D01*
X038400Y020701D02*
X043915Y020701D01*
X044900Y020800D02*
X038400Y020800D01*
X038400Y020898D02*
X045885Y020898D01*
X045900Y020997D02*
X038400Y020997D01*
X038400Y021095D02*
X045900Y021095D01*
X045900Y021194D02*
X038400Y021194D01*
X038400Y021292D02*
X045900Y021292D01*
X045900Y021391D02*
X038400Y021391D01*
X038400Y021489D02*
X045900Y021489D01*
X045900Y021588D02*
X038400Y021588D01*
X038400Y021686D02*
X045900Y021686D01*
X045900Y021785D02*
X038400Y021785D01*
X038400Y021883D02*
X045900Y021883D01*
X045900Y021982D02*
X038400Y021982D01*
X038400Y022080D02*
X045900Y022080D01*
X045900Y022179D02*
X040476Y022179D01*
X040469Y022172D02*
X040628Y022331D01*
X040713Y022538D01*
X040713Y022762D01*
X040628Y022969D01*
X040469Y023128D01*
X040262Y023213D01*
X040038Y023213D01*
X039831Y023128D01*
X039672Y022969D01*
X039587Y022762D01*
X039587Y022538D01*
X039672Y022331D01*
X039831Y022172D01*
X040038Y022087D01*
X040262Y022087D01*
X040469Y022172D01*
X040574Y022277D02*
X045900Y022277D01*
X045900Y022376D02*
X040646Y022376D01*
X040687Y022474D02*
X045900Y022474D01*
X045900Y022573D02*
X040713Y022573D01*
X040713Y022671D02*
X045900Y022671D01*
X045900Y022770D02*
X040710Y022770D01*
X040669Y022868D02*
X045900Y022868D01*
X045900Y022967D02*
X040629Y022967D01*
X040531Y023065D02*
X045900Y023065D01*
X045900Y023164D02*
X040381Y023164D01*
X039919Y023164D02*
X038400Y023164D01*
X038400Y023262D02*
X045900Y023262D01*
X045900Y023361D02*
X038400Y023361D01*
X038400Y023459D02*
X045900Y023459D01*
X045900Y023558D02*
X038400Y023558D01*
X038400Y023656D02*
X045900Y023656D01*
X045900Y023755D02*
X038400Y023755D01*
X038400Y023853D02*
X045900Y023853D01*
X045900Y023952D02*
X038400Y023952D01*
X038400Y024050D02*
X045900Y024050D01*
X045900Y024149D02*
X038400Y024149D01*
X038400Y024247D02*
X045900Y024247D01*
X045900Y024346D02*
X038400Y024346D01*
X038400Y024444D02*
X045900Y024444D01*
X045900Y024543D02*
X038400Y024543D01*
X038400Y024641D02*
X045900Y024641D01*
X045900Y024740D02*
X038400Y024740D01*
X038400Y024838D02*
X045900Y024838D01*
X045900Y024937D02*
X038400Y024937D01*
X038400Y025035D02*
X045900Y025035D01*
X045900Y025134D02*
X038400Y025134D01*
X038400Y025650D02*
X038400Y030650D01*
X045900Y030650D01*
X045900Y025650D01*
X038400Y025650D01*
X038400Y025725D02*
X045900Y025725D01*
X045900Y025823D02*
X038400Y025823D01*
X038400Y025922D02*
X045900Y025922D01*
X045900Y026020D02*
X038400Y026020D01*
X038400Y026119D02*
X045900Y026119D01*
X045900Y026217D02*
X038400Y026217D01*
X038400Y026316D02*
X045900Y026316D01*
X045900Y026414D02*
X038400Y026414D01*
X038400Y026513D02*
X045900Y026513D01*
X045900Y026611D02*
X038400Y026611D01*
X038400Y026710D02*
X045900Y026710D01*
X045900Y026808D02*
X038400Y026808D01*
X038400Y026907D02*
X045900Y026907D01*
X045900Y027005D02*
X038400Y027005D01*
X038400Y027104D02*
X045900Y027104D01*
X045900Y027202D02*
X038400Y027202D01*
X038400Y027301D02*
X045900Y027301D01*
X045900Y027399D02*
X038400Y027399D01*
X038400Y027498D02*
X045900Y027498D01*
X045900Y027596D02*
X040286Y027596D01*
X040262Y027587D02*
X040469Y027672D01*
X040628Y027831D01*
X040713Y028038D01*
X040713Y028262D01*
X040628Y028469D01*
X040469Y028628D01*
X040262Y028713D01*
X040038Y028713D01*
X039831Y028628D01*
X039672Y028469D01*
X039587Y028262D01*
X039587Y028038D01*
X039672Y027831D01*
X039831Y027672D01*
X040038Y027587D01*
X040262Y027587D01*
X040014Y027596D02*
X038400Y027596D01*
X038400Y027695D02*
X039808Y027695D01*
X039710Y027793D02*
X038400Y027793D01*
X038400Y027892D02*
X039647Y027892D01*
X039606Y027990D02*
X038400Y027990D01*
X038400Y028089D02*
X039587Y028089D01*
X039587Y028187D02*
X038400Y028187D01*
X038400Y028286D02*
X039597Y028286D01*
X039637Y028384D02*
X038400Y028384D01*
X038400Y028483D02*
X039686Y028483D01*
X039785Y028581D02*
X038400Y028581D01*
X038400Y028680D02*
X039957Y028680D01*
X040343Y028680D02*
X045900Y028680D01*
X045900Y028778D02*
X038400Y028778D01*
X038400Y028877D02*
X045900Y028877D01*
X045900Y028975D02*
X038400Y028975D01*
X038400Y029074D02*
X045900Y029074D01*
X045900Y029172D02*
X038400Y029172D01*
X038400Y029271D02*
X045900Y029271D01*
X045900Y029369D02*
X038400Y029369D01*
X038400Y029468D02*
X045900Y029468D01*
X045900Y029566D02*
X038400Y029566D01*
X038400Y029665D02*
X045900Y029665D01*
X045900Y029763D02*
X038400Y029763D01*
X038400Y029862D02*
X045900Y029862D01*
X045900Y029960D02*
X038400Y029960D01*
X038400Y030059D02*
X045900Y030059D01*
X045900Y030157D02*
X038400Y030157D01*
X038400Y030256D02*
X045900Y030256D01*
X045900Y030354D02*
X038400Y030354D01*
X038400Y030453D02*
X045900Y030453D01*
X045900Y030551D02*
X038400Y030551D01*
X039900Y030400D02*
X039900Y031150D01*
X042650Y032400D02*
X046650Y032400D01*
X047400Y031650D01*
X047400Y025150D01*
X046650Y024400D01*
X045650Y024400D01*
X045900Y027695D02*
X040492Y027695D01*
X040590Y027793D02*
X045900Y027793D01*
X045900Y027892D02*
X040653Y027892D01*
X040694Y027990D02*
X045900Y027990D01*
X045900Y028089D02*
X040713Y028089D01*
X040713Y028187D02*
X045900Y028187D01*
X045900Y028286D02*
X040703Y028286D01*
X040663Y028384D02*
X045900Y028384D01*
X045900Y028483D02*
X040614Y028483D01*
X040515Y028581D02*
X045900Y028581D01*
X046424Y033901D02*
X047690Y033901D01*
X047690Y033999D02*
X046488Y033999D01*
X046520Y034098D02*
X047690Y034098D01*
X047690Y034196D02*
X046520Y034196D01*
X046491Y034295D02*
X047690Y034295D01*
X047690Y034393D02*
X046430Y034393D01*
X046410Y034492D02*
X047690Y034492D01*
X047690Y034590D02*
X046410Y034590D01*
X046410Y034689D02*
X047690Y034689D01*
X047690Y034787D02*
X046410Y034787D01*
X046410Y034886D02*
X047690Y034886D01*
X047690Y034984D02*
X046410Y034984D01*
X046410Y035083D02*
X047690Y035083D01*
X047690Y035181D02*
X046410Y035181D01*
X046410Y035280D02*
X047690Y035280D01*
X047690Y035378D02*
X046410Y035378D01*
X046410Y035477D02*
X047690Y035477D01*
X047690Y035575D02*
X046410Y035575D01*
X046410Y035674D02*
X047690Y035674D01*
X047690Y035772D02*
X046381Y035772D01*
X046297Y035871D02*
X047690Y035871D01*
X047690Y035969D02*
X046199Y035969D01*
X046100Y036068D02*
X047690Y036068D01*
X047690Y036166D02*
X046002Y036166D01*
X045903Y036265D02*
X047690Y036265D01*
X047690Y036363D02*
X045805Y036363D01*
X045706Y036462D02*
X046331Y036462D01*
X045995Y036560D02*
X045608Y036560D01*
X045509Y036659D02*
X045808Y036659D01*
X045655Y036757D02*
X045411Y036757D01*
X045519Y036844D02*
X045519Y036844D01*
X045509Y036856D02*
X045312Y036856D01*
X045214Y036954D02*
X045424Y036954D01*
X045338Y037053D02*
X045115Y037053D01*
X045017Y037151D02*
X045253Y037151D01*
X045197Y037216D02*
X045197Y037216D01*
X045181Y037250D02*
X044918Y037250D01*
X044820Y037348D02*
X045136Y037348D01*
X045091Y037447D02*
X044721Y037447D01*
X044623Y037545D02*
X045046Y037545D01*
X045001Y037644D02*
X044524Y037644D01*
X044426Y037742D02*
X044981Y037742D01*
X044992Y037663D02*
X044992Y037663D01*
X044967Y037841D02*
X044327Y037841D01*
X044229Y037939D02*
X044953Y037939D01*
X044939Y038038D02*
X044130Y038038D01*
X044032Y038136D02*
X044924Y038136D01*
X044922Y038150D02*
X044922Y038150D01*
X044935Y038235D02*
X043933Y038235D01*
X043835Y038333D02*
X044949Y038333D01*
X044963Y038432D02*
X043736Y038432D01*
X043660Y038530D02*
X044977Y038530D01*
X044991Y038629D02*
X043660Y038629D01*
X043729Y038727D02*
X045034Y038727D01*
X045079Y038826D02*
X043770Y038826D01*
X043770Y038924D02*
X045124Y038924D01*
X045169Y039023D02*
X043750Y039023D01*
X043702Y039121D02*
X045229Y039121D01*
X045197Y039084D02*
X045197Y039084D01*
X045314Y039220D02*
X043595Y039220D01*
X043400Y038900D02*
X043400Y038400D01*
X046150Y035650D01*
X046150Y034150D01*
X045650Y034400D02*
X045650Y035650D01*
X044650Y036650D01*
X041900Y036150D02*
X041400Y035650D01*
X041400Y034900D01*
X039700Y035083D02*
X036900Y035083D01*
X036900Y035181D02*
X039596Y035181D01*
X039549Y035280D02*
X036900Y035280D01*
X036900Y035378D02*
X039530Y035378D01*
X039531Y035477D02*
X036900Y035477D01*
X036900Y035575D02*
X039572Y035575D01*
X039610Y035674D02*
X036900Y035674D01*
X036900Y035772D02*
X039610Y035772D01*
X039610Y035871D02*
X036900Y035871D01*
X036900Y035969D02*
X039610Y035969D01*
X039610Y036068D02*
X036900Y036068D01*
X036900Y036166D02*
X039610Y036166D01*
X039610Y036265D02*
X036900Y036265D01*
X036900Y036363D02*
X039610Y036363D01*
X039284Y036856D02*
X038879Y036856D01*
X038421Y036856D02*
X038270Y036856D01*
X038270Y036954D02*
X038331Y036954D01*
X038290Y037053D02*
X038237Y037053D01*
X038280Y037151D02*
X038172Y037151D01*
X038160Y037250D02*
X038291Y037250D01*
X038332Y037348D02*
X038160Y037348D01*
X038160Y037447D02*
X038360Y037447D01*
X038360Y037545D02*
X038160Y037545D01*
X038160Y037644D02*
X038360Y037644D01*
X038360Y037742D02*
X038160Y037742D01*
X038160Y037841D02*
X038360Y037841D01*
X038360Y037939D02*
X038160Y037939D01*
X038160Y038038D02*
X038360Y038038D01*
X038360Y038136D02*
X038160Y038136D01*
X038146Y038235D02*
X038360Y038235D01*
X038360Y038333D02*
X038085Y038333D01*
X037986Y038432D02*
X038360Y038432D01*
X038360Y038530D02*
X037888Y038530D01*
X037789Y038629D02*
X038261Y038629D01*
X038163Y038727D02*
X037691Y038727D01*
X037592Y038826D02*
X038064Y038826D01*
X037966Y038924D02*
X035649Y038924D01*
X035602Y038333D02*
X037349Y038333D01*
X037867Y039023D02*
X032661Y039023D01*
X035150Y041150D02*
X035400Y040900D01*
X035770Y040894D02*
X045138Y040894D01*
X043808Y040993D02*
X035762Y040993D01*
X035721Y041091D02*
X042478Y041091D01*
X044780Y034196D02*
X036900Y034196D01*
X031650Y030551D02*
X026650Y030551D01*
X026150Y030551D02*
X021615Y030551D01*
X021580Y030453D02*
X026150Y030453D01*
X026150Y030354D02*
X021546Y030354D01*
X021511Y030256D02*
X026150Y030256D01*
X019150Y030150D02*
X019150Y030900D01*
X038400Y023065D02*
X039769Y023065D01*
X039671Y022967D02*
X038400Y022967D01*
X038400Y022868D02*
X039631Y022868D01*
X039590Y022770D02*
X038400Y022770D01*
X038400Y022671D02*
X039587Y022671D01*
X039587Y022573D02*
X038400Y022573D01*
X038400Y022474D02*
X039613Y022474D01*
X039654Y022376D02*
X038400Y022376D01*
X038400Y022277D02*
X039726Y022277D01*
X039824Y022179D02*
X038400Y022179D01*
D13*
X039900Y031150D03*
X042650Y032400D03*
X042400Y033900D03*
X043150Y033900D03*
X043900Y033900D03*
X044650Y033900D03*
X045150Y034150D03*
X045650Y034400D03*
X046150Y034150D03*
X046650Y033900D03*
X047400Y033900D03*
X044900Y035650D03*
X044650Y036650D03*
X042400Y035400D03*
X041900Y035150D03*
X041400Y034900D03*
X040900Y034650D03*
X040900Y034150D03*
X041650Y034150D03*
X039900Y035400D03*
X038900Y035400D03*
X038650Y037150D03*
X037900Y036900D03*
X036650Y037650D03*
X037150Y038150D03*
X035650Y037650D03*
X034900Y037650D03*
X034150Y037650D03*
X033400Y037650D03*
X032650Y037650D03*
X031900Y037650D03*
X031150Y037650D03*
X030400Y037650D03*
X029900Y038150D03*
X029150Y038150D03*
X028400Y038150D03*
X027650Y038900D03*
X027650Y039400D03*
X025400Y039150D03*
X024900Y039150D03*
X024400Y039150D03*
X024400Y037900D03*
X024900Y037900D03*
X025400Y037900D03*
X026900Y037150D03*
X026150Y034400D03*
X027650Y034400D03*
X030400Y036900D03*
X032900Y036150D03*
X032650Y034650D03*
X032650Y033150D03*
X035400Y032400D03*
X036400Y031150D03*
X040650Y037900D03*
X039900Y038650D03*
X040150Y038900D03*
X039900Y039150D03*
X037150Y041150D03*
X036650Y041150D03*
X036150Y041150D03*
X035400Y040900D03*
X034900Y040650D03*
X034150Y039400D03*
X035400Y038650D03*
X030650Y038900D03*
X030650Y039400D03*
X025400Y041525D03*
X024900Y041525D03*
X024400Y041525D03*
X023650Y041150D03*
X022650Y041150D03*
X021650Y039150D03*
X020650Y039150D03*
X019650Y039150D03*
X017150Y038900D03*
X017150Y038400D03*
X017150Y039400D03*
X014150Y040400D03*
X012650Y040400D03*
X011150Y040400D03*
X011150Y035900D03*
X012650Y035900D03*
X014150Y035900D03*
X014150Y033900D03*
X013400Y033900D03*
X012650Y033900D03*
X011900Y033900D03*
X011150Y033900D03*
X014900Y033900D03*
X015650Y033900D03*
X016400Y033900D03*
X017150Y033900D03*
X043400Y038900D03*
D14*
X019900Y025150D02*
X012400Y025150D01*
X012400Y020900D01*
X019900Y020150D01*
X019900Y025150D01*
X019900Y025076D02*
X012400Y025076D01*
X012400Y024998D02*
X019900Y024998D01*
X019900Y024919D02*
X012400Y024919D01*
X012400Y024841D02*
X019900Y024841D01*
X019900Y024762D02*
X012400Y024762D01*
X012400Y024684D02*
X019900Y024684D01*
X019900Y024605D02*
X012400Y024605D01*
X012400Y024527D02*
X019900Y024527D01*
X019900Y024448D02*
X012400Y024448D01*
X012400Y024370D02*
X019900Y024370D01*
X019900Y024291D02*
X012400Y024291D01*
X012400Y024213D02*
X019900Y024213D01*
X019900Y024134D02*
X012400Y024134D01*
X012400Y024056D02*
X019900Y024056D01*
X019900Y023977D02*
X012400Y023977D01*
X012400Y023899D02*
X019900Y023899D01*
X019900Y023820D02*
X012400Y023820D01*
X012400Y023742D02*
X019900Y023742D01*
X019900Y023663D02*
X012400Y023663D01*
X012400Y023585D02*
X019900Y023585D01*
X019900Y023506D02*
X012400Y023506D01*
X012400Y023428D02*
X019900Y023428D01*
X019900Y023349D02*
X012400Y023349D01*
X012400Y023271D02*
X019900Y023271D01*
X019900Y023192D02*
X012400Y023192D01*
X012400Y023114D02*
X019900Y023114D01*
X019900Y023035D02*
X012400Y023035D01*
X012400Y022957D02*
X019900Y022957D01*
X019900Y022878D02*
X012400Y022878D01*
X012400Y022800D02*
X019900Y022800D01*
X019900Y022721D02*
X012400Y022721D01*
X012400Y022643D02*
X019900Y022643D01*
X019900Y022564D02*
X012400Y022564D01*
X012400Y022486D02*
X019900Y022486D01*
X019900Y022407D02*
X012400Y022407D01*
X012400Y022329D02*
X019900Y022329D01*
X019900Y022250D02*
X012400Y022250D01*
X012400Y022172D02*
X019900Y022172D01*
X019900Y022093D02*
X012400Y022093D01*
X012400Y022015D02*
X019900Y022015D01*
X019900Y021936D02*
X012400Y021936D01*
X012400Y021858D02*
X019900Y021858D01*
X019900Y021779D02*
X012400Y021779D01*
X012400Y021701D02*
X019900Y021701D01*
X019900Y021622D02*
X012400Y021622D01*
X012400Y021544D02*
X019900Y021544D01*
X019900Y021465D02*
X012400Y021465D01*
X012400Y021387D02*
X019900Y021387D01*
X019900Y021308D02*
X012400Y021308D01*
X012400Y021230D02*
X019900Y021230D01*
X019900Y021151D02*
X012400Y021151D01*
X012400Y021073D02*
X019900Y021073D01*
X019900Y020994D02*
X012400Y020994D01*
X012400Y020916D02*
X019900Y020916D01*
X019900Y020837D02*
X013025Y020837D01*
X013810Y020759D02*
X019900Y020759D01*
X019900Y020680D02*
X014595Y020680D01*
X015380Y020602D02*
X019900Y020602D01*
X019900Y020523D02*
X016165Y020523D01*
X016950Y020445D02*
X019900Y020445D01*
X019900Y020366D02*
X017735Y020366D01*
X018520Y020288D02*
X019900Y020288D01*
X019900Y020209D02*
X019305Y020209D01*
D15*
X039900Y035400D02*
X039900Y036650D01*
X039400Y037150D01*
X038650Y037150D01*
X038650Y038650D01*
X037900Y039400D01*
X034150Y039400D01*
X030650Y039400D01*
X030400Y039368D02*
X032400Y039368D01*
X032400Y039526D02*
X030400Y039526D01*
X030400Y039685D02*
X032400Y039685D01*
X032400Y039843D02*
X030400Y039843D01*
X030400Y039860D02*
X032400Y039860D01*
X032400Y039150D01*
X031900Y038650D01*
X030400Y038650D01*
X030400Y039860D01*
X030400Y039209D02*
X032400Y039209D01*
X032301Y039051D02*
X030400Y039051D01*
X030400Y038892D02*
X032142Y038892D01*
X031984Y038734D02*
X030400Y038734D01*
X027900Y038734D02*
X027066Y038734D01*
X027150Y038650D02*
X026650Y039150D01*
X026650Y039860D01*
X027900Y039860D01*
X027900Y038650D01*
X027150Y038650D01*
X026908Y038892D02*
X027900Y038892D01*
X027900Y039051D02*
X026749Y039051D01*
X026650Y039209D02*
X027900Y039209D01*
X027900Y039368D02*
X026650Y039368D01*
X026650Y039526D02*
X027900Y039526D01*
X027900Y039685D02*
X026650Y039685D01*
X026650Y039843D02*
X027900Y039843D01*
X027650Y038900D02*
X026900Y038900D01*
X026400Y038400D02*
X026900Y037900D01*
X026900Y037150D01*
X017400Y038400D02*
X016900Y037900D01*
X016150Y037900D01*
X016150Y039650D01*
X017400Y039650D01*
X017400Y038400D01*
X017400Y038417D02*
X016150Y038417D01*
X016150Y038575D02*
X017400Y038575D01*
X017400Y038734D02*
X016150Y038734D01*
X016150Y038892D02*
X017400Y038892D01*
X017400Y039051D02*
X016150Y039051D01*
X016150Y039209D02*
X017400Y039209D01*
X017400Y039368D02*
X016150Y039368D01*
X016150Y039526D02*
X017400Y039526D01*
X017258Y038258D02*
X016150Y038258D01*
X016150Y038100D02*
X017100Y038100D01*
X016941Y037941D02*
X016150Y037941D01*
D16*
X017150Y038900D02*
X018400Y038900D01*
X018900Y038400D01*
X026400Y038400D01*
X026900Y038900D01*
M02*
