%
M48
M72
T01C0.0200
T02C0.0827
T03C0.1250
%
T01
X11150Y35900
X12650Y35900
X14150Y35900
X14150Y33900
X13400Y33900
X12650Y33900
X11900Y33900
X11150Y33900
X14900Y33900
X15650Y33900
X16400Y33900
X17150Y33900
X36400Y31150
X35400Y32400
X32650Y33150
X32650Y34650
X32900Y36150
X32650Y37650
X31900Y37650
X31150Y37650
X30400Y37650
X29900Y38150
X29150Y38150
X28400Y38150
X27650Y38900
X27650Y39400
X25400Y39150
X24900Y39150
X24400Y39150
X24400Y37900
X24900Y37900
X25400Y37900
X26900Y37150
X26150Y34400
X27650Y34400
X30400Y36900
X30650Y38900
X30650Y39400
X33400Y37650
X34150Y37650
X34900Y37650
X35650Y37650
X36650Y37650
X37150Y38150
X37900Y36900
X38650Y37150
X38900Y35400
X39900Y35400
X40900Y34650
X40900Y34150
X41650Y34150
X42400Y33900
X43150Y33900
X43900Y33900
X44650Y33900
X45150Y34150
X45650Y34400
X46150Y34150
X46650Y33900
X47400Y33900
X44900Y35650
X44650Y36650
X42400Y35400
X41900Y35150
X41400Y34900
X42650Y32400
X39900Y31150
X40650Y37900
X39900Y38650
X40150Y38900
X39900Y39150
X37150Y41150
X36650Y41150
X36150Y41150
X35400Y40900
X34900Y40650
X34150Y39400
X35400Y38650
X43400Y38900
X25400Y41525
X24900Y41525
X24400Y41525
X23650Y41150
X22650Y41150
X21650Y39150
X20650Y39150
X19650Y39150
X17150Y38900
X17150Y38400
X17150Y39400
X14150Y40400
X12650Y40400
X11150Y40400
T02
X29150Y25900
X40150Y28150
X40150Y22650
T03
X29150Y35650
M30
