G04 #@! TF.FileFunction,Legend,Top*
%FSLAX46Y46*%
G04 Gerber Fmt 4.6, Leading zero omitted, Abs format (unit mm)*
G04 Created by KiCad (PCBNEW (2015-04-03 BZR 5570)-product) date Mon Apr  6 03:58:37 2015*
%MOMM*%
G01*
G04 APERTURE LIST*
%ADD10C,0.150000*%
%ADD11C,0.200000*%
%ADD12C,0.275000*%
%ADD13C,0.220000*%
%ADD14C,0.240000*%
%ADD15C,0.180000*%
%ADD16C,0.177800*%
%ADD17C,0.300000*%
%ADD18C,0.152400*%
%ADD19C,0.762000*%
%ADD20C,0.002540*%
G04 APERTURE END LIST*
D10*
D11*
X120650000Y-139319000D02*
X120650000Y-139827000D01*
X121920000Y-138938000D02*
X121920000Y-138557000D01*
X117602000Y-139319000D02*
X117602000Y-139827000D01*
X121920000Y-139319000D02*
X117602000Y-139319000D01*
X121920000Y-140970000D02*
X121920000Y-138938000D01*
D12*
X150923571Y-86079286D02*
X150980714Y-86131667D01*
X151037857Y-86288810D01*
X151037857Y-86393572D01*
X150980714Y-86550714D01*
X150866429Y-86655476D01*
X150752143Y-86707857D01*
X150523571Y-86760238D01*
X150352143Y-86760238D01*
X150123571Y-86707857D01*
X150009286Y-86655476D01*
X149895000Y-86550714D01*
X149837857Y-86393572D01*
X149837857Y-86288810D01*
X149895000Y-86131667D01*
X149952143Y-86079286D01*
X151037857Y-85084048D02*
X151037857Y-85607857D01*
X149837857Y-85607857D01*
X151037857Y-84717381D02*
X149837857Y-84717381D01*
X151037857Y-84088810D02*
X150352143Y-84560238D01*
X149837857Y-84088810D02*
X150523571Y-84717381D01*
X150580714Y-83617381D02*
X150580714Y-82779286D01*
X151037857Y-82255476D02*
X149837857Y-82255476D01*
X149837857Y-81836429D01*
X149895000Y-81731667D01*
X149952143Y-81679286D01*
X150066429Y-81626905D01*
X150237857Y-81626905D01*
X150352143Y-81679286D01*
X150409286Y-81731667D01*
X150466429Y-81836429D01*
X150466429Y-82255476D01*
X150923571Y-80526905D02*
X150980714Y-80579286D01*
X151037857Y-80736429D01*
X151037857Y-80841191D01*
X150980714Y-80998333D01*
X150866429Y-81103095D01*
X150752143Y-81155476D01*
X150523571Y-81207857D01*
X150352143Y-81207857D01*
X150123571Y-81155476D01*
X150009286Y-81103095D01*
X149895000Y-80998333D01*
X149837857Y-80841191D01*
X149837857Y-80736429D01*
X149895000Y-80579286D01*
X149952143Y-80526905D01*
X150580714Y-80055476D02*
X150580714Y-79217381D01*
X149837857Y-78484047D02*
X149837857Y-78379286D01*
X149895000Y-78274524D01*
X149952143Y-78222143D01*
X150066429Y-78169762D01*
X150295000Y-78117381D01*
X150580714Y-78117381D01*
X150809286Y-78169762D01*
X150923571Y-78222143D01*
X150980714Y-78274524D01*
X151037857Y-78379286D01*
X151037857Y-78484047D01*
X150980714Y-78588809D01*
X150923571Y-78641190D01*
X150809286Y-78693571D01*
X150580714Y-78745952D01*
X150295000Y-78745952D01*
X150066429Y-78693571D01*
X149952143Y-78641190D01*
X149895000Y-78588809D01*
X149837857Y-78484047D01*
X149837857Y-77750714D02*
X149837857Y-77069762D01*
X150295000Y-77436428D01*
X150295000Y-77279286D01*
X150352143Y-77174524D01*
X150409286Y-77122143D01*
X150523571Y-77069762D01*
X150809286Y-77069762D01*
X150923571Y-77122143D01*
X150980714Y-77174524D01*
X151037857Y-77279286D01*
X151037857Y-77593571D01*
X150980714Y-77698333D01*
X150923571Y-77750714D01*
D13*
X166933571Y-114458189D02*
X166981190Y-114315332D01*
X167028810Y-114267713D01*
X167124048Y-114220094D01*
X167266905Y-114220094D01*
X167362143Y-114267713D01*
X167409762Y-114315332D01*
X167457381Y-114410570D01*
X167457381Y-114791523D01*
X166457381Y-114791523D01*
X166457381Y-114458189D01*
X166505000Y-114362951D01*
X166552619Y-114315332D01*
X166647857Y-114267713D01*
X166743095Y-114267713D01*
X166838333Y-114315332D01*
X166885952Y-114362951D01*
X166933571Y-114458189D01*
X166933571Y-114791523D01*
X166933571Y-113458189D02*
X166933571Y-113791523D01*
X167457381Y-113791523D02*
X166457381Y-113791523D01*
X166457381Y-113315332D01*
X167457381Y-112362951D02*
X166981190Y-112696285D01*
X167457381Y-112934380D02*
X166457381Y-112934380D01*
X166457381Y-112553427D01*
X166505000Y-112458189D01*
X166552619Y-112410570D01*
X166647857Y-112362951D01*
X166790714Y-112362951D01*
X166885952Y-112410570D01*
X166933571Y-112458189D01*
X166981190Y-112553427D01*
X166981190Y-112934380D01*
X167457381Y-111934380D02*
X166457381Y-111934380D01*
X166505000Y-110934380D02*
X166457381Y-111029618D01*
X166457381Y-111172475D01*
X166505000Y-111315333D01*
X166600238Y-111410571D01*
X166695476Y-111458190D01*
X166885952Y-111505809D01*
X167028810Y-111505809D01*
X167219286Y-111458190D01*
X167314524Y-111410571D01*
X167409762Y-111315333D01*
X167457381Y-111172475D01*
X167457381Y-111077237D01*
X167409762Y-110934380D01*
X167362143Y-110886761D01*
X167028810Y-110886761D01*
X167028810Y-111077237D01*
X166457381Y-110267714D02*
X166457381Y-110077237D01*
X166505000Y-109981999D01*
X166600238Y-109886761D01*
X166790714Y-109839142D01*
X167124048Y-109839142D01*
X167314524Y-109886761D01*
X167409762Y-109981999D01*
X167457381Y-110077237D01*
X167457381Y-110267714D01*
X167409762Y-110362952D01*
X167314524Y-110458190D01*
X167124048Y-110505809D01*
X166790714Y-110505809D01*
X166600238Y-110458190D01*
X166505000Y-110362952D01*
X166457381Y-110267714D01*
X167457381Y-109410571D02*
X166457381Y-109410571D01*
X167457381Y-108839142D01*
X166457381Y-108839142D01*
X167362143Y-108362952D02*
X167409762Y-108315333D01*
X167457381Y-108362952D01*
X167409762Y-108410571D01*
X167362143Y-108362952D01*
X167457381Y-108362952D01*
X167362143Y-107315333D02*
X167409762Y-107362952D01*
X167457381Y-107505809D01*
X167457381Y-107601047D01*
X167409762Y-107743905D01*
X167314524Y-107839143D01*
X167219286Y-107886762D01*
X167028810Y-107934381D01*
X166885952Y-107934381D01*
X166695476Y-107886762D01*
X166600238Y-107839143D01*
X166505000Y-107743905D01*
X166457381Y-107601047D01*
X166457381Y-107505809D01*
X166505000Y-107362952D01*
X166552619Y-107315333D01*
X166457381Y-106696286D02*
X166457381Y-106505809D01*
X166505000Y-106410571D01*
X166600238Y-106315333D01*
X166790714Y-106267714D01*
X167124048Y-106267714D01*
X167314524Y-106315333D01*
X167409762Y-106410571D01*
X167457381Y-106505809D01*
X167457381Y-106696286D01*
X167409762Y-106791524D01*
X167314524Y-106886762D01*
X167124048Y-106934381D01*
X166790714Y-106934381D01*
X166600238Y-106886762D01*
X166505000Y-106791524D01*
X166457381Y-106696286D01*
X167457381Y-105839143D02*
X166457381Y-105839143D01*
X167171667Y-105505809D01*
X166457381Y-105172476D01*
X167457381Y-105172476D01*
D14*
X174487619Y-102559762D02*
X173963810Y-102893096D01*
X174487619Y-103131191D02*
X173387619Y-103131191D01*
X173387619Y-102750238D01*
X173440000Y-102655000D01*
X173492381Y-102607381D01*
X173597143Y-102559762D01*
X173754286Y-102559762D01*
X173859048Y-102607381D01*
X173911429Y-102655000D01*
X173963810Y-102750238D01*
X173963810Y-103131191D01*
X174435238Y-101750238D02*
X174487619Y-101845476D01*
X174487619Y-102035953D01*
X174435238Y-102131191D01*
X174330476Y-102178810D01*
X173911429Y-102178810D01*
X173806667Y-102131191D01*
X173754286Y-102035953D01*
X173754286Y-101845476D01*
X173806667Y-101750238D01*
X173911429Y-101702619D01*
X174016190Y-101702619D01*
X174120952Y-102178810D01*
X173754286Y-101369286D02*
X174487619Y-101131191D01*
X173754286Y-100893095D01*
X174382857Y-100512143D02*
X174435238Y-100464524D01*
X174487619Y-100512143D01*
X174435238Y-100559762D01*
X174382857Y-100512143D01*
X174487619Y-100512143D01*
X174173333Y-99321667D02*
X174173333Y-98845476D01*
X174487619Y-99416905D02*
X173387619Y-99083572D01*
X174487619Y-98750238D01*
X173492381Y-96940714D02*
X173440000Y-96893095D01*
X173387619Y-96797857D01*
X173387619Y-96559761D01*
X173440000Y-96464523D01*
X173492381Y-96416904D01*
X173597143Y-96369285D01*
X173701905Y-96369285D01*
X173859048Y-96416904D01*
X174487619Y-96988333D01*
X174487619Y-96369285D01*
X173387619Y-95750238D02*
X173387619Y-95654999D01*
X173440000Y-95559761D01*
X173492381Y-95512142D01*
X173597143Y-95464523D01*
X173806667Y-95416904D01*
X174068571Y-95416904D01*
X174278095Y-95464523D01*
X174382857Y-95512142D01*
X174435238Y-95559761D01*
X174487619Y-95654999D01*
X174487619Y-95750238D01*
X174435238Y-95845476D01*
X174382857Y-95893095D01*
X174278095Y-95940714D01*
X174068571Y-95988333D01*
X173806667Y-95988333D01*
X173597143Y-95940714D01*
X173492381Y-95893095D01*
X173440000Y-95845476D01*
X173387619Y-95750238D01*
X174487619Y-94464523D02*
X174487619Y-95035952D01*
X174487619Y-94750238D02*
X173387619Y-94750238D01*
X173544762Y-94845476D01*
X173649524Y-94940714D01*
X173701905Y-95035952D01*
X173387619Y-93559761D02*
X173387619Y-94035952D01*
X173911429Y-94083571D01*
X173859048Y-94035952D01*
X173806667Y-93940714D01*
X173806667Y-93702618D01*
X173859048Y-93607380D01*
X173911429Y-93559761D01*
X174016190Y-93512142D01*
X174278095Y-93512142D01*
X174382857Y-93559761D01*
X174435238Y-93607380D01*
X174487619Y-93702618D01*
X174487619Y-93940714D01*
X174435238Y-94035952D01*
X174382857Y-94083571D01*
X174382857Y-93083571D02*
X174435238Y-93035952D01*
X174487619Y-93083571D01*
X174435238Y-93131190D01*
X174382857Y-93083571D01*
X174487619Y-93083571D01*
X173387619Y-92416905D02*
X173387619Y-92321666D01*
X173440000Y-92226428D01*
X173492381Y-92178809D01*
X173597143Y-92131190D01*
X173806667Y-92083571D01*
X174068571Y-92083571D01*
X174278095Y-92131190D01*
X174382857Y-92178809D01*
X174435238Y-92226428D01*
X174487619Y-92321666D01*
X174487619Y-92416905D01*
X174435238Y-92512143D01*
X174382857Y-92559762D01*
X174278095Y-92607381D01*
X174068571Y-92655000D01*
X173806667Y-92655000D01*
X173597143Y-92607381D01*
X173492381Y-92559762D01*
X173440000Y-92512143D01*
X173387619Y-92416905D01*
X173754286Y-91226428D02*
X174487619Y-91226428D01*
X173335238Y-91464524D02*
X174120952Y-91702619D01*
X174120952Y-91083571D01*
D11*
X148844000Y-151892000D02*
X137668000Y-151892000D01*
X148844000Y-150876000D02*
X148844000Y-151892000D01*
X158242000Y-150876000D02*
X148844000Y-150876000D01*
X158242000Y-149733000D02*
X158242000Y-152019000D01*
X116205000Y-115443000D02*
X116205000Y-116078000D01*
X115189000Y-115443000D02*
X116205000Y-115443000D01*
X116332000Y-98933000D02*
X116332000Y-99568000D01*
X114935000Y-98933000D02*
X116332000Y-98933000D01*
D15*
X121884254Y-76795108D02*
X122219204Y-83186337D01*
X117226056Y-83448017D02*
X117168487Y-82349524D01*
X117001011Y-79153910D02*
X116891106Y-77056788D01*
X117226056Y-83448017D02*
X118024960Y-83406148D01*
X122219204Y-83186337D02*
X121420300Y-83228206D01*
X147525000Y-85485000D02*
X147525000Y-92325000D01*
X131875000Y-85485000D02*
X131875000Y-92325000D01*
X134774000Y-92325000D02*
X135482000Y-92325000D01*
X141886000Y-92325000D02*
X142594000Y-92325000D01*
X143918000Y-92325000D02*
X144626000Y-92325000D01*
X146966000Y-92325000D02*
X147525000Y-92325000D01*
X132434000Y-92325000D02*
X131875000Y-92325000D01*
X173315438Y-86934303D02*
X160235401Y-85789948D01*
X174056262Y-78466648D02*
X173816583Y-81206184D01*
X173315438Y-86934303D02*
X173467960Y-85190963D01*
X160235401Y-85789948D02*
X160387924Y-84046608D01*
X160736547Y-80061829D02*
X160976225Y-77322293D01*
X166745000Y-133065000D02*
X168245000Y-133065000D01*
X170845000Y-133065000D02*
X172345000Y-133065000D01*
X172345000Y-133065000D02*
X172345000Y-135965000D01*
X166745000Y-133065000D02*
X166745000Y-135965000D01*
X172345000Y-151415000D02*
X170845000Y-151415000D01*
X168245000Y-151415000D02*
X166745000Y-151415000D01*
X166745000Y-151415000D02*
X166745000Y-148515000D01*
X172345000Y-151415000D02*
X172345000Y-148515000D01*
X170434000Y-112522000D02*
X170434000Y-116078000D01*
X170434000Y-116078000D02*
X168656000Y-116078000D01*
X168656000Y-116078000D02*
X168656000Y-112522000D01*
X168656000Y-112522000D02*
X170434000Y-112522000D01*
X169755000Y-129460000D02*
X169755000Y-119460000D01*
X169755000Y-119460000D02*
X174755000Y-119460000D01*
X174755000Y-129460000D02*
X174755000Y-119460000D01*
X174755000Y-129460000D02*
X169755000Y-129460000D01*
X170155000Y-128860000D02*
X170155000Y-120060000D01*
X170155000Y-120060000D02*
X174355000Y-120060000D01*
X170155000Y-128860000D02*
X174355000Y-128860000D01*
X174355000Y-128860000D02*
X174355000Y-120060000D01*
D16*
X151465000Y-143250000D02*
X151465000Y-144750000D01*
X151465000Y-147350000D02*
X151465000Y-148850000D01*
X151465000Y-148850000D02*
X148565000Y-148850000D01*
X151465000Y-143250000D02*
X148565000Y-143250000D01*
X139365000Y-148850000D02*
X139365000Y-147350000D01*
X139365000Y-144750000D02*
X139365000Y-143250000D01*
X139365000Y-143250000D02*
X142265000Y-143250000D01*
X139365000Y-148850000D02*
X142265000Y-148850000D01*
D15*
X164719000Y-89027000D02*
X164719000Y-92583000D01*
X164719000Y-92583000D02*
X162941000Y-92583000D01*
X162941000Y-92583000D02*
X162941000Y-89027000D01*
X162941000Y-89027000D02*
X164719000Y-89027000D01*
X160147000Y-88773000D02*
X160147000Y-92837000D01*
X160147000Y-92837000D02*
X162433000Y-92837000D01*
X162433000Y-92837000D02*
X162433000Y-88773000D01*
X162433000Y-88773000D02*
X160147000Y-88773000D01*
X166624000Y-89027000D02*
X166624000Y-92583000D01*
X166624000Y-92583000D02*
X164846000Y-92583000D01*
X164846000Y-92583000D02*
X164846000Y-89027000D01*
X164846000Y-89027000D02*
X166624000Y-89027000D01*
X156255000Y-95845000D02*
X152355000Y-95845000D01*
X152355000Y-90845000D02*
X153670000Y-90845000D01*
X154940000Y-90845000D02*
X156255000Y-90845000D01*
X153105000Y-95845000D02*
X153105000Y-90845000D01*
X156255000Y-91948000D02*
X156255000Y-92202000D01*
X156255000Y-93218000D02*
X156255000Y-93472000D01*
X156255000Y-94488000D02*
X156255000Y-94742000D01*
X152355000Y-91948000D02*
X152355000Y-92202000D01*
X152355000Y-93218000D02*
X152355000Y-93472000D01*
X152355000Y-94488000D02*
X152355000Y-94742000D01*
X153670000Y-90845000D02*
G75*
G03X154940000Y-90845000I635000J0D01*
G01*
X173228000Y-107569000D02*
X169672000Y-107569000D01*
X169672000Y-107569000D02*
X169672000Y-105791000D01*
X169672000Y-105791000D02*
X173228000Y-105791000D01*
X173228000Y-105791000D02*
X173228000Y-107569000D01*
X111740000Y-134485000D02*
X111740000Y-136635000D01*
X111740000Y-133485000D02*
X111740000Y-131335000D01*
X111740000Y-134485000D02*
G75*
G03X112240000Y-133985000I0J500000D01*
G01*
X112240000Y-133985000D02*
G75*
G03X111740000Y-133485000I-500000J0D01*
G01*
X111740000Y-131335000D02*
X121940000Y-131335000D01*
X121940000Y-131335000D02*
X121940000Y-136635000D01*
X121940000Y-136635000D02*
X111740000Y-136635000D01*
X118110000Y-90170000D02*
X118110000Y-85090000D01*
X130810000Y-85090000D02*
X130810000Y-90170000D01*
X118110000Y-85090000D02*
X130810000Y-85090000D01*
X130810000Y-90170000D02*
X118110000Y-90170000D01*
D16*
X112522000Y-96774000D02*
X112522000Y-92583000D01*
X116078000Y-92583000D02*
X116078000Y-96774000D01*
X116078000Y-96774000D02*
X115697000Y-96774000D01*
X116078000Y-92583000D02*
X115697000Y-92583000D01*
X112522000Y-96774000D02*
X112903000Y-96774000D01*
X112522000Y-92583000D02*
X112903000Y-92583000D01*
D10*
G36*
X116078000Y-94361000D02*
X116078000Y-93599000D01*
X112522000Y-93599000D01*
X112522000Y-94361000D01*
X116078000Y-94361000D01*
G37*
X116078000Y-94361000D02*
X116078000Y-93599000D01*
X112522000Y-93599000D01*
X112522000Y-94361000D01*
X116078000Y-94361000D01*
D16*
X112522000Y-113284000D02*
X112522000Y-109093000D01*
X116078000Y-109093000D02*
X116078000Y-113284000D01*
X116078000Y-113284000D02*
X115697000Y-113284000D01*
X116078000Y-109093000D02*
X115697000Y-109093000D01*
X112522000Y-113284000D02*
X112903000Y-113284000D01*
X112522000Y-109093000D02*
X112903000Y-109093000D01*
D10*
G36*
X116078000Y-110871000D02*
X116078000Y-110109000D01*
X112522000Y-110109000D01*
X112522000Y-110871000D01*
X116078000Y-110871000D01*
G37*
X116078000Y-110871000D02*
X116078000Y-110109000D01*
X112522000Y-110109000D01*
X112522000Y-110871000D01*
X116078000Y-110871000D01*
D15*
X112014000Y-104775000D02*
X117475000Y-104775000D01*
X117475000Y-104775000D02*
X117475000Y-102235000D01*
X117475000Y-102235000D02*
X112014000Y-102235000D01*
X112395000Y-102235000D02*
X112395000Y-104775000D01*
X112268000Y-102235000D02*
X112268000Y-104775000D01*
X112141000Y-102235000D02*
X112141000Y-104775000D01*
X112014000Y-102235000D02*
X112014000Y-104775000D01*
X112014000Y-102235000D02*
X117475000Y-102235000D01*
X117475000Y-102235000D02*
X117475000Y-99695000D01*
X117475000Y-99695000D02*
X112014000Y-99695000D01*
X112395000Y-99695000D02*
X112395000Y-102235000D01*
X112268000Y-99695000D02*
X112268000Y-102235000D01*
X112141000Y-99695000D02*
X112141000Y-102235000D01*
X112014000Y-99695000D02*
X112014000Y-102235000D01*
X112014000Y-118745000D02*
X117475000Y-118745000D01*
X117475000Y-118745000D02*
X117475000Y-116205000D01*
X117475000Y-116205000D02*
X112014000Y-116205000D01*
X112395000Y-116205000D02*
X112395000Y-118745000D01*
X112268000Y-116205000D02*
X112268000Y-118745000D01*
X112141000Y-116205000D02*
X112141000Y-118745000D01*
X112014000Y-116205000D02*
X112014000Y-118745000D01*
X112014000Y-121285000D02*
X117475000Y-121285000D01*
X117475000Y-121285000D02*
X117475000Y-118745000D01*
X117475000Y-118745000D02*
X112014000Y-118745000D01*
X112395000Y-118745000D02*
X112395000Y-121285000D01*
X112268000Y-118745000D02*
X112268000Y-121285000D01*
X112141000Y-118745000D02*
X112141000Y-121285000D01*
X112014000Y-118745000D02*
X112014000Y-121285000D01*
X117602000Y-103378000D02*
X123317000Y-103378000D01*
X123317000Y-103378000D02*
X123317000Y-99822000D01*
X123317000Y-99822000D02*
X117602000Y-99822000D01*
X117983000Y-99822000D02*
X117983000Y-103378000D01*
X117856000Y-99822000D02*
X117856000Y-103378000D01*
X117729000Y-99822000D02*
X117729000Y-103378000D01*
X117602000Y-99822000D02*
X117602000Y-103378000D01*
X117602000Y-119888000D02*
X123317000Y-119888000D01*
X123317000Y-119888000D02*
X123317000Y-116332000D01*
X123317000Y-116332000D02*
X117602000Y-116332000D01*
X117983000Y-116332000D02*
X117983000Y-119888000D01*
X117856000Y-116332000D02*
X117856000Y-119888000D01*
X117729000Y-116332000D02*
X117729000Y-119888000D01*
X117602000Y-116332000D02*
X117602000Y-119888000D01*
X101600000Y-85090000D02*
X104140000Y-85090000D01*
X104140000Y-85090000D02*
X104140000Y-87630000D01*
X104140000Y-87630000D02*
X101600000Y-87630000D01*
X101600000Y-87630000D02*
X101600000Y-85090000D01*
X101600000Y-121920000D02*
X104140000Y-121920000D01*
X104140000Y-121920000D02*
X104140000Y-124460000D01*
X104140000Y-124460000D02*
X101600000Y-124460000D01*
X101600000Y-124460000D02*
X101600000Y-121920000D01*
X114046000Y-142748000D02*
X114046000Y-139192000D01*
X114046000Y-139192000D02*
X115824000Y-139192000D01*
X115824000Y-139192000D02*
X115824000Y-142748000D01*
X115824000Y-142748000D02*
X114046000Y-142748000D01*
X104394000Y-136017000D02*
X104394000Y-139573000D01*
X104394000Y-139573000D02*
X102616000Y-139573000D01*
X102616000Y-139573000D02*
X102616000Y-136017000D01*
X102616000Y-136017000D02*
X104394000Y-136017000D01*
X123190000Y-125222000D02*
X123190000Y-128778000D01*
X123190000Y-128778000D02*
X121412000Y-128778000D01*
X121412000Y-128778000D02*
X121412000Y-125222000D01*
X121412000Y-125222000D02*
X123190000Y-125222000D01*
X119761000Y-143383000D02*
X119761000Y-139827000D01*
X119761000Y-139827000D02*
X121539000Y-139827000D01*
X121539000Y-139827000D02*
X121539000Y-143383000D01*
X121539000Y-143383000D02*
X119761000Y-143383000D01*
X104394000Y-128397000D02*
X104394000Y-131953000D01*
X104394000Y-131953000D02*
X102616000Y-131953000D01*
X102616000Y-131953000D02*
X102616000Y-128397000D01*
X102616000Y-128397000D02*
X104394000Y-128397000D01*
X114427000Y-125857000D02*
X117983000Y-125857000D01*
X117983000Y-125857000D02*
X117983000Y-127635000D01*
X117983000Y-127635000D02*
X114427000Y-127635000D01*
X114427000Y-127635000D02*
X114427000Y-125857000D01*
X120523000Y-128651000D02*
X118237000Y-128651000D01*
X120523000Y-129032000D02*
X120523000Y-124714000D01*
X120523000Y-124714000D02*
X118237000Y-124714000D01*
X118237000Y-124714000D02*
X118237000Y-129032000D01*
X118237000Y-129032000D02*
X120523000Y-129032000D01*
X120523000Y-128778000D02*
X118237000Y-128778000D01*
X120523000Y-128905000D02*
X118237000Y-128905000D01*
X116586000Y-143383000D02*
X116586000Y-139827000D01*
X116586000Y-139827000D02*
X118364000Y-139827000D01*
X118364000Y-139827000D02*
X118364000Y-143383000D01*
X118364000Y-143383000D02*
X116586000Y-143383000D01*
X112141000Y-142748000D02*
X112141000Y-139192000D01*
X112141000Y-139192000D02*
X113919000Y-139192000D01*
X113919000Y-139192000D02*
X113919000Y-142748000D01*
X113919000Y-142748000D02*
X112141000Y-142748000D01*
X102616000Y-135763000D02*
X102616000Y-132207000D01*
X102616000Y-132207000D02*
X104394000Y-132207000D01*
X104394000Y-132207000D02*
X104394000Y-135763000D01*
X104394000Y-135763000D02*
X102616000Y-135763000D01*
X105282899Y-137414000D02*
G75*
G03X106172000Y-139094100I2032101J74D01*
G01*
X106172000Y-139700000D02*
X105156000Y-139700000D01*
X106172001Y-128875900D02*
G75*
G03X105283000Y-130556000I1142999J-1680053D01*
G01*
X106172000Y-128270000D02*
X105156000Y-128270000D01*
X109347000Y-130556000D02*
X109347000Y-137414000D01*
X109728000Y-128524000D02*
X109728000Y-139446000D01*
X109474000Y-128270000D02*
G75*
G02X109728000Y-128524000I0J-254000D01*
G01*
X109474000Y-128270000D02*
X108458000Y-128270000D01*
X108457899Y-128876000D02*
G75*
G02X109347000Y-130556000I-1142899J-1680121D01*
G01*
X109347001Y-137414000D02*
G75*
G02X108458000Y-139094100I-2032001J-47D01*
G01*
X109474000Y-139700000D02*
X108458000Y-139700000D01*
X109728000Y-139446000D02*
G75*
G02X109474000Y-139700000I-254000J0D01*
G01*
X105283000Y-137414000D02*
X105283000Y-130556000D01*
X104902000Y-128524000D02*
X104902000Y-139446000D01*
X105156000Y-128270000D02*
G75*
G03X104902000Y-128524000I0J-254000D01*
G01*
X104902000Y-139446000D02*
G75*
G03X105156000Y-139700000I254000J0D01*
G01*
X106680000Y-134239000D02*
X107950000Y-134239000D01*
X107950000Y-134239000D02*
X107950000Y-133731000D01*
X107950000Y-133731000D02*
X106680000Y-133731000D01*
X106680000Y-133731000D02*
X106680000Y-134239000D01*
X106680000Y-134620000D02*
X107315000Y-134620000D01*
X107315000Y-134620000D02*
X107950000Y-134620000D01*
X107315000Y-134620000D02*
X107315000Y-135001000D01*
X106680000Y-133350000D02*
X107315000Y-133350000D01*
X107315000Y-133350000D02*
X107950000Y-133350000D01*
X107315000Y-133350000D02*
X107315000Y-132969000D01*
X111680000Y-108030000D02*
X111680000Y-118030000D01*
X101680000Y-118030000D02*
X101680000Y-108030000D01*
X111680000Y-108030000D02*
X108680000Y-108030000D01*
X111680000Y-118030000D02*
X108680000Y-118030000D01*
X101680000Y-118030000D02*
X104680000Y-118030000D01*
X101680000Y-108030000D02*
X104680000Y-108030000D01*
X111680000Y-91520000D02*
X111680000Y-101520000D01*
X101680000Y-101520000D02*
X101680000Y-91520000D01*
X111680000Y-91520000D02*
X108680000Y-91520000D01*
X111680000Y-101520000D02*
X108680000Y-101520000D01*
X101680000Y-101520000D02*
X104680000Y-101520000D01*
X101680000Y-91520000D02*
X104680000Y-91520000D01*
X161163000Y-95758000D02*
X165227000Y-95758000D01*
X165227000Y-95758000D02*
X165227000Y-93472000D01*
X165227000Y-93472000D02*
X161163000Y-93472000D01*
X161163000Y-93472000D02*
X161163000Y-95758000D01*
X118237000Y-145161000D02*
X121793000Y-145161000D01*
X121793000Y-145161000D02*
X121793000Y-146939000D01*
X121793000Y-146939000D02*
X118237000Y-146939000D01*
X118237000Y-146939000D02*
X118237000Y-145161000D01*
X116967000Y-151638000D02*
X122682000Y-151638000D01*
X122682000Y-151638000D02*
X122682000Y-148082000D01*
X122682000Y-148082000D02*
X116967000Y-148082000D01*
X117348000Y-148082000D02*
X117348000Y-151638000D01*
X117221000Y-148082000D02*
X117221000Y-151638000D01*
X117094000Y-148082000D02*
X117094000Y-151638000D01*
X116967000Y-148082000D02*
X116967000Y-151638000D01*
X122682000Y-143510000D02*
X124968000Y-143510000D01*
X122682000Y-143129000D02*
X122682000Y-147447000D01*
X122682000Y-147447000D02*
X124968000Y-147447000D01*
X124968000Y-147447000D02*
X124968000Y-143129000D01*
X124968000Y-143129000D02*
X122682000Y-143129000D01*
X122682000Y-143383000D02*
X124968000Y-143383000D01*
X122682000Y-143256000D02*
X124968000Y-143256000D01*
X131699000Y-148082000D02*
X131699000Y-151638000D01*
X131699000Y-151638000D02*
X129921000Y-151638000D01*
X129921000Y-151638000D02*
X129921000Y-148082000D01*
X129921000Y-148082000D02*
X131699000Y-148082000D01*
X133096000Y-152273000D02*
X133096000Y-148717000D01*
X133096000Y-148717000D02*
X134874000Y-148717000D01*
X134874000Y-148717000D02*
X134874000Y-152273000D01*
X134874000Y-152273000D02*
X133096000Y-152273000D01*
X135382000Y-147955000D02*
X137668000Y-147955000D01*
X135382000Y-147574000D02*
X135382000Y-151892000D01*
X135382000Y-151892000D02*
X137668000Y-151892000D01*
X137668000Y-151892000D02*
X137668000Y-147574000D01*
X137668000Y-147574000D02*
X135382000Y-147574000D01*
X135382000Y-147828000D02*
X137668000Y-147828000D01*
X135382000Y-147701000D02*
X137668000Y-147701000D01*
X114427000Y-145161000D02*
X117983000Y-145161000D01*
X117983000Y-145161000D02*
X117983000Y-146939000D01*
X117983000Y-146939000D02*
X114427000Y-146939000D01*
X114427000Y-146939000D02*
X114427000Y-145161000D01*
X122936000Y-151638000D02*
X122936000Y-148082000D01*
X122936000Y-148082000D02*
X124714000Y-148082000D01*
X124714000Y-148082000D02*
X124714000Y-151638000D01*
X124714000Y-151638000D02*
X122936000Y-151638000D01*
X129159000Y-143637000D02*
X129159000Y-147193000D01*
X129159000Y-147193000D02*
X127381000Y-147193000D01*
X127381000Y-147193000D02*
X127381000Y-143637000D01*
X127381000Y-143637000D02*
X129159000Y-143637000D01*
X127254000Y-143637000D02*
X127254000Y-147193000D01*
X127254000Y-147193000D02*
X125476000Y-147193000D01*
X125476000Y-147193000D02*
X125476000Y-143637000D01*
X125476000Y-143637000D02*
X127254000Y-143637000D01*
X128016000Y-151638000D02*
X128016000Y-148082000D01*
X128016000Y-148082000D02*
X129794000Y-148082000D01*
X129794000Y-148082000D02*
X129794000Y-151638000D01*
X129794000Y-151638000D02*
X128016000Y-151638000D01*
X126111000Y-151638000D02*
X126111000Y-148082000D01*
X126111000Y-148082000D02*
X127889000Y-148082000D01*
X127889000Y-148082000D02*
X127889000Y-151638000D01*
X127889000Y-151638000D02*
X126111000Y-151638000D01*
D17*
X167886421Y-103700000D02*
G75*
G03X167886421Y-103700000I-141421J0D01*
G01*
D16*
X168045000Y-103100000D02*
X171045000Y-103100000D01*
X171045000Y-103100000D02*
X171045000Y-100100000D01*
X171045000Y-100100000D02*
X168045000Y-100100000D01*
X168045000Y-100100000D02*
X168045000Y-103100000D01*
D17*
X132026421Y-144250000D02*
G75*
G03X132026421Y-144250000I-141421J0D01*
G01*
D16*
X132485000Y-144550000D02*
X132485000Y-147550000D01*
X132485000Y-147550000D02*
X135485000Y-147550000D01*
X135485000Y-147550000D02*
X135485000Y-144550000D01*
X135485000Y-144550000D02*
X132485000Y-144550000D01*
D15*
X121880000Y-109175000D02*
X121880000Y-113075000D01*
X116880000Y-113075000D02*
X116880000Y-111625000D01*
X116880000Y-110625000D02*
X116880000Y-109175000D01*
X117983000Y-109175000D02*
X118237000Y-109175000D01*
X119253000Y-109175000D02*
X119507000Y-109175000D01*
X120523000Y-109175000D02*
X120777000Y-109175000D01*
X117983000Y-113075000D02*
X118237000Y-113075000D01*
X119253000Y-113075000D02*
X119507000Y-113075000D01*
X120523000Y-113075000D02*
X120777000Y-113075000D01*
X116880000Y-111625000D02*
G75*
G03X116880000Y-110625000I0J500000D01*
G01*
X121880000Y-92665000D02*
X121880000Y-96565000D01*
X116880000Y-96565000D02*
X116880000Y-95115000D01*
X116880000Y-94115000D02*
X116880000Y-92665000D01*
X117983000Y-92665000D02*
X118237000Y-92665000D01*
X119253000Y-92665000D02*
X119507000Y-92665000D01*
X120523000Y-92665000D02*
X120777000Y-92665000D01*
X117983000Y-96565000D02*
X118237000Y-96565000D01*
X119253000Y-96565000D02*
X119507000Y-96565000D01*
X120523000Y-96565000D02*
X120777000Y-96565000D01*
X116880000Y-95115000D02*
G75*
G03X116880000Y-94115000I0J500000D01*
G01*
D18*
X171450000Y-109590000D02*
X171450000Y-110120000D01*
X170180000Y-109890000D02*
X170180000Y-110120000D01*
X171015000Y-108405000D02*
X170615000Y-108405000D01*
X171015000Y-111305000D02*
X170615000Y-111305000D01*
X170180000Y-89270000D02*
X170180000Y-89800000D01*
X168910000Y-89570000D02*
X168910000Y-89800000D01*
X169745000Y-88085000D02*
X169345000Y-88085000D01*
X169745000Y-90985000D02*
X169345000Y-90985000D01*
D10*
G36*
X160020000Y-117475000D02*
X160020000Y-118745000D01*
X160655000Y-118110000D01*
X160020000Y-117475000D01*
G37*
X160020000Y-117475000D02*
X160020000Y-118745000D01*
X160655000Y-118110000D01*
X160020000Y-117475000D01*
D16*
X160401000Y-98171000D02*
X164719000Y-98171000D01*
X164719000Y-98171000D02*
X164719000Y-102489000D01*
X164719000Y-102489000D02*
X163830000Y-102489000D01*
X163830000Y-102489000D02*
X163830000Y-102870000D01*
X160401000Y-98171000D02*
X160401000Y-99060000D01*
X160401000Y-99060000D02*
X160020000Y-99060000D01*
X164719000Y-133731000D02*
X164719000Y-138049000D01*
X164719000Y-138049000D02*
X160401000Y-138049000D01*
X160401000Y-138049000D02*
X160401000Y-137160000D01*
X160401000Y-137160000D02*
X160020000Y-137160000D01*
X164719000Y-133731000D02*
X163830000Y-133731000D01*
X163830000Y-133731000D02*
X163830000Y-133350000D01*
X124841000Y-102489000D02*
X124841000Y-98171000D01*
X124841000Y-98171000D02*
X129159000Y-98171000D01*
X129159000Y-98171000D02*
X129159000Y-99060000D01*
X129159000Y-99060000D02*
X129540000Y-99060000D01*
X124841000Y-102489000D02*
X125730000Y-102489000D01*
X125730000Y-102489000D02*
X125730000Y-102870000D01*
X129159000Y-138049000D02*
X124841000Y-138049000D01*
X124841000Y-138049000D02*
X124841000Y-133731000D01*
X124841000Y-133731000D02*
X125730000Y-133731000D01*
X125730000Y-133731000D02*
X125730000Y-133350000D01*
X129159000Y-138049000D02*
X129159000Y-137160000D01*
X129159000Y-137160000D02*
X129540000Y-137160000D01*
D19*
X129413000Y-101092000D02*
X160147000Y-101092000D01*
X161798000Y-102743000D02*
X161798000Y-133477000D01*
X160147000Y-135128000D02*
X129413000Y-135128000D01*
X127762000Y-133477000D02*
X127762000Y-102743000D01*
D10*
G36*
X165100000Y-100965000D02*
X165100000Y-102235000D01*
X165735000Y-101600000D01*
X165100000Y-100965000D01*
G37*
X165100000Y-100965000D02*
X165100000Y-102235000D01*
X165735000Y-101600000D01*
X165100000Y-100965000D01*
D20*
G36*
X126481840Y-83052920D02*
X126502160Y-83042760D01*
X126545340Y-83014820D01*
X126608840Y-82971640D01*
X126685040Y-82923380D01*
X126758700Y-82870040D01*
X126822200Y-82829400D01*
X126865380Y-82801460D01*
X126883160Y-82791300D01*
X126893320Y-82796380D01*
X126928880Y-82811620D01*
X126982220Y-82839560D01*
X127010160Y-82854800D01*
X127058420Y-82875120D01*
X127083820Y-82880200D01*
X127086360Y-82872580D01*
X127104140Y-82837020D01*
X127132080Y-82773520D01*
X127167640Y-82692240D01*
X127208280Y-82595720D01*
X127254000Y-82491580D01*
X127297180Y-82384900D01*
X127340360Y-82283300D01*
X127375920Y-82191860D01*
X127406400Y-82118200D01*
X127426720Y-82067400D01*
X127434340Y-82044540D01*
X127431800Y-82039460D01*
X127406400Y-82016600D01*
X127365760Y-81986120D01*
X127276860Y-81912460D01*
X127185420Y-81800700D01*
X127132080Y-81673700D01*
X127114300Y-81534000D01*
X127129540Y-81407000D01*
X127180340Y-81280000D01*
X127266700Y-81168240D01*
X127373380Y-81084420D01*
X127497840Y-81033620D01*
X127635000Y-81015840D01*
X127767080Y-81031080D01*
X127894080Y-81081880D01*
X128005840Y-81165700D01*
X128054100Y-81221580D01*
X128120140Y-81335880D01*
X128155700Y-81457800D01*
X128160780Y-81488280D01*
X128155700Y-81620360D01*
X128115060Y-81747360D01*
X128043940Y-81861660D01*
X127947420Y-81955640D01*
X127934720Y-81965800D01*
X127889000Y-81998820D01*
X127858520Y-82024220D01*
X127835660Y-82042000D01*
X128005840Y-82453480D01*
X128033780Y-82516980D01*
X128079500Y-82628740D01*
X128120140Y-82725260D01*
X128153160Y-82804000D01*
X128176020Y-82854800D01*
X128186180Y-82875120D01*
X128186180Y-82877660D01*
X128201420Y-82880200D01*
X128234440Y-82867500D01*
X128290320Y-82839560D01*
X128328420Y-82821780D01*
X128371600Y-82798920D01*
X128391920Y-82791300D01*
X128407160Y-82801460D01*
X128450340Y-82826860D01*
X128511300Y-82867500D01*
X128584960Y-82918300D01*
X128653540Y-82966560D01*
X128719580Y-83009740D01*
X128765300Y-83037680D01*
X128788160Y-83050380D01*
X128790700Y-83050380D01*
X128811020Y-83040220D01*
X128849120Y-83009740D01*
X128905000Y-82956400D01*
X128983740Y-82877660D01*
X128996440Y-82864960D01*
X129059940Y-82798920D01*
X129113280Y-82743040D01*
X129148840Y-82704940D01*
X129161540Y-82687160D01*
X129161540Y-82687160D01*
X129148840Y-82664300D01*
X129120900Y-82618580D01*
X129077720Y-82552540D01*
X129026920Y-82476340D01*
X128889760Y-82278220D01*
X128963420Y-82092800D01*
X128986280Y-82036920D01*
X129016760Y-81965800D01*
X129037080Y-81917540D01*
X129049780Y-81894680D01*
X129070100Y-81889600D01*
X129120900Y-81876900D01*
X129194560Y-81861660D01*
X129283460Y-81843880D01*
X129367280Y-81828640D01*
X129443480Y-81815940D01*
X129496820Y-81803240D01*
X129522220Y-81798160D01*
X129527300Y-81795620D01*
X129532380Y-81782920D01*
X129534920Y-81757520D01*
X129537460Y-81711800D01*
X129537460Y-81640680D01*
X129537460Y-81534000D01*
X129537460Y-81526380D01*
X129537460Y-81424780D01*
X129534920Y-81346040D01*
X129532380Y-81292700D01*
X129529840Y-81272380D01*
X129529840Y-81272380D01*
X129506980Y-81264760D01*
X129451100Y-81254600D01*
X129377440Y-81239360D01*
X129286000Y-81221580D01*
X129280920Y-81221580D01*
X129189480Y-81203800D01*
X129115820Y-81188560D01*
X129062480Y-81175860D01*
X129039620Y-81168240D01*
X129034540Y-81163160D01*
X129016760Y-81127600D01*
X128991360Y-81071720D01*
X128960880Y-81003140D01*
X128932940Y-80932020D01*
X128905000Y-80868520D01*
X128889760Y-80822800D01*
X128884680Y-80799940D01*
X128884680Y-80799940D01*
X128897380Y-80777080D01*
X128927860Y-80731360D01*
X128973580Y-80665320D01*
X129024380Y-80589120D01*
X129029460Y-80584040D01*
X129080260Y-80507840D01*
X129123440Y-80444340D01*
X129151380Y-80398620D01*
X129161540Y-80375760D01*
X129161540Y-80375760D01*
X129143760Y-80352900D01*
X129105660Y-80309720D01*
X129049780Y-80251300D01*
X128983740Y-80185260D01*
X128960880Y-80162400D01*
X128887220Y-80091280D01*
X128836420Y-80043020D01*
X128803400Y-80017620D01*
X128788160Y-80012540D01*
X128788160Y-80012540D01*
X128765300Y-80027780D01*
X128717040Y-80058260D01*
X128651000Y-80103980D01*
X128574800Y-80154780D01*
X128569720Y-80159860D01*
X128493520Y-80210660D01*
X128430020Y-80253840D01*
X128384300Y-80284320D01*
X128363980Y-80294480D01*
X128361440Y-80294480D01*
X128330960Y-80286860D01*
X128277620Y-80266540D01*
X128209040Y-80241140D01*
X128140460Y-80213200D01*
X128074420Y-80185260D01*
X128026160Y-80164940D01*
X128005840Y-80152240D01*
X128003300Y-80149700D01*
X127995680Y-80121760D01*
X127982980Y-80065880D01*
X127967740Y-79987140D01*
X127949960Y-79893160D01*
X127947420Y-79880460D01*
X127929640Y-79789020D01*
X127914400Y-79712820D01*
X127904240Y-79662020D01*
X127899160Y-79641700D01*
X127886460Y-79636620D01*
X127840740Y-79634080D01*
X127774700Y-79631540D01*
X127690880Y-79631540D01*
X127607060Y-79631540D01*
X127523240Y-79634080D01*
X127452120Y-79636620D01*
X127398780Y-79639160D01*
X127378460Y-79644240D01*
X127378460Y-79644240D01*
X127368300Y-79674720D01*
X127358140Y-79730600D01*
X127340360Y-79809340D01*
X127322580Y-79903320D01*
X127320040Y-79918560D01*
X127302260Y-80010000D01*
X127287020Y-80083660D01*
X127276860Y-80134460D01*
X127271780Y-80154780D01*
X127261620Y-80159860D01*
X127226060Y-80175100D01*
X127165100Y-80200500D01*
X127088900Y-80230980D01*
X126913640Y-80302100D01*
X126700280Y-80154780D01*
X126682500Y-80142080D01*
X126603760Y-80091280D01*
X126540260Y-80048100D01*
X126497080Y-80020160D01*
X126479300Y-80010000D01*
X126476760Y-80010000D01*
X126456440Y-80027780D01*
X126413260Y-80068420D01*
X126357380Y-80124300D01*
X126288800Y-80192880D01*
X126238000Y-80241140D01*
X126179580Y-80302100D01*
X126144020Y-80342740D01*
X126123700Y-80368140D01*
X126116080Y-80383380D01*
X126116080Y-80393540D01*
X126131320Y-80416400D01*
X126161800Y-80462120D01*
X126207520Y-80528160D01*
X126258320Y-80604360D01*
X126301500Y-80665320D01*
X126347220Y-80738980D01*
X126377700Y-80789780D01*
X126387860Y-80815180D01*
X126385320Y-80825340D01*
X126370080Y-80865980D01*
X126344680Y-80929480D01*
X126314200Y-81005680D01*
X126238000Y-81175860D01*
X126128780Y-81196180D01*
X126060200Y-81208880D01*
X125966220Y-81226660D01*
X125877320Y-81244440D01*
X125735080Y-81272380D01*
X125730000Y-81785460D01*
X125752860Y-81795620D01*
X125773180Y-81800700D01*
X125826520Y-81813400D01*
X125900180Y-81828640D01*
X125986540Y-81843880D01*
X126062740Y-81859120D01*
X126136400Y-81871820D01*
X126192280Y-81881980D01*
X126215140Y-81887060D01*
X126222760Y-81894680D01*
X126240540Y-81932780D01*
X126265940Y-81991200D01*
X126296420Y-82059780D01*
X126326900Y-82133440D01*
X126354840Y-82199480D01*
X126372620Y-82250280D01*
X126380240Y-82275680D01*
X126367540Y-82296000D01*
X126339600Y-82339180D01*
X126298960Y-82402680D01*
X126248160Y-82478880D01*
X126197360Y-82552540D01*
X126154180Y-82616040D01*
X126123700Y-82661760D01*
X126111000Y-82684620D01*
X126116080Y-82697320D01*
X126146560Y-82732880D01*
X126202440Y-82793840D01*
X126286260Y-82875120D01*
X126301500Y-82887820D01*
X126367540Y-82953860D01*
X126423420Y-83004660D01*
X126464060Y-83040220D01*
X126481840Y-83052920D01*
X126481840Y-83052920D01*
G37*
X126481840Y-83052920D02*
X126502160Y-83042760D01*
X126545340Y-83014820D01*
X126608840Y-82971640D01*
X126685040Y-82923380D01*
X126758700Y-82870040D01*
X126822200Y-82829400D01*
X126865380Y-82801460D01*
X126883160Y-82791300D01*
X126893320Y-82796380D01*
X126928880Y-82811620D01*
X126982220Y-82839560D01*
X127010160Y-82854800D01*
X127058420Y-82875120D01*
X127083820Y-82880200D01*
X127086360Y-82872580D01*
X127104140Y-82837020D01*
X127132080Y-82773520D01*
X127167640Y-82692240D01*
X127208280Y-82595720D01*
X127254000Y-82491580D01*
X127297180Y-82384900D01*
X127340360Y-82283300D01*
X127375920Y-82191860D01*
X127406400Y-82118200D01*
X127426720Y-82067400D01*
X127434340Y-82044540D01*
X127431800Y-82039460D01*
X127406400Y-82016600D01*
X127365760Y-81986120D01*
X127276860Y-81912460D01*
X127185420Y-81800700D01*
X127132080Y-81673700D01*
X127114300Y-81534000D01*
X127129540Y-81407000D01*
X127180340Y-81280000D01*
X127266700Y-81168240D01*
X127373380Y-81084420D01*
X127497840Y-81033620D01*
X127635000Y-81015840D01*
X127767080Y-81031080D01*
X127894080Y-81081880D01*
X128005840Y-81165700D01*
X128054100Y-81221580D01*
X128120140Y-81335880D01*
X128155700Y-81457800D01*
X128160780Y-81488280D01*
X128155700Y-81620360D01*
X128115060Y-81747360D01*
X128043940Y-81861660D01*
X127947420Y-81955640D01*
X127934720Y-81965800D01*
X127889000Y-81998820D01*
X127858520Y-82024220D01*
X127835660Y-82042000D01*
X128005840Y-82453480D01*
X128033780Y-82516980D01*
X128079500Y-82628740D01*
X128120140Y-82725260D01*
X128153160Y-82804000D01*
X128176020Y-82854800D01*
X128186180Y-82875120D01*
X128186180Y-82877660D01*
X128201420Y-82880200D01*
X128234440Y-82867500D01*
X128290320Y-82839560D01*
X128328420Y-82821780D01*
X128371600Y-82798920D01*
X128391920Y-82791300D01*
X128407160Y-82801460D01*
X128450340Y-82826860D01*
X128511300Y-82867500D01*
X128584960Y-82918300D01*
X128653540Y-82966560D01*
X128719580Y-83009740D01*
X128765300Y-83037680D01*
X128788160Y-83050380D01*
X128790700Y-83050380D01*
X128811020Y-83040220D01*
X128849120Y-83009740D01*
X128905000Y-82956400D01*
X128983740Y-82877660D01*
X128996440Y-82864960D01*
X129059940Y-82798920D01*
X129113280Y-82743040D01*
X129148840Y-82704940D01*
X129161540Y-82687160D01*
X129161540Y-82687160D01*
X129148840Y-82664300D01*
X129120900Y-82618580D01*
X129077720Y-82552540D01*
X129026920Y-82476340D01*
X128889760Y-82278220D01*
X128963420Y-82092800D01*
X128986280Y-82036920D01*
X129016760Y-81965800D01*
X129037080Y-81917540D01*
X129049780Y-81894680D01*
X129070100Y-81889600D01*
X129120900Y-81876900D01*
X129194560Y-81861660D01*
X129283460Y-81843880D01*
X129367280Y-81828640D01*
X129443480Y-81815940D01*
X129496820Y-81803240D01*
X129522220Y-81798160D01*
X129527300Y-81795620D01*
X129532380Y-81782920D01*
X129534920Y-81757520D01*
X129537460Y-81711800D01*
X129537460Y-81640680D01*
X129537460Y-81534000D01*
X129537460Y-81526380D01*
X129537460Y-81424780D01*
X129534920Y-81346040D01*
X129532380Y-81292700D01*
X129529840Y-81272380D01*
X129529840Y-81272380D01*
X129506980Y-81264760D01*
X129451100Y-81254600D01*
X129377440Y-81239360D01*
X129286000Y-81221580D01*
X129280920Y-81221580D01*
X129189480Y-81203800D01*
X129115820Y-81188560D01*
X129062480Y-81175860D01*
X129039620Y-81168240D01*
X129034540Y-81163160D01*
X129016760Y-81127600D01*
X128991360Y-81071720D01*
X128960880Y-81003140D01*
X128932940Y-80932020D01*
X128905000Y-80868520D01*
X128889760Y-80822800D01*
X128884680Y-80799940D01*
X128884680Y-80799940D01*
X128897380Y-80777080D01*
X128927860Y-80731360D01*
X128973580Y-80665320D01*
X129024380Y-80589120D01*
X129029460Y-80584040D01*
X129080260Y-80507840D01*
X129123440Y-80444340D01*
X129151380Y-80398620D01*
X129161540Y-80375760D01*
X129161540Y-80375760D01*
X129143760Y-80352900D01*
X129105660Y-80309720D01*
X129049780Y-80251300D01*
X128983740Y-80185260D01*
X128960880Y-80162400D01*
X128887220Y-80091280D01*
X128836420Y-80043020D01*
X128803400Y-80017620D01*
X128788160Y-80012540D01*
X128788160Y-80012540D01*
X128765300Y-80027780D01*
X128717040Y-80058260D01*
X128651000Y-80103980D01*
X128574800Y-80154780D01*
X128569720Y-80159860D01*
X128493520Y-80210660D01*
X128430020Y-80253840D01*
X128384300Y-80284320D01*
X128363980Y-80294480D01*
X128361440Y-80294480D01*
X128330960Y-80286860D01*
X128277620Y-80266540D01*
X128209040Y-80241140D01*
X128140460Y-80213200D01*
X128074420Y-80185260D01*
X128026160Y-80164940D01*
X128005840Y-80152240D01*
X128003300Y-80149700D01*
X127995680Y-80121760D01*
X127982980Y-80065880D01*
X127967740Y-79987140D01*
X127949960Y-79893160D01*
X127947420Y-79880460D01*
X127929640Y-79789020D01*
X127914400Y-79712820D01*
X127904240Y-79662020D01*
X127899160Y-79641700D01*
X127886460Y-79636620D01*
X127840740Y-79634080D01*
X127774700Y-79631540D01*
X127690880Y-79631540D01*
X127607060Y-79631540D01*
X127523240Y-79634080D01*
X127452120Y-79636620D01*
X127398780Y-79639160D01*
X127378460Y-79644240D01*
X127378460Y-79644240D01*
X127368300Y-79674720D01*
X127358140Y-79730600D01*
X127340360Y-79809340D01*
X127322580Y-79903320D01*
X127320040Y-79918560D01*
X127302260Y-80010000D01*
X127287020Y-80083660D01*
X127276860Y-80134460D01*
X127271780Y-80154780D01*
X127261620Y-80159860D01*
X127226060Y-80175100D01*
X127165100Y-80200500D01*
X127088900Y-80230980D01*
X126913640Y-80302100D01*
X126700280Y-80154780D01*
X126682500Y-80142080D01*
X126603760Y-80091280D01*
X126540260Y-80048100D01*
X126497080Y-80020160D01*
X126479300Y-80010000D01*
X126476760Y-80010000D01*
X126456440Y-80027780D01*
X126413260Y-80068420D01*
X126357380Y-80124300D01*
X126288800Y-80192880D01*
X126238000Y-80241140D01*
X126179580Y-80302100D01*
X126144020Y-80342740D01*
X126123700Y-80368140D01*
X126116080Y-80383380D01*
X126116080Y-80393540D01*
X126131320Y-80416400D01*
X126161800Y-80462120D01*
X126207520Y-80528160D01*
X126258320Y-80604360D01*
X126301500Y-80665320D01*
X126347220Y-80738980D01*
X126377700Y-80789780D01*
X126387860Y-80815180D01*
X126385320Y-80825340D01*
X126370080Y-80865980D01*
X126344680Y-80929480D01*
X126314200Y-81005680D01*
X126238000Y-81175860D01*
X126128780Y-81196180D01*
X126060200Y-81208880D01*
X125966220Y-81226660D01*
X125877320Y-81244440D01*
X125735080Y-81272380D01*
X125730000Y-81785460D01*
X125752860Y-81795620D01*
X125773180Y-81800700D01*
X125826520Y-81813400D01*
X125900180Y-81828640D01*
X125986540Y-81843880D01*
X126062740Y-81859120D01*
X126136400Y-81871820D01*
X126192280Y-81881980D01*
X126215140Y-81887060D01*
X126222760Y-81894680D01*
X126240540Y-81932780D01*
X126265940Y-81991200D01*
X126296420Y-82059780D01*
X126326900Y-82133440D01*
X126354840Y-82199480D01*
X126372620Y-82250280D01*
X126380240Y-82275680D01*
X126367540Y-82296000D01*
X126339600Y-82339180D01*
X126298960Y-82402680D01*
X126248160Y-82478880D01*
X126197360Y-82552540D01*
X126154180Y-82616040D01*
X126123700Y-82661760D01*
X126111000Y-82684620D01*
X126116080Y-82697320D01*
X126146560Y-82732880D01*
X126202440Y-82793840D01*
X126286260Y-82875120D01*
X126301500Y-82887820D01*
X126367540Y-82953860D01*
X126423420Y-83004660D01*
X126464060Y-83040220D01*
X126481840Y-83052920D01*
D15*
X115570000Y-123190000D02*
X118110000Y-123190000D01*
X118110000Y-123190000D02*
X118110000Y-125730000D01*
X118110000Y-125730000D02*
X115570000Y-125730000D01*
X115570000Y-125730000D02*
X115570000Y-123190000D01*
X155448000Y-90424000D02*
X151892000Y-90424000D01*
X151892000Y-90424000D02*
X151892000Y-88646000D01*
X151892000Y-88646000D02*
X155448000Y-88646000D01*
X155448000Y-88646000D02*
X155448000Y-90424000D01*
X123514228Y-81956399D02*
X122800921Y-81993782D01*
X122655767Y-81953704D01*
X122555676Y-81863581D01*
X122500645Y-81723412D01*
X122495661Y-81628304D01*
X123534166Y-82336829D02*
X123566564Y-82955029D01*
X123168689Y-82642089D01*
X123176165Y-82784751D01*
X123133596Y-82882351D01*
X123088534Y-82932397D01*
X122995918Y-82984935D01*
X122758149Y-82997396D01*
X122660550Y-82954827D01*
X122610504Y-82909765D01*
X122557966Y-82817150D01*
X122543013Y-82531826D01*
X122585582Y-82434227D01*
X122630643Y-82384181D01*
X147923381Y-89138190D02*
X148637667Y-89138190D01*
X148780524Y-89185810D01*
X148875762Y-89281048D01*
X148923381Y-89423905D01*
X148923381Y-89519143D01*
X148923381Y-88138190D02*
X148923381Y-88709619D01*
X148923381Y-88423905D02*
X147923381Y-88423905D01*
X148066238Y-88519143D01*
X148161476Y-88614381D01*
X148209095Y-88709619D01*
X173627021Y-87270877D02*
X174338588Y-87333131D01*
X174476752Y-87393021D01*
X174563327Y-87496197D01*
X174598314Y-87642661D01*
X174590013Y-87737536D01*
X174107914Y-86691538D02*
X174052176Y-86782264D01*
X174000588Y-86825551D01*
X173901562Y-86864688D01*
X173854124Y-86860538D01*
X173763399Y-86804800D01*
X173720111Y-86753212D01*
X173680974Y-86654186D01*
X173697575Y-86464434D01*
X173753314Y-86373708D01*
X173804902Y-86330421D01*
X173903927Y-86291284D01*
X173951365Y-86295434D01*
X174042091Y-86351172D01*
X174085378Y-86402760D01*
X174124515Y-86501786D01*
X174107914Y-86691538D01*
X174147051Y-86790564D01*
X174190339Y-86842152D01*
X174281065Y-86897891D01*
X174470816Y-86914492D01*
X174569842Y-86875354D01*
X174621430Y-86832067D01*
X174677169Y-86741342D01*
X174693770Y-86551589D01*
X174654633Y-86452564D01*
X174611345Y-86400976D01*
X174520620Y-86345237D01*
X174330869Y-86328636D01*
X174231842Y-86367773D01*
X174180254Y-86411061D01*
X174124515Y-86501786D01*
X172815381Y-150987190D02*
X173529667Y-150987190D01*
X173672524Y-151034810D01*
X173767762Y-151130048D01*
X173815381Y-151272905D01*
X173815381Y-151368143D01*
X172910619Y-150558619D02*
X172863000Y-150511000D01*
X172815381Y-150415762D01*
X172815381Y-150177666D01*
X172863000Y-150082428D01*
X172910619Y-150034809D01*
X173005857Y-149987190D01*
X173101095Y-149987190D01*
X173243952Y-150034809D01*
X173815381Y-150606238D01*
X173815381Y-149987190D01*
X171783381Y-114252476D02*
X171307190Y-114585810D01*
X171783381Y-114823905D02*
X170783381Y-114823905D01*
X170783381Y-114442952D01*
X170831000Y-114347714D01*
X170878619Y-114300095D01*
X170973857Y-114252476D01*
X171116714Y-114252476D01*
X171211952Y-114300095D01*
X171259571Y-114347714D01*
X171307190Y-114442952D01*
X171307190Y-114823905D01*
X170783381Y-113919143D02*
X170783381Y-113300095D01*
X171164333Y-113633429D01*
X171164333Y-113490571D01*
X171211952Y-113395333D01*
X171259571Y-113347714D01*
X171354810Y-113300095D01*
X171592905Y-113300095D01*
X171688143Y-113347714D01*
X171735762Y-113395333D01*
X171783381Y-113490571D01*
X171783381Y-113776286D01*
X171735762Y-113871524D01*
X171688143Y-113919143D01*
X168370381Y-129143190D02*
X169084667Y-129143190D01*
X169227524Y-129190810D01*
X169322762Y-129286048D01*
X169370381Y-129428905D01*
X169370381Y-129524143D01*
X168370381Y-128762238D02*
X168370381Y-128095571D01*
X169370381Y-128524143D01*
X149621810Y-141954381D02*
X149621810Y-142668667D01*
X149574190Y-142811524D01*
X149478952Y-142906762D01*
X149336095Y-142954381D01*
X149240857Y-142954381D01*
X150621810Y-142954381D02*
X150050381Y-142954381D01*
X150336095Y-142954381D02*
X150336095Y-141954381D01*
X150240857Y-142097238D01*
X150145619Y-142192476D01*
X150050381Y-142240095D01*
X151240857Y-141954381D02*
X151336096Y-141954381D01*
X151431334Y-142002000D01*
X151478953Y-142049619D01*
X151526572Y-142144857D01*
X151574191Y-142335333D01*
X151574191Y-142573429D01*
X151526572Y-142763905D01*
X151478953Y-142859143D01*
X151431334Y-142906762D01*
X151336096Y-142954381D01*
X151240857Y-142954381D01*
X151145619Y-142906762D01*
X151098000Y-142859143D01*
X151050381Y-142763905D01*
X151002762Y-142573429D01*
X151002762Y-142335333D01*
X151050381Y-142144857D01*
X151098000Y-142049619D01*
X151145619Y-142002000D01*
X151240857Y-141954381D01*
X163242524Y-88503143D02*
X163194905Y-88550762D01*
X163052048Y-88598381D01*
X162956810Y-88598381D01*
X162813952Y-88550762D01*
X162718714Y-88455524D01*
X162671095Y-88360286D01*
X162623476Y-88169810D01*
X162623476Y-88026952D01*
X162671095Y-87836476D01*
X162718714Y-87741238D01*
X162813952Y-87646000D01*
X162956810Y-87598381D01*
X163052048Y-87598381D01*
X163194905Y-87646000D01*
X163242524Y-87693619D01*
X164194905Y-88598381D02*
X163623476Y-88598381D01*
X163909190Y-88598381D02*
X163909190Y-87598381D01*
X163813952Y-87741238D01*
X163718714Y-87836476D01*
X163623476Y-87884095D01*
X164813952Y-87598381D02*
X164909191Y-87598381D01*
X165004429Y-87646000D01*
X165052048Y-87693619D01*
X165099667Y-87788857D01*
X165147286Y-87979333D01*
X165147286Y-88217429D01*
X165099667Y-88407905D01*
X165052048Y-88503143D01*
X165004429Y-88550762D01*
X164909191Y-88598381D01*
X164813952Y-88598381D01*
X164718714Y-88550762D01*
X164671095Y-88503143D01*
X164623476Y-88407905D01*
X164575857Y-88217429D01*
X164575857Y-87979333D01*
X164623476Y-87788857D01*
X164671095Y-87693619D01*
X164718714Y-87646000D01*
X164813952Y-87598381D01*
X159623143Y-90630476D02*
X159670762Y-90678095D01*
X159718381Y-90820952D01*
X159718381Y-90916190D01*
X159670762Y-91059048D01*
X159575524Y-91154286D01*
X159480286Y-91201905D01*
X159289810Y-91249524D01*
X159146952Y-91249524D01*
X158956476Y-91201905D01*
X158861238Y-91154286D01*
X158766000Y-91059048D01*
X158718381Y-90916190D01*
X158718381Y-90820952D01*
X158766000Y-90678095D01*
X158813619Y-90630476D01*
X159718381Y-89678095D02*
X159718381Y-90249524D01*
X159718381Y-89963810D02*
X158718381Y-89963810D01*
X158861238Y-90059048D01*
X158956476Y-90154286D01*
X159004095Y-90249524D01*
X159718381Y-88725714D02*
X159718381Y-89297143D01*
X159718381Y-89011429D02*
X158718381Y-89011429D01*
X158861238Y-89106667D01*
X158956476Y-89201905D01*
X159004095Y-89297143D01*
X167751143Y-93170476D02*
X167798762Y-93218095D01*
X167846381Y-93360952D01*
X167846381Y-93456190D01*
X167798762Y-93599048D01*
X167703524Y-93694286D01*
X167608286Y-93741905D01*
X167417810Y-93789524D01*
X167274952Y-93789524D01*
X167084476Y-93741905D01*
X166989238Y-93694286D01*
X166894000Y-93599048D01*
X166846381Y-93456190D01*
X166846381Y-93360952D01*
X166894000Y-93218095D01*
X166941619Y-93170476D01*
X167846381Y-92218095D02*
X167846381Y-92789524D01*
X167846381Y-92503810D02*
X166846381Y-92503810D01*
X166989238Y-92599048D01*
X167084476Y-92694286D01*
X167132095Y-92789524D01*
X166941619Y-91837143D02*
X166894000Y-91789524D01*
X166846381Y-91694286D01*
X166846381Y-91456190D01*
X166894000Y-91360952D01*
X166941619Y-91313333D01*
X167036857Y-91265714D01*
X167132095Y-91265714D01*
X167274952Y-91313333D01*
X167846381Y-91884762D01*
X167846381Y-91265714D01*
X156067095Y-89503381D02*
X156067095Y-90312905D01*
X156114714Y-90408143D01*
X156162333Y-90455762D01*
X156257571Y-90503381D01*
X156448048Y-90503381D01*
X156543286Y-90455762D01*
X156590905Y-90408143D01*
X156638524Y-90312905D01*
X156638524Y-89503381D01*
X157590905Y-89503381D02*
X157114714Y-89503381D01*
X157067095Y-89979571D01*
X157114714Y-89931952D01*
X157209952Y-89884333D01*
X157448048Y-89884333D01*
X157543286Y-89931952D01*
X157590905Y-89979571D01*
X157638524Y-90074810D01*
X157638524Y-90312905D01*
X157590905Y-90408143D01*
X157543286Y-90455762D01*
X157448048Y-90503381D01*
X157209952Y-90503381D01*
X157114714Y-90455762D01*
X157067095Y-90408143D01*
X174482143Y-107648476D02*
X174529762Y-107696095D01*
X174577381Y-107838952D01*
X174577381Y-107934190D01*
X174529762Y-108077048D01*
X174434524Y-108172286D01*
X174339286Y-108219905D01*
X174148810Y-108267524D01*
X174005952Y-108267524D01*
X173815476Y-108219905D01*
X173720238Y-108172286D01*
X173625000Y-108077048D01*
X173577381Y-107934190D01*
X173577381Y-107838952D01*
X173625000Y-107696095D01*
X173672619Y-107648476D01*
X174577381Y-106696095D02*
X174577381Y-107267524D01*
X174577381Y-106981810D02*
X173577381Y-106981810D01*
X173720238Y-107077048D01*
X173815476Y-107172286D01*
X173863095Y-107267524D01*
X173577381Y-106362762D02*
X173577381Y-105743714D01*
X173958333Y-106077048D01*
X173958333Y-105934190D01*
X174005952Y-105838952D01*
X174053571Y-105791333D01*
X174148810Y-105743714D01*
X174386905Y-105743714D01*
X174482143Y-105791333D01*
X174529762Y-105838952D01*
X174577381Y-105934190D01*
X174577381Y-106219905D01*
X174529762Y-106315143D01*
X174482143Y-106362762D01*
X122396381Y-131714905D02*
X123205905Y-131714905D01*
X123301143Y-131667286D01*
X123348762Y-131619667D01*
X123396381Y-131524429D01*
X123396381Y-131333952D01*
X123348762Y-131238714D01*
X123301143Y-131191095D01*
X123205905Y-131143476D01*
X122396381Y-131143476D01*
X122396381Y-130762524D02*
X122396381Y-130095857D01*
X123396381Y-130524429D01*
X129809810Y-90519381D02*
X129809810Y-91233667D01*
X129762190Y-91376524D01*
X129666952Y-91471762D01*
X129524095Y-91519381D01*
X129428857Y-91519381D01*
X130333619Y-91519381D02*
X130524095Y-91519381D01*
X130619334Y-91471762D01*
X130666953Y-91424143D01*
X130762191Y-91281286D01*
X130809810Y-91090810D01*
X130809810Y-90709857D01*
X130762191Y-90614619D01*
X130714572Y-90567000D01*
X130619334Y-90519381D01*
X130428857Y-90519381D01*
X130333619Y-90567000D01*
X130286000Y-90614619D01*
X130238381Y-90709857D01*
X130238381Y-90947952D01*
X130286000Y-91043190D01*
X130333619Y-91090810D01*
X130428857Y-91138429D01*
X130619334Y-91138429D01*
X130714572Y-91090810D01*
X130762191Y-91043190D01*
X130809810Y-90947952D01*
X113522095Y-90884381D02*
X113522095Y-89884381D01*
X113760190Y-89884381D01*
X113903048Y-89932000D01*
X113998286Y-90027238D01*
X114045905Y-90122476D01*
X114093524Y-90312952D01*
X114093524Y-90455810D01*
X114045905Y-90646286D01*
X113998286Y-90741524D01*
X113903048Y-90836762D01*
X113760190Y-90884381D01*
X113522095Y-90884381D01*
X114474476Y-89979619D02*
X114522095Y-89932000D01*
X114617333Y-89884381D01*
X114855429Y-89884381D01*
X114950667Y-89932000D01*
X114998286Y-89979619D01*
X115045905Y-90074857D01*
X115045905Y-90170095D01*
X114998286Y-90312952D01*
X114426857Y-90884381D01*
X115045905Y-90884381D01*
X113649095Y-107267381D02*
X113649095Y-106267381D01*
X113887190Y-106267381D01*
X114030048Y-106315000D01*
X114125286Y-106410238D01*
X114172905Y-106505476D01*
X114220524Y-106695952D01*
X114220524Y-106838810D01*
X114172905Y-107029286D01*
X114125286Y-107124524D01*
X114030048Y-107219762D01*
X113887190Y-107267381D01*
X113649095Y-107267381D01*
X115172905Y-107267381D02*
X114601476Y-107267381D01*
X114887190Y-107267381D02*
X114887190Y-106267381D01*
X114791952Y-106410238D01*
X114696714Y-106505476D01*
X114601476Y-106553095D01*
X110791524Y-105013143D02*
X110743905Y-105060762D01*
X110601048Y-105108381D01*
X110505810Y-105108381D01*
X110362952Y-105060762D01*
X110267714Y-104965524D01*
X110220095Y-104870286D01*
X110172476Y-104679810D01*
X110172476Y-104536952D01*
X110220095Y-104346476D01*
X110267714Y-104251238D01*
X110362952Y-104156000D01*
X110505810Y-104108381D01*
X110601048Y-104108381D01*
X110743905Y-104156000D01*
X110791524Y-104203619D01*
X111267714Y-105108381D02*
X111458190Y-105108381D01*
X111553429Y-105060762D01*
X111601048Y-105013143D01*
X111696286Y-104870286D01*
X111743905Y-104679810D01*
X111743905Y-104298857D01*
X111696286Y-104203619D01*
X111648667Y-104156000D01*
X111553429Y-104108381D01*
X111362952Y-104108381D01*
X111267714Y-104156000D01*
X111220095Y-104203619D01*
X111172476Y-104298857D01*
X111172476Y-104536952D01*
X111220095Y-104632190D01*
X111267714Y-104679810D01*
X111362952Y-104727429D01*
X111553429Y-104727429D01*
X111648667Y-104679810D01*
X111696286Y-104632190D01*
X111743905Y-104536952D01*
X113839524Y-99298143D02*
X113791905Y-99345762D01*
X113649048Y-99393381D01*
X113553810Y-99393381D01*
X113410952Y-99345762D01*
X113315714Y-99250524D01*
X113268095Y-99155286D01*
X113220476Y-98964810D01*
X113220476Y-98821952D01*
X113268095Y-98631476D01*
X113315714Y-98536238D01*
X113410952Y-98441000D01*
X113553810Y-98393381D01*
X113649048Y-98393381D01*
X113791905Y-98441000D01*
X113839524Y-98488619D01*
X114172857Y-98393381D02*
X114839524Y-98393381D01*
X114410952Y-99393381D01*
X113712524Y-115808143D02*
X113664905Y-115855762D01*
X113522048Y-115903381D01*
X113426810Y-115903381D01*
X113283952Y-115855762D01*
X113188714Y-115760524D01*
X113141095Y-115665286D01*
X113093476Y-115474810D01*
X113093476Y-115331952D01*
X113141095Y-115141476D01*
X113188714Y-115046238D01*
X113283952Y-114951000D01*
X113426810Y-114903381D01*
X113522048Y-114903381D01*
X113664905Y-114951000D01*
X113712524Y-114998619D01*
X114283952Y-115331952D02*
X114188714Y-115284333D01*
X114141095Y-115236714D01*
X114093476Y-115141476D01*
X114093476Y-115093857D01*
X114141095Y-114998619D01*
X114188714Y-114951000D01*
X114283952Y-114903381D01*
X114474429Y-114903381D01*
X114569667Y-114951000D01*
X114617286Y-114998619D01*
X114664905Y-115093857D01*
X114664905Y-115141476D01*
X114617286Y-115236714D01*
X114569667Y-115284333D01*
X114474429Y-115331952D01*
X114283952Y-115331952D01*
X114188714Y-115379571D01*
X114141095Y-115427190D01*
X114093476Y-115522429D01*
X114093476Y-115712905D01*
X114141095Y-115808143D01*
X114188714Y-115855762D01*
X114283952Y-115903381D01*
X114474429Y-115903381D01*
X114569667Y-115855762D01*
X114617286Y-115808143D01*
X114664905Y-115712905D01*
X114664905Y-115522429D01*
X114617286Y-115427190D01*
X114569667Y-115379571D01*
X114474429Y-115331952D01*
X111490143Y-120602476D02*
X111537762Y-120650095D01*
X111585381Y-120792952D01*
X111585381Y-120888190D01*
X111537762Y-121031048D01*
X111442524Y-121126286D01*
X111347286Y-121173905D01*
X111156810Y-121221524D01*
X111013952Y-121221524D01*
X110823476Y-121173905D01*
X110728238Y-121126286D01*
X110633000Y-121031048D01*
X110585381Y-120888190D01*
X110585381Y-120792952D01*
X110633000Y-120650095D01*
X110680619Y-120602476D01*
X110585381Y-119745333D02*
X110585381Y-119935810D01*
X110633000Y-120031048D01*
X110680619Y-120078667D01*
X110823476Y-120173905D01*
X111013952Y-120221524D01*
X111394905Y-120221524D01*
X111490143Y-120173905D01*
X111537762Y-120126286D01*
X111585381Y-120031048D01*
X111585381Y-119840571D01*
X111537762Y-119745333D01*
X111490143Y-119697714D01*
X111394905Y-119650095D01*
X111156810Y-119650095D01*
X111061571Y-119697714D01*
X111013952Y-119745333D01*
X110966333Y-119840571D01*
X110966333Y-120031048D01*
X111013952Y-120126286D01*
X111061571Y-120173905D01*
X111156810Y-120221524D01*
X122729524Y-99679143D02*
X122681905Y-99726762D01*
X122539048Y-99774381D01*
X122443810Y-99774381D01*
X122300952Y-99726762D01*
X122205714Y-99631524D01*
X122158095Y-99536286D01*
X122110476Y-99345810D01*
X122110476Y-99202952D01*
X122158095Y-99012476D01*
X122205714Y-98917238D01*
X122300952Y-98822000D01*
X122443810Y-98774381D01*
X122539048Y-98774381D01*
X122681905Y-98822000D01*
X122729524Y-98869619D01*
X123062857Y-98774381D02*
X123681905Y-98774381D01*
X123348571Y-99155333D01*
X123491429Y-99155333D01*
X123586667Y-99202952D01*
X123634286Y-99250571D01*
X123681905Y-99345810D01*
X123681905Y-99583905D01*
X123634286Y-99679143D01*
X123586667Y-99726762D01*
X123491429Y-99774381D01*
X123205714Y-99774381D01*
X123110476Y-99726762D01*
X123062857Y-99679143D01*
X123428143Y-115395476D02*
X123475762Y-115443095D01*
X123523381Y-115585952D01*
X123523381Y-115681190D01*
X123475762Y-115824048D01*
X123380524Y-115919286D01*
X123285286Y-115966905D01*
X123094810Y-116014524D01*
X122951952Y-116014524D01*
X122761476Y-115966905D01*
X122666238Y-115919286D01*
X122571000Y-115824048D01*
X122523381Y-115681190D01*
X122523381Y-115585952D01*
X122571000Y-115443095D01*
X122618619Y-115395476D01*
X122618619Y-115014524D02*
X122571000Y-114966905D01*
X122523381Y-114871667D01*
X122523381Y-114633571D01*
X122571000Y-114538333D01*
X122618619Y-114490714D01*
X122713857Y-114443095D01*
X122809095Y-114443095D01*
X122951952Y-114490714D01*
X123523381Y-115062143D01*
X123523381Y-114443095D01*
X111617143Y-142192476D02*
X111664762Y-142240095D01*
X111712381Y-142382952D01*
X111712381Y-142478190D01*
X111664762Y-142621048D01*
X111569524Y-142716286D01*
X111474286Y-142763905D01*
X111283810Y-142811524D01*
X111140952Y-142811524D01*
X110950476Y-142763905D01*
X110855238Y-142716286D01*
X110760000Y-142621048D01*
X110712381Y-142478190D01*
X110712381Y-142382952D01*
X110760000Y-142240095D01*
X110807619Y-142192476D01*
X111712381Y-141240095D02*
X111712381Y-141811524D01*
X111712381Y-141525810D02*
X110712381Y-141525810D01*
X110855238Y-141621048D01*
X110950476Y-141716286D01*
X110998095Y-141811524D01*
X111045714Y-140382952D02*
X111712381Y-140382952D01*
X110664762Y-140621048D02*
X111379048Y-140859143D01*
X111379048Y-140240095D01*
X102790524Y-142224143D02*
X102742905Y-142271762D01*
X102600048Y-142319381D01*
X102504810Y-142319381D01*
X102361952Y-142271762D01*
X102266714Y-142176524D01*
X102219095Y-142081286D01*
X102171476Y-141890810D01*
X102171476Y-141747952D01*
X102219095Y-141557476D01*
X102266714Y-141462238D01*
X102361952Y-141367000D01*
X102504810Y-141319381D01*
X102600048Y-141319381D01*
X102742905Y-141367000D01*
X102790524Y-141414619D01*
X103742905Y-142319381D02*
X103171476Y-142319381D01*
X103457190Y-142319381D02*
X103457190Y-141319381D01*
X103361952Y-141462238D01*
X103266714Y-141557476D01*
X103171476Y-141605095D01*
X104647667Y-141319381D02*
X104171476Y-141319381D01*
X104123857Y-141795571D01*
X104171476Y-141747952D01*
X104266714Y-141700333D01*
X104504810Y-141700333D01*
X104600048Y-141747952D01*
X104647667Y-141795571D01*
X104695286Y-141890810D01*
X104695286Y-142128905D01*
X104647667Y-142224143D01*
X104600048Y-142271762D01*
X104504810Y-142319381D01*
X104266714Y-142319381D01*
X104171476Y-142271762D01*
X104123857Y-142224143D01*
X123936143Y-124285476D02*
X123983762Y-124333095D01*
X124031381Y-124475952D01*
X124031381Y-124571190D01*
X123983762Y-124714048D01*
X123888524Y-124809286D01*
X123793286Y-124856905D01*
X123602810Y-124904524D01*
X123459952Y-124904524D01*
X123269476Y-124856905D01*
X123174238Y-124809286D01*
X123079000Y-124714048D01*
X123031381Y-124571190D01*
X123031381Y-124475952D01*
X123079000Y-124333095D01*
X123126619Y-124285476D01*
X124031381Y-123333095D02*
X124031381Y-123904524D01*
X124031381Y-123618810D02*
X123031381Y-123618810D01*
X123174238Y-123714048D01*
X123269476Y-123809286D01*
X123317095Y-123904524D01*
X123031381Y-122475952D02*
X123031381Y-122666429D01*
X123079000Y-122761667D01*
X123126619Y-122809286D01*
X123269476Y-122904524D01*
X123459952Y-122952143D01*
X123840905Y-122952143D01*
X123936143Y-122904524D01*
X123983762Y-122856905D01*
X124031381Y-122761667D01*
X124031381Y-122571190D01*
X123983762Y-122475952D01*
X123936143Y-122428333D01*
X123840905Y-122380714D01*
X123602810Y-122380714D01*
X123507571Y-122428333D01*
X123459952Y-122475952D01*
X123412333Y-122571190D01*
X123412333Y-122761667D01*
X123459952Y-122856905D01*
X123507571Y-122904524D01*
X123602810Y-122952143D01*
X124571143Y-140414476D02*
X124618762Y-140462095D01*
X124666381Y-140604952D01*
X124666381Y-140700190D01*
X124618762Y-140843048D01*
X124523524Y-140938286D01*
X124428286Y-140985905D01*
X124237810Y-141033524D01*
X124094952Y-141033524D01*
X123904476Y-140985905D01*
X123809238Y-140938286D01*
X123714000Y-140843048D01*
X123666381Y-140700190D01*
X123666381Y-140604952D01*
X123714000Y-140462095D01*
X123761619Y-140414476D01*
X124666381Y-139462095D02*
X124666381Y-140033524D01*
X124666381Y-139747810D02*
X123666381Y-139747810D01*
X123809238Y-139843048D01*
X123904476Y-139938286D01*
X123952095Y-140033524D01*
X123666381Y-139128762D02*
X123666381Y-138462095D01*
X124666381Y-138890667D01*
X103870143Y-127460476D02*
X103917762Y-127508095D01*
X103965381Y-127650952D01*
X103965381Y-127746190D01*
X103917762Y-127889048D01*
X103822524Y-127984286D01*
X103727286Y-128031905D01*
X103536810Y-128079524D01*
X103393952Y-128079524D01*
X103203476Y-128031905D01*
X103108238Y-127984286D01*
X103013000Y-127889048D01*
X102965381Y-127746190D01*
X102965381Y-127650952D01*
X103013000Y-127508095D01*
X103060619Y-127460476D01*
X103965381Y-126508095D02*
X103965381Y-127079524D01*
X103965381Y-126793810D02*
X102965381Y-126793810D01*
X103108238Y-126889048D01*
X103203476Y-126984286D01*
X103251095Y-127079524D01*
X103393952Y-125936667D02*
X103346333Y-126031905D01*
X103298714Y-126079524D01*
X103203476Y-126127143D01*
X103155857Y-126127143D01*
X103060619Y-126079524D01*
X103013000Y-126031905D01*
X102965381Y-125936667D01*
X102965381Y-125746190D01*
X103013000Y-125650952D01*
X103060619Y-125603333D01*
X103155857Y-125555714D01*
X103203476Y-125555714D01*
X103298714Y-125603333D01*
X103346333Y-125650952D01*
X103393952Y-125746190D01*
X103393952Y-125936667D01*
X103441571Y-126031905D01*
X103489190Y-126079524D01*
X103584429Y-126127143D01*
X103774905Y-126127143D01*
X103870143Y-126079524D01*
X103917762Y-126031905D01*
X103965381Y-125936667D01*
X103965381Y-125746190D01*
X103917762Y-125650952D01*
X103870143Y-125603333D01*
X103774905Y-125555714D01*
X103584429Y-125555714D01*
X103489190Y-125603333D01*
X103441571Y-125650952D01*
X103393952Y-125746190D01*
X114919143Y-124920476D02*
X114966762Y-124968095D01*
X115014381Y-125110952D01*
X115014381Y-125206190D01*
X114966762Y-125349048D01*
X114871524Y-125444286D01*
X114776286Y-125491905D01*
X114585810Y-125539524D01*
X114442952Y-125539524D01*
X114252476Y-125491905D01*
X114157238Y-125444286D01*
X114062000Y-125349048D01*
X114014381Y-125206190D01*
X114014381Y-125110952D01*
X114062000Y-124968095D01*
X114109619Y-124920476D01*
X115014381Y-123968095D02*
X115014381Y-124539524D01*
X115014381Y-124253810D02*
X114014381Y-124253810D01*
X114157238Y-124349048D01*
X114252476Y-124444286D01*
X114300095Y-124539524D01*
X115014381Y-123491905D02*
X115014381Y-123301429D01*
X114966762Y-123206190D01*
X114919143Y-123158571D01*
X114776286Y-123063333D01*
X114585810Y-123015714D01*
X114204857Y-123015714D01*
X114109619Y-123063333D01*
X114062000Y-123110952D01*
X114014381Y-123206190D01*
X114014381Y-123396667D01*
X114062000Y-123491905D01*
X114109619Y-123539524D01*
X114204857Y-123587143D01*
X114442952Y-123587143D01*
X114538190Y-123539524D01*
X114585810Y-123491905D01*
X114633429Y-123396667D01*
X114633429Y-123206190D01*
X114585810Y-123110952D01*
X114538190Y-123063333D01*
X114442952Y-123015714D01*
X119173524Y-123682143D02*
X119125905Y-123729762D01*
X118983048Y-123777381D01*
X118887810Y-123777381D01*
X118744952Y-123729762D01*
X118649714Y-123634524D01*
X118602095Y-123539286D01*
X118554476Y-123348810D01*
X118554476Y-123205952D01*
X118602095Y-123015476D01*
X118649714Y-122920238D01*
X118744952Y-122825000D01*
X118887810Y-122777381D01*
X118983048Y-122777381D01*
X119125905Y-122825000D01*
X119173524Y-122872619D01*
X119554476Y-122872619D02*
X119602095Y-122825000D01*
X119697333Y-122777381D01*
X119935429Y-122777381D01*
X120030667Y-122825000D01*
X120078286Y-122872619D01*
X120125905Y-122967857D01*
X120125905Y-123063095D01*
X120078286Y-123205952D01*
X119506857Y-123777381D01*
X120125905Y-123777381D01*
X120744952Y-122777381D02*
X120840191Y-122777381D01*
X120935429Y-122825000D01*
X120983048Y-122872619D01*
X121030667Y-122967857D01*
X121078286Y-123158333D01*
X121078286Y-123396429D01*
X121030667Y-123586905D01*
X120983048Y-123682143D01*
X120935429Y-123729762D01*
X120840191Y-123777381D01*
X120744952Y-123777381D01*
X120649714Y-123729762D01*
X120602095Y-123682143D01*
X120554476Y-123586905D01*
X120506857Y-123396429D01*
X120506857Y-123158333D01*
X120554476Y-122967857D01*
X120602095Y-122872619D01*
X120649714Y-122825000D01*
X120744952Y-122777381D01*
X123174143Y-140414476D02*
X123221762Y-140462095D01*
X123269381Y-140604952D01*
X123269381Y-140700190D01*
X123221762Y-140843048D01*
X123126524Y-140938286D01*
X123031286Y-140985905D01*
X122840810Y-141033524D01*
X122697952Y-141033524D01*
X122507476Y-140985905D01*
X122412238Y-140938286D01*
X122317000Y-140843048D01*
X122269381Y-140700190D01*
X122269381Y-140604952D01*
X122317000Y-140462095D01*
X122364619Y-140414476D01*
X122364619Y-140033524D02*
X122317000Y-139985905D01*
X122269381Y-139890667D01*
X122269381Y-139652571D01*
X122317000Y-139557333D01*
X122364619Y-139509714D01*
X122459857Y-139462095D01*
X122555095Y-139462095D01*
X122697952Y-139509714D01*
X123269381Y-140081143D01*
X123269381Y-139462095D01*
X123269381Y-138509714D02*
X123269381Y-139081143D01*
X123269381Y-138795429D02*
X122269381Y-138795429D01*
X122412238Y-138890667D01*
X122507476Y-138985905D01*
X122555095Y-139081143D01*
X110315381Y-142065476D02*
X109839190Y-142398810D01*
X110315381Y-142636905D02*
X109315381Y-142636905D01*
X109315381Y-142255952D01*
X109363000Y-142160714D01*
X109410619Y-142113095D01*
X109505857Y-142065476D01*
X109648714Y-142065476D01*
X109743952Y-142113095D01*
X109791571Y-142160714D01*
X109839190Y-142255952D01*
X109839190Y-142636905D01*
X109315381Y-141160714D02*
X109315381Y-141636905D01*
X109791571Y-141684524D01*
X109743952Y-141636905D01*
X109696333Y-141541667D01*
X109696333Y-141303571D01*
X109743952Y-141208333D01*
X109791571Y-141160714D01*
X109886810Y-141113095D01*
X110124905Y-141113095D01*
X110220143Y-141160714D01*
X110267762Y-141208333D01*
X110315381Y-141303571D01*
X110315381Y-141541667D01*
X110267762Y-141636905D01*
X110220143Y-141684524D01*
X102917524Y-140922381D02*
X102584190Y-140446190D01*
X102346095Y-140922381D02*
X102346095Y-139922381D01*
X102727048Y-139922381D01*
X102822286Y-139970000D01*
X102869905Y-140017619D01*
X102917524Y-140112857D01*
X102917524Y-140255714D01*
X102869905Y-140350952D01*
X102822286Y-140398571D01*
X102727048Y-140446190D01*
X102346095Y-140446190D01*
X103488952Y-140350952D02*
X103393714Y-140303333D01*
X103346095Y-140255714D01*
X103298476Y-140160476D01*
X103298476Y-140112857D01*
X103346095Y-140017619D01*
X103393714Y-139970000D01*
X103488952Y-139922381D01*
X103679429Y-139922381D01*
X103774667Y-139970000D01*
X103822286Y-140017619D01*
X103869905Y-140112857D01*
X103869905Y-140160476D01*
X103822286Y-140255714D01*
X103774667Y-140303333D01*
X103679429Y-140350952D01*
X103488952Y-140350952D01*
X103393714Y-140398571D01*
X103346095Y-140446190D01*
X103298476Y-140541429D01*
X103298476Y-140731905D01*
X103346095Y-140827143D01*
X103393714Y-140874762D01*
X103488952Y-140922381D01*
X103679429Y-140922381D01*
X103774667Y-140874762D01*
X103822286Y-140827143D01*
X103869905Y-140731905D01*
X103869905Y-140541429D01*
X103822286Y-140446190D01*
X103774667Y-140398571D01*
X103679429Y-140350952D01*
X109458190Y-127587429D02*
X109934381Y-127587429D01*
X108934381Y-127920762D02*
X109458190Y-127587429D01*
X108934381Y-127254095D01*
X109934381Y-126396952D02*
X109934381Y-126968381D01*
X109934381Y-126682667D02*
X108934381Y-126682667D01*
X109077238Y-126777905D01*
X109172476Y-126873143D01*
X109220095Y-126968381D01*
X102695286Y-107648381D02*
X102219095Y-107648381D01*
X102219095Y-106648381D01*
X103552429Y-107648381D02*
X102981000Y-107648381D01*
X103266714Y-107648381D02*
X103266714Y-106648381D01*
X103171476Y-106791238D01*
X103076238Y-106886476D01*
X102981000Y-106934095D01*
X102568286Y-91138381D02*
X102092095Y-91138381D01*
X102092095Y-90138381D01*
X102854000Y-90233619D02*
X102901619Y-90186000D01*
X102996857Y-90138381D01*
X103234953Y-90138381D01*
X103330191Y-90186000D01*
X103377810Y-90233619D01*
X103425429Y-90328857D01*
X103425429Y-90424095D01*
X103377810Y-90566952D01*
X102806381Y-91138381D01*
X103425429Y-91138381D01*
X164544286Y-97107381D02*
X164068095Y-97107381D01*
X164068095Y-96107381D01*
X164782381Y-96107381D02*
X165401429Y-96107381D01*
X165068095Y-96488333D01*
X165210953Y-96488333D01*
X165306191Y-96535952D01*
X165353810Y-96583571D01*
X165401429Y-96678810D01*
X165401429Y-96916905D01*
X165353810Y-97012143D01*
X165306191Y-97059762D01*
X165210953Y-97107381D01*
X164925238Y-97107381D01*
X164830000Y-97059762D01*
X164782381Y-97012143D01*
X120062524Y-144637143D02*
X120014905Y-144684762D01*
X119872048Y-144732381D01*
X119776810Y-144732381D01*
X119633952Y-144684762D01*
X119538714Y-144589524D01*
X119491095Y-144494286D01*
X119443476Y-144303810D01*
X119443476Y-144160952D01*
X119491095Y-143970476D01*
X119538714Y-143875238D01*
X119633952Y-143780000D01*
X119776810Y-143732381D01*
X119872048Y-143732381D01*
X120014905Y-143780000D01*
X120062524Y-143827619D01*
X120443476Y-143827619D02*
X120491095Y-143780000D01*
X120586333Y-143732381D01*
X120824429Y-143732381D01*
X120919667Y-143780000D01*
X120967286Y-143827619D01*
X121014905Y-143922857D01*
X121014905Y-144018095D01*
X120967286Y-144160952D01*
X120395857Y-144732381D01*
X121014905Y-144732381D01*
X121395857Y-143827619D02*
X121443476Y-143780000D01*
X121538714Y-143732381D01*
X121776810Y-143732381D01*
X121872048Y-143780000D01*
X121919667Y-143827619D01*
X121967286Y-143922857D01*
X121967286Y-144018095D01*
X121919667Y-144160952D01*
X121348238Y-144732381D01*
X121967286Y-144732381D01*
X115046143Y-150828476D02*
X115093762Y-150876095D01*
X115141381Y-151018952D01*
X115141381Y-151114190D01*
X115093762Y-151257048D01*
X114998524Y-151352286D01*
X114903286Y-151399905D01*
X114712810Y-151447524D01*
X114569952Y-151447524D01*
X114379476Y-151399905D01*
X114284238Y-151352286D01*
X114189000Y-151257048D01*
X114141381Y-151114190D01*
X114141381Y-151018952D01*
X114189000Y-150876095D01*
X114236619Y-150828476D01*
X114236619Y-150447524D02*
X114189000Y-150399905D01*
X114141381Y-150304667D01*
X114141381Y-150066571D01*
X114189000Y-149971333D01*
X114236619Y-149923714D01*
X114331857Y-149876095D01*
X114427095Y-149876095D01*
X114569952Y-149923714D01*
X115141381Y-150495143D01*
X115141381Y-149876095D01*
X114141381Y-149542762D02*
X114141381Y-148923714D01*
X114522333Y-149257048D01*
X114522333Y-149114190D01*
X114569952Y-149018952D01*
X114617571Y-148971333D01*
X114712810Y-148923714D01*
X114950905Y-148923714D01*
X115046143Y-148971333D01*
X115093762Y-149018952D01*
X115141381Y-149114190D01*
X115141381Y-149399905D01*
X115093762Y-149495143D01*
X115046143Y-149542762D01*
X123364524Y-142605143D02*
X123316905Y-142652762D01*
X123174048Y-142700381D01*
X123078810Y-142700381D01*
X122935952Y-142652762D01*
X122840714Y-142557524D01*
X122793095Y-142462286D01*
X122745476Y-142271810D01*
X122745476Y-142128952D01*
X122793095Y-141938476D01*
X122840714Y-141843238D01*
X122935952Y-141748000D01*
X123078810Y-141700381D01*
X123174048Y-141700381D01*
X123316905Y-141748000D01*
X123364524Y-141795619D01*
X123745476Y-141795619D02*
X123793095Y-141748000D01*
X123888333Y-141700381D01*
X124126429Y-141700381D01*
X124221667Y-141748000D01*
X124269286Y-141795619D01*
X124316905Y-141890857D01*
X124316905Y-141986095D01*
X124269286Y-142128952D01*
X123697857Y-142700381D01*
X124316905Y-142700381D01*
X125174048Y-142033714D02*
X125174048Y-142700381D01*
X124935952Y-141652762D02*
X124697857Y-142367048D01*
X125316905Y-142367048D01*
X162671143Y-150828476D02*
X162718762Y-150876095D01*
X162766381Y-151018952D01*
X162766381Y-151114190D01*
X162718762Y-151257048D01*
X162623524Y-151352286D01*
X162528286Y-151399905D01*
X162337810Y-151447524D01*
X162194952Y-151447524D01*
X162004476Y-151399905D01*
X161909238Y-151352286D01*
X161814000Y-151257048D01*
X161766381Y-151114190D01*
X161766381Y-151018952D01*
X161814000Y-150876095D01*
X161861619Y-150828476D01*
X161861619Y-150447524D02*
X161814000Y-150399905D01*
X161766381Y-150304667D01*
X161766381Y-150066571D01*
X161814000Y-149971333D01*
X161861619Y-149923714D01*
X161956857Y-149876095D01*
X162052095Y-149876095D01*
X162194952Y-149923714D01*
X162766381Y-150495143D01*
X162766381Y-149876095D01*
X161766381Y-148971333D02*
X161766381Y-149447524D01*
X162242571Y-149495143D01*
X162194952Y-149447524D01*
X162147333Y-149352286D01*
X162147333Y-149114190D01*
X162194952Y-149018952D01*
X162242571Y-148971333D01*
X162337810Y-148923714D01*
X162575905Y-148923714D01*
X162671143Y-148971333D01*
X162718762Y-149018952D01*
X162766381Y-149114190D01*
X162766381Y-149352286D01*
X162718762Y-149447524D01*
X162671143Y-149495143D01*
X164576143Y-151463476D02*
X164623762Y-151511095D01*
X164671381Y-151653952D01*
X164671381Y-151749190D01*
X164623762Y-151892048D01*
X164528524Y-151987286D01*
X164433286Y-152034905D01*
X164242810Y-152082524D01*
X164099952Y-152082524D01*
X163909476Y-152034905D01*
X163814238Y-151987286D01*
X163719000Y-151892048D01*
X163671381Y-151749190D01*
X163671381Y-151653952D01*
X163719000Y-151511095D01*
X163766619Y-151463476D01*
X163766619Y-151082524D02*
X163719000Y-151034905D01*
X163671381Y-150939667D01*
X163671381Y-150701571D01*
X163719000Y-150606333D01*
X163766619Y-150558714D01*
X163861857Y-150511095D01*
X163957095Y-150511095D01*
X164099952Y-150558714D01*
X164671381Y-151130143D01*
X164671381Y-150511095D01*
X163671381Y-149653952D02*
X163671381Y-149844429D01*
X163719000Y-149939667D01*
X163766619Y-149987286D01*
X163909476Y-150082524D01*
X164099952Y-150130143D01*
X164480905Y-150130143D01*
X164576143Y-150082524D01*
X164623762Y-150034905D01*
X164671381Y-149939667D01*
X164671381Y-149749190D01*
X164623762Y-149653952D01*
X164576143Y-149606333D01*
X164480905Y-149558714D01*
X164242810Y-149558714D01*
X164147571Y-149606333D01*
X164099952Y-149653952D01*
X164052333Y-149749190D01*
X164052333Y-149939667D01*
X164099952Y-150034905D01*
X164147571Y-150082524D01*
X164242810Y-150130143D01*
X166100143Y-151463476D02*
X166147762Y-151511095D01*
X166195381Y-151653952D01*
X166195381Y-151749190D01*
X166147762Y-151892048D01*
X166052524Y-151987286D01*
X165957286Y-152034905D01*
X165766810Y-152082524D01*
X165623952Y-152082524D01*
X165433476Y-152034905D01*
X165338238Y-151987286D01*
X165243000Y-151892048D01*
X165195381Y-151749190D01*
X165195381Y-151653952D01*
X165243000Y-151511095D01*
X165290619Y-151463476D01*
X165290619Y-151082524D02*
X165243000Y-151034905D01*
X165195381Y-150939667D01*
X165195381Y-150701571D01*
X165243000Y-150606333D01*
X165290619Y-150558714D01*
X165385857Y-150511095D01*
X165481095Y-150511095D01*
X165623952Y-150558714D01*
X166195381Y-151130143D01*
X166195381Y-150511095D01*
X165195381Y-150177762D02*
X165195381Y-149511095D01*
X166195381Y-149939667D01*
X114601524Y-144859381D02*
X114268190Y-144383190D01*
X114030095Y-144859381D02*
X114030095Y-143859381D01*
X114411048Y-143859381D01*
X114506286Y-143907000D01*
X114553905Y-143954619D01*
X114601524Y-144049857D01*
X114601524Y-144192714D01*
X114553905Y-144287952D01*
X114506286Y-144335571D01*
X114411048Y-144383190D01*
X114030095Y-144383190D01*
X115077714Y-144859381D02*
X115268190Y-144859381D01*
X115363429Y-144811762D01*
X115411048Y-144764143D01*
X115506286Y-144621286D01*
X115553905Y-144430810D01*
X115553905Y-144049857D01*
X115506286Y-143954619D01*
X115458667Y-143907000D01*
X115363429Y-143859381D01*
X115172952Y-143859381D01*
X115077714Y-143907000D01*
X115030095Y-143954619D01*
X114982476Y-144049857D01*
X114982476Y-144287952D01*
X115030095Y-144383190D01*
X115077714Y-144430810D01*
X115172952Y-144478429D01*
X115363429Y-144478429D01*
X115458667Y-144430810D01*
X115506286Y-144383190D01*
X115553905Y-144287952D01*
X116538381Y-150828476D02*
X116062190Y-151161810D01*
X116538381Y-151399905D02*
X115538381Y-151399905D01*
X115538381Y-151018952D01*
X115586000Y-150923714D01*
X115633619Y-150876095D01*
X115728857Y-150828476D01*
X115871714Y-150828476D01*
X115966952Y-150876095D01*
X116014571Y-150923714D01*
X116062190Y-151018952D01*
X116062190Y-151399905D01*
X116538381Y-149876095D02*
X116538381Y-150447524D01*
X116538381Y-150161810D02*
X115538381Y-150161810D01*
X115681238Y-150257048D01*
X115776476Y-150352286D01*
X115824095Y-150447524D01*
X115538381Y-149257048D02*
X115538381Y-149161809D01*
X115586000Y-149066571D01*
X115633619Y-149018952D01*
X115728857Y-148971333D01*
X115919333Y-148923714D01*
X116157429Y-148923714D01*
X116347905Y-148971333D01*
X116443143Y-149018952D01*
X116490762Y-149066571D01*
X116538381Y-149161809D01*
X116538381Y-149257048D01*
X116490762Y-149352286D01*
X116443143Y-149399905D01*
X116347905Y-149447524D01*
X116157429Y-149495143D01*
X115919333Y-149495143D01*
X115728857Y-149447524D01*
X115633619Y-149399905D01*
X115586000Y-149352286D01*
X115538381Y-149257048D01*
X129111381Y-142573476D02*
X128635190Y-142906810D01*
X129111381Y-143144905D02*
X128111381Y-143144905D01*
X128111381Y-142763952D01*
X128159000Y-142668714D01*
X128206619Y-142621095D01*
X128301857Y-142573476D01*
X128444714Y-142573476D01*
X128539952Y-142621095D01*
X128587571Y-142668714D01*
X128635190Y-142763952D01*
X128635190Y-143144905D01*
X129111381Y-141621095D02*
X129111381Y-142192524D01*
X129111381Y-141906810D02*
X128111381Y-141906810D01*
X128254238Y-142002048D01*
X128349476Y-142097286D01*
X128397095Y-142192524D01*
X129111381Y-140668714D02*
X129111381Y-141240143D01*
X129111381Y-140954429D02*
X128111381Y-140954429D01*
X128254238Y-141049667D01*
X128349476Y-141144905D01*
X128397095Y-141240143D01*
X127333381Y-142573476D02*
X126857190Y-142906810D01*
X127333381Y-143144905D02*
X126333381Y-143144905D01*
X126333381Y-142763952D01*
X126381000Y-142668714D01*
X126428619Y-142621095D01*
X126523857Y-142573476D01*
X126666714Y-142573476D01*
X126761952Y-142621095D01*
X126809571Y-142668714D01*
X126857190Y-142763952D01*
X126857190Y-143144905D01*
X127333381Y-141621095D02*
X127333381Y-142192524D01*
X127333381Y-141906810D02*
X126333381Y-141906810D01*
X126476238Y-142002048D01*
X126571476Y-142097286D01*
X126619095Y-142192524D01*
X126428619Y-141240143D02*
X126381000Y-141192524D01*
X126333381Y-141097286D01*
X126333381Y-140859190D01*
X126381000Y-140763952D01*
X126428619Y-140716333D01*
X126523857Y-140668714D01*
X126619095Y-140668714D01*
X126761952Y-140716333D01*
X127333381Y-141287762D01*
X127333381Y-140668714D01*
X161242381Y-150828476D02*
X160766190Y-151161810D01*
X161242381Y-151399905D02*
X160242381Y-151399905D01*
X160242381Y-151018952D01*
X160290000Y-150923714D01*
X160337619Y-150876095D01*
X160432857Y-150828476D01*
X160575714Y-150828476D01*
X160670952Y-150876095D01*
X160718571Y-150923714D01*
X160766190Y-151018952D01*
X160766190Y-151399905D01*
X161242381Y-149876095D02*
X161242381Y-150447524D01*
X161242381Y-150161810D02*
X160242381Y-150161810D01*
X160385238Y-150257048D01*
X160480476Y-150352286D01*
X160528095Y-150447524D01*
X160242381Y-149542762D02*
X160242381Y-148923714D01*
X160623333Y-149257048D01*
X160623333Y-149114190D01*
X160670952Y-149018952D01*
X160718571Y-148971333D01*
X160813810Y-148923714D01*
X161051905Y-148923714D01*
X161147143Y-148971333D01*
X161194762Y-149018952D01*
X161242381Y-149114190D01*
X161242381Y-149399905D01*
X161194762Y-149495143D01*
X161147143Y-149542762D01*
X159718381Y-150828476D02*
X159242190Y-151161810D01*
X159718381Y-151399905D02*
X158718381Y-151399905D01*
X158718381Y-151018952D01*
X158766000Y-150923714D01*
X158813619Y-150876095D01*
X158908857Y-150828476D01*
X159051714Y-150828476D01*
X159146952Y-150876095D01*
X159194571Y-150923714D01*
X159242190Y-151018952D01*
X159242190Y-151399905D01*
X159718381Y-149876095D02*
X159718381Y-150447524D01*
X159718381Y-150161810D02*
X158718381Y-150161810D01*
X158861238Y-150257048D01*
X158956476Y-150352286D01*
X159004095Y-150447524D01*
X159051714Y-149018952D02*
X159718381Y-149018952D01*
X158670762Y-149257048D02*
X159385048Y-149495143D01*
X159385048Y-148876095D01*
X171418381Y-103012905D02*
X172227905Y-103012905D01*
X172323143Y-102965286D01*
X172370762Y-102917667D01*
X172418381Y-102822429D01*
X172418381Y-102631952D01*
X172370762Y-102536714D01*
X172323143Y-102489095D01*
X172227905Y-102441476D01*
X171418381Y-102441476D01*
X171418381Y-101536714D02*
X171418381Y-101727191D01*
X171466000Y-101822429D01*
X171513619Y-101870048D01*
X171656476Y-101965286D01*
X171846952Y-102012905D01*
X172227905Y-102012905D01*
X172323143Y-101965286D01*
X172370762Y-101917667D01*
X172418381Y-101822429D01*
X172418381Y-101631952D01*
X172370762Y-101536714D01*
X172323143Y-101489095D01*
X172227905Y-101441476D01*
X171989810Y-101441476D01*
X171894571Y-101489095D01*
X171846952Y-101536714D01*
X171799333Y-101631952D01*
X171799333Y-101822429D01*
X171846952Y-101917667D01*
X171894571Y-101965286D01*
X171989810Y-102012905D01*
X135620095Y-143224381D02*
X135620095Y-144033905D01*
X135667714Y-144129143D01*
X135715333Y-144176762D01*
X135810571Y-144224381D01*
X136001048Y-144224381D01*
X136096286Y-144176762D01*
X136143905Y-144129143D01*
X136191524Y-144033905D01*
X136191524Y-143224381D01*
X136810571Y-143652952D02*
X136715333Y-143605333D01*
X136667714Y-143557714D01*
X136620095Y-143462476D01*
X136620095Y-143414857D01*
X136667714Y-143319619D01*
X136715333Y-143272000D01*
X136810571Y-143224381D01*
X137001048Y-143224381D01*
X137096286Y-143272000D01*
X137143905Y-143319619D01*
X137191524Y-143414857D01*
X137191524Y-143462476D01*
X137143905Y-143557714D01*
X137096286Y-143605333D01*
X137001048Y-143652952D01*
X136810571Y-143652952D01*
X136715333Y-143700571D01*
X136667714Y-143748190D01*
X136620095Y-143843429D01*
X136620095Y-144033905D01*
X136667714Y-144129143D01*
X136715333Y-144176762D01*
X136810571Y-144224381D01*
X137001048Y-144224381D01*
X137096286Y-144176762D01*
X137143905Y-144129143D01*
X137191524Y-144033905D01*
X137191524Y-143843429D01*
X137143905Y-143748190D01*
X137096286Y-143700571D01*
X137001048Y-143652952D01*
X122269381Y-113045905D02*
X123078905Y-113045905D01*
X123174143Y-112998286D01*
X123221762Y-112950667D01*
X123269381Y-112855429D01*
X123269381Y-112664952D01*
X123221762Y-112569714D01*
X123174143Y-112522095D01*
X123078905Y-112474476D01*
X122269381Y-112474476D01*
X122269381Y-112093524D02*
X122269381Y-111474476D01*
X122650333Y-111807810D01*
X122650333Y-111664952D01*
X122697952Y-111569714D01*
X122745571Y-111522095D01*
X122840810Y-111474476D01*
X123078905Y-111474476D01*
X123174143Y-111522095D01*
X123221762Y-111569714D01*
X123269381Y-111664952D01*
X123269381Y-111950667D01*
X123221762Y-112045905D01*
X123174143Y-112093524D01*
X122158095Y-91027381D02*
X122158095Y-91836905D01*
X122205714Y-91932143D01*
X122253333Y-91979762D01*
X122348571Y-92027381D01*
X122539048Y-92027381D01*
X122634286Y-91979762D01*
X122681905Y-91932143D01*
X122729524Y-91836905D01*
X122729524Y-91027381D01*
X123634286Y-91360714D02*
X123634286Y-92027381D01*
X123396190Y-90979762D02*
X123158095Y-91694048D01*
X123777143Y-91694048D01*
X171688095Y-111601381D02*
X171688095Y-112410905D01*
X171735714Y-112506143D01*
X171783333Y-112553762D01*
X171878571Y-112601381D01*
X172069048Y-112601381D01*
X172164286Y-112553762D01*
X172211905Y-112506143D01*
X172259524Y-112410905D01*
X172259524Y-111601381D01*
X172688095Y-111696619D02*
X172735714Y-111649000D01*
X172830952Y-111601381D01*
X173069048Y-111601381D01*
X173164286Y-111649000D01*
X173211905Y-111696619D01*
X173259524Y-111791857D01*
X173259524Y-111887095D01*
X173211905Y-112029952D01*
X172640476Y-112601381D01*
X173259524Y-112601381D01*
X172672381Y-89931905D02*
X171672381Y-89931905D01*
X171672381Y-89693810D01*
X171720000Y-89550952D01*
X171815238Y-89455714D01*
X171910476Y-89408095D01*
X172100952Y-89360476D01*
X172243810Y-89360476D01*
X172434286Y-89408095D01*
X172529524Y-89455714D01*
X172624762Y-89550952D01*
X172672381Y-89693810D01*
X172672381Y-89931905D01*
X172386667Y-88979524D02*
X172386667Y-88503333D01*
X172672381Y-89074762D02*
X171672381Y-88741429D01*
X172672381Y-88408095D01*
X172672381Y-87550952D02*
X172672381Y-88122381D01*
X172672381Y-87836667D02*
X171672381Y-87836667D01*
X171815238Y-87931905D01*
X171910476Y-88027143D01*
X171958095Y-88122381D01*
X123134429Y-107330714D02*
X123134429Y-106568809D01*
X123515381Y-106949761D02*
X122753476Y-106949761D01*
X122515381Y-105616428D02*
X122515381Y-106092619D01*
X122991571Y-106140238D01*
X122943952Y-106092619D01*
X122896333Y-105997381D01*
X122896333Y-105759285D01*
X122943952Y-105664047D01*
X122991571Y-105616428D01*
X123086810Y-105568809D01*
X123324905Y-105568809D01*
X123420143Y-105616428D01*
X123467762Y-105664047D01*
X123515381Y-105759285D01*
X123515381Y-105997381D01*
X123467762Y-106092619D01*
X123420143Y-106140238D01*
X122515381Y-105283095D02*
X123515381Y-104949762D01*
X122515381Y-104616428D01*
X126270000Y-93416429D02*
X127031905Y-93416429D01*
X126650953Y-93797381D02*
X126650953Y-93035476D01*
X127412857Y-92797381D02*
X128031905Y-92797381D01*
X127698571Y-93178333D01*
X127841429Y-93178333D01*
X127936667Y-93225952D01*
X127984286Y-93273571D01*
X128031905Y-93368810D01*
X128031905Y-93606905D01*
X127984286Y-93702143D01*
X127936667Y-93749762D01*
X127841429Y-93797381D01*
X127555714Y-93797381D01*
X127460476Y-93749762D01*
X127412857Y-93702143D01*
X128460476Y-93702143D02*
X128508095Y-93749762D01*
X128460476Y-93797381D01*
X128412857Y-93749762D01*
X128460476Y-93702143D01*
X128460476Y-93797381D01*
X128841428Y-92797381D02*
X129460476Y-92797381D01*
X129127142Y-93178333D01*
X129270000Y-93178333D01*
X129365238Y-93225952D01*
X129412857Y-93273571D01*
X129460476Y-93368810D01*
X129460476Y-93606905D01*
X129412857Y-93702143D01*
X129365238Y-93749762D01*
X129270000Y-93797381D01*
X128984285Y-93797381D01*
X128889047Y-93749762D01*
X128841428Y-93702143D01*
X129746190Y-92797381D02*
X130079523Y-93797381D01*
X130412857Y-92797381D01*
X130183095Y-140041381D02*
X130754524Y-140041381D01*
X130468809Y-141041381D02*
X130468809Y-140041381D01*
X131087857Y-141041381D02*
X131087857Y-140041381D01*
X131468810Y-140041381D01*
X131564048Y-140089000D01*
X131611667Y-140136619D01*
X131659286Y-140231857D01*
X131659286Y-140374714D01*
X131611667Y-140469952D01*
X131564048Y-140517571D01*
X131468810Y-140565190D01*
X131087857Y-140565190D01*
X131992619Y-140041381D02*
X132611667Y-140041381D01*
X132278333Y-140422333D01*
X132421191Y-140422333D01*
X132516429Y-140469952D01*
X132564048Y-140517571D01*
X132611667Y-140612810D01*
X132611667Y-140850905D01*
X132564048Y-140946143D01*
X132516429Y-140993762D01*
X132421191Y-141041381D01*
X132135476Y-141041381D01*
X132040238Y-140993762D01*
X131992619Y-140946143D01*
X109355095Y-150836381D02*
X109926524Y-150836381D01*
X109640809Y-151836381D02*
X109640809Y-150836381D01*
X110259857Y-151836381D02*
X110259857Y-150836381D01*
X110640810Y-150836381D01*
X110736048Y-150884000D01*
X110783667Y-150931619D01*
X110831286Y-151026857D01*
X110831286Y-151169714D01*
X110783667Y-151264952D01*
X110736048Y-151312571D01*
X110640810Y-151360190D01*
X110259857Y-151360190D01*
X111688429Y-151169714D02*
X111688429Y-151836381D01*
X111450333Y-150788762D02*
X111212238Y-151503048D01*
X111831286Y-151503048D01*
X115976477Y-105137000D02*
X115900286Y-105098905D01*
X115786001Y-105098905D01*
X115671715Y-105137000D01*
X115595524Y-105213190D01*
X115557429Y-105289381D01*
X115519334Y-105441762D01*
X115519334Y-105556048D01*
X115557429Y-105708429D01*
X115595524Y-105784619D01*
X115671715Y-105860810D01*
X115786001Y-105898905D01*
X115862191Y-105898905D01*
X115976477Y-105860810D01*
X116014572Y-105822714D01*
X116014572Y-105556048D01*
X115862191Y-105556048D01*
X116357429Y-105898905D02*
X116357429Y-105098905D01*
X116814572Y-105898905D01*
X116814572Y-105098905D01*
X117195524Y-105898905D02*
X117195524Y-105098905D01*
X117386000Y-105098905D01*
X117500286Y-105137000D01*
X117576477Y-105213190D01*
X117614572Y-105289381D01*
X117652667Y-105441762D01*
X117652667Y-105556048D01*
X117614572Y-105708429D01*
X117576477Y-105784619D01*
X117500286Y-105860810D01*
X117386000Y-105898905D01*
X117195524Y-105898905D01*
X124968096Y-94750000D02*
X124872858Y-94702381D01*
X124730001Y-94702381D01*
X124587143Y-94750000D01*
X124491905Y-94845238D01*
X124444286Y-94940476D01*
X124396667Y-95130952D01*
X124396667Y-95273810D01*
X124444286Y-95464286D01*
X124491905Y-95559524D01*
X124587143Y-95654762D01*
X124730001Y-95702381D01*
X124825239Y-95702381D01*
X124968096Y-95654762D01*
X125015715Y-95607143D01*
X125015715Y-95273810D01*
X124825239Y-95273810D01*
X125444286Y-95702381D02*
X125444286Y-94702381D01*
X126015715Y-95702381D01*
X126015715Y-94702381D01*
X126491905Y-95702381D02*
X126491905Y-94702381D01*
X126730000Y-94702381D01*
X126872858Y-94750000D01*
X126968096Y-94845238D01*
X127015715Y-94940476D01*
X127063334Y-95130952D01*
X127063334Y-95273810D01*
X127015715Y-95464286D01*
X126968096Y-95559524D01*
X126872858Y-95654762D01*
X126730000Y-95702381D01*
X126491905Y-95702381D01*
X127619095Y-96869381D02*
X127619095Y-97678905D01*
X127666714Y-97774143D01*
X127714333Y-97821762D01*
X127809571Y-97869381D01*
X128000048Y-97869381D01*
X128095286Y-97821762D01*
X128142905Y-97774143D01*
X128190524Y-97678905D01*
X128190524Y-96869381D01*
X129190524Y-97869381D02*
X128619095Y-97869381D01*
X128904809Y-97869381D02*
X128904809Y-96869381D01*
X128809571Y-97012238D01*
X128714333Y-97107476D01*
X128619095Y-97155095D01*
X159202381Y-118395714D02*
X158202381Y-118395714D01*
X159202381Y-117824285D01*
X158202381Y-117824285D01*
X130579762Y-118395714D02*
X130627381Y-118252857D01*
X130627381Y-118014761D01*
X130579762Y-117919523D01*
X130532143Y-117871904D01*
X130436905Y-117824285D01*
X130341667Y-117824285D01*
X130246429Y-117871904D01*
X130198810Y-117919523D01*
X130151190Y-118014761D01*
X130103571Y-118205238D01*
X130055952Y-118300476D01*
X130008333Y-118348095D01*
X129913095Y-118395714D01*
X129817857Y-118395714D01*
X129722619Y-118348095D01*
X129675000Y-118300476D01*
X129627381Y-118205238D01*
X129627381Y-117967142D01*
X129675000Y-117824285D01*
X144708571Y-132929286D02*
X144708571Y-132595952D01*
X145232381Y-132453095D02*
X145232381Y-132929286D01*
X144232381Y-132929286D01*
X144232381Y-132453095D01*
X144232381Y-103933571D02*
X145232381Y-103695476D01*
X144518095Y-103504999D01*
X145232381Y-103314523D01*
X144232381Y-103076428D01*
X172426381Y-118101905D02*
X172426381Y-117530476D01*
X173426381Y-117816191D02*
X172426381Y-117816191D01*
X173426381Y-117197143D02*
X172426381Y-117197143D01*
X172426381Y-116816190D01*
X172474000Y-116720952D01*
X172521619Y-116673333D01*
X172616857Y-116625714D01*
X172759714Y-116625714D01*
X172854952Y-116673333D01*
X172902571Y-116720952D01*
X172950190Y-116816190D01*
X172950190Y-117197143D01*
X172426381Y-116292381D02*
X172426381Y-115625714D01*
X173426381Y-116054286D01*
X151495143Y-89741476D02*
X151542762Y-89789095D01*
X151590381Y-89931952D01*
X151590381Y-90027190D01*
X151542762Y-90170048D01*
X151447524Y-90265286D01*
X151352286Y-90312905D01*
X151161810Y-90360524D01*
X151018952Y-90360524D01*
X150828476Y-90312905D01*
X150733238Y-90265286D01*
X150638000Y-90170048D01*
X150590381Y-90027190D01*
X150590381Y-89931952D01*
X150638000Y-89789095D01*
X150685619Y-89741476D01*
X150685619Y-89360524D02*
X150638000Y-89312905D01*
X150590381Y-89217667D01*
X150590381Y-88979571D01*
X150638000Y-88884333D01*
X150685619Y-88836714D01*
X150780857Y-88789095D01*
X150876095Y-88789095D01*
X151018952Y-88836714D01*
X151590381Y-89408143D01*
X151590381Y-88789095D01*
X151018952Y-88217667D02*
X150971333Y-88312905D01*
X150923714Y-88360524D01*
X150828476Y-88408143D01*
X150780857Y-88408143D01*
X150685619Y-88360524D01*
X150638000Y-88312905D01*
X150590381Y-88217667D01*
X150590381Y-88027190D01*
X150638000Y-87931952D01*
X150685619Y-87884333D01*
X150780857Y-87836714D01*
X150828476Y-87836714D01*
X150923714Y-87884333D01*
X150971333Y-87931952D01*
X151018952Y-88027190D01*
X151018952Y-88217667D01*
X151066571Y-88312905D01*
X151114190Y-88360524D01*
X151209429Y-88408143D01*
X151399905Y-88408143D01*
X151495143Y-88360524D01*
X151542762Y-88312905D01*
X151590381Y-88217667D01*
X151590381Y-88027190D01*
X151542762Y-87931952D01*
X151495143Y-87884333D01*
X151399905Y-87836714D01*
X151209429Y-87836714D01*
X151114190Y-87884333D01*
X151066571Y-87931952D01*
X151018952Y-88027190D01*
D10*
X155575000Y-118745000D02*
X155575000Y-131445000D01*
X149225000Y-118745000D02*
X155575000Y-118745000D01*
X149225000Y-131445000D02*
X149225000Y-118745000D01*
X155575000Y-131445000D02*
X149225000Y-131445000D01*
X147828000Y-84455000D02*
X131572000Y-84455000D01*
X147828000Y-76200000D02*
X147828000Y-84455000D01*
X147955000Y-76200000D02*
X147828000Y-76200000D01*
X131572000Y-76200000D02*
X131572000Y-84455000D01*
X131445000Y-76200000D02*
X131572000Y-76200000D01*
X153035000Y-76200000D02*
X147955000Y-76200000D01*
X125095000Y-76200000D02*
X131445000Y-76200000D01*
X175260000Y-78155800D02*
X153035000Y-76200000D01*
X175260000Y-152400000D02*
X175260000Y-78155800D01*
X101600000Y-77419200D02*
X125095000Y-76200000D01*
X101600000Y-152400000D02*
X175260000Y-152400000D01*
X101600000Y-152400000D02*
X101600000Y-77419200D01*
M02*
