G04 #@! TF.FileFunction,Copper,L3,Inr,Plane*
%FSLAX46Y46*%
G04 Gerber Fmt 4.6, Leading zero omitted, Abs format (unit mm)*
G04 Created by KiCad (PCBNEW (2015-04-03 BZR 5570)-product) date Mon Apr  6 03:58:37 2015*
%MOMM*%
G01*
G04 APERTURE LIST*
%ADD10C,0.150000*%
%ADD11C,2.800000*%
%ADD12C,2.500000*%
%ADD13C,1.600000*%
%ADD14C,3.300000*%
%ADD15R,1.400000X1.400000*%
%ADD16C,1.400000*%
%ADD17R,1.600000X1.600000*%
%ADD18R,1.508000X1.508000*%
%ADD19R,1.600000X1.900000*%
%ADD20C,1.000000*%
%ADD21R,3.810000X3.810000*%
%ADD22C,6.350000*%
%ADD23C,1.016000*%
%ADD24C,1.270000*%
%ADD25C,0.406400*%
%ADD26C,0.609600*%
%ADD27C,0.304800*%
%ADD28C,0.254000*%
%ADD29C,0.350000*%
G04 APERTURE END LIST*
D10*
D11*
X119450483Y-78124303D03*
X119712163Y-83117451D03*
D12*
X116885023Y-80762184D03*
D13*
X170349257Y-85670976D03*
X167858770Y-85453087D03*
X165866381Y-85278775D03*
X163375894Y-85060886D03*
D14*
X173644638Y-83228895D03*
X160554640Y-82083668D03*
D15*
X173355000Y-121460000D03*
D16*
X173355000Y-123460000D03*
X173355000Y-125460000D03*
X173355000Y-127460000D03*
D17*
X129540000Y-88900000D03*
D13*
X129540000Y-86360000D03*
X127000000Y-88900000D03*
X127000000Y-86360000D03*
X124460000Y-88900000D03*
X124460000Y-86360000D03*
X121920000Y-88900000D03*
X121920000Y-86360000D03*
X119380000Y-88900000D03*
X119380000Y-86360000D03*
D18*
X102870000Y-86360000D03*
X102870000Y-123190000D03*
D19*
X133985000Y-146050000D03*
D20*
X118745000Y-110490000D03*
X118745000Y-111760000D03*
X120015000Y-110490000D03*
X120015000Y-111760000D03*
X118745000Y-93980000D03*
X118745000Y-95250000D03*
X120015000Y-93980000D03*
X120015000Y-95250000D03*
D21*
X162580000Y-100310000D03*
X162580000Y-135910000D03*
X126980000Y-135910000D03*
X126980000Y-100310000D03*
D22*
X156108400Y-146634200D03*
D23*
X156108400Y-144348200D03*
X154128666Y-145491200D03*
X154128666Y-147777200D03*
X156108400Y-148920200D03*
X158088134Y-147777200D03*
X158088134Y-145491200D03*
D22*
X110210600Y-146634200D03*
D23*
X110210600Y-144348200D03*
X108230866Y-145491200D03*
X108230866Y-147777200D03*
X110210600Y-148920200D03*
X112190334Y-147777200D03*
X112190334Y-145491200D03*
D22*
X156108400Y-83896200D03*
D23*
X156108400Y-81610200D03*
X154128666Y-82753200D03*
X154128666Y-85039200D03*
X156108400Y-86182200D03*
X158088134Y-85039200D03*
X158088134Y-82753200D03*
D22*
X110210600Y-83896200D03*
D23*
X110210600Y-81610200D03*
X108230866Y-82753200D03*
X108230866Y-85039200D03*
X110210600Y-86182200D03*
X112190334Y-85039200D03*
X112190334Y-82753200D03*
D18*
X116840000Y-124460000D03*
D23*
X111125000Y-138430000D03*
X111125000Y-135890000D03*
X111125000Y-137160000D03*
X121180991Y-133309153D03*
X120904000Y-125984000D03*
X118122484Y-120625031D03*
X119380000Y-120650000D03*
X120650000Y-120650000D03*
X121920000Y-120650000D03*
X128905000Y-105410000D03*
X128905000Y-103505000D03*
X128905000Y-107315000D03*
X160655000Y-132715000D03*
X159385000Y-133985000D03*
X130175000Y-95885000D03*
X128270000Y-95885000D03*
X130175000Y-102235000D03*
X121285000Y-95250000D03*
X140970000Y-151130000D03*
X139700000Y-151130000D03*
X138430000Y-151130000D03*
X132672150Y-149225000D03*
X132715000Y-151130000D03*
X133350000Y-147955000D03*
X134620000Y-147955000D03*
X145796000Y-151130000D03*
X137795000Y-130175000D03*
X142240000Y-126365000D03*
X146685000Y-116840000D03*
X160655000Y-121920000D03*
X147955000Y-130175000D03*
X142240000Y-130175000D03*
X160655000Y-125323600D03*
X146685000Y-90170000D03*
X134620000Y-90170000D03*
X117475000Y-93980000D03*
X117475000Y-95250000D03*
X121285000Y-93980000D03*
X112395000Y-98425000D03*
X112395000Y-97155000D03*
X112395000Y-95885000D03*
X112395000Y-94615000D03*
X111125000Y-95250000D03*
X111125000Y-96520000D03*
X111125000Y-97790000D03*
X118110000Y-104140000D03*
X119380000Y-104140000D03*
X120650000Y-104140000D03*
X121920000Y-104140000D03*
X112395000Y-111125000D03*
X112395000Y-112395000D03*
X112395000Y-113665000D03*
X112395000Y-114935000D03*
X111125000Y-111760000D03*
X111125000Y-113030000D03*
X111125000Y-114300000D03*
X117475000Y-110490000D03*
X117475000Y-111760000D03*
X121285000Y-110490000D03*
X121285000Y-111760000D03*
X133350000Y-90170000D03*
X145415008Y-90170000D03*
X164465000Y-139065000D03*
X163195000Y-139065000D03*
X161925000Y-139065000D03*
X139065000Y-134620000D03*
X142875000Y-134620000D03*
X169037000Y-107188000D03*
X168275000Y-109220000D03*
X168275000Y-107950000D03*
X164465000Y-86995000D03*
X163195000Y-86995000D03*
X161925000Y-86995000D03*
X157226000Y-108204000D03*
X139700000Y-128270000D03*
X139700000Y-116205000D03*
X123190000Y-81280000D03*
X124460000Y-80010000D03*
X124460000Y-81280000D03*
X123190000Y-80010000D03*
X124460000Y-78740000D03*
X123190000Y-77470000D03*
X124460000Y-77470000D03*
X123190000Y-78740000D03*
X125730000Y-147955000D03*
X125095000Y-150495000D03*
X134620000Y-141605000D03*
X134620000Y-144145000D03*
X134620000Y-142875000D03*
X133350000Y-141605000D03*
X133350000Y-144145000D03*
X133350000Y-142875000D03*
X116205000Y-142875000D03*
X116205000Y-144145000D03*
X117475000Y-144145000D03*
X118745000Y-144145000D03*
X120015000Y-144145000D03*
X120044614Y-135860386D03*
X121285000Y-134620000D03*
X113030000Y-127000000D03*
X113919000Y-126238000D03*
X111125000Y-129540000D03*
X119380000Y-124333000D03*
X120777000Y-124333000D03*
X122174000Y-124333000D03*
X154940000Y-93980000D03*
X153670000Y-91440000D03*
X153670000Y-93980000D03*
X153670000Y-92710000D03*
X111125000Y-132080000D03*
X111125000Y-130810000D03*
X135636000Y-102108000D03*
X133985000Y-95885090D03*
X130175000Y-82550000D03*
X130175000Y-83820000D03*
X130175000Y-81280000D03*
X129540000Y-80010000D03*
X129540000Y-78740000D03*
X129540000Y-77470000D03*
X139192000Y-94488000D03*
X135889992Y-104140000D03*
X137795000Y-104140000D03*
X140859619Y-94504631D03*
X155575000Y-106680024D03*
X153670000Y-107950000D03*
X154501419Y-109220000D03*
X145415000Y-105410000D03*
X144145000Y-105410000D03*
X157480000Y-103505000D03*
X130175000Y-132715000D03*
X131445000Y-132715000D03*
X156210000Y-103505000D03*
X123190000Y-93345000D03*
X164465000Y-140970000D03*
X163195000Y-140970000D03*
X161925000Y-140970000D03*
X157607000Y-110363000D03*
X109220000Y-98425000D03*
X109220018Y-100330000D03*
X109220000Y-102235000D03*
X111760000Y-100330000D03*
X111760000Y-102235000D03*
X153373617Y-110210490D03*
X156845000Y-112395000D03*
X154910448Y-112365448D03*
X129540000Y-117475000D03*
X130810000Y-116205000D03*
X130175000Y-118745000D03*
X174371000Y-144145000D03*
X129540000Y-120015000D03*
X173990000Y-145415000D03*
X174371000Y-146685000D03*
X130175000Y-121285000D03*
X129540000Y-122555000D03*
X173990000Y-147955000D03*
X145410847Y-134039953D03*
X144091184Y-133984875D03*
X160655000Y-128320800D03*
X160655000Y-126949200D03*
X170144675Y-92402663D03*
X158750000Y-124129513D03*
X169801323Y-121769933D03*
X168773075Y-92402663D03*
X158750000Y-122757913D03*
X168831457Y-120800067D03*
X140716000Y-103632034D03*
X132080000Y-95885000D03*
X150495000Y-107315000D03*
X166370000Y-118110000D03*
X174371000Y-139065000D03*
X171450000Y-131445000D03*
X151765000Y-106680000D03*
X167640000Y-117068600D03*
X170815000Y-130175000D03*
X173990000Y-140335000D03*
X118745000Y-99314000D03*
X120015000Y-115824000D03*
X118745000Y-115824000D03*
X120015000Y-99314000D03*
X121344327Y-115824000D03*
X121286086Y-99314000D03*
X138400454Y-149254546D03*
X138070740Y-146122990D03*
X144094187Y-151130000D03*
X142875000Y-151130000D03*
X159385000Y-93345000D03*
X159385000Y-94615026D03*
X123190000Y-109220000D03*
X123190000Y-109220000D03*
X173990000Y-133350000D03*
X173990000Y-134620000D03*
X113030000Y-125095000D03*
X111760000Y-125095000D03*
X118715454Y-139729546D03*
X118745000Y-140970000D03*
X109220000Y-114934990D03*
X109220000Y-116840004D03*
X109220000Y-118745010D03*
X111760000Y-118745000D03*
X111760000Y-116840000D03*
X129540000Y-143510000D03*
X147320000Y-151130000D03*
X113665000Y-128270000D03*
X144145000Y-140970000D03*
X115519197Y-128312802D03*
X116840000Y-128270000D03*
X146786602Y-140973776D03*
X115900190Y-131846050D03*
X145465794Y-140976892D03*
X116205000Y-106679978D03*
X116205000Y-107696000D03*
X109220000Y-107315000D03*
X109220000Y-109220000D03*
X109220000Y-111125000D03*
X111760000Y-107315000D03*
X111760000Y-109220000D03*
X116205000Y-90170000D03*
X116205000Y-91186000D03*
X109220000Y-90805000D03*
X109220000Y-92710012D03*
X109220000Y-94615000D03*
X111760000Y-90805000D03*
X111760000Y-92710000D03*
X116332000Y-112776000D03*
X116332000Y-113792000D03*
X116332000Y-97409006D03*
X116332000Y-96393000D03*
X146685000Y-96520000D03*
X145415000Y-95884992D03*
X147955010Y-95885000D03*
X149225000Y-96520000D03*
X167640000Y-94615000D03*
X166370000Y-94615000D03*
X168910000Y-96520000D03*
X170180000Y-96520000D03*
X173990000Y-142875000D03*
X167427800Y-129993510D03*
X174371000Y-141605000D03*
X167640000Y-128270000D03*
X164465000Y-142875000D03*
X167005000Y-131445000D03*
X132715000Y-130810000D03*
X117779810Y-132080000D03*
X119864933Y-133834933D03*
X118895067Y-132865067D03*
X122555000Y-132715000D03*
X114270454Y-135284546D03*
X160020000Y-120243600D03*
X168910000Y-118338600D03*
X136525000Y-131445000D03*
D24*
X126365000Y-125095000D02*
X130175000Y-125095000D01*
X123825000Y-122555000D02*
X126365000Y-125095000D01*
X107950000Y-122555000D02*
X123825000Y-122555000D01*
X103505000Y-118110000D02*
X107950000Y-122555000D01*
X103505000Y-106045000D02*
X103505000Y-118110000D01*
X111125000Y-104140000D02*
X105410000Y-104140000D01*
X111760000Y-103505000D02*
X111125000Y-104140000D01*
X105410000Y-104140000D02*
X103505000Y-106045000D01*
X111760000Y-102235000D02*
X111760000Y-103505000D01*
D25*
X113665000Y-102235000D02*
X111760000Y-102235000D01*
X119380000Y-96520000D02*
X113665000Y-102235000D01*
X121920000Y-96520000D02*
X119380000Y-96520000D01*
X122555000Y-95885000D02*
X121920000Y-96520000D01*
X122555000Y-93980000D02*
X122555000Y-95885000D01*
X123190000Y-93345000D02*
X122555000Y-93980000D01*
D24*
X123190000Y-99312060D02*
X123190000Y-97790000D01*
X123190000Y-97790000D02*
X125095000Y-95885000D01*
X125095000Y-95885000D02*
X125095000Y-92710000D01*
X125095000Y-92710000D02*
X123825000Y-91440000D01*
X123825000Y-91440000D02*
X120650000Y-91440000D01*
X120650000Y-91440000D02*
X119380000Y-90170000D01*
X119380000Y-90170000D02*
X119380000Y-88900000D01*
X119380000Y-86360000D02*
X119380000Y-88900000D01*
X118745000Y-115824000D02*
X120015000Y-115824000D01*
X118745000Y-99314000D02*
X120015000Y-99314000D01*
X123188060Y-99314000D02*
X123190000Y-99312060D01*
X121286086Y-99314000D02*
X123188060Y-99314000D01*
X125095000Y-104775000D02*
X123190000Y-102870000D01*
X125095000Y-113665000D02*
X125095000Y-104775000D01*
X123190000Y-102870000D02*
X123190000Y-99312060D01*
X122936000Y-115824000D02*
X125095000Y-113665000D01*
X121344327Y-115824000D02*
X122936000Y-115824000D01*
X157937199Y-97967801D02*
X159385000Y-96520000D01*
X125730000Y-118745000D02*
X132080000Y-112395000D01*
X132080000Y-102235000D02*
X136347199Y-97967801D01*
X132080000Y-112395000D02*
X132080000Y-102235000D01*
X136347199Y-97967801D02*
X157937199Y-97967801D01*
X159385000Y-96520000D02*
X165735000Y-96520000D01*
X165735000Y-96520000D02*
X171450000Y-102235000D01*
X171450000Y-102235000D02*
X171450000Y-128270000D01*
X171450000Y-128270000D02*
X173990000Y-130810000D01*
X173990000Y-130810000D02*
X173990000Y-133350000D01*
X159385000Y-94615026D02*
X159385000Y-93345000D01*
X159385000Y-94615026D02*
X159385000Y-93345000D01*
X159385000Y-96520000D02*
X159385000Y-94615026D01*
X173990000Y-134620000D02*
X173990000Y-133350000D01*
X125730000Y-118745000D02*
X111760000Y-118745000D01*
D25*
X113665000Y-116840000D02*
X111760000Y-118745000D01*
X115570000Y-116840000D02*
X113665000Y-116840000D01*
X121920000Y-113030000D02*
X119380000Y-113030000D01*
X122555000Y-112395000D02*
X121920000Y-113030000D01*
X119380000Y-113030000D02*
X115570000Y-116840000D01*
X122555000Y-109855000D02*
X122555000Y-112395000D01*
X123190000Y-109220000D02*
X122555000Y-109855000D01*
D26*
X167640000Y-94615000D02*
X171450000Y-94615000D01*
X171450000Y-94615000D02*
X172085000Y-93980000D01*
X172085000Y-93980000D02*
X172085000Y-89831486D01*
X172085000Y-89831486D02*
X170349257Y-88095743D01*
X170349257Y-88095743D02*
X170349257Y-85670976D01*
X166370000Y-94615000D02*
X167640000Y-94615000D01*
X170180000Y-96520000D02*
X170815000Y-96520000D01*
X170815000Y-96520000D02*
X173990000Y-99695000D01*
X173990000Y-99695000D02*
X173990000Y-118745000D01*
X173990000Y-118745000D02*
X173355000Y-119380000D01*
X173355000Y-119380000D02*
X173355000Y-121460000D01*
X170180000Y-96520000D02*
X168910000Y-96520000D01*
D27*
X119049810Y-130810000D02*
X132715000Y-130810000D01*
X117779810Y-132080000D02*
X119049810Y-130810000D01*
D25*
G36*
X117271800Y-92506800D02*
X116120832Y-92506800D01*
X115485832Y-93141800D01*
X111040832Y-93141800D01*
X109135832Y-95046800D01*
X106883200Y-95046800D01*
X106883200Y-90170000D01*
X106883200Y-89738200D01*
X109220000Y-89738200D01*
X116755832Y-89738200D01*
X117271800Y-90254168D01*
X117271800Y-92506800D01*
X117271800Y-92506800D01*
G37*
X117271800Y-92506800D02*
X116120832Y-92506800D01*
X115485832Y-93141800D01*
X111040832Y-93141800D01*
X109135832Y-95046800D01*
X106883200Y-95046800D01*
X106883200Y-90170000D01*
X106883200Y-89738200D01*
X109220000Y-89738200D01*
X116755832Y-89738200D01*
X117271800Y-90254168D01*
X117271800Y-92506800D01*
G36*
X117271800Y-109016800D02*
X116120832Y-109016800D01*
X115485832Y-109651800D01*
X111040832Y-109651800D01*
X109135832Y-111556800D01*
X106883200Y-111556800D01*
X106883200Y-106680000D01*
X106883200Y-106248200D01*
X109220000Y-106248200D01*
X116755832Y-106248200D01*
X117271800Y-106764168D01*
X117271800Y-109016800D01*
X117271800Y-109016800D01*
G37*
X117271800Y-109016800D02*
X116120832Y-109016800D01*
X115485832Y-109651800D01*
X111040832Y-109651800D01*
X109135832Y-111556800D01*
X106883200Y-111556800D01*
X106883200Y-106680000D01*
X106883200Y-106248200D01*
X109220000Y-106248200D01*
X116755832Y-106248200D01*
X117271800Y-106764168D01*
X117271800Y-109016800D01*
G36*
X112191800Y-102666800D02*
X109855000Y-102666800D01*
X106883200Y-102666800D01*
X106883200Y-97993200D01*
X109135832Y-97993200D01*
X111040832Y-99898200D01*
X112191800Y-99898200D01*
X112191800Y-102666800D01*
X112191800Y-102666800D01*
G37*
X112191800Y-102666800D02*
X109855000Y-102666800D01*
X106883200Y-102666800D01*
X106883200Y-97993200D01*
X109135832Y-97993200D01*
X111040832Y-99898200D01*
X112191800Y-99898200D01*
X112191800Y-102666800D01*
G36*
X112191800Y-120446800D02*
X109855000Y-120446800D01*
X109304168Y-120446800D01*
X106883200Y-118025832D01*
X106883200Y-114503200D01*
X109135832Y-114503200D01*
X111040832Y-116408200D01*
X112191800Y-116408200D01*
X112191800Y-120446800D01*
X112191800Y-120446800D01*
G37*
X112191800Y-120446800D02*
X109855000Y-120446800D01*
X109304168Y-120446800D01*
X106883200Y-118025832D01*
X106883200Y-114503200D01*
X109135832Y-114503200D01*
X111040832Y-116408200D01*
X112191800Y-116408200D01*
X112191800Y-120446800D01*
G36*
X167436800Y-142036800D02*
X165684412Y-142036800D01*
X165684412Y-138823550D01*
X165499191Y-138375281D01*
X165164924Y-138040431D01*
X165210133Y-137815000D01*
X165210133Y-134005000D01*
X165157518Y-133733822D01*
X165000954Y-133495481D01*
X164764597Y-133335938D01*
X164485000Y-133279867D01*
X161740577Y-133279867D01*
X161873988Y-132958578D01*
X161874412Y-132473550D01*
X161874412Y-128079350D01*
X161690586Y-127634458D01*
X161873988Y-127192778D01*
X161874412Y-126707750D01*
X161689191Y-126259481D01*
X161566410Y-126136485D01*
X161687985Y-126015123D01*
X161873988Y-125567178D01*
X161874412Y-125082150D01*
X161689191Y-124633881D01*
X161346523Y-124290615D01*
X160898578Y-124104612D01*
X160413550Y-124104188D01*
X159969062Y-124287846D01*
X159969412Y-123888063D01*
X159785586Y-123443171D01*
X159968988Y-123001491D01*
X159969028Y-122955290D01*
X160411422Y-123138988D01*
X160896450Y-123139412D01*
X161344719Y-122954191D01*
X161687985Y-122611523D01*
X161873988Y-122163578D01*
X161874412Y-121678550D01*
X161689191Y-121230281D01*
X161346523Y-120887015D01*
X161113192Y-120790127D01*
X161238988Y-120487178D01*
X161239412Y-120002150D01*
X161054191Y-119553881D01*
X160711523Y-119210615D01*
X160263578Y-119024612D01*
X159778550Y-119024188D01*
X159330281Y-119209409D01*
X158987015Y-119552077D01*
X158801012Y-120000022D01*
X158800588Y-120485050D01*
X158985809Y-120933319D01*
X159328477Y-121276585D01*
X159561807Y-121373472D01*
X159436012Y-121676422D01*
X159435971Y-121722622D01*
X158993578Y-121538925D01*
X158508550Y-121538501D01*
X158445412Y-121564589D01*
X158445412Y-107962550D01*
X158260191Y-107514281D01*
X157917523Y-107171015D01*
X157469578Y-106985012D01*
X156984550Y-106984588D01*
X156723953Y-107092264D01*
X156793988Y-106923602D01*
X156794412Y-106438574D01*
X156609191Y-105990305D01*
X156266523Y-105647039D01*
X155818578Y-105461036D01*
X155333550Y-105460612D01*
X154885281Y-105645833D01*
X154542015Y-105988501D01*
X154356012Y-106436446D01*
X154355594Y-106914553D01*
X153913578Y-106731012D01*
X153428550Y-106730588D01*
X152983996Y-106914273D01*
X152984412Y-106438550D01*
X152799191Y-105990281D01*
X152456523Y-105647015D01*
X152008578Y-105461012D01*
X151523550Y-105460588D01*
X151075281Y-105645809D01*
X150732015Y-105988477D01*
X150687381Y-106095967D01*
X150253550Y-106095588D01*
X149805281Y-106280809D01*
X149462015Y-106623477D01*
X149276012Y-107071422D01*
X149275588Y-107556450D01*
X149460809Y-108004719D01*
X149803477Y-108347985D01*
X150251422Y-108533988D01*
X150736450Y-108534412D01*
X151184719Y-108349191D01*
X151527985Y-108006523D01*
X151572618Y-107899032D01*
X152006450Y-107899412D01*
X152451003Y-107715726D01*
X152450588Y-108191450D01*
X152635809Y-108639719D01*
X152978477Y-108982985D01*
X153064901Y-109018871D01*
X152683898Y-109176299D01*
X152340632Y-109518967D01*
X152154629Y-109966912D01*
X152154205Y-110451940D01*
X152339426Y-110900209D01*
X152682094Y-111243475D01*
X153130039Y-111429478D01*
X153615067Y-111429902D01*
X154063336Y-111244681D01*
X154406602Y-110902013D01*
X154592605Y-110454068D01*
X154592617Y-110439280D01*
X154742869Y-110439412D01*
X155191138Y-110254191D01*
X155534404Y-109911523D01*
X155720407Y-109463578D01*
X155720831Y-108978550D01*
X155535610Y-108530281D01*
X155192942Y-108187015D01*
X154889104Y-108060850D01*
X154889405Y-107715470D01*
X155331422Y-107899012D01*
X155816450Y-107899436D01*
X156077046Y-107791759D01*
X156007012Y-107960422D01*
X156006588Y-108445450D01*
X156191809Y-108893719D01*
X156534477Y-109236985D01*
X156982422Y-109422988D01*
X157467450Y-109423412D01*
X157915719Y-109238191D01*
X158258985Y-108895523D01*
X158444988Y-108447578D01*
X158445412Y-107962550D01*
X158445412Y-121564589D01*
X158064412Y-121722015D01*
X158064412Y-112153550D01*
X157879191Y-111705281D01*
X157536523Y-111362015D01*
X157088578Y-111176012D01*
X156603550Y-111175588D01*
X156155281Y-111360809D01*
X155892316Y-111623315D01*
X155601971Y-111332463D01*
X155154026Y-111146460D01*
X154668998Y-111146036D01*
X154220729Y-111331257D01*
X153877463Y-111673925D01*
X153691460Y-112121870D01*
X153691036Y-112606898D01*
X153876257Y-113055167D01*
X154218925Y-113398433D01*
X154666870Y-113584436D01*
X155151898Y-113584860D01*
X155600167Y-113399639D01*
X155863131Y-113137132D01*
X156153477Y-113427985D01*
X156601422Y-113613988D01*
X157086450Y-113614412D01*
X157534719Y-113429191D01*
X157877985Y-113086523D01*
X158063988Y-112638578D01*
X158064412Y-112153550D01*
X158064412Y-121722015D01*
X158060281Y-121723722D01*
X157717015Y-122066390D01*
X157531012Y-122514335D01*
X157530588Y-122999363D01*
X157714413Y-123444254D01*
X157531012Y-123885935D01*
X157530588Y-124370963D01*
X157715809Y-124819232D01*
X158058477Y-125162498D01*
X158506422Y-125348501D01*
X158991450Y-125348925D01*
X159435937Y-125165266D01*
X159435588Y-125565050D01*
X159620809Y-126013319D01*
X159743589Y-126136314D01*
X159622015Y-126257677D01*
X159436012Y-126705622D01*
X159435588Y-127190650D01*
X159619413Y-127635541D01*
X159436012Y-128077222D01*
X159435588Y-128562250D01*
X159620809Y-129010519D01*
X159963477Y-129353785D01*
X160411422Y-129539788D01*
X160896450Y-129540212D01*
X161344719Y-129354991D01*
X161687985Y-129012323D01*
X161873988Y-128564378D01*
X161874412Y-128079350D01*
X161874412Y-132473550D01*
X161689191Y-132025281D01*
X161346523Y-131682015D01*
X160898578Y-131496012D01*
X160413550Y-131495588D01*
X159965281Y-131680809D01*
X159622015Y-132023477D01*
X159436012Y-132471422D01*
X159435754Y-132765843D01*
X159143550Y-132765588D01*
X158695281Y-132950809D01*
X158352015Y-133293477D01*
X158166012Y-133741422D01*
X158165588Y-134226450D01*
X158350809Y-134674719D01*
X158693477Y-135017985D01*
X159141422Y-135203988D01*
X159626450Y-135204412D01*
X159949867Y-135070778D01*
X159949867Y-137815000D01*
X160002482Y-138086178D01*
X160159046Y-138324519D01*
X160395403Y-138484062D01*
X160675000Y-138540133D01*
X160822813Y-138540133D01*
X160706012Y-138821422D01*
X160705588Y-139306450D01*
X160890809Y-139754719D01*
X161233477Y-140097985D01*
X161681422Y-140283988D01*
X162166450Y-140284412D01*
X162560416Y-140121628D01*
X162951422Y-140283988D01*
X163436450Y-140284412D01*
X163830416Y-140121628D01*
X164221422Y-140283988D01*
X164706450Y-140284412D01*
X165154719Y-140099191D01*
X165497985Y-139756523D01*
X165683988Y-139308578D01*
X165684412Y-138823550D01*
X165684412Y-142036800D01*
X165350968Y-142036800D01*
X165156523Y-141842015D01*
X164708578Y-141656012D01*
X164223550Y-141655588D01*
X163775281Y-141840809D01*
X163578947Y-142036800D01*
X156413200Y-142036800D01*
X156413200Y-136321800D01*
X156361200Y-136321800D01*
X156361200Y-131445000D01*
X156361200Y-118745000D01*
X156301354Y-118444134D01*
X156130927Y-118189073D01*
X155875866Y-118018646D01*
X155575000Y-117958800D01*
X149225000Y-117958800D01*
X148924134Y-118018646D01*
X148669073Y-118189073D01*
X148498646Y-118444134D01*
X148438800Y-118745000D01*
X148438800Y-129055760D01*
X148198578Y-128956012D01*
X147904412Y-128955754D01*
X147904412Y-116598550D01*
X147719191Y-116150281D01*
X147376523Y-115807015D01*
X146928578Y-115621012D01*
X146443550Y-115620588D01*
X145995281Y-115805809D01*
X145652015Y-116148477D01*
X145466012Y-116596422D01*
X145465588Y-117081450D01*
X145650809Y-117529719D01*
X145993477Y-117872985D01*
X146441422Y-118058988D01*
X146926450Y-118059412D01*
X147374719Y-117874191D01*
X147717985Y-117531523D01*
X147903988Y-117083578D01*
X147904412Y-116598550D01*
X147904412Y-128955754D01*
X147713550Y-128955588D01*
X147265281Y-129140809D01*
X146922015Y-129483477D01*
X146736012Y-129931422D01*
X146735588Y-130416450D01*
X146920809Y-130864719D01*
X147263477Y-131207985D01*
X147711422Y-131393988D01*
X148196450Y-131394412D01*
X148438800Y-131294275D01*
X148438800Y-131445000D01*
X148498646Y-131745866D01*
X148669073Y-132000927D01*
X148924134Y-132171354D01*
X149225000Y-132231200D01*
X155575000Y-132231200D01*
X155875866Y-132171354D01*
X156130927Y-132000927D01*
X156301354Y-131745866D01*
X156361200Y-131445000D01*
X156361200Y-136321800D01*
X146630259Y-136321800D01*
X146630259Y-133798503D01*
X146445038Y-133350234D01*
X146102370Y-133006968D01*
X145654425Y-132820965D01*
X145169397Y-132820541D01*
X144802798Y-132972016D01*
X144782707Y-132951890D01*
X144334762Y-132765887D01*
X143849734Y-132765463D01*
X143459412Y-132926740D01*
X143459412Y-129933550D01*
X143459412Y-126123550D01*
X143274191Y-125675281D01*
X142931523Y-125332015D01*
X142483578Y-125146012D01*
X141998550Y-125145588D01*
X141935412Y-125171676D01*
X141935412Y-103390584D01*
X141750191Y-102942315D01*
X141407523Y-102599049D01*
X140959578Y-102413046D01*
X140474550Y-102412622D01*
X140026281Y-102597843D01*
X139683015Y-102940511D01*
X139497012Y-103388456D01*
X139496588Y-103873484D01*
X139681809Y-104321753D01*
X140024477Y-104665019D01*
X140472422Y-104851022D01*
X140957450Y-104851446D01*
X141405719Y-104666225D01*
X141748985Y-104323557D01*
X141934988Y-103875612D01*
X141935412Y-103390584D01*
X141935412Y-125171676D01*
X141550281Y-125330809D01*
X141207015Y-125673477D01*
X141021012Y-126121422D01*
X141020588Y-126606450D01*
X141205809Y-127054719D01*
X141548477Y-127397985D01*
X141996422Y-127583988D01*
X142481450Y-127584412D01*
X142929719Y-127399191D01*
X143272985Y-127056523D01*
X143458988Y-126608578D01*
X143459412Y-126123550D01*
X143459412Y-129933550D01*
X143274191Y-129485281D01*
X142931523Y-129142015D01*
X142483578Y-128956012D01*
X141998550Y-128955588D01*
X141550281Y-129140809D01*
X141207015Y-129483477D01*
X141021012Y-129931422D01*
X141020588Y-130416450D01*
X141205809Y-130864719D01*
X141548477Y-131207985D01*
X141996422Y-131393988D01*
X142481450Y-131394412D01*
X142929719Y-131209191D01*
X143272985Y-130866523D01*
X143458988Y-130418578D01*
X143459412Y-129933550D01*
X143459412Y-132926740D01*
X143401465Y-132950684D01*
X143058199Y-133293352D01*
X143013532Y-133400920D01*
X142633550Y-133400588D01*
X142185281Y-133585809D01*
X141842015Y-133928477D01*
X141656012Y-134376422D01*
X141655588Y-134861450D01*
X141840809Y-135309719D01*
X142183477Y-135652985D01*
X142631422Y-135838988D01*
X143116450Y-135839412D01*
X143564719Y-135654191D01*
X143907985Y-135311523D01*
X143952651Y-135203954D01*
X144332634Y-135204287D01*
X144699232Y-135052811D01*
X144719324Y-135072938D01*
X145167269Y-135258941D01*
X145652297Y-135259365D01*
X146100566Y-135074144D01*
X146443832Y-134731476D01*
X146629835Y-134283531D01*
X146630259Y-133798503D01*
X146630259Y-136321800D01*
X140919412Y-136321800D01*
X140919412Y-128028550D01*
X140919412Y-115963550D01*
X140734191Y-115515281D01*
X140391523Y-115172015D01*
X139943578Y-114986012D01*
X139458550Y-114985588D01*
X139010281Y-115170809D01*
X138667015Y-115513477D01*
X138481012Y-115961422D01*
X138480588Y-116446450D01*
X138665809Y-116894719D01*
X139008477Y-117237985D01*
X139456422Y-117423988D01*
X139941450Y-117424412D01*
X140389719Y-117239191D01*
X140732985Y-116896523D01*
X140918988Y-116448578D01*
X140919412Y-115963550D01*
X140919412Y-128028550D01*
X140734191Y-127580281D01*
X140391523Y-127237015D01*
X139943578Y-127051012D01*
X139458550Y-127050588D01*
X139010281Y-127235809D01*
X138667015Y-127578477D01*
X138481012Y-128026422D01*
X138480588Y-128511450D01*
X138665809Y-128959719D01*
X139008477Y-129302985D01*
X139456422Y-129488988D01*
X139941450Y-129489412D01*
X140389719Y-129304191D01*
X140732985Y-128961523D01*
X140918988Y-128513578D01*
X140919412Y-128028550D01*
X140919412Y-136321800D01*
X140284412Y-136321800D01*
X140284412Y-134378550D01*
X140099191Y-133930281D01*
X139756523Y-133587015D01*
X139308578Y-133401012D01*
X139014412Y-133400754D01*
X139014412Y-129933550D01*
X138829191Y-129485281D01*
X138486523Y-129142015D01*
X138038578Y-128956012D01*
X137553550Y-128955588D01*
X137105281Y-129140809D01*
X136762015Y-129483477D01*
X136576012Y-129931422D01*
X136575754Y-130225843D01*
X136283550Y-130225588D01*
X135835281Y-130410809D01*
X135492015Y-130753477D01*
X135306012Y-131201422D01*
X135305588Y-131686450D01*
X135490809Y-132134719D01*
X135833477Y-132477985D01*
X136281422Y-132663988D01*
X136766450Y-132664412D01*
X137214719Y-132479191D01*
X137557985Y-132136523D01*
X137743988Y-131688578D01*
X137744245Y-131394156D01*
X138036450Y-131394412D01*
X138484719Y-131209191D01*
X138827985Y-130866523D01*
X139013988Y-130418578D01*
X139014412Y-129933550D01*
X139014412Y-133400754D01*
X138823550Y-133400588D01*
X138375281Y-133585809D01*
X138032015Y-133928477D01*
X137846012Y-134376422D01*
X137845588Y-134861450D01*
X138030809Y-135309719D01*
X138373477Y-135652985D01*
X138821422Y-135838988D01*
X139306450Y-135839412D01*
X139754719Y-135654191D01*
X140097985Y-135311523D01*
X140283988Y-134863578D01*
X140284412Y-134378550D01*
X140284412Y-136321800D01*
X132799168Y-136321800D01*
X128150968Y-131673600D01*
X131854387Y-131673600D01*
X132023477Y-131842985D01*
X132471422Y-132028988D01*
X132956450Y-132029412D01*
X133404719Y-131844191D01*
X133747985Y-131501523D01*
X133933988Y-131053578D01*
X133934412Y-130568550D01*
X133749191Y-130120281D01*
X133406523Y-129777015D01*
X132958578Y-129591012D01*
X132473550Y-129590588D01*
X132025281Y-129775809D01*
X131854392Y-129946400D01*
X127203200Y-129946400D01*
X127203200Y-125095000D01*
X127203200Y-123274168D01*
X128431123Y-122046244D01*
X128321012Y-122311422D01*
X128320588Y-122796450D01*
X128505809Y-123244719D01*
X128848477Y-123587985D01*
X129296422Y-123773988D01*
X129781450Y-123774412D01*
X130229719Y-123589191D01*
X130572985Y-123246523D01*
X130758988Y-122798578D01*
X130759369Y-122362720D01*
X130864719Y-122319191D01*
X131207985Y-121976523D01*
X131393988Y-121528578D01*
X131394412Y-121043550D01*
X131209191Y-120595281D01*
X130866523Y-120252015D01*
X130759032Y-120207381D01*
X130759369Y-119822720D01*
X130864719Y-119779191D01*
X131207985Y-119436523D01*
X131326669Y-119150698D01*
X136728200Y-113749168D01*
X136728200Y-105025960D01*
X136842653Y-104911706D01*
X137103477Y-105172985D01*
X137551422Y-105358988D01*
X138036450Y-105359412D01*
X138484719Y-105174191D01*
X138827985Y-104831523D01*
X139013988Y-104383578D01*
X139014412Y-103898550D01*
X138829191Y-103450281D01*
X138486523Y-103107015D01*
X138038578Y-102921012D01*
X138031362Y-102921005D01*
X139784168Y-101168200D01*
X159949867Y-101168200D01*
X159949867Y-102215000D01*
X160002482Y-102486178D01*
X160159046Y-102724519D01*
X160395403Y-102884062D01*
X160675000Y-102940133D01*
X164485000Y-102940133D01*
X164756178Y-102887518D01*
X164994519Y-102730954D01*
X165154062Y-102494597D01*
X165210133Y-102215000D01*
X165210133Y-101168200D01*
X166285832Y-101168200D01*
X167436800Y-102319168D01*
X167436800Y-105410000D01*
X167436800Y-107064031D01*
X167242015Y-107258477D01*
X167056012Y-107706422D01*
X167055588Y-108191450D01*
X167218371Y-108585416D01*
X167056012Y-108976422D01*
X167055588Y-109461450D01*
X167240809Y-109909719D01*
X167436800Y-110106052D01*
X167436800Y-114300000D01*
X167436800Y-115849221D01*
X167398550Y-115849188D01*
X166950281Y-116034409D01*
X166607015Y-116377077D01*
X166421012Y-116825022D01*
X166420954Y-116890843D01*
X166128550Y-116890588D01*
X165680281Y-117075809D01*
X165337015Y-117418477D01*
X165151012Y-117866422D01*
X165150588Y-118351450D01*
X165335809Y-118799719D01*
X165678477Y-119142985D01*
X166126422Y-119328988D01*
X166611450Y-119329412D01*
X167059719Y-119144191D01*
X167402985Y-118801523D01*
X167436800Y-118720087D01*
X167436800Y-127050621D01*
X167398550Y-127050588D01*
X166950281Y-127235809D01*
X166607015Y-127578477D01*
X166421012Y-128026422D01*
X166420588Y-128511450D01*
X166605809Y-128959719D01*
X166671629Y-129025654D01*
X166394815Y-129301987D01*
X166208812Y-129749932D01*
X166208388Y-130234960D01*
X166291044Y-130435003D01*
X165972015Y-130753477D01*
X165786012Y-131201422D01*
X165785588Y-131686450D01*
X165970809Y-132134719D01*
X166313477Y-132477985D01*
X166761422Y-132663988D01*
X167246450Y-132664412D01*
X167436800Y-132585760D01*
X167436800Y-142036800D01*
X167436800Y-142036800D01*
G37*
X167436800Y-142036800D02*
X165684412Y-142036800D01*
X165684412Y-138823550D01*
X165499191Y-138375281D01*
X165164924Y-138040431D01*
X165210133Y-137815000D01*
X165210133Y-134005000D01*
X165157518Y-133733822D01*
X165000954Y-133495481D01*
X164764597Y-133335938D01*
X164485000Y-133279867D01*
X161740577Y-133279867D01*
X161873988Y-132958578D01*
X161874412Y-132473550D01*
X161874412Y-128079350D01*
X161690586Y-127634458D01*
X161873988Y-127192778D01*
X161874412Y-126707750D01*
X161689191Y-126259481D01*
X161566410Y-126136485D01*
X161687985Y-126015123D01*
X161873988Y-125567178D01*
X161874412Y-125082150D01*
X161689191Y-124633881D01*
X161346523Y-124290615D01*
X160898578Y-124104612D01*
X160413550Y-124104188D01*
X159969062Y-124287846D01*
X159969412Y-123888063D01*
X159785586Y-123443171D01*
X159968988Y-123001491D01*
X159969028Y-122955290D01*
X160411422Y-123138988D01*
X160896450Y-123139412D01*
X161344719Y-122954191D01*
X161687985Y-122611523D01*
X161873988Y-122163578D01*
X161874412Y-121678550D01*
X161689191Y-121230281D01*
X161346523Y-120887015D01*
X161113192Y-120790127D01*
X161238988Y-120487178D01*
X161239412Y-120002150D01*
X161054191Y-119553881D01*
X160711523Y-119210615D01*
X160263578Y-119024612D01*
X159778550Y-119024188D01*
X159330281Y-119209409D01*
X158987015Y-119552077D01*
X158801012Y-120000022D01*
X158800588Y-120485050D01*
X158985809Y-120933319D01*
X159328477Y-121276585D01*
X159561807Y-121373472D01*
X159436012Y-121676422D01*
X159435971Y-121722622D01*
X158993578Y-121538925D01*
X158508550Y-121538501D01*
X158445412Y-121564589D01*
X158445412Y-107962550D01*
X158260191Y-107514281D01*
X157917523Y-107171015D01*
X157469578Y-106985012D01*
X156984550Y-106984588D01*
X156723953Y-107092264D01*
X156793988Y-106923602D01*
X156794412Y-106438574D01*
X156609191Y-105990305D01*
X156266523Y-105647039D01*
X155818578Y-105461036D01*
X155333550Y-105460612D01*
X154885281Y-105645833D01*
X154542015Y-105988501D01*
X154356012Y-106436446D01*
X154355594Y-106914553D01*
X153913578Y-106731012D01*
X153428550Y-106730588D01*
X152983996Y-106914273D01*
X152984412Y-106438550D01*
X152799191Y-105990281D01*
X152456523Y-105647015D01*
X152008578Y-105461012D01*
X151523550Y-105460588D01*
X151075281Y-105645809D01*
X150732015Y-105988477D01*
X150687381Y-106095967D01*
X150253550Y-106095588D01*
X149805281Y-106280809D01*
X149462015Y-106623477D01*
X149276012Y-107071422D01*
X149275588Y-107556450D01*
X149460809Y-108004719D01*
X149803477Y-108347985D01*
X150251422Y-108533988D01*
X150736450Y-108534412D01*
X151184719Y-108349191D01*
X151527985Y-108006523D01*
X151572618Y-107899032D01*
X152006450Y-107899412D01*
X152451003Y-107715726D01*
X152450588Y-108191450D01*
X152635809Y-108639719D01*
X152978477Y-108982985D01*
X153064901Y-109018871D01*
X152683898Y-109176299D01*
X152340632Y-109518967D01*
X152154629Y-109966912D01*
X152154205Y-110451940D01*
X152339426Y-110900209D01*
X152682094Y-111243475D01*
X153130039Y-111429478D01*
X153615067Y-111429902D01*
X154063336Y-111244681D01*
X154406602Y-110902013D01*
X154592605Y-110454068D01*
X154592617Y-110439280D01*
X154742869Y-110439412D01*
X155191138Y-110254191D01*
X155534404Y-109911523D01*
X155720407Y-109463578D01*
X155720831Y-108978550D01*
X155535610Y-108530281D01*
X155192942Y-108187015D01*
X154889104Y-108060850D01*
X154889405Y-107715470D01*
X155331422Y-107899012D01*
X155816450Y-107899436D01*
X156077046Y-107791759D01*
X156007012Y-107960422D01*
X156006588Y-108445450D01*
X156191809Y-108893719D01*
X156534477Y-109236985D01*
X156982422Y-109422988D01*
X157467450Y-109423412D01*
X157915719Y-109238191D01*
X158258985Y-108895523D01*
X158444988Y-108447578D01*
X158445412Y-107962550D01*
X158445412Y-121564589D01*
X158064412Y-121722015D01*
X158064412Y-112153550D01*
X157879191Y-111705281D01*
X157536523Y-111362015D01*
X157088578Y-111176012D01*
X156603550Y-111175588D01*
X156155281Y-111360809D01*
X155892316Y-111623315D01*
X155601971Y-111332463D01*
X155154026Y-111146460D01*
X154668998Y-111146036D01*
X154220729Y-111331257D01*
X153877463Y-111673925D01*
X153691460Y-112121870D01*
X153691036Y-112606898D01*
X153876257Y-113055167D01*
X154218925Y-113398433D01*
X154666870Y-113584436D01*
X155151898Y-113584860D01*
X155600167Y-113399639D01*
X155863131Y-113137132D01*
X156153477Y-113427985D01*
X156601422Y-113613988D01*
X157086450Y-113614412D01*
X157534719Y-113429191D01*
X157877985Y-113086523D01*
X158063988Y-112638578D01*
X158064412Y-112153550D01*
X158064412Y-121722015D01*
X158060281Y-121723722D01*
X157717015Y-122066390D01*
X157531012Y-122514335D01*
X157530588Y-122999363D01*
X157714413Y-123444254D01*
X157531012Y-123885935D01*
X157530588Y-124370963D01*
X157715809Y-124819232D01*
X158058477Y-125162498D01*
X158506422Y-125348501D01*
X158991450Y-125348925D01*
X159435937Y-125165266D01*
X159435588Y-125565050D01*
X159620809Y-126013319D01*
X159743589Y-126136314D01*
X159622015Y-126257677D01*
X159436012Y-126705622D01*
X159435588Y-127190650D01*
X159619413Y-127635541D01*
X159436012Y-128077222D01*
X159435588Y-128562250D01*
X159620809Y-129010519D01*
X159963477Y-129353785D01*
X160411422Y-129539788D01*
X160896450Y-129540212D01*
X161344719Y-129354991D01*
X161687985Y-129012323D01*
X161873988Y-128564378D01*
X161874412Y-128079350D01*
X161874412Y-132473550D01*
X161689191Y-132025281D01*
X161346523Y-131682015D01*
X160898578Y-131496012D01*
X160413550Y-131495588D01*
X159965281Y-131680809D01*
X159622015Y-132023477D01*
X159436012Y-132471422D01*
X159435754Y-132765843D01*
X159143550Y-132765588D01*
X158695281Y-132950809D01*
X158352015Y-133293477D01*
X158166012Y-133741422D01*
X158165588Y-134226450D01*
X158350809Y-134674719D01*
X158693477Y-135017985D01*
X159141422Y-135203988D01*
X159626450Y-135204412D01*
X159949867Y-135070778D01*
X159949867Y-137815000D01*
X160002482Y-138086178D01*
X160159046Y-138324519D01*
X160395403Y-138484062D01*
X160675000Y-138540133D01*
X160822813Y-138540133D01*
X160706012Y-138821422D01*
X160705588Y-139306450D01*
X160890809Y-139754719D01*
X161233477Y-140097985D01*
X161681422Y-140283988D01*
X162166450Y-140284412D01*
X162560416Y-140121628D01*
X162951422Y-140283988D01*
X163436450Y-140284412D01*
X163830416Y-140121628D01*
X164221422Y-140283988D01*
X164706450Y-140284412D01*
X165154719Y-140099191D01*
X165497985Y-139756523D01*
X165683988Y-139308578D01*
X165684412Y-138823550D01*
X165684412Y-142036800D01*
X165350968Y-142036800D01*
X165156523Y-141842015D01*
X164708578Y-141656012D01*
X164223550Y-141655588D01*
X163775281Y-141840809D01*
X163578947Y-142036800D01*
X156413200Y-142036800D01*
X156413200Y-136321800D01*
X156361200Y-136321800D01*
X156361200Y-131445000D01*
X156361200Y-118745000D01*
X156301354Y-118444134D01*
X156130927Y-118189073D01*
X155875866Y-118018646D01*
X155575000Y-117958800D01*
X149225000Y-117958800D01*
X148924134Y-118018646D01*
X148669073Y-118189073D01*
X148498646Y-118444134D01*
X148438800Y-118745000D01*
X148438800Y-129055760D01*
X148198578Y-128956012D01*
X147904412Y-128955754D01*
X147904412Y-116598550D01*
X147719191Y-116150281D01*
X147376523Y-115807015D01*
X146928578Y-115621012D01*
X146443550Y-115620588D01*
X145995281Y-115805809D01*
X145652015Y-116148477D01*
X145466012Y-116596422D01*
X145465588Y-117081450D01*
X145650809Y-117529719D01*
X145993477Y-117872985D01*
X146441422Y-118058988D01*
X146926450Y-118059412D01*
X147374719Y-117874191D01*
X147717985Y-117531523D01*
X147903988Y-117083578D01*
X147904412Y-116598550D01*
X147904412Y-128955754D01*
X147713550Y-128955588D01*
X147265281Y-129140809D01*
X146922015Y-129483477D01*
X146736012Y-129931422D01*
X146735588Y-130416450D01*
X146920809Y-130864719D01*
X147263477Y-131207985D01*
X147711422Y-131393988D01*
X148196450Y-131394412D01*
X148438800Y-131294275D01*
X148438800Y-131445000D01*
X148498646Y-131745866D01*
X148669073Y-132000927D01*
X148924134Y-132171354D01*
X149225000Y-132231200D01*
X155575000Y-132231200D01*
X155875866Y-132171354D01*
X156130927Y-132000927D01*
X156301354Y-131745866D01*
X156361200Y-131445000D01*
X156361200Y-136321800D01*
X146630259Y-136321800D01*
X146630259Y-133798503D01*
X146445038Y-133350234D01*
X146102370Y-133006968D01*
X145654425Y-132820965D01*
X145169397Y-132820541D01*
X144802798Y-132972016D01*
X144782707Y-132951890D01*
X144334762Y-132765887D01*
X143849734Y-132765463D01*
X143459412Y-132926740D01*
X143459412Y-129933550D01*
X143459412Y-126123550D01*
X143274191Y-125675281D01*
X142931523Y-125332015D01*
X142483578Y-125146012D01*
X141998550Y-125145588D01*
X141935412Y-125171676D01*
X141935412Y-103390584D01*
X141750191Y-102942315D01*
X141407523Y-102599049D01*
X140959578Y-102413046D01*
X140474550Y-102412622D01*
X140026281Y-102597843D01*
X139683015Y-102940511D01*
X139497012Y-103388456D01*
X139496588Y-103873484D01*
X139681809Y-104321753D01*
X140024477Y-104665019D01*
X140472422Y-104851022D01*
X140957450Y-104851446D01*
X141405719Y-104666225D01*
X141748985Y-104323557D01*
X141934988Y-103875612D01*
X141935412Y-103390584D01*
X141935412Y-125171676D01*
X141550281Y-125330809D01*
X141207015Y-125673477D01*
X141021012Y-126121422D01*
X141020588Y-126606450D01*
X141205809Y-127054719D01*
X141548477Y-127397985D01*
X141996422Y-127583988D01*
X142481450Y-127584412D01*
X142929719Y-127399191D01*
X143272985Y-127056523D01*
X143458988Y-126608578D01*
X143459412Y-126123550D01*
X143459412Y-129933550D01*
X143274191Y-129485281D01*
X142931523Y-129142015D01*
X142483578Y-128956012D01*
X141998550Y-128955588D01*
X141550281Y-129140809D01*
X141207015Y-129483477D01*
X141021012Y-129931422D01*
X141020588Y-130416450D01*
X141205809Y-130864719D01*
X141548477Y-131207985D01*
X141996422Y-131393988D01*
X142481450Y-131394412D01*
X142929719Y-131209191D01*
X143272985Y-130866523D01*
X143458988Y-130418578D01*
X143459412Y-129933550D01*
X143459412Y-132926740D01*
X143401465Y-132950684D01*
X143058199Y-133293352D01*
X143013532Y-133400920D01*
X142633550Y-133400588D01*
X142185281Y-133585809D01*
X141842015Y-133928477D01*
X141656012Y-134376422D01*
X141655588Y-134861450D01*
X141840809Y-135309719D01*
X142183477Y-135652985D01*
X142631422Y-135838988D01*
X143116450Y-135839412D01*
X143564719Y-135654191D01*
X143907985Y-135311523D01*
X143952651Y-135203954D01*
X144332634Y-135204287D01*
X144699232Y-135052811D01*
X144719324Y-135072938D01*
X145167269Y-135258941D01*
X145652297Y-135259365D01*
X146100566Y-135074144D01*
X146443832Y-134731476D01*
X146629835Y-134283531D01*
X146630259Y-133798503D01*
X146630259Y-136321800D01*
X140919412Y-136321800D01*
X140919412Y-128028550D01*
X140919412Y-115963550D01*
X140734191Y-115515281D01*
X140391523Y-115172015D01*
X139943578Y-114986012D01*
X139458550Y-114985588D01*
X139010281Y-115170809D01*
X138667015Y-115513477D01*
X138481012Y-115961422D01*
X138480588Y-116446450D01*
X138665809Y-116894719D01*
X139008477Y-117237985D01*
X139456422Y-117423988D01*
X139941450Y-117424412D01*
X140389719Y-117239191D01*
X140732985Y-116896523D01*
X140918988Y-116448578D01*
X140919412Y-115963550D01*
X140919412Y-128028550D01*
X140734191Y-127580281D01*
X140391523Y-127237015D01*
X139943578Y-127051012D01*
X139458550Y-127050588D01*
X139010281Y-127235809D01*
X138667015Y-127578477D01*
X138481012Y-128026422D01*
X138480588Y-128511450D01*
X138665809Y-128959719D01*
X139008477Y-129302985D01*
X139456422Y-129488988D01*
X139941450Y-129489412D01*
X140389719Y-129304191D01*
X140732985Y-128961523D01*
X140918988Y-128513578D01*
X140919412Y-128028550D01*
X140919412Y-136321800D01*
X140284412Y-136321800D01*
X140284412Y-134378550D01*
X140099191Y-133930281D01*
X139756523Y-133587015D01*
X139308578Y-133401012D01*
X139014412Y-133400754D01*
X139014412Y-129933550D01*
X138829191Y-129485281D01*
X138486523Y-129142015D01*
X138038578Y-128956012D01*
X137553550Y-128955588D01*
X137105281Y-129140809D01*
X136762015Y-129483477D01*
X136576012Y-129931422D01*
X136575754Y-130225843D01*
X136283550Y-130225588D01*
X135835281Y-130410809D01*
X135492015Y-130753477D01*
X135306012Y-131201422D01*
X135305588Y-131686450D01*
X135490809Y-132134719D01*
X135833477Y-132477985D01*
X136281422Y-132663988D01*
X136766450Y-132664412D01*
X137214719Y-132479191D01*
X137557985Y-132136523D01*
X137743988Y-131688578D01*
X137744245Y-131394156D01*
X138036450Y-131394412D01*
X138484719Y-131209191D01*
X138827985Y-130866523D01*
X139013988Y-130418578D01*
X139014412Y-129933550D01*
X139014412Y-133400754D01*
X138823550Y-133400588D01*
X138375281Y-133585809D01*
X138032015Y-133928477D01*
X137846012Y-134376422D01*
X137845588Y-134861450D01*
X138030809Y-135309719D01*
X138373477Y-135652985D01*
X138821422Y-135838988D01*
X139306450Y-135839412D01*
X139754719Y-135654191D01*
X140097985Y-135311523D01*
X140283988Y-134863578D01*
X140284412Y-134378550D01*
X140284412Y-136321800D01*
X132799168Y-136321800D01*
X128150968Y-131673600D01*
X131854387Y-131673600D01*
X132023477Y-131842985D01*
X132471422Y-132028988D01*
X132956450Y-132029412D01*
X133404719Y-131844191D01*
X133747985Y-131501523D01*
X133933988Y-131053578D01*
X133934412Y-130568550D01*
X133749191Y-130120281D01*
X133406523Y-129777015D01*
X132958578Y-129591012D01*
X132473550Y-129590588D01*
X132025281Y-129775809D01*
X131854392Y-129946400D01*
X127203200Y-129946400D01*
X127203200Y-125095000D01*
X127203200Y-123274168D01*
X128431123Y-122046244D01*
X128321012Y-122311422D01*
X128320588Y-122796450D01*
X128505809Y-123244719D01*
X128848477Y-123587985D01*
X129296422Y-123773988D01*
X129781450Y-123774412D01*
X130229719Y-123589191D01*
X130572985Y-123246523D01*
X130758988Y-122798578D01*
X130759369Y-122362720D01*
X130864719Y-122319191D01*
X131207985Y-121976523D01*
X131393988Y-121528578D01*
X131394412Y-121043550D01*
X131209191Y-120595281D01*
X130866523Y-120252015D01*
X130759032Y-120207381D01*
X130759369Y-119822720D01*
X130864719Y-119779191D01*
X131207985Y-119436523D01*
X131326669Y-119150698D01*
X136728200Y-113749168D01*
X136728200Y-105025960D01*
X136842653Y-104911706D01*
X137103477Y-105172985D01*
X137551422Y-105358988D01*
X138036450Y-105359412D01*
X138484719Y-105174191D01*
X138827985Y-104831523D01*
X139013988Y-104383578D01*
X139014412Y-103898550D01*
X138829191Y-103450281D01*
X138486523Y-103107015D01*
X138038578Y-102921012D01*
X138031362Y-102921005D01*
X139784168Y-101168200D01*
X159949867Y-101168200D01*
X159949867Y-102215000D01*
X160002482Y-102486178D01*
X160159046Y-102724519D01*
X160395403Y-102884062D01*
X160675000Y-102940133D01*
X164485000Y-102940133D01*
X164756178Y-102887518D01*
X164994519Y-102730954D01*
X165154062Y-102494597D01*
X165210133Y-102215000D01*
X165210133Y-101168200D01*
X166285832Y-101168200D01*
X167436800Y-102319168D01*
X167436800Y-105410000D01*
X167436800Y-107064031D01*
X167242015Y-107258477D01*
X167056012Y-107706422D01*
X167055588Y-108191450D01*
X167218371Y-108585416D01*
X167056012Y-108976422D01*
X167055588Y-109461450D01*
X167240809Y-109909719D01*
X167436800Y-110106052D01*
X167436800Y-114300000D01*
X167436800Y-115849221D01*
X167398550Y-115849188D01*
X166950281Y-116034409D01*
X166607015Y-116377077D01*
X166421012Y-116825022D01*
X166420954Y-116890843D01*
X166128550Y-116890588D01*
X165680281Y-117075809D01*
X165337015Y-117418477D01*
X165151012Y-117866422D01*
X165150588Y-118351450D01*
X165335809Y-118799719D01*
X165678477Y-119142985D01*
X166126422Y-119328988D01*
X166611450Y-119329412D01*
X167059719Y-119144191D01*
X167402985Y-118801523D01*
X167436800Y-118720087D01*
X167436800Y-127050621D01*
X167398550Y-127050588D01*
X166950281Y-127235809D01*
X166607015Y-127578477D01*
X166421012Y-128026422D01*
X166420588Y-128511450D01*
X166605809Y-128959719D01*
X166671629Y-129025654D01*
X166394815Y-129301987D01*
X166208812Y-129749932D01*
X166208388Y-130234960D01*
X166291044Y-130435003D01*
X165972015Y-130753477D01*
X165786012Y-131201422D01*
X165785588Y-131686450D01*
X165970809Y-132134719D01*
X166313477Y-132477985D01*
X166761422Y-132663988D01*
X167246450Y-132664412D01*
X167436800Y-132585760D01*
X167436800Y-142036800D01*
D28*
G36*
X151638000Y-151690000D02*
X148325089Y-151690000D01*
X148462801Y-151358354D01*
X148463198Y-150903641D01*
X148289554Y-150483388D01*
X147968303Y-150161577D01*
X147929800Y-150145589D01*
X147929800Y-140747417D01*
X147756156Y-140327164D01*
X147434905Y-140005353D01*
X147014956Y-139830975D01*
X146560243Y-139830578D01*
X146139990Y-140004222D01*
X146124897Y-140019288D01*
X146114097Y-140008469D01*
X145694148Y-139834091D01*
X145239435Y-139833694D01*
X144819182Y-140007338D01*
X144809100Y-140017401D01*
X144793303Y-140001577D01*
X144373354Y-139827199D01*
X143918641Y-139826802D01*
X143498388Y-140000446D01*
X143176577Y-140321697D01*
X143002199Y-140741646D01*
X143001802Y-141196359D01*
X143175446Y-141616612D01*
X143496697Y-141938423D01*
X143916646Y-142112801D01*
X144371359Y-142113198D01*
X144791612Y-141939554D01*
X144801693Y-141929490D01*
X144817491Y-141945315D01*
X145237440Y-142119693D01*
X145692153Y-142120090D01*
X146112406Y-141946446D01*
X146127498Y-141931379D01*
X146138299Y-141942199D01*
X146558248Y-142116577D01*
X147012961Y-142116974D01*
X147433214Y-141943330D01*
X147755025Y-141622079D01*
X147929403Y-141202130D01*
X147929800Y-140747417D01*
X147929800Y-150145589D01*
X147548354Y-149987199D01*
X147093641Y-149986802D01*
X146673388Y-150160446D01*
X146558080Y-150275552D01*
X146444303Y-150161577D01*
X146024354Y-149987199D01*
X145569641Y-149986802D01*
X145149388Y-150160446D01*
X144827577Y-150481697D01*
X144653199Y-150901646D01*
X144652802Y-151356359D01*
X144790658Y-151690000D01*
X141975089Y-151690000D01*
X142112801Y-151358354D01*
X142113198Y-150903641D01*
X141939554Y-150483388D01*
X141618303Y-150161577D01*
X141198354Y-149987199D01*
X140743641Y-149986802D01*
X140334511Y-150155850D01*
X139928354Y-149987199D01*
X139473641Y-149986802D01*
X139064511Y-150155850D01*
X138658354Y-149987199D01*
X138203641Y-149986802D01*
X137783388Y-150160446D01*
X137461577Y-150481697D01*
X137287199Y-150901646D01*
X137286802Y-151356359D01*
X137424658Y-151690000D01*
X133720089Y-151690000D01*
X133857801Y-151358354D01*
X133858198Y-150903641D01*
X133684554Y-150483388D01*
X133363303Y-150161577D01*
X133355176Y-150158202D01*
X133640573Y-149873303D01*
X133814951Y-149453354D01*
X133815347Y-148999450D01*
X133985488Y-148929149D01*
X134391646Y-149097801D01*
X134846359Y-149098198D01*
X135266612Y-148924554D01*
X135588423Y-148603303D01*
X135762801Y-148183354D01*
X135763198Y-147728641D01*
X135589554Y-147308388D01*
X135407223Y-147125740D01*
X135432440Y-147000000D01*
X135432440Y-145100000D01*
X135407898Y-144973513D01*
X135588423Y-144793303D01*
X135762801Y-144373354D01*
X135763198Y-143918641D01*
X135594149Y-143509511D01*
X135762801Y-143103354D01*
X135763198Y-142648641D01*
X135594149Y-142239511D01*
X135762801Y-141833354D01*
X135763198Y-141378641D01*
X135589554Y-140958388D01*
X135268303Y-140636577D01*
X134848354Y-140462199D01*
X134393641Y-140461802D01*
X133984511Y-140630850D01*
X133578354Y-140462199D01*
X133123641Y-140461802D01*
X132703388Y-140635446D01*
X132381577Y-140956697D01*
X132207199Y-141376646D01*
X132206802Y-141831359D01*
X132375850Y-142240488D01*
X132207199Y-142646646D01*
X132206802Y-143101359D01*
X132375850Y-143510488D01*
X132207199Y-143916646D01*
X132206802Y-144371359D01*
X132380446Y-144791612D01*
X132562776Y-144974259D01*
X132537560Y-145100000D01*
X132537560Y-147000000D01*
X132562101Y-147126486D01*
X132381577Y-147306697D01*
X132207199Y-147726646D01*
X132206802Y-148180549D01*
X132025538Y-148255446D01*
X131703727Y-148576697D01*
X131529349Y-148996646D01*
X131528952Y-149451359D01*
X131702596Y-149871612D01*
X132023847Y-150193423D01*
X132031973Y-150196797D01*
X131746577Y-150481697D01*
X131572199Y-150901646D01*
X131571802Y-151356359D01*
X131709658Y-151690000D01*
X130683198Y-151690000D01*
X130683198Y-143283641D01*
X130509554Y-142863388D01*
X130188303Y-142541577D01*
X129768354Y-142367199D01*
X129313641Y-142366802D01*
X128893388Y-142540446D01*
X128571577Y-142861697D01*
X128397199Y-143281646D01*
X128396802Y-143736359D01*
X128570446Y-144156612D01*
X128891697Y-144478423D01*
X129311646Y-144652801D01*
X129766359Y-144653198D01*
X130186612Y-144479554D01*
X130508423Y-144158303D01*
X130682801Y-143738354D01*
X130683198Y-143283641D01*
X130683198Y-151690000D01*
X126873198Y-151690000D01*
X126873198Y-147728641D01*
X126699554Y-147308388D01*
X126378303Y-146986577D01*
X125958354Y-146812199D01*
X125503641Y-146811802D01*
X125083388Y-146985446D01*
X124761577Y-147306697D01*
X124587199Y-147726646D01*
X124586802Y-148181359D01*
X124760446Y-148601612D01*
X125081697Y-148923423D01*
X125501646Y-149097801D01*
X125956359Y-149098198D01*
X126376612Y-148924554D01*
X126698423Y-148603303D01*
X126872801Y-148183354D01*
X126873198Y-147728641D01*
X126873198Y-151690000D01*
X126238198Y-151690000D01*
X126238198Y-150268641D01*
X126064554Y-149848388D01*
X125743303Y-149526577D01*
X125323354Y-149352199D01*
X124868641Y-149351802D01*
X124448388Y-149525446D01*
X124126577Y-149846697D01*
X123952199Y-150266646D01*
X123951802Y-150721359D01*
X124125446Y-151141612D01*
X124446697Y-151463423D01*
X124866646Y-151637801D01*
X125321359Y-151638198D01*
X125741612Y-151464554D01*
X126063423Y-151143303D01*
X126237801Y-150723354D01*
X126238198Y-150268641D01*
X126238198Y-151690000D01*
X121158198Y-151690000D01*
X121158198Y-143918641D01*
X120984554Y-143498388D01*
X120663303Y-143176577D01*
X120243354Y-143002199D01*
X119788641Y-143001802D01*
X119379511Y-143170850D01*
X118973354Y-143002199D01*
X118518641Y-143001802D01*
X118109511Y-143170850D01*
X117703354Y-143002199D01*
X117347889Y-143001888D01*
X117348198Y-142648641D01*
X117174554Y-142228388D01*
X116853303Y-141906577D01*
X116433354Y-141732199D01*
X115978641Y-141731802D01*
X115558388Y-141905446D01*
X115413652Y-142049930D01*
X115413652Y-135058187D01*
X115240008Y-134637934D01*
X114918757Y-134316123D01*
X114498808Y-134141745D01*
X114044095Y-134141348D01*
X113623842Y-134314992D01*
X113302031Y-134636243D01*
X113127653Y-135056192D01*
X113127256Y-135510905D01*
X113300900Y-135931158D01*
X113622151Y-136252969D01*
X114042100Y-136427347D01*
X114496813Y-136427744D01*
X114917066Y-136254100D01*
X115238877Y-135932849D01*
X115413255Y-135512900D01*
X115413652Y-135058187D01*
X115413652Y-142049930D01*
X115236577Y-142226697D01*
X115062199Y-142646646D01*
X115061802Y-143101359D01*
X115230850Y-143510488D01*
X115062199Y-143916646D01*
X115061802Y-144371359D01*
X115235446Y-144791612D01*
X115556697Y-145113423D01*
X115976646Y-145287801D01*
X116431359Y-145288198D01*
X116840488Y-145119149D01*
X117246646Y-145287801D01*
X117701359Y-145288198D01*
X118110488Y-145119149D01*
X118516646Y-145287801D01*
X118971359Y-145288198D01*
X119380488Y-145119149D01*
X119786646Y-145287801D01*
X120241359Y-145288198D01*
X120661612Y-145114554D01*
X120983423Y-144793303D01*
X121157801Y-144373354D01*
X121158198Y-143918641D01*
X121158198Y-151690000D01*
X109982000Y-151690000D01*
X109982000Y-150444001D01*
X110965131Y-150444860D01*
X112365972Y-149866044D01*
X113438677Y-148795209D01*
X114019937Y-147395381D01*
X114021260Y-145879669D01*
X113442444Y-144478828D01*
X112371609Y-143406123D01*
X110971781Y-142824863D01*
X109982000Y-142823999D01*
X109982000Y-138656838D01*
X110155446Y-139076612D01*
X110476697Y-139398423D01*
X110896646Y-139572801D01*
X111351359Y-139573198D01*
X111771612Y-139399554D01*
X112093423Y-139078303D01*
X112267801Y-138658354D01*
X112268198Y-138203641D01*
X112099149Y-137794511D01*
X112267801Y-137388354D01*
X112268198Y-136933641D01*
X112099149Y-136524511D01*
X112267801Y-136118354D01*
X112268198Y-135663641D01*
X112094554Y-135243388D01*
X111773303Y-134921577D01*
X111353354Y-134747199D01*
X110898641Y-134746802D01*
X110478388Y-134920446D01*
X110156577Y-135241697D01*
X109982199Y-135661646D01*
X109982000Y-135889575D01*
X109982000Y-132306838D01*
X110155446Y-132726612D01*
X110476697Y-133048423D01*
X110896646Y-133222801D01*
X111351359Y-133223198D01*
X111771612Y-133049554D01*
X112093423Y-132728303D01*
X112267801Y-132308354D01*
X112268198Y-131853641D01*
X112099149Y-131444511D01*
X112267801Y-131038354D01*
X112268198Y-130583641D01*
X112099149Y-130174511D01*
X112267801Y-129768354D01*
X112268198Y-129313641D01*
X112094554Y-128893388D01*
X111773303Y-128571577D01*
X111353354Y-128397199D01*
X110898641Y-128396802D01*
X110478388Y-128570446D01*
X110156577Y-128891697D01*
X109982199Y-129311646D01*
X109982000Y-129539575D01*
X109982000Y-124587000D01*
X114247395Y-124587000D01*
X115517395Y-125857000D01*
X116063859Y-125857000D01*
X116086000Y-125861440D01*
X117594000Y-125861440D01*
X117616884Y-125857000D01*
X119761110Y-125857000D01*
X119760802Y-126210359D01*
X119934446Y-126630612D01*
X120255697Y-126952423D01*
X120675646Y-127126801D01*
X121130359Y-127127198D01*
X121550612Y-126953554D01*
X121872423Y-126632303D01*
X122046801Y-126212354D01*
X122047111Y-125857000D01*
X123698000Y-125857000D01*
X123698000Y-130022600D01*
X119049810Y-130022600D01*
X118748485Y-130082537D01*
X118493034Y-130253224D01*
X117983198Y-130763059D01*
X117983198Y-128043641D01*
X117809554Y-127623388D01*
X117488303Y-127301577D01*
X117068354Y-127127199D01*
X116613641Y-127126802D01*
X116193388Y-127300446D01*
X116154701Y-127339064D01*
X115747551Y-127170001D01*
X115292838Y-127169604D01*
X114872585Y-127343248D01*
X114613292Y-127602089D01*
X114320531Y-127308818D01*
X114565612Y-127207554D01*
X114887423Y-126886303D01*
X115061801Y-126466354D01*
X115062198Y-126011641D01*
X114888554Y-125591388D01*
X114567303Y-125269577D01*
X114147354Y-125095199D01*
X113692641Y-125094802D01*
X113272388Y-125268446D01*
X112950577Y-125589697D01*
X112839652Y-125856833D01*
X112803641Y-125856802D01*
X112383388Y-126030446D01*
X112061577Y-126351697D01*
X111887199Y-126771646D01*
X111886802Y-127226359D01*
X112060446Y-127646612D01*
X112381697Y-127968423D01*
X112527469Y-128028953D01*
X112522199Y-128041646D01*
X112521802Y-128496359D01*
X112695446Y-128916612D01*
X113016697Y-129238423D01*
X113436646Y-129412801D01*
X113891359Y-129413198D01*
X114311612Y-129239554D01*
X114570904Y-128980712D01*
X114870894Y-129281225D01*
X115290843Y-129455603D01*
X115745556Y-129456000D01*
X116165809Y-129282356D01*
X116204495Y-129243737D01*
X116611646Y-129412801D01*
X117066359Y-129413198D01*
X117486612Y-129239554D01*
X117808423Y-128918303D01*
X117982801Y-128498354D01*
X117983198Y-128043641D01*
X117983198Y-130763059D01*
X117809232Y-130937025D01*
X117553451Y-130936802D01*
X117133198Y-131110446D01*
X116920645Y-131322628D01*
X116869744Y-131199438D01*
X116548493Y-130877627D01*
X116128544Y-130703249D01*
X115673831Y-130702852D01*
X115253578Y-130876496D01*
X114931767Y-131197747D01*
X114757389Y-131617696D01*
X114756992Y-132072409D01*
X114930636Y-132492662D01*
X115251887Y-132814473D01*
X115671836Y-132988851D01*
X116126549Y-132989248D01*
X116546802Y-132815604D01*
X116759354Y-132603421D01*
X116810256Y-132726612D01*
X117131507Y-133048423D01*
X117551456Y-133222801D01*
X117806243Y-133223023D01*
X117925513Y-133511679D01*
X118246764Y-133833490D01*
X118666713Y-134007868D01*
X118721781Y-134007916D01*
X118721735Y-134061292D01*
X118895379Y-134481545D01*
X119216630Y-134803356D01*
X119412685Y-134884765D01*
X119398002Y-134890832D01*
X119076191Y-135212083D01*
X118901813Y-135632032D01*
X118901416Y-136086745D01*
X119075060Y-136506998D01*
X119396311Y-136828809D01*
X119816260Y-137003187D01*
X120270973Y-137003584D01*
X120691226Y-136829940D01*
X121013037Y-136508689D01*
X121187415Y-136088740D01*
X121187699Y-135762915D01*
X121511359Y-135763198D01*
X121931612Y-135589554D01*
X122253423Y-135268303D01*
X122427801Y-134848354D01*
X122428198Y-134393641D01*
X122254554Y-133973388D01*
X122175628Y-133894324D01*
X122210773Y-133809686D01*
X122326646Y-133857801D01*
X122781359Y-133858198D01*
X123201612Y-133684554D01*
X123523423Y-133363303D01*
X123697801Y-132943354D01*
X123698000Y-132715424D01*
X123698000Y-139192000D01*
X151638000Y-139192000D01*
X151638000Y-151690000D01*
X151638000Y-151690000D01*
G37*
X151638000Y-151690000D02*
X148325089Y-151690000D01*
X148462801Y-151358354D01*
X148463198Y-150903641D01*
X148289554Y-150483388D01*
X147968303Y-150161577D01*
X147929800Y-150145589D01*
X147929800Y-140747417D01*
X147756156Y-140327164D01*
X147434905Y-140005353D01*
X147014956Y-139830975D01*
X146560243Y-139830578D01*
X146139990Y-140004222D01*
X146124897Y-140019288D01*
X146114097Y-140008469D01*
X145694148Y-139834091D01*
X145239435Y-139833694D01*
X144819182Y-140007338D01*
X144809100Y-140017401D01*
X144793303Y-140001577D01*
X144373354Y-139827199D01*
X143918641Y-139826802D01*
X143498388Y-140000446D01*
X143176577Y-140321697D01*
X143002199Y-140741646D01*
X143001802Y-141196359D01*
X143175446Y-141616612D01*
X143496697Y-141938423D01*
X143916646Y-142112801D01*
X144371359Y-142113198D01*
X144791612Y-141939554D01*
X144801693Y-141929490D01*
X144817491Y-141945315D01*
X145237440Y-142119693D01*
X145692153Y-142120090D01*
X146112406Y-141946446D01*
X146127498Y-141931379D01*
X146138299Y-141942199D01*
X146558248Y-142116577D01*
X147012961Y-142116974D01*
X147433214Y-141943330D01*
X147755025Y-141622079D01*
X147929403Y-141202130D01*
X147929800Y-140747417D01*
X147929800Y-150145589D01*
X147548354Y-149987199D01*
X147093641Y-149986802D01*
X146673388Y-150160446D01*
X146558080Y-150275552D01*
X146444303Y-150161577D01*
X146024354Y-149987199D01*
X145569641Y-149986802D01*
X145149388Y-150160446D01*
X144827577Y-150481697D01*
X144653199Y-150901646D01*
X144652802Y-151356359D01*
X144790658Y-151690000D01*
X141975089Y-151690000D01*
X142112801Y-151358354D01*
X142113198Y-150903641D01*
X141939554Y-150483388D01*
X141618303Y-150161577D01*
X141198354Y-149987199D01*
X140743641Y-149986802D01*
X140334511Y-150155850D01*
X139928354Y-149987199D01*
X139473641Y-149986802D01*
X139064511Y-150155850D01*
X138658354Y-149987199D01*
X138203641Y-149986802D01*
X137783388Y-150160446D01*
X137461577Y-150481697D01*
X137287199Y-150901646D01*
X137286802Y-151356359D01*
X137424658Y-151690000D01*
X133720089Y-151690000D01*
X133857801Y-151358354D01*
X133858198Y-150903641D01*
X133684554Y-150483388D01*
X133363303Y-150161577D01*
X133355176Y-150158202D01*
X133640573Y-149873303D01*
X133814951Y-149453354D01*
X133815347Y-148999450D01*
X133985488Y-148929149D01*
X134391646Y-149097801D01*
X134846359Y-149098198D01*
X135266612Y-148924554D01*
X135588423Y-148603303D01*
X135762801Y-148183354D01*
X135763198Y-147728641D01*
X135589554Y-147308388D01*
X135407223Y-147125740D01*
X135432440Y-147000000D01*
X135432440Y-145100000D01*
X135407898Y-144973513D01*
X135588423Y-144793303D01*
X135762801Y-144373354D01*
X135763198Y-143918641D01*
X135594149Y-143509511D01*
X135762801Y-143103354D01*
X135763198Y-142648641D01*
X135594149Y-142239511D01*
X135762801Y-141833354D01*
X135763198Y-141378641D01*
X135589554Y-140958388D01*
X135268303Y-140636577D01*
X134848354Y-140462199D01*
X134393641Y-140461802D01*
X133984511Y-140630850D01*
X133578354Y-140462199D01*
X133123641Y-140461802D01*
X132703388Y-140635446D01*
X132381577Y-140956697D01*
X132207199Y-141376646D01*
X132206802Y-141831359D01*
X132375850Y-142240488D01*
X132207199Y-142646646D01*
X132206802Y-143101359D01*
X132375850Y-143510488D01*
X132207199Y-143916646D01*
X132206802Y-144371359D01*
X132380446Y-144791612D01*
X132562776Y-144974259D01*
X132537560Y-145100000D01*
X132537560Y-147000000D01*
X132562101Y-147126486D01*
X132381577Y-147306697D01*
X132207199Y-147726646D01*
X132206802Y-148180549D01*
X132025538Y-148255446D01*
X131703727Y-148576697D01*
X131529349Y-148996646D01*
X131528952Y-149451359D01*
X131702596Y-149871612D01*
X132023847Y-150193423D01*
X132031973Y-150196797D01*
X131746577Y-150481697D01*
X131572199Y-150901646D01*
X131571802Y-151356359D01*
X131709658Y-151690000D01*
X130683198Y-151690000D01*
X130683198Y-143283641D01*
X130509554Y-142863388D01*
X130188303Y-142541577D01*
X129768354Y-142367199D01*
X129313641Y-142366802D01*
X128893388Y-142540446D01*
X128571577Y-142861697D01*
X128397199Y-143281646D01*
X128396802Y-143736359D01*
X128570446Y-144156612D01*
X128891697Y-144478423D01*
X129311646Y-144652801D01*
X129766359Y-144653198D01*
X130186612Y-144479554D01*
X130508423Y-144158303D01*
X130682801Y-143738354D01*
X130683198Y-143283641D01*
X130683198Y-151690000D01*
X126873198Y-151690000D01*
X126873198Y-147728641D01*
X126699554Y-147308388D01*
X126378303Y-146986577D01*
X125958354Y-146812199D01*
X125503641Y-146811802D01*
X125083388Y-146985446D01*
X124761577Y-147306697D01*
X124587199Y-147726646D01*
X124586802Y-148181359D01*
X124760446Y-148601612D01*
X125081697Y-148923423D01*
X125501646Y-149097801D01*
X125956359Y-149098198D01*
X126376612Y-148924554D01*
X126698423Y-148603303D01*
X126872801Y-148183354D01*
X126873198Y-147728641D01*
X126873198Y-151690000D01*
X126238198Y-151690000D01*
X126238198Y-150268641D01*
X126064554Y-149848388D01*
X125743303Y-149526577D01*
X125323354Y-149352199D01*
X124868641Y-149351802D01*
X124448388Y-149525446D01*
X124126577Y-149846697D01*
X123952199Y-150266646D01*
X123951802Y-150721359D01*
X124125446Y-151141612D01*
X124446697Y-151463423D01*
X124866646Y-151637801D01*
X125321359Y-151638198D01*
X125741612Y-151464554D01*
X126063423Y-151143303D01*
X126237801Y-150723354D01*
X126238198Y-150268641D01*
X126238198Y-151690000D01*
X121158198Y-151690000D01*
X121158198Y-143918641D01*
X120984554Y-143498388D01*
X120663303Y-143176577D01*
X120243354Y-143002199D01*
X119788641Y-143001802D01*
X119379511Y-143170850D01*
X118973354Y-143002199D01*
X118518641Y-143001802D01*
X118109511Y-143170850D01*
X117703354Y-143002199D01*
X117347889Y-143001888D01*
X117348198Y-142648641D01*
X117174554Y-142228388D01*
X116853303Y-141906577D01*
X116433354Y-141732199D01*
X115978641Y-141731802D01*
X115558388Y-141905446D01*
X115413652Y-142049930D01*
X115413652Y-135058187D01*
X115240008Y-134637934D01*
X114918757Y-134316123D01*
X114498808Y-134141745D01*
X114044095Y-134141348D01*
X113623842Y-134314992D01*
X113302031Y-134636243D01*
X113127653Y-135056192D01*
X113127256Y-135510905D01*
X113300900Y-135931158D01*
X113622151Y-136252969D01*
X114042100Y-136427347D01*
X114496813Y-136427744D01*
X114917066Y-136254100D01*
X115238877Y-135932849D01*
X115413255Y-135512900D01*
X115413652Y-135058187D01*
X115413652Y-142049930D01*
X115236577Y-142226697D01*
X115062199Y-142646646D01*
X115061802Y-143101359D01*
X115230850Y-143510488D01*
X115062199Y-143916646D01*
X115061802Y-144371359D01*
X115235446Y-144791612D01*
X115556697Y-145113423D01*
X115976646Y-145287801D01*
X116431359Y-145288198D01*
X116840488Y-145119149D01*
X117246646Y-145287801D01*
X117701359Y-145288198D01*
X118110488Y-145119149D01*
X118516646Y-145287801D01*
X118971359Y-145288198D01*
X119380488Y-145119149D01*
X119786646Y-145287801D01*
X120241359Y-145288198D01*
X120661612Y-145114554D01*
X120983423Y-144793303D01*
X121157801Y-144373354D01*
X121158198Y-143918641D01*
X121158198Y-151690000D01*
X109982000Y-151690000D01*
X109982000Y-150444001D01*
X110965131Y-150444860D01*
X112365972Y-149866044D01*
X113438677Y-148795209D01*
X114019937Y-147395381D01*
X114021260Y-145879669D01*
X113442444Y-144478828D01*
X112371609Y-143406123D01*
X110971781Y-142824863D01*
X109982000Y-142823999D01*
X109982000Y-138656838D01*
X110155446Y-139076612D01*
X110476697Y-139398423D01*
X110896646Y-139572801D01*
X111351359Y-139573198D01*
X111771612Y-139399554D01*
X112093423Y-139078303D01*
X112267801Y-138658354D01*
X112268198Y-138203641D01*
X112099149Y-137794511D01*
X112267801Y-137388354D01*
X112268198Y-136933641D01*
X112099149Y-136524511D01*
X112267801Y-136118354D01*
X112268198Y-135663641D01*
X112094554Y-135243388D01*
X111773303Y-134921577D01*
X111353354Y-134747199D01*
X110898641Y-134746802D01*
X110478388Y-134920446D01*
X110156577Y-135241697D01*
X109982199Y-135661646D01*
X109982000Y-135889575D01*
X109982000Y-132306838D01*
X110155446Y-132726612D01*
X110476697Y-133048423D01*
X110896646Y-133222801D01*
X111351359Y-133223198D01*
X111771612Y-133049554D01*
X112093423Y-132728303D01*
X112267801Y-132308354D01*
X112268198Y-131853641D01*
X112099149Y-131444511D01*
X112267801Y-131038354D01*
X112268198Y-130583641D01*
X112099149Y-130174511D01*
X112267801Y-129768354D01*
X112268198Y-129313641D01*
X112094554Y-128893388D01*
X111773303Y-128571577D01*
X111353354Y-128397199D01*
X110898641Y-128396802D01*
X110478388Y-128570446D01*
X110156577Y-128891697D01*
X109982199Y-129311646D01*
X109982000Y-129539575D01*
X109982000Y-124587000D01*
X114247395Y-124587000D01*
X115517395Y-125857000D01*
X116063859Y-125857000D01*
X116086000Y-125861440D01*
X117594000Y-125861440D01*
X117616884Y-125857000D01*
X119761110Y-125857000D01*
X119760802Y-126210359D01*
X119934446Y-126630612D01*
X120255697Y-126952423D01*
X120675646Y-127126801D01*
X121130359Y-127127198D01*
X121550612Y-126953554D01*
X121872423Y-126632303D01*
X122046801Y-126212354D01*
X122047111Y-125857000D01*
X123698000Y-125857000D01*
X123698000Y-130022600D01*
X119049810Y-130022600D01*
X118748485Y-130082537D01*
X118493034Y-130253224D01*
X117983198Y-130763059D01*
X117983198Y-128043641D01*
X117809554Y-127623388D01*
X117488303Y-127301577D01*
X117068354Y-127127199D01*
X116613641Y-127126802D01*
X116193388Y-127300446D01*
X116154701Y-127339064D01*
X115747551Y-127170001D01*
X115292838Y-127169604D01*
X114872585Y-127343248D01*
X114613292Y-127602089D01*
X114320531Y-127308818D01*
X114565612Y-127207554D01*
X114887423Y-126886303D01*
X115061801Y-126466354D01*
X115062198Y-126011641D01*
X114888554Y-125591388D01*
X114567303Y-125269577D01*
X114147354Y-125095199D01*
X113692641Y-125094802D01*
X113272388Y-125268446D01*
X112950577Y-125589697D01*
X112839652Y-125856833D01*
X112803641Y-125856802D01*
X112383388Y-126030446D01*
X112061577Y-126351697D01*
X111887199Y-126771646D01*
X111886802Y-127226359D01*
X112060446Y-127646612D01*
X112381697Y-127968423D01*
X112527469Y-128028953D01*
X112522199Y-128041646D01*
X112521802Y-128496359D01*
X112695446Y-128916612D01*
X113016697Y-129238423D01*
X113436646Y-129412801D01*
X113891359Y-129413198D01*
X114311612Y-129239554D01*
X114570904Y-128980712D01*
X114870894Y-129281225D01*
X115290843Y-129455603D01*
X115745556Y-129456000D01*
X116165809Y-129282356D01*
X116204495Y-129243737D01*
X116611646Y-129412801D01*
X117066359Y-129413198D01*
X117486612Y-129239554D01*
X117808423Y-128918303D01*
X117982801Y-128498354D01*
X117983198Y-128043641D01*
X117983198Y-130763059D01*
X117809232Y-130937025D01*
X117553451Y-130936802D01*
X117133198Y-131110446D01*
X116920645Y-131322628D01*
X116869744Y-131199438D01*
X116548493Y-130877627D01*
X116128544Y-130703249D01*
X115673831Y-130702852D01*
X115253578Y-130876496D01*
X114931767Y-131197747D01*
X114757389Y-131617696D01*
X114756992Y-132072409D01*
X114930636Y-132492662D01*
X115251887Y-132814473D01*
X115671836Y-132988851D01*
X116126549Y-132989248D01*
X116546802Y-132815604D01*
X116759354Y-132603421D01*
X116810256Y-132726612D01*
X117131507Y-133048423D01*
X117551456Y-133222801D01*
X117806243Y-133223023D01*
X117925513Y-133511679D01*
X118246764Y-133833490D01*
X118666713Y-134007868D01*
X118721781Y-134007916D01*
X118721735Y-134061292D01*
X118895379Y-134481545D01*
X119216630Y-134803356D01*
X119412685Y-134884765D01*
X119398002Y-134890832D01*
X119076191Y-135212083D01*
X118901813Y-135632032D01*
X118901416Y-136086745D01*
X119075060Y-136506998D01*
X119396311Y-136828809D01*
X119816260Y-137003187D01*
X120270973Y-137003584D01*
X120691226Y-136829940D01*
X121013037Y-136508689D01*
X121187415Y-136088740D01*
X121187699Y-135762915D01*
X121511359Y-135763198D01*
X121931612Y-135589554D01*
X122253423Y-135268303D01*
X122427801Y-134848354D01*
X122428198Y-134393641D01*
X122254554Y-133973388D01*
X122175628Y-133894324D01*
X122210773Y-133809686D01*
X122326646Y-133857801D01*
X122781359Y-133858198D01*
X123201612Y-133684554D01*
X123523423Y-133363303D01*
X123697801Y-132943354D01*
X123698000Y-132715424D01*
X123698000Y-139192000D01*
X151638000Y-139192000D01*
X151638000Y-151690000D01*
G36*
X174498000Y-134607492D02*
X174457033Y-134813451D01*
X174347451Y-134977451D01*
X174183451Y-135087033D01*
X173990000Y-135125512D01*
X173796549Y-135087033D01*
X173632549Y-134977451D01*
X173522967Y-134813451D01*
X173482000Y-134607492D01*
X173482000Y-133362508D01*
X173522967Y-133156549D01*
X173632549Y-132992549D01*
X173796549Y-132882967D01*
X173990000Y-132844488D01*
X174183451Y-132882967D01*
X174347451Y-132992549D01*
X174457033Y-133156549D01*
X174498000Y-133362508D01*
X174498000Y-134607492D01*
X174498000Y-134607492D01*
G37*
X174498000Y-134607492D02*
X174457033Y-134813451D01*
X174347451Y-134977451D01*
X174183451Y-135087033D01*
X173990000Y-135125512D01*
X173796549Y-135087033D01*
X173632549Y-134977451D01*
X173522967Y-134813451D01*
X173482000Y-134607492D01*
X173482000Y-133362508D01*
X173522967Y-133156549D01*
X173632549Y-132992549D01*
X173796549Y-132882967D01*
X173990000Y-132844488D01*
X174183451Y-132882967D01*
X174347451Y-132992549D01*
X174457033Y-133156549D01*
X174498000Y-133362508D01*
X174498000Y-134607492D01*
G36*
X159893000Y-94602492D02*
X159852033Y-94808451D01*
X159742451Y-94972451D01*
X159578451Y-95082033D01*
X159385000Y-95120512D01*
X159191549Y-95082033D01*
X159027549Y-94972451D01*
X158917967Y-94808451D01*
X158877000Y-94602492D01*
X158877000Y-93357508D01*
X158917967Y-93151549D01*
X159027549Y-92987549D01*
X159191549Y-92877967D01*
X159385000Y-92839488D01*
X159578451Y-92877967D01*
X159742451Y-92987549D01*
X159852033Y-93151549D01*
X159893000Y-93357508D01*
X159893000Y-94602492D01*
X159893000Y-94602492D01*
G37*
X159893000Y-94602492D02*
X159852033Y-94808451D01*
X159742451Y-94972451D01*
X159578451Y-95082033D01*
X159385000Y-95120512D01*
X159191549Y-95082033D01*
X159027549Y-94972451D01*
X158917967Y-94808451D01*
X158877000Y-94602492D01*
X158877000Y-93357508D01*
X158917967Y-93151549D01*
X159027549Y-92987549D01*
X159191549Y-92877967D01*
X159385000Y-92839488D01*
X159578451Y-92877967D01*
X159742451Y-92987549D01*
X159852033Y-93151549D01*
X159893000Y-93357508D01*
X159893000Y-94602492D01*
G36*
X168145512Y-94615000D02*
X168107033Y-94808451D01*
X167997451Y-94972451D01*
X167833451Y-95082033D01*
X167627492Y-95123000D01*
X166382508Y-95123000D01*
X166176549Y-95082033D01*
X166012549Y-94972451D01*
X165902967Y-94808451D01*
X165864488Y-94615000D01*
X165902967Y-94421549D01*
X166012549Y-94257549D01*
X166176549Y-94147967D01*
X166382508Y-94107000D01*
X167627492Y-94107000D01*
X167833451Y-94147967D01*
X167997451Y-94257549D01*
X168107033Y-94421549D01*
X168145512Y-94615000D01*
X168145512Y-94615000D01*
G37*
X168145512Y-94615000D02*
X168107033Y-94808451D01*
X167997451Y-94972451D01*
X167833451Y-95082033D01*
X167627492Y-95123000D01*
X166382508Y-95123000D01*
X166176549Y-95082033D01*
X166012549Y-94972451D01*
X165902967Y-94808451D01*
X165864488Y-94615000D01*
X165902967Y-94421549D01*
X166012549Y-94257549D01*
X166176549Y-94147967D01*
X166382508Y-94107000D01*
X167627492Y-94107000D01*
X167833451Y-94147967D01*
X167997451Y-94257549D01*
X168107033Y-94421549D01*
X168145512Y-94615000D01*
G36*
X170685512Y-96520000D02*
X170647033Y-96713451D01*
X170537451Y-96877451D01*
X170373451Y-96987033D01*
X170167492Y-97028000D01*
X168922508Y-97028000D01*
X168716549Y-96987033D01*
X168552549Y-96877451D01*
X168442967Y-96713451D01*
X168404488Y-96520000D01*
X168442967Y-96326549D01*
X168552549Y-96162549D01*
X168716549Y-96052967D01*
X168922508Y-96012000D01*
X170167492Y-96012000D01*
X170373451Y-96052967D01*
X170537451Y-96162549D01*
X170647033Y-96326549D01*
X170685512Y-96520000D01*
X170685512Y-96520000D01*
G37*
X170685512Y-96520000D02*
X170647033Y-96713451D01*
X170537451Y-96877451D01*
X170373451Y-96987033D01*
X170167492Y-97028000D01*
X168922508Y-97028000D01*
X168716549Y-96987033D01*
X168552549Y-96877451D01*
X168442967Y-96713451D01*
X168404488Y-96520000D01*
X168442967Y-96326549D01*
X168552549Y-96162549D01*
X168716549Y-96052967D01*
X168922508Y-96012000D01*
X170167492Y-96012000D01*
X170373451Y-96052967D01*
X170537451Y-96162549D01*
X170647033Y-96326549D01*
X170685512Y-96520000D01*
G36*
X121793000Y-116192492D02*
X121752033Y-116398451D01*
X121642451Y-116562451D01*
X121478451Y-116672033D01*
X121272492Y-116713000D01*
X118757508Y-116713000D01*
X118551549Y-116672033D01*
X118387549Y-116562451D01*
X118277967Y-116398451D01*
X118237000Y-116192492D01*
X118237000Y-115502078D01*
X118804078Y-114935000D01*
X121272492Y-114935000D01*
X121478451Y-114975967D01*
X121642451Y-115085549D01*
X121752033Y-115249549D01*
X121793000Y-115455508D01*
X121793000Y-116192492D01*
X121793000Y-116192492D01*
G37*
X121793000Y-116192492D02*
X121752033Y-116398451D01*
X121642451Y-116562451D01*
X121478451Y-116672033D01*
X121272492Y-116713000D01*
X118757508Y-116713000D01*
X118551549Y-116672033D01*
X118387549Y-116562451D01*
X118277967Y-116398451D01*
X118237000Y-116192492D01*
X118237000Y-115502078D01*
X118804078Y-114935000D01*
X121272492Y-114935000D01*
X121478451Y-114975967D01*
X121642451Y-115085549D01*
X121752033Y-115249549D01*
X121793000Y-115455508D01*
X121793000Y-116192492D01*
G36*
X121793000Y-99682492D02*
X121752033Y-99888451D01*
X121642451Y-100052451D01*
X121478451Y-100162033D01*
X121272492Y-100203000D01*
X118757508Y-100203000D01*
X118551549Y-100162033D01*
X118387549Y-100052451D01*
X118277967Y-99888451D01*
X118237000Y-99682492D01*
X118237000Y-98992078D01*
X118804077Y-98425000D01*
X121272492Y-98425000D01*
X121478451Y-98465967D01*
X121642451Y-98575549D01*
X121752033Y-98739549D01*
X121793000Y-98945508D01*
X121793000Y-99682492D01*
X121793000Y-99682492D01*
G37*
X121793000Y-99682492D02*
X121752033Y-99888451D01*
X121642451Y-100052451D01*
X121478451Y-100162033D01*
X121272492Y-100203000D01*
X118757508Y-100203000D01*
X118551549Y-100162033D01*
X118387549Y-100052451D01*
X118277967Y-99888451D01*
X118237000Y-99682492D01*
X118237000Y-98992078D01*
X118804077Y-98425000D01*
X121272492Y-98425000D01*
X121478451Y-98465967D01*
X121642451Y-98575549D01*
X121752033Y-98739549D01*
X121793000Y-98945508D01*
X121793000Y-99682492D01*
D29*
X111125000Y-138430000D03*
X111125000Y-135890000D03*
X111125000Y-137160000D03*
X121180991Y-133309153D03*
X120904000Y-125984000D03*
X118122484Y-120625031D03*
X119380000Y-120650000D03*
X120650000Y-120650000D03*
X121920000Y-120650000D03*
X128905000Y-105410000D03*
X128905000Y-103505000D03*
X128905000Y-107315000D03*
X160655000Y-132715000D03*
X159385000Y-133985000D03*
X130175000Y-95885000D03*
X128270000Y-95885000D03*
X130175000Y-102235000D03*
X121285000Y-95250000D03*
X140970000Y-151130000D03*
X139700000Y-151130000D03*
X138430000Y-151130000D03*
X132672150Y-149225000D03*
X132715000Y-151130000D03*
X133350000Y-147955000D03*
X134620000Y-147955000D03*
X145796000Y-151130000D03*
X137795000Y-130175000D03*
X142240000Y-126365000D03*
X146685000Y-116840000D03*
X160655000Y-121920000D03*
X147955000Y-130175000D03*
X142240000Y-130175000D03*
X160655000Y-125323600D03*
X146685000Y-90170000D03*
X134620000Y-90170000D03*
X117475000Y-93980000D03*
X117475000Y-95250000D03*
X121285000Y-93980000D03*
X112395000Y-98425000D03*
X112395000Y-97155000D03*
X112395000Y-95885000D03*
X112395000Y-94615000D03*
X111125000Y-95250000D03*
X111125000Y-96520000D03*
X111125000Y-97790000D03*
X118110000Y-104140000D03*
X119380000Y-104140000D03*
X120650000Y-104140000D03*
X121920000Y-104140000D03*
X112395000Y-111125000D03*
X112395000Y-112395000D03*
X112395000Y-113665000D03*
X112395000Y-114935000D03*
X111125000Y-111760000D03*
X111125000Y-113030000D03*
X111125000Y-114300000D03*
X117475000Y-110490000D03*
X117475000Y-111760000D03*
X121285000Y-110490000D03*
X121285000Y-111760000D03*
X133350000Y-90170000D03*
X145415008Y-90170000D03*
X164465000Y-139065000D03*
X163195000Y-139065000D03*
X161925000Y-139065000D03*
X139065000Y-134620000D03*
X142875000Y-134620000D03*
X169037000Y-107188000D03*
X168275000Y-109220000D03*
X168275000Y-107950000D03*
X164465000Y-86995000D03*
X163195000Y-86995000D03*
X161925000Y-86995000D03*
X157226000Y-108204000D03*
X139700000Y-128270000D03*
X139700000Y-116205000D03*
X123190000Y-81280000D03*
X124460000Y-80010000D03*
X124460000Y-81280000D03*
X123190000Y-80010000D03*
X124460000Y-78740000D03*
X123190000Y-77470000D03*
X124460000Y-77470000D03*
X123190000Y-78740000D03*
X125730000Y-147955000D03*
X125095000Y-150495000D03*
X134620000Y-141605000D03*
X134620000Y-144145000D03*
X134620000Y-142875000D03*
X133350000Y-141605000D03*
X133350000Y-144145000D03*
X133350000Y-142875000D03*
X116205000Y-142875000D03*
X116205000Y-144145000D03*
X117475000Y-144145000D03*
X118745000Y-144145000D03*
X120015000Y-144145000D03*
X120044614Y-135860386D03*
X121285000Y-134620000D03*
X113030000Y-127000000D03*
X113919000Y-126238000D03*
X111125000Y-129540000D03*
X119380000Y-124333000D03*
X120777000Y-124333000D03*
X122174000Y-124333000D03*
X154940000Y-93980000D03*
X153670000Y-91440000D03*
X153670000Y-93980000D03*
X153670000Y-92710000D03*
X111125000Y-132080000D03*
X111125000Y-130810000D03*
X135636000Y-102108000D03*
X133985000Y-95885090D03*
X130175000Y-82550000D03*
X130175000Y-83820000D03*
X130175000Y-81280000D03*
X129540000Y-80010000D03*
X129540000Y-78740000D03*
X129540000Y-77470000D03*
X139192000Y-94488000D03*
X135889992Y-104140000D03*
X137795000Y-104140000D03*
X140859619Y-94504631D03*
X155575000Y-106680024D03*
X153670000Y-107950000D03*
X154501419Y-109220000D03*
X145415000Y-105410000D03*
X144145000Y-105410000D03*
X157480000Y-103505000D03*
X130175000Y-132715000D03*
X131445000Y-132715000D03*
X156210000Y-103505000D03*
X123190000Y-93345000D03*
X164465000Y-140970000D03*
X163195000Y-140970000D03*
X161925000Y-140970000D03*
X157607000Y-110363000D03*
X109220000Y-98425000D03*
X109220018Y-100330000D03*
X109220000Y-102235000D03*
X111760000Y-100330000D03*
X111760000Y-102235000D03*
X153373617Y-110210490D03*
X156845000Y-112395000D03*
X154910448Y-112365448D03*
X129540000Y-117475000D03*
X130810000Y-116205000D03*
X130175000Y-118745000D03*
X174371000Y-144145000D03*
X129540000Y-120015000D03*
X173990000Y-145415000D03*
X174371000Y-146685000D03*
X130175000Y-121285000D03*
X129540000Y-122555000D03*
X173990000Y-147955000D03*
X145410847Y-134039953D03*
X144091184Y-133984875D03*
X160655000Y-128320800D03*
X160655000Y-126949200D03*
X170144675Y-92402663D03*
X158750000Y-124129513D03*
X169801323Y-121769933D03*
X168773075Y-92402663D03*
X158750000Y-122757913D03*
X168831457Y-120800067D03*
X140716000Y-103632034D03*
X132080000Y-95885000D03*
X150495000Y-107315000D03*
X166370000Y-118110000D03*
X174371000Y-139065000D03*
X171450000Y-131445000D03*
X151765000Y-106680000D03*
X167640000Y-117068600D03*
X170815000Y-130175000D03*
X173990000Y-140335000D03*
X118745000Y-99314000D03*
X120015000Y-115824000D03*
X118745000Y-115824000D03*
X120015000Y-99314000D03*
X121344327Y-115824000D03*
X121286086Y-99314000D03*
X138400454Y-149254546D03*
X138070740Y-146122990D03*
X144094187Y-151130000D03*
X142875000Y-151130000D03*
X159385000Y-93345000D03*
X159385000Y-94615026D03*
X123190000Y-109220000D03*
X123190000Y-109220000D03*
X173990000Y-133350000D03*
X173990000Y-134620000D03*
X113030000Y-125095000D03*
X111760000Y-125095000D03*
X118715454Y-139729546D03*
X118745000Y-140970000D03*
X109220000Y-114934990D03*
X109220000Y-116840004D03*
X109220000Y-118745010D03*
X111760000Y-118745000D03*
X111760000Y-116840000D03*
X129540000Y-143510000D03*
X147320000Y-151130000D03*
X113665000Y-128270000D03*
X144145000Y-140970000D03*
X115519197Y-128312802D03*
X116840000Y-128270000D03*
X146786602Y-140973776D03*
X115900190Y-131846050D03*
X145465794Y-140976892D03*
X116205000Y-106679978D03*
X116205000Y-107696000D03*
X109220000Y-107315000D03*
X109220000Y-109220000D03*
X109220000Y-111125000D03*
X111760000Y-107315000D03*
X111760000Y-109220000D03*
X116205000Y-90170000D03*
X116205000Y-91186000D03*
X109220000Y-90805000D03*
X109220000Y-92710012D03*
X109220000Y-94615000D03*
X111760000Y-90805000D03*
X111760000Y-92710000D03*
X116332000Y-112776000D03*
X116332000Y-113792000D03*
X116332000Y-97409006D03*
X116332000Y-96393000D03*
X146685000Y-96520000D03*
X145415000Y-95884992D03*
X147955010Y-95885000D03*
X149225000Y-96520000D03*
X167640000Y-94615000D03*
X166370000Y-94615000D03*
X168910000Y-96520000D03*
X170180000Y-96520000D03*
X173990000Y-142875000D03*
X167427800Y-129993510D03*
X174371000Y-141605000D03*
X167640000Y-128270000D03*
X164465000Y-142875000D03*
X167005000Y-131445000D03*
X132715000Y-130810000D03*
X117779810Y-132080000D03*
X119864933Y-133834933D03*
X118895067Y-132865067D03*
X122555000Y-132715000D03*
X114270454Y-135284546D03*
X160020000Y-120243600D03*
X168910000Y-118338600D03*
X136525000Y-131445000D03*
X119450483Y-78124303D03*
X119712163Y-83117451D03*
X116885023Y-80762184D03*
X136200000Y-88695000D03*
X143200000Y-88695000D03*
X170349257Y-85670976D03*
X167858770Y-85453087D03*
X165866381Y-85278775D03*
X163375894Y-85060886D03*
X173644638Y-83228895D03*
X160554640Y-82083668D03*
X173355000Y-121460000D03*
X173355000Y-123460000D03*
X173355000Y-125460000D03*
X173355000Y-127460000D03*
X129540000Y-88900000D03*
X129540000Y-86360000D03*
X127000000Y-88900000D03*
X127000000Y-86360000D03*
X124460000Y-88900000D03*
X124460000Y-86360000D03*
X121920000Y-88900000D03*
X121920000Y-86360000D03*
X119380000Y-88900000D03*
X119380000Y-86360000D03*
X102870000Y-86360000D03*
X102870000Y-123190000D03*
X133985000Y-146050000D03*
X118745000Y-110490000D03*
X118745000Y-111760000D03*
X120015000Y-110490000D03*
X120015000Y-111760000D03*
X118745000Y-93980000D03*
X118745000Y-95250000D03*
X120015000Y-93980000D03*
X120015000Y-95250000D03*
X162580000Y-100310000D03*
X162580000Y-135910000D03*
X126980000Y-135910000D03*
X126980000Y-100310000D03*
X156108400Y-146634200D03*
X156108400Y-144348200D03*
X154128666Y-145491200D03*
X154128666Y-147777200D03*
X156108400Y-148920200D03*
X158088134Y-147777200D03*
X158088134Y-145491200D03*
X110210600Y-146634200D03*
X110210600Y-144348200D03*
X108230866Y-145491200D03*
X108230866Y-147777200D03*
X110210600Y-148920200D03*
X112190334Y-147777200D03*
X112190334Y-145491200D03*
X156108400Y-83896200D03*
X156108400Y-81610200D03*
X154128666Y-82753200D03*
X154128666Y-85039200D03*
X156108400Y-86182200D03*
X158088134Y-85039200D03*
X158088134Y-82753200D03*
X110210600Y-83896200D03*
X110210600Y-81610200D03*
X108230866Y-82753200D03*
X108230866Y-85039200D03*
X110210600Y-86182200D03*
X112190334Y-85039200D03*
X112190334Y-82753200D03*
X116840000Y-124460000D03*
M02*
