G04 #@! TF.FileFunction,Copper,L2,Inr,Plane*
%FSLAX46Y46*%
G04 Gerber Fmt 4.6, Leading zero omitted, Abs format (unit mm)*
G04 Created by KiCad (PCBNEW (2015-04-03 BZR 5570)-product) date Mon Apr  6 03:58:37 2015*
%MOMM*%
G01*
G04 APERTURE LIST*
%ADD10C,0.150000*%
%ADD11C,2.800000*%
%ADD12C,2.500000*%
%ADD13C,1.600000*%
%ADD14C,3.300000*%
%ADD15R,1.400000X1.400000*%
%ADD16C,1.400000*%
%ADD17R,1.600000X1.600000*%
%ADD18R,1.508000X1.508000*%
%ADD19R,1.600000X1.900000*%
%ADD20C,1.000000*%
%ADD21R,3.810000X3.810000*%
%ADD22C,6.350000*%
%ADD23C,1.016000*%
%ADD24C,0.609600*%
%ADD25C,0.254000*%
%ADD26C,0.406400*%
%ADD27C,0.350000*%
G04 APERTURE END LIST*
D10*
D11*
X119450483Y-78124303D03*
X119712163Y-83117451D03*
D12*
X116885023Y-80762184D03*
D13*
X170349257Y-85670976D03*
X167858770Y-85453087D03*
X165866381Y-85278775D03*
X163375894Y-85060886D03*
D14*
X173644638Y-83228895D03*
X160554640Y-82083668D03*
D15*
X173355000Y-121460000D03*
D16*
X173355000Y-123460000D03*
X173355000Y-125460000D03*
X173355000Y-127460000D03*
D17*
X129540000Y-88900000D03*
D13*
X129540000Y-86360000D03*
X127000000Y-88900000D03*
X127000000Y-86360000D03*
X124460000Y-88900000D03*
X124460000Y-86360000D03*
X121920000Y-88900000D03*
X121920000Y-86360000D03*
X119380000Y-88900000D03*
X119380000Y-86360000D03*
D18*
X102870000Y-86360000D03*
X102870000Y-123190000D03*
D19*
X133985000Y-146050000D03*
D20*
X118745000Y-110490000D03*
X118745000Y-111760000D03*
X120015000Y-110490000D03*
X120015000Y-111760000D03*
X118745000Y-93980000D03*
X118745000Y-95250000D03*
X120015000Y-93980000D03*
X120015000Y-95250000D03*
D21*
X162580000Y-100310000D03*
X162580000Y-135910000D03*
X126980000Y-135910000D03*
X126980000Y-100310000D03*
D22*
X156108400Y-146634200D03*
D23*
X156108400Y-144348200D03*
X154128666Y-145491200D03*
X154128666Y-147777200D03*
X156108400Y-148920200D03*
X158088134Y-147777200D03*
X158088134Y-145491200D03*
D22*
X110210600Y-146634200D03*
D23*
X110210600Y-144348200D03*
X108230866Y-145491200D03*
X108230866Y-147777200D03*
X110210600Y-148920200D03*
X112190334Y-147777200D03*
X112190334Y-145491200D03*
D22*
X156108400Y-83896200D03*
D23*
X156108400Y-81610200D03*
X154128666Y-82753200D03*
X154128666Y-85039200D03*
X156108400Y-86182200D03*
X158088134Y-85039200D03*
X158088134Y-82753200D03*
D22*
X110210600Y-83896200D03*
D23*
X110210600Y-81610200D03*
X108230866Y-82753200D03*
X108230866Y-85039200D03*
X110210600Y-86182200D03*
X112190334Y-85039200D03*
X112190334Y-82753200D03*
D18*
X116840000Y-124460000D03*
D23*
X111125000Y-138430000D03*
X111125000Y-135890000D03*
X111125000Y-137160000D03*
X121180991Y-133309153D03*
X120904000Y-125984000D03*
X118122484Y-120625031D03*
X119380000Y-120650000D03*
X120650000Y-120650000D03*
X121920000Y-120650000D03*
X128905000Y-105410000D03*
X128905000Y-103505000D03*
X128905000Y-107315000D03*
X160655000Y-132715000D03*
X159385000Y-133985000D03*
X130175000Y-95885000D03*
X128270000Y-95885000D03*
X130175000Y-102235000D03*
X121285000Y-95250000D03*
X140970000Y-151130000D03*
X139700000Y-151130000D03*
X138430000Y-151130000D03*
X132672150Y-149225000D03*
X132715000Y-151130000D03*
X133350000Y-147955000D03*
X134620000Y-147955000D03*
X145796000Y-151130000D03*
X137795000Y-130175000D03*
X142240000Y-126365000D03*
X146685000Y-116840000D03*
X160655000Y-121920000D03*
X147955000Y-130175000D03*
X142240000Y-130175000D03*
X160655000Y-125323600D03*
X146685000Y-90170000D03*
X134620000Y-90170000D03*
X117475000Y-93980000D03*
X117475000Y-95250000D03*
X121285000Y-93980000D03*
X112395000Y-98425000D03*
X112395000Y-97155000D03*
X112395000Y-95885000D03*
X112395000Y-94615000D03*
X111125000Y-95250000D03*
X111125000Y-96520000D03*
X111125000Y-97790000D03*
X118110000Y-104140000D03*
X119380000Y-104140000D03*
X120650000Y-104140000D03*
X121920000Y-104140000D03*
X112395000Y-111125000D03*
X112395000Y-112395000D03*
X112395000Y-113665000D03*
X112395000Y-114935000D03*
X111125000Y-111760000D03*
X111125000Y-113030000D03*
X111125000Y-114300000D03*
X117475000Y-110490000D03*
X117475000Y-111760000D03*
X121285000Y-110490000D03*
X121285000Y-111760000D03*
X133350000Y-90170000D03*
X145415008Y-90170000D03*
X164465000Y-139065000D03*
X163195000Y-139065000D03*
X161925000Y-139065000D03*
X139065000Y-134620000D03*
X142875000Y-134620000D03*
X169037000Y-107188000D03*
X168275000Y-109220000D03*
X168275000Y-107950000D03*
X164465000Y-86995000D03*
X163195000Y-86995000D03*
X161925000Y-86995000D03*
X157226000Y-108204000D03*
X139700000Y-128270000D03*
X139700000Y-116205000D03*
X123190000Y-81280000D03*
X124460000Y-80010000D03*
X124460000Y-81280000D03*
X123190000Y-80010000D03*
X124460000Y-78740000D03*
X123190000Y-77470000D03*
X124460000Y-77470000D03*
X123190000Y-78740000D03*
X125730000Y-147955000D03*
X125095000Y-150495000D03*
X134620000Y-141605000D03*
X134620000Y-144145000D03*
X134620000Y-142875000D03*
X133350000Y-141605000D03*
X133350000Y-144145000D03*
X133350000Y-142875000D03*
X116205000Y-142875000D03*
X116205000Y-144145000D03*
X117475000Y-144145000D03*
X118745000Y-144145000D03*
X120015000Y-144145000D03*
X120044614Y-135860386D03*
X121285000Y-134620000D03*
X113030000Y-127000000D03*
X113919000Y-126238000D03*
X111125000Y-129540000D03*
X119380000Y-124333000D03*
X120777000Y-124333000D03*
X122174000Y-124333000D03*
X154940000Y-93980000D03*
X153670000Y-91440000D03*
X153670000Y-93980000D03*
X153670000Y-92710000D03*
X111125000Y-132080000D03*
X111125000Y-130810000D03*
X135636000Y-102108000D03*
X133985000Y-95885090D03*
X130175000Y-82550000D03*
X130175000Y-83820000D03*
X130175000Y-81280000D03*
X129540000Y-80010000D03*
X129540000Y-78740000D03*
X129540000Y-77470000D03*
X139192000Y-94488000D03*
X135889992Y-104140000D03*
X137795000Y-104140000D03*
X140859619Y-94504631D03*
X155575000Y-106680024D03*
X153670000Y-107950000D03*
X154501419Y-109220000D03*
X145415000Y-105410000D03*
X144145000Y-105410000D03*
X157480000Y-103505000D03*
X130175000Y-132715000D03*
X131445000Y-132715000D03*
X156210000Y-103505000D03*
X123190000Y-93345000D03*
X164465000Y-140970000D03*
X163195000Y-140970000D03*
X161925000Y-140970000D03*
X157607000Y-110363000D03*
X109220000Y-98425000D03*
X109220018Y-100330000D03*
X109220000Y-102235000D03*
X111760000Y-100330000D03*
X111760000Y-102235000D03*
X153373617Y-110210490D03*
X156845000Y-112395000D03*
X154910448Y-112365448D03*
X129540000Y-117475000D03*
X130810000Y-116205000D03*
X130175000Y-118745000D03*
X174371000Y-144145000D03*
X129540000Y-120015000D03*
X173990000Y-145415000D03*
X174371000Y-146685000D03*
X130175000Y-121285000D03*
X129540000Y-122555000D03*
X173990000Y-147955000D03*
X145410847Y-134039953D03*
X144091184Y-133984875D03*
X160655000Y-128320800D03*
X160655000Y-126949200D03*
X170144675Y-92402663D03*
X158750000Y-124129513D03*
X169801323Y-121769933D03*
X168773075Y-92402663D03*
X158750000Y-122757913D03*
X168831457Y-120800067D03*
X140716000Y-103632034D03*
X132080000Y-95885000D03*
X150495000Y-107315000D03*
X166370000Y-118110000D03*
X174371000Y-139065000D03*
X171450000Y-131445000D03*
X151765000Y-106680000D03*
X167640000Y-117068600D03*
X170815000Y-130175000D03*
X173990000Y-140335000D03*
X118745000Y-99314000D03*
X120015000Y-115824000D03*
X118745000Y-115824000D03*
X120015000Y-99314000D03*
X121344327Y-115824000D03*
X121286086Y-99314000D03*
X138400454Y-149254546D03*
X138070740Y-146122990D03*
X144094187Y-151130000D03*
X142875000Y-151130000D03*
X159385000Y-93345000D03*
X159385000Y-94615026D03*
X123190000Y-109220000D03*
X123190000Y-109220000D03*
X173990000Y-133350000D03*
X173990000Y-134620000D03*
X113030000Y-125095000D03*
X111760000Y-125095000D03*
X118715454Y-139729546D03*
X118745000Y-140970000D03*
X109220000Y-114934990D03*
X109220000Y-116840004D03*
X109220000Y-118745010D03*
X111760000Y-118745000D03*
X111760000Y-116840000D03*
X129540000Y-143510000D03*
X147320000Y-151130000D03*
X113665000Y-128270000D03*
X144145000Y-140970000D03*
X115519197Y-128312802D03*
X116840000Y-128270000D03*
X146786602Y-140973776D03*
X115900190Y-131846050D03*
X145465794Y-140976892D03*
X116205000Y-106679978D03*
X116205000Y-107696000D03*
X109220000Y-107315000D03*
X109220000Y-109220000D03*
X109220000Y-111125000D03*
X111760000Y-107315000D03*
X111760000Y-109220000D03*
X116205000Y-90170000D03*
X116205000Y-91186000D03*
X109220000Y-90805000D03*
X109220000Y-92710012D03*
X109220000Y-94615000D03*
X111760000Y-90805000D03*
X111760000Y-92710000D03*
X116332000Y-112776000D03*
X116332000Y-113792000D03*
X116332000Y-97409006D03*
X116332000Y-96393000D03*
X146685000Y-96520000D03*
X145415000Y-95884992D03*
X147955010Y-95885000D03*
X149225000Y-96520000D03*
X167640000Y-94615000D03*
X166370000Y-94615000D03*
X168910000Y-96520000D03*
X170180000Y-96520000D03*
X173990000Y-142875000D03*
X167427800Y-129993510D03*
X174371000Y-141605000D03*
X167640000Y-128270000D03*
X164465000Y-142875000D03*
X167005000Y-131445000D03*
X132715000Y-130810000D03*
X117779810Y-132080000D03*
X119864933Y-133834933D03*
X118895067Y-132865067D03*
X122555000Y-132715000D03*
X114270454Y-135284546D03*
X160020000Y-120243600D03*
X168910000Y-118338600D03*
X136525000Y-131445000D03*
D24*
X142875000Y-134620000D02*
X139065000Y-134620000D01*
D25*
G36*
X174448400Y-85598000D02*
X171885921Y-85598000D01*
X171886123Y-85366668D01*
X171652683Y-84801699D01*
X171220808Y-84369069D01*
X170656247Y-84134643D01*
X170044949Y-84134110D01*
X170040537Y-84135932D01*
X168327605Y-82423000D01*
X162588704Y-82423000D01*
X162582006Y-81661818D01*
X162457324Y-81266378D01*
X162232374Y-81040613D01*
X161873184Y-81342009D01*
X161873184Y-80612547D01*
X161689911Y-80351811D01*
X160940741Y-80049192D01*
X160132790Y-80056302D01*
X159737350Y-80180984D01*
X159511585Y-80405934D01*
X160589078Y-81690040D01*
X161873184Y-80612547D01*
X161873184Y-81342009D01*
X160967812Y-82101706D01*
X160963915Y-82097809D01*
X160568781Y-82492943D01*
X161503116Y-83427278D01*
X161402097Y-83528297D01*
X160520202Y-82477296D01*
X160161012Y-82778692D01*
X160161012Y-82049230D01*
X159083519Y-80765124D01*
X158822783Y-80948397D01*
X158520164Y-81697567D01*
X158527274Y-82505518D01*
X158651956Y-82900958D01*
X158876906Y-83126723D01*
X160161012Y-82049230D01*
X160161012Y-82778692D01*
X159236096Y-83554789D01*
X159419369Y-83815525D01*
X160168539Y-84118144D01*
X160817965Y-84112429D01*
X159893000Y-85037395D01*
X159893000Y-85672395D01*
X159332395Y-86233000D01*
X131076711Y-86233000D01*
X131076866Y-86055692D01*
X130843426Y-85490723D01*
X130411551Y-85058093D01*
X129846990Y-84823667D01*
X129235692Y-84823134D01*
X128670723Y-85056574D01*
X128397000Y-85329819D01*
X128397000Y-77011600D01*
X130760400Y-77011600D01*
X130760400Y-84455000D01*
X130822179Y-84765586D01*
X130998112Y-85028888D01*
X131261414Y-85204821D01*
X131572000Y-85266600D01*
X147828000Y-85266600D01*
X148138586Y-85204821D01*
X148401888Y-85028888D01*
X148577821Y-84765586D01*
X148639600Y-84455000D01*
X148639600Y-77011600D01*
X152999354Y-77011600D01*
X174448400Y-78899116D01*
X174448400Y-81363128D01*
X174030739Y-81194419D01*
X173222788Y-81201529D01*
X172827348Y-81326211D01*
X172601583Y-81551161D01*
X173662676Y-82815722D01*
X173658779Y-82819620D01*
X174053913Y-83214754D01*
X174448400Y-82820267D01*
X174448400Y-82919189D01*
X174057810Y-83246933D01*
X174053913Y-83243036D01*
X173658779Y-83638170D01*
X174448400Y-84427791D01*
X174448400Y-84621450D01*
X173610200Y-83622523D01*
X173251010Y-83923919D01*
X173251010Y-83194457D01*
X172173517Y-81910351D01*
X171912781Y-82093624D01*
X171610162Y-82842794D01*
X171617272Y-83650745D01*
X171741954Y-84046185D01*
X171966904Y-84271950D01*
X173251010Y-83194457D01*
X173251010Y-83923919D01*
X172326094Y-84700016D01*
X172509367Y-84960752D01*
X173258537Y-85263371D01*
X174066488Y-85256261D01*
X174448400Y-85135844D01*
X174448400Y-85598000D01*
X174448400Y-85598000D01*
G37*
X174448400Y-85598000D02*
X171885921Y-85598000D01*
X171886123Y-85366668D01*
X171652683Y-84801699D01*
X171220808Y-84369069D01*
X170656247Y-84134643D01*
X170044949Y-84134110D01*
X170040537Y-84135932D01*
X168327605Y-82423000D01*
X162588704Y-82423000D01*
X162582006Y-81661818D01*
X162457324Y-81266378D01*
X162232374Y-81040613D01*
X161873184Y-81342009D01*
X161873184Y-80612547D01*
X161689911Y-80351811D01*
X160940741Y-80049192D01*
X160132790Y-80056302D01*
X159737350Y-80180984D01*
X159511585Y-80405934D01*
X160589078Y-81690040D01*
X161873184Y-80612547D01*
X161873184Y-81342009D01*
X160967812Y-82101706D01*
X160963915Y-82097809D01*
X160568781Y-82492943D01*
X161503116Y-83427278D01*
X161402097Y-83528297D01*
X160520202Y-82477296D01*
X160161012Y-82778692D01*
X160161012Y-82049230D01*
X159083519Y-80765124D01*
X158822783Y-80948397D01*
X158520164Y-81697567D01*
X158527274Y-82505518D01*
X158651956Y-82900958D01*
X158876906Y-83126723D01*
X160161012Y-82049230D01*
X160161012Y-82778692D01*
X159236096Y-83554789D01*
X159419369Y-83815525D01*
X160168539Y-84118144D01*
X160817965Y-84112429D01*
X159893000Y-85037395D01*
X159893000Y-85672395D01*
X159332395Y-86233000D01*
X131076711Y-86233000D01*
X131076866Y-86055692D01*
X130843426Y-85490723D01*
X130411551Y-85058093D01*
X129846990Y-84823667D01*
X129235692Y-84823134D01*
X128670723Y-85056574D01*
X128397000Y-85329819D01*
X128397000Y-77011600D01*
X130760400Y-77011600D01*
X130760400Y-84455000D01*
X130822179Y-84765586D01*
X130998112Y-85028888D01*
X131261414Y-85204821D01*
X131572000Y-85266600D01*
X147828000Y-85266600D01*
X148138586Y-85204821D01*
X148401888Y-85028888D01*
X148577821Y-84765586D01*
X148639600Y-84455000D01*
X148639600Y-77011600D01*
X152999354Y-77011600D01*
X174448400Y-78899116D01*
X174448400Y-81363128D01*
X174030739Y-81194419D01*
X173222788Y-81201529D01*
X172827348Y-81326211D01*
X172601583Y-81551161D01*
X173662676Y-82815722D01*
X173658779Y-82819620D01*
X174053913Y-83214754D01*
X174448400Y-82820267D01*
X174448400Y-82919189D01*
X174057810Y-83246933D01*
X174053913Y-83243036D01*
X173658779Y-83638170D01*
X174448400Y-84427791D01*
X174448400Y-84621450D01*
X173610200Y-83622523D01*
X173251010Y-83923919D01*
X173251010Y-83194457D01*
X172173517Y-81910351D01*
X171912781Y-82093624D01*
X171610162Y-82842794D01*
X171617272Y-83650745D01*
X171741954Y-84046185D01*
X171966904Y-84271950D01*
X173251010Y-83194457D01*
X173251010Y-83923919D01*
X172326094Y-84700016D01*
X172509367Y-84960752D01*
X173258537Y-85263371D01*
X174066488Y-85256261D01*
X174448400Y-85135844D01*
X174448400Y-85598000D01*
D26*
G36*
X174372200Y-151512200D02*
X168961029Y-151512200D01*
X168961029Y-128008429D01*
X168760373Y-127522804D01*
X168389150Y-127150933D01*
X167903876Y-126949430D01*
X167378429Y-126948971D01*
X166892804Y-127149627D01*
X166520933Y-127520850D01*
X166319430Y-128006124D01*
X166318971Y-128531571D01*
X166519627Y-129017196D01*
X166527945Y-129025529D01*
X166308733Y-129244360D01*
X166107230Y-129729634D01*
X166106771Y-130255081D01*
X166171220Y-130411059D01*
X165885933Y-130695850D01*
X165684430Y-131181124D01*
X165683971Y-131706571D01*
X165884627Y-132192196D01*
X166255850Y-132564067D01*
X166741124Y-132765570D01*
X167266571Y-132766029D01*
X167752196Y-132565373D01*
X168124067Y-132194150D01*
X168325570Y-131708876D01*
X168326029Y-131183429D01*
X168261579Y-131027450D01*
X168546867Y-130742660D01*
X168748370Y-130257386D01*
X168748829Y-129731939D01*
X168548173Y-129246314D01*
X168539854Y-129237980D01*
X168759067Y-129019150D01*
X168960570Y-128533876D01*
X168961029Y-128008429D01*
X168961029Y-151512200D01*
X165786029Y-151512200D01*
X165786029Y-142613429D01*
X165585373Y-142127804D01*
X165380394Y-141922467D01*
X165584067Y-141719150D01*
X165785570Y-141233876D01*
X165786029Y-140708429D01*
X165585373Y-140222804D01*
X165214150Y-139850933D01*
X164728876Y-139649430D01*
X164203429Y-139648971D01*
X163829679Y-139803400D01*
X163458876Y-139649430D01*
X162933429Y-139648971D01*
X162559679Y-139803400D01*
X162188876Y-139649430D01*
X161976029Y-139649244D01*
X161976029Y-128059229D01*
X161800557Y-127634554D01*
X161975570Y-127213076D01*
X161976029Y-126687629D01*
X161775373Y-126202004D01*
X161404150Y-125830133D01*
X161341029Y-125803922D01*
X161341029Y-119982029D01*
X161140373Y-119496404D01*
X160769150Y-119124533D01*
X160706029Y-119098322D01*
X160706029Y-94353455D01*
X160551593Y-93979692D01*
X160705570Y-93608876D01*
X160706029Y-93083429D01*
X160505373Y-92597804D01*
X160134150Y-92225933D01*
X159648876Y-92024430D01*
X159123429Y-92023971D01*
X158637804Y-92224627D01*
X158265933Y-92595850D01*
X158064430Y-93081124D01*
X158063971Y-93606571D01*
X158218406Y-93980333D01*
X158064430Y-94351150D01*
X158063971Y-94876597D01*
X158264627Y-95362222D01*
X158635850Y-95734093D01*
X159121124Y-95935596D01*
X159646571Y-95936055D01*
X160132196Y-95735399D01*
X160504067Y-95364176D01*
X160705570Y-94878902D01*
X160706029Y-94353455D01*
X160706029Y-119098322D01*
X160283876Y-118923030D01*
X159758429Y-118922571D01*
X159272804Y-119123227D01*
X158928029Y-119467401D01*
X158928029Y-110101429D01*
X158801029Y-109794065D01*
X158801029Y-103243429D01*
X158600373Y-102757804D01*
X158229150Y-102385933D01*
X157743876Y-102184430D01*
X157218429Y-102183971D01*
X156844679Y-102338400D01*
X156473876Y-102184430D01*
X155948429Y-102183971D01*
X155462804Y-102384627D01*
X155090933Y-102755850D01*
X154889430Y-103241124D01*
X154888971Y-103766571D01*
X155089627Y-104252196D01*
X155460850Y-104624067D01*
X155946124Y-104825570D01*
X156471571Y-104826029D01*
X156845320Y-104671599D01*
X157216124Y-104825570D01*
X157741571Y-104826029D01*
X158227196Y-104625373D01*
X158599067Y-104254150D01*
X158800570Y-103768876D01*
X158801029Y-103243429D01*
X158801029Y-109794065D01*
X158727373Y-109615804D01*
X158356150Y-109243933D01*
X157870876Y-109042430D01*
X157345429Y-109041971D01*
X156859804Y-109242627D01*
X156487933Y-109613850D01*
X156286430Y-110099124D01*
X156285971Y-110624571D01*
X156486627Y-111110196D01*
X156489293Y-111112867D01*
X156097804Y-111274627D01*
X155892441Y-111479631D01*
X155659598Y-111246381D01*
X155174324Y-111044878D01*
X154648877Y-111044419D01*
X154237470Y-111214408D01*
X154492684Y-110959640D01*
X154666541Y-110540944D01*
X154762990Y-110541029D01*
X155248615Y-110340373D01*
X155620486Y-109969150D01*
X155821989Y-109483876D01*
X155822448Y-108958429D01*
X155621792Y-108472804D01*
X155250569Y-108100933D01*
X154990762Y-107993052D01*
X154990872Y-107867614D01*
X155311124Y-108000594D01*
X155836571Y-108001053D01*
X156322196Y-107800397D01*
X156694067Y-107429174D01*
X156895570Y-106943900D01*
X156896029Y-106418453D01*
X156695373Y-105932828D01*
X156324150Y-105560957D01*
X155838876Y-105359454D01*
X155313429Y-105358995D01*
X154827804Y-105559651D01*
X154455933Y-105930874D01*
X154254430Y-106416148D01*
X154254127Y-106762409D01*
X153933876Y-106629430D01*
X153408429Y-106628971D01*
X153085728Y-106762307D01*
X153086029Y-106418429D01*
X152885373Y-105932804D01*
X152514150Y-105560933D01*
X152028876Y-105359430D01*
X151503429Y-105358971D01*
X151017804Y-105559627D01*
X150645933Y-105930850D01*
X150619582Y-105994308D01*
X150546029Y-105994243D01*
X150546029Y-96258429D01*
X150345373Y-95772804D01*
X149974150Y-95400933D01*
X149488876Y-95199430D01*
X149100706Y-95199090D01*
X149075383Y-95137804D01*
X148704160Y-94765933D01*
X148218886Y-94564430D01*
X147693439Y-94563971D01*
X147207814Y-94764627D01*
X146835943Y-95135850D01*
X146809592Y-95199308D01*
X146560699Y-95199090D01*
X146535373Y-95137796D01*
X146164150Y-94765925D01*
X145678876Y-94564422D01*
X145153429Y-94563963D01*
X144667804Y-94764619D01*
X144295933Y-95135842D01*
X144094430Y-95621116D01*
X144093971Y-96146563D01*
X144294627Y-96632188D01*
X144665850Y-97004059D01*
X145151124Y-97205562D01*
X145539300Y-97205901D01*
X145564627Y-97267196D01*
X145935850Y-97639067D01*
X146421124Y-97840570D01*
X146946571Y-97841029D01*
X147432196Y-97640373D01*
X147804067Y-97269150D01*
X147830417Y-97205691D01*
X148079303Y-97205909D01*
X148104627Y-97267196D01*
X148475850Y-97639067D01*
X148961124Y-97840570D01*
X149486571Y-97841029D01*
X149972196Y-97640373D01*
X150344067Y-97269150D01*
X150545570Y-96783876D01*
X150546029Y-96258429D01*
X150546029Y-105994243D01*
X150233429Y-105993971D01*
X149747804Y-106194627D01*
X149375933Y-106565850D01*
X149174430Y-107051124D01*
X149173971Y-107576571D01*
X149374627Y-108062196D01*
X149745850Y-108434067D01*
X150231124Y-108635570D01*
X150756571Y-108636029D01*
X151242196Y-108435373D01*
X151614067Y-108064150D01*
X151640417Y-108000691D01*
X152026571Y-108001029D01*
X152349271Y-107867692D01*
X152348971Y-108211571D01*
X152549627Y-108697196D01*
X152849747Y-108997840D01*
X152626421Y-109090117D01*
X152254550Y-109461340D01*
X152053047Y-109946614D01*
X152052588Y-110472061D01*
X152253244Y-110957686D01*
X152624467Y-111329557D01*
X153109741Y-111531060D01*
X153635188Y-111531519D01*
X154046594Y-111361529D01*
X153791381Y-111616298D01*
X153589878Y-112101572D01*
X153589419Y-112627019D01*
X153790075Y-113112644D01*
X154161298Y-113484515D01*
X154646572Y-113686018D01*
X155172019Y-113686477D01*
X155657644Y-113485821D01*
X155863006Y-113280816D01*
X156095850Y-113514067D01*
X156581124Y-113715570D01*
X157106571Y-113716029D01*
X157592196Y-113515373D01*
X157964067Y-113144150D01*
X158165570Y-112658876D01*
X158166029Y-112133429D01*
X157965373Y-111647804D01*
X157962706Y-111645132D01*
X158354196Y-111483373D01*
X158726067Y-111112150D01*
X158927570Y-110626876D01*
X158928029Y-110101429D01*
X158928029Y-119467401D01*
X158900933Y-119494450D01*
X158699430Y-119979724D01*
X158698971Y-120505171D01*
X158899627Y-120990796D01*
X159270850Y-121362667D01*
X159756124Y-121564170D01*
X160281571Y-121564629D01*
X160767196Y-121363973D01*
X161139067Y-120992750D01*
X161340570Y-120507476D01*
X161341029Y-119982029D01*
X161341029Y-125803922D01*
X160918876Y-125628630D01*
X160393429Y-125628171D01*
X160071029Y-125761383D01*
X160071029Y-123867942D01*
X159895557Y-123443267D01*
X160070570Y-123021789D01*
X160071029Y-122496342D01*
X159870373Y-122010717D01*
X159499150Y-121638846D01*
X159013876Y-121437343D01*
X158488429Y-121436884D01*
X158002804Y-121637540D01*
X157630933Y-122008763D01*
X157429430Y-122494037D01*
X157428971Y-123019484D01*
X157604442Y-123444158D01*
X157429430Y-123865637D01*
X157428971Y-124391084D01*
X157629627Y-124876709D01*
X158000850Y-125248580D01*
X158486124Y-125450083D01*
X159011571Y-125450542D01*
X159497196Y-125249886D01*
X159869067Y-124878663D01*
X160070570Y-124393389D01*
X160071029Y-123867942D01*
X160071029Y-125761383D01*
X159907804Y-125828827D01*
X159535933Y-126200050D01*
X159334430Y-126685324D01*
X159333971Y-127210771D01*
X159509442Y-127635445D01*
X159334430Y-128056924D01*
X159333971Y-128582371D01*
X159534627Y-129067996D01*
X159905850Y-129439867D01*
X160391124Y-129641370D01*
X160916571Y-129641829D01*
X161402196Y-129441173D01*
X161774067Y-129069950D01*
X161975570Y-128584676D01*
X161976029Y-128059229D01*
X161976029Y-139649244D01*
X161663429Y-139648971D01*
X161177804Y-139849627D01*
X160805933Y-140220850D01*
X160604430Y-140706124D01*
X160603971Y-141231571D01*
X160804627Y-141717196D01*
X161175850Y-142089067D01*
X161661124Y-142290570D01*
X162186571Y-142291029D01*
X162560320Y-142136599D01*
X162931124Y-142290570D01*
X163277409Y-142290872D01*
X163144430Y-142611124D01*
X163143971Y-143136571D01*
X163344627Y-143622196D01*
X163715850Y-143994067D01*
X164201124Y-144195570D01*
X164726571Y-144196029D01*
X165212196Y-143995373D01*
X165584067Y-143624150D01*
X165785570Y-143138876D01*
X165786029Y-142613429D01*
X165786029Y-151512200D01*
X153873200Y-151512200D01*
X153873200Y-150023989D01*
X155311697Y-150621307D01*
X156898142Y-150622691D01*
X158364356Y-150016864D01*
X159487121Y-148896057D01*
X160095507Y-147430903D01*
X160096891Y-145844458D01*
X159491064Y-144378244D01*
X158370257Y-143255479D01*
X156905103Y-142647093D01*
X156462800Y-142646707D01*
X156462800Y-131445000D01*
X156462800Y-118745000D01*
X156395220Y-118405254D01*
X156202769Y-118117231D01*
X155914746Y-117924780D01*
X155575000Y-117857200D01*
X149225000Y-117857200D01*
X148885254Y-117924780D01*
X148597231Y-118117231D01*
X148404780Y-118405254D01*
X148337200Y-118745000D01*
X148337200Y-131445000D01*
X148404780Y-131784746D01*
X148597231Y-132072769D01*
X148885254Y-132265220D01*
X149225000Y-132332800D01*
X155575000Y-132332800D01*
X155914746Y-132265220D01*
X156202769Y-132072769D01*
X156395220Y-131784746D01*
X156462800Y-131445000D01*
X156462800Y-142646707D01*
X155318658Y-142645709D01*
X153873200Y-143242959D01*
X153873200Y-136956800D01*
X146736029Y-136956800D01*
X146736029Y-105148429D01*
X146535373Y-104662804D01*
X146164150Y-104290933D01*
X145678876Y-104089430D01*
X145153429Y-104088971D01*
X144779679Y-104243400D01*
X144408876Y-104089430D01*
X143883429Y-104088971D01*
X143397804Y-104289627D01*
X143025933Y-104660850D01*
X142824430Y-105146124D01*
X142823971Y-105671571D01*
X143024627Y-106157196D01*
X143395850Y-106529067D01*
X143881124Y-106730570D01*
X144406571Y-106731029D01*
X144780320Y-106576599D01*
X145151124Y-106730570D01*
X145676571Y-106731029D01*
X146162196Y-106530373D01*
X146534067Y-106159150D01*
X146735570Y-105673876D01*
X146736029Y-105148429D01*
X146736029Y-136956800D01*
X146731876Y-136956800D01*
X146731876Y-133778382D01*
X146531220Y-133292757D01*
X146159997Y-132920886D01*
X145674723Y-132719383D01*
X145149276Y-132718924D01*
X144817119Y-132856168D01*
X144355060Y-132664305D01*
X143829613Y-132663846D01*
X143343988Y-132864502D01*
X142972117Y-133235725D01*
X142770614Y-133720999D01*
X142770155Y-134246446D01*
X142970811Y-134732071D01*
X143342034Y-135103942D01*
X143827308Y-135305445D01*
X144352755Y-135305904D01*
X144684911Y-135168659D01*
X145146971Y-135360523D01*
X145672418Y-135360982D01*
X146158043Y-135160326D01*
X146529914Y-134789103D01*
X146731417Y-134303829D01*
X146731876Y-133778382D01*
X146731876Y-136956800D01*
X142180648Y-136956800D01*
X142180648Y-94243060D01*
X141979992Y-93757435D01*
X141608769Y-93385564D01*
X141123495Y-93184061D01*
X140598048Y-93183602D01*
X140112423Y-93384258D01*
X140034299Y-93462245D01*
X139941150Y-93368933D01*
X139455876Y-93167430D01*
X138930429Y-93166971D01*
X138444804Y-93367627D01*
X138072933Y-93738850D01*
X137871430Y-94224124D01*
X137870971Y-94749571D01*
X138071627Y-95235196D01*
X138442850Y-95607067D01*
X138928124Y-95808570D01*
X139453571Y-95809029D01*
X139939196Y-95608373D01*
X140017319Y-95530385D01*
X140110469Y-95623698D01*
X140595743Y-95825201D01*
X141121190Y-95825660D01*
X141606815Y-95625004D01*
X141978686Y-95253781D01*
X142180189Y-94768507D01*
X142180648Y-94243060D01*
X142180648Y-136956800D01*
X142037029Y-136956800D01*
X142037029Y-103370463D01*
X141836373Y-102884838D01*
X141465150Y-102512967D01*
X140979876Y-102311464D01*
X140454429Y-102311005D01*
X139968804Y-102511661D01*
X139596933Y-102882884D01*
X139395430Y-103368158D01*
X139394971Y-103893605D01*
X139595627Y-104379230D01*
X139966850Y-104751101D01*
X140452124Y-104952604D01*
X140977571Y-104953063D01*
X141463196Y-104752407D01*
X141835067Y-104381184D01*
X142036570Y-103895910D01*
X142037029Y-103370463D01*
X142037029Y-136956800D01*
X139116029Y-136956800D01*
X139116029Y-103878429D01*
X138915373Y-103392804D01*
X138544150Y-103020933D01*
X138058876Y-102819430D01*
X137533429Y-102818971D01*
X137047804Y-103019627D01*
X136842463Y-103224609D01*
X136639142Y-103020933D01*
X136605141Y-103006814D01*
X136755067Y-102857150D01*
X136956570Y-102371876D01*
X136957029Y-101846429D01*
X136756373Y-101360804D01*
X136385150Y-100988933D01*
X135899876Y-100787430D01*
X135374429Y-100786971D01*
X135306029Y-100815233D01*
X135306029Y-95623519D01*
X135105373Y-95137894D01*
X134734150Y-94766023D01*
X134248876Y-94564520D01*
X133723429Y-94564061D01*
X133237804Y-94764717D01*
X133032512Y-94969650D01*
X132829150Y-94765933D01*
X132343876Y-94564430D01*
X131818429Y-94563971D01*
X131332804Y-94764627D01*
X130960933Y-95135850D01*
X130759430Y-95621124D01*
X130758971Y-96146571D01*
X130959627Y-96632196D01*
X131330850Y-97004067D01*
X131816124Y-97205570D01*
X132341571Y-97206029D01*
X132827196Y-97005373D01*
X133032487Y-96800439D01*
X133235850Y-97004157D01*
X133721124Y-97205660D01*
X134246571Y-97206119D01*
X134732196Y-97005463D01*
X135104067Y-96634240D01*
X135305570Y-96148966D01*
X135306029Y-95623519D01*
X135306029Y-100815233D01*
X134888804Y-100987627D01*
X134516933Y-101358850D01*
X134315430Y-101844124D01*
X134314971Y-102369571D01*
X134515627Y-102855196D01*
X134886850Y-103227067D01*
X134920850Y-103241185D01*
X134770925Y-103390850D01*
X134569422Y-103876124D01*
X134568963Y-104401571D01*
X134769619Y-104887196D01*
X135140842Y-105259067D01*
X135626116Y-105460570D01*
X136151563Y-105461029D01*
X136637188Y-105260373D01*
X136842528Y-105055390D01*
X137045850Y-105259067D01*
X137531124Y-105460570D01*
X138056571Y-105461029D01*
X138542196Y-105260373D01*
X138914067Y-104889150D01*
X139115570Y-104403876D01*
X139116029Y-103878429D01*
X139116029Y-136956800D01*
X137846029Y-136956800D01*
X137846029Y-131183429D01*
X137645373Y-130697804D01*
X137274150Y-130325933D01*
X136788876Y-130124430D01*
X136263429Y-130123971D01*
X135777804Y-130324627D01*
X135405933Y-130695850D01*
X135204430Y-131181124D01*
X135203971Y-131706571D01*
X135404627Y-132192196D01*
X135775850Y-132564067D01*
X136261124Y-132765570D01*
X136786571Y-132766029D01*
X137272196Y-132565373D01*
X137644067Y-132194150D01*
X137845570Y-131708876D01*
X137846029Y-131183429D01*
X137846029Y-136956800D01*
X134036029Y-136956800D01*
X134036029Y-130548429D01*
X133835373Y-130062804D01*
X133464150Y-129690933D01*
X132978876Y-129489430D01*
X132453429Y-129488971D01*
X132131029Y-129622183D01*
X132131029Y-115943429D01*
X131930373Y-115457804D01*
X131559150Y-115085933D01*
X131073876Y-114884430D01*
X130548429Y-114883971D01*
X130062804Y-115084627D01*
X129690933Y-115455850D01*
X129489430Y-115941124D01*
X129489243Y-116154155D01*
X129278429Y-116153971D01*
X128792804Y-116354627D01*
X128420933Y-116725850D01*
X128219430Y-117211124D01*
X128218971Y-117736571D01*
X128419627Y-118222196D01*
X128790850Y-118594067D01*
X128854308Y-118620417D01*
X128854090Y-118869303D01*
X128792804Y-118894627D01*
X128420933Y-119265850D01*
X128219430Y-119751124D01*
X128218971Y-120276571D01*
X128419627Y-120762196D01*
X128790850Y-121134067D01*
X128854308Y-121160417D01*
X128854090Y-121409303D01*
X128792804Y-121434627D01*
X128420933Y-121805850D01*
X128219430Y-122291124D01*
X128218971Y-122816571D01*
X128419627Y-123302196D01*
X128790850Y-123674067D01*
X129276124Y-123875570D01*
X129801571Y-123876029D01*
X130287196Y-123675373D01*
X130659067Y-123304150D01*
X130860570Y-122818876D01*
X130860909Y-122430696D01*
X130922196Y-122405373D01*
X131294067Y-122034150D01*
X131495570Y-121548876D01*
X131496029Y-121023429D01*
X131295373Y-120537804D01*
X130924150Y-120165933D01*
X130860691Y-120139582D01*
X130860909Y-119890696D01*
X130922196Y-119865373D01*
X131294067Y-119494150D01*
X131495570Y-119008876D01*
X131496029Y-118483429D01*
X131295373Y-117997804D01*
X130924150Y-117625933D01*
X130860691Y-117599582D01*
X130860756Y-117525844D01*
X131071571Y-117526029D01*
X131557196Y-117325373D01*
X131929067Y-116954150D01*
X132130570Y-116468876D01*
X132131029Y-115943429D01*
X132131029Y-129622183D01*
X131967804Y-129689627D01*
X131595933Y-130060850D01*
X131394430Y-130546124D01*
X131393971Y-131071571D01*
X131527307Y-131394271D01*
X131183429Y-131393971D01*
X130809679Y-131548400D01*
X130438876Y-131394430D01*
X129913429Y-131393971D01*
X129427804Y-131594627D01*
X129055933Y-131965850D01*
X128854430Y-132451124D01*
X128853971Y-132976571D01*
X129054627Y-133462196D01*
X129425850Y-133834067D01*
X129911124Y-134035570D01*
X130436571Y-134036029D01*
X130810320Y-133881599D01*
X131181124Y-134035570D01*
X131706571Y-134036029D01*
X132192196Y-133835373D01*
X132564067Y-133464150D01*
X132765570Y-132978876D01*
X132766029Y-132453429D01*
X132632692Y-132130728D01*
X132976571Y-132131029D01*
X133462196Y-131930373D01*
X133834067Y-131559150D01*
X134035570Y-131073876D01*
X134036029Y-130548429D01*
X134036029Y-136956800D01*
X131360832Y-136956800D01*
X130090832Y-138226800D01*
X124663200Y-138226800D01*
X124663200Y-129971800D01*
X122986800Y-129971800D01*
X122986800Y-131464158D01*
X122818876Y-131394430D01*
X122293429Y-131393971D01*
X121807804Y-131594627D01*
X121435933Y-131965850D01*
X121234430Y-132451124D01*
X121233971Y-132976571D01*
X121434627Y-133462196D01*
X121805850Y-133834067D01*
X122291124Y-134035570D01*
X122816571Y-134036029D01*
X122986800Y-133965691D01*
X122986800Y-139903200D01*
X143344137Y-139903200D01*
X143025933Y-140220850D01*
X142824430Y-140706124D01*
X142823971Y-141231571D01*
X143024627Y-141717196D01*
X143395850Y-142089067D01*
X143881124Y-142290570D01*
X144406571Y-142291029D01*
X144797460Y-142129516D01*
X145201918Y-142297462D01*
X145727365Y-142297921D01*
X146130342Y-142131414D01*
X146522726Y-142294346D01*
X147048173Y-142294805D01*
X147533798Y-142094149D01*
X147905669Y-141722926D01*
X148107172Y-141237652D01*
X148107631Y-140712205D01*
X147906975Y-140226580D01*
X147584158Y-139903200D01*
X151561800Y-139903200D01*
X151561800Y-151512200D01*
X148591437Y-151512200D01*
X148640570Y-151393876D01*
X148641029Y-150868429D01*
X148440373Y-150382804D01*
X148069150Y-150010933D01*
X147583876Y-149809430D01*
X147058429Y-149808971D01*
X146572804Y-150009627D01*
X146200933Y-150380850D01*
X145999430Y-150866124D01*
X145998971Y-151391571D01*
X146048813Y-151512200D01*
X145365624Y-151512200D01*
X145414757Y-151393876D01*
X145415216Y-150868429D01*
X145214560Y-150382804D01*
X144843337Y-150010933D01*
X144358063Y-149809430D01*
X143832616Y-149808971D01*
X143484335Y-149952877D01*
X143138876Y-149809430D01*
X142613429Y-149808971D01*
X142127804Y-150009627D01*
X141755933Y-150380850D01*
X141554430Y-150866124D01*
X141553971Y-151391571D01*
X141603813Y-151512200D01*
X139721483Y-151512200D01*
X139721483Y-148992975D01*
X139520827Y-148507350D01*
X139391769Y-148378066D01*
X139391769Y-145861419D01*
X139191113Y-145375794D01*
X138819890Y-145003923D01*
X138334616Y-144802420D01*
X137809169Y-144801961D01*
X137323544Y-145002617D01*
X136951673Y-145373840D01*
X136750170Y-145859114D01*
X136749711Y-146384561D01*
X136950367Y-146870186D01*
X137321590Y-147242057D01*
X137806864Y-147443560D01*
X138332311Y-147444019D01*
X138817936Y-147243363D01*
X139189807Y-146872140D01*
X139391310Y-146386866D01*
X139391769Y-145861419D01*
X139391769Y-148378066D01*
X139149604Y-148135479D01*
X138664330Y-147933976D01*
X138138883Y-147933517D01*
X137653258Y-148134173D01*
X137281387Y-148505396D01*
X137079884Y-148990670D01*
X137079425Y-149516117D01*
X137280081Y-150001742D01*
X137651304Y-150373613D01*
X138136578Y-150575116D01*
X138662025Y-150575575D01*
X139147650Y-150374919D01*
X139519521Y-150003696D01*
X139721024Y-149518422D01*
X139721483Y-148992975D01*
X139721483Y-151512200D01*
X135242200Y-151512200D01*
X135242200Y-147090943D01*
X135242200Y-146367500D01*
X135242200Y-145732500D01*
X135242200Y-145009057D01*
X135172595Y-144841017D01*
X135043983Y-144712404D01*
X134875942Y-144642800D01*
X134694057Y-144642800D01*
X134302500Y-144642800D01*
X134188200Y-144757100D01*
X134188200Y-145846800D01*
X135127900Y-145846800D01*
X135242200Y-145732500D01*
X135242200Y-146367500D01*
X135127900Y-146253200D01*
X134188200Y-146253200D01*
X134188200Y-147342900D01*
X134302500Y-147457200D01*
X134694057Y-147457200D01*
X134875942Y-147457200D01*
X135043983Y-147387596D01*
X135172595Y-147258983D01*
X135242200Y-147090943D01*
X135242200Y-151512200D01*
X133781800Y-151512200D01*
X133781800Y-147342900D01*
X133781800Y-146253200D01*
X133781800Y-145846800D01*
X133781800Y-144757100D01*
X133667500Y-144642800D01*
X133275943Y-144642800D01*
X133094058Y-144642800D01*
X132926017Y-144712404D01*
X132797405Y-144841017D01*
X132727800Y-145009057D01*
X132727800Y-145732500D01*
X132842100Y-145846800D01*
X133781800Y-145846800D01*
X133781800Y-146253200D01*
X132842100Y-146253200D01*
X132727800Y-146367500D01*
X132727800Y-147090943D01*
X132797405Y-147258983D01*
X132926017Y-147387596D01*
X133094058Y-147457200D01*
X133275943Y-147457200D01*
X133667500Y-147457200D01*
X133781800Y-147342900D01*
X133781800Y-151512200D01*
X130861029Y-151512200D01*
X130861029Y-143248429D01*
X130660373Y-142762804D01*
X130289150Y-142390933D01*
X129803876Y-142189430D01*
X129278429Y-142188971D01*
X128792804Y-142389627D01*
X128420933Y-142760850D01*
X128219430Y-143246124D01*
X128218971Y-143771571D01*
X128419627Y-144257196D01*
X128790850Y-144629067D01*
X129276124Y-144830570D01*
X129801571Y-144831029D01*
X130287196Y-144630373D01*
X130659067Y-144259150D01*
X130860570Y-143773876D01*
X130861029Y-143248429D01*
X130861029Y-151512200D01*
X121185962Y-151512200D01*
X121185962Y-133573362D01*
X120985306Y-133087737D01*
X120614083Y-132715866D01*
X120189717Y-132539654D01*
X120015440Y-132117871D01*
X119644217Y-131746000D01*
X119158943Y-131544497D01*
X118987590Y-131544347D01*
X118900183Y-131332804D01*
X118528960Y-130960933D01*
X118161029Y-130808154D01*
X118161029Y-128008429D01*
X117960373Y-127522804D01*
X117589150Y-127150933D01*
X117103876Y-126949430D01*
X116578429Y-126948971D01*
X116127549Y-127135270D01*
X115783073Y-126992232D01*
X115257626Y-126991773D01*
X114772001Y-127192429D01*
X114613511Y-127350642D01*
X114414150Y-127150933D01*
X113928876Y-126949430D01*
X113403429Y-126948971D01*
X112917804Y-127149627D01*
X112545933Y-127520850D01*
X112344430Y-128006124D01*
X112343971Y-128531571D01*
X112544627Y-129017196D01*
X112915850Y-129389067D01*
X113401124Y-129590570D01*
X113926571Y-129591029D01*
X114412196Y-129390373D01*
X114570685Y-129232159D01*
X114770047Y-129431869D01*
X115255321Y-129633372D01*
X115780768Y-129633831D01*
X116231647Y-129447531D01*
X116576124Y-129590570D01*
X117101571Y-129591029D01*
X117587196Y-129390373D01*
X117959067Y-129019150D01*
X118160570Y-128533876D01*
X118161029Y-128008429D01*
X118161029Y-130808154D01*
X118043686Y-130759430D01*
X117518239Y-130758971D01*
X117032614Y-130959627D01*
X116956964Y-131035144D01*
X116649340Y-130726983D01*
X116164066Y-130525480D01*
X115638619Y-130525021D01*
X115152994Y-130725677D01*
X114781123Y-131096900D01*
X114579620Y-131582174D01*
X114579161Y-132107621D01*
X114779817Y-132593246D01*
X115151040Y-132965117D01*
X115636314Y-133166620D01*
X116161761Y-133167079D01*
X116647386Y-132966423D01*
X116723035Y-132890905D01*
X117030660Y-133199067D01*
X117515934Y-133400570D01*
X117687286Y-133400719D01*
X117774694Y-133612263D01*
X118145917Y-133984134D01*
X118570282Y-134160345D01*
X118744560Y-134582129D01*
X119115783Y-134954000D01*
X119601057Y-135155503D01*
X120126504Y-135155962D01*
X120612129Y-134955306D01*
X120984000Y-134584083D01*
X121185503Y-134098809D01*
X121185962Y-133573362D01*
X121185962Y-151512200D01*
X120066029Y-151512200D01*
X120066029Y-140708429D01*
X119902981Y-140313824D01*
X120036024Y-139993422D01*
X120036483Y-139467975D01*
X119835827Y-138982350D01*
X119464604Y-138610479D01*
X118979330Y-138408976D01*
X118453883Y-138408517D01*
X117968258Y-138609173D01*
X117596387Y-138980396D01*
X117394884Y-139465670D01*
X117394425Y-139991117D01*
X117557472Y-140385721D01*
X117424430Y-140706124D01*
X117423971Y-141231571D01*
X117624627Y-141717196D01*
X117995850Y-142089067D01*
X118481124Y-142290570D01*
X119006571Y-142291029D01*
X119492196Y-142090373D01*
X119864067Y-141719150D01*
X120065570Y-141233876D01*
X120066029Y-140708429D01*
X120066029Y-151512200D01*
X115591483Y-151512200D01*
X115591483Y-135022975D01*
X115390827Y-134537350D01*
X115019604Y-134165479D01*
X114534330Y-133963976D01*
X114008883Y-133963517D01*
X113523258Y-134164173D01*
X113151387Y-134535396D01*
X112949884Y-135020670D01*
X112949425Y-135546117D01*
X113150081Y-136031742D01*
X113521304Y-136403613D01*
X114006578Y-136605116D01*
X114532025Y-136605575D01*
X115017650Y-136404919D01*
X115389521Y-136033696D01*
X115591024Y-135548422D01*
X115591483Y-135022975D01*
X115591483Y-151512200D01*
X102487800Y-151512200D01*
X102487800Y-144983200D01*
X106578228Y-144983200D01*
X106223493Y-145837497D01*
X106222109Y-147423942D01*
X106827936Y-148890156D01*
X107948743Y-150012921D01*
X109413897Y-150621307D01*
X111000342Y-150622691D01*
X112466556Y-150016864D01*
X113589321Y-148896057D01*
X114197707Y-147430903D01*
X114199091Y-145844458D01*
X113593264Y-144378244D01*
X112472457Y-143255479D01*
X111007303Y-142647093D01*
X110058200Y-142646265D01*
X110058200Y-126449168D01*
X110652388Y-125854979D01*
X111010850Y-126214067D01*
X111496124Y-126415570D01*
X112021571Y-126416029D01*
X112395320Y-126261599D01*
X112766124Y-126415570D01*
X113291571Y-126416029D01*
X113777196Y-126215373D01*
X114149067Y-125844150D01*
X114350570Y-125358876D01*
X114351029Y-124833429D01*
X114150373Y-124347804D01*
X113779150Y-123975933D01*
X113293876Y-123774430D01*
X112768429Y-123773971D01*
X112708729Y-123798638D01*
X113114168Y-123393200D01*
X115320006Y-123393200D01*
X115257276Y-123706000D01*
X115257276Y-125214000D01*
X115317408Y-125523918D01*
X115496338Y-125796307D01*
X115766460Y-125978642D01*
X116086000Y-126042724D01*
X117594000Y-126042724D01*
X117903918Y-125982592D01*
X118176307Y-125803662D01*
X118358642Y-125533540D01*
X118422724Y-125214000D01*
X118422724Y-123706000D01*
X118362592Y-123396082D01*
X118360698Y-123393200D01*
X124544168Y-123393200D01*
X127203200Y-120734168D01*
X127203200Y-105960832D01*
X124663200Y-103420832D01*
X124663200Y-98856800D01*
X124511029Y-98856800D01*
X124511029Y-93083429D01*
X124310373Y-92597804D01*
X123939150Y-92225933D01*
X123533080Y-92057318D01*
X123533080Y-88580602D01*
X123288063Y-87987615D01*
X122930845Y-87629774D01*
X123286468Y-87274771D01*
X123532520Y-86682213D01*
X123533080Y-86040602D01*
X123288063Y-85447615D01*
X122834771Y-84993532D01*
X122242213Y-84747480D01*
X121600602Y-84746920D01*
X121007615Y-84991937D01*
X120649774Y-85349154D01*
X120490852Y-85189955D01*
X120963976Y-84994465D01*
X121586989Y-84372538D01*
X121924578Y-83559535D01*
X121925346Y-82679229D01*
X121589177Y-81865638D01*
X120967250Y-81242625D01*
X120549253Y-81069057D01*
X120549253Y-79523789D01*
X119473043Y-78554765D01*
X118504018Y-79630975D01*
X118688238Y-79857695D01*
X119409600Y-80017447D01*
X120137187Y-79888986D01*
X120389741Y-79768523D01*
X120549253Y-79523789D01*
X120549253Y-81069057D01*
X120154247Y-80905036D01*
X119273941Y-80904268D01*
X118535438Y-81209411D01*
X118612119Y-80978952D01*
X118563606Y-80301520D01*
X118299392Y-79747586D01*
X118046639Y-79623918D01*
X117895632Y-79791628D01*
X117895632Y-79487951D01*
X117746222Y-79249509D01*
X117101791Y-79035088D01*
X116424359Y-79083601D01*
X115870425Y-79347815D01*
X115746757Y-79600568D01*
X116877503Y-80618697D01*
X117895632Y-79487951D01*
X117895632Y-79791628D01*
X117028510Y-80754664D01*
X118037176Y-81662872D01*
X117983239Y-81716713D01*
X117042851Y-80776325D01*
X116903573Y-80915602D01*
X116892543Y-80905671D01*
X116741536Y-81073381D01*
X116741536Y-80769704D01*
X115610790Y-79751575D01*
X115372348Y-79900985D01*
X115157927Y-80545416D01*
X115206440Y-81222848D01*
X115470654Y-81776782D01*
X115723407Y-81900450D01*
X116741536Y-80769704D01*
X116741536Y-81073381D01*
X115874414Y-82036417D01*
X116023824Y-82274859D01*
X116668255Y-82489280D01*
X117345687Y-82440767D01*
X117659270Y-82291194D01*
X117499748Y-82675367D01*
X117498980Y-83555673D01*
X117835149Y-84369264D01*
X118457076Y-84992277D01*
X118464278Y-84995267D01*
X118013532Y-85445229D01*
X117767480Y-86037787D01*
X117766920Y-86679398D01*
X118011937Y-87272385D01*
X118369154Y-87630225D01*
X118013532Y-87985229D01*
X117767480Y-88577787D01*
X117766920Y-89219398D01*
X118011937Y-89812385D01*
X118465229Y-90266468D01*
X119057787Y-90512520D01*
X119699398Y-90513080D01*
X120292385Y-90268063D01*
X120650225Y-89910845D01*
X121005229Y-90266468D01*
X121597787Y-90512520D01*
X122239398Y-90513080D01*
X122832385Y-90268063D01*
X123286468Y-89814771D01*
X123532520Y-89222213D01*
X123533080Y-88580602D01*
X123533080Y-92057318D01*
X123453876Y-92024430D01*
X122928429Y-92023971D01*
X122442804Y-92224627D01*
X122070933Y-92595850D01*
X121869430Y-93081124D01*
X121868971Y-93606571D01*
X122069627Y-94092196D01*
X122440850Y-94464067D01*
X122926124Y-94665570D01*
X123451571Y-94666029D01*
X123937196Y-94465373D01*
X124309067Y-94094150D01*
X124510570Y-93608876D01*
X124511029Y-93083429D01*
X124511029Y-98856800D01*
X122986800Y-98856800D01*
X122986800Y-104859168D01*
X124891800Y-106764168D01*
X124891800Y-119930832D01*
X124511029Y-120311603D01*
X124511029Y-108958429D01*
X124310373Y-108472804D01*
X123939150Y-108100933D01*
X123453876Y-107899430D01*
X122928429Y-107898971D01*
X122607115Y-108031735D01*
X122607115Y-99052429D01*
X122406459Y-98566804D01*
X122035236Y-98194933D01*
X121549962Y-97993430D01*
X121024515Y-97992971D01*
X120982548Y-98010311D01*
X120982548Y-95377801D01*
X120982548Y-94107801D01*
X120957806Y-93727808D01*
X120859991Y-93491662D01*
X120691872Y-93446812D01*
X120548188Y-93590496D01*
X120548188Y-93303128D01*
X120503338Y-93135009D01*
X120142801Y-93012452D01*
X119762808Y-93037194D01*
X119526662Y-93135009D01*
X119481812Y-93303128D01*
X120015000Y-93836316D01*
X120548188Y-93303128D01*
X120548188Y-93590496D01*
X120158684Y-93980000D01*
X120691872Y-94513188D01*
X120859991Y-94468338D01*
X120982548Y-94107801D01*
X120982548Y-95377801D01*
X120957806Y-94997808D01*
X120859991Y-94761662D01*
X120691872Y-94716812D01*
X120548188Y-94860496D01*
X120548188Y-94656872D01*
X120506316Y-94615000D01*
X120548188Y-94573128D01*
X120503338Y-94405009D01*
X120189715Y-94298399D01*
X120015000Y-94123684D01*
X120000857Y-94137826D01*
X119857173Y-93994142D01*
X119871316Y-93980000D01*
X119692589Y-93801273D01*
X119687806Y-93727808D01*
X119589991Y-93491662D01*
X119421872Y-93446812D01*
X119380000Y-93488684D01*
X119338128Y-93446812D01*
X119278188Y-93462802D01*
X119278188Y-93303128D01*
X119233338Y-93135009D01*
X118872801Y-93012452D01*
X118492808Y-93037194D01*
X118256662Y-93135009D01*
X118211812Y-93303128D01*
X118745000Y-93836316D01*
X119278188Y-93303128D01*
X119278188Y-93462802D01*
X119170009Y-93491662D01*
X119063399Y-93805284D01*
X118888684Y-93980000D01*
X118902826Y-93994142D01*
X118759142Y-94137826D01*
X118745000Y-94123684D01*
X118601316Y-94267367D01*
X118601316Y-93980000D01*
X118068128Y-93446812D01*
X117900009Y-93491662D01*
X117777452Y-93852199D01*
X117802194Y-94232192D01*
X117900009Y-94468338D01*
X118068128Y-94513188D01*
X118601316Y-93980000D01*
X118601316Y-94267367D01*
X118566273Y-94302410D01*
X118492808Y-94307194D01*
X118256662Y-94405009D01*
X118211812Y-94573128D01*
X118253684Y-94615000D01*
X118211812Y-94656872D01*
X118256662Y-94824991D01*
X118570284Y-94931600D01*
X118745000Y-95106316D01*
X118759142Y-95092173D01*
X118902826Y-95235857D01*
X118888684Y-95250000D01*
X119067410Y-95428726D01*
X119072194Y-95502192D01*
X119170009Y-95738338D01*
X119338128Y-95783188D01*
X119380000Y-95741316D01*
X119421872Y-95783188D01*
X119589991Y-95738338D01*
X119696600Y-95424715D01*
X119871316Y-95250000D01*
X119857173Y-95235857D01*
X120000857Y-95092173D01*
X120015000Y-95106316D01*
X120193726Y-94927589D01*
X120267192Y-94922806D01*
X120503338Y-94824991D01*
X120548188Y-94656872D01*
X120548188Y-94860496D01*
X120158684Y-95250000D01*
X120691872Y-95783188D01*
X120859991Y-95738338D01*
X120982548Y-95377801D01*
X120982548Y-98010311D01*
X120650221Y-98147625D01*
X120548188Y-98105257D01*
X120548188Y-95926872D01*
X120015000Y-95393684D01*
X119481812Y-95926872D01*
X119526662Y-96094991D01*
X119887199Y-96217548D01*
X120267192Y-96192806D01*
X120503338Y-96094991D01*
X120548188Y-95926872D01*
X120548188Y-98105257D01*
X120278876Y-97993430D01*
X119753429Y-97992971D01*
X119379679Y-98147400D01*
X119278188Y-98105257D01*
X119278188Y-95926872D01*
X118745000Y-95393684D01*
X118601316Y-95537368D01*
X118601316Y-95250000D01*
X118068128Y-94716812D01*
X117900009Y-94761662D01*
X117777452Y-95122199D01*
X117802194Y-95502192D01*
X117900009Y-95738338D01*
X118068128Y-95783188D01*
X118601316Y-95250000D01*
X118601316Y-95537368D01*
X118211812Y-95926872D01*
X118256662Y-96094991D01*
X118617199Y-96217548D01*
X118997192Y-96192806D01*
X119233338Y-96094991D01*
X119278188Y-95926872D01*
X119278188Y-98105257D01*
X119008876Y-97993430D01*
X118483429Y-97992971D01*
X117997804Y-98193627D01*
X117653029Y-98537801D01*
X117653029Y-97147435D01*
X117551202Y-96900996D01*
X117652570Y-96656876D01*
X117653029Y-96131429D01*
X117526029Y-95824065D01*
X117526029Y-90924429D01*
X117424203Y-90677993D01*
X117525570Y-90433876D01*
X117526029Y-89908429D01*
X117325373Y-89422804D01*
X116954150Y-89050933D01*
X116468876Y-88849430D01*
X115943429Y-88848971D01*
X115457804Y-89049627D01*
X115085933Y-89420850D01*
X114884430Y-89906124D01*
X114883971Y-90431571D01*
X114985796Y-90678006D01*
X114884430Y-90922124D01*
X114883971Y-91447571D01*
X115084627Y-91933196D01*
X115455850Y-92305067D01*
X115941124Y-92506570D01*
X116466571Y-92507029D01*
X116952196Y-92306373D01*
X117324067Y-91935150D01*
X117525570Y-91449876D01*
X117526029Y-90924429D01*
X117526029Y-95824065D01*
X117452373Y-95645804D01*
X117081150Y-95273933D01*
X116595876Y-95072430D01*
X116070429Y-95071971D01*
X115584804Y-95272627D01*
X115212933Y-95643850D01*
X115011430Y-96129124D01*
X115010971Y-96654571D01*
X115112797Y-96901009D01*
X115011430Y-97145130D01*
X115010971Y-97670577D01*
X115211627Y-98156202D01*
X115582850Y-98528073D01*
X116068124Y-98729576D01*
X116593571Y-98730035D01*
X117079196Y-98529379D01*
X117451067Y-98158156D01*
X117652570Y-97672882D01*
X117653029Y-97147435D01*
X117653029Y-98537801D01*
X117625933Y-98564850D01*
X117424430Y-99050124D01*
X117423971Y-99575571D01*
X117624627Y-100061196D01*
X117995850Y-100433067D01*
X118481124Y-100634570D01*
X119006571Y-100635029D01*
X119380320Y-100480599D01*
X119751124Y-100634570D01*
X120276571Y-100635029D01*
X120650864Y-100480374D01*
X121022210Y-100634570D01*
X121547657Y-100635029D01*
X122033282Y-100434373D01*
X122405153Y-100063150D01*
X122606656Y-99577876D01*
X122607115Y-99052429D01*
X122607115Y-108031735D01*
X122442804Y-108099627D01*
X122070933Y-108470850D01*
X121869430Y-108956124D01*
X121868971Y-109481571D01*
X122069627Y-109967196D01*
X122440850Y-110339067D01*
X122926124Y-110540570D01*
X123451571Y-110541029D01*
X123937196Y-110340373D01*
X124309067Y-109969150D01*
X124510570Y-109483876D01*
X124511029Y-108958429D01*
X124511029Y-120311603D01*
X123105832Y-121716800D01*
X122665356Y-121716800D01*
X122665356Y-115562429D01*
X122464700Y-115076804D01*
X122093477Y-114704933D01*
X121608203Y-114503430D01*
X121082756Y-114502971D01*
X120982548Y-114544375D01*
X120982548Y-111887801D01*
X120982548Y-110617801D01*
X120957806Y-110237808D01*
X120859991Y-110001662D01*
X120691872Y-109956812D01*
X120548188Y-110100496D01*
X120548188Y-109813128D01*
X120503338Y-109645009D01*
X120142801Y-109522452D01*
X119762808Y-109547194D01*
X119526662Y-109645009D01*
X119481812Y-109813128D01*
X120015000Y-110346316D01*
X120548188Y-109813128D01*
X120548188Y-110100496D01*
X120158684Y-110490000D01*
X120691872Y-111023188D01*
X120859991Y-110978338D01*
X120982548Y-110617801D01*
X120982548Y-111887801D01*
X120957806Y-111507808D01*
X120859991Y-111271662D01*
X120691872Y-111226812D01*
X120548188Y-111370496D01*
X120548188Y-111166872D01*
X120506316Y-111125000D01*
X120548188Y-111083128D01*
X120503338Y-110915009D01*
X120189715Y-110808399D01*
X120015000Y-110633684D01*
X120000857Y-110647826D01*
X119857173Y-110504142D01*
X119871316Y-110490000D01*
X119692589Y-110311273D01*
X119687806Y-110237808D01*
X119589991Y-110001662D01*
X119421872Y-109956812D01*
X119380000Y-109998684D01*
X119338128Y-109956812D01*
X119278188Y-109972802D01*
X119278188Y-109813128D01*
X119233338Y-109645009D01*
X118872801Y-109522452D01*
X118492808Y-109547194D01*
X118256662Y-109645009D01*
X118211812Y-109813128D01*
X118745000Y-110346316D01*
X119278188Y-109813128D01*
X119278188Y-109972802D01*
X119170009Y-110001662D01*
X119063399Y-110315284D01*
X118888684Y-110490000D01*
X118902826Y-110504142D01*
X118759142Y-110647826D01*
X118745000Y-110633684D01*
X118601316Y-110777367D01*
X118601316Y-110490000D01*
X118068128Y-109956812D01*
X117900009Y-110001662D01*
X117777452Y-110362199D01*
X117802194Y-110742192D01*
X117900009Y-110978338D01*
X118068128Y-111023188D01*
X118601316Y-110490000D01*
X118601316Y-110777367D01*
X118566273Y-110812410D01*
X118492808Y-110817194D01*
X118256662Y-110915009D01*
X118211812Y-111083128D01*
X118253684Y-111125000D01*
X118211812Y-111166872D01*
X118256662Y-111334991D01*
X118570284Y-111441600D01*
X118745000Y-111616316D01*
X118759142Y-111602173D01*
X118902826Y-111745857D01*
X118888684Y-111760000D01*
X119067410Y-111938726D01*
X119072194Y-112012192D01*
X119170009Y-112248338D01*
X119338128Y-112293188D01*
X119380000Y-112251316D01*
X119421872Y-112293188D01*
X119589991Y-112248338D01*
X119696600Y-111934715D01*
X119871316Y-111760000D01*
X119857173Y-111745857D01*
X120000857Y-111602173D01*
X120015000Y-111616316D01*
X120193726Y-111437589D01*
X120267192Y-111432806D01*
X120503338Y-111334991D01*
X120548188Y-111166872D01*
X120548188Y-111370496D01*
X120158684Y-111760000D01*
X120691872Y-112293188D01*
X120859991Y-112248338D01*
X120982548Y-111887801D01*
X120982548Y-114544375D01*
X120679270Y-114669687D01*
X120548188Y-114615257D01*
X120548188Y-112436872D01*
X120015000Y-111903684D01*
X119481812Y-112436872D01*
X119526662Y-112604991D01*
X119887199Y-112727548D01*
X120267192Y-112702806D01*
X120503338Y-112604991D01*
X120548188Y-112436872D01*
X120548188Y-114615257D01*
X120278876Y-114503430D01*
X119753429Y-114502971D01*
X119379679Y-114657400D01*
X119278188Y-114615257D01*
X119278188Y-112436872D01*
X118745000Y-111903684D01*
X118601316Y-112047368D01*
X118601316Y-111760000D01*
X118068128Y-111226812D01*
X117900009Y-111271662D01*
X117777452Y-111632199D01*
X117802194Y-112012192D01*
X117900009Y-112248338D01*
X118068128Y-112293188D01*
X118601316Y-111760000D01*
X118601316Y-112047368D01*
X118211812Y-112436872D01*
X118256662Y-112604991D01*
X118617199Y-112727548D01*
X118997192Y-112702806D01*
X119233338Y-112604991D01*
X119278188Y-112436872D01*
X119278188Y-114615257D01*
X119008876Y-114503430D01*
X118483429Y-114502971D01*
X117997804Y-114703627D01*
X117653029Y-115047801D01*
X117653029Y-113530429D01*
X117551203Y-113283993D01*
X117652570Y-113039876D01*
X117653029Y-112514429D01*
X117526029Y-112207065D01*
X117526029Y-107434429D01*
X117424199Y-107187982D01*
X117525570Y-106943854D01*
X117526029Y-106418407D01*
X117325373Y-105932782D01*
X116954150Y-105560911D01*
X116468876Y-105359408D01*
X115943429Y-105358949D01*
X115457804Y-105559605D01*
X115085933Y-105930828D01*
X114884430Y-106416102D01*
X114883971Y-106941549D01*
X114985800Y-107187995D01*
X114884430Y-107432124D01*
X114883971Y-107957571D01*
X115084627Y-108443196D01*
X115455850Y-108815067D01*
X115941124Y-109016570D01*
X116466571Y-109017029D01*
X116952196Y-108816373D01*
X117324067Y-108445150D01*
X117525570Y-107959876D01*
X117526029Y-107434429D01*
X117526029Y-112207065D01*
X117452373Y-112028804D01*
X117081150Y-111656933D01*
X116595876Y-111455430D01*
X116070429Y-111454971D01*
X115584804Y-111655627D01*
X115212933Y-112026850D01*
X115011430Y-112512124D01*
X115010971Y-113037571D01*
X115112796Y-113284006D01*
X115011430Y-113528124D01*
X115010971Y-114053571D01*
X115211627Y-114539196D01*
X115582850Y-114911067D01*
X116068124Y-115112570D01*
X116593571Y-115113029D01*
X117079196Y-114912373D01*
X117451067Y-114541150D01*
X117652570Y-114055876D01*
X117653029Y-113530429D01*
X117653029Y-115047801D01*
X117625933Y-115074850D01*
X117424430Y-115560124D01*
X117423971Y-116085571D01*
X117624627Y-116571196D01*
X117995850Y-116943067D01*
X118481124Y-117144570D01*
X119006571Y-117145029D01*
X119380320Y-116990599D01*
X119751124Y-117144570D01*
X120276571Y-117145029D01*
X120680056Y-116978312D01*
X121080451Y-117144570D01*
X121605898Y-117145029D01*
X122091523Y-116944373D01*
X122463394Y-116573150D01*
X122664897Y-116087876D01*
X122665356Y-115562429D01*
X122665356Y-121716800D01*
X113081029Y-121716800D01*
X113081029Y-118483429D01*
X112880373Y-117997804D01*
X112675394Y-117792467D01*
X112879067Y-117589150D01*
X113080570Y-117103876D01*
X113081029Y-116578429D01*
X113081029Y-108958429D01*
X112880373Y-108472804D01*
X112675394Y-108267467D01*
X112879067Y-108064150D01*
X113080570Y-107578876D01*
X113081029Y-107053429D01*
X113081029Y-101973429D01*
X112880373Y-101487804D01*
X112675394Y-101282467D01*
X112879067Y-101079150D01*
X113080570Y-100593876D01*
X113081029Y-100068429D01*
X113081029Y-92448429D01*
X112880373Y-91962804D01*
X112675394Y-91757467D01*
X112879067Y-91554150D01*
X113080570Y-91068876D01*
X113081029Y-90543429D01*
X112880373Y-90057804D01*
X112509150Y-89685933D01*
X112023876Y-89484430D01*
X111498429Y-89483971D01*
X111012804Y-89684627D01*
X110640933Y-90055850D01*
X110489877Y-90419632D01*
X110340373Y-90057804D01*
X109969150Y-89685933D01*
X109483876Y-89484430D01*
X108958429Y-89483971D01*
X108472804Y-89684627D01*
X108100933Y-90055850D01*
X107899430Y-90541124D01*
X107898971Y-91066571D01*
X108099627Y-91552196D01*
X108304611Y-91757538D01*
X108100933Y-91960862D01*
X107899430Y-92446136D01*
X107898971Y-92971583D01*
X108099627Y-93457208D01*
X108304599Y-93662538D01*
X108100933Y-93865850D01*
X107899430Y-94351124D01*
X107898971Y-94876571D01*
X108099627Y-95362196D01*
X108470850Y-95734067D01*
X108956124Y-95935570D01*
X109481571Y-95936029D01*
X109967196Y-95735373D01*
X110339067Y-95364150D01*
X110540570Y-94878876D01*
X110541029Y-94353429D01*
X110340373Y-93867804D01*
X110135400Y-93662473D01*
X110339067Y-93459162D01*
X110490125Y-93095373D01*
X110639627Y-93457196D01*
X111010850Y-93829067D01*
X111496124Y-94030570D01*
X112021571Y-94031029D01*
X112507196Y-93830373D01*
X112879067Y-93459150D01*
X113080570Y-92973876D01*
X113081029Y-92448429D01*
X113081029Y-100068429D01*
X112880373Y-99582804D01*
X112509150Y-99210933D01*
X112023876Y-99009430D01*
X111498429Y-99008971D01*
X111012804Y-99209627D01*
X110640933Y-99580850D01*
X110489886Y-99944611D01*
X110340391Y-99582804D01*
X110135403Y-99377458D01*
X110339067Y-99174150D01*
X110540570Y-98688876D01*
X110541029Y-98163429D01*
X110340373Y-97677804D01*
X109969150Y-97305933D01*
X109483876Y-97104430D01*
X108958429Y-97103971D01*
X108472804Y-97304627D01*
X108100933Y-97675850D01*
X107899430Y-98161124D01*
X107898971Y-98686571D01*
X108099627Y-99172196D01*
X108304614Y-99377541D01*
X108100951Y-99580850D01*
X107899448Y-100066124D01*
X107898989Y-100591571D01*
X108099645Y-101077196D01*
X108304614Y-101282523D01*
X108100933Y-101485850D01*
X107899430Y-101971124D01*
X107898971Y-102496571D01*
X108099627Y-102982196D01*
X108470850Y-103354067D01*
X108956124Y-103555570D01*
X109481571Y-103556029D01*
X109967196Y-103355373D01*
X110339067Y-102984150D01*
X110490122Y-102620367D01*
X110639627Y-102982196D01*
X111010850Y-103354067D01*
X111496124Y-103555570D01*
X112021571Y-103556029D01*
X112507196Y-103355373D01*
X112879067Y-102984150D01*
X113080570Y-102498876D01*
X113081029Y-101973429D01*
X113081029Y-107053429D01*
X112880373Y-106567804D01*
X112509150Y-106195933D01*
X112023876Y-105994430D01*
X111498429Y-105993971D01*
X111012804Y-106194627D01*
X110640933Y-106565850D01*
X110489877Y-106929632D01*
X110340373Y-106567804D01*
X109969150Y-106195933D01*
X109483876Y-105994430D01*
X108958429Y-105993971D01*
X108472804Y-106194627D01*
X108100933Y-106565850D01*
X107899430Y-107051124D01*
X107898971Y-107576571D01*
X108099627Y-108062196D01*
X108304605Y-108267532D01*
X108100933Y-108470850D01*
X107899430Y-108956124D01*
X107898971Y-109481571D01*
X108099627Y-109967196D01*
X108304605Y-110172532D01*
X108100933Y-110375850D01*
X107899430Y-110861124D01*
X107898971Y-111386571D01*
X108099627Y-111872196D01*
X108470850Y-112244067D01*
X108956124Y-112445570D01*
X109481571Y-112446029D01*
X109967196Y-112245373D01*
X110339067Y-111874150D01*
X110540570Y-111388876D01*
X110541029Y-110863429D01*
X110340373Y-110377804D01*
X110135394Y-110172467D01*
X110339067Y-109969150D01*
X110490122Y-109605367D01*
X110639627Y-109967196D01*
X111010850Y-110339067D01*
X111496124Y-110540570D01*
X112021571Y-110541029D01*
X112507196Y-110340373D01*
X112879067Y-109969150D01*
X113080570Y-109483876D01*
X113081029Y-108958429D01*
X113081029Y-116578429D01*
X112880373Y-116092804D01*
X112509150Y-115720933D01*
X112023876Y-115519430D01*
X111498429Y-115518971D01*
X111012804Y-115719627D01*
X110640933Y-116090850D01*
X110489876Y-116454634D01*
X110340373Y-116092808D01*
X110135387Y-115887464D01*
X110339067Y-115684140D01*
X110540570Y-115198866D01*
X110541029Y-114673419D01*
X110340373Y-114187794D01*
X109969150Y-113815923D01*
X109483876Y-113614420D01*
X108958429Y-113613961D01*
X108472804Y-113814617D01*
X108100933Y-114185840D01*
X107899430Y-114671114D01*
X107898971Y-115196561D01*
X108099627Y-115682186D01*
X108304612Y-115887529D01*
X108100933Y-116090854D01*
X107899430Y-116576128D01*
X107898971Y-117101575D01*
X108099627Y-117587200D01*
X108304608Y-117792539D01*
X108100933Y-117995860D01*
X107899430Y-118481134D01*
X107898971Y-119006581D01*
X108099627Y-119492206D01*
X108470850Y-119864077D01*
X108956124Y-120065580D01*
X109481571Y-120066039D01*
X109967196Y-119865383D01*
X110339067Y-119494160D01*
X110490124Y-119130372D01*
X110639627Y-119492196D01*
X111010850Y-119864067D01*
X111496124Y-120065570D01*
X112021571Y-120066029D01*
X112507196Y-119865373D01*
X112879067Y-119494150D01*
X113080570Y-119008876D01*
X113081029Y-118483429D01*
X113081029Y-121716800D01*
X112310832Y-121716800D01*
X109135832Y-124891800D01*
X102487800Y-124891800D01*
X102487800Y-124772724D01*
X103624000Y-124772724D01*
X103933918Y-124712592D01*
X104206307Y-124533662D01*
X104388642Y-124263540D01*
X104452724Y-123944000D01*
X104452724Y-122436000D01*
X104392592Y-122126082D01*
X104213662Y-121853693D01*
X103943540Y-121671358D01*
X103624000Y-121607276D01*
X102487800Y-121607276D01*
X102487800Y-87942724D01*
X103624000Y-87942724D01*
X103933918Y-87882592D01*
X104206307Y-87703662D01*
X104388642Y-87433540D01*
X104452724Y-87114000D01*
X104452724Y-85606000D01*
X104392592Y-85296082D01*
X104213662Y-85023693D01*
X103943540Y-84841358D01*
X103624000Y-84777276D01*
X102487800Y-84777276D01*
X102487800Y-78262124D01*
X117692494Y-77473124D01*
X117557339Y-78083420D01*
X117685800Y-78811007D01*
X117806263Y-79063561D01*
X118050997Y-79223073D01*
X119020021Y-78146863D01*
X118240194Y-77444703D01*
X118334912Y-77439787D01*
X119005287Y-78110162D01*
X119424600Y-77690848D01*
X119427923Y-77693841D01*
X119721458Y-77367837D01*
X119778873Y-77364857D01*
X119464624Y-77679107D01*
X119883937Y-78098420D01*
X119880945Y-78101743D01*
X120957155Y-79070768D01*
X121183875Y-78886548D01*
X121343627Y-78165186D01*
X121215166Y-77437599D01*
X121146616Y-77293883D01*
X125118017Y-77087800D01*
X126796800Y-77087800D01*
X126796800Y-84747021D01*
X126680602Y-84746920D01*
X126087615Y-84991937D01*
X125633532Y-85445229D01*
X125387480Y-86037787D01*
X125386920Y-86679398D01*
X125631937Y-87272385D01*
X125989154Y-87630225D01*
X125633532Y-87985229D01*
X125387480Y-88577787D01*
X125386920Y-89219398D01*
X125631937Y-89812385D01*
X126085229Y-90266468D01*
X126677787Y-90512520D01*
X127319398Y-90513080D01*
X127912385Y-90268063D01*
X128050447Y-90130241D01*
X128150338Y-90282307D01*
X128420460Y-90464642D01*
X128740000Y-90528724D01*
X130340000Y-90528724D01*
X130649918Y-90468592D01*
X130922307Y-90289662D01*
X131104642Y-90019540D01*
X131168724Y-89700000D01*
X131168724Y-88100000D01*
X131116957Y-87833200D01*
X134922013Y-87833200D01*
X134918258Y-87836949D01*
X134687463Y-88392765D01*
X134686937Y-88994594D01*
X134916762Y-89550813D01*
X135341949Y-89976742D01*
X135897765Y-90207537D01*
X136499594Y-90208063D01*
X137055813Y-89978238D01*
X137481742Y-89553051D01*
X137712537Y-88997235D01*
X137713063Y-88395406D01*
X137483238Y-87839187D01*
X137477261Y-87833200D01*
X141922013Y-87833200D01*
X141918258Y-87836949D01*
X141687463Y-88392765D01*
X141686937Y-88994594D01*
X141916762Y-89550813D01*
X142341949Y-89976742D01*
X142897765Y-90207537D01*
X143499594Y-90208063D01*
X144055813Y-89978238D01*
X144481742Y-89553051D01*
X144712537Y-88997235D01*
X144713063Y-88395406D01*
X144483238Y-87839187D01*
X144477261Y-87833200D01*
X154131287Y-87833200D01*
X155230505Y-88289635D01*
X156978626Y-88291161D01*
X158086974Y-87833200D01*
X160104168Y-87833200D01*
X161493200Y-86444168D01*
X161493200Y-85174168D01*
X162644168Y-84023200D01*
X164841311Y-84023200D01*
X164499913Y-84364004D01*
X164253861Y-84956562D01*
X164253301Y-85598173D01*
X164498318Y-86191160D01*
X164951610Y-86645243D01*
X165544168Y-86891295D01*
X166185779Y-86891855D01*
X166773680Y-86648939D01*
X166943999Y-86819555D01*
X167536557Y-87065607D01*
X168178168Y-87066167D01*
X168771155Y-86821150D01*
X168995251Y-86597443D01*
X169434486Y-87037444D01*
X170027044Y-87283496D01*
X170668655Y-87284056D01*
X171222743Y-87055111D01*
X171365832Y-87198200D01*
X174372200Y-87198200D01*
X174372200Y-119994888D01*
X174055000Y-119931276D01*
X172655000Y-119931276D01*
X172345082Y-119991408D01*
X172072693Y-120170338D01*
X171890358Y-120440460D01*
X171826276Y-120760000D01*
X171826276Y-122160000D01*
X171886408Y-122469918D01*
X172034481Y-122695333D01*
X171842463Y-123157765D01*
X171841937Y-123759594D01*
X172071762Y-124315813D01*
X172215576Y-124459878D01*
X172073258Y-124601949D01*
X171842463Y-125157765D01*
X171841937Y-125759594D01*
X172071762Y-126315813D01*
X172496949Y-126741742D01*
X173052765Y-126972537D01*
X173654594Y-126973063D01*
X174210813Y-126743238D01*
X174372200Y-126582132D01*
X174372200Y-132078562D01*
X174253876Y-132029430D01*
X173728429Y-132028971D01*
X173242804Y-132229627D01*
X172870933Y-132600850D01*
X172771029Y-132841445D01*
X172771029Y-131183429D01*
X172570373Y-130697804D01*
X172199150Y-130325933D01*
X172135691Y-130299582D01*
X172136029Y-129913429D01*
X171935373Y-129427804D01*
X171564150Y-129055933D01*
X171501029Y-129029722D01*
X171501029Y-96258429D01*
X171300373Y-95772804D01*
X170929150Y-95400933D01*
X170443876Y-95199430D01*
X169918429Y-95198971D01*
X169544679Y-95353400D01*
X169173876Y-95199430D01*
X168827590Y-95199127D01*
X168960570Y-94878876D01*
X168961029Y-94353429D01*
X168760373Y-93867804D01*
X168616147Y-93723326D01*
X169034646Y-93723692D01*
X169459320Y-93548220D01*
X169880799Y-93723233D01*
X170406246Y-93723692D01*
X170891871Y-93523036D01*
X171263742Y-93151813D01*
X171465245Y-92666539D01*
X171465704Y-92141092D01*
X171265048Y-91655467D01*
X170893825Y-91283596D01*
X170408551Y-91082093D01*
X169883104Y-91081634D01*
X169458429Y-91257105D01*
X169036951Y-91082093D01*
X168511504Y-91081634D01*
X168025879Y-91282290D01*
X167654008Y-91653513D01*
X167452505Y-92138787D01*
X167452046Y-92664234D01*
X167652702Y-93149859D01*
X167796927Y-93294336D01*
X167378429Y-93293971D01*
X167004679Y-93448400D01*
X166633876Y-93294430D01*
X166108429Y-93293971D01*
X165622804Y-93494627D01*
X165250933Y-93865850D01*
X165049430Y-94351124D01*
X165048971Y-94876571D01*
X165249627Y-95362196D01*
X165620850Y-95734067D01*
X166106124Y-95935570D01*
X166631571Y-95936029D01*
X167005320Y-95781599D01*
X167376124Y-95935570D01*
X167722409Y-95935872D01*
X167589430Y-96256124D01*
X167588971Y-96781571D01*
X167789627Y-97267196D01*
X168160850Y-97639067D01*
X168646124Y-97840570D01*
X169171571Y-97841029D01*
X169545320Y-97686599D01*
X169916124Y-97840570D01*
X170441571Y-97841029D01*
X170927196Y-97640373D01*
X171299067Y-97269150D01*
X171500570Y-96783876D01*
X171501029Y-96258429D01*
X171501029Y-129029722D01*
X171122352Y-128872482D01*
X171122352Y-121508362D01*
X170921696Y-121022737D01*
X170550473Y-120650866D01*
X170126107Y-120474654D01*
X169951830Y-120052871D01*
X169580607Y-119681000D01*
X169350796Y-119585574D01*
X169657196Y-119458973D01*
X170029067Y-119087750D01*
X170230570Y-118602476D01*
X170231029Y-118077029D01*
X170030373Y-117591404D01*
X169659150Y-117219533D01*
X169173876Y-117018030D01*
X168960844Y-117017843D01*
X168961029Y-116807029D01*
X168760373Y-116321404D01*
X168389150Y-115949533D01*
X167903876Y-115748030D01*
X167378429Y-115747571D01*
X166892804Y-115948227D01*
X166520933Y-116319450D01*
X166325892Y-116789160D01*
X166108429Y-116788971D01*
X165622804Y-116989627D01*
X165250933Y-117360850D01*
X165049430Y-117846124D01*
X165048971Y-118371571D01*
X165249627Y-118857196D01*
X165620850Y-119229067D01*
X166106124Y-119430570D01*
X166631571Y-119431029D01*
X167117196Y-119230373D01*
X167489067Y-118859150D01*
X167592778Y-118609385D01*
X167789627Y-119085796D01*
X168160850Y-119457667D01*
X168390660Y-119553092D01*
X168084261Y-119679694D01*
X167712390Y-120050917D01*
X167510887Y-120536191D01*
X167510428Y-121061638D01*
X167711084Y-121547263D01*
X168082307Y-121919134D01*
X168506672Y-122095345D01*
X168680950Y-122517129D01*
X169052173Y-122889000D01*
X169537447Y-123090503D01*
X170062894Y-123090962D01*
X170548519Y-122890306D01*
X170920390Y-122519083D01*
X171121893Y-122033809D01*
X171122352Y-121508362D01*
X171122352Y-128872482D01*
X171078876Y-128854430D01*
X170553429Y-128853971D01*
X170067804Y-129054627D01*
X169695933Y-129425850D01*
X169494430Y-129911124D01*
X169493971Y-130436571D01*
X169694627Y-130922196D01*
X170065850Y-131294067D01*
X170129308Y-131320417D01*
X170128971Y-131706571D01*
X170329627Y-132192196D01*
X170700850Y-132564067D01*
X171186124Y-132765570D01*
X171711571Y-132766029D01*
X172197196Y-132565373D01*
X172569067Y-132194150D01*
X172770570Y-131708876D01*
X172771029Y-131183429D01*
X172771029Y-132841445D01*
X172669430Y-133086124D01*
X172668971Y-133611571D01*
X172823400Y-133985320D01*
X172669430Y-134356124D01*
X172668971Y-134881571D01*
X172869627Y-135367196D01*
X173240850Y-135739067D01*
X173726124Y-135940570D01*
X174251571Y-135941029D01*
X174372200Y-135891186D01*
X174372200Y-137744200D01*
X174109429Y-137743971D01*
X173623804Y-137944627D01*
X173251933Y-138315850D01*
X173050430Y-138801124D01*
X173049971Y-139326571D01*
X173073535Y-139383600D01*
X172870933Y-139585850D01*
X172669430Y-140071124D01*
X172668971Y-140596571D01*
X172869627Y-141082196D01*
X173073247Y-141286172D01*
X173050430Y-141341124D01*
X173049971Y-141866571D01*
X173073535Y-141923600D01*
X172870933Y-142125850D01*
X172669430Y-142611124D01*
X172668971Y-143136571D01*
X172869627Y-143622196D01*
X173073247Y-143826172D01*
X173050430Y-143881124D01*
X173049971Y-144406571D01*
X173073535Y-144463600D01*
X172870933Y-144665850D01*
X172669430Y-145151124D01*
X172668971Y-145676571D01*
X172869627Y-146162196D01*
X173073247Y-146366172D01*
X173050430Y-146421124D01*
X173049971Y-146946571D01*
X173073535Y-147003600D01*
X172870933Y-147205850D01*
X172669430Y-147691124D01*
X172668971Y-148216571D01*
X172869627Y-148702196D01*
X173240850Y-149074067D01*
X173726124Y-149275570D01*
X174251571Y-149276029D01*
X174372200Y-149226186D01*
X174372200Y-151512200D01*
X174372200Y-151512200D01*
G37*
X174372200Y-151512200D02*
X168961029Y-151512200D01*
X168961029Y-128008429D01*
X168760373Y-127522804D01*
X168389150Y-127150933D01*
X167903876Y-126949430D01*
X167378429Y-126948971D01*
X166892804Y-127149627D01*
X166520933Y-127520850D01*
X166319430Y-128006124D01*
X166318971Y-128531571D01*
X166519627Y-129017196D01*
X166527945Y-129025529D01*
X166308733Y-129244360D01*
X166107230Y-129729634D01*
X166106771Y-130255081D01*
X166171220Y-130411059D01*
X165885933Y-130695850D01*
X165684430Y-131181124D01*
X165683971Y-131706571D01*
X165884627Y-132192196D01*
X166255850Y-132564067D01*
X166741124Y-132765570D01*
X167266571Y-132766029D01*
X167752196Y-132565373D01*
X168124067Y-132194150D01*
X168325570Y-131708876D01*
X168326029Y-131183429D01*
X168261579Y-131027450D01*
X168546867Y-130742660D01*
X168748370Y-130257386D01*
X168748829Y-129731939D01*
X168548173Y-129246314D01*
X168539854Y-129237980D01*
X168759067Y-129019150D01*
X168960570Y-128533876D01*
X168961029Y-128008429D01*
X168961029Y-151512200D01*
X165786029Y-151512200D01*
X165786029Y-142613429D01*
X165585373Y-142127804D01*
X165380394Y-141922467D01*
X165584067Y-141719150D01*
X165785570Y-141233876D01*
X165786029Y-140708429D01*
X165585373Y-140222804D01*
X165214150Y-139850933D01*
X164728876Y-139649430D01*
X164203429Y-139648971D01*
X163829679Y-139803400D01*
X163458876Y-139649430D01*
X162933429Y-139648971D01*
X162559679Y-139803400D01*
X162188876Y-139649430D01*
X161976029Y-139649244D01*
X161976029Y-128059229D01*
X161800557Y-127634554D01*
X161975570Y-127213076D01*
X161976029Y-126687629D01*
X161775373Y-126202004D01*
X161404150Y-125830133D01*
X161341029Y-125803922D01*
X161341029Y-119982029D01*
X161140373Y-119496404D01*
X160769150Y-119124533D01*
X160706029Y-119098322D01*
X160706029Y-94353455D01*
X160551593Y-93979692D01*
X160705570Y-93608876D01*
X160706029Y-93083429D01*
X160505373Y-92597804D01*
X160134150Y-92225933D01*
X159648876Y-92024430D01*
X159123429Y-92023971D01*
X158637804Y-92224627D01*
X158265933Y-92595850D01*
X158064430Y-93081124D01*
X158063971Y-93606571D01*
X158218406Y-93980333D01*
X158064430Y-94351150D01*
X158063971Y-94876597D01*
X158264627Y-95362222D01*
X158635850Y-95734093D01*
X159121124Y-95935596D01*
X159646571Y-95936055D01*
X160132196Y-95735399D01*
X160504067Y-95364176D01*
X160705570Y-94878902D01*
X160706029Y-94353455D01*
X160706029Y-119098322D01*
X160283876Y-118923030D01*
X159758429Y-118922571D01*
X159272804Y-119123227D01*
X158928029Y-119467401D01*
X158928029Y-110101429D01*
X158801029Y-109794065D01*
X158801029Y-103243429D01*
X158600373Y-102757804D01*
X158229150Y-102385933D01*
X157743876Y-102184430D01*
X157218429Y-102183971D01*
X156844679Y-102338400D01*
X156473876Y-102184430D01*
X155948429Y-102183971D01*
X155462804Y-102384627D01*
X155090933Y-102755850D01*
X154889430Y-103241124D01*
X154888971Y-103766571D01*
X155089627Y-104252196D01*
X155460850Y-104624067D01*
X155946124Y-104825570D01*
X156471571Y-104826029D01*
X156845320Y-104671599D01*
X157216124Y-104825570D01*
X157741571Y-104826029D01*
X158227196Y-104625373D01*
X158599067Y-104254150D01*
X158800570Y-103768876D01*
X158801029Y-103243429D01*
X158801029Y-109794065D01*
X158727373Y-109615804D01*
X158356150Y-109243933D01*
X157870876Y-109042430D01*
X157345429Y-109041971D01*
X156859804Y-109242627D01*
X156487933Y-109613850D01*
X156286430Y-110099124D01*
X156285971Y-110624571D01*
X156486627Y-111110196D01*
X156489293Y-111112867D01*
X156097804Y-111274627D01*
X155892441Y-111479631D01*
X155659598Y-111246381D01*
X155174324Y-111044878D01*
X154648877Y-111044419D01*
X154237470Y-111214408D01*
X154492684Y-110959640D01*
X154666541Y-110540944D01*
X154762990Y-110541029D01*
X155248615Y-110340373D01*
X155620486Y-109969150D01*
X155821989Y-109483876D01*
X155822448Y-108958429D01*
X155621792Y-108472804D01*
X155250569Y-108100933D01*
X154990762Y-107993052D01*
X154990872Y-107867614D01*
X155311124Y-108000594D01*
X155836571Y-108001053D01*
X156322196Y-107800397D01*
X156694067Y-107429174D01*
X156895570Y-106943900D01*
X156896029Y-106418453D01*
X156695373Y-105932828D01*
X156324150Y-105560957D01*
X155838876Y-105359454D01*
X155313429Y-105358995D01*
X154827804Y-105559651D01*
X154455933Y-105930874D01*
X154254430Y-106416148D01*
X154254127Y-106762409D01*
X153933876Y-106629430D01*
X153408429Y-106628971D01*
X153085728Y-106762307D01*
X153086029Y-106418429D01*
X152885373Y-105932804D01*
X152514150Y-105560933D01*
X152028876Y-105359430D01*
X151503429Y-105358971D01*
X151017804Y-105559627D01*
X150645933Y-105930850D01*
X150619582Y-105994308D01*
X150546029Y-105994243D01*
X150546029Y-96258429D01*
X150345373Y-95772804D01*
X149974150Y-95400933D01*
X149488876Y-95199430D01*
X149100706Y-95199090D01*
X149075383Y-95137804D01*
X148704160Y-94765933D01*
X148218886Y-94564430D01*
X147693439Y-94563971D01*
X147207814Y-94764627D01*
X146835943Y-95135850D01*
X146809592Y-95199308D01*
X146560699Y-95199090D01*
X146535373Y-95137796D01*
X146164150Y-94765925D01*
X145678876Y-94564422D01*
X145153429Y-94563963D01*
X144667804Y-94764619D01*
X144295933Y-95135842D01*
X144094430Y-95621116D01*
X144093971Y-96146563D01*
X144294627Y-96632188D01*
X144665850Y-97004059D01*
X145151124Y-97205562D01*
X145539300Y-97205901D01*
X145564627Y-97267196D01*
X145935850Y-97639067D01*
X146421124Y-97840570D01*
X146946571Y-97841029D01*
X147432196Y-97640373D01*
X147804067Y-97269150D01*
X147830417Y-97205691D01*
X148079303Y-97205909D01*
X148104627Y-97267196D01*
X148475850Y-97639067D01*
X148961124Y-97840570D01*
X149486571Y-97841029D01*
X149972196Y-97640373D01*
X150344067Y-97269150D01*
X150545570Y-96783876D01*
X150546029Y-96258429D01*
X150546029Y-105994243D01*
X150233429Y-105993971D01*
X149747804Y-106194627D01*
X149375933Y-106565850D01*
X149174430Y-107051124D01*
X149173971Y-107576571D01*
X149374627Y-108062196D01*
X149745850Y-108434067D01*
X150231124Y-108635570D01*
X150756571Y-108636029D01*
X151242196Y-108435373D01*
X151614067Y-108064150D01*
X151640417Y-108000691D01*
X152026571Y-108001029D01*
X152349271Y-107867692D01*
X152348971Y-108211571D01*
X152549627Y-108697196D01*
X152849747Y-108997840D01*
X152626421Y-109090117D01*
X152254550Y-109461340D01*
X152053047Y-109946614D01*
X152052588Y-110472061D01*
X152253244Y-110957686D01*
X152624467Y-111329557D01*
X153109741Y-111531060D01*
X153635188Y-111531519D01*
X154046594Y-111361529D01*
X153791381Y-111616298D01*
X153589878Y-112101572D01*
X153589419Y-112627019D01*
X153790075Y-113112644D01*
X154161298Y-113484515D01*
X154646572Y-113686018D01*
X155172019Y-113686477D01*
X155657644Y-113485821D01*
X155863006Y-113280816D01*
X156095850Y-113514067D01*
X156581124Y-113715570D01*
X157106571Y-113716029D01*
X157592196Y-113515373D01*
X157964067Y-113144150D01*
X158165570Y-112658876D01*
X158166029Y-112133429D01*
X157965373Y-111647804D01*
X157962706Y-111645132D01*
X158354196Y-111483373D01*
X158726067Y-111112150D01*
X158927570Y-110626876D01*
X158928029Y-110101429D01*
X158928029Y-119467401D01*
X158900933Y-119494450D01*
X158699430Y-119979724D01*
X158698971Y-120505171D01*
X158899627Y-120990796D01*
X159270850Y-121362667D01*
X159756124Y-121564170D01*
X160281571Y-121564629D01*
X160767196Y-121363973D01*
X161139067Y-120992750D01*
X161340570Y-120507476D01*
X161341029Y-119982029D01*
X161341029Y-125803922D01*
X160918876Y-125628630D01*
X160393429Y-125628171D01*
X160071029Y-125761383D01*
X160071029Y-123867942D01*
X159895557Y-123443267D01*
X160070570Y-123021789D01*
X160071029Y-122496342D01*
X159870373Y-122010717D01*
X159499150Y-121638846D01*
X159013876Y-121437343D01*
X158488429Y-121436884D01*
X158002804Y-121637540D01*
X157630933Y-122008763D01*
X157429430Y-122494037D01*
X157428971Y-123019484D01*
X157604442Y-123444158D01*
X157429430Y-123865637D01*
X157428971Y-124391084D01*
X157629627Y-124876709D01*
X158000850Y-125248580D01*
X158486124Y-125450083D01*
X159011571Y-125450542D01*
X159497196Y-125249886D01*
X159869067Y-124878663D01*
X160070570Y-124393389D01*
X160071029Y-123867942D01*
X160071029Y-125761383D01*
X159907804Y-125828827D01*
X159535933Y-126200050D01*
X159334430Y-126685324D01*
X159333971Y-127210771D01*
X159509442Y-127635445D01*
X159334430Y-128056924D01*
X159333971Y-128582371D01*
X159534627Y-129067996D01*
X159905850Y-129439867D01*
X160391124Y-129641370D01*
X160916571Y-129641829D01*
X161402196Y-129441173D01*
X161774067Y-129069950D01*
X161975570Y-128584676D01*
X161976029Y-128059229D01*
X161976029Y-139649244D01*
X161663429Y-139648971D01*
X161177804Y-139849627D01*
X160805933Y-140220850D01*
X160604430Y-140706124D01*
X160603971Y-141231571D01*
X160804627Y-141717196D01*
X161175850Y-142089067D01*
X161661124Y-142290570D01*
X162186571Y-142291029D01*
X162560320Y-142136599D01*
X162931124Y-142290570D01*
X163277409Y-142290872D01*
X163144430Y-142611124D01*
X163143971Y-143136571D01*
X163344627Y-143622196D01*
X163715850Y-143994067D01*
X164201124Y-144195570D01*
X164726571Y-144196029D01*
X165212196Y-143995373D01*
X165584067Y-143624150D01*
X165785570Y-143138876D01*
X165786029Y-142613429D01*
X165786029Y-151512200D01*
X153873200Y-151512200D01*
X153873200Y-150023989D01*
X155311697Y-150621307D01*
X156898142Y-150622691D01*
X158364356Y-150016864D01*
X159487121Y-148896057D01*
X160095507Y-147430903D01*
X160096891Y-145844458D01*
X159491064Y-144378244D01*
X158370257Y-143255479D01*
X156905103Y-142647093D01*
X156462800Y-142646707D01*
X156462800Y-131445000D01*
X156462800Y-118745000D01*
X156395220Y-118405254D01*
X156202769Y-118117231D01*
X155914746Y-117924780D01*
X155575000Y-117857200D01*
X149225000Y-117857200D01*
X148885254Y-117924780D01*
X148597231Y-118117231D01*
X148404780Y-118405254D01*
X148337200Y-118745000D01*
X148337200Y-131445000D01*
X148404780Y-131784746D01*
X148597231Y-132072769D01*
X148885254Y-132265220D01*
X149225000Y-132332800D01*
X155575000Y-132332800D01*
X155914746Y-132265220D01*
X156202769Y-132072769D01*
X156395220Y-131784746D01*
X156462800Y-131445000D01*
X156462800Y-142646707D01*
X155318658Y-142645709D01*
X153873200Y-143242959D01*
X153873200Y-136956800D01*
X146736029Y-136956800D01*
X146736029Y-105148429D01*
X146535373Y-104662804D01*
X146164150Y-104290933D01*
X145678876Y-104089430D01*
X145153429Y-104088971D01*
X144779679Y-104243400D01*
X144408876Y-104089430D01*
X143883429Y-104088971D01*
X143397804Y-104289627D01*
X143025933Y-104660850D01*
X142824430Y-105146124D01*
X142823971Y-105671571D01*
X143024627Y-106157196D01*
X143395850Y-106529067D01*
X143881124Y-106730570D01*
X144406571Y-106731029D01*
X144780320Y-106576599D01*
X145151124Y-106730570D01*
X145676571Y-106731029D01*
X146162196Y-106530373D01*
X146534067Y-106159150D01*
X146735570Y-105673876D01*
X146736029Y-105148429D01*
X146736029Y-136956800D01*
X146731876Y-136956800D01*
X146731876Y-133778382D01*
X146531220Y-133292757D01*
X146159997Y-132920886D01*
X145674723Y-132719383D01*
X145149276Y-132718924D01*
X144817119Y-132856168D01*
X144355060Y-132664305D01*
X143829613Y-132663846D01*
X143343988Y-132864502D01*
X142972117Y-133235725D01*
X142770614Y-133720999D01*
X142770155Y-134246446D01*
X142970811Y-134732071D01*
X143342034Y-135103942D01*
X143827308Y-135305445D01*
X144352755Y-135305904D01*
X144684911Y-135168659D01*
X145146971Y-135360523D01*
X145672418Y-135360982D01*
X146158043Y-135160326D01*
X146529914Y-134789103D01*
X146731417Y-134303829D01*
X146731876Y-133778382D01*
X146731876Y-136956800D01*
X142180648Y-136956800D01*
X142180648Y-94243060D01*
X141979992Y-93757435D01*
X141608769Y-93385564D01*
X141123495Y-93184061D01*
X140598048Y-93183602D01*
X140112423Y-93384258D01*
X140034299Y-93462245D01*
X139941150Y-93368933D01*
X139455876Y-93167430D01*
X138930429Y-93166971D01*
X138444804Y-93367627D01*
X138072933Y-93738850D01*
X137871430Y-94224124D01*
X137870971Y-94749571D01*
X138071627Y-95235196D01*
X138442850Y-95607067D01*
X138928124Y-95808570D01*
X139453571Y-95809029D01*
X139939196Y-95608373D01*
X140017319Y-95530385D01*
X140110469Y-95623698D01*
X140595743Y-95825201D01*
X141121190Y-95825660D01*
X141606815Y-95625004D01*
X141978686Y-95253781D01*
X142180189Y-94768507D01*
X142180648Y-94243060D01*
X142180648Y-136956800D01*
X142037029Y-136956800D01*
X142037029Y-103370463D01*
X141836373Y-102884838D01*
X141465150Y-102512967D01*
X140979876Y-102311464D01*
X140454429Y-102311005D01*
X139968804Y-102511661D01*
X139596933Y-102882884D01*
X139395430Y-103368158D01*
X139394971Y-103893605D01*
X139595627Y-104379230D01*
X139966850Y-104751101D01*
X140452124Y-104952604D01*
X140977571Y-104953063D01*
X141463196Y-104752407D01*
X141835067Y-104381184D01*
X142036570Y-103895910D01*
X142037029Y-103370463D01*
X142037029Y-136956800D01*
X139116029Y-136956800D01*
X139116029Y-103878429D01*
X138915373Y-103392804D01*
X138544150Y-103020933D01*
X138058876Y-102819430D01*
X137533429Y-102818971D01*
X137047804Y-103019627D01*
X136842463Y-103224609D01*
X136639142Y-103020933D01*
X136605141Y-103006814D01*
X136755067Y-102857150D01*
X136956570Y-102371876D01*
X136957029Y-101846429D01*
X136756373Y-101360804D01*
X136385150Y-100988933D01*
X135899876Y-100787430D01*
X135374429Y-100786971D01*
X135306029Y-100815233D01*
X135306029Y-95623519D01*
X135105373Y-95137894D01*
X134734150Y-94766023D01*
X134248876Y-94564520D01*
X133723429Y-94564061D01*
X133237804Y-94764717D01*
X133032512Y-94969650D01*
X132829150Y-94765933D01*
X132343876Y-94564430D01*
X131818429Y-94563971D01*
X131332804Y-94764627D01*
X130960933Y-95135850D01*
X130759430Y-95621124D01*
X130758971Y-96146571D01*
X130959627Y-96632196D01*
X131330850Y-97004067D01*
X131816124Y-97205570D01*
X132341571Y-97206029D01*
X132827196Y-97005373D01*
X133032487Y-96800439D01*
X133235850Y-97004157D01*
X133721124Y-97205660D01*
X134246571Y-97206119D01*
X134732196Y-97005463D01*
X135104067Y-96634240D01*
X135305570Y-96148966D01*
X135306029Y-95623519D01*
X135306029Y-100815233D01*
X134888804Y-100987627D01*
X134516933Y-101358850D01*
X134315430Y-101844124D01*
X134314971Y-102369571D01*
X134515627Y-102855196D01*
X134886850Y-103227067D01*
X134920850Y-103241185D01*
X134770925Y-103390850D01*
X134569422Y-103876124D01*
X134568963Y-104401571D01*
X134769619Y-104887196D01*
X135140842Y-105259067D01*
X135626116Y-105460570D01*
X136151563Y-105461029D01*
X136637188Y-105260373D01*
X136842528Y-105055390D01*
X137045850Y-105259067D01*
X137531124Y-105460570D01*
X138056571Y-105461029D01*
X138542196Y-105260373D01*
X138914067Y-104889150D01*
X139115570Y-104403876D01*
X139116029Y-103878429D01*
X139116029Y-136956800D01*
X137846029Y-136956800D01*
X137846029Y-131183429D01*
X137645373Y-130697804D01*
X137274150Y-130325933D01*
X136788876Y-130124430D01*
X136263429Y-130123971D01*
X135777804Y-130324627D01*
X135405933Y-130695850D01*
X135204430Y-131181124D01*
X135203971Y-131706571D01*
X135404627Y-132192196D01*
X135775850Y-132564067D01*
X136261124Y-132765570D01*
X136786571Y-132766029D01*
X137272196Y-132565373D01*
X137644067Y-132194150D01*
X137845570Y-131708876D01*
X137846029Y-131183429D01*
X137846029Y-136956800D01*
X134036029Y-136956800D01*
X134036029Y-130548429D01*
X133835373Y-130062804D01*
X133464150Y-129690933D01*
X132978876Y-129489430D01*
X132453429Y-129488971D01*
X132131029Y-129622183D01*
X132131029Y-115943429D01*
X131930373Y-115457804D01*
X131559150Y-115085933D01*
X131073876Y-114884430D01*
X130548429Y-114883971D01*
X130062804Y-115084627D01*
X129690933Y-115455850D01*
X129489430Y-115941124D01*
X129489243Y-116154155D01*
X129278429Y-116153971D01*
X128792804Y-116354627D01*
X128420933Y-116725850D01*
X128219430Y-117211124D01*
X128218971Y-117736571D01*
X128419627Y-118222196D01*
X128790850Y-118594067D01*
X128854308Y-118620417D01*
X128854090Y-118869303D01*
X128792804Y-118894627D01*
X128420933Y-119265850D01*
X128219430Y-119751124D01*
X128218971Y-120276571D01*
X128419627Y-120762196D01*
X128790850Y-121134067D01*
X128854308Y-121160417D01*
X128854090Y-121409303D01*
X128792804Y-121434627D01*
X128420933Y-121805850D01*
X128219430Y-122291124D01*
X128218971Y-122816571D01*
X128419627Y-123302196D01*
X128790850Y-123674067D01*
X129276124Y-123875570D01*
X129801571Y-123876029D01*
X130287196Y-123675373D01*
X130659067Y-123304150D01*
X130860570Y-122818876D01*
X130860909Y-122430696D01*
X130922196Y-122405373D01*
X131294067Y-122034150D01*
X131495570Y-121548876D01*
X131496029Y-121023429D01*
X131295373Y-120537804D01*
X130924150Y-120165933D01*
X130860691Y-120139582D01*
X130860909Y-119890696D01*
X130922196Y-119865373D01*
X131294067Y-119494150D01*
X131495570Y-119008876D01*
X131496029Y-118483429D01*
X131295373Y-117997804D01*
X130924150Y-117625933D01*
X130860691Y-117599582D01*
X130860756Y-117525844D01*
X131071571Y-117526029D01*
X131557196Y-117325373D01*
X131929067Y-116954150D01*
X132130570Y-116468876D01*
X132131029Y-115943429D01*
X132131029Y-129622183D01*
X131967804Y-129689627D01*
X131595933Y-130060850D01*
X131394430Y-130546124D01*
X131393971Y-131071571D01*
X131527307Y-131394271D01*
X131183429Y-131393971D01*
X130809679Y-131548400D01*
X130438876Y-131394430D01*
X129913429Y-131393971D01*
X129427804Y-131594627D01*
X129055933Y-131965850D01*
X128854430Y-132451124D01*
X128853971Y-132976571D01*
X129054627Y-133462196D01*
X129425850Y-133834067D01*
X129911124Y-134035570D01*
X130436571Y-134036029D01*
X130810320Y-133881599D01*
X131181124Y-134035570D01*
X131706571Y-134036029D01*
X132192196Y-133835373D01*
X132564067Y-133464150D01*
X132765570Y-132978876D01*
X132766029Y-132453429D01*
X132632692Y-132130728D01*
X132976571Y-132131029D01*
X133462196Y-131930373D01*
X133834067Y-131559150D01*
X134035570Y-131073876D01*
X134036029Y-130548429D01*
X134036029Y-136956800D01*
X131360832Y-136956800D01*
X130090832Y-138226800D01*
X124663200Y-138226800D01*
X124663200Y-129971800D01*
X122986800Y-129971800D01*
X122986800Y-131464158D01*
X122818876Y-131394430D01*
X122293429Y-131393971D01*
X121807804Y-131594627D01*
X121435933Y-131965850D01*
X121234430Y-132451124D01*
X121233971Y-132976571D01*
X121434627Y-133462196D01*
X121805850Y-133834067D01*
X122291124Y-134035570D01*
X122816571Y-134036029D01*
X122986800Y-133965691D01*
X122986800Y-139903200D01*
X143344137Y-139903200D01*
X143025933Y-140220850D01*
X142824430Y-140706124D01*
X142823971Y-141231571D01*
X143024627Y-141717196D01*
X143395850Y-142089067D01*
X143881124Y-142290570D01*
X144406571Y-142291029D01*
X144797460Y-142129516D01*
X145201918Y-142297462D01*
X145727365Y-142297921D01*
X146130342Y-142131414D01*
X146522726Y-142294346D01*
X147048173Y-142294805D01*
X147533798Y-142094149D01*
X147905669Y-141722926D01*
X148107172Y-141237652D01*
X148107631Y-140712205D01*
X147906975Y-140226580D01*
X147584158Y-139903200D01*
X151561800Y-139903200D01*
X151561800Y-151512200D01*
X148591437Y-151512200D01*
X148640570Y-151393876D01*
X148641029Y-150868429D01*
X148440373Y-150382804D01*
X148069150Y-150010933D01*
X147583876Y-149809430D01*
X147058429Y-149808971D01*
X146572804Y-150009627D01*
X146200933Y-150380850D01*
X145999430Y-150866124D01*
X145998971Y-151391571D01*
X146048813Y-151512200D01*
X145365624Y-151512200D01*
X145414757Y-151393876D01*
X145415216Y-150868429D01*
X145214560Y-150382804D01*
X144843337Y-150010933D01*
X144358063Y-149809430D01*
X143832616Y-149808971D01*
X143484335Y-149952877D01*
X143138876Y-149809430D01*
X142613429Y-149808971D01*
X142127804Y-150009627D01*
X141755933Y-150380850D01*
X141554430Y-150866124D01*
X141553971Y-151391571D01*
X141603813Y-151512200D01*
X139721483Y-151512200D01*
X139721483Y-148992975D01*
X139520827Y-148507350D01*
X139391769Y-148378066D01*
X139391769Y-145861419D01*
X139191113Y-145375794D01*
X138819890Y-145003923D01*
X138334616Y-144802420D01*
X137809169Y-144801961D01*
X137323544Y-145002617D01*
X136951673Y-145373840D01*
X136750170Y-145859114D01*
X136749711Y-146384561D01*
X136950367Y-146870186D01*
X137321590Y-147242057D01*
X137806864Y-147443560D01*
X138332311Y-147444019D01*
X138817936Y-147243363D01*
X139189807Y-146872140D01*
X139391310Y-146386866D01*
X139391769Y-145861419D01*
X139391769Y-148378066D01*
X139149604Y-148135479D01*
X138664330Y-147933976D01*
X138138883Y-147933517D01*
X137653258Y-148134173D01*
X137281387Y-148505396D01*
X137079884Y-148990670D01*
X137079425Y-149516117D01*
X137280081Y-150001742D01*
X137651304Y-150373613D01*
X138136578Y-150575116D01*
X138662025Y-150575575D01*
X139147650Y-150374919D01*
X139519521Y-150003696D01*
X139721024Y-149518422D01*
X139721483Y-148992975D01*
X139721483Y-151512200D01*
X135242200Y-151512200D01*
X135242200Y-147090943D01*
X135242200Y-146367500D01*
X135242200Y-145732500D01*
X135242200Y-145009057D01*
X135172595Y-144841017D01*
X135043983Y-144712404D01*
X134875942Y-144642800D01*
X134694057Y-144642800D01*
X134302500Y-144642800D01*
X134188200Y-144757100D01*
X134188200Y-145846800D01*
X135127900Y-145846800D01*
X135242200Y-145732500D01*
X135242200Y-146367500D01*
X135127900Y-146253200D01*
X134188200Y-146253200D01*
X134188200Y-147342900D01*
X134302500Y-147457200D01*
X134694057Y-147457200D01*
X134875942Y-147457200D01*
X135043983Y-147387596D01*
X135172595Y-147258983D01*
X135242200Y-147090943D01*
X135242200Y-151512200D01*
X133781800Y-151512200D01*
X133781800Y-147342900D01*
X133781800Y-146253200D01*
X133781800Y-145846800D01*
X133781800Y-144757100D01*
X133667500Y-144642800D01*
X133275943Y-144642800D01*
X133094058Y-144642800D01*
X132926017Y-144712404D01*
X132797405Y-144841017D01*
X132727800Y-145009057D01*
X132727800Y-145732500D01*
X132842100Y-145846800D01*
X133781800Y-145846800D01*
X133781800Y-146253200D01*
X132842100Y-146253200D01*
X132727800Y-146367500D01*
X132727800Y-147090943D01*
X132797405Y-147258983D01*
X132926017Y-147387596D01*
X133094058Y-147457200D01*
X133275943Y-147457200D01*
X133667500Y-147457200D01*
X133781800Y-147342900D01*
X133781800Y-151512200D01*
X130861029Y-151512200D01*
X130861029Y-143248429D01*
X130660373Y-142762804D01*
X130289150Y-142390933D01*
X129803876Y-142189430D01*
X129278429Y-142188971D01*
X128792804Y-142389627D01*
X128420933Y-142760850D01*
X128219430Y-143246124D01*
X128218971Y-143771571D01*
X128419627Y-144257196D01*
X128790850Y-144629067D01*
X129276124Y-144830570D01*
X129801571Y-144831029D01*
X130287196Y-144630373D01*
X130659067Y-144259150D01*
X130860570Y-143773876D01*
X130861029Y-143248429D01*
X130861029Y-151512200D01*
X121185962Y-151512200D01*
X121185962Y-133573362D01*
X120985306Y-133087737D01*
X120614083Y-132715866D01*
X120189717Y-132539654D01*
X120015440Y-132117871D01*
X119644217Y-131746000D01*
X119158943Y-131544497D01*
X118987590Y-131544347D01*
X118900183Y-131332804D01*
X118528960Y-130960933D01*
X118161029Y-130808154D01*
X118161029Y-128008429D01*
X117960373Y-127522804D01*
X117589150Y-127150933D01*
X117103876Y-126949430D01*
X116578429Y-126948971D01*
X116127549Y-127135270D01*
X115783073Y-126992232D01*
X115257626Y-126991773D01*
X114772001Y-127192429D01*
X114613511Y-127350642D01*
X114414150Y-127150933D01*
X113928876Y-126949430D01*
X113403429Y-126948971D01*
X112917804Y-127149627D01*
X112545933Y-127520850D01*
X112344430Y-128006124D01*
X112343971Y-128531571D01*
X112544627Y-129017196D01*
X112915850Y-129389067D01*
X113401124Y-129590570D01*
X113926571Y-129591029D01*
X114412196Y-129390373D01*
X114570685Y-129232159D01*
X114770047Y-129431869D01*
X115255321Y-129633372D01*
X115780768Y-129633831D01*
X116231647Y-129447531D01*
X116576124Y-129590570D01*
X117101571Y-129591029D01*
X117587196Y-129390373D01*
X117959067Y-129019150D01*
X118160570Y-128533876D01*
X118161029Y-128008429D01*
X118161029Y-130808154D01*
X118043686Y-130759430D01*
X117518239Y-130758971D01*
X117032614Y-130959627D01*
X116956964Y-131035144D01*
X116649340Y-130726983D01*
X116164066Y-130525480D01*
X115638619Y-130525021D01*
X115152994Y-130725677D01*
X114781123Y-131096900D01*
X114579620Y-131582174D01*
X114579161Y-132107621D01*
X114779817Y-132593246D01*
X115151040Y-132965117D01*
X115636314Y-133166620D01*
X116161761Y-133167079D01*
X116647386Y-132966423D01*
X116723035Y-132890905D01*
X117030660Y-133199067D01*
X117515934Y-133400570D01*
X117687286Y-133400719D01*
X117774694Y-133612263D01*
X118145917Y-133984134D01*
X118570282Y-134160345D01*
X118744560Y-134582129D01*
X119115783Y-134954000D01*
X119601057Y-135155503D01*
X120126504Y-135155962D01*
X120612129Y-134955306D01*
X120984000Y-134584083D01*
X121185503Y-134098809D01*
X121185962Y-133573362D01*
X121185962Y-151512200D01*
X120066029Y-151512200D01*
X120066029Y-140708429D01*
X119902981Y-140313824D01*
X120036024Y-139993422D01*
X120036483Y-139467975D01*
X119835827Y-138982350D01*
X119464604Y-138610479D01*
X118979330Y-138408976D01*
X118453883Y-138408517D01*
X117968258Y-138609173D01*
X117596387Y-138980396D01*
X117394884Y-139465670D01*
X117394425Y-139991117D01*
X117557472Y-140385721D01*
X117424430Y-140706124D01*
X117423971Y-141231571D01*
X117624627Y-141717196D01*
X117995850Y-142089067D01*
X118481124Y-142290570D01*
X119006571Y-142291029D01*
X119492196Y-142090373D01*
X119864067Y-141719150D01*
X120065570Y-141233876D01*
X120066029Y-140708429D01*
X120066029Y-151512200D01*
X115591483Y-151512200D01*
X115591483Y-135022975D01*
X115390827Y-134537350D01*
X115019604Y-134165479D01*
X114534330Y-133963976D01*
X114008883Y-133963517D01*
X113523258Y-134164173D01*
X113151387Y-134535396D01*
X112949884Y-135020670D01*
X112949425Y-135546117D01*
X113150081Y-136031742D01*
X113521304Y-136403613D01*
X114006578Y-136605116D01*
X114532025Y-136605575D01*
X115017650Y-136404919D01*
X115389521Y-136033696D01*
X115591024Y-135548422D01*
X115591483Y-135022975D01*
X115591483Y-151512200D01*
X102487800Y-151512200D01*
X102487800Y-144983200D01*
X106578228Y-144983200D01*
X106223493Y-145837497D01*
X106222109Y-147423942D01*
X106827936Y-148890156D01*
X107948743Y-150012921D01*
X109413897Y-150621307D01*
X111000342Y-150622691D01*
X112466556Y-150016864D01*
X113589321Y-148896057D01*
X114197707Y-147430903D01*
X114199091Y-145844458D01*
X113593264Y-144378244D01*
X112472457Y-143255479D01*
X111007303Y-142647093D01*
X110058200Y-142646265D01*
X110058200Y-126449168D01*
X110652388Y-125854979D01*
X111010850Y-126214067D01*
X111496124Y-126415570D01*
X112021571Y-126416029D01*
X112395320Y-126261599D01*
X112766124Y-126415570D01*
X113291571Y-126416029D01*
X113777196Y-126215373D01*
X114149067Y-125844150D01*
X114350570Y-125358876D01*
X114351029Y-124833429D01*
X114150373Y-124347804D01*
X113779150Y-123975933D01*
X113293876Y-123774430D01*
X112768429Y-123773971D01*
X112708729Y-123798638D01*
X113114168Y-123393200D01*
X115320006Y-123393200D01*
X115257276Y-123706000D01*
X115257276Y-125214000D01*
X115317408Y-125523918D01*
X115496338Y-125796307D01*
X115766460Y-125978642D01*
X116086000Y-126042724D01*
X117594000Y-126042724D01*
X117903918Y-125982592D01*
X118176307Y-125803662D01*
X118358642Y-125533540D01*
X118422724Y-125214000D01*
X118422724Y-123706000D01*
X118362592Y-123396082D01*
X118360698Y-123393200D01*
X124544168Y-123393200D01*
X127203200Y-120734168D01*
X127203200Y-105960832D01*
X124663200Y-103420832D01*
X124663200Y-98856800D01*
X124511029Y-98856800D01*
X124511029Y-93083429D01*
X124310373Y-92597804D01*
X123939150Y-92225933D01*
X123533080Y-92057318D01*
X123533080Y-88580602D01*
X123288063Y-87987615D01*
X122930845Y-87629774D01*
X123286468Y-87274771D01*
X123532520Y-86682213D01*
X123533080Y-86040602D01*
X123288063Y-85447615D01*
X122834771Y-84993532D01*
X122242213Y-84747480D01*
X121600602Y-84746920D01*
X121007615Y-84991937D01*
X120649774Y-85349154D01*
X120490852Y-85189955D01*
X120963976Y-84994465D01*
X121586989Y-84372538D01*
X121924578Y-83559535D01*
X121925346Y-82679229D01*
X121589177Y-81865638D01*
X120967250Y-81242625D01*
X120549253Y-81069057D01*
X120549253Y-79523789D01*
X119473043Y-78554765D01*
X118504018Y-79630975D01*
X118688238Y-79857695D01*
X119409600Y-80017447D01*
X120137187Y-79888986D01*
X120389741Y-79768523D01*
X120549253Y-79523789D01*
X120549253Y-81069057D01*
X120154247Y-80905036D01*
X119273941Y-80904268D01*
X118535438Y-81209411D01*
X118612119Y-80978952D01*
X118563606Y-80301520D01*
X118299392Y-79747586D01*
X118046639Y-79623918D01*
X117895632Y-79791628D01*
X117895632Y-79487951D01*
X117746222Y-79249509D01*
X117101791Y-79035088D01*
X116424359Y-79083601D01*
X115870425Y-79347815D01*
X115746757Y-79600568D01*
X116877503Y-80618697D01*
X117895632Y-79487951D01*
X117895632Y-79791628D01*
X117028510Y-80754664D01*
X118037176Y-81662872D01*
X117983239Y-81716713D01*
X117042851Y-80776325D01*
X116903573Y-80915602D01*
X116892543Y-80905671D01*
X116741536Y-81073381D01*
X116741536Y-80769704D01*
X115610790Y-79751575D01*
X115372348Y-79900985D01*
X115157927Y-80545416D01*
X115206440Y-81222848D01*
X115470654Y-81776782D01*
X115723407Y-81900450D01*
X116741536Y-80769704D01*
X116741536Y-81073381D01*
X115874414Y-82036417D01*
X116023824Y-82274859D01*
X116668255Y-82489280D01*
X117345687Y-82440767D01*
X117659270Y-82291194D01*
X117499748Y-82675367D01*
X117498980Y-83555673D01*
X117835149Y-84369264D01*
X118457076Y-84992277D01*
X118464278Y-84995267D01*
X118013532Y-85445229D01*
X117767480Y-86037787D01*
X117766920Y-86679398D01*
X118011937Y-87272385D01*
X118369154Y-87630225D01*
X118013532Y-87985229D01*
X117767480Y-88577787D01*
X117766920Y-89219398D01*
X118011937Y-89812385D01*
X118465229Y-90266468D01*
X119057787Y-90512520D01*
X119699398Y-90513080D01*
X120292385Y-90268063D01*
X120650225Y-89910845D01*
X121005229Y-90266468D01*
X121597787Y-90512520D01*
X122239398Y-90513080D01*
X122832385Y-90268063D01*
X123286468Y-89814771D01*
X123532520Y-89222213D01*
X123533080Y-88580602D01*
X123533080Y-92057318D01*
X123453876Y-92024430D01*
X122928429Y-92023971D01*
X122442804Y-92224627D01*
X122070933Y-92595850D01*
X121869430Y-93081124D01*
X121868971Y-93606571D01*
X122069627Y-94092196D01*
X122440850Y-94464067D01*
X122926124Y-94665570D01*
X123451571Y-94666029D01*
X123937196Y-94465373D01*
X124309067Y-94094150D01*
X124510570Y-93608876D01*
X124511029Y-93083429D01*
X124511029Y-98856800D01*
X122986800Y-98856800D01*
X122986800Y-104859168D01*
X124891800Y-106764168D01*
X124891800Y-119930832D01*
X124511029Y-120311603D01*
X124511029Y-108958429D01*
X124310373Y-108472804D01*
X123939150Y-108100933D01*
X123453876Y-107899430D01*
X122928429Y-107898971D01*
X122607115Y-108031735D01*
X122607115Y-99052429D01*
X122406459Y-98566804D01*
X122035236Y-98194933D01*
X121549962Y-97993430D01*
X121024515Y-97992971D01*
X120982548Y-98010311D01*
X120982548Y-95377801D01*
X120982548Y-94107801D01*
X120957806Y-93727808D01*
X120859991Y-93491662D01*
X120691872Y-93446812D01*
X120548188Y-93590496D01*
X120548188Y-93303128D01*
X120503338Y-93135009D01*
X120142801Y-93012452D01*
X119762808Y-93037194D01*
X119526662Y-93135009D01*
X119481812Y-93303128D01*
X120015000Y-93836316D01*
X120548188Y-93303128D01*
X120548188Y-93590496D01*
X120158684Y-93980000D01*
X120691872Y-94513188D01*
X120859991Y-94468338D01*
X120982548Y-94107801D01*
X120982548Y-95377801D01*
X120957806Y-94997808D01*
X120859991Y-94761662D01*
X120691872Y-94716812D01*
X120548188Y-94860496D01*
X120548188Y-94656872D01*
X120506316Y-94615000D01*
X120548188Y-94573128D01*
X120503338Y-94405009D01*
X120189715Y-94298399D01*
X120015000Y-94123684D01*
X120000857Y-94137826D01*
X119857173Y-93994142D01*
X119871316Y-93980000D01*
X119692589Y-93801273D01*
X119687806Y-93727808D01*
X119589991Y-93491662D01*
X119421872Y-93446812D01*
X119380000Y-93488684D01*
X119338128Y-93446812D01*
X119278188Y-93462802D01*
X119278188Y-93303128D01*
X119233338Y-93135009D01*
X118872801Y-93012452D01*
X118492808Y-93037194D01*
X118256662Y-93135009D01*
X118211812Y-93303128D01*
X118745000Y-93836316D01*
X119278188Y-93303128D01*
X119278188Y-93462802D01*
X119170009Y-93491662D01*
X119063399Y-93805284D01*
X118888684Y-93980000D01*
X118902826Y-93994142D01*
X118759142Y-94137826D01*
X118745000Y-94123684D01*
X118601316Y-94267367D01*
X118601316Y-93980000D01*
X118068128Y-93446812D01*
X117900009Y-93491662D01*
X117777452Y-93852199D01*
X117802194Y-94232192D01*
X117900009Y-94468338D01*
X118068128Y-94513188D01*
X118601316Y-93980000D01*
X118601316Y-94267367D01*
X118566273Y-94302410D01*
X118492808Y-94307194D01*
X118256662Y-94405009D01*
X118211812Y-94573128D01*
X118253684Y-94615000D01*
X118211812Y-94656872D01*
X118256662Y-94824991D01*
X118570284Y-94931600D01*
X118745000Y-95106316D01*
X118759142Y-95092173D01*
X118902826Y-95235857D01*
X118888684Y-95250000D01*
X119067410Y-95428726D01*
X119072194Y-95502192D01*
X119170009Y-95738338D01*
X119338128Y-95783188D01*
X119380000Y-95741316D01*
X119421872Y-95783188D01*
X119589991Y-95738338D01*
X119696600Y-95424715D01*
X119871316Y-95250000D01*
X119857173Y-95235857D01*
X120000857Y-95092173D01*
X120015000Y-95106316D01*
X120193726Y-94927589D01*
X120267192Y-94922806D01*
X120503338Y-94824991D01*
X120548188Y-94656872D01*
X120548188Y-94860496D01*
X120158684Y-95250000D01*
X120691872Y-95783188D01*
X120859991Y-95738338D01*
X120982548Y-95377801D01*
X120982548Y-98010311D01*
X120650221Y-98147625D01*
X120548188Y-98105257D01*
X120548188Y-95926872D01*
X120015000Y-95393684D01*
X119481812Y-95926872D01*
X119526662Y-96094991D01*
X119887199Y-96217548D01*
X120267192Y-96192806D01*
X120503338Y-96094991D01*
X120548188Y-95926872D01*
X120548188Y-98105257D01*
X120278876Y-97993430D01*
X119753429Y-97992971D01*
X119379679Y-98147400D01*
X119278188Y-98105257D01*
X119278188Y-95926872D01*
X118745000Y-95393684D01*
X118601316Y-95537368D01*
X118601316Y-95250000D01*
X118068128Y-94716812D01*
X117900009Y-94761662D01*
X117777452Y-95122199D01*
X117802194Y-95502192D01*
X117900009Y-95738338D01*
X118068128Y-95783188D01*
X118601316Y-95250000D01*
X118601316Y-95537368D01*
X118211812Y-95926872D01*
X118256662Y-96094991D01*
X118617199Y-96217548D01*
X118997192Y-96192806D01*
X119233338Y-96094991D01*
X119278188Y-95926872D01*
X119278188Y-98105257D01*
X119008876Y-97993430D01*
X118483429Y-97992971D01*
X117997804Y-98193627D01*
X117653029Y-98537801D01*
X117653029Y-97147435D01*
X117551202Y-96900996D01*
X117652570Y-96656876D01*
X117653029Y-96131429D01*
X117526029Y-95824065D01*
X117526029Y-90924429D01*
X117424203Y-90677993D01*
X117525570Y-90433876D01*
X117526029Y-89908429D01*
X117325373Y-89422804D01*
X116954150Y-89050933D01*
X116468876Y-88849430D01*
X115943429Y-88848971D01*
X115457804Y-89049627D01*
X115085933Y-89420850D01*
X114884430Y-89906124D01*
X114883971Y-90431571D01*
X114985796Y-90678006D01*
X114884430Y-90922124D01*
X114883971Y-91447571D01*
X115084627Y-91933196D01*
X115455850Y-92305067D01*
X115941124Y-92506570D01*
X116466571Y-92507029D01*
X116952196Y-92306373D01*
X117324067Y-91935150D01*
X117525570Y-91449876D01*
X117526029Y-90924429D01*
X117526029Y-95824065D01*
X117452373Y-95645804D01*
X117081150Y-95273933D01*
X116595876Y-95072430D01*
X116070429Y-95071971D01*
X115584804Y-95272627D01*
X115212933Y-95643850D01*
X115011430Y-96129124D01*
X115010971Y-96654571D01*
X115112797Y-96901009D01*
X115011430Y-97145130D01*
X115010971Y-97670577D01*
X115211627Y-98156202D01*
X115582850Y-98528073D01*
X116068124Y-98729576D01*
X116593571Y-98730035D01*
X117079196Y-98529379D01*
X117451067Y-98158156D01*
X117652570Y-97672882D01*
X117653029Y-97147435D01*
X117653029Y-98537801D01*
X117625933Y-98564850D01*
X117424430Y-99050124D01*
X117423971Y-99575571D01*
X117624627Y-100061196D01*
X117995850Y-100433067D01*
X118481124Y-100634570D01*
X119006571Y-100635029D01*
X119380320Y-100480599D01*
X119751124Y-100634570D01*
X120276571Y-100635029D01*
X120650864Y-100480374D01*
X121022210Y-100634570D01*
X121547657Y-100635029D01*
X122033282Y-100434373D01*
X122405153Y-100063150D01*
X122606656Y-99577876D01*
X122607115Y-99052429D01*
X122607115Y-108031735D01*
X122442804Y-108099627D01*
X122070933Y-108470850D01*
X121869430Y-108956124D01*
X121868971Y-109481571D01*
X122069627Y-109967196D01*
X122440850Y-110339067D01*
X122926124Y-110540570D01*
X123451571Y-110541029D01*
X123937196Y-110340373D01*
X124309067Y-109969150D01*
X124510570Y-109483876D01*
X124511029Y-108958429D01*
X124511029Y-120311603D01*
X123105832Y-121716800D01*
X122665356Y-121716800D01*
X122665356Y-115562429D01*
X122464700Y-115076804D01*
X122093477Y-114704933D01*
X121608203Y-114503430D01*
X121082756Y-114502971D01*
X120982548Y-114544375D01*
X120982548Y-111887801D01*
X120982548Y-110617801D01*
X120957806Y-110237808D01*
X120859991Y-110001662D01*
X120691872Y-109956812D01*
X120548188Y-110100496D01*
X120548188Y-109813128D01*
X120503338Y-109645009D01*
X120142801Y-109522452D01*
X119762808Y-109547194D01*
X119526662Y-109645009D01*
X119481812Y-109813128D01*
X120015000Y-110346316D01*
X120548188Y-109813128D01*
X120548188Y-110100496D01*
X120158684Y-110490000D01*
X120691872Y-111023188D01*
X120859991Y-110978338D01*
X120982548Y-110617801D01*
X120982548Y-111887801D01*
X120957806Y-111507808D01*
X120859991Y-111271662D01*
X120691872Y-111226812D01*
X120548188Y-111370496D01*
X120548188Y-111166872D01*
X120506316Y-111125000D01*
X120548188Y-111083128D01*
X120503338Y-110915009D01*
X120189715Y-110808399D01*
X120015000Y-110633684D01*
X120000857Y-110647826D01*
X119857173Y-110504142D01*
X119871316Y-110490000D01*
X119692589Y-110311273D01*
X119687806Y-110237808D01*
X119589991Y-110001662D01*
X119421872Y-109956812D01*
X119380000Y-109998684D01*
X119338128Y-109956812D01*
X119278188Y-109972802D01*
X119278188Y-109813128D01*
X119233338Y-109645009D01*
X118872801Y-109522452D01*
X118492808Y-109547194D01*
X118256662Y-109645009D01*
X118211812Y-109813128D01*
X118745000Y-110346316D01*
X119278188Y-109813128D01*
X119278188Y-109972802D01*
X119170009Y-110001662D01*
X119063399Y-110315284D01*
X118888684Y-110490000D01*
X118902826Y-110504142D01*
X118759142Y-110647826D01*
X118745000Y-110633684D01*
X118601316Y-110777367D01*
X118601316Y-110490000D01*
X118068128Y-109956812D01*
X117900009Y-110001662D01*
X117777452Y-110362199D01*
X117802194Y-110742192D01*
X117900009Y-110978338D01*
X118068128Y-111023188D01*
X118601316Y-110490000D01*
X118601316Y-110777367D01*
X118566273Y-110812410D01*
X118492808Y-110817194D01*
X118256662Y-110915009D01*
X118211812Y-111083128D01*
X118253684Y-111125000D01*
X118211812Y-111166872D01*
X118256662Y-111334991D01*
X118570284Y-111441600D01*
X118745000Y-111616316D01*
X118759142Y-111602173D01*
X118902826Y-111745857D01*
X118888684Y-111760000D01*
X119067410Y-111938726D01*
X119072194Y-112012192D01*
X119170009Y-112248338D01*
X119338128Y-112293188D01*
X119380000Y-112251316D01*
X119421872Y-112293188D01*
X119589991Y-112248338D01*
X119696600Y-111934715D01*
X119871316Y-111760000D01*
X119857173Y-111745857D01*
X120000857Y-111602173D01*
X120015000Y-111616316D01*
X120193726Y-111437589D01*
X120267192Y-111432806D01*
X120503338Y-111334991D01*
X120548188Y-111166872D01*
X120548188Y-111370496D01*
X120158684Y-111760000D01*
X120691872Y-112293188D01*
X120859991Y-112248338D01*
X120982548Y-111887801D01*
X120982548Y-114544375D01*
X120679270Y-114669687D01*
X120548188Y-114615257D01*
X120548188Y-112436872D01*
X120015000Y-111903684D01*
X119481812Y-112436872D01*
X119526662Y-112604991D01*
X119887199Y-112727548D01*
X120267192Y-112702806D01*
X120503338Y-112604991D01*
X120548188Y-112436872D01*
X120548188Y-114615257D01*
X120278876Y-114503430D01*
X119753429Y-114502971D01*
X119379679Y-114657400D01*
X119278188Y-114615257D01*
X119278188Y-112436872D01*
X118745000Y-111903684D01*
X118601316Y-112047368D01*
X118601316Y-111760000D01*
X118068128Y-111226812D01*
X117900009Y-111271662D01*
X117777452Y-111632199D01*
X117802194Y-112012192D01*
X117900009Y-112248338D01*
X118068128Y-112293188D01*
X118601316Y-111760000D01*
X118601316Y-112047368D01*
X118211812Y-112436872D01*
X118256662Y-112604991D01*
X118617199Y-112727548D01*
X118997192Y-112702806D01*
X119233338Y-112604991D01*
X119278188Y-112436872D01*
X119278188Y-114615257D01*
X119008876Y-114503430D01*
X118483429Y-114502971D01*
X117997804Y-114703627D01*
X117653029Y-115047801D01*
X117653029Y-113530429D01*
X117551203Y-113283993D01*
X117652570Y-113039876D01*
X117653029Y-112514429D01*
X117526029Y-112207065D01*
X117526029Y-107434429D01*
X117424199Y-107187982D01*
X117525570Y-106943854D01*
X117526029Y-106418407D01*
X117325373Y-105932782D01*
X116954150Y-105560911D01*
X116468876Y-105359408D01*
X115943429Y-105358949D01*
X115457804Y-105559605D01*
X115085933Y-105930828D01*
X114884430Y-106416102D01*
X114883971Y-106941549D01*
X114985800Y-107187995D01*
X114884430Y-107432124D01*
X114883971Y-107957571D01*
X115084627Y-108443196D01*
X115455850Y-108815067D01*
X115941124Y-109016570D01*
X116466571Y-109017029D01*
X116952196Y-108816373D01*
X117324067Y-108445150D01*
X117525570Y-107959876D01*
X117526029Y-107434429D01*
X117526029Y-112207065D01*
X117452373Y-112028804D01*
X117081150Y-111656933D01*
X116595876Y-111455430D01*
X116070429Y-111454971D01*
X115584804Y-111655627D01*
X115212933Y-112026850D01*
X115011430Y-112512124D01*
X115010971Y-113037571D01*
X115112796Y-113284006D01*
X115011430Y-113528124D01*
X115010971Y-114053571D01*
X115211627Y-114539196D01*
X115582850Y-114911067D01*
X116068124Y-115112570D01*
X116593571Y-115113029D01*
X117079196Y-114912373D01*
X117451067Y-114541150D01*
X117652570Y-114055876D01*
X117653029Y-113530429D01*
X117653029Y-115047801D01*
X117625933Y-115074850D01*
X117424430Y-115560124D01*
X117423971Y-116085571D01*
X117624627Y-116571196D01*
X117995850Y-116943067D01*
X118481124Y-117144570D01*
X119006571Y-117145029D01*
X119380320Y-116990599D01*
X119751124Y-117144570D01*
X120276571Y-117145029D01*
X120680056Y-116978312D01*
X121080451Y-117144570D01*
X121605898Y-117145029D01*
X122091523Y-116944373D01*
X122463394Y-116573150D01*
X122664897Y-116087876D01*
X122665356Y-115562429D01*
X122665356Y-121716800D01*
X113081029Y-121716800D01*
X113081029Y-118483429D01*
X112880373Y-117997804D01*
X112675394Y-117792467D01*
X112879067Y-117589150D01*
X113080570Y-117103876D01*
X113081029Y-116578429D01*
X113081029Y-108958429D01*
X112880373Y-108472804D01*
X112675394Y-108267467D01*
X112879067Y-108064150D01*
X113080570Y-107578876D01*
X113081029Y-107053429D01*
X113081029Y-101973429D01*
X112880373Y-101487804D01*
X112675394Y-101282467D01*
X112879067Y-101079150D01*
X113080570Y-100593876D01*
X113081029Y-100068429D01*
X113081029Y-92448429D01*
X112880373Y-91962804D01*
X112675394Y-91757467D01*
X112879067Y-91554150D01*
X113080570Y-91068876D01*
X113081029Y-90543429D01*
X112880373Y-90057804D01*
X112509150Y-89685933D01*
X112023876Y-89484430D01*
X111498429Y-89483971D01*
X111012804Y-89684627D01*
X110640933Y-90055850D01*
X110489877Y-90419632D01*
X110340373Y-90057804D01*
X109969150Y-89685933D01*
X109483876Y-89484430D01*
X108958429Y-89483971D01*
X108472804Y-89684627D01*
X108100933Y-90055850D01*
X107899430Y-90541124D01*
X107898971Y-91066571D01*
X108099627Y-91552196D01*
X108304611Y-91757538D01*
X108100933Y-91960862D01*
X107899430Y-92446136D01*
X107898971Y-92971583D01*
X108099627Y-93457208D01*
X108304599Y-93662538D01*
X108100933Y-93865850D01*
X107899430Y-94351124D01*
X107898971Y-94876571D01*
X108099627Y-95362196D01*
X108470850Y-95734067D01*
X108956124Y-95935570D01*
X109481571Y-95936029D01*
X109967196Y-95735373D01*
X110339067Y-95364150D01*
X110540570Y-94878876D01*
X110541029Y-94353429D01*
X110340373Y-93867804D01*
X110135400Y-93662473D01*
X110339067Y-93459162D01*
X110490125Y-93095373D01*
X110639627Y-93457196D01*
X111010850Y-93829067D01*
X111496124Y-94030570D01*
X112021571Y-94031029D01*
X112507196Y-93830373D01*
X112879067Y-93459150D01*
X113080570Y-92973876D01*
X113081029Y-92448429D01*
X113081029Y-100068429D01*
X112880373Y-99582804D01*
X112509150Y-99210933D01*
X112023876Y-99009430D01*
X111498429Y-99008971D01*
X111012804Y-99209627D01*
X110640933Y-99580850D01*
X110489886Y-99944611D01*
X110340391Y-99582804D01*
X110135403Y-99377458D01*
X110339067Y-99174150D01*
X110540570Y-98688876D01*
X110541029Y-98163429D01*
X110340373Y-97677804D01*
X109969150Y-97305933D01*
X109483876Y-97104430D01*
X108958429Y-97103971D01*
X108472804Y-97304627D01*
X108100933Y-97675850D01*
X107899430Y-98161124D01*
X107898971Y-98686571D01*
X108099627Y-99172196D01*
X108304614Y-99377541D01*
X108100951Y-99580850D01*
X107899448Y-100066124D01*
X107898989Y-100591571D01*
X108099645Y-101077196D01*
X108304614Y-101282523D01*
X108100933Y-101485850D01*
X107899430Y-101971124D01*
X107898971Y-102496571D01*
X108099627Y-102982196D01*
X108470850Y-103354067D01*
X108956124Y-103555570D01*
X109481571Y-103556029D01*
X109967196Y-103355373D01*
X110339067Y-102984150D01*
X110490122Y-102620367D01*
X110639627Y-102982196D01*
X111010850Y-103354067D01*
X111496124Y-103555570D01*
X112021571Y-103556029D01*
X112507196Y-103355373D01*
X112879067Y-102984150D01*
X113080570Y-102498876D01*
X113081029Y-101973429D01*
X113081029Y-107053429D01*
X112880373Y-106567804D01*
X112509150Y-106195933D01*
X112023876Y-105994430D01*
X111498429Y-105993971D01*
X111012804Y-106194627D01*
X110640933Y-106565850D01*
X110489877Y-106929632D01*
X110340373Y-106567804D01*
X109969150Y-106195933D01*
X109483876Y-105994430D01*
X108958429Y-105993971D01*
X108472804Y-106194627D01*
X108100933Y-106565850D01*
X107899430Y-107051124D01*
X107898971Y-107576571D01*
X108099627Y-108062196D01*
X108304605Y-108267532D01*
X108100933Y-108470850D01*
X107899430Y-108956124D01*
X107898971Y-109481571D01*
X108099627Y-109967196D01*
X108304605Y-110172532D01*
X108100933Y-110375850D01*
X107899430Y-110861124D01*
X107898971Y-111386571D01*
X108099627Y-111872196D01*
X108470850Y-112244067D01*
X108956124Y-112445570D01*
X109481571Y-112446029D01*
X109967196Y-112245373D01*
X110339067Y-111874150D01*
X110540570Y-111388876D01*
X110541029Y-110863429D01*
X110340373Y-110377804D01*
X110135394Y-110172467D01*
X110339067Y-109969150D01*
X110490122Y-109605367D01*
X110639627Y-109967196D01*
X111010850Y-110339067D01*
X111496124Y-110540570D01*
X112021571Y-110541029D01*
X112507196Y-110340373D01*
X112879067Y-109969150D01*
X113080570Y-109483876D01*
X113081029Y-108958429D01*
X113081029Y-116578429D01*
X112880373Y-116092804D01*
X112509150Y-115720933D01*
X112023876Y-115519430D01*
X111498429Y-115518971D01*
X111012804Y-115719627D01*
X110640933Y-116090850D01*
X110489876Y-116454634D01*
X110340373Y-116092808D01*
X110135387Y-115887464D01*
X110339067Y-115684140D01*
X110540570Y-115198866D01*
X110541029Y-114673419D01*
X110340373Y-114187794D01*
X109969150Y-113815923D01*
X109483876Y-113614420D01*
X108958429Y-113613961D01*
X108472804Y-113814617D01*
X108100933Y-114185840D01*
X107899430Y-114671114D01*
X107898971Y-115196561D01*
X108099627Y-115682186D01*
X108304612Y-115887529D01*
X108100933Y-116090854D01*
X107899430Y-116576128D01*
X107898971Y-117101575D01*
X108099627Y-117587200D01*
X108304608Y-117792539D01*
X108100933Y-117995860D01*
X107899430Y-118481134D01*
X107898971Y-119006581D01*
X108099627Y-119492206D01*
X108470850Y-119864077D01*
X108956124Y-120065580D01*
X109481571Y-120066039D01*
X109967196Y-119865383D01*
X110339067Y-119494160D01*
X110490124Y-119130372D01*
X110639627Y-119492196D01*
X111010850Y-119864067D01*
X111496124Y-120065570D01*
X112021571Y-120066029D01*
X112507196Y-119865373D01*
X112879067Y-119494150D01*
X113080570Y-119008876D01*
X113081029Y-118483429D01*
X113081029Y-121716800D01*
X112310832Y-121716800D01*
X109135832Y-124891800D01*
X102487800Y-124891800D01*
X102487800Y-124772724D01*
X103624000Y-124772724D01*
X103933918Y-124712592D01*
X104206307Y-124533662D01*
X104388642Y-124263540D01*
X104452724Y-123944000D01*
X104452724Y-122436000D01*
X104392592Y-122126082D01*
X104213662Y-121853693D01*
X103943540Y-121671358D01*
X103624000Y-121607276D01*
X102487800Y-121607276D01*
X102487800Y-87942724D01*
X103624000Y-87942724D01*
X103933918Y-87882592D01*
X104206307Y-87703662D01*
X104388642Y-87433540D01*
X104452724Y-87114000D01*
X104452724Y-85606000D01*
X104392592Y-85296082D01*
X104213662Y-85023693D01*
X103943540Y-84841358D01*
X103624000Y-84777276D01*
X102487800Y-84777276D01*
X102487800Y-78262124D01*
X117692494Y-77473124D01*
X117557339Y-78083420D01*
X117685800Y-78811007D01*
X117806263Y-79063561D01*
X118050997Y-79223073D01*
X119020021Y-78146863D01*
X118240194Y-77444703D01*
X118334912Y-77439787D01*
X119005287Y-78110162D01*
X119424600Y-77690848D01*
X119427923Y-77693841D01*
X119721458Y-77367837D01*
X119778873Y-77364857D01*
X119464624Y-77679107D01*
X119883937Y-78098420D01*
X119880945Y-78101743D01*
X120957155Y-79070768D01*
X121183875Y-78886548D01*
X121343627Y-78165186D01*
X121215166Y-77437599D01*
X121146616Y-77293883D01*
X125118017Y-77087800D01*
X126796800Y-77087800D01*
X126796800Y-84747021D01*
X126680602Y-84746920D01*
X126087615Y-84991937D01*
X125633532Y-85445229D01*
X125387480Y-86037787D01*
X125386920Y-86679398D01*
X125631937Y-87272385D01*
X125989154Y-87630225D01*
X125633532Y-87985229D01*
X125387480Y-88577787D01*
X125386920Y-89219398D01*
X125631937Y-89812385D01*
X126085229Y-90266468D01*
X126677787Y-90512520D01*
X127319398Y-90513080D01*
X127912385Y-90268063D01*
X128050447Y-90130241D01*
X128150338Y-90282307D01*
X128420460Y-90464642D01*
X128740000Y-90528724D01*
X130340000Y-90528724D01*
X130649918Y-90468592D01*
X130922307Y-90289662D01*
X131104642Y-90019540D01*
X131168724Y-89700000D01*
X131168724Y-88100000D01*
X131116957Y-87833200D01*
X134922013Y-87833200D01*
X134918258Y-87836949D01*
X134687463Y-88392765D01*
X134686937Y-88994594D01*
X134916762Y-89550813D01*
X135341949Y-89976742D01*
X135897765Y-90207537D01*
X136499594Y-90208063D01*
X137055813Y-89978238D01*
X137481742Y-89553051D01*
X137712537Y-88997235D01*
X137713063Y-88395406D01*
X137483238Y-87839187D01*
X137477261Y-87833200D01*
X141922013Y-87833200D01*
X141918258Y-87836949D01*
X141687463Y-88392765D01*
X141686937Y-88994594D01*
X141916762Y-89550813D01*
X142341949Y-89976742D01*
X142897765Y-90207537D01*
X143499594Y-90208063D01*
X144055813Y-89978238D01*
X144481742Y-89553051D01*
X144712537Y-88997235D01*
X144713063Y-88395406D01*
X144483238Y-87839187D01*
X144477261Y-87833200D01*
X154131287Y-87833200D01*
X155230505Y-88289635D01*
X156978626Y-88291161D01*
X158086974Y-87833200D01*
X160104168Y-87833200D01*
X161493200Y-86444168D01*
X161493200Y-85174168D01*
X162644168Y-84023200D01*
X164841311Y-84023200D01*
X164499913Y-84364004D01*
X164253861Y-84956562D01*
X164253301Y-85598173D01*
X164498318Y-86191160D01*
X164951610Y-86645243D01*
X165544168Y-86891295D01*
X166185779Y-86891855D01*
X166773680Y-86648939D01*
X166943999Y-86819555D01*
X167536557Y-87065607D01*
X168178168Y-87066167D01*
X168771155Y-86821150D01*
X168995251Y-86597443D01*
X169434486Y-87037444D01*
X170027044Y-87283496D01*
X170668655Y-87284056D01*
X171222743Y-87055111D01*
X171365832Y-87198200D01*
X174372200Y-87198200D01*
X174372200Y-119994888D01*
X174055000Y-119931276D01*
X172655000Y-119931276D01*
X172345082Y-119991408D01*
X172072693Y-120170338D01*
X171890358Y-120440460D01*
X171826276Y-120760000D01*
X171826276Y-122160000D01*
X171886408Y-122469918D01*
X172034481Y-122695333D01*
X171842463Y-123157765D01*
X171841937Y-123759594D01*
X172071762Y-124315813D01*
X172215576Y-124459878D01*
X172073258Y-124601949D01*
X171842463Y-125157765D01*
X171841937Y-125759594D01*
X172071762Y-126315813D01*
X172496949Y-126741742D01*
X173052765Y-126972537D01*
X173654594Y-126973063D01*
X174210813Y-126743238D01*
X174372200Y-126582132D01*
X174372200Y-132078562D01*
X174253876Y-132029430D01*
X173728429Y-132028971D01*
X173242804Y-132229627D01*
X172870933Y-132600850D01*
X172771029Y-132841445D01*
X172771029Y-131183429D01*
X172570373Y-130697804D01*
X172199150Y-130325933D01*
X172135691Y-130299582D01*
X172136029Y-129913429D01*
X171935373Y-129427804D01*
X171564150Y-129055933D01*
X171501029Y-129029722D01*
X171501029Y-96258429D01*
X171300373Y-95772804D01*
X170929150Y-95400933D01*
X170443876Y-95199430D01*
X169918429Y-95198971D01*
X169544679Y-95353400D01*
X169173876Y-95199430D01*
X168827590Y-95199127D01*
X168960570Y-94878876D01*
X168961029Y-94353429D01*
X168760373Y-93867804D01*
X168616147Y-93723326D01*
X169034646Y-93723692D01*
X169459320Y-93548220D01*
X169880799Y-93723233D01*
X170406246Y-93723692D01*
X170891871Y-93523036D01*
X171263742Y-93151813D01*
X171465245Y-92666539D01*
X171465704Y-92141092D01*
X171265048Y-91655467D01*
X170893825Y-91283596D01*
X170408551Y-91082093D01*
X169883104Y-91081634D01*
X169458429Y-91257105D01*
X169036951Y-91082093D01*
X168511504Y-91081634D01*
X168025879Y-91282290D01*
X167654008Y-91653513D01*
X167452505Y-92138787D01*
X167452046Y-92664234D01*
X167652702Y-93149859D01*
X167796927Y-93294336D01*
X167378429Y-93293971D01*
X167004679Y-93448400D01*
X166633876Y-93294430D01*
X166108429Y-93293971D01*
X165622804Y-93494627D01*
X165250933Y-93865850D01*
X165049430Y-94351124D01*
X165048971Y-94876571D01*
X165249627Y-95362196D01*
X165620850Y-95734067D01*
X166106124Y-95935570D01*
X166631571Y-95936029D01*
X167005320Y-95781599D01*
X167376124Y-95935570D01*
X167722409Y-95935872D01*
X167589430Y-96256124D01*
X167588971Y-96781571D01*
X167789627Y-97267196D01*
X168160850Y-97639067D01*
X168646124Y-97840570D01*
X169171571Y-97841029D01*
X169545320Y-97686599D01*
X169916124Y-97840570D01*
X170441571Y-97841029D01*
X170927196Y-97640373D01*
X171299067Y-97269150D01*
X171500570Y-96783876D01*
X171501029Y-96258429D01*
X171501029Y-129029722D01*
X171122352Y-128872482D01*
X171122352Y-121508362D01*
X170921696Y-121022737D01*
X170550473Y-120650866D01*
X170126107Y-120474654D01*
X169951830Y-120052871D01*
X169580607Y-119681000D01*
X169350796Y-119585574D01*
X169657196Y-119458973D01*
X170029067Y-119087750D01*
X170230570Y-118602476D01*
X170231029Y-118077029D01*
X170030373Y-117591404D01*
X169659150Y-117219533D01*
X169173876Y-117018030D01*
X168960844Y-117017843D01*
X168961029Y-116807029D01*
X168760373Y-116321404D01*
X168389150Y-115949533D01*
X167903876Y-115748030D01*
X167378429Y-115747571D01*
X166892804Y-115948227D01*
X166520933Y-116319450D01*
X166325892Y-116789160D01*
X166108429Y-116788971D01*
X165622804Y-116989627D01*
X165250933Y-117360850D01*
X165049430Y-117846124D01*
X165048971Y-118371571D01*
X165249627Y-118857196D01*
X165620850Y-119229067D01*
X166106124Y-119430570D01*
X166631571Y-119431029D01*
X167117196Y-119230373D01*
X167489067Y-118859150D01*
X167592778Y-118609385D01*
X167789627Y-119085796D01*
X168160850Y-119457667D01*
X168390660Y-119553092D01*
X168084261Y-119679694D01*
X167712390Y-120050917D01*
X167510887Y-120536191D01*
X167510428Y-121061638D01*
X167711084Y-121547263D01*
X168082307Y-121919134D01*
X168506672Y-122095345D01*
X168680950Y-122517129D01*
X169052173Y-122889000D01*
X169537447Y-123090503D01*
X170062894Y-123090962D01*
X170548519Y-122890306D01*
X170920390Y-122519083D01*
X171121893Y-122033809D01*
X171122352Y-121508362D01*
X171122352Y-128872482D01*
X171078876Y-128854430D01*
X170553429Y-128853971D01*
X170067804Y-129054627D01*
X169695933Y-129425850D01*
X169494430Y-129911124D01*
X169493971Y-130436571D01*
X169694627Y-130922196D01*
X170065850Y-131294067D01*
X170129308Y-131320417D01*
X170128971Y-131706571D01*
X170329627Y-132192196D01*
X170700850Y-132564067D01*
X171186124Y-132765570D01*
X171711571Y-132766029D01*
X172197196Y-132565373D01*
X172569067Y-132194150D01*
X172770570Y-131708876D01*
X172771029Y-131183429D01*
X172771029Y-132841445D01*
X172669430Y-133086124D01*
X172668971Y-133611571D01*
X172823400Y-133985320D01*
X172669430Y-134356124D01*
X172668971Y-134881571D01*
X172869627Y-135367196D01*
X173240850Y-135739067D01*
X173726124Y-135940570D01*
X174251571Y-135941029D01*
X174372200Y-135891186D01*
X174372200Y-137744200D01*
X174109429Y-137743971D01*
X173623804Y-137944627D01*
X173251933Y-138315850D01*
X173050430Y-138801124D01*
X173049971Y-139326571D01*
X173073535Y-139383600D01*
X172870933Y-139585850D01*
X172669430Y-140071124D01*
X172668971Y-140596571D01*
X172869627Y-141082196D01*
X173073247Y-141286172D01*
X173050430Y-141341124D01*
X173049971Y-141866571D01*
X173073535Y-141923600D01*
X172870933Y-142125850D01*
X172669430Y-142611124D01*
X172668971Y-143136571D01*
X172869627Y-143622196D01*
X173073247Y-143826172D01*
X173050430Y-143881124D01*
X173049971Y-144406571D01*
X173073535Y-144463600D01*
X172870933Y-144665850D01*
X172669430Y-145151124D01*
X172668971Y-145676571D01*
X172869627Y-146162196D01*
X173073247Y-146366172D01*
X173050430Y-146421124D01*
X173049971Y-146946571D01*
X173073535Y-147003600D01*
X172870933Y-147205850D01*
X172669430Y-147691124D01*
X172668971Y-148216571D01*
X172869627Y-148702196D01*
X173240850Y-149074067D01*
X173726124Y-149275570D01*
X174251571Y-149276029D01*
X174372200Y-149226186D01*
X174372200Y-151512200D01*
D27*
X111125000Y-138430000D03*
X111125000Y-135890000D03*
X111125000Y-137160000D03*
X121180991Y-133309153D03*
X120904000Y-125984000D03*
X118122484Y-120625031D03*
X119380000Y-120650000D03*
X120650000Y-120650000D03*
X121920000Y-120650000D03*
X128905000Y-105410000D03*
X128905000Y-103505000D03*
X128905000Y-107315000D03*
X160655000Y-132715000D03*
X159385000Y-133985000D03*
X130175000Y-95885000D03*
X128270000Y-95885000D03*
X130175000Y-102235000D03*
X121285000Y-95250000D03*
X140970000Y-151130000D03*
X139700000Y-151130000D03*
X138430000Y-151130000D03*
X132672150Y-149225000D03*
X132715000Y-151130000D03*
X133350000Y-147955000D03*
X134620000Y-147955000D03*
X145796000Y-151130000D03*
X137795000Y-130175000D03*
X142240000Y-126365000D03*
X146685000Y-116840000D03*
X160655000Y-121920000D03*
X147955000Y-130175000D03*
X142240000Y-130175000D03*
X160655000Y-125323600D03*
X146685000Y-90170000D03*
X134620000Y-90170000D03*
X117475000Y-93980000D03*
X117475000Y-95250000D03*
X121285000Y-93980000D03*
X112395000Y-98425000D03*
X112395000Y-97155000D03*
X112395000Y-95885000D03*
X112395000Y-94615000D03*
X111125000Y-95250000D03*
X111125000Y-96520000D03*
X111125000Y-97790000D03*
X118110000Y-104140000D03*
X119380000Y-104140000D03*
X120650000Y-104140000D03*
X121920000Y-104140000D03*
X112395000Y-111125000D03*
X112395000Y-112395000D03*
X112395000Y-113665000D03*
X112395000Y-114935000D03*
X111125000Y-111760000D03*
X111125000Y-113030000D03*
X111125000Y-114300000D03*
X117475000Y-110490000D03*
X117475000Y-111760000D03*
X121285000Y-110490000D03*
X121285000Y-111760000D03*
X133350000Y-90170000D03*
X145415008Y-90170000D03*
X164465000Y-139065000D03*
X163195000Y-139065000D03*
X161925000Y-139065000D03*
X139065000Y-134620000D03*
X142875000Y-134620000D03*
X169037000Y-107188000D03*
X168275000Y-109220000D03*
X168275000Y-107950000D03*
X164465000Y-86995000D03*
X163195000Y-86995000D03*
X161925000Y-86995000D03*
X157226000Y-108204000D03*
X139700000Y-128270000D03*
X139700000Y-116205000D03*
X123190000Y-81280000D03*
X124460000Y-80010000D03*
X124460000Y-81280000D03*
X123190000Y-80010000D03*
X124460000Y-78740000D03*
X123190000Y-77470000D03*
X124460000Y-77470000D03*
X123190000Y-78740000D03*
X125730000Y-147955000D03*
X125095000Y-150495000D03*
X134620000Y-141605000D03*
X134620000Y-144145000D03*
X134620000Y-142875000D03*
X133350000Y-141605000D03*
X133350000Y-144145000D03*
X133350000Y-142875000D03*
X116205000Y-142875000D03*
X116205000Y-144145000D03*
X117475000Y-144145000D03*
X118745000Y-144145000D03*
X120015000Y-144145000D03*
X120044614Y-135860386D03*
X121285000Y-134620000D03*
X113030000Y-127000000D03*
X113919000Y-126238000D03*
X111125000Y-129540000D03*
X119380000Y-124333000D03*
X120777000Y-124333000D03*
X122174000Y-124333000D03*
X154940000Y-93980000D03*
X153670000Y-91440000D03*
X153670000Y-93980000D03*
X153670000Y-92710000D03*
X111125000Y-132080000D03*
X111125000Y-130810000D03*
X135636000Y-102108000D03*
X133985000Y-95885090D03*
X130175000Y-82550000D03*
X130175000Y-83820000D03*
X130175000Y-81280000D03*
X129540000Y-80010000D03*
X129540000Y-78740000D03*
X129540000Y-77470000D03*
X139192000Y-94488000D03*
X135889992Y-104140000D03*
X137795000Y-104140000D03*
X140859619Y-94504631D03*
X155575000Y-106680024D03*
X153670000Y-107950000D03*
X154501419Y-109220000D03*
X145415000Y-105410000D03*
X144145000Y-105410000D03*
X157480000Y-103505000D03*
X130175000Y-132715000D03*
X131445000Y-132715000D03*
X156210000Y-103505000D03*
X123190000Y-93345000D03*
X164465000Y-140970000D03*
X163195000Y-140970000D03*
X161925000Y-140970000D03*
X157607000Y-110363000D03*
X109220000Y-98425000D03*
X109220018Y-100330000D03*
X109220000Y-102235000D03*
X111760000Y-100330000D03*
X111760000Y-102235000D03*
X153373617Y-110210490D03*
X156845000Y-112395000D03*
X154910448Y-112365448D03*
X129540000Y-117475000D03*
X130810000Y-116205000D03*
X130175000Y-118745000D03*
X174371000Y-144145000D03*
X129540000Y-120015000D03*
X173990000Y-145415000D03*
X174371000Y-146685000D03*
X130175000Y-121285000D03*
X129540000Y-122555000D03*
X173990000Y-147955000D03*
X145410847Y-134039953D03*
X144091184Y-133984875D03*
X160655000Y-128320800D03*
X160655000Y-126949200D03*
X170144675Y-92402663D03*
X158750000Y-124129513D03*
X169801323Y-121769933D03*
X168773075Y-92402663D03*
X158750000Y-122757913D03*
X168831457Y-120800067D03*
X140716000Y-103632034D03*
X132080000Y-95885000D03*
X150495000Y-107315000D03*
X166370000Y-118110000D03*
X174371000Y-139065000D03*
X171450000Y-131445000D03*
X151765000Y-106680000D03*
X167640000Y-117068600D03*
X170815000Y-130175000D03*
X173990000Y-140335000D03*
X118745000Y-99314000D03*
X120015000Y-115824000D03*
X118745000Y-115824000D03*
X120015000Y-99314000D03*
X121344327Y-115824000D03*
X121286086Y-99314000D03*
X138400454Y-149254546D03*
X138070740Y-146122990D03*
X144094187Y-151130000D03*
X142875000Y-151130000D03*
X159385000Y-93345000D03*
X159385000Y-94615026D03*
X123190000Y-109220000D03*
X123190000Y-109220000D03*
X173990000Y-133350000D03*
X173990000Y-134620000D03*
X113030000Y-125095000D03*
X111760000Y-125095000D03*
X118715454Y-139729546D03*
X118745000Y-140970000D03*
X109220000Y-114934990D03*
X109220000Y-116840004D03*
X109220000Y-118745010D03*
X111760000Y-118745000D03*
X111760000Y-116840000D03*
X129540000Y-143510000D03*
X147320000Y-151130000D03*
X113665000Y-128270000D03*
X144145000Y-140970000D03*
X115519197Y-128312802D03*
X116840000Y-128270000D03*
X146786602Y-140973776D03*
X115900190Y-131846050D03*
X145465794Y-140976892D03*
X116205000Y-106679978D03*
X116205000Y-107696000D03*
X109220000Y-107315000D03*
X109220000Y-109220000D03*
X109220000Y-111125000D03*
X111760000Y-107315000D03*
X111760000Y-109220000D03*
X116205000Y-90170000D03*
X116205000Y-91186000D03*
X109220000Y-90805000D03*
X109220000Y-92710012D03*
X109220000Y-94615000D03*
X111760000Y-90805000D03*
X111760000Y-92710000D03*
X116332000Y-112776000D03*
X116332000Y-113792000D03*
X116332000Y-97409006D03*
X116332000Y-96393000D03*
X146685000Y-96520000D03*
X145415000Y-95884992D03*
X147955010Y-95885000D03*
X149225000Y-96520000D03*
X167640000Y-94615000D03*
X166370000Y-94615000D03*
X168910000Y-96520000D03*
X170180000Y-96520000D03*
X173990000Y-142875000D03*
X167427800Y-129993510D03*
X174371000Y-141605000D03*
X167640000Y-128270000D03*
X164465000Y-142875000D03*
X167005000Y-131445000D03*
X132715000Y-130810000D03*
X117779810Y-132080000D03*
X119864933Y-133834933D03*
X118895067Y-132865067D03*
X122555000Y-132715000D03*
X114270454Y-135284546D03*
X160020000Y-120243600D03*
X168910000Y-118338600D03*
X136525000Y-131445000D03*
X119450483Y-78124303D03*
X119712163Y-83117451D03*
X116885023Y-80762184D03*
X136200000Y-88695000D03*
X143200000Y-88695000D03*
X170349257Y-85670976D03*
X167858770Y-85453087D03*
X165866381Y-85278775D03*
X163375894Y-85060886D03*
X173644638Y-83228895D03*
X160554640Y-82083668D03*
X173355000Y-121460000D03*
X173355000Y-123460000D03*
X173355000Y-125460000D03*
X173355000Y-127460000D03*
X129540000Y-88900000D03*
X129540000Y-86360000D03*
X127000000Y-88900000D03*
X127000000Y-86360000D03*
X124460000Y-88900000D03*
X124460000Y-86360000D03*
X121920000Y-88900000D03*
X121920000Y-86360000D03*
X119380000Y-88900000D03*
X119380000Y-86360000D03*
X102870000Y-86360000D03*
X102870000Y-123190000D03*
X133985000Y-146050000D03*
X118745000Y-110490000D03*
X118745000Y-111760000D03*
X120015000Y-110490000D03*
X120015000Y-111760000D03*
X118745000Y-93980000D03*
X118745000Y-95250000D03*
X120015000Y-93980000D03*
X120015000Y-95250000D03*
X162580000Y-100310000D03*
X162580000Y-135910000D03*
X126980000Y-135910000D03*
X126980000Y-100310000D03*
X156108400Y-146634200D03*
X156108400Y-144348200D03*
X154128666Y-145491200D03*
X154128666Y-147777200D03*
X156108400Y-148920200D03*
X158088134Y-147777200D03*
X158088134Y-145491200D03*
X110210600Y-146634200D03*
X110210600Y-144348200D03*
X108230866Y-145491200D03*
X108230866Y-147777200D03*
X110210600Y-148920200D03*
X112190334Y-147777200D03*
X112190334Y-145491200D03*
X156108400Y-83896200D03*
X156108400Y-81610200D03*
X154128666Y-82753200D03*
X154128666Y-85039200D03*
X156108400Y-86182200D03*
X158088134Y-85039200D03*
X158088134Y-82753200D03*
X110210600Y-83896200D03*
X110210600Y-81610200D03*
X108230866Y-82753200D03*
X108230866Y-85039200D03*
X110210600Y-86182200D03*
X112190334Y-85039200D03*
X112190334Y-82753200D03*
X116840000Y-124460000D03*
M02*
