G04 #@! TF.FileFunction,Legend,Bot*
%FSLAX46Y46*%
G04 Gerber Fmt 4.6, Leading zero omitted, Abs format (unit mm)*
G04 Created by KiCad (PCBNEW (2015-04-03 BZR 5570)-product) date Mon Apr  6 03:58:37 2015*
%MOMM*%
G01*
G04 APERTURE LIST*
%ADD10C,0.150000*%
%ADD11C,0.180000*%
%ADD12C,0.300000*%
G04 APERTURE END LIST*
D10*
D11*
X141145904Y-105526619D02*
X141145904Y-104426619D01*
X140883999Y-104426619D01*
X140726857Y-104479000D01*
X140622095Y-104583762D01*
X140569714Y-104688524D01*
X140517333Y-104898048D01*
X140517333Y-105055190D01*
X140569714Y-105264714D01*
X140622095Y-105369476D01*
X140726857Y-105474238D01*
X140883999Y-105526619D01*
X141145904Y-105526619D01*
X140045904Y-104950429D02*
X139679238Y-104950429D01*
X139522095Y-105526619D02*
X140045904Y-105526619D01*
X140045904Y-104426619D01*
X139522095Y-104426619D01*
X138684000Y-104950429D02*
X138526857Y-105002810D01*
X138474476Y-105055190D01*
X138422095Y-105159952D01*
X138422095Y-105317095D01*
X138474476Y-105421857D01*
X138526857Y-105474238D01*
X138631619Y-105526619D01*
X139050666Y-105526619D01*
X139050666Y-104426619D01*
X138684000Y-104426619D01*
X138579238Y-104479000D01*
X138526857Y-104531381D01*
X138474476Y-104636143D01*
X138474476Y-104740905D01*
X138526857Y-104845667D01*
X138579238Y-104898048D01*
X138684000Y-104950429D01*
X139050666Y-104950429D01*
X137950666Y-104426619D02*
X137950666Y-105317095D01*
X137898285Y-105421857D01*
X137845904Y-105474238D01*
X137741142Y-105526619D01*
X137531619Y-105526619D01*
X137426857Y-105474238D01*
X137374476Y-105421857D01*
X137322095Y-105317095D01*
X137322095Y-104426619D01*
X136222095Y-104479000D02*
X136326857Y-104426619D01*
X136484000Y-104426619D01*
X136641142Y-104479000D01*
X136745904Y-104583762D01*
X136798285Y-104688524D01*
X136850666Y-104898048D01*
X136850666Y-105055190D01*
X136798285Y-105264714D01*
X136745904Y-105369476D01*
X136641142Y-105474238D01*
X136484000Y-105526619D01*
X136379238Y-105526619D01*
X136222095Y-105474238D01*
X136169714Y-105421857D01*
X136169714Y-105055190D01*
X136379238Y-105055190D01*
X139602142Y-119187619D02*
X139235475Y-120287619D01*
X138868809Y-119187619D01*
X138135476Y-119711429D02*
X137978333Y-119763810D01*
X137925952Y-119816190D01*
X137873571Y-119920952D01*
X137873571Y-120078095D01*
X137925952Y-120182857D01*
X137978333Y-120235238D01*
X138083095Y-120287619D01*
X138502142Y-120287619D01*
X138502142Y-119187619D01*
X138135476Y-119187619D01*
X138030714Y-119240000D01*
X137978333Y-119292381D01*
X137925952Y-119397143D01*
X137925952Y-119501905D01*
X137978333Y-119606667D01*
X138030714Y-119659048D01*
X138135476Y-119711429D01*
X138502142Y-119711429D01*
X137454523Y-119973333D02*
X136930714Y-119973333D01*
X137559285Y-120287619D02*
X137192618Y-119187619D01*
X136825952Y-120287619D01*
X136616428Y-119187619D02*
X135987857Y-119187619D01*
X136302142Y-120287619D02*
X136302142Y-119187619D01*
X139733095Y-121588571D02*
X138895000Y-121588571D01*
X139314048Y-122007619D02*
X139314048Y-121169524D01*
X136695000Y-121588571D02*
X135856905Y-121588571D01*
X143630000Y-105930000D02*
X133230000Y-105930000D01*
X141930000Y-106730000D02*
X141930000Y-110830000D01*
X141930000Y-110830000D02*
X134930000Y-110830000D01*
X134930000Y-110830000D02*
X134930000Y-106730000D01*
X141930000Y-106730000D02*
X134930000Y-106730000D01*
X143630000Y-105930000D02*
X143630000Y-106730000D01*
X133230000Y-105930000D02*
X133230000Y-106730000D01*
X143630000Y-111530000D02*
X134230000Y-111530000D01*
X143630000Y-111530000D02*
X143630000Y-110430000D01*
X134230000Y-111530000D02*
X133230000Y-110530000D01*
X133230000Y-110530000D02*
X133230000Y-110430000D01*
X141930000Y-106730000D02*
X143630000Y-106730000D01*
X134930000Y-106730000D02*
X133230000Y-106730000D01*
X116713000Y-112141000D02*
X116713000Y-108585000D01*
X116713000Y-108585000D02*
X114935000Y-108585000D01*
X114935000Y-108585000D02*
X114935000Y-112141000D01*
X114935000Y-112141000D02*
X116713000Y-112141000D01*
X116713000Y-95631000D02*
X116713000Y-92075000D01*
X116713000Y-92075000D02*
X114935000Y-92075000D01*
X114935000Y-92075000D02*
X114935000Y-95631000D01*
X114935000Y-95631000D02*
X116713000Y-95631000D01*
X129667000Y-83693000D02*
X125603000Y-83693000D01*
X125603000Y-83693000D02*
X125603000Y-81407000D01*
X125603000Y-81407000D02*
X129667000Y-81407000D01*
X129667000Y-81407000D02*
X129667000Y-83693000D01*
X146177000Y-106299000D02*
X149733000Y-106299000D01*
X149733000Y-106299000D02*
X149733000Y-104521000D01*
X149733000Y-104521000D02*
X146177000Y-104521000D01*
X146177000Y-104521000D02*
X146177000Y-106299000D01*
X155448000Y-102616000D02*
X151892000Y-102616000D01*
X151892000Y-102616000D02*
X151892000Y-104394000D01*
X151892000Y-104394000D02*
X155448000Y-104394000D01*
X155448000Y-104394000D02*
X155448000Y-102616000D01*
X131953000Y-129921000D02*
X128397000Y-129921000D01*
X128397000Y-129921000D02*
X128397000Y-131699000D01*
X128397000Y-131699000D02*
X131953000Y-131699000D01*
X131953000Y-131699000D02*
X131953000Y-129921000D01*
X130683000Y-128016000D02*
X127127000Y-128016000D01*
X127127000Y-128016000D02*
X127127000Y-129794000D01*
X127127000Y-129794000D02*
X130683000Y-129794000D01*
X130683000Y-129794000D02*
X130683000Y-128016000D01*
X130683000Y-126111000D02*
X127127000Y-126111000D01*
X127127000Y-126111000D02*
X127127000Y-127889000D01*
X127127000Y-127889000D02*
X130683000Y-127889000D01*
X130683000Y-127889000D02*
X130683000Y-126111000D01*
X174780000Y-106990000D02*
X174780000Y-113490000D01*
X174930000Y-106990000D02*
X174780000Y-106990000D01*
X175130000Y-106790000D02*
X174930000Y-106990000D01*
X175130000Y-106790000D02*
X175130000Y-105040000D01*
X174780000Y-113490000D02*
X175130000Y-113990000D01*
X175130000Y-113990000D02*
X175130000Y-116190000D01*
X162580000Y-103990000D02*
X158980000Y-103990000D01*
X168980000Y-103990000D02*
X164180000Y-103990000D01*
X172130000Y-103990000D02*
X170180000Y-103990000D01*
X158980000Y-103990000D02*
X158980000Y-104490000D01*
X158980000Y-117840000D02*
X158980000Y-115940000D01*
X173030000Y-117840000D02*
X158980000Y-117840000D01*
X174930000Y-116390000D02*
X174930000Y-116740000D01*
X174930000Y-104840000D02*
X175130000Y-105040000D01*
X174930000Y-116390000D02*
X175130000Y-116190000D01*
D12*
X133985000Y-127635000D02*
X141605000Y-127635000D01*
X141605000Y-127635000D02*
X141605000Y-122555000D01*
X141605000Y-122555000D02*
X133985000Y-122555000D01*
X133985000Y-122555000D02*
X133985000Y-127635000D01*
D11*
X142621000Y-100457000D02*
X142621000Y-104013000D01*
X142621000Y-104013000D02*
X144399000Y-104013000D01*
X144399000Y-104013000D02*
X144399000Y-100457000D01*
X144399000Y-100457000D02*
X142621000Y-100457000D01*
X144526000Y-100457000D02*
X144526000Y-104013000D01*
X144526000Y-104013000D02*
X146304000Y-104013000D01*
X146304000Y-104013000D02*
X146304000Y-100457000D01*
X146304000Y-100457000D02*
X144526000Y-100457000D01*
X148336000Y-100457000D02*
X148336000Y-104013000D01*
X148336000Y-104013000D02*
X150114000Y-104013000D01*
X150114000Y-104013000D02*
X150114000Y-100457000D01*
X150114000Y-100457000D02*
X148336000Y-100457000D01*
X146431000Y-100457000D02*
X146431000Y-104013000D01*
X146431000Y-104013000D02*
X148209000Y-104013000D01*
X148209000Y-104013000D02*
X148209000Y-100457000D01*
X148209000Y-100457000D02*
X146431000Y-100457000D01*
X132826190Y-111347381D02*
X132826190Y-112061667D01*
X132873810Y-112204524D01*
X132969048Y-112299762D01*
X133111905Y-112347381D01*
X133207143Y-112347381D01*
X131921428Y-111347381D02*
X132111905Y-111347381D01*
X132207143Y-111395000D01*
X132254762Y-111442619D01*
X132350000Y-111585476D01*
X132397619Y-111775952D01*
X132397619Y-112156905D01*
X132350000Y-112252143D01*
X132302381Y-112299762D01*
X132207143Y-112347381D01*
X132016666Y-112347381D01*
X131921428Y-112299762D01*
X131873809Y-112252143D01*
X131826190Y-112156905D01*
X131826190Y-111918810D01*
X131873809Y-111823571D01*
X131921428Y-111775952D01*
X132016666Y-111728333D01*
X132207143Y-111728333D01*
X132302381Y-111775952D01*
X132350000Y-111823571D01*
X132397619Y-111918810D01*
X114411143Y-110283524D02*
X114458762Y-110235905D01*
X114506381Y-110093048D01*
X114506381Y-109997810D01*
X114458762Y-109854952D01*
X114363524Y-109759714D01*
X114268286Y-109712095D01*
X114077810Y-109664476D01*
X113934952Y-109664476D01*
X113744476Y-109712095D01*
X113649238Y-109759714D01*
X113554000Y-109854952D01*
X113506381Y-109997810D01*
X113506381Y-110093048D01*
X113554000Y-110235905D01*
X113601619Y-110283524D01*
X113839714Y-111140667D02*
X114506381Y-111140667D01*
X113458762Y-110902571D02*
X114173048Y-110664476D01*
X114173048Y-111283524D01*
X114411143Y-93773524D02*
X114458762Y-93725905D01*
X114506381Y-93583048D01*
X114506381Y-93487810D01*
X114458762Y-93344952D01*
X114363524Y-93249714D01*
X114268286Y-93202095D01*
X114077810Y-93154476D01*
X113934952Y-93154476D01*
X113744476Y-93202095D01*
X113649238Y-93249714D01*
X113554000Y-93344952D01*
X113506381Y-93487810D01*
X113506381Y-93583048D01*
X113554000Y-93725905D01*
X113601619Y-93773524D01*
X113506381Y-94678286D02*
X113506381Y-94202095D01*
X113982571Y-94154476D01*
X113934952Y-94202095D01*
X113887333Y-94297333D01*
X113887333Y-94535429D01*
X113934952Y-94630667D01*
X113982571Y-94678286D01*
X114077810Y-94725905D01*
X114315905Y-94725905D01*
X114411143Y-94678286D01*
X114458762Y-94630667D01*
X114506381Y-94535429D01*
X114506381Y-94297333D01*
X114458762Y-94202095D01*
X114411143Y-94154476D01*
X126571476Y-80756143D02*
X126619095Y-80803762D01*
X126761952Y-80851381D01*
X126857190Y-80851381D01*
X127000048Y-80803762D01*
X127095286Y-80708524D01*
X127142905Y-80613286D01*
X127190524Y-80422810D01*
X127190524Y-80279952D01*
X127142905Y-80089476D01*
X127095286Y-79994238D01*
X127000048Y-79899000D01*
X126857190Y-79851381D01*
X126761952Y-79851381D01*
X126619095Y-79899000D01*
X126571476Y-79946619D01*
X125619095Y-80851381D02*
X126190524Y-80851381D01*
X125904810Y-80851381D02*
X125904810Y-79851381D01*
X126000048Y-79994238D01*
X126095286Y-80089476D01*
X126190524Y-80137095D01*
X149050476Y-107775381D02*
X149383810Y-107299190D01*
X149621905Y-107775381D02*
X149621905Y-106775381D01*
X149240952Y-106775381D01*
X149145714Y-106823000D01*
X149098095Y-106870619D01*
X149050476Y-106965857D01*
X149050476Y-107108714D01*
X149098095Y-107203952D01*
X149145714Y-107251571D01*
X149240952Y-107299190D01*
X149621905Y-107299190D01*
X148098095Y-107775381D02*
X148669524Y-107775381D01*
X148383810Y-107775381D02*
X148383810Y-106775381D01*
X148479048Y-106918238D01*
X148574286Y-107013476D01*
X148669524Y-107061095D01*
X154892476Y-102187381D02*
X155225810Y-101711190D01*
X155463905Y-102187381D02*
X155463905Y-101187381D01*
X155082952Y-101187381D01*
X154987714Y-101235000D01*
X154940095Y-101282619D01*
X154892476Y-101377857D01*
X154892476Y-101520714D01*
X154940095Y-101615952D01*
X154987714Y-101663571D01*
X155082952Y-101711190D01*
X155463905Y-101711190D01*
X154511524Y-101282619D02*
X154463905Y-101235000D01*
X154368667Y-101187381D01*
X154130571Y-101187381D01*
X154035333Y-101235000D01*
X153987714Y-101282619D01*
X153940095Y-101377857D01*
X153940095Y-101473095D01*
X153987714Y-101615952D01*
X154559143Y-102187381D01*
X153940095Y-102187381D01*
X127333476Y-131397381D02*
X127666810Y-130921190D01*
X127904905Y-131397381D02*
X127904905Y-130397381D01*
X127523952Y-130397381D01*
X127428714Y-130445000D01*
X127381095Y-130492619D01*
X127333476Y-130587857D01*
X127333476Y-130730714D01*
X127381095Y-130825952D01*
X127428714Y-130873571D01*
X127523952Y-130921190D01*
X127904905Y-130921190D01*
X126476333Y-130730714D02*
X126476333Y-131397381D01*
X126714429Y-130349762D02*
X126952524Y-131064048D01*
X126333476Y-131064048D01*
X132159476Y-129365381D02*
X132492810Y-128889190D01*
X132730905Y-129365381D02*
X132730905Y-128365381D01*
X132349952Y-128365381D01*
X132254714Y-128413000D01*
X132207095Y-128460619D01*
X132159476Y-128555857D01*
X132159476Y-128698714D01*
X132207095Y-128793952D01*
X132254714Y-128841571D01*
X132349952Y-128889190D01*
X132730905Y-128889190D01*
X131302333Y-128365381D02*
X131492810Y-128365381D01*
X131588048Y-128413000D01*
X131635667Y-128460619D01*
X131730905Y-128603476D01*
X131778524Y-128793952D01*
X131778524Y-129174905D01*
X131730905Y-129270143D01*
X131683286Y-129317762D01*
X131588048Y-129365381D01*
X131397571Y-129365381D01*
X131302333Y-129317762D01*
X131254714Y-129270143D01*
X131207095Y-129174905D01*
X131207095Y-128936810D01*
X131254714Y-128841571D01*
X131302333Y-128793952D01*
X131397571Y-128746333D01*
X131588048Y-128746333D01*
X131683286Y-128793952D01*
X131730905Y-128841571D01*
X131778524Y-128936810D01*
X132159476Y-127460381D02*
X132492810Y-126984190D01*
X132730905Y-127460381D02*
X132730905Y-126460381D01*
X132349952Y-126460381D01*
X132254714Y-126508000D01*
X132207095Y-126555619D01*
X132159476Y-126650857D01*
X132159476Y-126793714D01*
X132207095Y-126888952D01*
X132254714Y-126936571D01*
X132349952Y-126984190D01*
X132730905Y-126984190D01*
X131826143Y-126460381D02*
X131159476Y-126460381D01*
X131588048Y-127460381D01*
X157575381Y-117109810D02*
X158289667Y-117109810D01*
X158432524Y-117062190D01*
X158527762Y-116966952D01*
X158575381Y-116824095D01*
X158575381Y-116728857D01*
X157908714Y-118014572D02*
X158575381Y-118014572D01*
X157527762Y-117776476D02*
X158242048Y-117538381D01*
X158242048Y-118157429D01*
X135588333Y-128357381D02*
X135588333Y-129071667D01*
X135635953Y-129214524D01*
X135731191Y-129309762D01*
X135874048Y-129357381D01*
X135969286Y-129357381D01*
X134635952Y-128357381D02*
X135112143Y-128357381D01*
X135159762Y-128833571D01*
X135112143Y-128785952D01*
X135016905Y-128738333D01*
X134778809Y-128738333D01*
X134683571Y-128785952D01*
X134635952Y-128833571D01*
X134588333Y-128928810D01*
X134588333Y-129166905D01*
X134635952Y-129262143D01*
X134683571Y-129309762D01*
X134778809Y-129357381D01*
X135016905Y-129357381D01*
X135112143Y-129309762D01*
X135159762Y-129262143D01*
X117800381Y-137374524D02*
X116800381Y-137374524D01*
X116800381Y-137612619D01*
X116848000Y-137755477D01*
X116943238Y-137850715D01*
X117038476Y-137898334D01*
X117228952Y-137945953D01*
X117371810Y-137945953D01*
X117562286Y-137898334D01*
X117657524Y-137850715D01*
X117752762Y-137755477D01*
X117800381Y-137612619D01*
X117800381Y-137374524D01*
X116800381Y-138565000D02*
X116800381Y-138755477D01*
X116848000Y-138850715D01*
X116943238Y-138945953D01*
X117133714Y-138993572D01*
X117467048Y-138993572D01*
X117657524Y-138945953D01*
X117752762Y-138850715D01*
X117800381Y-138755477D01*
X117800381Y-138565000D01*
X117752762Y-138469762D01*
X117657524Y-138374524D01*
X117467048Y-138326905D01*
X117133714Y-138326905D01*
X116943238Y-138374524D01*
X116848000Y-138469762D01*
X116800381Y-138565000D01*
X116800381Y-139422143D02*
X117609905Y-139422143D01*
X117705143Y-139469762D01*
X117752762Y-139517381D01*
X117800381Y-139612619D01*
X117800381Y-139803096D01*
X117752762Y-139898334D01*
X117705143Y-139945953D01*
X117609905Y-139993572D01*
X116800381Y-139993572D01*
X116800381Y-140326905D02*
X116800381Y-140898334D01*
X117800381Y-140612619D02*
X116800381Y-140612619D01*
X123531381Y-133517048D02*
X124531381Y-133850381D01*
X123531381Y-134183715D01*
X123531381Y-134707524D02*
X123531381Y-134898001D01*
X123579000Y-134993239D01*
X123674238Y-135088477D01*
X123864714Y-135136096D01*
X124198048Y-135136096D01*
X124388524Y-135088477D01*
X124483762Y-134993239D01*
X124531381Y-134898001D01*
X124531381Y-134707524D01*
X124483762Y-134612286D01*
X124388524Y-134517048D01*
X124198048Y-134469429D01*
X123864714Y-134469429D01*
X123674238Y-134517048D01*
X123579000Y-134612286D01*
X123531381Y-134707524D01*
X123531381Y-135564667D02*
X124340905Y-135564667D01*
X124436143Y-135612286D01*
X124483762Y-135659905D01*
X124531381Y-135755143D01*
X124531381Y-135945620D01*
X124483762Y-136040858D01*
X124436143Y-136088477D01*
X124340905Y-136136096D01*
X123531381Y-136136096D01*
X123531381Y-136469429D02*
X123531381Y-137040858D01*
X124531381Y-136755143D02*
X123531381Y-136755143D01*
X124150429Y-137374191D02*
X124150429Y-138136096D01*
X124531381Y-139183715D02*
X124055190Y-138850381D01*
X124531381Y-138612286D02*
X123531381Y-138612286D01*
X123531381Y-138993239D01*
X123579000Y-139088477D01*
X123626619Y-139136096D01*
X123721857Y-139183715D01*
X123864714Y-139183715D01*
X123959952Y-139136096D01*
X124007571Y-139088477D01*
X124055190Y-138993239D01*
X124055190Y-138612286D01*
X144097381Y-97964524D02*
X143621190Y-97631190D01*
X144097381Y-97393095D02*
X143097381Y-97393095D01*
X143097381Y-97774048D01*
X143145000Y-97869286D01*
X143192619Y-97916905D01*
X143287857Y-97964524D01*
X143430714Y-97964524D01*
X143525952Y-97916905D01*
X143573571Y-97869286D01*
X143621190Y-97774048D01*
X143621190Y-97393095D01*
X144097381Y-98916905D02*
X144097381Y-98345476D01*
X144097381Y-98631190D02*
X143097381Y-98631190D01*
X143240238Y-98535952D01*
X143335476Y-98440714D01*
X143383095Y-98345476D01*
X143097381Y-99821667D02*
X143097381Y-99345476D01*
X143573571Y-99297857D01*
X143525952Y-99345476D01*
X143478333Y-99440714D01*
X143478333Y-99678810D01*
X143525952Y-99774048D01*
X143573571Y-99821667D01*
X143668810Y-99869286D01*
X143906905Y-99869286D01*
X144002143Y-99821667D01*
X144049762Y-99774048D01*
X144097381Y-99678810D01*
X144097381Y-99440714D01*
X144049762Y-99345476D01*
X144002143Y-99297857D01*
X146002381Y-97964524D02*
X145526190Y-97631190D01*
X146002381Y-97393095D02*
X145002381Y-97393095D01*
X145002381Y-97774048D01*
X145050000Y-97869286D01*
X145097619Y-97916905D01*
X145192857Y-97964524D01*
X145335714Y-97964524D01*
X145430952Y-97916905D01*
X145478571Y-97869286D01*
X145526190Y-97774048D01*
X145526190Y-97393095D01*
X146002381Y-98916905D02*
X146002381Y-98345476D01*
X146002381Y-98631190D02*
X145002381Y-98631190D01*
X145145238Y-98535952D01*
X145240476Y-98440714D01*
X145288095Y-98345476D01*
X145002381Y-99774048D02*
X145002381Y-99583571D01*
X145050000Y-99488333D01*
X145097619Y-99440714D01*
X145240476Y-99345476D01*
X145430952Y-99297857D01*
X145811905Y-99297857D01*
X145907143Y-99345476D01*
X145954762Y-99393095D01*
X146002381Y-99488333D01*
X146002381Y-99678810D01*
X145954762Y-99774048D01*
X145907143Y-99821667D01*
X145811905Y-99869286D01*
X145573810Y-99869286D01*
X145478571Y-99821667D01*
X145430952Y-99774048D01*
X145383333Y-99678810D01*
X145383333Y-99488333D01*
X145430952Y-99393095D01*
X145478571Y-99345476D01*
X145573810Y-99297857D01*
X149812381Y-97964524D02*
X149336190Y-97631190D01*
X149812381Y-97393095D02*
X148812381Y-97393095D01*
X148812381Y-97774048D01*
X148860000Y-97869286D01*
X148907619Y-97916905D01*
X149002857Y-97964524D01*
X149145714Y-97964524D01*
X149240952Y-97916905D01*
X149288571Y-97869286D01*
X149336190Y-97774048D01*
X149336190Y-97393095D01*
X149812381Y-98916905D02*
X149812381Y-98345476D01*
X149812381Y-98631190D02*
X148812381Y-98631190D01*
X148955238Y-98535952D01*
X149050476Y-98440714D01*
X149098095Y-98345476D01*
X148812381Y-99250238D02*
X148812381Y-99916905D01*
X149812381Y-99488333D01*
X147907381Y-97964524D02*
X147431190Y-97631190D01*
X147907381Y-97393095D02*
X146907381Y-97393095D01*
X146907381Y-97774048D01*
X146955000Y-97869286D01*
X147002619Y-97916905D01*
X147097857Y-97964524D01*
X147240714Y-97964524D01*
X147335952Y-97916905D01*
X147383571Y-97869286D01*
X147431190Y-97774048D01*
X147431190Y-97393095D01*
X147907381Y-98916905D02*
X147907381Y-98345476D01*
X147907381Y-98631190D02*
X146907381Y-98631190D01*
X147050238Y-98535952D01*
X147145476Y-98440714D01*
X147193095Y-98345476D01*
X147335952Y-99488333D02*
X147288333Y-99393095D01*
X147240714Y-99345476D01*
X147145476Y-99297857D01*
X147097857Y-99297857D01*
X147002619Y-99345476D01*
X146955000Y-99393095D01*
X146907381Y-99488333D01*
X146907381Y-99678810D01*
X146955000Y-99774048D01*
X147002619Y-99821667D01*
X147097857Y-99869286D01*
X147145476Y-99869286D01*
X147240714Y-99821667D01*
X147288333Y-99774048D01*
X147335952Y-99678810D01*
X147335952Y-99488333D01*
X147383571Y-99393095D01*
X147431190Y-99345476D01*
X147526429Y-99297857D01*
X147716905Y-99297857D01*
X147812143Y-99345476D01*
X147859762Y-99393095D01*
X147907381Y-99488333D01*
X147907381Y-99678810D01*
X147859762Y-99774048D01*
X147812143Y-99821667D01*
X147716905Y-99869286D01*
X147526429Y-99869286D01*
X147431190Y-99821667D01*
X147383571Y-99774048D01*
X147335952Y-99678810D01*
M02*
