G04 #@! TF.FileFunction,Copper,L4,Bot,Signal*
%FSLAX46Y46*%
G04 Gerber Fmt 4.6, Leading zero omitted, Abs format (unit mm)*
G04 Created by KiCad (PCBNEW (2015-04-03 BZR 5570)-product) date Mon Apr  6 03:58:37 2015*
%MOMM*%
G01*
G04 APERTURE LIST*
%ADD10C,0.150000*%
%ADD11C,2.800000*%
%ADD12C,2.500000*%
%ADD13C,1.600000*%
%ADD14C,3.300000*%
%ADD15R,1.200000X2.600000*%
%ADD16R,2.300000X3.300000*%
%ADD17R,1.400000X1.400000*%
%ADD18C,1.400000*%
%ADD19R,1.000000X1.100000*%
%ADD20R,1.300000X1.500000*%
%ADD21R,1.100000X1.000000*%
%ADD22R,1.600000X1.600000*%
%ADD23R,1.508000X1.508000*%
%ADD24R,1.600000X1.900000*%
%ADD25R,1.900000X1.300000*%
%ADD26R,2.800000X1.000000*%
%ADD27R,1.200000X0.700000*%
%ADD28R,1.200000X1.000000*%
%ADD29R,1.200000X0.650000*%
%ADD30R,0.800000X1.000000*%
%ADD31C,1.000000*%
%ADD32R,2.400000X2.400000*%
%ADD33O,1.905000X3.810000*%
%ADD34O,1.270000X3.175000*%
%ADD35R,3.810000X3.810000*%
%ADD36C,6.350000*%
%ADD37C,1.016000*%
%ADD38C,0.609600*%
%ADD39C,0.406400*%
%ADD40C,0.254000*%
%ADD41C,1.016000*%
%ADD42C,1.270000*%
%ADD43C,0.304800*%
%ADD44C,0.350000*%
G04 APERTURE END LIST*
D10*
D11*
X119450483Y-78124303D03*
X119712163Y-83117451D03*
D12*
X116885023Y-80762184D03*
D13*
X170349257Y-85670976D03*
X167858770Y-85453087D03*
X165866381Y-85278775D03*
X163375894Y-85060886D03*
D14*
X173644638Y-83228895D03*
X160554640Y-82083668D03*
D15*
X138430000Y-113030000D03*
X136430000Y-113030000D03*
D16*
X144930000Y-108580000D03*
X131930000Y-108580000D03*
D15*
X140430000Y-113030000D03*
D17*
X173355000Y-121460000D03*
D18*
X173355000Y-123460000D03*
X173355000Y-125460000D03*
X173355000Y-127460000D03*
D19*
X115824000Y-111213000D03*
X115824000Y-109513000D03*
X115824000Y-94703000D03*
X115824000Y-93003000D03*
D20*
X128585000Y-82550000D03*
X126685000Y-82550000D03*
D21*
X147105000Y-105410000D03*
X148805000Y-105410000D03*
X154520000Y-103505000D03*
X152820000Y-103505000D03*
D22*
X129540000Y-88900000D03*
D13*
X129540000Y-86360000D03*
X127000000Y-88900000D03*
X127000000Y-86360000D03*
X124460000Y-88900000D03*
X124460000Y-86360000D03*
X121920000Y-88900000D03*
X121920000Y-86360000D03*
X119380000Y-88900000D03*
X119380000Y-86360000D03*
D23*
X102870000Y-86360000D03*
X102870000Y-123190000D03*
D21*
X131025000Y-130810000D03*
X129325000Y-130810000D03*
X129755000Y-128905000D03*
X128055000Y-128905000D03*
X129755000Y-127000000D03*
X128055000Y-127000000D03*
D24*
X133985000Y-146050000D03*
D25*
X174180000Y-117590000D03*
D26*
X173730000Y-104090000D03*
D27*
X159080000Y-113690000D03*
X159080000Y-112590000D03*
X159080000Y-111490000D03*
X159080000Y-110390000D03*
X159080000Y-109290000D03*
X159080000Y-108190000D03*
X159080000Y-107090000D03*
X159080000Y-105990000D03*
D28*
X159080000Y-115240000D03*
D29*
X159080000Y-105040000D03*
D30*
X169580000Y-104090000D03*
D28*
X163380000Y-104090000D03*
D31*
X118745000Y-110490000D03*
X118745000Y-111760000D03*
X120015000Y-110490000D03*
X120015000Y-111760000D03*
D32*
X119380000Y-111125000D03*
D31*
X118745000Y-93980000D03*
X118745000Y-95250000D03*
X120015000Y-93980000D03*
X120015000Y-95250000D03*
D32*
X119380000Y-94615000D03*
D33*
X135890000Y-125095000D03*
X139700000Y-125095000D03*
D34*
X115570000Y-139065000D03*
X122555000Y-136525000D03*
D19*
X143510000Y-101385000D03*
X143510000Y-103085000D03*
X145415000Y-101385000D03*
X145415000Y-103085000D03*
X149225000Y-101385000D03*
X149225000Y-103085000D03*
X147320000Y-101385000D03*
X147320000Y-103085000D03*
D35*
X162580000Y-100310000D03*
X162580000Y-135910000D03*
X126980000Y-135910000D03*
X126980000Y-100310000D03*
D34*
X113030000Y-139065000D03*
D36*
X156108400Y-146634200D03*
D37*
X156108400Y-144348200D03*
X154128666Y-145491200D03*
X154128666Y-147777200D03*
X156108400Y-148920200D03*
X158088134Y-147777200D03*
X158088134Y-145491200D03*
D36*
X110210600Y-146634200D03*
D37*
X110210600Y-144348200D03*
X108230866Y-145491200D03*
X108230866Y-147777200D03*
X110210600Y-148920200D03*
X112190334Y-147777200D03*
X112190334Y-145491200D03*
D36*
X156108400Y-83896200D03*
D37*
X156108400Y-81610200D03*
X154128666Y-82753200D03*
X154128666Y-85039200D03*
X156108400Y-86182200D03*
X158088134Y-85039200D03*
X158088134Y-82753200D03*
D36*
X110210600Y-83896200D03*
D37*
X110210600Y-81610200D03*
X108230866Y-82753200D03*
X108230866Y-85039200D03*
X110210600Y-86182200D03*
X112190334Y-85039200D03*
X112190334Y-82753200D03*
D23*
X116840000Y-124460000D03*
D37*
X111125000Y-138430000D03*
X111125000Y-135890000D03*
X111125000Y-137160000D03*
X121180991Y-133309153D03*
X120904000Y-125984000D03*
X118122484Y-120625031D03*
X119380000Y-120650000D03*
X120650000Y-120650000D03*
X121920000Y-120650000D03*
X128905000Y-105410000D03*
X128905000Y-103505000D03*
X128905000Y-107315000D03*
X160655000Y-132715000D03*
X159385000Y-133985000D03*
X130175000Y-95885000D03*
X128270000Y-95885000D03*
X130175000Y-102235000D03*
X121285000Y-95250000D03*
X140970000Y-151130000D03*
X139700000Y-151130000D03*
X138430000Y-151130000D03*
X132672150Y-149225000D03*
X132715000Y-151130000D03*
X133350000Y-147955000D03*
X134620000Y-147955000D03*
X145796000Y-151130000D03*
X137795000Y-130175000D03*
X142240000Y-126365000D03*
X146685000Y-116840000D03*
X160655000Y-121920000D03*
X147955000Y-130175000D03*
X142240000Y-130175000D03*
X160655000Y-125323600D03*
X146685000Y-90170000D03*
X134620000Y-90170000D03*
X117475000Y-93980000D03*
X117475000Y-95250000D03*
X121285000Y-93980000D03*
X112395000Y-98425000D03*
X112395000Y-97155000D03*
X112395000Y-95885000D03*
X112395000Y-94615000D03*
X111125000Y-95250000D03*
X111125000Y-96520000D03*
X111125000Y-97790000D03*
X118110000Y-104140000D03*
X119380000Y-104140000D03*
X120650000Y-104140000D03*
X121920000Y-104140000D03*
X112395000Y-111125000D03*
X112395000Y-112395000D03*
X112395000Y-113665000D03*
X112395000Y-114935000D03*
X111125000Y-111760000D03*
X111125000Y-113030000D03*
X111125000Y-114300000D03*
X117475000Y-110490000D03*
X117475000Y-111760000D03*
X121285000Y-110490000D03*
X121285000Y-111760000D03*
X133350000Y-90170000D03*
X145415008Y-90170000D03*
X164465000Y-139065000D03*
X163195000Y-139065000D03*
X161925000Y-139065000D03*
X139065000Y-134620000D03*
X142875000Y-134620000D03*
X169037000Y-107188000D03*
X168275000Y-109220000D03*
X168275000Y-107950000D03*
X164465000Y-86995000D03*
X163195000Y-86995000D03*
X161925000Y-86995000D03*
X157226000Y-108204000D03*
X139700000Y-128270000D03*
X139700000Y-116205000D03*
X123190000Y-81280000D03*
X124460000Y-80010000D03*
X124460000Y-81280000D03*
X123190000Y-80010000D03*
X124460000Y-78740000D03*
X123190000Y-77470000D03*
X124460000Y-77470000D03*
X123190000Y-78740000D03*
X125730000Y-147955000D03*
X125095000Y-150495000D03*
X134620000Y-141605000D03*
X134620000Y-144145000D03*
X134620000Y-142875000D03*
X133350000Y-141605000D03*
X133350000Y-144145000D03*
X133350000Y-142875000D03*
X116205000Y-142875000D03*
X116205000Y-144145000D03*
X117475000Y-144145000D03*
X118745000Y-144145000D03*
X120015000Y-144145000D03*
X120044614Y-135860386D03*
X121285000Y-134620000D03*
X113030000Y-127000000D03*
X113919000Y-126238000D03*
X111125000Y-129540000D03*
X119380000Y-124333000D03*
X120777000Y-124333000D03*
X122174000Y-124333000D03*
X154940000Y-93980000D03*
X153670000Y-91440000D03*
X153670000Y-93980000D03*
X153670000Y-92710000D03*
X111125000Y-132080000D03*
X111125000Y-130810000D03*
X135636000Y-102108000D03*
X133985000Y-95885090D03*
X130175000Y-82550000D03*
X130175000Y-83820000D03*
X130175000Y-81280000D03*
X129540000Y-80010000D03*
X129540000Y-78740000D03*
X129540000Y-77470000D03*
X139192000Y-94488000D03*
X135889992Y-104140000D03*
X137795000Y-104140000D03*
X140859619Y-94504631D03*
X155575000Y-106680024D03*
X153670000Y-107950000D03*
X154501419Y-109220000D03*
X145415000Y-105410000D03*
X144145000Y-105410000D03*
X157480000Y-103505000D03*
X130175000Y-132715000D03*
X131445000Y-132715000D03*
X156210000Y-103505000D03*
X123190000Y-93345000D03*
X164465000Y-140970000D03*
X163195000Y-140970000D03*
X161925000Y-140970000D03*
X157607000Y-110363000D03*
X109220000Y-98425000D03*
X109220018Y-100330000D03*
X109220000Y-102235000D03*
X111760000Y-100330000D03*
X111760000Y-102235000D03*
X153373617Y-110210490D03*
X156845000Y-112395000D03*
X154910448Y-112365448D03*
X129540000Y-117475000D03*
X130810000Y-116205000D03*
X130175000Y-118745000D03*
X174371000Y-144145000D03*
X129540000Y-120015000D03*
X173990000Y-145415000D03*
X174371000Y-146685000D03*
X130175000Y-121285000D03*
X129540000Y-122555000D03*
X173990000Y-147955000D03*
X145410847Y-134039953D03*
X144091184Y-133984875D03*
X160655000Y-128320800D03*
X160655000Y-126949200D03*
X170144675Y-92402663D03*
X158750000Y-124129513D03*
X169801323Y-121769933D03*
X168773075Y-92402663D03*
X158750000Y-122757913D03*
X168831457Y-120800067D03*
X140716000Y-103632034D03*
X132080000Y-95885000D03*
X150495000Y-107315000D03*
X166370000Y-118110000D03*
X174371000Y-139065000D03*
X171450000Y-131445000D03*
X151765000Y-106680000D03*
X167640000Y-117068600D03*
X170815000Y-130175000D03*
X173990000Y-140335000D03*
X118745000Y-99314000D03*
X120015000Y-115824000D03*
X118745000Y-115824000D03*
X120015000Y-99314000D03*
X121344327Y-115824000D03*
X121286086Y-99314000D03*
X138400454Y-149254546D03*
X138070740Y-146122990D03*
X144094187Y-151130000D03*
X142875000Y-151130000D03*
X159385000Y-93345000D03*
X159385000Y-94615026D03*
X123190000Y-109220000D03*
X123190000Y-109220000D03*
X173990000Y-133350000D03*
X173990000Y-134620000D03*
X113030000Y-125095000D03*
X111760000Y-125095000D03*
X118715454Y-139729546D03*
X118745000Y-140970000D03*
X109220000Y-114934990D03*
X109220000Y-116840004D03*
X109220000Y-118745010D03*
X111760000Y-118745000D03*
X111760000Y-116840000D03*
X129540000Y-143510000D03*
X147320000Y-151130000D03*
X113665000Y-128270000D03*
X144145000Y-140970000D03*
X115519197Y-128312802D03*
X116840000Y-128270000D03*
X146786602Y-140973776D03*
X115900190Y-131846050D03*
X145465794Y-140976892D03*
X116205000Y-106679978D03*
X116205000Y-107696000D03*
X109220000Y-107315000D03*
X109220000Y-109220000D03*
X109220000Y-111125000D03*
X111760000Y-107315000D03*
X111760000Y-109220000D03*
X116205000Y-90170000D03*
X116205000Y-91186000D03*
X109220000Y-90805000D03*
X109220000Y-92710012D03*
X109220000Y-94615000D03*
X111760000Y-90805000D03*
X111760000Y-92710000D03*
X116332000Y-112776000D03*
X116332000Y-113792000D03*
X116332000Y-97409006D03*
X116332000Y-96393000D03*
X146685000Y-96520000D03*
X145415000Y-95884992D03*
X147955010Y-95885000D03*
X149225000Y-96520000D03*
X167640000Y-94615000D03*
X166370000Y-94615000D03*
X168910000Y-96520000D03*
X170180000Y-96520000D03*
X173990000Y-142875000D03*
X167427800Y-129993510D03*
X174371000Y-141605000D03*
X167640000Y-128270000D03*
X164465000Y-142875000D03*
X167005000Y-131445000D03*
X132715000Y-130810000D03*
X117779810Y-132080000D03*
X119864933Y-133834933D03*
X118895067Y-132865067D03*
X122555000Y-132715000D03*
X114270454Y-135284546D03*
X160020000Y-120243600D03*
X168910000Y-118338600D03*
X136525000Y-131445000D03*
D38*
X157240000Y-108190000D02*
X157226000Y-108204000D01*
X159080000Y-108190000D02*
X157240000Y-108190000D01*
D39*
X139700000Y-125095000D02*
X139700000Y-128270000D01*
D38*
X140430000Y-113030000D02*
X140430000Y-115475000D01*
X140430000Y-115475000D02*
X139700000Y-116205000D01*
X123190000Y-80010000D02*
X123190000Y-78740000D01*
X124460000Y-78740000D02*
X124460000Y-80010000D01*
X124460000Y-81280000D02*
X124460000Y-86360000D01*
X124460000Y-80010000D02*
X124460000Y-81280000D01*
X123190000Y-81280000D02*
X123190000Y-80010000D01*
X123190000Y-78740000D02*
X123190000Y-77470000D01*
X124460000Y-77470000D02*
X124460000Y-78740000D01*
X123190000Y-77470000D02*
X124460000Y-77470000D01*
D40*
X133985000Y-95885090D02*
X135636000Y-97536090D01*
X135636000Y-97536090D02*
X135636000Y-102108000D01*
D38*
X128585000Y-82550000D02*
X130175000Y-82550000D01*
X130175000Y-82550000D02*
X130175000Y-81280000D01*
X129540000Y-80010000D02*
X129540000Y-78740000D01*
D40*
X139192000Y-94488000D02*
X139192000Y-100837992D01*
X139192000Y-100837992D02*
X135889992Y-104140000D01*
X140859619Y-101075381D02*
X137795000Y-104140000D01*
X140859619Y-94504631D02*
X140859619Y-101075381D01*
X156265024Y-105990000D02*
X159080000Y-105990000D01*
X155575000Y-106680024D02*
X156265024Y-105990000D01*
X156555930Y-107090000D02*
X155695930Y-107950000D01*
X155695930Y-107950000D02*
X153670000Y-107950000D01*
X159080000Y-107090000D02*
X156555930Y-107090000D01*
X159010000Y-109220000D02*
X159080000Y-109290000D01*
X154501419Y-109220000D02*
X159010000Y-109220000D01*
D38*
X144145000Y-105410000D02*
X145415000Y-105410000D01*
X145415000Y-105410000D02*
X147105000Y-105410000D01*
X145415000Y-103085000D02*
X143510000Y-103085000D01*
X147320000Y-103085000D02*
X145415000Y-103085000D01*
X149225000Y-103085000D02*
X147320000Y-103085000D01*
X147320000Y-104140000D02*
X147265400Y-104140000D01*
X147265400Y-104140000D02*
X147105000Y-104300400D01*
X147105000Y-104300400D02*
X147105000Y-105410000D01*
X147320000Y-103085000D02*
X147320000Y-104140000D01*
X154520000Y-103505000D02*
X156210000Y-103505000D01*
X157634000Y-110390000D02*
X157607000Y-110363000D01*
X159080000Y-110390000D02*
X157634000Y-110390000D01*
D40*
X155936584Y-110210490D02*
X153373617Y-110210490D01*
X157216094Y-111490000D02*
X155936584Y-110210490D01*
X159080000Y-111490000D02*
X157216094Y-111490000D01*
X157040000Y-112590000D02*
X156845000Y-112395000D01*
X159080000Y-112590000D02*
X157040000Y-112590000D01*
X156235000Y-113690000D02*
X159080000Y-113690000D01*
X154910448Y-112365448D02*
X156235000Y-113690000D01*
X138430000Y-115570000D02*
X136525000Y-117475000D01*
X136525000Y-117475000D02*
X129540000Y-117475000D01*
X138430000Y-113030000D02*
X138430000Y-115570000D01*
X136430000Y-113030000D02*
X136430000Y-115030000D01*
X136430000Y-115030000D02*
X135255000Y-116205000D01*
X135255000Y-116205000D02*
X130810000Y-116205000D01*
X130893420Y-118745000D02*
X130175000Y-118745000D01*
X141435828Y-120015000D02*
X132163420Y-120015000D01*
X145415000Y-123994172D02*
X141435828Y-120015000D01*
X145415000Y-129540000D02*
X145415000Y-123994172D01*
X151765000Y-135890000D02*
X145415000Y-129540000D01*
X132163420Y-120015000D02*
X130893420Y-118745000D01*
X154770828Y-135890000D02*
X151765000Y-135890000D01*
X163660828Y-144780000D02*
X154770828Y-135890000D01*
X171450000Y-144780000D02*
X163660828Y-144780000D01*
X172085000Y-144145000D02*
X171450000Y-144780000D01*
X174371000Y-144145000D02*
X172085000Y-144145000D01*
X130810000Y-120015000D02*
X129540000Y-120015000D01*
X131445000Y-120650000D02*
X130810000Y-120015000D01*
X144780000Y-124149448D02*
X141280552Y-120650000D01*
X144780000Y-129695276D02*
X144780000Y-124149448D01*
X141280552Y-120650000D02*
X131445000Y-120650000D01*
X151533533Y-136448809D02*
X144780000Y-129695276D01*
X154539362Y-136448810D02*
X151533533Y-136448809D01*
X163505552Y-145415000D02*
X154539362Y-136448810D01*
X173990000Y-145415000D02*
X163505552Y-145415000D01*
X141125276Y-121285000D02*
X130175000Y-121285000D01*
X144145000Y-124304724D02*
X141125276Y-121285000D01*
X144145000Y-129850552D02*
X144145000Y-124304724D01*
X151302066Y-137007618D02*
X144145000Y-129850552D01*
X154307895Y-137007619D02*
X151302066Y-137007618D01*
X163350276Y-146050000D02*
X154307895Y-137007619D01*
X171450000Y-146050000D02*
X163350276Y-146050000D01*
X172085000Y-146685000D02*
X171450000Y-146050000D01*
X174371000Y-146685000D02*
X172085000Y-146685000D01*
X163195000Y-146685000D02*
X170815000Y-146685000D01*
X170815000Y-146685000D02*
X172085000Y-147955000D01*
X151070601Y-137566427D02*
X154076428Y-137566428D01*
X143510000Y-124460000D02*
X143510000Y-130005826D01*
X140970000Y-121920000D02*
X143510000Y-124460000D01*
X131445000Y-121920000D02*
X140970000Y-121920000D01*
X172085000Y-147955000D02*
X173990000Y-147955000D01*
X130810000Y-122555000D02*
X131445000Y-121920000D01*
X154076428Y-137566428D02*
X163195000Y-146685000D01*
X143510000Y-130005826D02*
X151070601Y-137566427D01*
X129540000Y-122555000D02*
X130810000Y-122555000D01*
X145083354Y-135382698D02*
X143636252Y-136829800D01*
X145410847Y-134039953D02*
X145083354Y-134367446D01*
X145083354Y-134367446D02*
X145083354Y-135382698D01*
X143636252Y-136829800D02*
X138303748Y-136829800D01*
X138303748Y-136829800D02*
X134620000Y-133146052D01*
X134620000Y-133146052D02*
X134620000Y-129971052D01*
X130580000Y-128905000D02*
X129755000Y-128905000D01*
X131227700Y-128257300D02*
X130580000Y-128905000D01*
X132906248Y-128257300D02*
X131227700Y-128257300D01*
X134620000Y-129971052D02*
X132906248Y-128257300D01*
X129325000Y-130390000D02*
X129325000Y-130810000D01*
X129755000Y-129960000D02*
X129325000Y-130390000D01*
X129755000Y-128905000D02*
X129755000Y-129960000D01*
X131227700Y-127647700D02*
X130580000Y-127000000D01*
X135255000Y-129743948D02*
X133158752Y-127647700D01*
X140170106Y-136220200D02*
X138556252Y-136220200D01*
X140236862Y-136212678D02*
X140170106Y-136220200D01*
X135255000Y-132918948D02*
X135255000Y-129743948D01*
X140440396Y-136050365D02*
X140404655Y-136107246D01*
X140470106Y-135920200D02*
X140462584Y-135986956D01*
X140477627Y-135765696D02*
X140470106Y-135832453D01*
X140900271Y-135562162D02*
X140836862Y-135539974D01*
X140957152Y-135597903D02*
X140900271Y-135562162D01*
X140836862Y-135539974D02*
X140770106Y-135532453D01*
X140703349Y-135539974D02*
X140639940Y-135562162D01*
X141062584Y-135765696D02*
X141040396Y-135702287D01*
X130580000Y-127000000D02*
X129755000Y-127000000D01*
X141070106Y-135832453D02*
X141062584Y-135765696D01*
X141070106Y-135920200D02*
X141070106Y-135832453D01*
X140357152Y-136154749D02*
X140300271Y-136190490D01*
X140770106Y-135532453D02*
X140703349Y-135539974D01*
X141040396Y-135702287D02*
X141004655Y-135645406D01*
X133158752Y-127647700D02*
X131227700Y-127647700D01*
X141077627Y-135986956D02*
X141070106Y-135920200D01*
X140535556Y-135645406D02*
X140499815Y-135702287D01*
X141099815Y-136050365D02*
X141077627Y-135986956D01*
X141004655Y-135645406D02*
X140957152Y-135597903D01*
X141135556Y-136107246D02*
X141099815Y-136050365D01*
X140639940Y-135562162D02*
X140583059Y-135597903D01*
X140404655Y-136107246D02*
X140357152Y-136154749D01*
X141183059Y-136154749D02*
X141135556Y-136107246D01*
X141239940Y-136190490D02*
X141183059Y-136154749D01*
X140499815Y-135702287D02*
X140477627Y-135765696D01*
X141303349Y-136212678D02*
X141239940Y-136190490D01*
X143383748Y-136220200D02*
X141370106Y-136220200D01*
X140462584Y-135986956D02*
X140440396Y-136050365D01*
X140583059Y-135597903D02*
X140535556Y-135645406D01*
X140470106Y-135832453D02*
X140470106Y-135920200D01*
X144473755Y-135130193D02*
X143383748Y-136220200D01*
X138556252Y-136220200D02*
X135255000Y-132918948D01*
X140300271Y-136190490D02*
X140236862Y-136212678D01*
X141370106Y-136220200D02*
X141303349Y-136212678D01*
X144473755Y-134367446D02*
X144473755Y-135130193D01*
X144091184Y-133984875D02*
X144473755Y-134367446D01*
X160655000Y-128320800D02*
X161036001Y-127939799D01*
X161036001Y-127939799D02*
X164244541Y-127939799D01*
X164244541Y-127939799D02*
X164311297Y-127947320D01*
X164431587Y-128005249D02*
X164479090Y-128052752D01*
X164537019Y-128173042D02*
X164544541Y-128239799D01*
X165079090Y-128591362D02*
X165114831Y-128534481D01*
X164311297Y-127947320D02*
X164374706Y-127969508D01*
X164479090Y-128052752D02*
X164514831Y-128109633D01*
X164374706Y-127969508D02*
X164431587Y-128005249D01*
X164514831Y-128109633D02*
X164537019Y-128173042D01*
X165152062Y-128173042D02*
X165174250Y-128109633D01*
X165174250Y-128109633D02*
X165209991Y-128052752D01*
X164552062Y-128471072D02*
X164574250Y-128534481D01*
X164609991Y-128591362D02*
X164657494Y-128638865D01*
X164544541Y-128239799D02*
X164544541Y-128404316D01*
X165257494Y-128005249D02*
X165314375Y-127969508D01*
X165144541Y-128404316D02*
X165144541Y-128239799D01*
X164657494Y-128638865D02*
X164714375Y-128674606D01*
X164544541Y-128404316D02*
X164552062Y-128471072D01*
X164574250Y-128534481D02*
X164609991Y-128591362D01*
X164974706Y-128674606D02*
X165031587Y-128638865D01*
X165314375Y-127969508D02*
X165377784Y-127947320D01*
X164714375Y-128674606D02*
X164777784Y-128696794D01*
X164777784Y-128696794D02*
X164844541Y-128704316D01*
X164911297Y-128696794D02*
X164974706Y-128674606D01*
X164844541Y-128704316D02*
X164911297Y-128696794D01*
X165031587Y-128638865D02*
X165079090Y-128591362D01*
X165114831Y-128534481D02*
X165137019Y-128471072D01*
X165137019Y-128471072D02*
X165144541Y-128404316D01*
X165209991Y-128052752D02*
X165257494Y-128005249D01*
X165144541Y-128239799D02*
X165152062Y-128173042D01*
X165377784Y-127947320D02*
X165444541Y-127939799D01*
X165444541Y-127939799D02*
X166496253Y-127939799D01*
X166496253Y-127939799D02*
X169671253Y-124764799D01*
X169671253Y-124764799D02*
X172659799Y-124764799D01*
X172659799Y-124764799D02*
X173355000Y-125460000D01*
X160655000Y-126949200D02*
X161036001Y-127330201D01*
X161036001Y-127330201D02*
X166243747Y-127330201D01*
X172659799Y-124155201D02*
X173355000Y-123460000D01*
X166243747Y-127330201D02*
X169418747Y-124155201D01*
X169418747Y-124155201D02*
X172659799Y-124155201D01*
X167254530Y-86057326D02*
X167254530Y-87042078D01*
X167858769Y-85453087D02*
X167254530Y-86057326D01*
X167254530Y-87042078D02*
X169763674Y-89551222D01*
X169763674Y-89551222D02*
X169763674Y-92021662D01*
X169763674Y-92021662D02*
X170144675Y-92402663D01*
X159131001Y-123748512D02*
X158750000Y-124129513D01*
X167283930Y-123748512D02*
X159131001Y-123748512D01*
X169801323Y-121769933D02*
X169262509Y-121769933D01*
X169262509Y-121769933D02*
X167283930Y-123748512D01*
X165866381Y-85278775D02*
X166644932Y-86057326D01*
X166644932Y-87294584D02*
X169154076Y-89803728D01*
X166644932Y-86057326D02*
X166644932Y-87294584D01*
X169154076Y-89803728D02*
X169154076Y-92021662D01*
X169154076Y-92021662D02*
X168773075Y-92402663D01*
X159131001Y-123138914D02*
X158750000Y-122757913D01*
X168831457Y-121338881D02*
X167031424Y-123138914D01*
X167031424Y-123138914D02*
X159131001Y-123138914D01*
X168831457Y-120800067D02*
X168831457Y-121338881D01*
X132080000Y-95885000D02*
X132080000Y-103378000D01*
X132080000Y-103378000D02*
X134493000Y-105791000D01*
X134493000Y-105791000D02*
X138557034Y-105791000D01*
X138557034Y-105791000D02*
X140716000Y-103632034D01*
X151130000Y-95405276D02*
X151130000Y-104775000D01*
X131445000Y-88265000D02*
X131445000Y-90805000D01*
X130810000Y-87630000D02*
X131445000Y-88265000D01*
X131445000Y-90805000D02*
X133350000Y-92710000D01*
X128270000Y-87630000D02*
X130810000Y-87630000D01*
X148434724Y-92710000D02*
X151130000Y-95405276D01*
X133350000Y-92710000D02*
X148434724Y-92710000D01*
X127000000Y-86360000D02*
X128270000Y-87630000D01*
X151130000Y-104775000D02*
X150495000Y-105410000D01*
X150495000Y-112550276D02*
X150495000Y-107315000D01*
X156677023Y-118732299D02*
X150495000Y-112550276D01*
X165747701Y-118732299D02*
X156677023Y-118732299D01*
X166370000Y-118110000D02*
X165747701Y-118732299D01*
X150495000Y-107315000D02*
X150495000Y-105410000D01*
X150495000Y-105410000D02*
X148805000Y-105410000D01*
X171450000Y-131445000D02*
X170815000Y-132080000D01*
X170815000Y-132080000D02*
X170815000Y-138430000D01*
X170815000Y-138430000D02*
X171450000Y-139065000D01*
X171450000Y-139065000D02*
X174371000Y-139065000D01*
X148590000Y-92075000D02*
X133731000Y-92075000D01*
X130671370Y-86360000D02*
X129540000Y-86360000D01*
X132080000Y-87768630D02*
X130671370Y-86360000D01*
X133731000Y-92075000D02*
X132080000Y-90424000D01*
X151765000Y-103550195D02*
X151765000Y-95250000D01*
X151765000Y-95250000D02*
X148590000Y-92075000D01*
X132080000Y-90424000D02*
X132080000Y-87768630D01*
X151765000Y-106680000D02*
X151765000Y-108585000D01*
X151765000Y-108585000D02*
X151130000Y-109220000D01*
X151130000Y-109220000D02*
X151130000Y-112395000D01*
X151130000Y-112395000D02*
X156845000Y-118110000D01*
X156845000Y-118110000D02*
X164693600Y-118110000D01*
X164693600Y-118110000D02*
X165735000Y-117068600D01*
X165735000Y-117068600D02*
X167640000Y-117068600D01*
X151765000Y-106680000D02*
X151765000Y-103550195D01*
X151765000Y-103550195D02*
X151810195Y-103505000D01*
X151810195Y-103505000D02*
X152820000Y-103505000D01*
X170815000Y-130175000D02*
X169938699Y-131051301D01*
X169938699Y-138823699D02*
X171450000Y-140335000D01*
X169938699Y-131051301D02*
X169938699Y-138823699D01*
X171450000Y-140335000D02*
X173990000Y-140335000D01*
D38*
X138400454Y-149254546D02*
X138400454Y-146452704D01*
X138400454Y-146452704D02*
X138070740Y-146122990D01*
D41*
X113030000Y-125095000D02*
X111760000Y-125095000D01*
X111760000Y-125095000D02*
X109220000Y-122555000D01*
X109220000Y-122555000D02*
X109220000Y-118745010D01*
D40*
X129540000Y-141605000D02*
X129540000Y-143510000D01*
X147320000Y-145535906D02*
X147320000Y-151130000D01*
X130810000Y-140335000D02*
X142119094Y-140335000D01*
X129540000Y-141605000D02*
X130810000Y-140335000D01*
X142119094Y-140335000D02*
X147320000Y-145535906D01*
X113665000Y-128270000D02*
X114300000Y-128905000D01*
X114300000Y-128905000D02*
X114300000Y-133985000D01*
X114300000Y-133985000D02*
X121920000Y-141605000D01*
X121920000Y-141605000D02*
X129540000Y-141605000D01*
X114960389Y-133855113D02*
X122075276Y-140970000D01*
X122075276Y-140970000D02*
X129384724Y-140970000D01*
X115519197Y-128312802D02*
X114960389Y-128871610D01*
X114960389Y-128871610D02*
X114960389Y-133855113D01*
X129384724Y-140970000D02*
X130654724Y-139700000D01*
X130654724Y-139700000D02*
X142875000Y-139700000D01*
X142875000Y-139700000D02*
X144145000Y-140970000D01*
X144961246Y-138430000D02*
X130344172Y-138430000D01*
X146786602Y-140973776D02*
X146786602Y-140255356D01*
X146786602Y-140255356D02*
X144961246Y-138430000D01*
X130344172Y-138430000D02*
X129074172Y-139700000D01*
X129074172Y-139700000D02*
X122385828Y-139700000D01*
X122385828Y-139700000D02*
X116840000Y-134154172D01*
X116840000Y-134154172D02*
X116840000Y-128270000D01*
X145465794Y-140385794D02*
X144221190Y-139141190D01*
X115900190Y-134004638D02*
X115900190Y-131846050D01*
X144221190Y-139141190D02*
X130423258Y-139141190D01*
X130423258Y-139141190D02*
X129305638Y-140258810D01*
X145465794Y-140976892D02*
X145465794Y-140385794D01*
X129305638Y-140258810D02*
X122154361Y-140258809D01*
X122154361Y-140258809D02*
X115900190Y-134004638D01*
D42*
X119712163Y-83117451D02*
X120582451Y-83117451D01*
X121920000Y-84455000D02*
X121920000Y-86360000D01*
X120582451Y-83117451D02*
X121920000Y-84455000D01*
X121920000Y-86360000D02*
X121920000Y-88900000D01*
D41*
X116205000Y-106679978D02*
X116205000Y-107696000D01*
X115824000Y-108077000D02*
X116205000Y-107696000D01*
X115824000Y-109513000D02*
X115824000Y-108077000D01*
X115824000Y-91567000D02*
X116205000Y-91186000D01*
X115824000Y-93003000D02*
X115824000Y-91567000D01*
X116205000Y-91186000D02*
X116205000Y-90170000D01*
D38*
X116227400Y-112776000D02*
X116332000Y-112776000D01*
D41*
X116332000Y-113792000D02*
X116332000Y-112776000D01*
X115824000Y-112268000D02*
X116332000Y-112776000D01*
X115824000Y-111213000D02*
X115824000Y-112268000D01*
X115824000Y-95885000D02*
X116332000Y-96393000D01*
X115824000Y-94703000D02*
X115824000Y-95885000D01*
X116332000Y-96393000D02*
X116332000Y-97409006D01*
D40*
X145415000Y-97790000D02*
X146685000Y-96520000D01*
X145415000Y-101385000D02*
X145415000Y-97790000D01*
X143510000Y-97789992D02*
X145415000Y-95884992D01*
X143510000Y-101385000D02*
X143510000Y-97789992D01*
X147320000Y-101385000D02*
X147320000Y-98425000D01*
X147320000Y-98425000D02*
X147955010Y-97789990D01*
X147955010Y-97789990D02*
X147955010Y-95885000D01*
X149225000Y-101385000D02*
X149225000Y-96520000D01*
X167427800Y-129993510D02*
X168275000Y-130840710D01*
X168275000Y-130840710D02*
X168275000Y-139700000D01*
X168275000Y-139700000D02*
X171450000Y-142875000D01*
X171450000Y-142875000D02*
X173990000Y-142875000D01*
X167640000Y-128270000D02*
X168910000Y-129540000D01*
X171450000Y-141605000D02*
X174371000Y-141605000D01*
X168910000Y-129540000D02*
X168910000Y-139065000D01*
X168910000Y-139065000D02*
X171450000Y-141605000D01*
X164465000Y-142875000D02*
X167640000Y-139700000D01*
X167640000Y-139700000D02*
X167640000Y-132080000D01*
X167640000Y-132080000D02*
X167005000Y-131445000D01*
X131025000Y-130810000D02*
X132715000Y-130810000D01*
X119864933Y-133296119D02*
X119864933Y-133834933D01*
X124903752Y-128257300D02*
X119864933Y-133296119D01*
X127230000Y-128905000D02*
X126582300Y-128257300D01*
X128055000Y-128905000D02*
X127230000Y-128905000D01*
X126582300Y-128257300D02*
X124903752Y-128257300D01*
X126582300Y-127647700D02*
X124651248Y-127647700D01*
X127230000Y-127000000D02*
X126582300Y-127647700D01*
X128055000Y-127000000D02*
X127230000Y-127000000D01*
X119433881Y-132865067D02*
X118895067Y-132865067D01*
X124651248Y-127647700D02*
X119433881Y-132865067D01*
D43*
X122555000Y-132715000D02*
X122555000Y-136525000D01*
D40*
X115570000Y-136584092D02*
X115570000Y-139065000D01*
X114270454Y-135284546D02*
X115570000Y-136584092D01*
X160020000Y-120243600D02*
X167005000Y-120243600D01*
X167005000Y-120243600D02*
X168910000Y-118338600D01*
D39*
X136525000Y-128905000D02*
X135890000Y-128270000D01*
X135890000Y-128270000D02*
X135890000Y-125095000D01*
X136525000Y-131445000D02*
X136525000Y-128905000D01*
G36*
X119523684Y-94615000D02*
X119481812Y-94656872D01*
X119497745Y-94716600D01*
X119481600Y-94716600D01*
X119481600Y-94732745D01*
X119421872Y-94716812D01*
X119380000Y-94758684D01*
X119338128Y-94716812D01*
X119278400Y-94732745D01*
X119278400Y-94716600D01*
X119262254Y-94716600D01*
X119278188Y-94656872D01*
X119236316Y-94615000D01*
X119278188Y-94573128D01*
X119262254Y-94513400D01*
X119278400Y-94513400D01*
X119278400Y-94497254D01*
X119338128Y-94513188D01*
X119380000Y-94471316D01*
X119421872Y-94513188D01*
X119481600Y-94497254D01*
X119481600Y-94513400D01*
X119497745Y-94513400D01*
X119481812Y-94573128D01*
X119523684Y-94615000D01*
X119523684Y-94615000D01*
G37*
X119523684Y-94615000D02*
X119481812Y-94656872D01*
X119497745Y-94716600D01*
X119481600Y-94716600D01*
X119481600Y-94732745D01*
X119421872Y-94716812D01*
X119380000Y-94758684D01*
X119338128Y-94716812D01*
X119278400Y-94732745D01*
X119278400Y-94716600D01*
X119262254Y-94716600D01*
X119278188Y-94656872D01*
X119236316Y-94615000D01*
X119278188Y-94573128D01*
X119262254Y-94513400D01*
X119278400Y-94513400D01*
X119278400Y-94497254D01*
X119338128Y-94513188D01*
X119380000Y-94471316D01*
X119421872Y-94513188D01*
X119481600Y-94497254D01*
X119481600Y-94513400D01*
X119497745Y-94513400D01*
X119481812Y-94573128D01*
X119523684Y-94615000D01*
G36*
X119523684Y-111125000D02*
X119481812Y-111166872D01*
X119497745Y-111226600D01*
X119481600Y-111226600D01*
X119481600Y-111242745D01*
X119421872Y-111226812D01*
X119380000Y-111268684D01*
X119338128Y-111226812D01*
X119278400Y-111242745D01*
X119278400Y-111226600D01*
X119262254Y-111226600D01*
X119278188Y-111166872D01*
X119236316Y-111125000D01*
X119278188Y-111083128D01*
X119262254Y-111023400D01*
X119278400Y-111023400D01*
X119278400Y-111007254D01*
X119338128Y-111023188D01*
X119380000Y-110981316D01*
X119421872Y-111023188D01*
X119481600Y-111007254D01*
X119481600Y-111023400D01*
X119497745Y-111023400D01*
X119481812Y-111083128D01*
X119523684Y-111125000D01*
X119523684Y-111125000D01*
G37*
X119523684Y-111125000D02*
X119481812Y-111166872D01*
X119497745Y-111226600D01*
X119481600Y-111226600D01*
X119481600Y-111242745D01*
X119421872Y-111226812D01*
X119380000Y-111268684D01*
X119338128Y-111226812D01*
X119278400Y-111242745D01*
X119278400Y-111226600D01*
X119262254Y-111226600D01*
X119278188Y-111166872D01*
X119236316Y-111125000D01*
X119278188Y-111083128D01*
X119262254Y-111023400D01*
X119278400Y-111023400D01*
X119278400Y-111007254D01*
X119338128Y-111023188D01*
X119380000Y-110981316D01*
X119421872Y-111023188D01*
X119481600Y-111007254D01*
X119481600Y-111023400D01*
X119497745Y-111023400D01*
X119481812Y-111083128D01*
X119523684Y-111125000D01*
G36*
X126796800Y-84747021D02*
X126680602Y-84746920D01*
X126583400Y-84787083D01*
X126583400Y-83642900D01*
X126583400Y-82651600D01*
X126583400Y-82448400D01*
X126583400Y-81457100D01*
X126469100Y-81342800D01*
X125944057Y-81342800D01*
X125776017Y-81412405D01*
X125647404Y-81541017D01*
X125577800Y-81709058D01*
X125577800Y-81890943D01*
X125577800Y-82334100D01*
X125692100Y-82448400D01*
X126583400Y-82448400D01*
X126583400Y-82651600D01*
X125692100Y-82651600D01*
X125577800Y-82765900D01*
X125577800Y-83209057D01*
X125577800Y-83390942D01*
X125647404Y-83558983D01*
X125776017Y-83687595D01*
X125944057Y-83757200D01*
X126469100Y-83757200D01*
X126583400Y-83642900D01*
X126583400Y-84787083D01*
X126087615Y-84991937D01*
X125633532Y-85445229D01*
X125387480Y-86037787D01*
X125386920Y-86679398D01*
X125526800Y-87017933D01*
X125526800Y-88242267D01*
X125387480Y-88577787D01*
X125386920Y-89219398D01*
X125526800Y-89557933D01*
X125526800Y-95165832D01*
X124511029Y-96181603D01*
X124511029Y-93083429D01*
X124310373Y-92597804D01*
X123939150Y-92225933D01*
X123533080Y-92057318D01*
X123533080Y-88580602D01*
X123367800Y-88180593D01*
X123367800Y-87078902D01*
X123532520Y-86682213D01*
X123533080Y-86040602D01*
X123367800Y-85640593D01*
X123367800Y-84455000D01*
X123257593Y-83900951D01*
X122943749Y-83431251D01*
X121737778Y-82225280D01*
X121589177Y-81865638D01*
X120967250Y-81242625D01*
X120549253Y-81069057D01*
X120549253Y-79523789D01*
X119473043Y-78554765D01*
X118504018Y-79630975D01*
X118688238Y-79857695D01*
X119409600Y-80017447D01*
X120137187Y-79888986D01*
X120389741Y-79768523D01*
X120549253Y-79523789D01*
X120549253Y-81069057D01*
X120154247Y-80905036D01*
X119273941Y-80904268D01*
X118535438Y-81209411D01*
X118612119Y-80978952D01*
X118563606Y-80301520D01*
X118299392Y-79747586D01*
X118046639Y-79623918D01*
X117895632Y-79791628D01*
X117895632Y-79487951D01*
X117746222Y-79249509D01*
X117101791Y-79035088D01*
X116424359Y-79083601D01*
X115870425Y-79347815D01*
X115746757Y-79600568D01*
X116877503Y-80618697D01*
X117895632Y-79487951D01*
X117895632Y-79791628D01*
X117028510Y-80754664D01*
X118037176Y-81662872D01*
X117983239Y-81716713D01*
X117042851Y-80776325D01*
X116903573Y-80915602D01*
X116892543Y-80905671D01*
X116741536Y-81073381D01*
X116741536Y-80769704D01*
X115610790Y-79751575D01*
X115372348Y-79900985D01*
X115157927Y-80545416D01*
X115206440Y-81222848D01*
X115470654Y-81776782D01*
X115723407Y-81900450D01*
X116741536Y-80769704D01*
X116741536Y-81073381D01*
X115874414Y-82036417D01*
X116023824Y-82274859D01*
X116668255Y-82489280D01*
X117345687Y-82440767D01*
X117659270Y-82291194D01*
X117499748Y-82675367D01*
X117498980Y-83555673D01*
X117835149Y-84369264D01*
X118457076Y-84992277D01*
X118464278Y-84995267D01*
X118013532Y-85445229D01*
X117767480Y-86037787D01*
X117766920Y-86679398D01*
X118011937Y-87272385D01*
X118369154Y-87630225D01*
X118013532Y-87985229D01*
X117767480Y-88577787D01*
X117766920Y-89219398D01*
X118011937Y-89812385D01*
X118465229Y-90266468D01*
X119057787Y-90512520D01*
X119699398Y-90513080D01*
X120292385Y-90268063D01*
X120650225Y-89910845D01*
X121005229Y-90266468D01*
X121597787Y-90512520D01*
X122239398Y-90513080D01*
X122832385Y-90268063D01*
X123286468Y-89814771D01*
X123532520Y-89222213D01*
X123533080Y-88580602D01*
X123533080Y-92057318D01*
X123453876Y-92024430D01*
X122928429Y-92023971D01*
X122442804Y-92224627D01*
X122070933Y-92595850D01*
X121869430Y-93081124D01*
X121868971Y-93606571D01*
X122069627Y-94092196D01*
X122440850Y-94464067D01*
X122926124Y-94665570D01*
X123451571Y-94666029D01*
X123937196Y-94465373D01*
X124309067Y-94094150D01*
X124510570Y-93608876D01*
X124511029Y-93083429D01*
X124511029Y-96181603D01*
X123621800Y-97070832D01*
X123621800Y-104859168D01*
X124891800Y-106129168D01*
X124891800Y-119930832D01*
X124511029Y-120311603D01*
X124511029Y-108958429D01*
X124310373Y-108472804D01*
X123939150Y-108100933D01*
X123453876Y-107899430D01*
X122928429Y-107898971D01*
X122607115Y-108031735D01*
X122607115Y-99052429D01*
X122406459Y-98566804D01*
X122035236Y-98194933D01*
X121549962Y-97993430D01*
X121037200Y-97992982D01*
X121037200Y-95905942D01*
X121037200Y-95724057D01*
X121037200Y-94830900D01*
X120922900Y-94716600D01*
X120532254Y-94716600D01*
X120548188Y-94656872D01*
X120506316Y-94615000D01*
X120548188Y-94573128D01*
X120532254Y-94513400D01*
X120922900Y-94513400D01*
X121037200Y-94399100D01*
X121037200Y-93505943D01*
X121037200Y-93324058D01*
X120967596Y-93156017D01*
X120838983Y-93027405D01*
X120670943Y-92957800D01*
X119595900Y-92957800D01*
X119481600Y-93072100D01*
X119481600Y-93462745D01*
X119421872Y-93446812D01*
X119380000Y-93488684D01*
X119338128Y-93446812D01*
X119278400Y-93462745D01*
X119278400Y-93072100D01*
X119164100Y-92957800D01*
X118089057Y-92957800D01*
X117921017Y-93027405D01*
X117792404Y-93156017D01*
X117722800Y-93324058D01*
X117722800Y-93505943D01*
X117722800Y-94399100D01*
X117837100Y-94513400D01*
X118227745Y-94513400D01*
X118211812Y-94573128D01*
X118253684Y-94615000D01*
X118211812Y-94656872D01*
X118227745Y-94716600D01*
X117837100Y-94716600D01*
X117722800Y-94830900D01*
X117722800Y-95724057D01*
X117722800Y-95905942D01*
X117792404Y-96073983D01*
X117921017Y-96202595D01*
X118089057Y-96272200D01*
X119164100Y-96272200D01*
X119278400Y-96157900D01*
X119278400Y-95767254D01*
X119338128Y-95783188D01*
X119380000Y-95741316D01*
X119421872Y-95783188D01*
X119481600Y-95767254D01*
X119481600Y-96157900D01*
X119595900Y-96272200D01*
X120670943Y-96272200D01*
X120838983Y-96202595D01*
X120967596Y-96073983D01*
X121037200Y-95905942D01*
X121037200Y-97992982D01*
X121024515Y-97992971D01*
X120650221Y-98147625D01*
X120278876Y-97993430D01*
X119753429Y-97992971D01*
X119379679Y-98147400D01*
X119008876Y-97993430D01*
X118483429Y-97992971D01*
X117997804Y-98193627D01*
X117653029Y-98537801D01*
X117653029Y-97147435D01*
X117652800Y-97146880D01*
X117652800Y-96393580D01*
X117652800Y-96393000D01*
X117653029Y-96131429D01*
X117452373Y-95645804D01*
X117265947Y-95459053D01*
X117144800Y-95337694D01*
X117144800Y-95292512D01*
X117152724Y-95253000D01*
X117152724Y-94153000D01*
X117093554Y-93848043D01*
X117152724Y-93553000D01*
X117152724Y-92453000D01*
X117144800Y-92412160D01*
X117144800Y-92114104D01*
X117324067Y-91935150D01*
X117425260Y-91691449D01*
X117425260Y-91691448D01*
X117525570Y-91449876D01*
X117525800Y-91186000D01*
X117526029Y-90924429D01*
X117525800Y-90923874D01*
X117525800Y-90170580D01*
X117525800Y-90170000D01*
X117526029Y-89908429D01*
X117325373Y-89422804D01*
X117138947Y-89236053D01*
X116954150Y-89050933D01*
X116468876Y-88849430D01*
X115943429Y-88848971D01*
X115457804Y-89049627D01*
X115085933Y-89420850D01*
X114884430Y-89906124D01*
X114883971Y-90431571D01*
X114884200Y-90432125D01*
X114884200Y-90641812D01*
X114603740Y-91061552D01*
X114503199Y-91567000D01*
X114503200Y-91567005D01*
X114503200Y-92413487D01*
X114495276Y-92453000D01*
X114495276Y-93553000D01*
X114554445Y-93857956D01*
X114495276Y-94153000D01*
X114495276Y-95253000D01*
X114503200Y-95293839D01*
X114503200Y-95884994D01*
X114503199Y-95885000D01*
X114603740Y-96390448D01*
X114890053Y-96818947D01*
X115011200Y-96940093D01*
X115011200Y-97408425D01*
X115010971Y-97670577D01*
X115211627Y-98156202D01*
X115398053Y-98342953D01*
X115582850Y-98528073D01*
X115826552Y-98629266D01*
X116068124Y-98729576D01*
X116332000Y-98729806D01*
X116593571Y-98730035D01*
X116837448Y-98629266D01*
X117079196Y-98529379D01*
X117265947Y-98342953D01*
X117451067Y-98158156D01*
X117552260Y-97914454D01*
X117652570Y-97672882D01*
X117652800Y-97409006D01*
X117653029Y-97147435D01*
X117653029Y-98537801D01*
X117625933Y-98564850D01*
X117424430Y-99050124D01*
X117423971Y-99575571D01*
X117624627Y-100061196D01*
X117995850Y-100433067D01*
X118481124Y-100634570D01*
X119006571Y-100635029D01*
X119380320Y-100480599D01*
X119751124Y-100634570D01*
X120276571Y-100635029D01*
X120650864Y-100480374D01*
X121022210Y-100634570D01*
X121547657Y-100635029D01*
X122033282Y-100434373D01*
X122405153Y-100063150D01*
X122606656Y-99577876D01*
X122607115Y-99052429D01*
X122607115Y-108031735D01*
X122442804Y-108099627D01*
X122070933Y-108470850D01*
X121869430Y-108956124D01*
X121868971Y-109481571D01*
X122069627Y-109967196D01*
X122440850Y-110339067D01*
X122926124Y-110540570D01*
X123451571Y-110541029D01*
X123937196Y-110340373D01*
X124309067Y-109969150D01*
X124510570Y-109483876D01*
X124511029Y-108958429D01*
X124511029Y-120311603D01*
X123105832Y-121716800D01*
X122665356Y-121716800D01*
X122665356Y-115562429D01*
X122464700Y-115076804D01*
X122093477Y-114704933D01*
X121608203Y-114503430D01*
X121082756Y-114502971D01*
X121037200Y-114521794D01*
X121037200Y-112415942D01*
X121037200Y-112234057D01*
X121037200Y-111340900D01*
X120922900Y-111226600D01*
X120532254Y-111226600D01*
X120548188Y-111166872D01*
X120506316Y-111125000D01*
X120548188Y-111083128D01*
X120532254Y-111023400D01*
X120922900Y-111023400D01*
X121037200Y-110909100D01*
X121037200Y-110015943D01*
X121037200Y-109834058D01*
X120967596Y-109666017D01*
X120838983Y-109537405D01*
X120670943Y-109467800D01*
X119595900Y-109467800D01*
X119481600Y-109582100D01*
X119481600Y-109972745D01*
X119421872Y-109956812D01*
X119380000Y-109998684D01*
X119338128Y-109956812D01*
X119278400Y-109972745D01*
X119278400Y-109582100D01*
X119164100Y-109467800D01*
X118089057Y-109467800D01*
X117921017Y-109537405D01*
X117792404Y-109666017D01*
X117722800Y-109834058D01*
X117722800Y-110015943D01*
X117722800Y-110909100D01*
X117837100Y-111023400D01*
X118227745Y-111023400D01*
X118211812Y-111083128D01*
X118253684Y-111125000D01*
X118211812Y-111166872D01*
X118227745Y-111226600D01*
X117837100Y-111226600D01*
X117722800Y-111340900D01*
X117722800Y-112234057D01*
X117722800Y-112415942D01*
X117792404Y-112583983D01*
X117921017Y-112712595D01*
X118089057Y-112782200D01*
X119164100Y-112782200D01*
X119278400Y-112667900D01*
X119278400Y-112277254D01*
X119338128Y-112293188D01*
X119380000Y-112251316D01*
X119421872Y-112293188D01*
X119481600Y-112277254D01*
X119481600Y-112667900D01*
X119595900Y-112782200D01*
X120670943Y-112782200D01*
X120838983Y-112712595D01*
X120967596Y-112583983D01*
X121037200Y-112415942D01*
X121037200Y-114521794D01*
X120679270Y-114669687D01*
X120278876Y-114503430D01*
X119753429Y-114502971D01*
X119379679Y-114657400D01*
X119008876Y-114503430D01*
X118483429Y-114502971D01*
X117997804Y-114703627D01*
X117653029Y-115047801D01*
X117653029Y-113530429D01*
X117652800Y-113529874D01*
X117652800Y-112776580D01*
X117652800Y-112776000D01*
X117653029Y-112514429D01*
X117452373Y-112028804D01*
X117265947Y-111842053D01*
X117152724Y-111728631D01*
X117152724Y-110663000D01*
X117093554Y-110358043D01*
X117152724Y-110063000D01*
X117152724Y-108963000D01*
X117144800Y-108922160D01*
X117144800Y-108624104D01*
X117324067Y-108445150D01*
X117425260Y-108201449D01*
X117425260Y-108201448D01*
X117525570Y-107959876D01*
X117525800Y-107696000D01*
X117526029Y-107434429D01*
X117525800Y-107433874D01*
X117525800Y-106680558D01*
X117525800Y-106679978D01*
X117526029Y-106418407D01*
X117325373Y-105932782D01*
X117138947Y-105746031D01*
X116954150Y-105560911D01*
X116468876Y-105359408D01*
X115943429Y-105358949D01*
X115457804Y-105559605D01*
X115085933Y-105930828D01*
X114884430Y-106416102D01*
X114883971Y-106941549D01*
X114884200Y-106942103D01*
X114884200Y-107151812D01*
X114603740Y-107571552D01*
X114503199Y-108077000D01*
X114503200Y-108077005D01*
X114503200Y-108923487D01*
X114495276Y-108963000D01*
X114495276Y-110063000D01*
X114554445Y-110367956D01*
X114495276Y-110663000D01*
X114495276Y-111763000D01*
X114503200Y-111803839D01*
X114503200Y-112267994D01*
X114503199Y-112268000D01*
X114603740Y-112773448D01*
X114890053Y-113201947D01*
X115011200Y-113323093D01*
X115011200Y-113791419D01*
X115010971Y-114053571D01*
X115211627Y-114539196D01*
X115398053Y-114725947D01*
X115582850Y-114911067D01*
X115826552Y-115012260D01*
X116068124Y-115112570D01*
X116332000Y-115112800D01*
X116593571Y-115113029D01*
X116837448Y-115012260D01*
X117079196Y-114912373D01*
X117265947Y-114725947D01*
X117451067Y-114541150D01*
X117552260Y-114297448D01*
X117652570Y-114055876D01*
X117652800Y-113792000D01*
X117653029Y-113530429D01*
X117653029Y-115047801D01*
X117625933Y-115074850D01*
X117424430Y-115560124D01*
X117423971Y-116085571D01*
X117624627Y-116571196D01*
X117995850Y-116943067D01*
X118481124Y-117144570D01*
X119006571Y-117145029D01*
X119380320Y-116990599D01*
X119751124Y-117144570D01*
X120276571Y-117145029D01*
X120680056Y-116978312D01*
X121080451Y-117144570D01*
X121605898Y-117145029D01*
X122091523Y-116944373D01*
X122463394Y-116573150D01*
X122664897Y-116087876D01*
X122665356Y-115562429D01*
X122665356Y-121716800D01*
X112310832Y-121716800D01*
X111280262Y-122747369D01*
X110540800Y-122007906D01*
X110540800Y-120648343D01*
X110890009Y-120415009D01*
X111204428Y-119944447D01*
X111496124Y-120065570D01*
X112021571Y-120066029D01*
X112507196Y-119865373D01*
X112879067Y-119494150D01*
X113080570Y-119008876D01*
X113081029Y-118483429D01*
X112880373Y-117997804D01*
X112675394Y-117792467D01*
X112879067Y-117589150D01*
X113080570Y-117103876D01*
X113081029Y-116578429D01*
X113081029Y-108958429D01*
X112880373Y-108472804D01*
X112675394Y-108267467D01*
X112879067Y-108064150D01*
X113080570Y-107578876D01*
X113081029Y-107053429D01*
X113081029Y-101973429D01*
X112880373Y-101487804D01*
X112675394Y-101282467D01*
X112879067Y-101079150D01*
X113080570Y-100593876D01*
X113081029Y-100068429D01*
X113081029Y-92448429D01*
X112880373Y-91962804D01*
X112675394Y-91757467D01*
X112879067Y-91554150D01*
X113080570Y-91068876D01*
X113081029Y-90543429D01*
X112880373Y-90057804D01*
X112509150Y-89685933D01*
X112023876Y-89484430D01*
X111498429Y-89483971D01*
X111012804Y-89684627D01*
X110640933Y-90055850D01*
X110489877Y-90419632D01*
X110340373Y-90057804D01*
X109969150Y-89685933D01*
X109483876Y-89484430D01*
X108958429Y-89483971D01*
X108472804Y-89684627D01*
X108100933Y-90055850D01*
X107899430Y-90541124D01*
X107898971Y-91066571D01*
X108099627Y-91552196D01*
X108304611Y-91757538D01*
X108100933Y-91960862D01*
X107899430Y-92446136D01*
X107898971Y-92971583D01*
X108099627Y-93457208D01*
X108304599Y-93662538D01*
X108100933Y-93865850D01*
X107899430Y-94351124D01*
X107898971Y-94876571D01*
X108099627Y-95362196D01*
X108470850Y-95734067D01*
X108956124Y-95935570D01*
X109481571Y-95936029D01*
X109967196Y-95735373D01*
X110339067Y-95364150D01*
X110540570Y-94878876D01*
X110541029Y-94353429D01*
X110340373Y-93867804D01*
X110135400Y-93662473D01*
X110339067Y-93459162D01*
X110490125Y-93095373D01*
X110639627Y-93457196D01*
X111010850Y-93829067D01*
X111496124Y-94030570D01*
X112021571Y-94031029D01*
X112507196Y-93830373D01*
X112879067Y-93459150D01*
X113080570Y-92973876D01*
X113081029Y-92448429D01*
X113081029Y-100068429D01*
X112880373Y-99582804D01*
X112509150Y-99210933D01*
X112023876Y-99009430D01*
X111498429Y-99008971D01*
X111012804Y-99209627D01*
X110640933Y-99580850D01*
X110489886Y-99944611D01*
X110340391Y-99582804D01*
X110135403Y-99377458D01*
X110339067Y-99174150D01*
X110540570Y-98688876D01*
X110541029Y-98163429D01*
X110340373Y-97677804D01*
X109969150Y-97305933D01*
X109483876Y-97104430D01*
X108958429Y-97103971D01*
X108472804Y-97304627D01*
X108100933Y-97675850D01*
X107899430Y-98161124D01*
X107898971Y-98686571D01*
X108099627Y-99172196D01*
X108304614Y-99377541D01*
X108100951Y-99580850D01*
X107899448Y-100066124D01*
X107898989Y-100591571D01*
X108099645Y-101077196D01*
X108304614Y-101282523D01*
X108100933Y-101485850D01*
X107899430Y-101971124D01*
X107898971Y-102496571D01*
X108099627Y-102982196D01*
X108470850Y-103354067D01*
X108956124Y-103555570D01*
X109481571Y-103556029D01*
X109967196Y-103355373D01*
X110339067Y-102984150D01*
X110490122Y-102620367D01*
X110639627Y-102982196D01*
X111010850Y-103354067D01*
X111496124Y-103555570D01*
X112021571Y-103556029D01*
X112507196Y-103355373D01*
X112879067Y-102984150D01*
X113080570Y-102498876D01*
X113081029Y-101973429D01*
X113081029Y-107053429D01*
X112880373Y-106567804D01*
X112509150Y-106195933D01*
X112023876Y-105994430D01*
X111498429Y-105993971D01*
X111012804Y-106194627D01*
X110640933Y-106565850D01*
X110489877Y-106929632D01*
X110340373Y-106567804D01*
X109969150Y-106195933D01*
X109483876Y-105994430D01*
X108958429Y-105993971D01*
X108472804Y-106194627D01*
X108100933Y-106565850D01*
X107899430Y-107051124D01*
X107898971Y-107576571D01*
X108099627Y-108062196D01*
X108304605Y-108267532D01*
X108100933Y-108470850D01*
X107899430Y-108956124D01*
X107898971Y-109481571D01*
X108099627Y-109967196D01*
X108304605Y-110172532D01*
X108100933Y-110375850D01*
X107899430Y-110861124D01*
X107898971Y-111386571D01*
X108099627Y-111872196D01*
X108470850Y-112244067D01*
X108956124Y-112445570D01*
X109481571Y-112446029D01*
X109967196Y-112245373D01*
X110339067Y-111874150D01*
X110540570Y-111388876D01*
X110541029Y-110863429D01*
X110340373Y-110377804D01*
X110135394Y-110172467D01*
X110339067Y-109969150D01*
X110490122Y-109605367D01*
X110639627Y-109967196D01*
X111010850Y-110339067D01*
X111496124Y-110540570D01*
X112021571Y-110541029D01*
X112507196Y-110340373D01*
X112879067Y-109969150D01*
X113080570Y-109483876D01*
X113081029Y-108958429D01*
X113081029Y-116578429D01*
X112880373Y-116092804D01*
X112509150Y-115720933D01*
X112023876Y-115519430D01*
X111498429Y-115518971D01*
X111012804Y-115719627D01*
X110640933Y-116090850D01*
X110581541Y-116233879D01*
X110415142Y-116122695D01*
X110347132Y-116109167D01*
X110340373Y-116092808D01*
X110135387Y-115887464D01*
X110339067Y-115684140D01*
X110540570Y-115198866D01*
X110541029Y-114673419D01*
X110340373Y-114187794D01*
X109969150Y-113815923D01*
X109483876Y-113614420D01*
X108958429Y-113613961D01*
X108472804Y-113814617D01*
X108100933Y-114185840D01*
X107899430Y-114671114D01*
X107898971Y-115196561D01*
X108099627Y-115682186D01*
X108304612Y-115887529D01*
X108100933Y-116090854D01*
X107899430Y-116576128D01*
X107898971Y-117101575D01*
X108099627Y-117587200D01*
X108304608Y-117792539D01*
X108100933Y-117995860D01*
X107899430Y-118481134D01*
X107898971Y-119006581D01*
X107899200Y-119007135D01*
X107899200Y-122554994D01*
X107899199Y-122555000D01*
X107999740Y-123060448D01*
X108286053Y-123488947D01*
X109412369Y-124615262D01*
X109135832Y-124891800D01*
X102487800Y-124891800D01*
X102487800Y-124772724D01*
X103624000Y-124772724D01*
X103933918Y-124712592D01*
X104206307Y-124533662D01*
X104388642Y-124263540D01*
X104452724Y-123944000D01*
X104452724Y-122436000D01*
X104392592Y-122126082D01*
X104213662Y-121853693D01*
X103943540Y-121671358D01*
X103624000Y-121607276D01*
X102487800Y-121607276D01*
X102487800Y-87942724D01*
X103624000Y-87942724D01*
X103933918Y-87882592D01*
X104206307Y-87703662D01*
X104388642Y-87433540D01*
X104452724Y-87114000D01*
X104452724Y-85606000D01*
X104392592Y-85296082D01*
X104213662Y-85023693D01*
X103943540Y-84841358D01*
X103624000Y-84777276D01*
X102487800Y-84777276D01*
X102487800Y-78262124D01*
X117692494Y-77473124D01*
X117557339Y-78083420D01*
X117685800Y-78811007D01*
X117806263Y-79063561D01*
X118050997Y-79223073D01*
X119020021Y-78146863D01*
X118240194Y-77444703D01*
X118334912Y-77439787D01*
X119005287Y-78110162D01*
X119424600Y-77690848D01*
X119427923Y-77693841D01*
X119721458Y-77367837D01*
X119778873Y-77364857D01*
X119464624Y-77679107D01*
X119883937Y-78098420D01*
X119880945Y-78101743D01*
X120957155Y-79070768D01*
X121183875Y-78886548D01*
X121343627Y-78165186D01*
X121215166Y-77437599D01*
X121146616Y-77293883D01*
X125118017Y-77087800D01*
X126796800Y-77087800D01*
X126796800Y-81446900D01*
X126786600Y-81457100D01*
X126786600Y-82448400D01*
X126796800Y-82448400D01*
X126796800Y-82651600D01*
X126786600Y-82651600D01*
X126786600Y-83642900D01*
X126796800Y-83653100D01*
X126796800Y-84747021D01*
X126796800Y-84747021D01*
G37*
X126796800Y-84747021D02*
X126680602Y-84746920D01*
X126583400Y-84787083D01*
X126583400Y-83642900D01*
X126583400Y-82651600D01*
X126583400Y-82448400D01*
X126583400Y-81457100D01*
X126469100Y-81342800D01*
X125944057Y-81342800D01*
X125776017Y-81412405D01*
X125647404Y-81541017D01*
X125577800Y-81709058D01*
X125577800Y-81890943D01*
X125577800Y-82334100D01*
X125692100Y-82448400D01*
X126583400Y-82448400D01*
X126583400Y-82651600D01*
X125692100Y-82651600D01*
X125577800Y-82765900D01*
X125577800Y-83209057D01*
X125577800Y-83390942D01*
X125647404Y-83558983D01*
X125776017Y-83687595D01*
X125944057Y-83757200D01*
X126469100Y-83757200D01*
X126583400Y-83642900D01*
X126583400Y-84787083D01*
X126087615Y-84991937D01*
X125633532Y-85445229D01*
X125387480Y-86037787D01*
X125386920Y-86679398D01*
X125526800Y-87017933D01*
X125526800Y-88242267D01*
X125387480Y-88577787D01*
X125386920Y-89219398D01*
X125526800Y-89557933D01*
X125526800Y-95165832D01*
X124511029Y-96181603D01*
X124511029Y-93083429D01*
X124310373Y-92597804D01*
X123939150Y-92225933D01*
X123533080Y-92057318D01*
X123533080Y-88580602D01*
X123367800Y-88180593D01*
X123367800Y-87078902D01*
X123532520Y-86682213D01*
X123533080Y-86040602D01*
X123367800Y-85640593D01*
X123367800Y-84455000D01*
X123257593Y-83900951D01*
X122943749Y-83431251D01*
X121737778Y-82225280D01*
X121589177Y-81865638D01*
X120967250Y-81242625D01*
X120549253Y-81069057D01*
X120549253Y-79523789D01*
X119473043Y-78554765D01*
X118504018Y-79630975D01*
X118688238Y-79857695D01*
X119409600Y-80017447D01*
X120137187Y-79888986D01*
X120389741Y-79768523D01*
X120549253Y-79523789D01*
X120549253Y-81069057D01*
X120154247Y-80905036D01*
X119273941Y-80904268D01*
X118535438Y-81209411D01*
X118612119Y-80978952D01*
X118563606Y-80301520D01*
X118299392Y-79747586D01*
X118046639Y-79623918D01*
X117895632Y-79791628D01*
X117895632Y-79487951D01*
X117746222Y-79249509D01*
X117101791Y-79035088D01*
X116424359Y-79083601D01*
X115870425Y-79347815D01*
X115746757Y-79600568D01*
X116877503Y-80618697D01*
X117895632Y-79487951D01*
X117895632Y-79791628D01*
X117028510Y-80754664D01*
X118037176Y-81662872D01*
X117983239Y-81716713D01*
X117042851Y-80776325D01*
X116903573Y-80915602D01*
X116892543Y-80905671D01*
X116741536Y-81073381D01*
X116741536Y-80769704D01*
X115610790Y-79751575D01*
X115372348Y-79900985D01*
X115157927Y-80545416D01*
X115206440Y-81222848D01*
X115470654Y-81776782D01*
X115723407Y-81900450D01*
X116741536Y-80769704D01*
X116741536Y-81073381D01*
X115874414Y-82036417D01*
X116023824Y-82274859D01*
X116668255Y-82489280D01*
X117345687Y-82440767D01*
X117659270Y-82291194D01*
X117499748Y-82675367D01*
X117498980Y-83555673D01*
X117835149Y-84369264D01*
X118457076Y-84992277D01*
X118464278Y-84995267D01*
X118013532Y-85445229D01*
X117767480Y-86037787D01*
X117766920Y-86679398D01*
X118011937Y-87272385D01*
X118369154Y-87630225D01*
X118013532Y-87985229D01*
X117767480Y-88577787D01*
X117766920Y-89219398D01*
X118011937Y-89812385D01*
X118465229Y-90266468D01*
X119057787Y-90512520D01*
X119699398Y-90513080D01*
X120292385Y-90268063D01*
X120650225Y-89910845D01*
X121005229Y-90266468D01*
X121597787Y-90512520D01*
X122239398Y-90513080D01*
X122832385Y-90268063D01*
X123286468Y-89814771D01*
X123532520Y-89222213D01*
X123533080Y-88580602D01*
X123533080Y-92057318D01*
X123453876Y-92024430D01*
X122928429Y-92023971D01*
X122442804Y-92224627D01*
X122070933Y-92595850D01*
X121869430Y-93081124D01*
X121868971Y-93606571D01*
X122069627Y-94092196D01*
X122440850Y-94464067D01*
X122926124Y-94665570D01*
X123451571Y-94666029D01*
X123937196Y-94465373D01*
X124309067Y-94094150D01*
X124510570Y-93608876D01*
X124511029Y-93083429D01*
X124511029Y-96181603D01*
X123621800Y-97070832D01*
X123621800Y-104859168D01*
X124891800Y-106129168D01*
X124891800Y-119930832D01*
X124511029Y-120311603D01*
X124511029Y-108958429D01*
X124310373Y-108472804D01*
X123939150Y-108100933D01*
X123453876Y-107899430D01*
X122928429Y-107898971D01*
X122607115Y-108031735D01*
X122607115Y-99052429D01*
X122406459Y-98566804D01*
X122035236Y-98194933D01*
X121549962Y-97993430D01*
X121037200Y-97992982D01*
X121037200Y-95905942D01*
X121037200Y-95724057D01*
X121037200Y-94830900D01*
X120922900Y-94716600D01*
X120532254Y-94716600D01*
X120548188Y-94656872D01*
X120506316Y-94615000D01*
X120548188Y-94573128D01*
X120532254Y-94513400D01*
X120922900Y-94513400D01*
X121037200Y-94399100D01*
X121037200Y-93505943D01*
X121037200Y-93324058D01*
X120967596Y-93156017D01*
X120838983Y-93027405D01*
X120670943Y-92957800D01*
X119595900Y-92957800D01*
X119481600Y-93072100D01*
X119481600Y-93462745D01*
X119421872Y-93446812D01*
X119380000Y-93488684D01*
X119338128Y-93446812D01*
X119278400Y-93462745D01*
X119278400Y-93072100D01*
X119164100Y-92957800D01*
X118089057Y-92957800D01*
X117921017Y-93027405D01*
X117792404Y-93156017D01*
X117722800Y-93324058D01*
X117722800Y-93505943D01*
X117722800Y-94399100D01*
X117837100Y-94513400D01*
X118227745Y-94513400D01*
X118211812Y-94573128D01*
X118253684Y-94615000D01*
X118211812Y-94656872D01*
X118227745Y-94716600D01*
X117837100Y-94716600D01*
X117722800Y-94830900D01*
X117722800Y-95724057D01*
X117722800Y-95905942D01*
X117792404Y-96073983D01*
X117921017Y-96202595D01*
X118089057Y-96272200D01*
X119164100Y-96272200D01*
X119278400Y-96157900D01*
X119278400Y-95767254D01*
X119338128Y-95783188D01*
X119380000Y-95741316D01*
X119421872Y-95783188D01*
X119481600Y-95767254D01*
X119481600Y-96157900D01*
X119595900Y-96272200D01*
X120670943Y-96272200D01*
X120838983Y-96202595D01*
X120967596Y-96073983D01*
X121037200Y-95905942D01*
X121037200Y-97992982D01*
X121024515Y-97992971D01*
X120650221Y-98147625D01*
X120278876Y-97993430D01*
X119753429Y-97992971D01*
X119379679Y-98147400D01*
X119008876Y-97993430D01*
X118483429Y-97992971D01*
X117997804Y-98193627D01*
X117653029Y-98537801D01*
X117653029Y-97147435D01*
X117652800Y-97146880D01*
X117652800Y-96393580D01*
X117652800Y-96393000D01*
X117653029Y-96131429D01*
X117452373Y-95645804D01*
X117265947Y-95459053D01*
X117144800Y-95337694D01*
X117144800Y-95292512D01*
X117152724Y-95253000D01*
X117152724Y-94153000D01*
X117093554Y-93848043D01*
X117152724Y-93553000D01*
X117152724Y-92453000D01*
X117144800Y-92412160D01*
X117144800Y-92114104D01*
X117324067Y-91935150D01*
X117425260Y-91691449D01*
X117425260Y-91691448D01*
X117525570Y-91449876D01*
X117525800Y-91186000D01*
X117526029Y-90924429D01*
X117525800Y-90923874D01*
X117525800Y-90170580D01*
X117525800Y-90170000D01*
X117526029Y-89908429D01*
X117325373Y-89422804D01*
X117138947Y-89236053D01*
X116954150Y-89050933D01*
X116468876Y-88849430D01*
X115943429Y-88848971D01*
X115457804Y-89049627D01*
X115085933Y-89420850D01*
X114884430Y-89906124D01*
X114883971Y-90431571D01*
X114884200Y-90432125D01*
X114884200Y-90641812D01*
X114603740Y-91061552D01*
X114503199Y-91567000D01*
X114503200Y-91567005D01*
X114503200Y-92413487D01*
X114495276Y-92453000D01*
X114495276Y-93553000D01*
X114554445Y-93857956D01*
X114495276Y-94153000D01*
X114495276Y-95253000D01*
X114503200Y-95293839D01*
X114503200Y-95884994D01*
X114503199Y-95885000D01*
X114603740Y-96390448D01*
X114890053Y-96818947D01*
X115011200Y-96940093D01*
X115011200Y-97408425D01*
X115010971Y-97670577D01*
X115211627Y-98156202D01*
X115398053Y-98342953D01*
X115582850Y-98528073D01*
X115826552Y-98629266D01*
X116068124Y-98729576D01*
X116332000Y-98729806D01*
X116593571Y-98730035D01*
X116837448Y-98629266D01*
X117079196Y-98529379D01*
X117265947Y-98342953D01*
X117451067Y-98158156D01*
X117552260Y-97914454D01*
X117652570Y-97672882D01*
X117652800Y-97409006D01*
X117653029Y-97147435D01*
X117653029Y-98537801D01*
X117625933Y-98564850D01*
X117424430Y-99050124D01*
X117423971Y-99575571D01*
X117624627Y-100061196D01*
X117995850Y-100433067D01*
X118481124Y-100634570D01*
X119006571Y-100635029D01*
X119380320Y-100480599D01*
X119751124Y-100634570D01*
X120276571Y-100635029D01*
X120650864Y-100480374D01*
X121022210Y-100634570D01*
X121547657Y-100635029D01*
X122033282Y-100434373D01*
X122405153Y-100063150D01*
X122606656Y-99577876D01*
X122607115Y-99052429D01*
X122607115Y-108031735D01*
X122442804Y-108099627D01*
X122070933Y-108470850D01*
X121869430Y-108956124D01*
X121868971Y-109481571D01*
X122069627Y-109967196D01*
X122440850Y-110339067D01*
X122926124Y-110540570D01*
X123451571Y-110541029D01*
X123937196Y-110340373D01*
X124309067Y-109969150D01*
X124510570Y-109483876D01*
X124511029Y-108958429D01*
X124511029Y-120311603D01*
X123105832Y-121716800D01*
X122665356Y-121716800D01*
X122665356Y-115562429D01*
X122464700Y-115076804D01*
X122093477Y-114704933D01*
X121608203Y-114503430D01*
X121082756Y-114502971D01*
X121037200Y-114521794D01*
X121037200Y-112415942D01*
X121037200Y-112234057D01*
X121037200Y-111340900D01*
X120922900Y-111226600D01*
X120532254Y-111226600D01*
X120548188Y-111166872D01*
X120506316Y-111125000D01*
X120548188Y-111083128D01*
X120532254Y-111023400D01*
X120922900Y-111023400D01*
X121037200Y-110909100D01*
X121037200Y-110015943D01*
X121037200Y-109834058D01*
X120967596Y-109666017D01*
X120838983Y-109537405D01*
X120670943Y-109467800D01*
X119595900Y-109467800D01*
X119481600Y-109582100D01*
X119481600Y-109972745D01*
X119421872Y-109956812D01*
X119380000Y-109998684D01*
X119338128Y-109956812D01*
X119278400Y-109972745D01*
X119278400Y-109582100D01*
X119164100Y-109467800D01*
X118089057Y-109467800D01*
X117921017Y-109537405D01*
X117792404Y-109666017D01*
X117722800Y-109834058D01*
X117722800Y-110015943D01*
X117722800Y-110909100D01*
X117837100Y-111023400D01*
X118227745Y-111023400D01*
X118211812Y-111083128D01*
X118253684Y-111125000D01*
X118211812Y-111166872D01*
X118227745Y-111226600D01*
X117837100Y-111226600D01*
X117722800Y-111340900D01*
X117722800Y-112234057D01*
X117722800Y-112415942D01*
X117792404Y-112583983D01*
X117921017Y-112712595D01*
X118089057Y-112782200D01*
X119164100Y-112782200D01*
X119278400Y-112667900D01*
X119278400Y-112277254D01*
X119338128Y-112293188D01*
X119380000Y-112251316D01*
X119421872Y-112293188D01*
X119481600Y-112277254D01*
X119481600Y-112667900D01*
X119595900Y-112782200D01*
X120670943Y-112782200D01*
X120838983Y-112712595D01*
X120967596Y-112583983D01*
X121037200Y-112415942D01*
X121037200Y-114521794D01*
X120679270Y-114669687D01*
X120278876Y-114503430D01*
X119753429Y-114502971D01*
X119379679Y-114657400D01*
X119008876Y-114503430D01*
X118483429Y-114502971D01*
X117997804Y-114703627D01*
X117653029Y-115047801D01*
X117653029Y-113530429D01*
X117652800Y-113529874D01*
X117652800Y-112776580D01*
X117652800Y-112776000D01*
X117653029Y-112514429D01*
X117452373Y-112028804D01*
X117265947Y-111842053D01*
X117152724Y-111728631D01*
X117152724Y-110663000D01*
X117093554Y-110358043D01*
X117152724Y-110063000D01*
X117152724Y-108963000D01*
X117144800Y-108922160D01*
X117144800Y-108624104D01*
X117324067Y-108445150D01*
X117425260Y-108201449D01*
X117425260Y-108201448D01*
X117525570Y-107959876D01*
X117525800Y-107696000D01*
X117526029Y-107434429D01*
X117525800Y-107433874D01*
X117525800Y-106680558D01*
X117525800Y-106679978D01*
X117526029Y-106418407D01*
X117325373Y-105932782D01*
X117138947Y-105746031D01*
X116954150Y-105560911D01*
X116468876Y-105359408D01*
X115943429Y-105358949D01*
X115457804Y-105559605D01*
X115085933Y-105930828D01*
X114884430Y-106416102D01*
X114883971Y-106941549D01*
X114884200Y-106942103D01*
X114884200Y-107151812D01*
X114603740Y-107571552D01*
X114503199Y-108077000D01*
X114503200Y-108077005D01*
X114503200Y-108923487D01*
X114495276Y-108963000D01*
X114495276Y-110063000D01*
X114554445Y-110367956D01*
X114495276Y-110663000D01*
X114495276Y-111763000D01*
X114503200Y-111803839D01*
X114503200Y-112267994D01*
X114503199Y-112268000D01*
X114603740Y-112773448D01*
X114890053Y-113201947D01*
X115011200Y-113323093D01*
X115011200Y-113791419D01*
X115010971Y-114053571D01*
X115211627Y-114539196D01*
X115398053Y-114725947D01*
X115582850Y-114911067D01*
X115826552Y-115012260D01*
X116068124Y-115112570D01*
X116332000Y-115112800D01*
X116593571Y-115113029D01*
X116837448Y-115012260D01*
X117079196Y-114912373D01*
X117265947Y-114725947D01*
X117451067Y-114541150D01*
X117552260Y-114297448D01*
X117652570Y-114055876D01*
X117652800Y-113792000D01*
X117653029Y-113530429D01*
X117653029Y-115047801D01*
X117625933Y-115074850D01*
X117424430Y-115560124D01*
X117423971Y-116085571D01*
X117624627Y-116571196D01*
X117995850Y-116943067D01*
X118481124Y-117144570D01*
X119006571Y-117145029D01*
X119380320Y-116990599D01*
X119751124Y-117144570D01*
X120276571Y-117145029D01*
X120680056Y-116978312D01*
X121080451Y-117144570D01*
X121605898Y-117145029D01*
X122091523Y-116944373D01*
X122463394Y-116573150D01*
X122664897Y-116087876D01*
X122665356Y-115562429D01*
X122665356Y-121716800D01*
X112310832Y-121716800D01*
X111280262Y-122747369D01*
X110540800Y-122007906D01*
X110540800Y-120648343D01*
X110890009Y-120415009D01*
X111204428Y-119944447D01*
X111496124Y-120065570D01*
X112021571Y-120066029D01*
X112507196Y-119865373D01*
X112879067Y-119494150D01*
X113080570Y-119008876D01*
X113081029Y-118483429D01*
X112880373Y-117997804D01*
X112675394Y-117792467D01*
X112879067Y-117589150D01*
X113080570Y-117103876D01*
X113081029Y-116578429D01*
X113081029Y-108958429D01*
X112880373Y-108472804D01*
X112675394Y-108267467D01*
X112879067Y-108064150D01*
X113080570Y-107578876D01*
X113081029Y-107053429D01*
X113081029Y-101973429D01*
X112880373Y-101487804D01*
X112675394Y-101282467D01*
X112879067Y-101079150D01*
X113080570Y-100593876D01*
X113081029Y-100068429D01*
X113081029Y-92448429D01*
X112880373Y-91962804D01*
X112675394Y-91757467D01*
X112879067Y-91554150D01*
X113080570Y-91068876D01*
X113081029Y-90543429D01*
X112880373Y-90057804D01*
X112509150Y-89685933D01*
X112023876Y-89484430D01*
X111498429Y-89483971D01*
X111012804Y-89684627D01*
X110640933Y-90055850D01*
X110489877Y-90419632D01*
X110340373Y-90057804D01*
X109969150Y-89685933D01*
X109483876Y-89484430D01*
X108958429Y-89483971D01*
X108472804Y-89684627D01*
X108100933Y-90055850D01*
X107899430Y-90541124D01*
X107898971Y-91066571D01*
X108099627Y-91552196D01*
X108304611Y-91757538D01*
X108100933Y-91960862D01*
X107899430Y-92446136D01*
X107898971Y-92971583D01*
X108099627Y-93457208D01*
X108304599Y-93662538D01*
X108100933Y-93865850D01*
X107899430Y-94351124D01*
X107898971Y-94876571D01*
X108099627Y-95362196D01*
X108470850Y-95734067D01*
X108956124Y-95935570D01*
X109481571Y-95936029D01*
X109967196Y-95735373D01*
X110339067Y-95364150D01*
X110540570Y-94878876D01*
X110541029Y-94353429D01*
X110340373Y-93867804D01*
X110135400Y-93662473D01*
X110339067Y-93459162D01*
X110490125Y-93095373D01*
X110639627Y-93457196D01*
X111010850Y-93829067D01*
X111496124Y-94030570D01*
X112021571Y-94031029D01*
X112507196Y-93830373D01*
X112879067Y-93459150D01*
X113080570Y-92973876D01*
X113081029Y-92448429D01*
X113081029Y-100068429D01*
X112880373Y-99582804D01*
X112509150Y-99210933D01*
X112023876Y-99009430D01*
X111498429Y-99008971D01*
X111012804Y-99209627D01*
X110640933Y-99580850D01*
X110489886Y-99944611D01*
X110340391Y-99582804D01*
X110135403Y-99377458D01*
X110339067Y-99174150D01*
X110540570Y-98688876D01*
X110541029Y-98163429D01*
X110340373Y-97677804D01*
X109969150Y-97305933D01*
X109483876Y-97104430D01*
X108958429Y-97103971D01*
X108472804Y-97304627D01*
X108100933Y-97675850D01*
X107899430Y-98161124D01*
X107898971Y-98686571D01*
X108099627Y-99172196D01*
X108304614Y-99377541D01*
X108100951Y-99580850D01*
X107899448Y-100066124D01*
X107898989Y-100591571D01*
X108099645Y-101077196D01*
X108304614Y-101282523D01*
X108100933Y-101485850D01*
X107899430Y-101971124D01*
X107898971Y-102496571D01*
X108099627Y-102982196D01*
X108470850Y-103354067D01*
X108956124Y-103555570D01*
X109481571Y-103556029D01*
X109967196Y-103355373D01*
X110339067Y-102984150D01*
X110490122Y-102620367D01*
X110639627Y-102982196D01*
X111010850Y-103354067D01*
X111496124Y-103555570D01*
X112021571Y-103556029D01*
X112507196Y-103355373D01*
X112879067Y-102984150D01*
X113080570Y-102498876D01*
X113081029Y-101973429D01*
X113081029Y-107053429D01*
X112880373Y-106567804D01*
X112509150Y-106195933D01*
X112023876Y-105994430D01*
X111498429Y-105993971D01*
X111012804Y-106194627D01*
X110640933Y-106565850D01*
X110489877Y-106929632D01*
X110340373Y-106567804D01*
X109969150Y-106195933D01*
X109483876Y-105994430D01*
X108958429Y-105993971D01*
X108472804Y-106194627D01*
X108100933Y-106565850D01*
X107899430Y-107051124D01*
X107898971Y-107576571D01*
X108099627Y-108062196D01*
X108304605Y-108267532D01*
X108100933Y-108470850D01*
X107899430Y-108956124D01*
X107898971Y-109481571D01*
X108099627Y-109967196D01*
X108304605Y-110172532D01*
X108100933Y-110375850D01*
X107899430Y-110861124D01*
X107898971Y-111386571D01*
X108099627Y-111872196D01*
X108470850Y-112244067D01*
X108956124Y-112445570D01*
X109481571Y-112446029D01*
X109967196Y-112245373D01*
X110339067Y-111874150D01*
X110540570Y-111388876D01*
X110541029Y-110863429D01*
X110340373Y-110377804D01*
X110135394Y-110172467D01*
X110339067Y-109969150D01*
X110490122Y-109605367D01*
X110639627Y-109967196D01*
X111010850Y-110339067D01*
X111496124Y-110540570D01*
X112021571Y-110541029D01*
X112507196Y-110340373D01*
X112879067Y-109969150D01*
X113080570Y-109483876D01*
X113081029Y-108958429D01*
X113081029Y-116578429D01*
X112880373Y-116092804D01*
X112509150Y-115720933D01*
X112023876Y-115519430D01*
X111498429Y-115518971D01*
X111012804Y-115719627D01*
X110640933Y-116090850D01*
X110581541Y-116233879D01*
X110415142Y-116122695D01*
X110347132Y-116109167D01*
X110340373Y-116092808D01*
X110135387Y-115887464D01*
X110339067Y-115684140D01*
X110540570Y-115198866D01*
X110541029Y-114673419D01*
X110340373Y-114187794D01*
X109969150Y-113815923D01*
X109483876Y-113614420D01*
X108958429Y-113613961D01*
X108472804Y-113814617D01*
X108100933Y-114185840D01*
X107899430Y-114671114D01*
X107898971Y-115196561D01*
X108099627Y-115682186D01*
X108304612Y-115887529D01*
X108100933Y-116090854D01*
X107899430Y-116576128D01*
X107898971Y-117101575D01*
X108099627Y-117587200D01*
X108304608Y-117792539D01*
X108100933Y-117995860D01*
X107899430Y-118481134D01*
X107898971Y-119006581D01*
X107899200Y-119007135D01*
X107899200Y-122554994D01*
X107899199Y-122555000D01*
X107999740Y-123060448D01*
X108286053Y-123488947D01*
X109412369Y-124615262D01*
X109135832Y-124891800D01*
X102487800Y-124891800D01*
X102487800Y-124772724D01*
X103624000Y-124772724D01*
X103933918Y-124712592D01*
X104206307Y-124533662D01*
X104388642Y-124263540D01*
X104452724Y-123944000D01*
X104452724Y-122436000D01*
X104392592Y-122126082D01*
X104213662Y-121853693D01*
X103943540Y-121671358D01*
X103624000Y-121607276D01*
X102487800Y-121607276D01*
X102487800Y-87942724D01*
X103624000Y-87942724D01*
X103933918Y-87882592D01*
X104206307Y-87703662D01*
X104388642Y-87433540D01*
X104452724Y-87114000D01*
X104452724Y-85606000D01*
X104392592Y-85296082D01*
X104213662Y-85023693D01*
X103943540Y-84841358D01*
X103624000Y-84777276D01*
X102487800Y-84777276D01*
X102487800Y-78262124D01*
X117692494Y-77473124D01*
X117557339Y-78083420D01*
X117685800Y-78811007D01*
X117806263Y-79063561D01*
X118050997Y-79223073D01*
X119020021Y-78146863D01*
X118240194Y-77444703D01*
X118334912Y-77439787D01*
X119005287Y-78110162D01*
X119424600Y-77690848D01*
X119427923Y-77693841D01*
X119721458Y-77367837D01*
X119778873Y-77364857D01*
X119464624Y-77679107D01*
X119883937Y-78098420D01*
X119880945Y-78101743D01*
X120957155Y-79070768D01*
X121183875Y-78886548D01*
X121343627Y-78165186D01*
X121215166Y-77437599D01*
X121146616Y-77293883D01*
X125118017Y-77087800D01*
X126796800Y-77087800D01*
X126796800Y-81446900D01*
X126786600Y-81457100D01*
X126786600Y-82448400D01*
X126796800Y-82448400D01*
X126796800Y-82651600D01*
X126786600Y-82651600D01*
X126786600Y-83642900D01*
X126796800Y-83653100D01*
X126796800Y-84747021D01*
D40*
G36*
X174550000Y-119888000D02*
X174002200Y-119888000D01*
X174002200Y-118525750D01*
X174002200Y-117767800D01*
X172944250Y-117767800D01*
X172849000Y-117863050D01*
X172849000Y-118315786D01*
X172907004Y-118455820D01*
X173014181Y-118562996D01*
X173154215Y-118621000D01*
X173305786Y-118621000D01*
X173906950Y-118621000D01*
X174002200Y-118525750D01*
X174002200Y-119888000D01*
X172212000Y-119888000D01*
X172212000Y-118057395D01*
X171502605Y-117348000D01*
X170180198Y-117348000D01*
X170180198Y-106961641D01*
X170006554Y-106541388D01*
X169685303Y-106219577D01*
X169265354Y-106045199D01*
X168810641Y-106044802D01*
X168390388Y-106218446D01*
X168068577Y-106539697D01*
X167938823Y-106852177D01*
X167628388Y-106980446D01*
X167306577Y-107301697D01*
X167132199Y-107721646D01*
X167131802Y-108176359D01*
X167300850Y-108585488D01*
X167132199Y-108991646D01*
X167131802Y-109446359D01*
X167305446Y-109866612D01*
X167626697Y-110188423D01*
X168046646Y-110362801D01*
X168501359Y-110363198D01*
X168921612Y-110189554D01*
X169243423Y-109868303D01*
X169417801Y-109448354D01*
X169418198Y-108993641D01*
X169249149Y-108584511D01*
X169373176Y-108285822D01*
X169683612Y-108157554D01*
X170005423Y-107836303D01*
X170179801Y-107416354D01*
X170180198Y-106961641D01*
X170180198Y-117348000D01*
X169504894Y-117348000D01*
X169138354Y-117195799D01*
X168782889Y-117195488D01*
X168783198Y-116842241D01*
X168609554Y-116421988D01*
X168288303Y-116100177D01*
X167868354Y-115925799D01*
X167413641Y-115925402D01*
X166993388Y-116099046D01*
X166785472Y-116306600D01*
X165735000Y-116306600D01*
X165443395Y-116364604D01*
X165196185Y-116529785D01*
X164377970Y-117348000D01*
X164377969Y-117348000D01*
X160061000Y-117348000D01*
X160061000Y-115815786D01*
X160061000Y-115513050D01*
X159965750Y-115417800D01*
X159257800Y-115417800D01*
X159257800Y-116025750D01*
X159353050Y-116121000D01*
X159604214Y-116121000D01*
X159755785Y-116121000D01*
X159895819Y-116062996D01*
X160002996Y-115955820D01*
X160061000Y-115815786D01*
X160061000Y-117348000D01*
X159437605Y-117348000D01*
X158877000Y-116787395D01*
X158877000Y-116050950D01*
X158902200Y-116025750D01*
X158902200Y-115417800D01*
X158882200Y-115417800D01*
X158882200Y-115062200D01*
X158902200Y-115062200D01*
X158902200Y-115042200D01*
X159257800Y-115042200D01*
X159257800Y-115062200D01*
X159965750Y-115062200D01*
X160061000Y-114966950D01*
X160061000Y-114664214D01*
X160023561Y-114573828D01*
X160134927Y-114500673D01*
X160277377Y-114289640D01*
X160327440Y-114040000D01*
X160327440Y-113340000D01*
X160287994Y-113136695D01*
X160327440Y-112940000D01*
X160327440Y-112240000D01*
X160287994Y-112036695D01*
X160327440Y-111840000D01*
X160327440Y-111140000D01*
X160287994Y-110936695D01*
X160327440Y-110740000D01*
X160327440Y-110040000D01*
X160287994Y-109836695D01*
X160327440Y-109640000D01*
X160327440Y-108940000D01*
X160287994Y-108736695D01*
X160327440Y-108540000D01*
X160327440Y-107840000D01*
X160287994Y-107636695D01*
X160327440Y-107440000D01*
X160327440Y-106740000D01*
X160287994Y-106536695D01*
X160327440Y-106340000D01*
X160327440Y-105640000D01*
X160300321Y-105500228D01*
X160327440Y-105365000D01*
X160327440Y-104775000D01*
X162444237Y-104775000D01*
X162457004Y-104805820D01*
X162564181Y-104912996D01*
X162704215Y-104971000D01*
X162855786Y-104971000D01*
X163106950Y-104971000D01*
X163202200Y-104875750D01*
X163202200Y-104267800D01*
X163182200Y-104267800D01*
X163182200Y-103912200D01*
X163202200Y-103912200D01*
X163202200Y-103304250D01*
X163106950Y-103209000D01*
X162855786Y-103209000D01*
X162704215Y-103209000D01*
X162564181Y-103267004D01*
X162457004Y-103374180D01*
X162455421Y-103378000D01*
X159385000Y-103378000D01*
X159385000Y-104067560D01*
X158877000Y-104067560D01*
X158877000Y-102922605D01*
X159437605Y-102362000D01*
X160056081Y-102362000D01*
X160074537Y-102457123D01*
X160214327Y-102669927D01*
X160425360Y-102812377D01*
X160675000Y-102862440D01*
X164485000Y-102862440D01*
X164727123Y-102815463D01*
X164939927Y-102675673D01*
X165082377Y-102464640D01*
X165102960Y-102362000D01*
X170232605Y-102362000D01*
X172847000Y-99747605D01*
X172847000Y-86942395D01*
X171784075Y-85879470D01*
X171784505Y-85386789D01*
X171566500Y-84859176D01*
X171163180Y-84455152D01*
X170635948Y-84236226D01*
X170140398Y-84235793D01*
X168327605Y-82423000D01*
X162588704Y-82423000D01*
X162582006Y-81661818D01*
X162457324Y-81266378D01*
X162232374Y-81040613D01*
X161873184Y-81342009D01*
X161873184Y-80612547D01*
X161689911Y-80351811D01*
X160940741Y-80049192D01*
X160132790Y-80056302D01*
X159737350Y-80180984D01*
X159511585Y-80405934D01*
X160589078Y-81690040D01*
X161873184Y-80612547D01*
X161873184Y-81342009D01*
X160967812Y-82101706D01*
X160963915Y-82097809D01*
X160568781Y-82492943D01*
X161503116Y-83427278D01*
X161402097Y-83528297D01*
X160520202Y-82477296D01*
X160161012Y-82778692D01*
X160161012Y-82049230D01*
X159083519Y-80765124D01*
X158822783Y-80948397D01*
X158520164Y-81697567D01*
X158527274Y-82505518D01*
X158651956Y-82900958D01*
X158876906Y-83126723D01*
X160161012Y-82049230D01*
X160161012Y-82778692D01*
X159236096Y-83554789D01*
X159419369Y-83815525D01*
X160168539Y-84118144D01*
X160817965Y-84112429D01*
X159893000Y-85037395D01*
X159893000Y-85672395D01*
X159332395Y-86233000D01*
X131622000Y-86233000D01*
X131210185Y-85821185D01*
X130962975Y-85656004D01*
X130787352Y-85621070D01*
X130757243Y-85548200D01*
X130353923Y-85144176D01*
X129826691Y-84925250D01*
X129616000Y-84925066D01*
X129616000Y-83375785D01*
X129616000Y-83224214D01*
X129616000Y-82823050D01*
X129616000Y-82276950D01*
X129616000Y-81875786D01*
X129616000Y-81724215D01*
X129557996Y-81584181D01*
X129450820Y-81477004D01*
X129310786Y-81419000D01*
X128858050Y-81419000D01*
X128762800Y-81514250D01*
X128762800Y-82372200D01*
X129520750Y-82372200D01*
X129616000Y-82276950D01*
X129616000Y-82823050D01*
X129520750Y-82727800D01*
X128762800Y-82727800D01*
X128762800Y-83585750D01*
X128858050Y-83681000D01*
X129310786Y-83681000D01*
X129450820Y-83622996D01*
X129557996Y-83515819D01*
X129616000Y-83375785D01*
X129616000Y-84925066D01*
X129255813Y-84924752D01*
X128728200Y-85142757D01*
X128397000Y-85473379D01*
X128397000Y-83595950D01*
X128407200Y-83585750D01*
X128407200Y-82727800D01*
X128397000Y-82727800D01*
X128397000Y-82372200D01*
X128407200Y-82372200D01*
X128407200Y-81514250D01*
X128397000Y-81504050D01*
X128397000Y-76910000D01*
X130862000Y-76910000D01*
X130862000Y-84455000D01*
X130916046Y-84726705D01*
X131069954Y-84957046D01*
X131300295Y-85110954D01*
X131572000Y-85165000D01*
X147828000Y-85165000D01*
X148099705Y-85110954D01*
X148330046Y-84957046D01*
X148483954Y-84726705D01*
X148538000Y-84455000D01*
X148538000Y-76910000D01*
X153003817Y-76910000D01*
X174550000Y-78806064D01*
X174550000Y-81404168D01*
X174030739Y-81194419D01*
X173222788Y-81201529D01*
X172827348Y-81326211D01*
X172601583Y-81551161D01*
X173662676Y-82815722D01*
X173658779Y-82819620D01*
X174053913Y-83214754D01*
X174550000Y-82718667D01*
X174550000Y-82833937D01*
X174057810Y-83246933D01*
X174053913Y-83243036D01*
X173658779Y-83638170D01*
X174550000Y-84529391D01*
X174550000Y-84742532D01*
X173610200Y-83622523D01*
X173251010Y-83923919D01*
X173251010Y-83194457D01*
X172173517Y-81910351D01*
X171912781Y-82093624D01*
X171610162Y-82842794D01*
X171617272Y-83650745D01*
X171741954Y-84046185D01*
X171966904Y-84271950D01*
X173251010Y-83194457D01*
X173251010Y-83923919D01*
X172326094Y-84700016D01*
X172509367Y-84960752D01*
X173258537Y-85263371D01*
X174066488Y-85256261D01*
X174461928Y-85131579D01*
X174550000Y-85043824D01*
X174550000Y-103209000D01*
X174104650Y-103209000D01*
X174009400Y-103304250D01*
X174009400Y-103840000D01*
X174029400Y-103840000D01*
X174029400Y-104340000D01*
X174009400Y-104340000D01*
X174009400Y-104875750D01*
X174104650Y-104971000D01*
X174550000Y-104971000D01*
X174550000Y-113411000D01*
X174231492Y-113411000D01*
X173951443Y-113466705D01*
X173703425Y-113632425D01*
X173537705Y-113880443D01*
X173482000Y-114160492D01*
X173482000Y-116090508D01*
X173537705Y-116370557D01*
X173663618Y-116559000D01*
X173450600Y-116559000D01*
X173450600Y-104875750D01*
X173450600Y-104340000D01*
X173450600Y-103840000D01*
X173450600Y-103304250D01*
X173355350Y-103209000D01*
X172405786Y-103209000D01*
X172254215Y-103209000D01*
X172114181Y-103267004D01*
X172007004Y-103374180D01*
X171949000Y-103514214D01*
X171949000Y-103744750D01*
X172044250Y-103840000D01*
X173450600Y-103840000D01*
X173450600Y-104340000D01*
X172044250Y-104340000D01*
X171949000Y-104435250D01*
X171949000Y-104521000D01*
X170627440Y-104521000D01*
X170627440Y-103590000D01*
X170580463Y-103347877D01*
X170440673Y-103135073D01*
X170229640Y-102992623D01*
X169980000Y-102942560D01*
X169180000Y-102942560D01*
X168937877Y-102989537D01*
X168725073Y-103129327D01*
X168582623Y-103340360D01*
X168532560Y-103590000D01*
X168532560Y-104521000D01*
X167894000Y-104521000D01*
X167894000Y-103378000D01*
X164304578Y-103378000D01*
X164302996Y-103374180D01*
X164195819Y-103267004D01*
X164055785Y-103209000D01*
X163904214Y-103209000D01*
X163653050Y-103209000D01*
X163557800Y-103304250D01*
X163557800Y-103912200D01*
X163577800Y-103912200D01*
X163577800Y-104267800D01*
X163557800Y-104267800D01*
X163557800Y-104875750D01*
X163653050Y-104971000D01*
X163904214Y-104971000D01*
X164055785Y-104971000D01*
X164195819Y-104912996D01*
X164206815Y-104902000D01*
X165100000Y-104902000D01*
X165100000Y-105283000D01*
X163830000Y-105283000D01*
X163830000Y-106172000D01*
X163830000Y-114427000D01*
X165989000Y-114427000D01*
X165989000Y-105791000D01*
X173228000Y-105791000D01*
X173228000Y-104971000D01*
X173355350Y-104971000D01*
X173450600Y-104875750D01*
X173450600Y-116559000D01*
X173305786Y-116559000D01*
X173154215Y-116559000D01*
X173014181Y-116617004D01*
X172907004Y-116724180D01*
X172849000Y-116864214D01*
X172849000Y-117316950D01*
X172944250Y-117412200D01*
X174002200Y-117412200D01*
X174002200Y-117392200D01*
X174357800Y-117392200D01*
X174357800Y-117412200D01*
X174377800Y-117412200D01*
X174377800Y-117767800D01*
X174357800Y-117767800D01*
X174357800Y-118525750D01*
X174453050Y-118621000D01*
X174550000Y-118621000D01*
X174550000Y-119888000D01*
X174550000Y-119888000D01*
G37*
X174550000Y-119888000D02*
X174002200Y-119888000D01*
X174002200Y-118525750D01*
X174002200Y-117767800D01*
X172944250Y-117767800D01*
X172849000Y-117863050D01*
X172849000Y-118315786D01*
X172907004Y-118455820D01*
X173014181Y-118562996D01*
X173154215Y-118621000D01*
X173305786Y-118621000D01*
X173906950Y-118621000D01*
X174002200Y-118525750D01*
X174002200Y-119888000D01*
X172212000Y-119888000D01*
X172212000Y-118057395D01*
X171502605Y-117348000D01*
X170180198Y-117348000D01*
X170180198Y-106961641D01*
X170006554Y-106541388D01*
X169685303Y-106219577D01*
X169265354Y-106045199D01*
X168810641Y-106044802D01*
X168390388Y-106218446D01*
X168068577Y-106539697D01*
X167938823Y-106852177D01*
X167628388Y-106980446D01*
X167306577Y-107301697D01*
X167132199Y-107721646D01*
X167131802Y-108176359D01*
X167300850Y-108585488D01*
X167132199Y-108991646D01*
X167131802Y-109446359D01*
X167305446Y-109866612D01*
X167626697Y-110188423D01*
X168046646Y-110362801D01*
X168501359Y-110363198D01*
X168921612Y-110189554D01*
X169243423Y-109868303D01*
X169417801Y-109448354D01*
X169418198Y-108993641D01*
X169249149Y-108584511D01*
X169373176Y-108285822D01*
X169683612Y-108157554D01*
X170005423Y-107836303D01*
X170179801Y-107416354D01*
X170180198Y-106961641D01*
X170180198Y-117348000D01*
X169504894Y-117348000D01*
X169138354Y-117195799D01*
X168782889Y-117195488D01*
X168783198Y-116842241D01*
X168609554Y-116421988D01*
X168288303Y-116100177D01*
X167868354Y-115925799D01*
X167413641Y-115925402D01*
X166993388Y-116099046D01*
X166785472Y-116306600D01*
X165735000Y-116306600D01*
X165443395Y-116364604D01*
X165196185Y-116529785D01*
X164377970Y-117348000D01*
X164377969Y-117348000D01*
X160061000Y-117348000D01*
X160061000Y-115815786D01*
X160061000Y-115513050D01*
X159965750Y-115417800D01*
X159257800Y-115417800D01*
X159257800Y-116025750D01*
X159353050Y-116121000D01*
X159604214Y-116121000D01*
X159755785Y-116121000D01*
X159895819Y-116062996D01*
X160002996Y-115955820D01*
X160061000Y-115815786D01*
X160061000Y-117348000D01*
X159437605Y-117348000D01*
X158877000Y-116787395D01*
X158877000Y-116050950D01*
X158902200Y-116025750D01*
X158902200Y-115417800D01*
X158882200Y-115417800D01*
X158882200Y-115062200D01*
X158902200Y-115062200D01*
X158902200Y-115042200D01*
X159257800Y-115042200D01*
X159257800Y-115062200D01*
X159965750Y-115062200D01*
X160061000Y-114966950D01*
X160061000Y-114664214D01*
X160023561Y-114573828D01*
X160134927Y-114500673D01*
X160277377Y-114289640D01*
X160327440Y-114040000D01*
X160327440Y-113340000D01*
X160287994Y-113136695D01*
X160327440Y-112940000D01*
X160327440Y-112240000D01*
X160287994Y-112036695D01*
X160327440Y-111840000D01*
X160327440Y-111140000D01*
X160287994Y-110936695D01*
X160327440Y-110740000D01*
X160327440Y-110040000D01*
X160287994Y-109836695D01*
X160327440Y-109640000D01*
X160327440Y-108940000D01*
X160287994Y-108736695D01*
X160327440Y-108540000D01*
X160327440Y-107840000D01*
X160287994Y-107636695D01*
X160327440Y-107440000D01*
X160327440Y-106740000D01*
X160287994Y-106536695D01*
X160327440Y-106340000D01*
X160327440Y-105640000D01*
X160300321Y-105500228D01*
X160327440Y-105365000D01*
X160327440Y-104775000D01*
X162444237Y-104775000D01*
X162457004Y-104805820D01*
X162564181Y-104912996D01*
X162704215Y-104971000D01*
X162855786Y-104971000D01*
X163106950Y-104971000D01*
X163202200Y-104875750D01*
X163202200Y-104267800D01*
X163182200Y-104267800D01*
X163182200Y-103912200D01*
X163202200Y-103912200D01*
X163202200Y-103304250D01*
X163106950Y-103209000D01*
X162855786Y-103209000D01*
X162704215Y-103209000D01*
X162564181Y-103267004D01*
X162457004Y-103374180D01*
X162455421Y-103378000D01*
X159385000Y-103378000D01*
X159385000Y-104067560D01*
X158877000Y-104067560D01*
X158877000Y-102922605D01*
X159437605Y-102362000D01*
X160056081Y-102362000D01*
X160074537Y-102457123D01*
X160214327Y-102669927D01*
X160425360Y-102812377D01*
X160675000Y-102862440D01*
X164485000Y-102862440D01*
X164727123Y-102815463D01*
X164939927Y-102675673D01*
X165082377Y-102464640D01*
X165102960Y-102362000D01*
X170232605Y-102362000D01*
X172847000Y-99747605D01*
X172847000Y-86942395D01*
X171784075Y-85879470D01*
X171784505Y-85386789D01*
X171566500Y-84859176D01*
X171163180Y-84455152D01*
X170635948Y-84236226D01*
X170140398Y-84235793D01*
X168327605Y-82423000D01*
X162588704Y-82423000D01*
X162582006Y-81661818D01*
X162457324Y-81266378D01*
X162232374Y-81040613D01*
X161873184Y-81342009D01*
X161873184Y-80612547D01*
X161689911Y-80351811D01*
X160940741Y-80049192D01*
X160132790Y-80056302D01*
X159737350Y-80180984D01*
X159511585Y-80405934D01*
X160589078Y-81690040D01*
X161873184Y-80612547D01*
X161873184Y-81342009D01*
X160967812Y-82101706D01*
X160963915Y-82097809D01*
X160568781Y-82492943D01*
X161503116Y-83427278D01*
X161402097Y-83528297D01*
X160520202Y-82477296D01*
X160161012Y-82778692D01*
X160161012Y-82049230D01*
X159083519Y-80765124D01*
X158822783Y-80948397D01*
X158520164Y-81697567D01*
X158527274Y-82505518D01*
X158651956Y-82900958D01*
X158876906Y-83126723D01*
X160161012Y-82049230D01*
X160161012Y-82778692D01*
X159236096Y-83554789D01*
X159419369Y-83815525D01*
X160168539Y-84118144D01*
X160817965Y-84112429D01*
X159893000Y-85037395D01*
X159893000Y-85672395D01*
X159332395Y-86233000D01*
X131622000Y-86233000D01*
X131210185Y-85821185D01*
X130962975Y-85656004D01*
X130787352Y-85621070D01*
X130757243Y-85548200D01*
X130353923Y-85144176D01*
X129826691Y-84925250D01*
X129616000Y-84925066D01*
X129616000Y-83375785D01*
X129616000Y-83224214D01*
X129616000Y-82823050D01*
X129616000Y-82276950D01*
X129616000Y-81875786D01*
X129616000Y-81724215D01*
X129557996Y-81584181D01*
X129450820Y-81477004D01*
X129310786Y-81419000D01*
X128858050Y-81419000D01*
X128762800Y-81514250D01*
X128762800Y-82372200D01*
X129520750Y-82372200D01*
X129616000Y-82276950D01*
X129616000Y-82823050D01*
X129520750Y-82727800D01*
X128762800Y-82727800D01*
X128762800Y-83585750D01*
X128858050Y-83681000D01*
X129310786Y-83681000D01*
X129450820Y-83622996D01*
X129557996Y-83515819D01*
X129616000Y-83375785D01*
X129616000Y-84925066D01*
X129255813Y-84924752D01*
X128728200Y-85142757D01*
X128397000Y-85473379D01*
X128397000Y-83595950D01*
X128407200Y-83585750D01*
X128407200Y-82727800D01*
X128397000Y-82727800D01*
X128397000Y-82372200D01*
X128407200Y-82372200D01*
X128407200Y-81514250D01*
X128397000Y-81504050D01*
X128397000Y-76910000D01*
X130862000Y-76910000D01*
X130862000Y-84455000D01*
X130916046Y-84726705D01*
X131069954Y-84957046D01*
X131300295Y-85110954D01*
X131572000Y-85165000D01*
X147828000Y-85165000D01*
X148099705Y-85110954D01*
X148330046Y-84957046D01*
X148483954Y-84726705D01*
X148538000Y-84455000D01*
X148538000Y-76910000D01*
X153003817Y-76910000D01*
X174550000Y-78806064D01*
X174550000Y-81404168D01*
X174030739Y-81194419D01*
X173222788Y-81201529D01*
X172827348Y-81326211D01*
X172601583Y-81551161D01*
X173662676Y-82815722D01*
X173658779Y-82819620D01*
X174053913Y-83214754D01*
X174550000Y-82718667D01*
X174550000Y-82833937D01*
X174057810Y-83246933D01*
X174053913Y-83243036D01*
X173658779Y-83638170D01*
X174550000Y-84529391D01*
X174550000Y-84742532D01*
X173610200Y-83622523D01*
X173251010Y-83923919D01*
X173251010Y-83194457D01*
X172173517Y-81910351D01*
X171912781Y-82093624D01*
X171610162Y-82842794D01*
X171617272Y-83650745D01*
X171741954Y-84046185D01*
X171966904Y-84271950D01*
X173251010Y-83194457D01*
X173251010Y-83923919D01*
X172326094Y-84700016D01*
X172509367Y-84960752D01*
X173258537Y-85263371D01*
X174066488Y-85256261D01*
X174461928Y-85131579D01*
X174550000Y-85043824D01*
X174550000Y-103209000D01*
X174104650Y-103209000D01*
X174009400Y-103304250D01*
X174009400Y-103840000D01*
X174029400Y-103840000D01*
X174029400Y-104340000D01*
X174009400Y-104340000D01*
X174009400Y-104875750D01*
X174104650Y-104971000D01*
X174550000Y-104971000D01*
X174550000Y-113411000D01*
X174231492Y-113411000D01*
X173951443Y-113466705D01*
X173703425Y-113632425D01*
X173537705Y-113880443D01*
X173482000Y-114160492D01*
X173482000Y-116090508D01*
X173537705Y-116370557D01*
X173663618Y-116559000D01*
X173450600Y-116559000D01*
X173450600Y-104875750D01*
X173450600Y-104340000D01*
X173450600Y-103840000D01*
X173450600Y-103304250D01*
X173355350Y-103209000D01*
X172405786Y-103209000D01*
X172254215Y-103209000D01*
X172114181Y-103267004D01*
X172007004Y-103374180D01*
X171949000Y-103514214D01*
X171949000Y-103744750D01*
X172044250Y-103840000D01*
X173450600Y-103840000D01*
X173450600Y-104340000D01*
X172044250Y-104340000D01*
X171949000Y-104435250D01*
X171949000Y-104521000D01*
X170627440Y-104521000D01*
X170627440Y-103590000D01*
X170580463Y-103347877D01*
X170440673Y-103135073D01*
X170229640Y-102992623D01*
X169980000Y-102942560D01*
X169180000Y-102942560D01*
X168937877Y-102989537D01*
X168725073Y-103129327D01*
X168582623Y-103340360D01*
X168532560Y-103590000D01*
X168532560Y-104521000D01*
X167894000Y-104521000D01*
X167894000Y-103378000D01*
X164304578Y-103378000D01*
X164302996Y-103374180D01*
X164195819Y-103267004D01*
X164055785Y-103209000D01*
X163904214Y-103209000D01*
X163653050Y-103209000D01*
X163557800Y-103304250D01*
X163557800Y-103912200D01*
X163577800Y-103912200D01*
X163577800Y-104267800D01*
X163557800Y-104267800D01*
X163557800Y-104875750D01*
X163653050Y-104971000D01*
X163904214Y-104971000D01*
X164055785Y-104971000D01*
X164195819Y-104912996D01*
X164206815Y-104902000D01*
X165100000Y-104902000D01*
X165100000Y-105283000D01*
X163830000Y-105283000D01*
X163830000Y-106172000D01*
X163830000Y-114427000D01*
X165989000Y-114427000D01*
X165989000Y-105791000D01*
X173228000Y-105791000D01*
X173228000Y-104971000D01*
X173355350Y-104971000D01*
X173450600Y-104875750D01*
X173450600Y-116559000D01*
X173305786Y-116559000D01*
X173154215Y-116559000D01*
X173014181Y-116617004D01*
X172907004Y-116724180D01*
X172849000Y-116864214D01*
X172849000Y-117316950D01*
X172944250Y-117412200D01*
X174002200Y-117412200D01*
X174002200Y-117392200D01*
X174357800Y-117392200D01*
X174357800Y-117412200D01*
X174377800Y-117412200D01*
X174377800Y-117767800D01*
X174357800Y-117767800D01*
X174357800Y-118525750D01*
X174453050Y-118621000D01*
X174550000Y-118621000D01*
X174550000Y-119888000D01*
G36*
X113535512Y-125095000D02*
X113497033Y-125288451D01*
X113398235Y-125436310D01*
X113387341Y-125440812D01*
X113351856Y-125476234D01*
X113223451Y-125562033D01*
X113017492Y-125603000D01*
X111772508Y-125603000D01*
X111566549Y-125562033D01*
X111402549Y-125452451D01*
X111292967Y-125288451D01*
X111254488Y-125095000D01*
X111292967Y-124901549D01*
X111402549Y-124737549D01*
X111566549Y-124627967D01*
X111772508Y-124587000D01*
X113017492Y-124587000D01*
X113223451Y-124627967D01*
X113387451Y-124737549D01*
X113497033Y-124901549D01*
X113535512Y-125095000D01*
X113535512Y-125095000D01*
G37*
X113535512Y-125095000D02*
X113497033Y-125288451D01*
X113398235Y-125436310D01*
X113387341Y-125440812D01*
X113351856Y-125476234D01*
X113223451Y-125562033D01*
X113017492Y-125603000D01*
X111772508Y-125603000D01*
X111566549Y-125562033D01*
X111402549Y-125452451D01*
X111292967Y-125288451D01*
X111254488Y-125095000D01*
X111292967Y-124901549D01*
X111402549Y-124737549D01*
X111566549Y-124627967D01*
X111772508Y-124587000D01*
X113017492Y-124587000D01*
X113223451Y-124627967D01*
X113387451Y-124737549D01*
X113497033Y-124901549D01*
X113535512Y-125095000D01*
G36*
X121869200Y-134610963D02*
X121728816Y-134704765D01*
X121475539Y-135083822D01*
X121386600Y-135530949D01*
X121386600Y-137519051D01*
X121448123Y-137828349D01*
X117500400Y-133880626D01*
X117500400Y-133091590D01*
X117571754Y-133121219D01*
X117874219Y-133121482D01*
X118011696Y-133454202D01*
X118304391Y-133747408D01*
X118687011Y-133906286D01*
X118823470Y-133906404D01*
X118823353Y-134041171D01*
X118981562Y-134424068D01*
X119274257Y-134717274D01*
X119656877Y-134876152D01*
X120071171Y-134876513D01*
X120454068Y-134718304D01*
X120747274Y-134425609D01*
X120906152Y-134042989D01*
X120906513Y-133628695D01*
X120777804Y-133317193D01*
X121513716Y-132581281D01*
X121513420Y-132921238D01*
X121671629Y-133304135D01*
X121869200Y-133502050D01*
X121869200Y-134610963D01*
X121869200Y-134610963D01*
G37*
X121869200Y-134610963D02*
X121728816Y-134704765D01*
X121475539Y-135083822D01*
X121386600Y-135530949D01*
X121386600Y-137519051D01*
X121448123Y-137828349D01*
X117500400Y-133880626D01*
X117500400Y-133091590D01*
X117571754Y-133121219D01*
X117874219Y-133121482D01*
X118011696Y-133454202D01*
X118304391Y-133747408D01*
X118687011Y-133906286D01*
X118823470Y-133906404D01*
X118823353Y-134041171D01*
X118981562Y-134424068D01*
X119274257Y-134717274D01*
X119656877Y-134876152D01*
X120071171Y-134876513D01*
X120454068Y-134718304D01*
X120747274Y-134425609D01*
X120906152Y-134042989D01*
X120906513Y-133628695D01*
X120777804Y-133317193D01*
X121513716Y-132581281D01*
X121513420Y-132921238D01*
X121671629Y-133304135D01*
X121869200Y-133502050D01*
X121869200Y-134610963D01*
G36*
X146659600Y-150317769D02*
X146437659Y-150539324D01*
X146278781Y-150921944D01*
X146278420Y-151336238D01*
X146436629Y-151719135D01*
X146508967Y-151791600D01*
X144905480Y-151791600D01*
X144976528Y-151720676D01*
X145135406Y-151338056D01*
X145135767Y-150923762D01*
X144977558Y-150540865D01*
X144684863Y-150247659D01*
X144302243Y-150088781D01*
X143887949Y-150088420D01*
X143505052Y-150246629D01*
X143484814Y-150266831D01*
X143465676Y-150247659D01*
X143083056Y-150088781D01*
X142668762Y-150088420D01*
X142285865Y-150246629D01*
X141992659Y-150539324D01*
X141833781Y-150921944D01*
X141833420Y-151336238D01*
X141991629Y-151719135D01*
X142063967Y-151791600D01*
X139442034Y-151791600D01*
X139442034Y-149048308D01*
X139283825Y-148665411D01*
X139238654Y-148620161D01*
X139238654Y-146452704D01*
X139174850Y-146131939D01*
X139174850Y-146131938D01*
X139112214Y-146038197D01*
X139112320Y-145916752D01*
X138954111Y-145533855D01*
X138661416Y-145240649D01*
X138278796Y-145081771D01*
X137864502Y-145081410D01*
X137481605Y-145239619D01*
X137188399Y-145532314D01*
X137029521Y-145914934D01*
X137029160Y-146329228D01*
X137187369Y-146712125D01*
X137480064Y-147005331D01*
X137562254Y-147039459D01*
X137562254Y-148619805D01*
X137518113Y-148663870D01*
X137359235Y-149046490D01*
X137358874Y-149460784D01*
X137517083Y-149843681D01*
X137809778Y-150136887D01*
X138192398Y-150295765D01*
X138606692Y-150296126D01*
X138989589Y-150137917D01*
X139282795Y-149845222D01*
X139441673Y-149462602D01*
X139442034Y-149048308D01*
X139442034Y-151791600D01*
X135166000Y-151791600D01*
X135166000Y-147075786D01*
X135166000Y-146424650D01*
X135166000Y-145675350D01*
X135166000Y-145024214D01*
X135107996Y-144884180D01*
X135000819Y-144777004D01*
X134860785Y-144719000D01*
X134709214Y-144719000D01*
X134359650Y-144719000D01*
X134264400Y-144814250D01*
X134264400Y-145770600D01*
X135070750Y-145770600D01*
X135166000Y-145675350D01*
X135166000Y-146424650D01*
X135070750Y-146329400D01*
X134264400Y-146329400D01*
X134264400Y-147285750D01*
X134359650Y-147381000D01*
X134709214Y-147381000D01*
X134860785Y-147381000D01*
X135000819Y-147322996D01*
X135107996Y-147215820D01*
X135166000Y-147075786D01*
X135166000Y-151791600D01*
X133705600Y-151791600D01*
X133705600Y-147285750D01*
X133705600Y-146329400D01*
X133705600Y-145770600D01*
X133705600Y-144814250D01*
X133610350Y-144719000D01*
X133260786Y-144719000D01*
X133109215Y-144719000D01*
X132969181Y-144777004D01*
X132862004Y-144884180D01*
X132804000Y-145024214D01*
X132804000Y-145675350D01*
X132899250Y-145770600D01*
X133705600Y-145770600D01*
X133705600Y-146329400D01*
X132899250Y-146329400D01*
X132804000Y-146424650D01*
X132804000Y-147075786D01*
X132862004Y-147215820D01*
X132969181Y-147322996D01*
X133109215Y-147381000D01*
X133260786Y-147381000D01*
X133610350Y-147381000D01*
X133705600Y-147285750D01*
X133705600Y-151791600D01*
X114300000Y-151791600D01*
X114300000Y-140144500D01*
X114300000Y-139192000D01*
X114300000Y-138938000D01*
X114300000Y-137985500D01*
X114154726Y-137509159D01*
X113838223Y-137124672D01*
X113398675Y-136890572D01*
X113353112Y-136884291D01*
X113157000Y-137008531D01*
X113157000Y-138938000D01*
X114300000Y-138938000D01*
X114300000Y-139192000D01*
X113157000Y-139192000D01*
X113157000Y-141121469D01*
X113353112Y-141245709D01*
X113398675Y-141239428D01*
X113838223Y-141005328D01*
X114154726Y-140620841D01*
X114300000Y-140144500D01*
X114300000Y-151791600D01*
X109982000Y-151791600D01*
X109982000Y-150444001D01*
X110965131Y-150444860D01*
X112365972Y-149866044D01*
X113438677Y-148795209D01*
X114019937Y-147395381D01*
X114021260Y-145879669D01*
X113442444Y-144478828D01*
X112903000Y-143938441D01*
X112903000Y-141121469D01*
X112903000Y-139192000D01*
X112903000Y-138938000D01*
X112903000Y-137008531D01*
X112706888Y-136884291D01*
X112661325Y-136890572D01*
X112221777Y-137124672D01*
X111905274Y-137509159D01*
X111760000Y-137985500D01*
X111760000Y-138938000D01*
X112903000Y-138938000D01*
X112903000Y-139192000D01*
X111760000Y-139192000D01*
X111760000Y-140144500D01*
X111905274Y-140620841D01*
X112221777Y-141005328D01*
X112661325Y-141239428D01*
X112706888Y-141245709D01*
X112903000Y-141121469D01*
X112903000Y-143938441D01*
X112371609Y-143406123D01*
X110971781Y-142824863D01*
X109982000Y-142823999D01*
X109982000Y-126417605D01*
X110744021Y-125655583D01*
X110926427Y-125928573D01*
X111308874Y-126184116D01*
X111707465Y-126263400D01*
X113082535Y-126263400D01*
X113481126Y-126184116D01*
X113863573Y-125928573D01*
X114119116Y-125546126D01*
X114208850Y-125095000D01*
X114119116Y-124643874D01*
X113863573Y-124261427D01*
X113481126Y-124005884D01*
X113082535Y-123926600D01*
X112473005Y-123926600D01*
X113082605Y-123317000D01*
X115706957Y-123317000D01*
X115703861Y-123319034D01*
X115584204Y-123496302D01*
X115542150Y-123706000D01*
X115542150Y-125214000D01*
X115581611Y-125417383D01*
X115699034Y-125596139D01*
X115876302Y-125715796D01*
X116086000Y-125757850D01*
X117594000Y-125757850D01*
X117797383Y-125718389D01*
X117976139Y-125600966D01*
X118095796Y-125423698D01*
X118137850Y-125214000D01*
X118137850Y-123706000D01*
X118098389Y-123502617D01*
X117980966Y-123323861D01*
X117970801Y-123317000D01*
X123137395Y-123317000D01*
X124333000Y-124512605D01*
X124333000Y-127081351D01*
X124184275Y-127180727D01*
X119412633Y-131952368D01*
X119103123Y-131823848D01*
X118800657Y-131823584D01*
X118663181Y-131490865D01*
X118370486Y-131197659D01*
X117987866Y-131038781D01*
X117573572Y-131038420D01*
X117500400Y-131068653D01*
X117500400Y-129082230D01*
X117722341Y-128860676D01*
X117881219Y-128478056D01*
X117881580Y-128063762D01*
X117723371Y-127680865D01*
X117430676Y-127387659D01*
X117048056Y-127228781D01*
X116633762Y-127228420D01*
X116250865Y-127386629D01*
X116158330Y-127479002D01*
X116109873Y-127430461D01*
X115727253Y-127271583D01*
X115312959Y-127271222D01*
X114930062Y-127429431D01*
X114636856Y-127722126D01*
X114601049Y-127808357D01*
X114548371Y-127680865D01*
X114255676Y-127387659D01*
X113873056Y-127228781D01*
X113458762Y-127228420D01*
X113075865Y-127386629D01*
X112782659Y-127679324D01*
X112623781Y-128061944D01*
X112623420Y-128476238D01*
X112781629Y-128859135D01*
X113074324Y-129152341D01*
X113456944Y-129311219D01*
X113639600Y-129311378D01*
X113639600Y-133985000D01*
X113689870Y-134237724D01*
X113773605Y-134363043D01*
X113681319Y-134401175D01*
X113388113Y-134693870D01*
X113229235Y-135076490D01*
X113228874Y-135490784D01*
X113387083Y-135873681D01*
X113679778Y-136166887D01*
X114062398Y-136325765D01*
X114378001Y-136326040D01*
X114909600Y-136857638D01*
X114909600Y-137133992D01*
X114743816Y-137244765D01*
X114490539Y-137623822D01*
X114401600Y-138070949D01*
X114401600Y-140059051D01*
X114490539Y-140506178D01*
X114743816Y-140885235D01*
X115122873Y-141138512D01*
X115570000Y-141227451D01*
X116017127Y-141138512D01*
X116396184Y-140885235D01*
X116649461Y-140506178D01*
X116738400Y-140059051D01*
X116738400Y-138070949D01*
X116649461Y-137623822D01*
X116396184Y-137244765D01*
X116230400Y-137133992D01*
X116230400Y-136849346D01*
X118197724Y-138816671D01*
X118126319Y-138846175D01*
X117833113Y-139138870D01*
X117674235Y-139521490D01*
X117673874Y-139935784D01*
X117832083Y-140318681D01*
X117877665Y-140364343D01*
X117862659Y-140379324D01*
X117703781Y-140761944D01*
X117703420Y-141176238D01*
X117861629Y-141559135D01*
X118154324Y-141852341D01*
X118536944Y-142011219D01*
X118951238Y-142011580D01*
X119334135Y-141853371D01*
X119627341Y-141560676D01*
X119786219Y-141178056D01*
X119786580Y-140763762D01*
X119628371Y-140380865D01*
X119582788Y-140335202D01*
X119597795Y-140320222D01*
X119628156Y-140247103D01*
X121453026Y-142071973D01*
X121453027Y-142071973D01*
X121667276Y-142215130D01*
X121920000Y-142265400D01*
X128879600Y-142265400D01*
X128879600Y-142697769D01*
X128657659Y-142919324D01*
X128498781Y-143301944D01*
X128498420Y-143716238D01*
X128656629Y-144099135D01*
X128949324Y-144392341D01*
X129331944Y-144551219D01*
X129746238Y-144551580D01*
X130129135Y-144393371D01*
X130422341Y-144100676D01*
X130581219Y-143718056D01*
X130581580Y-143303762D01*
X130423371Y-142920865D01*
X130200400Y-142697504D01*
X130200400Y-141878546D01*
X131083545Y-140995400D01*
X141845548Y-140995400D01*
X146659600Y-145809452D01*
X146659600Y-150317769D01*
X146659600Y-150317769D01*
G37*
X146659600Y-150317769D02*
X146437659Y-150539324D01*
X146278781Y-150921944D01*
X146278420Y-151336238D01*
X146436629Y-151719135D01*
X146508967Y-151791600D01*
X144905480Y-151791600D01*
X144976528Y-151720676D01*
X145135406Y-151338056D01*
X145135767Y-150923762D01*
X144977558Y-150540865D01*
X144684863Y-150247659D01*
X144302243Y-150088781D01*
X143887949Y-150088420D01*
X143505052Y-150246629D01*
X143484814Y-150266831D01*
X143465676Y-150247659D01*
X143083056Y-150088781D01*
X142668762Y-150088420D01*
X142285865Y-150246629D01*
X141992659Y-150539324D01*
X141833781Y-150921944D01*
X141833420Y-151336238D01*
X141991629Y-151719135D01*
X142063967Y-151791600D01*
X139442034Y-151791600D01*
X139442034Y-149048308D01*
X139283825Y-148665411D01*
X139238654Y-148620161D01*
X139238654Y-146452704D01*
X139174850Y-146131939D01*
X139174850Y-146131938D01*
X139112214Y-146038197D01*
X139112320Y-145916752D01*
X138954111Y-145533855D01*
X138661416Y-145240649D01*
X138278796Y-145081771D01*
X137864502Y-145081410D01*
X137481605Y-145239619D01*
X137188399Y-145532314D01*
X137029521Y-145914934D01*
X137029160Y-146329228D01*
X137187369Y-146712125D01*
X137480064Y-147005331D01*
X137562254Y-147039459D01*
X137562254Y-148619805D01*
X137518113Y-148663870D01*
X137359235Y-149046490D01*
X137358874Y-149460784D01*
X137517083Y-149843681D01*
X137809778Y-150136887D01*
X138192398Y-150295765D01*
X138606692Y-150296126D01*
X138989589Y-150137917D01*
X139282795Y-149845222D01*
X139441673Y-149462602D01*
X139442034Y-149048308D01*
X139442034Y-151791600D01*
X135166000Y-151791600D01*
X135166000Y-147075786D01*
X135166000Y-146424650D01*
X135166000Y-145675350D01*
X135166000Y-145024214D01*
X135107996Y-144884180D01*
X135000819Y-144777004D01*
X134860785Y-144719000D01*
X134709214Y-144719000D01*
X134359650Y-144719000D01*
X134264400Y-144814250D01*
X134264400Y-145770600D01*
X135070750Y-145770600D01*
X135166000Y-145675350D01*
X135166000Y-146424650D01*
X135070750Y-146329400D01*
X134264400Y-146329400D01*
X134264400Y-147285750D01*
X134359650Y-147381000D01*
X134709214Y-147381000D01*
X134860785Y-147381000D01*
X135000819Y-147322996D01*
X135107996Y-147215820D01*
X135166000Y-147075786D01*
X135166000Y-151791600D01*
X133705600Y-151791600D01*
X133705600Y-147285750D01*
X133705600Y-146329400D01*
X133705600Y-145770600D01*
X133705600Y-144814250D01*
X133610350Y-144719000D01*
X133260786Y-144719000D01*
X133109215Y-144719000D01*
X132969181Y-144777004D01*
X132862004Y-144884180D01*
X132804000Y-145024214D01*
X132804000Y-145675350D01*
X132899250Y-145770600D01*
X133705600Y-145770600D01*
X133705600Y-146329400D01*
X132899250Y-146329400D01*
X132804000Y-146424650D01*
X132804000Y-147075786D01*
X132862004Y-147215820D01*
X132969181Y-147322996D01*
X133109215Y-147381000D01*
X133260786Y-147381000D01*
X133610350Y-147381000D01*
X133705600Y-147285750D01*
X133705600Y-151791600D01*
X114300000Y-151791600D01*
X114300000Y-140144500D01*
X114300000Y-139192000D01*
X114300000Y-138938000D01*
X114300000Y-137985500D01*
X114154726Y-137509159D01*
X113838223Y-137124672D01*
X113398675Y-136890572D01*
X113353112Y-136884291D01*
X113157000Y-137008531D01*
X113157000Y-138938000D01*
X114300000Y-138938000D01*
X114300000Y-139192000D01*
X113157000Y-139192000D01*
X113157000Y-141121469D01*
X113353112Y-141245709D01*
X113398675Y-141239428D01*
X113838223Y-141005328D01*
X114154726Y-140620841D01*
X114300000Y-140144500D01*
X114300000Y-151791600D01*
X109982000Y-151791600D01*
X109982000Y-150444001D01*
X110965131Y-150444860D01*
X112365972Y-149866044D01*
X113438677Y-148795209D01*
X114019937Y-147395381D01*
X114021260Y-145879669D01*
X113442444Y-144478828D01*
X112903000Y-143938441D01*
X112903000Y-141121469D01*
X112903000Y-139192000D01*
X112903000Y-138938000D01*
X112903000Y-137008531D01*
X112706888Y-136884291D01*
X112661325Y-136890572D01*
X112221777Y-137124672D01*
X111905274Y-137509159D01*
X111760000Y-137985500D01*
X111760000Y-138938000D01*
X112903000Y-138938000D01*
X112903000Y-139192000D01*
X111760000Y-139192000D01*
X111760000Y-140144500D01*
X111905274Y-140620841D01*
X112221777Y-141005328D01*
X112661325Y-141239428D01*
X112706888Y-141245709D01*
X112903000Y-141121469D01*
X112903000Y-143938441D01*
X112371609Y-143406123D01*
X110971781Y-142824863D01*
X109982000Y-142823999D01*
X109982000Y-126417605D01*
X110744021Y-125655583D01*
X110926427Y-125928573D01*
X111308874Y-126184116D01*
X111707465Y-126263400D01*
X113082535Y-126263400D01*
X113481126Y-126184116D01*
X113863573Y-125928573D01*
X114119116Y-125546126D01*
X114208850Y-125095000D01*
X114119116Y-124643874D01*
X113863573Y-124261427D01*
X113481126Y-124005884D01*
X113082535Y-123926600D01*
X112473005Y-123926600D01*
X113082605Y-123317000D01*
X115706957Y-123317000D01*
X115703861Y-123319034D01*
X115584204Y-123496302D01*
X115542150Y-123706000D01*
X115542150Y-125214000D01*
X115581611Y-125417383D01*
X115699034Y-125596139D01*
X115876302Y-125715796D01*
X116086000Y-125757850D01*
X117594000Y-125757850D01*
X117797383Y-125718389D01*
X117976139Y-125600966D01*
X118095796Y-125423698D01*
X118137850Y-125214000D01*
X118137850Y-123706000D01*
X118098389Y-123502617D01*
X117980966Y-123323861D01*
X117970801Y-123317000D01*
X123137395Y-123317000D01*
X124333000Y-124512605D01*
X124333000Y-127081351D01*
X124184275Y-127180727D01*
X119412633Y-131952368D01*
X119103123Y-131823848D01*
X118800657Y-131823584D01*
X118663181Y-131490865D01*
X118370486Y-131197659D01*
X117987866Y-131038781D01*
X117573572Y-131038420D01*
X117500400Y-131068653D01*
X117500400Y-129082230D01*
X117722341Y-128860676D01*
X117881219Y-128478056D01*
X117881580Y-128063762D01*
X117723371Y-127680865D01*
X117430676Y-127387659D01*
X117048056Y-127228781D01*
X116633762Y-127228420D01*
X116250865Y-127386629D01*
X116158330Y-127479002D01*
X116109873Y-127430461D01*
X115727253Y-127271583D01*
X115312959Y-127271222D01*
X114930062Y-127429431D01*
X114636856Y-127722126D01*
X114601049Y-127808357D01*
X114548371Y-127680865D01*
X114255676Y-127387659D01*
X113873056Y-127228781D01*
X113458762Y-127228420D01*
X113075865Y-127386629D01*
X112782659Y-127679324D01*
X112623781Y-128061944D01*
X112623420Y-128476238D01*
X112781629Y-128859135D01*
X113074324Y-129152341D01*
X113456944Y-129311219D01*
X113639600Y-129311378D01*
X113639600Y-133985000D01*
X113689870Y-134237724D01*
X113773605Y-134363043D01*
X113681319Y-134401175D01*
X113388113Y-134693870D01*
X113229235Y-135076490D01*
X113228874Y-135490784D01*
X113387083Y-135873681D01*
X113679778Y-136166887D01*
X114062398Y-136325765D01*
X114378001Y-136326040D01*
X114909600Y-136857638D01*
X114909600Y-137133992D01*
X114743816Y-137244765D01*
X114490539Y-137623822D01*
X114401600Y-138070949D01*
X114401600Y-140059051D01*
X114490539Y-140506178D01*
X114743816Y-140885235D01*
X115122873Y-141138512D01*
X115570000Y-141227451D01*
X116017127Y-141138512D01*
X116396184Y-140885235D01*
X116649461Y-140506178D01*
X116738400Y-140059051D01*
X116738400Y-138070949D01*
X116649461Y-137623822D01*
X116396184Y-137244765D01*
X116230400Y-137133992D01*
X116230400Y-136849346D01*
X118197724Y-138816671D01*
X118126319Y-138846175D01*
X117833113Y-139138870D01*
X117674235Y-139521490D01*
X117673874Y-139935784D01*
X117832083Y-140318681D01*
X117877665Y-140364343D01*
X117862659Y-140379324D01*
X117703781Y-140761944D01*
X117703420Y-141176238D01*
X117861629Y-141559135D01*
X118154324Y-141852341D01*
X118536944Y-142011219D01*
X118951238Y-142011580D01*
X119334135Y-141853371D01*
X119627341Y-141560676D01*
X119786219Y-141178056D01*
X119786580Y-140763762D01*
X119628371Y-140380865D01*
X119582788Y-140335202D01*
X119597795Y-140320222D01*
X119628156Y-140247103D01*
X121453026Y-142071973D01*
X121453027Y-142071973D01*
X121667276Y-142215130D01*
X121920000Y-142265400D01*
X128879600Y-142265400D01*
X128879600Y-142697769D01*
X128657659Y-142919324D01*
X128498781Y-143301944D01*
X128498420Y-143716238D01*
X128656629Y-144099135D01*
X128949324Y-144392341D01*
X129331944Y-144551219D01*
X129746238Y-144551580D01*
X130129135Y-144393371D01*
X130422341Y-144100676D01*
X130581219Y-143718056D01*
X130581580Y-143303762D01*
X130423371Y-142920865D01*
X130200400Y-142697504D01*
X130200400Y-141878546D01*
X131083545Y-140995400D01*
X141845548Y-140995400D01*
X146659600Y-145809452D01*
X146659600Y-150317769D01*
G36*
X150368000Y-104603053D02*
X150221453Y-104749600D01*
X150106000Y-104749600D01*
X150106000Y-103710786D01*
X150106000Y-103307250D01*
X150010750Y-103212000D01*
X149352000Y-103212000D01*
X149352000Y-103920750D01*
X149447250Y-104016000D01*
X149649214Y-104016000D01*
X149800785Y-104016000D01*
X149940819Y-103957996D01*
X150047996Y-103850820D01*
X150106000Y-103710786D01*
X150106000Y-104749600D01*
X149867728Y-104749600D01*
X149859389Y-104706617D01*
X149741966Y-104527861D01*
X149564698Y-104408204D01*
X149355000Y-104366150D01*
X149098000Y-104366150D01*
X149098000Y-103920750D01*
X149098000Y-103212000D01*
X148439250Y-103212000D01*
X148344000Y-103307250D01*
X148344000Y-103710786D01*
X148402004Y-103850820D01*
X148509181Y-103957996D01*
X148649215Y-104016000D01*
X148800786Y-104016000D01*
X149002750Y-104016000D01*
X149098000Y-103920750D01*
X149098000Y-104366150D01*
X148255000Y-104366150D01*
X148201000Y-104376627D01*
X148201000Y-103710786D01*
X148201000Y-103307250D01*
X148105750Y-103212000D01*
X147447000Y-103212000D01*
X147447000Y-103920750D01*
X147542250Y-104016000D01*
X147744214Y-104016000D01*
X147895785Y-104016000D01*
X148035819Y-103957996D01*
X148142996Y-103850820D01*
X148201000Y-103710786D01*
X148201000Y-104376627D01*
X148051617Y-104405611D01*
X147872861Y-104523034D01*
X147838669Y-104573686D01*
X147730786Y-104529000D01*
X147327250Y-104529000D01*
X147232000Y-104624250D01*
X147232000Y-105283000D01*
X147252000Y-105283000D01*
X147252000Y-105537000D01*
X147232000Y-105537000D01*
X147232000Y-105557000D01*
X147193000Y-105557000D01*
X147193000Y-103920750D01*
X147193000Y-103212000D01*
X146534250Y-103212000D01*
X146439000Y-103307250D01*
X146439000Y-103710786D01*
X146497004Y-103850820D01*
X146604181Y-103957996D01*
X146744215Y-104016000D01*
X146895786Y-104016000D01*
X147097750Y-104016000D01*
X147193000Y-103920750D01*
X147193000Y-105557000D01*
X146978000Y-105557000D01*
X146978000Y-105537000D01*
X146978000Y-105283000D01*
X146978000Y-104624250D01*
X146882750Y-104529000D01*
X146479214Y-104529000D01*
X146339180Y-104587004D01*
X146296000Y-104630184D01*
X146296000Y-103710786D01*
X146296000Y-103307250D01*
X146200750Y-103212000D01*
X145542000Y-103212000D01*
X145542000Y-103920750D01*
X145637250Y-104016000D01*
X145839214Y-104016000D01*
X145990785Y-104016000D01*
X146130819Y-103957996D01*
X146237996Y-103850820D01*
X146296000Y-103710786D01*
X146296000Y-104630184D01*
X146232004Y-104694181D01*
X146174000Y-104834215D01*
X146174000Y-104985786D01*
X146174000Y-105187750D01*
X146269250Y-105283000D01*
X146978000Y-105283000D01*
X146978000Y-105537000D01*
X146269250Y-105537000D01*
X146174000Y-105632250D01*
X146174000Y-105834214D01*
X146174000Y-105918000D01*
X145288000Y-105918000D01*
X145288000Y-103920750D01*
X145288000Y-103212000D01*
X144629250Y-103212000D01*
X144534000Y-103307250D01*
X144534000Y-103710786D01*
X144592004Y-103850820D01*
X144699181Y-103957996D01*
X144839215Y-104016000D01*
X144990786Y-104016000D01*
X145192750Y-104016000D01*
X145288000Y-103920750D01*
X145288000Y-105918000D01*
X144391000Y-105918000D01*
X144391000Y-103710786D01*
X144391000Y-103307250D01*
X144295750Y-103212000D01*
X143637000Y-103212000D01*
X143637000Y-103920750D01*
X143732250Y-104016000D01*
X143934214Y-104016000D01*
X144085785Y-104016000D01*
X144225819Y-103957996D01*
X144332996Y-103850820D01*
X144391000Y-103710786D01*
X144391000Y-105918000D01*
X143383000Y-105918000D01*
X143383000Y-103920750D01*
X143383000Y-103212000D01*
X142724250Y-103212000D01*
X142629000Y-103307250D01*
X142629000Y-103710786D01*
X142687004Y-103850820D01*
X142794181Y-103957996D01*
X142934215Y-104016000D01*
X143085786Y-104016000D01*
X143287750Y-104016000D01*
X143383000Y-103920750D01*
X143383000Y-105918000D01*
X142927605Y-105918000D01*
X142367000Y-105357395D01*
X142367000Y-102922605D01*
X142629000Y-102660605D01*
X142629000Y-102862750D01*
X142724250Y-102958000D01*
X143383000Y-102958000D01*
X143383000Y-102938000D01*
X143637000Y-102938000D01*
X143637000Y-102958000D01*
X144295750Y-102958000D01*
X144391000Y-102862750D01*
X144391000Y-102459214D01*
X144350732Y-102362000D01*
X144574267Y-102362000D01*
X144534000Y-102459214D01*
X144534000Y-102862750D01*
X144629250Y-102958000D01*
X145288000Y-102958000D01*
X145288000Y-102938000D01*
X145542000Y-102938000D01*
X145542000Y-102958000D01*
X146200750Y-102958000D01*
X146296000Y-102862750D01*
X146296000Y-102459214D01*
X146255732Y-102362000D01*
X146479267Y-102362000D01*
X146439000Y-102459214D01*
X146439000Y-102862750D01*
X146534250Y-102958000D01*
X147193000Y-102958000D01*
X147193000Y-102938000D01*
X147447000Y-102938000D01*
X147447000Y-102958000D01*
X148105750Y-102958000D01*
X148201000Y-102862750D01*
X148201000Y-102459214D01*
X148160732Y-102362000D01*
X148384267Y-102362000D01*
X148344000Y-102459214D01*
X148344000Y-102862750D01*
X148439250Y-102958000D01*
X149098000Y-102958000D01*
X149098000Y-102938000D01*
X149352000Y-102938000D01*
X149352000Y-102958000D01*
X150010750Y-102958000D01*
X150106000Y-102862750D01*
X150106000Y-102660605D01*
X150368000Y-102922605D01*
X150368000Y-104603053D01*
X150368000Y-104603053D01*
G37*
X150368000Y-104603053D02*
X150221453Y-104749600D01*
X150106000Y-104749600D01*
X150106000Y-103710786D01*
X150106000Y-103307250D01*
X150010750Y-103212000D01*
X149352000Y-103212000D01*
X149352000Y-103920750D01*
X149447250Y-104016000D01*
X149649214Y-104016000D01*
X149800785Y-104016000D01*
X149940819Y-103957996D01*
X150047996Y-103850820D01*
X150106000Y-103710786D01*
X150106000Y-104749600D01*
X149867728Y-104749600D01*
X149859389Y-104706617D01*
X149741966Y-104527861D01*
X149564698Y-104408204D01*
X149355000Y-104366150D01*
X149098000Y-104366150D01*
X149098000Y-103920750D01*
X149098000Y-103212000D01*
X148439250Y-103212000D01*
X148344000Y-103307250D01*
X148344000Y-103710786D01*
X148402004Y-103850820D01*
X148509181Y-103957996D01*
X148649215Y-104016000D01*
X148800786Y-104016000D01*
X149002750Y-104016000D01*
X149098000Y-103920750D01*
X149098000Y-104366150D01*
X148255000Y-104366150D01*
X148201000Y-104376627D01*
X148201000Y-103710786D01*
X148201000Y-103307250D01*
X148105750Y-103212000D01*
X147447000Y-103212000D01*
X147447000Y-103920750D01*
X147542250Y-104016000D01*
X147744214Y-104016000D01*
X147895785Y-104016000D01*
X148035819Y-103957996D01*
X148142996Y-103850820D01*
X148201000Y-103710786D01*
X148201000Y-104376627D01*
X148051617Y-104405611D01*
X147872861Y-104523034D01*
X147838669Y-104573686D01*
X147730786Y-104529000D01*
X147327250Y-104529000D01*
X147232000Y-104624250D01*
X147232000Y-105283000D01*
X147252000Y-105283000D01*
X147252000Y-105537000D01*
X147232000Y-105537000D01*
X147232000Y-105557000D01*
X147193000Y-105557000D01*
X147193000Y-103920750D01*
X147193000Y-103212000D01*
X146534250Y-103212000D01*
X146439000Y-103307250D01*
X146439000Y-103710786D01*
X146497004Y-103850820D01*
X146604181Y-103957996D01*
X146744215Y-104016000D01*
X146895786Y-104016000D01*
X147097750Y-104016000D01*
X147193000Y-103920750D01*
X147193000Y-105557000D01*
X146978000Y-105557000D01*
X146978000Y-105537000D01*
X146978000Y-105283000D01*
X146978000Y-104624250D01*
X146882750Y-104529000D01*
X146479214Y-104529000D01*
X146339180Y-104587004D01*
X146296000Y-104630184D01*
X146296000Y-103710786D01*
X146296000Y-103307250D01*
X146200750Y-103212000D01*
X145542000Y-103212000D01*
X145542000Y-103920750D01*
X145637250Y-104016000D01*
X145839214Y-104016000D01*
X145990785Y-104016000D01*
X146130819Y-103957996D01*
X146237996Y-103850820D01*
X146296000Y-103710786D01*
X146296000Y-104630184D01*
X146232004Y-104694181D01*
X146174000Y-104834215D01*
X146174000Y-104985786D01*
X146174000Y-105187750D01*
X146269250Y-105283000D01*
X146978000Y-105283000D01*
X146978000Y-105537000D01*
X146269250Y-105537000D01*
X146174000Y-105632250D01*
X146174000Y-105834214D01*
X146174000Y-105918000D01*
X145288000Y-105918000D01*
X145288000Y-103920750D01*
X145288000Y-103212000D01*
X144629250Y-103212000D01*
X144534000Y-103307250D01*
X144534000Y-103710786D01*
X144592004Y-103850820D01*
X144699181Y-103957996D01*
X144839215Y-104016000D01*
X144990786Y-104016000D01*
X145192750Y-104016000D01*
X145288000Y-103920750D01*
X145288000Y-105918000D01*
X144391000Y-105918000D01*
X144391000Y-103710786D01*
X144391000Y-103307250D01*
X144295750Y-103212000D01*
X143637000Y-103212000D01*
X143637000Y-103920750D01*
X143732250Y-104016000D01*
X143934214Y-104016000D01*
X144085785Y-104016000D01*
X144225819Y-103957996D01*
X144332996Y-103850820D01*
X144391000Y-103710786D01*
X144391000Y-105918000D01*
X143383000Y-105918000D01*
X143383000Y-103920750D01*
X143383000Y-103212000D01*
X142724250Y-103212000D01*
X142629000Y-103307250D01*
X142629000Y-103710786D01*
X142687004Y-103850820D01*
X142794181Y-103957996D01*
X142934215Y-104016000D01*
X143085786Y-104016000D01*
X143287750Y-104016000D01*
X143383000Y-103920750D01*
X143383000Y-105918000D01*
X142927605Y-105918000D01*
X142367000Y-105357395D01*
X142367000Y-102922605D01*
X142629000Y-102660605D01*
X142629000Y-102862750D01*
X142724250Y-102958000D01*
X143383000Y-102958000D01*
X143383000Y-102938000D01*
X143637000Y-102938000D01*
X143637000Y-102958000D01*
X144295750Y-102958000D01*
X144391000Y-102862750D01*
X144391000Y-102459214D01*
X144350732Y-102362000D01*
X144574267Y-102362000D01*
X144534000Y-102459214D01*
X144534000Y-102862750D01*
X144629250Y-102958000D01*
X145288000Y-102958000D01*
X145288000Y-102938000D01*
X145542000Y-102938000D01*
X145542000Y-102958000D01*
X146200750Y-102958000D01*
X146296000Y-102862750D01*
X146296000Y-102459214D01*
X146255732Y-102362000D01*
X146479267Y-102362000D01*
X146439000Y-102459214D01*
X146439000Y-102862750D01*
X146534250Y-102958000D01*
X147193000Y-102958000D01*
X147193000Y-102938000D01*
X147447000Y-102938000D01*
X147447000Y-102958000D01*
X148105750Y-102958000D01*
X148201000Y-102862750D01*
X148201000Y-102459214D01*
X148160732Y-102362000D01*
X148384267Y-102362000D01*
X148344000Y-102459214D01*
X148344000Y-102862750D01*
X148439250Y-102958000D01*
X149098000Y-102958000D01*
X149098000Y-102938000D01*
X149352000Y-102938000D01*
X149352000Y-102958000D01*
X150010750Y-102958000D01*
X150106000Y-102862750D01*
X150106000Y-102660605D01*
X150368000Y-102922605D01*
X150368000Y-104603053D01*
D44*
X111125000Y-138430000D03*
X111125000Y-135890000D03*
X111125000Y-137160000D03*
X121180991Y-133309153D03*
X120904000Y-125984000D03*
X118122484Y-120625031D03*
X119380000Y-120650000D03*
X120650000Y-120650000D03*
X121920000Y-120650000D03*
X128905000Y-105410000D03*
X128905000Y-103505000D03*
X128905000Y-107315000D03*
X160655000Y-132715000D03*
X159385000Y-133985000D03*
X130175000Y-95885000D03*
X128270000Y-95885000D03*
X130175000Y-102235000D03*
X121285000Y-95250000D03*
X140970000Y-151130000D03*
X139700000Y-151130000D03*
X138430000Y-151130000D03*
X132672150Y-149225000D03*
X132715000Y-151130000D03*
X133350000Y-147955000D03*
X134620000Y-147955000D03*
X145796000Y-151130000D03*
X137795000Y-130175000D03*
X142240000Y-126365000D03*
X146685000Y-116840000D03*
X160655000Y-121920000D03*
X147955000Y-130175000D03*
X142240000Y-130175000D03*
X160655000Y-125323600D03*
X146685000Y-90170000D03*
X134620000Y-90170000D03*
X117475000Y-93980000D03*
X117475000Y-95250000D03*
X121285000Y-93980000D03*
X112395000Y-98425000D03*
X112395000Y-97155000D03*
X112395000Y-95885000D03*
X112395000Y-94615000D03*
X111125000Y-95250000D03*
X111125000Y-96520000D03*
X111125000Y-97790000D03*
X118110000Y-104140000D03*
X119380000Y-104140000D03*
X120650000Y-104140000D03*
X121920000Y-104140000D03*
X112395000Y-111125000D03*
X112395000Y-112395000D03*
X112395000Y-113665000D03*
X112395000Y-114935000D03*
X111125000Y-111760000D03*
X111125000Y-113030000D03*
X111125000Y-114300000D03*
X117475000Y-110490000D03*
X117475000Y-111760000D03*
X121285000Y-110490000D03*
X121285000Y-111760000D03*
X133350000Y-90170000D03*
X145415008Y-90170000D03*
X164465000Y-139065000D03*
X163195000Y-139065000D03*
X161925000Y-139065000D03*
X139065000Y-134620000D03*
X142875000Y-134620000D03*
X169037000Y-107188000D03*
X168275000Y-109220000D03*
X168275000Y-107950000D03*
X164465000Y-86995000D03*
X163195000Y-86995000D03*
X161925000Y-86995000D03*
X157226000Y-108204000D03*
X139700000Y-128270000D03*
X139700000Y-116205000D03*
X123190000Y-81280000D03*
X124460000Y-80010000D03*
X124460000Y-81280000D03*
X123190000Y-80010000D03*
X124460000Y-78740000D03*
X123190000Y-77470000D03*
X124460000Y-77470000D03*
X123190000Y-78740000D03*
X125730000Y-147955000D03*
X125095000Y-150495000D03*
X134620000Y-141605000D03*
X134620000Y-144145000D03*
X134620000Y-142875000D03*
X133350000Y-141605000D03*
X133350000Y-144145000D03*
X133350000Y-142875000D03*
X116205000Y-142875000D03*
X116205000Y-144145000D03*
X117475000Y-144145000D03*
X118745000Y-144145000D03*
X120015000Y-144145000D03*
X120044614Y-135860386D03*
X121285000Y-134620000D03*
X113030000Y-127000000D03*
X113919000Y-126238000D03*
X111125000Y-129540000D03*
X119380000Y-124333000D03*
X120777000Y-124333000D03*
X122174000Y-124333000D03*
X154940000Y-93980000D03*
X153670000Y-91440000D03*
X153670000Y-93980000D03*
X153670000Y-92710000D03*
X111125000Y-132080000D03*
X111125000Y-130810000D03*
X135636000Y-102108000D03*
X133985000Y-95885090D03*
X130175000Y-82550000D03*
X130175000Y-83820000D03*
X130175000Y-81280000D03*
X129540000Y-80010000D03*
X129540000Y-78740000D03*
X129540000Y-77470000D03*
X139192000Y-94488000D03*
X135889992Y-104140000D03*
X137795000Y-104140000D03*
X140859619Y-94504631D03*
X155575000Y-106680024D03*
X153670000Y-107950000D03*
X154501419Y-109220000D03*
X145415000Y-105410000D03*
X144145000Y-105410000D03*
X157480000Y-103505000D03*
X130175000Y-132715000D03*
X131445000Y-132715000D03*
X156210000Y-103505000D03*
X123190000Y-93345000D03*
X164465000Y-140970000D03*
X163195000Y-140970000D03*
X161925000Y-140970000D03*
X157607000Y-110363000D03*
X109220000Y-98425000D03*
X109220018Y-100330000D03*
X109220000Y-102235000D03*
X111760000Y-100330000D03*
X111760000Y-102235000D03*
X153373617Y-110210490D03*
X156845000Y-112395000D03*
X154910448Y-112365448D03*
X129540000Y-117475000D03*
X130810000Y-116205000D03*
X130175000Y-118745000D03*
X174371000Y-144145000D03*
X129540000Y-120015000D03*
X173990000Y-145415000D03*
X174371000Y-146685000D03*
X130175000Y-121285000D03*
X129540000Y-122555000D03*
X173990000Y-147955000D03*
X145410847Y-134039953D03*
X144091184Y-133984875D03*
X160655000Y-128320800D03*
X160655000Y-126949200D03*
X170144675Y-92402663D03*
X158750000Y-124129513D03*
X169801323Y-121769933D03*
X168773075Y-92402663D03*
X158750000Y-122757913D03*
X168831457Y-120800067D03*
X140716000Y-103632034D03*
X132080000Y-95885000D03*
X150495000Y-107315000D03*
X166370000Y-118110000D03*
X174371000Y-139065000D03*
X171450000Y-131445000D03*
X151765000Y-106680000D03*
X167640000Y-117068600D03*
X170815000Y-130175000D03*
X173990000Y-140335000D03*
X118745000Y-99314000D03*
X120015000Y-115824000D03*
X118745000Y-115824000D03*
X120015000Y-99314000D03*
X121344327Y-115824000D03*
X121286086Y-99314000D03*
X138400454Y-149254546D03*
X138070740Y-146122990D03*
X144094187Y-151130000D03*
X142875000Y-151130000D03*
X159385000Y-93345000D03*
X159385000Y-94615026D03*
X123190000Y-109220000D03*
X123190000Y-109220000D03*
X173990000Y-133350000D03*
X173990000Y-134620000D03*
X113030000Y-125095000D03*
X111760000Y-125095000D03*
X118715454Y-139729546D03*
X118745000Y-140970000D03*
X109220000Y-114934990D03*
X109220000Y-116840004D03*
X109220000Y-118745010D03*
X111760000Y-118745000D03*
X111760000Y-116840000D03*
X129540000Y-143510000D03*
X147320000Y-151130000D03*
X113665000Y-128270000D03*
X144145000Y-140970000D03*
X115519197Y-128312802D03*
X116840000Y-128270000D03*
X146786602Y-140973776D03*
X115900190Y-131846050D03*
X145465794Y-140976892D03*
X116205000Y-106679978D03*
X116205000Y-107696000D03*
X109220000Y-107315000D03*
X109220000Y-109220000D03*
X109220000Y-111125000D03*
X111760000Y-107315000D03*
X111760000Y-109220000D03*
X116205000Y-90170000D03*
X116205000Y-91186000D03*
X109220000Y-90805000D03*
X109220000Y-92710012D03*
X109220000Y-94615000D03*
X111760000Y-90805000D03*
X111760000Y-92710000D03*
X116332000Y-112776000D03*
X116332000Y-113792000D03*
X116332000Y-97409006D03*
X116332000Y-96393000D03*
X146685000Y-96520000D03*
X145415000Y-95884992D03*
X147955010Y-95885000D03*
X149225000Y-96520000D03*
X167640000Y-94615000D03*
X166370000Y-94615000D03*
X168910000Y-96520000D03*
X170180000Y-96520000D03*
X173990000Y-142875000D03*
X167427800Y-129993510D03*
X174371000Y-141605000D03*
X167640000Y-128270000D03*
X164465000Y-142875000D03*
X167005000Y-131445000D03*
X132715000Y-130810000D03*
X117779810Y-132080000D03*
X119864933Y-133834933D03*
X118895067Y-132865067D03*
X122555000Y-132715000D03*
X114270454Y-135284546D03*
X160020000Y-120243600D03*
X168910000Y-118338600D03*
X136525000Y-131445000D03*
X119450483Y-78124303D03*
X119712163Y-83117451D03*
X116885023Y-80762184D03*
X136200000Y-88695000D03*
X143200000Y-88695000D03*
X170349257Y-85670976D03*
X167858770Y-85453087D03*
X165866381Y-85278775D03*
X163375894Y-85060886D03*
X173644638Y-83228895D03*
X160554640Y-82083668D03*
X173355000Y-121460000D03*
X173355000Y-123460000D03*
X173355000Y-125460000D03*
X173355000Y-127460000D03*
X129540000Y-88900000D03*
X129540000Y-86360000D03*
X127000000Y-88900000D03*
X127000000Y-86360000D03*
X124460000Y-88900000D03*
X124460000Y-86360000D03*
X121920000Y-88900000D03*
X121920000Y-86360000D03*
X119380000Y-88900000D03*
X119380000Y-86360000D03*
X102870000Y-86360000D03*
X102870000Y-123190000D03*
X133985000Y-146050000D03*
X118745000Y-110490000D03*
X118745000Y-111760000D03*
X120015000Y-110490000D03*
X120015000Y-111760000D03*
X118745000Y-93980000D03*
X118745000Y-95250000D03*
X120015000Y-93980000D03*
X120015000Y-95250000D03*
X162580000Y-100310000D03*
X162580000Y-135910000D03*
X126980000Y-135910000D03*
X126980000Y-100310000D03*
X156108400Y-146634200D03*
X156108400Y-144348200D03*
X154128666Y-145491200D03*
X154128666Y-147777200D03*
X156108400Y-148920200D03*
X158088134Y-147777200D03*
X158088134Y-145491200D03*
X110210600Y-146634200D03*
X110210600Y-144348200D03*
X108230866Y-145491200D03*
X108230866Y-147777200D03*
X110210600Y-148920200D03*
X112190334Y-147777200D03*
X112190334Y-145491200D03*
X156108400Y-83896200D03*
X156108400Y-81610200D03*
X154128666Y-82753200D03*
X154128666Y-85039200D03*
X156108400Y-86182200D03*
X158088134Y-85039200D03*
X158088134Y-82753200D03*
X110210600Y-83896200D03*
X110210600Y-81610200D03*
X108230866Y-82753200D03*
X108230866Y-85039200D03*
X110210600Y-86182200D03*
X112190334Y-85039200D03*
X112190334Y-82753200D03*
X116840000Y-124460000D03*
M02*
