M48
INCH,TZ
T1C0.020
T2C0.022
T3C0.031
T4C0.037
T5C0.039
T6C0.055
T7C0.059
T8C0.071
T9C0.087
T10C0.091
T11C0.116
%
G90
G05
T1
X42611Y-32580
X42611Y-33480
X42611Y-57280
X42611Y-58180
X43000Y-35750
X43000Y-36500
X43000Y-37250
X43000Y-38750
X43000Y-40250
X43000Y-42250
X43000Y-43000
X43000Y-43750
X43000Y-45250
X43000Y-46000
X43000Y-46750
X43000Y-39500
X43390Y-32130
X43390Y-33930
X43390Y-56830
X43390Y-58630
X43750Y-37500
X43750Y-38000
X43750Y-38500
X43750Y-44000
X43750Y-44500
X43750Y-45000
X43750Y-51000
X43750Y-51500
X43750Y-52000
X43750Y-53500
X43750Y-54000
X43750Y-54500
X44000Y-35750
X44000Y-36500
X44000Y-39500
X44000Y-40250
X44000Y-42250
X44000Y-43000
X44000Y-46000
X44000Y-46750
X44000Y-49250
X44169Y-32580
X44169Y-33480
X44169Y-57280
X44169Y-58180
X44250Y-37250
X44250Y-37750
X44250Y-38250
X44250Y-38750
X44250Y-43750
X44250Y-44250
X44250Y-44750
X44250Y-45250
X44500Y-49250
X44500Y-50000
X44750Y-50500
X44850Y-49700
X44988Y-53262
X45480Y-50517
X45630Y-51908
X45750Y-35500
X45750Y-35900
X45750Y-42000
X45750Y-42400
X45750Y-56250
X45750Y-56750
X45800Y-37950
X45800Y-38350
X45800Y-44400
X45800Y-44800
X46000Y-50500
X46250Y-37000
X46250Y-37500
X46250Y-43500
X46250Y-44000
X46250Y-56750
X46370Y-52000
X46500Y-41000
X46505Y-47490
X46738Y-55012
X46750Y-39100
X46750Y-45600
X46750Y-55500
X46750Y-56750
X46809Y-52309
X47000Y-41000
X47000Y-47500
X47000Y-48950
X47191Y-52691
X47250Y-39100
X47250Y-45600
X47250Y-56750
X47262Y-53488
X47500Y-41000
X47500Y-47500
X47550Y-48950
X47600Y-49600
X47709Y-52484
X47750Y-37000
X47750Y-37500
X47750Y-43500
X47750Y-44000
X47750Y-53000
X47750Y-39100
X47773Y-45600
X48000Y-41000
X48000Y-47500
X48100Y-48950
X48250Y-52250
X48500Y-30500
X48500Y-31000
X48500Y-31500
X48500Y-32000
X48500Y-36750
X48500Y-43000
X48500Y-43000
X49000Y-30500
X49000Y-31000
X49000Y-31500
X49000Y-32000
X49250Y-59250
X49500Y-58250
X50500Y-37750
X50750Y-40750
X50750Y-41500
X50750Y-42250
X51000Y-30500
X51000Y-31000
X51000Y-31500
X51000Y-46250
X51000Y-47250
X51000Y-48250
X51000Y-56500
X51250Y-32000
X51250Y-32500
X51250Y-33000
X51250Y-37750
X51250Y-40250
X51250Y-46750
X51250Y-47750
X51250Y-52250
X51500Y-45750
X51750Y-52250
X52000Y-37750
X52233Y-58750
X52250Y-51500
X52250Y-59500
X52500Y-35500
X52500Y-55750
X52500Y-56250
X52500Y-56750
X52500Y-58250
X52750Y-37750
X53000Y-35500
X53000Y-55750
X53000Y-56250
X53000Y-56750
X53000Y-58250
X53400Y-40200
X53500Y-41000
X53750Y-51750
X54250Y-41000
X54250Y-51250
X54359Y-57529
X54488Y-58762
X54500Y-59500
X54750Y-53000
X54800Y-37200
X55000Y-45750
X55000Y-50500
X55000Y-59500
X55400Y-40800
X55457Y-37207
X55500Y-59500
X56000Y-49750
X56000Y-51250
X56250Y-53000
X56250Y-59500
X56729Y-52750
X56730Y-59500
X56750Y-41500
X56750Y-55500
X57248Y-52772
X57250Y-37750
X57250Y-41500
X57250Y-35500
X57270Y-55503
X57400Y-59500
X57750Y-35500
X57750Y-38000
X57750Y-46000
X57790Y-55501
X58000Y-59500
X58250Y-51250
X58250Y-37750
X58750Y-38000
X59250Y-42250
X59750Y-42000
X60383Y-43390
X60500Y-36000
X60500Y-36500
X60500Y-37000
X60500Y-42500
X60681Y-32580
X60681Y-33480
X60681Y-57280
X60681Y-58180
X60827Y-43000
X60988Y-44238
X61000Y-37000
X61250Y-42000
X61460Y-32130
X61460Y-33930
X61460Y-56830
X61460Y-58630
X61500Y-40750
X61750Y-44250
X61900Y-42600
X62000Y-40750
X62050Y-43450
X62239Y-32580
X62239Y-33480
X62239Y-57280
X62239Y-58180
X62500Y-48330
X62500Y-48870
X62750Y-36750
X62750Y-37250
X62750Y-52750
X63000Y-47340
X63250Y-48000
X63250Y-49340
X63250Y-49980
X63250Y-50520
X63250Y-52250
X63750Y-34250
X63750Y-54750
X63750Y-55500
X64250Y-34250
X64250Y-54750
X64250Y-55500
X64750Y-34250
X64750Y-54750
X64750Y-55500
X64750Y-56250
X65500Y-37250
X65500Y-46500
X65750Y-51750
X65916Y-51179
X66000Y-37250
X66000Y-46090
X66000Y-50500
X66250Y-42500
X66250Y-43000
X66446Y-36379
X66469Y-47559
X66500Y-38000
X66500Y-46590
X66550Y-42200
X66851Y-47941
X66986Y-36379
X67000Y-38000
X67250Y-51250
X67500Y-51750
X68500Y-52500
X68500Y-53000
X68500Y-55250
X68500Y-56250
X68500Y-57250
X68500Y-58250
X68650Y-54750
X68650Y-55750
X68650Y-56750
X68650Y-57750
T2
X46750Y-37000
X46750Y-37500
X46750Y-43500
X46750Y-44000
X47250Y-37000
X47250Y-37500
X47250Y-43500
X47250Y-44000
T3
X52750Y-57500
X68250Y-47819
X68250Y-48606
X68250Y-49394
X68250Y-50181
T4
X64321Y-33489
X65302Y-33574
X66086Y-33643
X67067Y-33729
T5
X40500Y-34000
X40500Y-48500
X46000Y-49000
X47000Y-34000
X47000Y-35000
X48000Y-34000
X48000Y-35000
X49000Y-34000
X49000Y-35000
X50000Y-34000
X50000Y-35000
X51000Y-34000
X51000Y-35000
T6
X53622Y-34919
X56378Y-34919
T7
X46018Y-31796
T8
X47028Y-30758
X47131Y-32723
T9
X49992Y-39492
X49992Y-53508
X64008Y-39492
X64008Y-53508
T10
X63210Y-32316
X68364Y-32767
T11
X43390Y-33030
X43390Y-57730
X61460Y-33030
X61460Y-57730
T0
M30
