%
M48
M72
T01C0.0180
T02C0.0320
T03C0.0394
%
T01
X3290Y3500
X2540Y4500
X2540Y5000
X2540Y5500
X1290Y5750
X1290Y4000
X4040Y4500
X4040Y5000
X4040Y5500
X4540Y5500
X2540Y7500
X3540Y8250
X4790Y8250
X6290Y8500
X6540Y9500
X8625Y9415
X9790Y8750
X9290Y7000
X9290Y6250
X8540Y6250
X8540Y7000
X10290Y6250
X10540Y6750
X11040Y7000
X11540Y6500
X11040Y4750
X9290Y2750
X8790Y2750
X8290Y2750
X9540Y1750
X13790Y4500
X14790Y4500
X14790Y5750
X14790Y7250
X14790Y8750
X13790Y8750
X13290Y9750
X2040Y8750
T02
X12790Y7450
X12790Y5550
T03
X2040Y1000
X2040Y2000
X4510Y2636
X4510Y864
X7070Y864
X7070Y2636
X10404Y3280
X12176Y3280
X12904Y3280
X14676Y3280
X14676Y720
X12904Y720
X12176Y720
X10404Y720
X3290Y5000
X2790Y9500
X3790Y9500
X4790Y9500
X5790Y9500
M30
