G75*
G70*
%OFA0B0*%
%FSLAX24Y24*%
%IPPOS*%
%LPD*%
%AMOC8*
5,1,8,0,0,1.08239X$1,22.5*
%
%ADD10R,0.0245X0.0781*%
%ADD11R,0.0474X0.0513*%
%ADD12R,0.0513X0.0474*%
%ADD13R,0.0671X0.0592*%
%ADD14R,0.1143X0.0710*%
%ADD15C,0.0600*%
%ADD16R,0.0237X0.0710*%
%ADD17R,0.0824X0.0698*%
%ADD18R,0.0592X0.0671*%
%ADD19R,0.0674X0.0674*%
%ADD20OC8,0.0674*%
%ADD21C,0.0674*%
%ADD22R,0.0780X0.0780*%
%ADD23OC8,0.0780*%
%ADD24C,0.0671*%
D10*
X008213Y005500D03*
X008469Y005500D03*
X008725Y005500D03*
X008981Y005500D03*
X009237Y005500D03*
X009493Y005500D03*
X009749Y005500D03*
X010005Y005500D03*
X010260Y005500D03*
X010516Y005500D03*
X010772Y005500D03*
X011028Y005500D03*
X011284Y005500D03*
X011540Y005500D03*
X011540Y007839D03*
X011284Y007839D03*
X011028Y007839D03*
X010772Y007839D03*
X010516Y007839D03*
X010260Y007839D03*
X010005Y007839D03*
X009749Y007839D03*
X009493Y007839D03*
X009237Y007839D03*
X008981Y007839D03*
X008725Y007839D03*
X008469Y007839D03*
X008213Y007839D03*
D11*
X009290Y009165D03*
X009290Y009835D03*
X010290Y009835D03*
X010290Y009165D03*
X011040Y009335D03*
X011040Y008665D03*
X014290Y008335D03*
X014290Y007665D03*
X014290Y006835D03*
X014290Y006165D03*
X014290Y005335D03*
X014290Y004665D03*
X009290Y004085D03*
X009290Y003415D03*
X007790Y003165D03*
X007790Y003835D03*
X006040Y005415D03*
X006040Y006085D03*
X005290Y006085D03*
X005290Y005415D03*
X005290Y006915D03*
X005290Y007585D03*
X006040Y007585D03*
X006040Y006915D03*
D12*
X006705Y007000D03*
X007375Y007000D03*
X007625Y008500D03*
X006955Y008500D03*
X007205Y009500D03*
X007875Y009500D03*
X004375Y007750D03*
X003705Y007750D03*
X003705Y007000D03*
X004375Y007000D03*
X001875Y004500D03*
X001205Y004500D03*
X004455Y003750D03*
X005125Y003750D03*
X008205Y001750D03*
X008875Y001750D03*
X011955Y009750D03*
X012625Y009750D03*
D13*
X008540Y004124D03*
X008540Y003376D03*
D14*
X007040Y004699D03*
X007040Y005801D03*
D15*
X012790Y005550D03*
X012790Y007450D03*
D16*
X003674Y005866D03*
X003418Y005866D03*
X003162Y005866D03*
X002906Y005866D03*
X002906Y004134D03*
X003162Y004134D03*
X003418Y004134D03*
X003674Y004134D03*
D17*
X003290Y005000D03*
D18*
X005166Y004500D03*
X005914Y004500D03*
X002164Y003250D03*
X001416Y003250D03*
D19*
X002790Y009500D03*
D20*
X003790Y009500D03*
X004790Y009500D03*
X005790Y009500D03*
D21*
X010404Y003280D03*
X012176Y003280D03*
X012904Y003280D03*
X014676Y003280D03*
X014676Y000720D03*
X012904Y000720D03*
X012176Y000720D03*
X010404Y000720D03*
X007070Y000864D03*
X007070Y002636D03*
X004510Y002636D03*
X004510Y000864D03*
D22*
X002040Y002000D03*
D23*
X002040Y001000D03*
D24*
X003290Y005000D03*
M02*
