G75*
G70*
%OFA0B0*%
%FSLAX24Y24*%
%IPPOS*%
%LPD*%
%AMOC8*
5,1,8,0,0,1.08239X$1,22.5*
%
%ADD10C,0.0000*%
%ADD11C,0.0001*%
%ADD12C,0.0600*%
%ADD13R,0.0674X0.0674*%
%ADD14OC8,0.0674*%
%ADD15C,0.0674*%
%ADD16R,0.0780X0.0780*%
%ADD17OC8,0.0780*%
%ADD18C,0.0671*%
D10*
X002880Y004650D02*
X003700Y004650D01*
X003700Y005350D01*
X002880Y005350D01*
X002880Y004650D01*
D11*
X002880Y004651D02*
X003700Y004651D01*
X003700Y004652D02*
X002880Y004652D01*
X002880Y004653D02*
X003700Y004653D01*
X003700Y004654D02*
X002880Y004654D01*
X002880Y004655D02*
X003700Y004655D01*
X003700Y004656D02*
X002880Y004656D01*
X002880Y004657D02*
X003700Y004657D01*
X003700Y004658D02*
X002880Y004658D01*
X002880Y004659D02*
X003700Y004659D01*
X003700Y004660D02*
X002880Y004660D01*
X002880Y004661D02*
X003700Y004661D01*
X003700Y004662D02*
X002880Y004662D01*
X002880Y004663D02*
X003700Y004663D01*
X003700Y004664D02*
X002880Y004664D01*
X002880Y004665D02*
X003700Y004665D01*
X003700Y004666D02*
X002880Y004666D01*
X002880Y004667D02*
X003700Y004667D01*
X003700Y004668D02*
X002880Y004668D01*
X002880Y004669D02*
X003700Y004669D01*
X003700Y004670D02*
X002880Y004670D01*
X002880Y004671D02*
X003700Y004671D01*
X003700Y004672D02*
X002880Y004672D01*
X002880Y004673D02*
X003700Y004673D01*
X003700Y004674D02*
X002880Y004674D01*
X002880Y004675D02*
X003700Y004675D01*
X003700Y004676D02*
X002880Y004676D01*
X002880Y004677D02*
X003700Y004677D01*
X003700Y004678D02*
X002880Y004678D01*
X002880Y004679D02*
X003700Y004679D01*
X003700Y004680D02*
X002880Y004680D01*
X002880Y004681D02*
X003700Y004681D01*
X003700Y004682D02*
X002880Y004682D01*
X002880Y004683D02*
X003700Y004683D01*
X003700Y004684D02*
X002880Y004684D01*
X002880Y004685D02*
X003700Y004685D01*
X003700Y004686D02*
X002880Y004686D01*
X002880Y004687D02*
X003700Y004687D01*
X003700Y004688D02*
X002880Y004688D01*
X002880Y004689D02*
X003700Y004689D01*
X003700Y004690D02*
X002880Y004690D01*
X002880Y004691D02*
X003700Y004691D01*
X003700Y004692D02*
X002880Y004692D01*
X002880Y004693D02*
X003700Y004693D01*
X003700Y004694D02*
X002880Y004694D01*
X002880Y004695D02*
X003700Y004695D01*
X003700Y004696D02*
X002880Y004696D01*
X002880Y004697D02*
X003700Y004697D01*
X003700Y004698D02*
X002880Y004698D01*
X002880Y004699D02*
X003700Y004699D01*
X003700Y004700D02*
X002880Y004700D01*
X002880Y004701D02*
X003700Y004701D01*
X003700Y004702D02*
X002880Y004702D01*
X002880Y004703D02*
X003700Y004703D01*
X003700Y004704D02*
X002880Y004704D01*
X002880Y004705D02*
X003700Y004705D01*
X003700Y004706D02*
X002880Y004706D01*
X002880Y004707D02*
X003700Y004707D01*
X003700Y004708D02*
X002880Y004708D01*
X002880Y004709D02*
X003700Y004709D01*
X003700Y004710D02*
X002880Y004710D01*
X002880Y004711D02*
X003700Y004711D01*
X003700Y004712D02*
X002880Y004712D01*
X002880Y004713D02*
X003700Y004713D01*
X003700Y004714D02*
X002880Y004714D01*
X002880Y004715D02*
X003700Y004715D01*
X003700Y004716D02*
X002880Y004716D01*
X002880Y004717D02*
X003700Y004717D01*
X003700Y004718D02*
X002880Y004718D01*
X002880Y004719D02*
X003700Y004719D01*
X003700Y004720D02*
X002880Y004720D01*
X002880Y004721D02*
X003700Y004721D01*
X003700Y004722D02*
X002880Y004722D01*
X002880Y004723D02*
X003700Y004723D01*
X003700Y004724D02*
X002880Y004724D01*
X002880Y004725D02*
X003700Y004725D01*
X003700Y004726D02*
X002880Y004726D01*
X002880Y004727D02*
X003700Y004727D01*
X003700Y004728D02*
X002880Y004728D01*
X002880Y004729D02*
X003700Y004729D01*
X003700Y004730D02*
X002880Y004730D01*
X002880Y004731D02*
X003700Y004731D01*
X003700Y004732D02*
X002880Y004732D01*
X002880Y004733D02*
X003700Y004733D01*
X003700Y004734D02*
X002880Y004734D01*
X002880Y004735D02*
X003700Y004735D01*
X003700Y004736D02*
X002880Y004736D01*
X002880Y004737D02*
X003700Y004737D01*
X003700Y004738D02*
X002880Y004738D01*
X002880Y004739D02*
X003700Y004739D01*
X003700Y004740D02*
X002880Y004740D01*
X002880Y004741D02*
X003700Y004741D01*
X003700Y004742D02*
X002880Y004742D01*
X002880Y004743D02*
X003700Y004743D01*
X003700Y004744D02*
X002880Y004744D01*
X002880Y004745D02*
X003700Y004745D01*
X003700Y004746D02*
X002880Y004746D01*
X002880Y004747D02*
X003700Y004747D01*
X003700Y004748D02*
X002880Y004748D01*
X002880Y004749D02*
X003700Y004749D01*
X003700Y004750D02*
X002880Y004750D01*
X002880Y004751D02*
X003700Y004751D01*
X003700Y004752D02*
X002880Y004752D01*
X002880Y004753D02*
X003700Y004753D01*
X003700Y004754D02*
X002880Y004754D01*
X002880Y004755D02*
X003700Y004755D01*
X003700Y004756D02*
X002880Y004756D01*
X002880Y004757D02*
X003700Y004757D01*
X003700Y004758D02*
X002880Y004758D01*
X002880Y004759D02*
X003700Y004759D01*
X003700Y004760D02*
X002880Y004760D01*
X002880Y004761D02*
X003700Y004761D01*
X003700Y004762D02*
X002880Y004762D01*
X002880Y004763D02*
X003700Y004763D01*
X003700Y004764D02*
X002880Y004764D01*
X002880Y004765D02*
X003700Y004765D01*
X003700Y004766D02*
X002880Y004766D01*
X002880Y004767D02*
X003700Y004767D01*
X003700Y004768D02*
X002880Y004768D01*
X002880Y004769D02*
X003700Y004769D01*
X003700Y004770D02*
X002880Y004770D01*
X002880Y004771D02*
X003700Y004771D01*
X003700Y004772D02*
X002880Y004772D01*
X002880Y004773D02*
X003700Y004773D01*
X003700Y004774D02*
X002880Y004774D01*
X002880Y004775D02*
X003700Y004775D01*
X003700Y004776D02*
X002880Y004776D01*
X002880Y004777D02*
X003700Y004777D01*
X003700Y004778D02*
X002880Y004778D01*
X002880Y004779D02*
X003700Y004779D01*
X003700Y004780D02*
X002880Y004780D01*
X002880Y004781D02*
X003700Y004781D01*
X003700Y004782D02*
X002880Y004782D01*
X002880Y004783D02*
X003700Y004783D01*
X003700Y004784D02*
X002880Y004784D01*
X002880Y004785D02*
X003700Y004785D01*
X003700Y004786D02*
X002880Y004786D01*
X002880Y004787D02*
X003700Y004787D01*
X003700Y004788D02*
X002880Y004788D01*
X002880Y004789D02*
X003700Y004789D01*
X003700Y004790D02*
X002880Y004790D01*
X002880Y004791D02*
X003700Y004791D01*
X003700Y004792D02*
X002880Y004792D01*
X002880Y004793D02*
X003700Y004793D01*
X003700Y004794D02*
X002880Y004794D01*
X002880Y004795D02*
X003700Y004795D01*
X003700Y004796D02*
X002880Y004796D01*
X002880Y004797D02*
X003700Y004797D01*
X003700Y004798D02*
X002880Y004798D01*
X002880Y004799D02*
X003700Y004799D01*
X003700Y004800D02*
X002880Y004800D01*
X002880Y004801D02*
X003700Y004801D01*
X003700Y004802D02*
X002880Y004802D01*
X002880Y004803D02*
X003700Y004803D01*
X003700Y004804D02*
X002880Y004804D01*
X002880Y004805D02*
X003700Y004805D01*
X003700Y004806D02*
X002880Y004806D01*
X002880Y004807D02*
X003700Y004807D01*
X003700Y004808D02*
X002880Y004808D01*
X002880Y004809D02*
X003700Y004809D01*
X003700Y004810D02*
X002880Y004810D01*
X002880Y004811D02*
X003700Y004811D01*
X003700Y004812D02*
X002880Y004812D01*
X002880Y004813D02*
X003700Y004813D01*
X003700Y004814D02*
X002880Y004814D01*
X002880Y004815D02*
X003700Y004815D01*
X003700Y004816D02*
X002880Y004816D01*
X002880Y004817D02*
X003700Y004817D01*
X003700Y004818D02*
X002880Y004818D01*
X003700Y004818D01*
X003700Y004819D02*
X002880Y004819D01*
X002880Y004820D02*
X003700Y004820D01*
X003700Y004821D02*
X002880Y004821D01*
X002880Y004822D02*
X003700Y004822D01*
X003700Y004823D02*
X002880Y004823D01*
X002880Y004824D02*
X003700Y004824D01*
X003700Y004825D02*
X002880Y004825D01*
X002880Y004826D02*
X003700Y004826D01*
X003700Y004827D02*
X002880Y004827D01*
X002880Y004828D02*
X003700Y004828D01*
X003700Y004829D02*
X002880Y004829D01*
X002880Y004830D02*
X003700Y004830D01*
X003700Y004831D02*
X002880Y004831D01*
X002880Y004832D02*
X003700Y004832D01*
X003700Y004833D02*
X002880Y004833D01*
X002880Y004834D02*
X003700Y004834D01*
X003700Y004835D02*
X002880Y004835D01*
X002880Y004836D02*
X003700Y004836D01*
X003700Y004837D02*
X002880Y004837D01*
X002880Y004838D02*
X003700Y004838D01*
X003700Y004839D02*
X002880Y004839D01*
X002880Y004840D02*
X003700Y004840D01*
X003700Y004841D02*
X002880Y004841D01*
X002880Y004842D02*
X003700Y004842D01*
X003700Y004843D02*
X002880Y004843D01*
X002880Y004844D02*
X003700Y004844D01*
X003700Y004845D02*
X002880Y004845D01*
X002880Y004846D02*
X003700Y004846D01*
X003700Y004847D02*
X002880Y004847D01*
X002880Y004848D02*
X003700Y004848D01*
X003700Y004849D02*
X002880Y004849D01*
X002880Y004850D02*
X003700Y004850D01*
X003700Y004851D02*
X002880Y004851D01*
X002880Y004852D02*
X003700Y004852D01*
X003700Y004853D02*
X002880Y004853D01*
X002880Y004854D02*
X003700Y004854D01*
X003700Y004855D02*
X002880Y004855D01*
X002880Y004856D02*
X003700Y004856D01*
X003700Y004857D02*
X002880Y004857D01*
X002880Y004858D02*
X003700Y004858D01*
X003700Y004859D02*
X002880Y004859D01*
X002880Y004860D02*
X003700Y004860D01*
X003700Y004861D02*
X002880Y004861D01*
X002880Y004862D02*
X003700Y004862D01*
X003700Y004863D02*
X002880Y004863D01*
X002880Y004864D02*
X003700Y004864D01*
X003700Y004865D02*
X002880Y004865D01*
X002880Y004866D02*
X003700Y004866D01*
X003700Y004867D02*
X002880Y004867D01*
X002880Y004868D02*
X003700Y004868D01*
X003700Y004869D02*
X002880Y004869D01*
X002880Y004870D02*
X003700Y004870D01*
X003700Y004871D02*
X002880Y004871D01*
X002880Y004872D02*
X003700Y004872D01*
X003700Y004873D02*
X002880Y004873D01*
X002880Y004874D02*
X003700Y004874D01*
X003700Y004875D02*
X002880Y004875D01*
X002880Y004876D02*
X003700Y004876D01*
X003700Y004877D02*
X002880Y004877D01*
X002880Y004878D02*
X003700Y004878D01*
X003700Y004879D02*
X002880Y004879D01*
X002880Y004880D02*
X003700Y004880D01*
X003700Y004881D02*
X002880Y004881D01*
X002880Y004882D02*
X003700Y004882D01*
X003700Y004883D02*
X002880Y004883D01*
X002880Y004884D02*
X003700Y004884D01*
X003700Y004885D02*
X002880Y004885D01*
X002880Y004886D02*
X003700Y004886D01*
X003700Y004887D02*
X002880Y004887D01*
X002880Y004888D02*
X003700Y004888D01*
X003700Y004889D02*
X002880Y004889D01*
X002880Y004890D02*
X003700Y004890D01*
X003700Y004891D02*
X002880Y004891D01*
X002880Y004892D02*
X003700Y004892D01*
X003700Y004893D02*
X002880Y004893D01*
X002880Y004894D02*
X003700Y004894D01*
X003700Y004895D02*
X002880Y004895D01*
X002880Y004896D02*
X003700Y004896D01*
X003700Y004897D02*
X002880Y004897D01*
X002880Y004898D02*
X003700Y004898D01*
X003700Y004899D02*
X002880Y004899D01*
X002880Y004900D02*
X003700Y004900D01*
X003700Y004901D02*
X002880Y004901D01*
X002880Y004902D02*
X003700Y004902D01*
X003700Y004903D02*
X002880Y004903D01*
X002880Y004904D02*
X003700Y004904D01*
X003700Y004905D02*
X002880Y004905D01*
X002880Y004906D02*
X003700Y004906D01*
X003700Y004907D02*
X002880Y004907D01*
X002880Y004908D02*
X003700Y004908D01*
X003700Y004909D02*
X002880Y004909D01*
X002880Y004910D02*
X003700Y004910D01*
X003700Y004911D02*
X002880Y004911D01*
X002880Y004912D02*
X003700Y004912D01*
X003700Y004913D02*
X002880Y004913D01*
X002880Y004914D02*
X003700Y004914D01*
X003700Y004915D02*
X002880Y004915D01*
X002880Y004916D02*
X003700Y004916D01*
X003700Y004917D02*
X002880Y004917D01*
X002880Y004918D02*
X003700Y004918D01*
X003700Y004919D02*
X002880Y004919D01*
X002880Y004920D02*
X003700Y004920D01*
X003700Y004921D02*
X002880Y004921D01*
X002880Y004922D02*
X003700Y004922D01*
X003700Y004923D02*
X002880Y004923D01*
X002880Y004924D02*
X003700Y004924D01*
X003700Y004925D02*
X002880Y004925D01*
X002880Y004926D02*
X003700Y004926D01*
X003700Y004927D02*
X002880Y004927D01*
X002880Y004928D02*
X003700Y004928D01*
X003700Y004929D02*
X002880Y004929D01*
X002880Y004930D02*
X003700Y004930D01*
X003700Y004931D02*
X002880Y004931D01*
X002880Y004932D02*
X003700Y004932D01*
X003700Y004933D02*
X002880Y004933D01*
X002880Y004934D02*
X003700Y004934D01*
X003700Y004935D02*
X002880Y004935D01*
X002880Y004936D02*
X003700Y004936D01*
X003700Y004937D02*
X002880Y004937D01*
X002880Y004938D02*
X003700Y004938D01*
X003700Y004939D02*
X002880Y004939D01*
X002880Y004940D02*
X003700Y004940D01*
X003700Y004941D02*
X002880Y004941D01*
X002880Y004942D02*
X003700Y004942D01*
X003700Y004943D02*
X002880Y004943D01*
X002880Y004944D02*
X003700Y004944D01*
X003700Y004945D02*
X002880Y004945D01*
X002880Y004946D02*
X003700Y004946D01*
X003700Y004947D02*
X002880Y004947D01*
X002880Y004948D02*
X003700Y004948D01*
X003700Y004949D02*
X002880Y004949D01*
X002880Y004950D02*
X003700Y004950D01*
X003700Y004951D02*
X002880Y004951D01*
X002880Y004952D02*
X003700Y004952D01*
X003700Y004953D02*
X002880Y004953D01*
X002880Y004954D02*
X003700Y004954D01*
X003700Y004955D02*
X002880Y004955D01*
X002880Y004956D02*
X003700Y004956D01*
X003700Y004957D02*
X002880Y004957D01*
X002880Y004958D02*
X003700Y004958D01*
X003700Y004959D02*
X002880Y004959D01*
X002880Y004960D02*
X003700Y004960D01*
X003700Y004961D02*
X002880Y004961D01*
X002880Y004962D02*
X003700Y004962D01*
X003700Y004963D02*
X002880Y004963D01*
X002880Y004964D02*
X003700Y004964D01*
X003700Y004965D02*
X002880Y004965D01*
X002880Y004966D02*
X003700Y004966D01*
X003700Y004967D02*
X002880Y004967D01*
X002880Y004968D02*
X003700Y004968D01*
X003700Y004969D02*
X002880Y004969D01*
X002880Y004970D02*
X003700Y004970D01*
X003700Y004971D02*
X002880Y004971D01*
X002880Y004972D02*
X003700Y004972D01*
X003700Y004973D02*
X002880Y004973D01*
X002880Y004974D02*
X003700Y004974D01*
X003700Y004975D02*
X002880Y004975D01*
X002880Y004976D02*
X003700Y004976D01*
X003700Y004977D02*
X002880Y004977D01*
X002880Y004978D02*
X003700Y004978D01*
X003700Y004979D02*
X002880Y004979D01*
X002880Y004980D02*
X003700Y004980D01*
X003700Y004981D02*
X002880Y004981D01*
X002880Y004982D02*
X003700Y004982D01*
X003700Y004983D02*
X002880Y004983D01*
X002880Y004984D02*
X003700Y004984D01*
X003700Y004985D02*
X002880Y004985D01*
X002880Y004986D02*
X003700Y004986D01*
X003700Y004987D02*
X002880Y004987D01*
X002880Y004988D02*
X003700Y004988D01*
X003700Y004989D02*
X002880Y004989D01*
X002880Y004990D02*
X003700Y004990D01*
X003700Y004991D02*
X002880Y004991D01*
X002880Y004992D02*
X003700Y004992D01*
X003700Y004993D02*
X002880Y004993D01*
X002880Y004994D02*
X003700Y004994D01*
X003700Y004995D02*
X002880Y004995D01*
X002880Y004996D02*
X003700Y004996D01*
X003700Y004997D02*
X002880Y004997D01*
X002880Y004998D02*
X003700Y004998D01*
X003700Y004999D02*
X002880Y004999D01*
X002880Y005000D02*
X003700Y005000D01*
X003700Y005001D02*
X002880Y005001D01*
X002880Y005002D02*
X003700Y005002D01*
X003700Y005003D02*
X002880Y005003D01*
X002880Y005004D02*
X003700Y005004D01*
X003700Y005005D02*
X002880Y005005D01*
X002880Y005006D02*
X003700Y005006D01*
X003700Y005007D02*
X002880Y005007D01*
X002880Y005008D02*
X003700Y005008D01*
X003700Y005009D02*
X002880Y005009D01*
X002880Y005010D02*
X003700Y005010D01*
X003700Y005011D02*
X002880Y005011D01*
X002880Y005012D02*
X003700Y005012D01*
X003700Y005013D02*
X002880Y005013D01*
X002880Y005014D02*
X003700Y005014D01*
X003700Y005015D02*
X002880Y005015D01*
X002880Y005016D02*
X003700Y005016D01*
X003700Y005017D02*
X002880Y005017D01*
X002880Y005018D02*
X003700Y005018D01*
X003700Y005019D02*
X002880Y005019D01*
X002880Y005020D02*
X003700Y005020D01*
X003700Y005021D02*
X002880Y005021D01*
X002880Y005022D02*
X003700Y005022D01*
X003700Y005023D02*
X002880Y005023D01*
X002880Y005024D02*
X003700Y005024D01*
X003700Y005025D02*
X002880Y005025D01*
X002880Y005026D02*
X003700Y005026D01*
X003700Y005027D02*
X002880Y005027D01*
X002880Y005028D02*
X003700Y005028D01*
X003700Y005029D02*
X002880Y005029D01*
X002880Y005030D02*
X003700Y005030D01*
X003700Y005031D02*
X002880Y005031D01*
X002880Y005032D02*
X003700Y005032D01*
X003700Y005033D02*
X002880Y005033D01*
X002880Y005034D02*
X003700Y005034D01*
X003700Y005035D02*
X002880Y005035D01*
X002880Y005036D02*
X003700Y005036D01*
X003700Y005037D02*
X002880Y005037D01*
X002880Y005038D02*
X003700Y005038D01*
X003700Y005039D02*
X002880Y005039D01*
X002880Y005040D02*
X003700Y005040D01*
X003700Y005041D02*
X002880Y005041D01*
X002880Y005042D02*
X003700Y005042D01*
X003700Y005043D02*
X002880Y005043D01*
X002880Y005044D02*
X003700Y005044D01*
X003700Y005045D02*
X002880Y005045D01*
X002880Y005046D02*
X003700Y005046D01*
X003700Y005047D02*
X002880Y005047D01*
X002880Y005048D02*
X003700Y005048D01*
X003700Y005049D02*
X002880Y005049D01*
X002880Y005050D02*
X003700Y005050D01*
X003700Y005051D02*
X002880Y005051D01*
X002880Y005052D02*
X003700Y005052D01*
X003700Y005053D02*
X002880Y005053D01*
X002880Y005054D02*
X003700Y005054D01*
X003700Y005055D02*
X002880Y005055D01*
X002880Y005056D02*
X003700Y005056D01*
X003700Y005057D02*
X002880Y005057D01*
X002880Y005058D02*
X003700Y005058D01*
X003700Y005059D02*
X002880Y005059D01*
X002880Y005060D02*
X003700Y005060D01*
X003700Y005061D02*
X002880Y005061D01*
X002880Y005062D02*
X003700Y005062D01*
X003700Y005063D02*
X002880Y005063D01*
X002880Y005064D02*
X003700Y005064D01*
X003700Y005065D02*
X002880Y005065D01*
X002880Y005066D02*
X003700Y005066D01*
X003700Y005067D02*
X002880Y005067D01*
X002880Y005068D02*
X003700Y005068D01*
X003700Y005069D02*
X002880Y005069D01*
X002880Y005070D02*
X003700Y005070D01*
X003700Y005071D02*
X002880Y005071D01*
X002880Y005072D02*
X003700Y005072D01*
X003700Y005073D02*
X002880Y005073D01*
X002880Y005074D02*
X003700Y005074D01*
X003700Y005075D02*
X002880Y005075D01*
X002880Y005076D02*
X003700Y005076D01*
X003700Y005077D02*
X002880Y005077D01*
X002880Y005078D02*
X003700Y005078D01*
X003700Y005079D02*
X002880Y005079D01*
X002880Y005080D02*
X003700Y005080D01*
X003700Y005081D02*
X002880Y005081D01*
X002880Y005082D02*
X003700Y005082D01*
X003700Y005083D02*
X002880Y005083D01*
X002880Y005084D02*
X003700Y005084D01*
X003700Y005085D02*
X002880Y005085D01*
X002880Y005086D02*
X003700Y005086D01*
X003700Y005087D02*
X002880Y005087D01*
X002880Y005088D02*
X003700Y005088D01*
X003700Y005089D02*
X002880Y005089D01*
X002880Y005090D02*
X003700Y005090D01*
X003700Y005091D02*
X002880Y005091D01*
X002880Y005092D02*
X003700Y005092D01*
X003700Y005093D02*
X002880Y005093D01*
X002880Y005094D02*
X003700Y005094D01*
X003700Y005095D02*
X002880Y005095D01*
X002880Y005096D02*
X003700Y005096D01*
X003700Y005097D02*
X002880Y005097D01*
X002880Y005098D02*
X003700Y005098D01*
X003700Y005099D02*
X002880Y005099D01*
X002880Y005100D02*
X003700Y005100D01*
X003700Y005101D02*
X002880Y005101D01*
X002880Y005102D02*
X003700Y005102D01*
X003700Y005103D02*
X002880Y005103D01*
X002880Y005104D02*
X003700Y005104D01*
X003700Y005105D02*
X002880Y005105D01*
X002880Y005106D02*
X003700Y005106D01*
X003700Y005107D02*
X002880Y005107D01*
X002880Y005108D02*
X003700Y005108D01*
X003700Y005109D02*
X002880Y005109D01*
X002880Y005110D02*
X003700Y005110D01*
X003700Y005111D02*
X002880Y005111D01*
X002880Y005112D02*
X003700Y005112D01*
X003700Y005113D02*
X002880Y005113D01*
X002880Y005114D02*
X003700Y005114D01*
X003700Y005115D02*
X002880Y005115D01*
X002880Y005116D02*
X003700Y005116D01*
X003700Y005117D02*
X002880Y005117D01*
X002880Y005118D02*
X003700Y005118D01*
X003700Y005119D02*
X002880Y005119D01*
X002880Y005120D02*
X003700Y005120D01*
X003700Y005121D02*
X002880Y005121D01*
X002880Y005122D02*
X003700Y005122D01*
X003700Y005123D02*
X002880Y005123D01*
X002880Y005124D02*
X003700Y005124D01*
X003700Y005125D02*
X002880Y005125D01*
X002880Y005126D02*
X003700Y005126D01*
X003700Y005127D02*
X002880Y005127D01*
X002880Y005128D02*
X003700Y005128D01*
X003700Y005129D02*
X002880Y005129D01*
X002880Y005130D02*
X003700Y005130D01*
X003700Y005131D02*
X002880Y005131D01*
X002880Y005132D02*
X003700Y005132D01*
X003700Y005133D02*
X002880Y005133D01*
X002880Y005134D02*
X003700Y005134D01*
X003700Y005135D02*
X002880Y005135D01*
X002880Y005136D02*
X003700Y005136D01*
X003700Y005137D02*
X002880Y005137D01*
X002880Y005138D02*
X003700Y005138D01*
X003700Y005139D02*
X002880Y005139D01*
X002880Y005140D02*
X003700Y005140D01*
X003700Y005141D02*
X002880Y005141D01*
X002880Y005142D02*
X003700Y005142D01*
X003700Y005143D02*
X002880Y005143D01*
X002880Y005144D02*
X003700Y005144D01*
X003700Y005145D02*
X002880Y005145D01*
X002880Y005146D02*
X003700Y005146D01*
X003700Y005147D02*
X002880Y005147D01*
X002880Y005148D02*
X003700Y005148D01*
X003700Y005149D02*
X002880Y005149D01*
X002880Y005150D02*
X003700Y005150D01*
X003700Y005151D02*
X002880Y005151D01*
X002880Y005152D02*
X003700Y005152D01*
X003700Y005153D02*
X002880Y005153D01*
X002880Y005154D02*
X003700Y005154D01*
X003700Y005155D02*
X002880Y005155D01*
X002880Y005156D02*
X003700Y005156D01*
X003700Y005157D02*
X002880Y005157D01*
X002880Y005158D02*
X003700Y005158D01*
X003700Y005159D02*
X002880Y005159D01*
X002880Y005160D02*
X003700Y005160D01*
X003700Y005161D02*
X002880Y005161D01*
X002880Y005162D02*
X003700Y005162D01*
X003700Y005163D02*
X002880Y005163D01*
X002880Y005164D02*
X003700Y005164D01*
X003700Y005165D02*
X002880Y005165D01*
X002880Y005166D02*
X003700Y005166D01*
X003700Y005167D02*
X002880Y005167D01*
X002880Y005168D02*
X003700Y005168D01*
X003700Y005169D02*
X002880Y005169D01*
X002880Y005170D02*
X003700Y005170D01*
X003700Y005171D02*
X002880Y005171D01*
X002880Y005172D02*
X003700Y005172D01*
X003700Y005173D02*
X002880Y005173D01*
X002880Y005174D02*
X003700Y005174D01*
X003700Y005175D02*
X002880Y005175D01*
X002880Y005176D02*
X003700Y005176D01*
X003700Y005177D02*
X002880Y005177D01*
X002880Y005178D02*
X003700Y005178D01*
X003700Y005179D02*
X002880Y005179D01*
X002880Y005180D02*
X003700Y005180D01*
X003700Y005181D02*
X002880Y005181D01*
X002880Y005182D02*
X003700Y005182D01*
X003700Y005183D02*
X002880Y005183D01*
X002880Y005184D02*
X003700Y005184D01*
X003700Y005185D02*
X002880Y005185D01*
X002880Y005186D02*
X003700Y005186D01*
X003700Y005187D02*
X002880Y005187D01*
X002880Y005188D02*
X003700Y005188D01*
X003700Y005189D02*
X002880Y005189D01*
X002880Y005190D02*
X003700Y005190D01*
X003700Y005191D02*
X002880Y005191D01*
X002880Y005192D02*
X003700Y005192D01*
X003700Y005193D02*
X002880Y005193D01*
X002880Y005194D02*
X003700Y005194D01*
X003700Y005195D02*
X002880Y005195D01*
X002880Y005196D02*
X003700Y005196D01*
X003700Y005197D02*
X002880Y005197D01*
X002880Y005198D02*
X003700Y005198D01*
X003700Y005199D02*
X002880Y005199D01*
X002880Y005200D02*
X003700Y005200D01*
X003700Y005201D02*
X002880Y005201D01*
X002880Y005202D02*
X003700Y005202D01*
X003700Y005203D02*
X002880Y005203D01*
X002880Y005204D02*
X003700Y005204D01*
X003700Y005205D02*
X002880Y005205D01*
X002880Y005206D02*
X003700Y005206D01*
X003700Y005207D02*
X002880Y005207D01*
X002880Y005208D02*
X003700Y005208D01*
X003700Y005209D02*
X002880Y005209D01*
X002880Y005210D02*
X003700Y005210D01*
X003700Y005211D02*
X002880Y005211D01*
X002880Y005212D02*
X003700Y005212D01*
X003700Y005213D02*
X002880Y005213D01*
X002880Y005214D02*
X003700Y005214D01*
X003700Y005215D02*
X002880Y005215D01*
X002880Y005216D02*
X003700Y005216D01*
X003700Y005217D02*
X002880Y005217D01*
X002880Y005218D02*
X003700Y005218D01*
X003700Y005219D02*
X002880Y005219D01*
X002880Y005220D02*
X003700Y005220D01*
X003700Y005221D02*
X002880Y005221D01*
X002880Y005222D02*
X003700Y005222D01*
X003700Y005223D02*
X002880Y005223D01*
X002880Y005224D02*
X003700Y005224D01*
X003700Y005225D02*
X002880Y005225D01*
X002880Y005226D02*
X003700Y005226D01*
X003700Y005227D02*
X002880Y005227D01*
X002880Y005228D02*
X003700Y005228D01*
X003700Y005229D02*
X002880Y005229D01*
X002880Y005230D02*
X003700Y005230D01*
X003700Y005231D02*
X002880Y005231D01*
X002880Y005232D02*
X003700Y005232D01*
X003700Y005233D02*
X002880Y005233D01*
X002880Y005234D02*
X003700Y005234D01*
X003700Y005235D02*
X002880Y005235D01*
X002880Y005236D02*
X003700Y005236D01*
X003700Y005237D02*
X002880Y005237D01*
X002880Y005238D02*
X003700Y005238D01*
X003700Y005239D02*
X002880Y005239D01*
X002880Y005240D02*
X003700Y005240D01*
X003700Y005241D02*
X002880Y005241D01*
X002880Y005242D02*
X003700Y005242D01*
X003700Y005243D02*
X002880Y005243D01*
X002880Y005244D02*
X003700Y005244D01*
X003700Y005245D02*
X002880Y005245D01*
X002880Y005246D02*
X003700Y005246D01*
X003700Y005247D02*
X002880Y005247D01*
X002880Y005248D02*
X003700Y005248D01*
X003700Y005249D02*
X002880Y005249D01*
X002880Y005250D02*
X003700Y005250D01*
X003700Y005251D02*
X002880Y005251D01*
X002880Y005252D02*
X003700Y005252D01*
X003700Y005253D02*
X002880Y005253D01*
X002880Y005254D02*
X003700Y005254D01*
X003700Y005255D02*
X002880Y005255D01*
X002880Y005256D02*
X003700Y005256D01*
X003700Y005257D02*
X002880Y005257D01*
X002880Y005258D02*
X003700Y005258D01*
X003700Y005259D02*
X002880Y005259D01*
X002880Y005260D02*
X003700Y005260D01*
X003700Y005261D02*
X002880Y005261D01*
X002880Y005262D02*
X003700Y005262D01*
X003700Y005263D02*
X002880Y005263D01*
X002880Y005264D02*
X003700Y005264D01*
X003700Y005265D02*
X002880Y005265D01*
X002880Y005266D02*
X003700Y005266D01*
X003700Y005267D02*
X002880Y005267D01*
X002880Y005268D02*
X003700Y005268D01*
X003700Y005269D02*
X002880Y005269D01*
X002880Y005270D02*
X003700Y005270D01*
X003700Y005271D02*
X002880Y005271D01*
X002880Y005272D02*
X003700Y005272D01*
X003700Y005273D02*
X002880Y005273D01*
X002880Y005274D02*
X003700Y005274D01*
X003700Y005275D02*
X002880Y005275D01*
X002880Y005276D02*
X003700Y005276D01*
X003700Y005277D02*
X002880Y005277D01*
X002880Y005278D02*
X003700Y005278D01*
X003700Y005279D02*
X002880Y005279D01*
X002880Y005280D02*
X003700Y005280D01*
X003700Y005281D02*
X002880Y005281D01*
X002880Y005282D02*
X003700Y005282D01*
X003700Y005283D02*
X002880Y005283D01*
X002880Y005284D02*
X003700Y005284D01*
X003700Y005285D02*
X002880Y005285D01*
X002880Y005286D02*
X003700Y005286D01*
X003700Y005287D02*
X002880Y005287D01*
X002880Y005288D02*
X003700Y005288D01*
X003700Y005289D02*
X002880Y005289D01*
X002880Y005290D02*
X003700Y005290D01*
X003700Y005291D02*
X002880Y005291D01*
X002880Y005292D02*
X003700Y005292D01*
X003700Y005293D02*
X002880Y005293D01*
X002880Y005294D02*
X003700Y005294D01*
X003700Y005295D02*
X002880Y005295D01*
X002880Y005296D02*
X003700Y005296D01*
X003700Y005297D02*
X002880Y005297D01*
X002880Y005298D02*
X003700Y005298D01*
X003700Y005299D02*
X002880Y005299D01*
X002880Y005300D02*
X003700Y005300D01*
X003700Y005301D02*
X002880Y005301D01*
X002880Y005302D02*
X003700Y005302D01*
X003700Y005303D02*
X002880Y005303D01*
X002880Y005304D02*
X003700Y005304D01*
X003700Y005305D02*
X002880Y005305D01*
X002880Y005306D02*
X003700Y005306D01*
X003700Y005307D02*
X002880Y005307D01*
X002880Y005308D02*
X003700Y005308D01*
X003700Y005309D02*
X002880Y005309D01*
X002880Y005310D02*
X003700Y005310D01*
X003700Y005311D02*
X002880Y005311D01*
X002880Y005312D02*
X003700Y005312D01*
X003700Y005313D02*
X002880Y005313D01*
X002880Y005314D02*
X003700Y005314D01*
X003700Y005315D02*
X002880Y005315D01*
X002880Y005316D02*
X003700Y005316D01*
X003700Y005317D02*
X002880Y005317D01*
X002880Y005318D02*
X003700Y005318D01*
X003700Y005319D02*
X002880Y005319D01*
X002880Y005320D02*
X003700Y005320D01*
X003700Y005321D02*
X002880Y005321D01*
X002880Y005322D02*
X003700Y005322D01*
X003700Y005323D02*
X002880Y005323D01*
X002880Y005324D02*
X003700Y005324D01*
X003700Y005325D02*
X002880Y005325D01*
X002880Y005326D02*
X003700Y005326D01*
X003700Y005327D02*
X002880Y005327D01*
X002880Y005328D02*
X003700Y005328D01*
X003700Y005329D02*
X002880Y005329D01*
X002880Y005330D02*
X003700Y005330D01*
X003700Y005331D02*
X002880Y005331D01*
X002880Y005332D02*
X003700Y005332D01*
X003700Y005333D02*
X002880Y005333D01*
X002880Y005334D02*
X003700Y005334D01*
X003700Y005335D02*
X002880Y005335D01*
X002880Y005336D02*
X003700Y005336D01*
X003700Y005337D02*
X002880Y005337D01*
X002880Y005338D02*
X003700Y005338D01*
X003700Y005339D02*
X002880Y005339D01*
X002880Y005340D02*
X003700Y005340D01*
X003700Y005341D02*
X002880Y005341D01*
X002880Y005342D02*
X003700Y005342D01*
X003700Y005343D02*
X002880Y005343D01*
X002880Y005344D02*
X003700Y005344D01*
X003700Y005345D02*
X002880Y005345D01*
X002880Y005346D02*
X003700Y005346D01*
X003700Y005347D02*
X002880Y005347D01*
X002880Y005348D02*
X003700Y005348D01*
X003700Y005349D02*
X002880Y005349D01*
X002880Y005350D02*
X003700Y005350D01*
D12*
X012790Y005550D03*
X012790Y007450D03*
D13*
X002790Y009500D03*
D14*
X003790Y009500D03*
X004790Y009500D03*
X005790Y009500D03*
D15*
X010404Y003280D03*
X012176Y003280D03*
X012904Y003280D03*
X014676Y003280D03*
X014676Y000720D03*
X012904Y000720D03*
X012176Y000720D03*
X010404Y000720D03*
X007070Y000864D03*
X007070Y002636D03*
X004510Y002636D03*
X004510Y000864D03*
D16*
X002040Y002000D03*
D17*
X002040Y001000D03*
D18*
X003290Y005000D03*
M02*
