G75*
G70*
%OFA0B0*%
%FSLAX24Y24*%
%IPPOS*%
%LPD*%
%AMOC8*
5,1,8,0,0,1.08239X$1,22.5*
%
%ADD10C,0.0520*%
%ADD11R,0.0594X0.0594*%
%ADD12OC8,0.0594*%
%ADD13C,0.0594*%
%ADD14R,0.0700X0.0700*%
%ADD15OC8,0.0700*%
%ADD16C,0.0160*%
%ADD17C,0.0340*%
%ADD18C,0.0591*%
%ADD19C,0.0100*%
D10*
X012790Y005550D03*
X012790Y007450D03*
D11*
X002790Y009500D03*
D12*
X003790Y009500D03*
X004790Y009500D03*
X005790Y009500D03*
D13*
X010404Y003280D03*
X012176Y003280D03*
X012904Y003280D03*
X014676Y003280D03*
X014676Y000720D03*
X012904Y000720D03*
X012176Y000720D03*
X010404Y000720D03*
X007070Y000864D03*
X007070Y002636D03*
X004510Y002636D03*
X004510Y000864D03*
D14*
X002040Y002000D03*
D15*
X002040Y001000D03*
D16*
X001030Y000490D02*
X001030Y003680D01*
X001058Y003652D01*
X001208Y003590D01*
X001372Y003590D01*
X001522Y003652D01*
X001550Y003680D01*
X002157Y003680D01*
X002609Y003229D01*
X002726Y003180D01*
X003030Y003180D01*
X003058Y003152D01*
X003208Y003090D01*
X003372Y003090D01*
X003522Y003152D01*
X003638Y003268D01*
X003700Y003418D01*
X003700Y003582D01*
X003638Y003732D01*
X003522Y003848D01*
X003372Y003910D01*
X003208Y003910D01*
X003058Y003848D01*
X003030Y003820D01*
X002923Y003820D01*
X002561Y004181D01*
X002471Y004271D01*
X002354Y004320D01*
X001550Y004320D01*
X001522Y004348D01*
X001372Y004410D01*
X001208Y004410D01*
X001058Y004348D01*
X001030Y004320D01*
X001030Y005430D01*
X001058Y005402D01*
X001208Y005340D01*
X001372Y005340D01*
X001522Y005402D01*
X001638Y005518D01*
X001700Y005668D01*
X001700Y005832D01*
X001638Y005982D01*
X001610Y006010D01*
X001610Y007867D01*
X002083Y008340D01*
X002122Y008340D01*
X002272Y008402D01*
X002388Y008518D01*
X002450Y008668D01*
X002450Y008832D01*
X002388Y008982D01*
X002379Y008991D01*
X002445Y008963D01*
X003135Y008963D01*
X003223Y009000D01*
X003290Y009067D01*
X003327Y009155D01*
X003327Y009204D01*
X003568Y008963D01*
X004012Y008963D01*
X004290Y009241D01*
X004568Y008963D01*
X005012Y008963D01*
X005327Y009278D01*
X005327Y009289D01*
X005592Y009023D01*
X005772Y009023D01*
X005772Y009482D01*
X005808Y009482D01*
X005808Y009023D01*
X005988Y009023D01*
X006212Y009248D01*
X006308Y009152D01*
X006458Y009090D01*
X006622Y009090D01*
X006772Y009152D01*
X006888Y009268D01*
X006950Y009418D01*
X006950Y009582D01*
X006888Y009732D01*
X006772Y009848D01*
X006622Y009910D01*
X006540Y009910D01*
X006440Y010010D01*
X015050Y010010D01*
X015050Y003665D01*
X014980Y003735D01*
X014783Y003816D01*
X014569Y003816D01*
X014372Y003735D01*
X014221Y003584D01*
X014139Y003386D01*
X014139Y003173D01*
X014221Y002975D01*
X014372Y002824D01*
X014569Y002743D01*
X014783Y002743D01*
X014980Y002824D01*
X015050Y002894D01*
X015050Y001106D01*
X014980Y001176D01*
X014783Y001257D01*
X014569Y001257D01*
X014372Y001176D01*
X014221Y001025D01*
X014139Y000827D01*
X014139Y000614D01*
X014190Y000490D01*
X013390Y000490D01*
X013441Y000614D01*
X013441Y000827D01*
X013359Y001025D01*
X013208Y001176D01*
X013011Y001257D01*
X012797Y001257D01*
X012600Y001176D01*
X012540Y001116D01*
X012480Y001176D01*
X012283Y001257D01*
X012069Y001257D01*
X011872Y001176D01*
X011721Y001025D01*
X011639Y000827D01*
X011639Y000614D01*
X011690Y000490D01*
X010890Y000490D01*
X010941Y000614D01*
X010941Y000827D01*
X010859Y001025D01*
X010708Y001176D01*
X010511Y001257D01*
X010297Y001257D01*
X010100Y001176D01*
X009949Y001025D01*
X009867Y000827D01*
X009867Y000614D01*
X009919Y000490D01*
X007455Y000490D01*
X007525Y000560D01*
X007606Y000757D01*
X007606Y000971D01*
X007525Y001168D01*
X007374Y001319D01*
X007176Y001401D01*
X006963Y001401D01*
X006765Y001319D01*
X006614Y001168D01*
X006533Y000971D01*
X006533Y000757D01*
X006614Y000560D01*
X006684Y000490D01*
X004896Y000490D01*
X004966Y000560D01*
X005047Y000757D01*
X005047Y000971D01*
X004966Y001168D01*
X004815Y001319D01*
X004617Y001401D01*
X004404Y001401D01*
X004206Y001319D01*
X004169Y001282D01*
X004080Y001370D01*
X004080Y002307D01*
X004206Y002181D01*
X004404Y002099D01*
X004617Y002099D01*
X004815Y002181D01*
X004966Y002332D01*
X005047Y002529D01*
X005047Y002743D01*
X004966Y002940D01*
X004815Y003091D01*
X004621Y003171D01*
X004786Y003336D01*
X004830Y003442D01*
X004830Y005210D01*
X004888Y005268D01*
X004950Y005418D01*
X004950Y005582D01*
X004888Y005732D01*
X004772Y005848D01*
X004622Y005910D01*
X004458Y005910D01*
X004308Y005848D01*
X004192Y005732D01*
X004130Y005582D01*
X004130Y005418D01*
X004192Y005268D01*
X004250Y005210D01*
X004250Y003620D01*
X003626Y002996D01*
X003544Y002914D01*
X003500Y002808D01*
X003500Y001192D01*
X003544Y001086D01*
X003626Y001004D01*
X004012Y000618D01*
X004035Y000608D01*
X004055Y000560D01*
X004125Y000490D01*
X002364Y000490D01*
X002630Y000756D01*
X002630Y001244D01*
X002457Y001418D01*
X002526Y001447D01*
X002593Y001514D01*
X002630Y001602D01*
X002630Y002398D01*
X002593Y002486D01*
X002526Y002553D01*
X002438Y002590D01*
X001642Y002590D01*
X001554Y002553D01*
X001487Y002486D01*
X001450Y002398D01*
X001450Y001602D01*
X001487Y001514D01*
X001554Y001447D01*
X001623Y001418D01*
X001450Y001244D01*
X001450Y000756D01*
X001716Y000490D01*
X001030Y000490D01*
X001030Y000567D02*
X001639Y000567D01*
X001480Y000726D02*
X001030Y000726D01*
X001030Y000884D02*
X001450Y000884D01*
X001450Y001043D02*
X001030Y001043D01*
X001030Y001201D02*
X001450Y001201D01*
X001565Y001360D02*
X001030Y001360D01*
X001030Y001518D02*
X001485Y001518D01*
X001450Y001677D02*
X001030Y001677D01*
X001030Y001835D02*
X001450Y001835D01*
X001450Y001994D02*
X001030Y001994D01*
X001030Y002152D02*
X001450Y002152D01*
X001450Y002311D02*
X001030Y002311D01*
X001030Y002469D02*
X001480Y002469D01*
X001030Y002628D02*
X003500Y002628D01*
X003500Y002786D02*
X001030Y002786D01*
X001030Y002945D02*
X003574Y002945D01*
X003733Y003103D02*
X003403Y003103D01*
X003177Y003103D02*
X001030Y003103D01*
X001030Y003262D02*
X002576Y003262D01*
X002417Y003420D02*
X001030Y003420D01*
X001030Y003579D02*
X002259Y003579D01*
X002290Y004000D02*
X001290Y004000D01*
X001114Y004371D02*
X001030Y004371D01*
X001030Y004530D02*
X004250Y004530D01*
X004250Y004688D02*
X001030Y004688D01*
X001030Y004847D02*
X004250Y004847D01*
X004250Y005005D02*
X001030Y005005D01*
X001030Y005164D02*
X004250Y005164D01*
X004170Y005322D02*
X001030Y005322D01*
X001290Y005750D02*
X001290Y008000D01*
X002040Y008750D01*
X002076Y008334D02*
X015050Y008334D01*
X015050Y008492D02*
X010112Y008492D01*
X010138Y008518D02*
X010200Y008668D01*
X010200Y008832D01*
X010138Y008982D01*
X010022Y009098D01*
X009872Y009160D01*
X009790Y009160D01*
X009289Y009661D01*
X009182Y009705D01*
X008914Y009705D01*
X008857Y009763D01*
X008706Y009825D01*
X008543Y009825D01*
X008392Y009763D01*
X008277Y009648D01*
X008215Y009497D01*
X008215Y009334D01*
X008277Y009183D01*
X008392Y009068D01*
X008543Y009005D01*
X008706Y009005D01*
X008857Y009068D01*
X008914Y009125D01*
X009005Y009125D01*
X009380Y008750D01*
X009380Y008668D01*
X009442Y008518D01*
X009558Y008402D01*
X009708Y008340D01*
X009872Y008340D01*
X010022Y008402D01*
X010138Y008518D01*
X010193Y008651D02*
X015050Y008651D01*
X015050Y008809D02*
X010200Y008809D01*
X010144Y008968D02*
X015050Y008968D01*
X015050Y009126D02*
X009954Y009126D01*
X009666Y009285D02*
X015050Y009285D01*
X015050Y009443D02*
X009507Y009443D01*
X009349Y009602D02*
X015050Y009602D01*
X015050Y009760D02*
X008860Y009760D01*
X008389Y009760D02*
X006860Y009760D01*
X006942Y009602D02*
X008258Y009602D01*
X008215Y009443D02*
X006950Y009443D01*
X006895Y009285D02*
X008235Y009285D01*
X008334Y009126D02*
X006708Y009126D01*
X006371Y009126D02*
X006090Y009126D01*
X005808Y009126D02*
X005772Y009126D01*
X005772Y009285D02*
X005808Y009285D01*
X005808Y009443D02*
X005772Y009443D01*
X005490Y009126D02*
X005175Y009126D01*
X005327Y009285D02*
X005331Y009285D01*
X005017Y008968D02*
X009162Y008968D01*
X009321Y008809D02*
X002450Y008809D01*
X002443Y008651D02*
X009387Y008651D01*
X009468Y008492D02*
X002362Y008492D01*
X002394Y008968D02*
X002435Y008968D01*
X003145Y008968D02*
X003563Y008968D01*
X003405Y009126D02*
X003315Y009126D01*
X004017Y008968D02*
X004563Y008968D01*
X004405Y009126D02*
X004175Y009126D01*
X001918Y008175D02*
X015050Y008175D01*
X015050Y008017D02*
X001759Y008017D01*
X001610Y007858D02*
X012491Y007858D01*
X012507Y007874D02*
X012366Y007733D01*
X012290Y007549D01*
X012290Y007351D01*
X012366Y007167D01*
X012507Y007026D01*
X012691Y006950D01*
X012889Y006950D01*
X013073Y007026D01*
X013214Y007167D01*
X013290Y007351D01*
X013290Y007549D01*
X013214Y007733D01*
X013073Y007874D01*
X012889Y007950D01*
X012691Y007950D01*
X012507Y007874D01*
X012352Y007700D02*
X001610Y007700D01*
X001610Y007541D02*
X012290Y007541D01*
X012290Y007383D02*
X001610Y007383D01*
X001610Y007224D02*
X012342Y007224D01*
X012467Y007066D02*
X010804Y007066D01*
X010772Y007098D02*
X010622Y007160D01*
X010458Y007160D01*
X010308Y007098D01*
X010192Y006982D01*
X010130Y006832D01*
X010130Y006668D01*
X010192Y006518D01*
X010308Y006402D01*
X010458Y006340D01*
X010540Y006340D01*
X010750Y006130D01*
X010750Y005040D01*
X010692Y004982D01*
X010630Y004832D01*
X010630Y004668D01*
X010692Y004518D01*
X010750Y004460D01*
X010750Y003693D01*
X010708Y003735D01*
X010511Y003816D01*
X010297Y003816D01*
X010100Y003735D01*
X009949Y003584D01*
X009867Y003386D01*
X009867Y003173D01*
X009949Y002975D01*
X010100Y002824D01*
X010297Y002743D01*
X010511Y002743D01*
X010701Y002822D01*
X009920Y002040D01*
X009830Y002040D01*
X009772Y002098D01*
X009622Y002160D01*
X009458Y002160D01*
X009308Y002098D01*
X009192Y001982D01*
X009130Y001832D01*
X009130Y001668D01*
X009192Y001518D01*
X004080Y001518D01*
X004080Y001677D02*
X009130Y001677D01*
X009131Y001835D02*
X004080Y001835D01*
X004080Y001994D02*
X009204Y001994D01*
X009439Y002152D02*
X007304Y002152D01*
X007374Y002181D02*
X007176Y002099D01*
X006963Y002099D01*
X006765Y002181D01*
X006614Y002332D01*
X006533Y002529D01*
X006533Y002743D01*
X006614Y002940D01*
X006765Y003091D01*
X006963Y003173D01*
X007176Y003173D01*
X007374Y003091D01*
X007525Y002940D01*
X007606Y002743D01*
X007606Y002529D01*
X007525Y002332D01*
X007374Y002181D01*
X007503Y002311D02*
X010190Y002311D01*
X010349Y002469D02*
X007582Y002469D01*
X007606Y002628D02*
X010507Y002628D01*
X010616Y002786D02*
X010666Y002786D01*
X011169Y002469D02*
X015050Y002469D01*
X015050Y002311D02*
X011011Y002311D01*
X010852Y002152D02*
X015050Y002152D01*
X015050Y001994D02*
X010694Y001994D01*
X010535Y001835D02*
X015050Y001835D01*
X015050Y001677D02*
X010377Y001677D01*
X010286Y001586D02*
X011286Y002586D01*
X011330Y002692D01*
X011330Y004460D01*
X011388Y004518D01*
X011450Y004668D01*
X011450Y004832D01*
X011388Y004982D01*
X011330Y005040D01*
X011330Y006308D01*
X011286Y006414D01*
X011204Y006496D01*
X010950Y006750D01*
X010950Y006832D01*
X010888Y006982D01*
X010772Y007098D01*
X010919Y006907D02*
X015050Y006907D01*
X015050Y006749D02*
X010952Y006749D01*
X011110Y006590D02*
X015050Y006590D01*
X015050Y006432D02*
X011269Y006432D01*
X011330Y006273D02*
X015050Y006273D01*
X015050Y006115D02*
X011330Y006115D01*
X011330Y005956D02*
X012489Y005956D01*
X012507Y005974D02*
X012366Y005833D01*
X012290Y005649D01*
X012290Y005451D01*
X012366Y005267D01*
X012507Y005126D01*
X012691Y005050D01*
X012889Y005050D01*
X013073Y005126D01*
X013214Y005267D01*
X013290Y005451D01*
X013290Y005649D01*
X013214Y005833D01*
X013073Y005974D01*
X012889Y006050D01*
X012691Y006050D01*
X012507Y005974D01*
X012351Y005798D02*
X011330Y005798D01*
X011330Y005639D02*
X012290Y005639D01*
X012290Y005481D02*
X011330Y005481D01*
X011330Y005322D02*
X012343Y005322D01*
X012469Y005164D02*
X011330Y005164D01*
X011365Y005005D02*
X015050Y005005D01*
X015050Y004847D02*
X011444Y004847D01*
X011450Y004688D02*
X015050Y004688D01*
X015050Y004530D02*
X011392Y004530D01*
X011330Y004371D02*
X015050Y004371D01*
X015050Y004213D02*
X011330Y004213D01*
X011330Y004054D02*
X015050Y004054D01*
X015050Y003896D02*
X011330Y003896D01*
X011330Y003737D02*
X011877Y003737D01*
X011872Y003735D02*
X011721Y003584D01*
X011639Y003386D01*
X011639Y003173D01*
X011721Y002975D01*
X011872Y002824D01*
X012069Y002743D01*
X012283Y002743D01*
X012480Y002824D01*
X012540Y002884D01*
X012600Y002824D01*
X012797Y002743D01*
X013011Y002743D01*
X013208Y002824D01*
X013359Y002975D01*
X013441Y003173D01*
X013441Y003386D01*
X013359Y003584D01*
X013208Y003735D01*
X013011Y003816D01*
X012797Y003816D01*
X012600Y003735D01*
X012540Y003675D01*
X012480Y003735D01*
X012283Y003816D01*
X012069Y003816D01*
X011872Y003735D01*
X011719Y003579D02*
X011330Y003579D01*
X011330Y003420D02*
X011653Y003420D01*
X011639Y003262D02*
X011330Y003262D01*
X011330Y003103D02*
X011668Y003103D01*
X011752Y002945D02*
X011330Y002945D01*
X011330Y002786D02*
X011964Y002786D01*
X012387Y002786D02*
X012693Y002786D01*
X013116Y002786D02*
X014464Y002786D01*
X014252Y002945D02*
X013328Y002945D01*
X013412Y003103D02*
X014168Y003103D01*
X014139Y003262D02*
X013441Y003262D01*
X013427Y003420D02*
X014153Y003420D01*
X014219Y003579D02*
X013361Y003579D01*
X013203Y003737D02*
X014377Y003737D01*
X014974Y003737D02*
X015050Y003737D01*
X015050Y002786D02*
X014887Y002786D01*
X015050Y002628D02*
X011303Y002628D01*
X010193Y002786D02*
X007588Y002786D01*
X007520Y002945D02*
X009980Y002945D01*
X009896Y003103D02*
X007345Y003103D01*
X006795Y003103D02*
X004785Y003103D01*
X004712Y003262D02*
X009867Y003262D01*
X009881Y003420D02*
X004821Y003420D01*
X004830Y003579D02*
X009947Y003579D01*
X010106Y003737D02*
X004830Y003737D01*
X004830Y003896D02*
X010750Y003896D01*
X010750Y004054D02*
X004830Y004054D01*
X004830Y004213D02*
X010750Y004213D01*
X010750Y004371D02*
X004830Y004371D01*
X004830Y004530D02*
X010688Y004530D01*
X010630Y004688D02*
X004830Y004688D01*
X004830Y004847D02*
X010636Y004847D01*
X010715Y005005D02*
X004830Y005005D01*
X004830Y005164D02*
X010750Y005164D01*
X010750Y005322D02*
X004910Y005322D01*
X004950Y005481D02*
X010750Y005481D01*
X010750Y005639D02*
X004926Y005639D01*
X004822Y005798D02*
X010750Y005798D01*
X010750Y005956D02*
X001648Y005956D01*
X001610Y006115D02*
X010750Y006115D01*
X010607Y006273D02*
X001610Y006273D01*
X001610Y006432D02*
X010279Y006432D01*
X010162Y006590D02*
X001610Y006590D01*
X001610Y006749D02*
X010130Y006749D01*
X010161Y006907D02*
X001610Y006907D01*
X001610Y007066D02*
X010276Y007066D01*
X013113Y007066D02*
X015050Y007066D01*
X015050Y007224D02*
X013238Y007224D01*
X013290Y007383D02*
X015050Y007383D01*
X015050Y007541D02*
X013290Y007541D01*
X013228Y007700D02*
X015050Y007700D01*
X015050Y007858D02*
X013089Y007858D01*
X013091Y005956D02*
X015050Y005956D01*
X015050Y005798D02*
X013229Y005798D01*
X013290Y005639D02*
X015050Y005639D01*
X015050Y005481D02*
X013290Y005481D01*
X013237Y005322D02*
X015050Y005322D01*
X015050Y005164D02*
X013111Y005164D01*
X012606Y003737D02*
X012474Y003737D01*
X010750Y003737D02*
X010703Y003737D01*
X010032Y002152D02*
X009641Y002152D01*
X009192Y001518D02*
X009308Y001402D01*
X009458Y001340D01*
X009622Y001340D01*
X009772Y001402D01*
X009830Y001460D01*
X010098Y001460D01*
X010204Y001504D01*
X010286Y001586D01*
X010218Y001518D02*
X015050Y001518D01*
X015050Y001360D02*
X009669Y001360D01*
X009411Y001360D02*
X007277Y001360D01*
X007492Y001201D02*
X010161Y001201D01*
X009967Y001043D02*
X007577Y001043D01*
X007606Y000884D02*
X009891Y000884D01*
X009867Y000726D02*
X007593Y000726D01*
X007528Y000567D02*
X009887Y000567D01*
X010647Y001201D02*
X011933Y001201D01*
X011739Y001043D02*
X010841Y001043D01*
X010918Y000884D02*
X011662Y000884D01*
X011639Y000726D02*
X010941Y000726D01*
X010922Y000567D02*
X011658Y000567D01*
X012419Y001201D02*
X012661Y001201D01*
X013147Y001201D02*
X014433Y001201D01*
X014239Y001043D02*
X013341Y001043D01*
X013418Y000884D02*
X014162Y000884D01*
X014139Y000726D02*
X013441Y000726D01*
X013422Y000567D02*
X014158Y000567D01*
X014919Y001201D02*
X015050Y001201D01*
X006863Y001360D02*
X004718Y001360D01*
X004933Y001201D02*
X006647Y001201D01*
X006562Y001043D02*
X005018Y001043D01*
X005047Y000884D02*
X006533Y000884D01*
X006546Y000726D02*
X005034Y000726D01*
X004968Y000567D02*
X006612Y000567D01*
X006835Y002152D02*
X004745Y002152D01*
X004944Y002311D02*
X006636Y002311D01*
X006558Y002469D02*
X005022Y002469D01*
X005047Y002628D02*
X006533Y002628D01*
X006551Y002786D02*
X005029Y002786D01*
X004961Y002945D02*
X006619Y002945D01*
X004276Y002152D02*
X004080Y002152D01*
X003500Y002152D02*
X002630Y002152D01*
X002630Y001994D02*
X003500Y001994D01*
X003500Y001835D02*
X002630Y001835D01*
X002630Y001677D02*
X003500Y001677D01*
X003500Y001518D02*
X002595Y001518D01*
X002515Y001360D02*
X003500Y001360D01*
X003500Y001201D02*
X002630Y001201D01*
X002630Y001043D02*
X003587Y001043D01*
X003746Y000884D02*
X002630Y000884D01*
X002600Y000726D02*
X003904Y000726D01*
X004052Y000567D02*
X002441Y000567D01*
X004091Y001360D02*
X004303Y001360D01*
X003500Y002311D02*
X002630Y002311D01*
X002600Y002469D02*
X003500Y002469D01*
X003631Y003262D02*
X003891Y003262D01*
X004050Y003420D02*
X003700Y003420D01*
X003700Y003579D02*
X004208Y003579D01*
X004250Y003737D02*
X003633Y003737D01*
X003407Y003896D02*
X004250Y003896D01*
X004250Y004054D02*
X002689Y004054D01*
X002847Y003896D02*
X003173Y003896D01*
X003290Y003500D02*
X002790Y003500D01*
X002290Y004000D01*
X002530Y004213D02*
X004250Y004213D01*
X004250Y004371D02*
X001466Y004371D01*
X001600Y005481D02*
X004130Y005481D01*
X004154Y005639D02*
X001688Y005639D01*
X001700Y005798D02*
X004258Y005798D01*
X006532Y009919D02*
X015050Y009919D01*
D17*
X014790Y008750D03*
X013790Y008750D03*
X013290Y009750D03*
X014790Y007250D03*
X014790Y005750D03*
X014790Y004500D03*
X013790Y004500D03*
X011540Y006500D03*
X011040Y007000D03*
X010540Y006750D03*
X010290Y006250D03*
X009290Y006250D03*
X009290Y007000D03*
X008540Y007000D03*
X008540Y006250D03*
X009790Y008750D03*
X008625Y009415D03*
X006540Y009500D03*
X006290Y008500D03*
X004790Y008250D03*
X003540Y008250D03*
X002540Y007500D03*
X002040Y008750D03*
X001290Y005750D03*
X002540Y005500D03*
X002540Y005000D03*
X002540Y004500D03*
X003290Y003500D03*
X004040Y004500D03*
X004040Y005000D03*
X004040Y005500D03*
X004540Y005500D03*
X001290Y004000D03*
X008290Y002750D03*
X008790Y002750D03*
X009290Y002750D03*
X009540Y001750D03*
X011040Y004750D03*
D18*
X003290Y005000D03*
D19*
X004540Y005500D02*
X004540Y003500D01*
X003790Y002750D01*
X003790Y001250D01*
X004176Y000864D01*
X004510Y000864D01*
X009540Y001750D02*
X010040Y001750D01*
X011040Y002750D01*
X011040Y004750D01*
X011040Y006250D01*
X010540Y006750D01*
X009790Y008750D02*
X009125Y009415D01*
X008625Y009415D01*
X006540Y009500D02*
X006040Y010000D01*
X005290Y010000D01*
X004790Y009500D01*
M02*
