  0
SECTION
  2
HEADER
  9
$ACADVER
  1
AC1009
  9
$FILLMODE
 70
0
  9
$EXTMIN
 10
-22.1767
 20
-11.6150
 30
0.0000
  9
$EXTMAX
 10
85.2424
 20
40.6400
 30
0.0000
  0
ENDSEC
  0
SECTION
  2
TABLES
  0
TABLE
  2
LTYPE
 70
1
  0
LTYPE
  2
CONTINUOUS
 70
64
  3
Solid line
 72
65
 73
0
 40
0
  0
ENDTAB
  0
TABLE
  2
LAYER
 70
255
  0
LAYER
  2
114
 70
64
 62
1
  6
CONTINUOUS
  0
ENDTAB
  0
ENDSEC
  0
SECTION
  2
BLOCKS
  0
BLOCK
  8
0
  2
RECT
 70
64
 10
0.0000
 20
0.0000
 30
0.0000
  3
RECT
  0
SOLID
  8
0
 10
-0.5000
 20
-0.5000
 30
0.0000
 11
0.5000
 21
-0.5000
 31
0.0000
 12
-0.5000
 22
0.5000
 32
0.0000
 13
0.5000
 23
0.5000
 33
0.0000
  0
ENDBLK
  8
0
  0
BLOCK
  8
0
  2
PIE
 70
64
 10
0.0000
 20
0.0000
 30
0.0000
  3
PIE
  0
CIRCLE
  8
0
 10
0.0000
 20
0.0000
 30
0.0000
 40
0.5000
  0
ENDBLK
  8
0
  0
BLOCK
  8
0
  2
OCTAGONP
 70
64
 10
0.0000
 20
0.0000
 30
0.0000
  3
OCTAGONP
  0
POLYLINE
  8
0
 66
1
 10
0.0000
 20
0.0000
 30
0.0000
 40
0.0000
 41
0.0000
 70
1
  0
VERTEX
  8
0
 10
-0.5000
 20
-0.2071
 30
0.0000
  0
VERTEX
  8
0
 10
-0.5000
 20
0.2071
 30
0.0000
  0
VERTEX
  8
0
 10
-0.2071
 20
0.5000
 30
0.0000
  0
VERTEX
  8
0
 10
0.2071
 20
0.5000
 30
0.0000
  0
VERTEX
  8
0
 10
0.5000
 20
0.2071
 30
0.0000
  0
VERTEX
  8
0
 10
0.5000
 20
-0.2071
 30
0.0000
  0
VERTEX
  8
0
 10
0.2071
 20
-0.5000
 30
0.0000
  0
VERTEX
  8
0
 10
-0.2071
 20
-0.5000
 30
0.0000
  0
SEQEND
  8
0
  0
ENDBLK
  8
0
  0
BLOCK
  8
0
  2
SQUAREP
 70
64
 10
0.0000
 20
0.0000
 30
0.0000
  3
SQUAREP
  0
SOLID
  8
0
 10
-0.5000
 20
-0.5000
 30
0.0000
 11
0.5000
 21
-0.5000
 31
0.0000
 12
-0.5000
 22
0.5000
 32
0.0000
 13
0.5000
 23
0.5000
 33
0.0000
  0
ENDBLK
  8
0
  0
BLOCK
  8
0
  2
ROUNDP
 70
64
 10
0.0000
 20
0.0000
 30
0.0000
  3
ROUNDP
  0
CIRCLE
  8
0
 10
0.0000
 20
0.0000
 30
0.0000
 40
0.5000
  0
ENDBLK
  8
0
  0
BLOCK
  8
0
  2
ANNULUSP
 70
64
 10
0.0000
 20
0.0000
 30
0.0000
  3
ANNULUSP
  0
CIRCLE
  8
0
 10
0.0000
 20
0.0000
 30
0.0000
 40
0.5000
  0
ENDBLK
  8
0
  0
BLOCK
  8
0
  2
THERMALP
 70
64
 10
0.0000
 20
0.0000
 30
0.0000
  3
THERMALP
  0
LINE
  8
0
 10
-0.2379
 20
0.4500
 30
0.0000
 11
0.2379
 21
0.4500
 31
0.0000
  0
LINE
  8
0
 10
0.4500
 20
0.2379
 30
0.0000
 11
0.4500
 21
-0.2379
 31
0.0000
  0
LINE
  8
0
 10
0.2379
 20
-0.4500
 30
0.0000
 11
-0.2379
 21
-0.4500
 31
0.0000
  0
LINE
  8
0
 10
-0.4500
 20
-0.2379
 30
0.0000
 11
-0.4500
 21
0.2379
 31
0.0000
  0
ENDBLK
  8
0
  0
BLOCK
  8
0
  2
OCTAGONV
 70
64
 10
0.0000
 20
0.0000
 30
0.0000
  3
OCTAGONV
  0
POLYLINE
  8
0
 66
1
 10
0.0000
 20
0.0000
 30
0.0000
 40
0.0000
 41
0.0000
 70
1
  0
VERTEX
  8
0
 10
-0.5000
 20
-0.2071
 30
0.0000
  0
VERTEX
  8
0
 10
-0.5000
 20
0.2071
 30
0.0000
  0
VERTEX
  8
0
 10
-0.2071
 20
0.5000
 30
0.0000
  0
VERTEX
  8
0
 10
0.2071
 20
0.5000
 30
0.0000
  0
VERTEX
  8
0
 10
0.5000
 20
0.2071
 30
0.0000
  0
VERTEX
  8
0
 10
0.5000
 20
-0.2071
 30
0.0000
  0
VERTEX
  8
0
 10
0.2071
 20
-0.5000
 30
0.0000
  0
VERTEX
  8
0
 10
-0.2071
 20
-0.5000
 30
0.0000
  0
SEQEND
  8
0
  0
ENDBLK
  8
0
  0
BLOCK
  8
0
  2
SQUAREV
 70
64
 10
0.0000
 20
0.0000
 30
0.0000
  3
SQUAREV
  0
SOLID
  8
0
 10
-0.5000
 20
-0.5000
 30
0.0000
 11
0.5000
 21
-0.5000
 31
0.0000
 12
-0.5000
 22
0.5000
 32
0.0000
 13
0.5000
 23
0.5000
 33
0.0000
  0
ENDBLK
  8
0
  0
BLOCK
  8
0
  2
ROUNDV
 70
64
 10
0.0000
 20
0.0000
 30
0.0000
  3
ROUNDV
  0
CIRCLE
  8
0
 10
0.0000
 20
0.0000
 30
0.0000
 40
0.5000
  0
ENDBLK
  8
0
  0
BLOCK
  8
0
  2
ANNULUSV
 70
64
 10
0.0000
 20
0.0000
 30
0.0000
  3
ANNULUSV
  0
CIRCLE
  8
0
 10
0.0000
 20
0.0000
 30
0.0000
 40
0.5000
  0
ENDBLK
  8
0
  0
BLOCK
  8
0
  2
THERMALV
 70
64
 10
0.0000
 20
0.0000
 30
0.0000
  3
THERMALV
  0
LINE
  8
0
 10
-0.2379
 20
0.4500
 30
0.0000
 11
0.2379
 21
0.4500
 31
0.0000
  0
LINE
  8
0
 10
0.4500
 20
0.2379
 30
0.0000
 11
0.4500
 21
-0.2379
 31
0.0000
  0
LINE
  8
0
 10
0.2379
 20
-0.4500
 30
0.0000
 11
-0.2379
 21
-0.4500
 31
0.0000
  0
LINE
  8
0
 10
-0.4500
 20
-0.2379
 30
0.0000
 11
-0.4500
 21
0.2379
 31
0.0000
  0
ENDBLK
  8
0
  0
ENDSEC
  0
SECTION
  2
ENTITIES
  0
LINE
  8
114
 10
7.6200
 20
8.8900
 30
0.0000
 11
7.6200
 21
13.9700
 31
0.0000
  0
LINE
  8
114
 10
7.6200
 20
24.1300
 30
0.0000
 11
7.6200
 21
29.2100
 31
0.0000
  0
LINE
  8
114
 10
8.8900
 20
30.4800
 30
0.0000
 11
15.2400
 21
30.4800
 31
0.0000
  0
LINE
  8
114
 10
16.5100
 20
29.2100
 30
0.0000
 11
16.5100
 21
24.1300
 31
0.0000
  0
LINE
  8
114
 10
16.5100
 20
13.9700
 30
0.0000
 11
16.5100
 21
8.8900
 31
0.0000
  0
LINE
  8
114
 10
15.2400
 20
7.6200
 30
0.0000
 11
8.8900
 21
7.6200
 31
0.0000
  0
LINE
  8
114
 10
8.8900
 20
22.8600
 30
0.0000
 11
15.2400
 21
22.8600
 31
0.0000
  0
LINE
  8
114
 10
15.2400
 20
15.2400
 30
0.0000
 11
8.8900
 21
15.2400
 31
0.0000
  0
LINE
  8
114
 10
6.9850
 20
0.0000
 30
0.0000
 11
17.1450
 21
0.0000
 31
0.0000
  0
LINE
  8
114
 10
0.0000
 20
6.9850
 30
0.0000
 11
0.0000
 21
16.5100
 31
0.0000
  0
LINE
  8
114
 10
6.9850
 20
38.1000
 30
0.0000
 11
17.1450
 21
38.1000
 31
0.0000
  0
LINE
  8
114
 10
24.1300
 20
31.1150
 30
0.0000
 11
24.1300
 21
21.5900
 31
0.0000
  0
LINE
  8
114
 10
0.0000
 20
31.1150
 30
0.0000
 11
0.0000
 21
21.5900
 31
0.0000
  0
LINE
  8
114
 10
0.0000
 20
16.5100
 30
0.0000
 11
1.5875
 21
18.0975
 31
0.0000
  0
LINE
  8
114
 10
0.0000
 20
6.9850
 30
0.0000
 11
2.8575
 21
4.1275
 31
0.0000
  0
LINE
  8
114
 10
4.1275
 20
2.8575
 30
0.0000
 11
6.9850
 21
0.0000
 31
0.0000
  0
LINE
  8
114
 10
24.1300
 20
6.9850
 30
0.0000
 11
21.2725
 21
4.1275
 31
0.0000
  0
LINE
  8
114
 10
20.0025
 20
2.8575
 30
0.0000
 11
17.1450
 21
0.0000
 31
0.0000
  0
LINE
  8
114
 10
0.0000
 20
31.1150
 30
0.0000
 11
2.8575
 21
33.9725
 31
0.0000
  0
LINE
  8
114
 10
4.1275
 20
35.2425
 30
0.0000
 11
6.9850
 21
38.1000
 31
0.0000
  0
LINE
  8
114
 10
24.1300
 20
31.1150
 30
0.0000
 11
21.2725
 21
33.9725
 31
0.0000
  0
LINE
  8
114
 10
20.0025
 20
35.2425
 30
0.0000
 11
17.1450
 21
38.1000
 31
0.0000
  0
LINE
  8
114
 10
22.5425
 20
20.0025
 30
0.0000
 11
24.1300
 21
21.5900
 31
0.0000
  0
LINE
  8
114
 10
24.1300
 20
6.9850
 30
0.0000
 11
24.1300
 21
16.5100
 31
0.0000
  0
LINE
  8
114
 10
22.5425
 20
18.0975
 30
0.0000
 11
24.1300
 21
16.5100
 31
0.0000
  0
LINE
  8
114
 10
1.5875
 20
20.0025
 30
0.0000
 11
0.0000
 21
21.5900
 31
0.0000
  0
LINE
  8
114
 10
7.6200
 20
13.9700
 30
0.0000
 11
3.4925
 21
18.0975
 31
0.0000
  0
LINE
  8
114
 10
1.5875
 20
18.0975
 30
0.0000
 11
3.4925
 21
18.0975
 31
0.0000
  0
LINE
  8
114
 10
7.6200
 20
24.1300
 30
0.0000
 11
3.4925
 21
20.0025
 31
0.0000
  0
LINE
  8
114
 10
3.4925
 20
20.0025
 30
0.0000
 11
1.5875
 21
20.0025
 31
0.0000
  0
LINE
  8
114
 10
22.5425
 20
20.0025
 30
0.0000
 11
20.6375
 21
20.0025
 31
0.0000
  0
LINE
  8
114
 10
22.5425
 20
18.0975
 30
0.0000
 11
20.6375
 21
18.0975
 31
0.0000
  0
LINE
  8
114
 10
16.5100
 20
13.9700
 30
0.0000
 11
20.6375
 21
18.0975
 31
0.0000
  0
LINE
  8
114
 10
16.5100
 20
24.1300
 30
0.0000
 11
20.6375
 21
20.0025
 31
0.0000
  0
LINE
  8
114
 10
8.8900
 20
15.2400
 30
0.0000
 11
5.0800
 21
19.0500
 31
0.0000
  0
LINE
  8
114
 10
8.8900
 20
22.8600
 30
0.0000
 11
5.0800
 21
19.0500
 31
0.0000
  0
LINE
  8
114
 10
15.2400
 20
22.8600
 30
0.0000
 11
18.9992
 21
19.0500
 31
0.0000
  0
LINE
  8
114
 10
15.2400
 20
15.2400
 30
0.0000
 11
18.9992
 21
19.0500
 31
0.0000
  0
LINE
  8
114
 10
7.6200
 20
8.8900
 30
0.0000
 11
2.8575
 21
4.1275
 31
0.0000
  0
LINE
  8
114
 10
8.8900
 20
7.6200
 30
0.0000
 11
4.1275
 21
2.8575
 31
0.0000
  0
LINE
  8
114
 10
15.2400
 20
7.6200
 30
0.0000
 11
20.0025
 21
2.8575
 31
0.0000
  0
LINE
  8
114
 10
16.5100
 20
8.8900
 30
0.0000
 11
21.2725
 21
4.1275
 31
0.0000
  0
LINE
  8
114
 10
16.5100
 20
29.2100
 30
0.0000
 11
21.2725
 21
33.9725
 31
0.0000
  0
LINE
  8
114
 10
15.2400
 20
30.4800
 30
0.0000
 11
20.0025
 21
35.2425
 31
0.0000
  0
LINE
  8
114
 10
8.8900
 20
30.4800
 30
0.0000
 11
4.1275
 21
35.2425
 31
0.0000
  0
LINE
  8
114
 10
7.6200
 20
29.2100
 30
0.0000
 11
2.8575
 21
33.9725
 31
0.0000
  0
LINE
  8
114
 10
38.1000
 20
8.8900
 30
0.0000
 11
38.1000
 21
13.9700
 31
0.0000
  0
LINE
  8
114
 10
38.1000
 20
24.1300
 30
0.0000
 11
38.1000
 21
29.2100
 31
0.0000
  0
LINE
  8
114
 10
39.3700
 20
30.4800
 30
0.0000
 11
45.7200
 21
30.4800
 31
0.0000
  0
LINE
  8
114
 10
46.9900
 20
29.2100
 30
0.0000
 11
46.9900
 21
24.1300
 31
0.0000
  0
LINE
  8
114
 10
46.9900
 20
13.9700
 30
0.0000
 11
46.9900
 21
8.8900
 31
0.0000
  0
LINE
  8
114
 10
45.7200
 20
7.6200
 30
0.0000
 11
39.3700
 21
7.6200
 31
0.0000
  0
LINE
  8
114
 10
39.3700
 20
22.8600
 30
0.0000
 11
45.7200
 21
22.8600
 31
0.0000
  0
LINE
  8
114
 10
45.7200
 20
15.2400
 30
0.0000
 11
39.3700
 21
15.2400
 31
0.0000
  0
LINE
  8
114
 10
37.4650
 20
0.0000
 30
0.0000
 11
47.6250
 21
0.0000
 31
0.0000
  0
LINE
  8
114
 10
30.4800
 20
6.9850
 30
0.0000
 11
30.4800
 21
16.5100
 31
0.0000
  0
LINE
  8
114
 10
37.4650
 20
38.1000
 30
0.0000
 11
47.6250
 21
38.1000
 31
0.0000
  0
LINE
  8
114
 10
54.6100
 20
31.1150
 30
0.0000
 11
54.6100
 21
21.5900
 31
0.0000
  0
LINE
  8
114
 10
30.4800
 20
31.1150
 30
0.0000
 11
30.4800
 21
21.5900
 31
0.0000
  0
LINE
  8
114
 10
30.4800
 20
16.5100
 30
0.0000
 11
32.0675
 21
18.0975
 31
0.0000
  0
LINE
  8
114
 10
30.4800
 20
6.9850
 30
0.0000
 11
33.3375
 21
4.1275
 31
0.0000
  0
LINE
  8
114
 10
34.6075
 20
2.8575
 30
0.0000
 11
37.4650
 21
0.0000
 31
0.0000
  0
LINE
  8
114
 10
54.6100
 20
6.9850
 30
0.0000
 11
51.7525
 21
4.1275
 31
0.0000
  0
LINE
  8
114
 10
50.4825
 20
2.8575
 30
0.0000
 11
47.6250
 21
0.0000
 31
0.0000
  0
LINE
  8
114
 10
30.4800
 20
31.1150
 30
0.0000
 11
33.3375
 21
33.9725
 31
0.0000
  0
LINE
  8
114
 10
34.6075
 20
35.2425
 30
0.0000
 11
37.4650
 21
38.1000
 31
0.0000
  0
LINE
  8
114
 10
54.6100
 20
31.1150
 30
0.0000
 11
51.7525
 21
33.9725
 31
0.0000
  0
LINE
  8
114
 10
50.4825
 20
35.2425
 30
0.0000
 11
47.6250
 21
38.1000
 31
0.0000
  0
LINE
  8
114
 10
53.0225
 20
20.0025
 30
0.0000
 11
54.6100
 21
21.5900
 31
0.0000
  0
LINE
  8
114
 10
54.6100
 20
6.9850
 30
0.0000
 11
54.6100
 21
16.5100
 31
0.0000
  0
LINE
  8
114
 10
53.0225
 20
18.0975
 30
0.0000
 11
54.6100
 21
16.5100
 31
0.0000
  0
LINE
  8
114
 10
32.0675
 20
20.0025
 30
0.0000
 11
30.4800
 21
21.5900
 31
0.0000
  0
LINE
  8
114
 10
38.1000
 20
13.9700
 30
0.0000
 11
33.9725
 21
18.0975
 31
0.0000
  0
LINE
  8
114
 10
32.0675
 20
18.0975
 30
0.0000
 11
33.9725
 21
18.0975
 31
0.0000
  0
LINE
  8
114
 10
38.1000
 20
24.1300
 30
0.0000
 11
33.9725
 21
20.0025
 31
0.0000
  0
LINE
  8
114
 10
33.9725
 20
20.0025
 30
0.0000
 11
32.0675
 21
20.0025
 31
0.0000
  0
LINE
  8
114
 10
53.0225
 20
20.0025
 30
0.0000
 11
51.1175
 21
20.0025
 31
0.0000
  0
LINE
  8
114
 10
53.0225
 20
18.0975
 30
0.0000
 11
51.1175
 21
18.0975
 31
0.0000
  0
LINE
  8
114
 10
46.9900
 20
13.9700
 30
0.0000
 11
51.1175
 21
18.0975
 31
0.0000
  0
LINE
  8
114
 10
46.9900
 20
24.1300
 30
0.0000
 11
51.1175
 21
20.0025
 31
0.0000
  0
LINE
  8
114
 10
39.3700
 20
15.2400
 30
0.0000
 11
35.5600
 21
19.0500
 31
0.0000
  0
LINE
  8
114
 10
39.3700
 20
22.8600
 30
0.0000
 11
35.5600
 21
19.0500
 31
0.0000
  0
LINE
  8
114
 10
45.7200
 20
22.8600
 30
0.0000
 11
49.4792
 21
19.0500
 31
0.0000
  0
LINE
  8
114
 10
45.7200
 20
15.2400
 30
0.0000
 11
49.4792
 21
19.0500
 31
0.0000
  0
LINE
  8
114
 10
38.1000
 20
8.8900
 30
0.0000
 11
33.3375
 21
4.1275
 31
0.0000
  0
LINE
  8
114
 10
39.3700
 20
7.6200
 30
0.0000
 11
34.6075
 21
2.8575
 31
0.0000
  0
LINE
  8
114
 10
45.7200
 20
7.6200
 30
0.0000
 11
50.4825
 21
2.8575
 31
0.0000
  0
LINE
  8
114
 10
46.9900
 20
8.8900
 30
0.0000
 11
51.7525
 21
4.1275
 31
0.0000
  0
LINE
  8
114
 10
46.9900
 20
29.2100
 30
0.0000
 11
51.7525
 21
33.9725
 31
0.0000
  0
LINE
  8
114
 10
45.7200
 20
30.4800
 30
0.0000
 11
50.4825
 21
35.2425
 31
0.0000
  0
LINE
  8
114
 10
39.3700
 20
30.4800
 30
0.0000
 11
34.6075
 21
35.2425
 31
0.0000
  0
LINE
  8
114
 10
38.1000
 20
29.2100
 30
0.0000
 11
33.3375
 21
33.9725
 31
0.0000
  0
LINE
  8
114
 10
68.5800
 20
8.8900
 30
0.0000
 11
68.5800
 21
13.9700
 31
0.0000
  0
LINE
  8
114
 10
68.5800
 20
24.1300
 30
0.0000
 11
68.5800
 21
29.2100
 31
0.0000
  0
LINE
  8
114
 10
69.8500
 20
30.4800
 30
0.0000
 11
76.2000
 21
30.4800
 31
0.0000
  0
LINE
  8
114
 10
77.4700
 20
29.2100
 30
0.0000
 11
77.4700
 21
24.1300
 31
0.0000
  0
LINE
  8
114
 10
77.4700
 20
13.9700
 30
0.0000
 11
77.4700
 21
8.8900
 31
0.0000
  0
LINE
  8
114
 10
76.2000
 20
7.6200
 30
0.0000
 11
69.8500
 21
7.6200
 31
0.0000
  0
LINE
  8
114
 10
69.8500
 20
22.8600
 30
0.0000
 11
76.2000
 21
22.8600
 31
0.0000
  0
LINE
  8
114
 10
76.2000
 20
15.2400
 30
0.0000
 11
69.8500
 21
15.2400
 31
0.0000
  0
LINE
  8
114
 10
67.9450
 20
0.0000
 30
0.0000
 11
78.1050
 21
0.0000
 31
0.0000
  0
LINE
  8
114
 10
60.9600
 20
6.9850
 30
0.0000
 11
60.9600
 21
16.5100
 31
0.0000
  0
LINE
  8
114
 10
67.9450
 20
38.1000
 30
0.0000
 11
78.1050
 21
38.1000
 31
0.0000
  0
LINE
  8
114
 10
85.0900
 20
31.1150
 30
0.0000
 11
85.0900
 21
21.5900
 31
0.0000
  0
LINE
  8
114
 10
60.9600
 20
31.1150
 30
0.0000
 11
60.9600
 21
21.5900
 31
0.0000
  0
LINE
  8
114
 10
60.9600
 20
16.5100
 30
0.0000
 11
62.5475
 21
18.0975
 31
0.0000
  0
LINE
  8
114
 10
60.9600
 20
6.9850
 30
0.0000
 11
63.8175
 21
4.1275
 31
0.0000
  0
LINE
  8
114
 10
65.0875
 20
2.8575
 30
0.0000
 11
67.9450
 21
0.0000
 31
0.0000
  0
LINE
  8
114
 10
85.0900
 20
6.9850
 30
0.0000
 11
82.2325
 21
4.1275
 31
0.0000
  0
LINE
  8
114
 10
80.9625
 20
2.8575
 30
0.0000
 11
78.1050
 21
0.0000
 31
0.0000
  0
LINE
  8
114
 10
60.9600
 20
31.1150
 30
0.0000
 11
63.8175
 21
33.9725
 31
0.0000
  0
LINE
  8
114
 10
65.0875
 20
35.2425
 30
0.0000
 11
67.9450
 21
38.1000
 31
0.0000
  0
LINE
  8
114
 10
85.0900
 20
31.1150
 30
0.0000
 11
82.2325
 21
33.9725
 31
0.0000
  0
LINE
  8
114
 10
80.9625
 20
35.2425
 30
0.0000
 11
78.1050
 21
38.1000
 31
0.0000
  0
LINE
  8
114
 10
83.5025
 20
20.0025
 30
0.0000
 11
85.0900
 21
21.5900
 31
0.0000
  0
LINE
  8
114
 10
85.0900
 20
6.9850
 30
0.0000
 11
85.0900
 21
16.5100
 31
0.0000
  0
LINE
  8
114
 10
83.5025
 20
18.0975
 30
0.0000
 11
85.0900
 21
16.5100
 31
0.0000
  0
LINE
  8
114
 10
62.5475
 20
20.0025
 30
0.0000
 11
60.9600
 21
21.5900
 31
0.0000
  0
LINE
  8
114
 10
68.5800
 20
13.9700
 30
0.0000
 11
64.4525
 21
18.0975
 31
0.0000
  0
LINE
  8
114
 10
62.5475
 20
18.0975
 30
0.0000
 11
64.4525
 21
18.0975
 31
0.0000
  0
LINE
  8
114
 10
68.5800
 20
24.1300
 30
0.0000
 11
64.4525
 21
20.0025
 31
0.0000
  0
LINE
  8
114
 10
64.4525
 20
20.0025
 30
0.0000
 11
62.5475
 21
20.0025
 31
0.0000
  0
LINE
  8
114
 10
83.5025
 20
20.0025
 30
0.0000
 11
81.5975
 21
20.0025
 31
0.0000
  0
LINE
  8
114
 10
83.5025
 20
18.0975
 30
0.0000
 11
81.5975
 21
18.0975
 31
0.0000
  0
LINE
  8
114
 10
77.4700
 20
13.9700
 30
0.0000
 11
81.5975
 21
18.0975
 31
0.0000
  0
LINE
  8
114
 10
77.4700
 20
24.1300
 30
0.0000
 11
81.5975
 21
20.0025
 31
0.0000
  0
LINE
  8
114
 10
69.8500
 20
15.2400
 30
0.0000
 11
66.0400
 21
19.0500
 31
0.0000
  0
LINE
  8
114
 10
69.8500
 20
22.8600
 30
0.0000
 11
66.0400
 21
19.0500
 31
0.0000
  0
LINE
  8
114
 10
76.2000
 20
22.8600
 30
0.0000
 11
79.9592
 21
19.0500
 31
0.0000
  0
LINE
  8
114
 10
76.2000
 20
15.2400
 30
0.0000
 11
79.9592
 21
19.0500
 31
0.0000
  0
LINE
  8
114
 10
68.5800
 20
8.8900
 30
0.0000
 11
63.8175
 21
4.1275
 31
0.0000
  0
LINE
  8
114
 10
69.8500
 20
7.6200
 30
0.0000
 11
65.0875
 21
2.8575
 31
0.0000
  0
LINE
  8
114
 10
76.2000
 20
7.6200
 30
0.0000
 11
80.9625
 21
2.8575
 31
0.0000
  0
LINE
  8
114
 10
77.4700
 20
8.8900
 30
0.0000
 11
82.2325
 21
4.1275
 31
0.0000
  0
LINE
  8
114
 10
77.4700
 20
29.2100
 30
0.0000
 11
82.2325
 21
33.9725
 31
0.0000
  0
LINE
  8
114
 10
76.2000
 20
30.4800
 30
0.0000
 11
80.9625
 21
35.2425
 31
0.0000
  0
LINE
  8
114
 10
69.8500
 20
30.4800
 30
0.0000
 11
65.0875
 21
35.2425
 31
0.0000
  0
LINE
  8
114
 10
68.5800
 20
29.2100
 30
0.0000
 11
63.8175
 21
33.9725
 31
0.0000
  0
ENDSEC
  0
EOF
