G75*
G70*
%OFA0B0*%
%FSLAX24Y24*%
%IPPOS*%
%LPD*%
%AMOC8*
5,1,8,0,0,1.08239X$1,22.5*
%
%ADD10C,0.1370*%
%ADD11C,0.0780*%
%ADD12R,0.0789X0.0230*%
%ADD13R,0.0595X0.0595*%
%ADD14C,0.0595*%
%ADD15R,0.0946X0.0631*%
%ADD16R,0.0946X0.0474*%
%ADD17C,0.0840*%
%ADD18R,0.0395X0.0434*%
%ADD19R,0.0513X0.0474*%
%ADD20R,0.0749X0.0218*%
%ADD21C,0.0090*%
%ADD22R,0.0592X0.0671*%
%ADD23R,0.0316X0.0395*%
%ADD24R,0.0946X0.1537*%
%ADD25R,0.0474X0.0513*%
%ADD26R,0.0611X0.0336*%
%ADD27R,0.0356X0.0237*%
D10*
X001660Y001800D03*
X046660Y001800D03*
D11*
X044160Y005180D03*
X040160Y005180D03*
X040160Y006180D03*
X044160Y006180D03*
X033410Y006180D03*
X029410Y006180D03*
X029410Y005180D03*
X033410Y005180D03*
X018910Y005180D03*
X014910Y005180D03*
X014910Y006180D03*
X018910Y006180D03*
X008160Y006180D03*
X004160Y006180D03*
X004160Y005180D03*
X008160Y005180D03*
D12*
X022841Y005076D03*
X022841Y005332D03*
X025479Y005332D03*
X025479Y005076D03*
X025479Y004820D03*
X025479Y004564D03*
X025479Y004308D03*
X025479Y004052D03*
X025479Y003796D03*
X025479Y003540D03*
X025479Y003284D03*
X025479Y003028D03*
X022841Y003028D03*
X022841Y003284D03*
X022841Y003540D03*
X022841Y003796D03*
X022841Y004052D03*
X022841Y004308D03*
X022841Y004564D03*
X022841Y004820D03*
D13*
X014548Y002180D03*
X001660Y006180D03*
X046660Y006180D03*
D14*
X047660Y006180D03*
X019272Y002180D03*
X018485Y002180D03*
X017697Y002180D03*
X016910Y002180D03*
X016123Y002180D03*
X015335Y002180D03*
X000660Y006180D03*
D15*
X005636Y000721D03*
X007684Y000721D03*
X007684Y002139D03*
X005636Y002139D03*
X023136Y002139D03*
X025184Y002139D03*
X025184Y000721D03*
X023136Y000721D03*
X041636Y000721D03*
X043684Y000721D03*
X043684Y002139D03*
X041636Y002139D03*
D16*
X041636Y001430D03*
X043684Y001430D03*
X025184Y001430D03*
X023136Y001430D03*
X007684Y001430D03*
X005636Y001430D03*
D17*
X023410Y005930D03*
X024910Y005930D03*
D18*
X020160Y005574D03*
X019766Y004786D03*
X020554Y004786D03*
D19*
X017745Y005430D03*
X017075Y005430D03*
X019825Y006180D03*
X020495Y006180D03*
X032575Y004180D03*
X033245Y004180D03*
X036825Y004180D03*
X037495Y004180D03*
X041825Y005180D03*
X042495Y005180D03*
X045325Y004930D03*
X045995Y004930D03*
X042495Y006180D03*
X041825Y006180D03*
X028995Y003930D03*
X028325Y003930D03*
X021245Y002680D03*
X020575Y002680D03*
X006245Y003930D03*
X005575Y003930D03*
D20*
X016227Y006174D03*
X017093Y006174D03*
X017093Y006430D03*
X016227Y006430D03*
X016227Y006686D03*
X017093Y006686D03*
D21*
X011594Y003135D02*
X011320Y003135D01*
X011320Y002725D01*
X011158Y002725D02*
X011090Y002725D01*
X011090Y002793D01*
X011158Y002793D01*
X011158Y002725D01*
X010903Y002793D02*
X010903Y002862D01*
X010835Y002930D01*
X010630Y002930D01*
X010835Y002930D02*
X010903Y002999D01*
X010903Y003067D01*
X010835Y003135D01*
X010630Y003135D01*
X010630Y002725D01*
X010835Y002725D01*
X010903Y002793D01*
X011320Y002930D02*
X011457Y002930D01*
D22*
X013036Y002930D03*
X013784Y002930D03*
D23*
X029536Y002379D03*
X029910Y002379D03*
X030284Y002379D03*
X033786Y002379D03*
X034160Y002379D03*
X034534Y002379D03*
X037786Y002379D03*
X038160Y002379D03*
X038534Y002379D03*
X038534Y003481D03*
X038160Y003481D03*
X037786Y003481D03*
X034534Y003481D03*
X034160Y003481D03*
X033786Y003481D03*
X030284Y003481D03*
X029910Y003481D03*
X029536Y003481D03*
D24*
X028912Y001180D03*
X030408Y001180D03*
X033162Y001180D03*
X034658Y001180D03*
X037162Y001180D03*
X038658Y001180D03*
D25*
X031160Y002345D03*
X031160Y003015D03*
X035410Y003265D03*
X035410Y002595D03*
X039660Y002595D03*
X039660Y003265D03*
D26*
X037160Y003454D03*
X033160Y003454D03*
X028910Y003454D03*
X028910Y002406D03*
X033160Y002406D03*
X037160Y002406D03*
D27*
X038325Y003924D03*
X038995Y003924D03*
X038995Y004180D03*
X038995Y004436D03*
X038325Y004436D03*
X034995Y004436D03*
X034325Y004436D03*
X034995Y004180D03*
X034995Y003924D03*
X034325Y003924D03*
X030745Y003924D03*
X030075Y003924D03*
X030745Y004180D03*
X030745Y004436D03*
X030075Y004436D03*
X021995Y005424D03*
X021325Y005424D03*
X021995Y005680D03*
X021995Y005936D03*
X021325Y005936D03*
M02*
