G75*
G70*
%OFA0B0*%
%FSLAX24Y24*%
%IPPOS*%
%LPD*%
%AMOC8*
5,1,8,0,0,1.08239X$1,22.5*
%
%ADD10C,0.1370*%
%ADD11C,0.0780*%
%ADD12R,0.0595X0.0595*%
%ADD13C,0.0595*%
%ADD14C,0.0840*%
%ADD15R,0.0474X0.0513*%
%ADD16R,0.0513X0.0474*%
D10*
X001660Y001800D03*
X046660Y001800D03*
D11*
X044160Y005180D03*
X040160Y005180D03*
X040160Y006180D03*
X044160Y006180D03*
X033410Y006180D03*
X029410Y006180D03*
X029410Y005180D03*
X033410Y005180D03*
X018910Y005180D03*
X014910Y005180D03*
X014910Y006180D03*
X018910Y006180D03*
X008160Y006180D03*
X004160Y006180D03*
X004160Y005180D03*
X008160Y005180D03*
D12*
X001660Y006180D03*
X014548Y002180D03*
X046660Y006180D03*
D13*
X047660Y006180D03*
X019272Y002180D03*
X018485Y002180D03*
X017697Y002180D03*
X016910Y002180D03*
X016123Y002180D03*
X015335Y002180D03*
X000660Y006180D03*
D14*
X023410Y005930D03*
X024910Y005930D03*
D15*
X019910Y005595D03*
X019910Y006265D03*
X009160Y006265D03*
X009160Y005595D03*
X034410Y005595D03*
X034410Y006265D03*
X045160Y006265D03*
X045160Y005595D03*
D16*
X037995Y002680D03*
X037325Y002680D03*
X033745Y001930D03*
X033075Y001930D03*
X029245Y001430D03*
X028575Y001430D03*
M02*
