G75*
G70*
%OFA0B0*%
%FSLAX24Y24*%
%IPPOS*%
%LPD*%
%AMOC8*
5,1,8,0,0,1.08239X$1,22.5*
%
%ADD10C,0.0000*%
D10*
X000160Y000180D02*
X000160Y007180D01*
X048160Y007180D01*
X048160Y000180D01*
X000160Y000180D01*
X001015Y001800D02*
X001017Y001851D01*
X001023Y001901D01*
X001033Y001951D01*
X001047Y001999D01*
X001064Y002047D01*
X001085Y002093D01*
X001110Y002137D01*
X001138Y002179D01*
X001170Y002219D01*
X001204Y002256D01*
X001241Y002290D01*
X001281Y002322D01*
X001323Y002350D01*
X001367Y002375D01*
X001413Y002396D01*
X001461Y002413D01*
X001509Y002427D01*
X001559Y002437D01*
X001609Y002443D01*
X001660Y002445D01*
X001711Y002443D01*
X001761Y002437D01*
X001811Y002427D01*
X001859Y002413D01*
X001907Y002396D01*
X001953Y002375D01*
X001997Y002350D01*
X002039Y002322D01*
X002079Y002290D01*
X002116Y002256D01*
X002150Y002219D01*
X002182Y002179D01*
X002210Y002137D01*
X002235Y002093D01*
X002256Y002047D01*
X002273Y001999D01*
X002287Y001951D01*
X002297Y001901D01*
X002303Y001851D01*
X002305Y001800D01*
X002303Y001749D01*
X002297Y001699D01*
X002287Y001649D01*
X002273Y001601D01*
X002256Y001553D01*
X002235Y001507D01*
X002210Y001463D01*
X002182Y001421D01*
X002150Y001381D01*
X002116Y001344D01*
X002079Y001310D01*
X002039Y001278D01*
X001997Y001250D01*
X001953Y001225D01*
X001907Y001204D01*
X001859Y001187D01*
X001811Y001173D01*
X001761Y001163D01*
X001711Y001157D01*
X001660Y001155D01*
X001609Y001157D01*
X001559Y001163D01*
X001509Y001173D01*
X001461Y001187D01*
X001413Y001204D01*
X001367Y001225D01*
X001323Y001250D01*
X001281Y001278D01*
X001241Y001310D01*
X001204Y001344D01*
X001170Y001381D01*
X001138Y001421D01*
X001110Y001463D01*
X001085Y001507D01*
X001064Y001553D01*
X001047Y001601D01*
X001033Y001649D01*
X001023Y001699D01*
X001017Y001749D01*
X001015Y001800D01*
X046015Y001800D02*
X046017Y001851D01*
X046023Y001901D01*
X046033Y001951D01*
X046047Y001999D01*
X046064Y002047D01*
X046085Y002093D01*
X046110Y002137D01*
X046138Y002179D01*
X046170Y002219D01*
X046204Y002256D01*
X046241Y002290D01*
X046281Y002322D01*
X046323Y002350D01*
X046367Y002375D01*
X046413Y002396D01*
X046461Y002413D01*
X046509Y002427D01*
X046559Y002437D01*
X046609Y002443D01*
X046660Y002445D01*
X046711Y002443D01*
X046761Y002437D01*
X046811Y002427D01*
X046859Y002413D01*
X046907Y002396D01*
X046953Y002375D01*
X046997Y002350D01*
X047039Y002322D01*
X047079Y002290D01*
X047116Y002256D01*
X047150Y002219D01*
X047182Y002179D01*
X047210Y002137D01*
X047235Y002093D01*
X047256Y002047D01*
X047273Y001999D01*
X047287Y001951D01*
X047297Y001901D01*
X047303Y001851D01*
X047305Y001800D01*
X047303Y001749D01*
X047297Y001699D01*
X047287Y001649D01*
X047273Y001601D01*
X047256Y001553D01*
X047235Y001507D01*
X047210Y001463D01*
X047182Y001421D01*
X047150Y001381D01*
X047116Y001344D01*
X047079Y001310D01*
X047039Y001278D01*
X046997Y001250D01*
X046953Y001225D01*
X046907Y001204D01*
X046859Y001187D01*
X046811Y001173D01*
X046761Y001163D01*
X046711Y001157D01*
X046660Y001155D01*
X046609Y001157D01*
X046559Y001163D01*
X046509Y001173D01*
X046461Y001187D01*
X046413Y001204D01*
X046367Y001225D01*
X046323Y001250D01*
X046281Y001278D01*
X046241Y001310D01*
X046204Y001344D01*
X046170Y001381D01*
X046138Y001421D01*
X046110Y001463D01*
X046085Y001507D01*
X046064Y001553D01*
X046047Y001601D01*
X046033Y001649D01*
X046023Y001699D01*
X046017Y001749D01*
X046015Y001800D01*
M02*
