G75*
G70*
%OFA0B0*%
%FSLAX24Y24*%
%IPPOS*%
%LPD*%
%AMOC8*
5,1,8,0,0,1.08239X$1,22.5*
%
%ADD10C,0.0700*%
%ADD11R,0.0515X0.0515*%
%ADD12C,0.0515*%
%ADD13C,0.0760*%
%ADD14R,0.0394X0.0433*%
%ADD15R,0.0433X0.0394*%
%ADD16C,0.0120*%
%ADD17C,0.0340*%
%ADD18C,0.0420*%
%ADD19C,0.0240*%
%ADD20C,0.0100*%
D10*
X004160Y005180D03*
X008160Y005180D03*
X008160Y006180D03*
X004160Y006180D03*
X014910Y006180D03*
X018910Y006180D03*
X018910Y005180D03*
X014910Y005180D03*
X029410Y005180D03*
X033410Y005180D03*
X033410Y006180D03*
X029410Y006180D03*
X040160Y006180D03*
X044160Y006180D03*
X044160Y005180D03*
X040160Y005180D03*
D11*
X046660Y006180D03*
X014548Y002180D03*
X001660Y006180D03*
D12*
X000660Y006180D03*
X015335Y002180D03*
X016123Y002180D03*
X016910Y002180D03*
X017697Y002180D03*
X018485Y002180D03*
X019272Y002180D03*
X047660Y006180D03*
D13*
X024910Y005930D03*
X023410Y005930D03*
D14*
X019910Y005595D03*
X019910Y006265D03*
X009160Y006265D03*
X009160Y005595D03*
X034410Y005595D03*
X034410Y006265D03*
X045160Y006265D03*
X045160Y005595D03*
D15*
X037995Y002680D03*
X037325Y002680D03*
X033745Y001930D03*
X033075Y001930D03*
X029245Y001430D03*
X028575Y001430D03*
D16*
X002692Y000456D02*
X002595Y000400D01*
X005351Y000400D01*
X005113Y000638D01*
X005108Y000633D01*
X004980Y000580D01*
X004840Y000580D01*
X004712Y000633D01*
X004613Y000732D01*
X004560Y000860D01*
X004560Y001000D01*
X004613Y001128D01*
X003212Y001128D01*
X003226Y001152D02*
X003340Y001579D01*
X003340Y002021D01*
X003226Y002448D01*
X003004Y002832D01*
X002692Y003144D01*
X002308Y003366D01*
X001881Y003480D01*
X001439Y003480D01*
X001012Y003366D01*
X000628Y003144D01*
X000380Y002896D01*
X000380Y005841D01*
X000412Y005809D01*
X000573Y005743D01*
X000747Y005743D01*
X000908Y005809D01*
X001031Y005932D01*
X001097Y006093D01*
X001097Y006267D01*
X001031Y006428D01*
X000908Y006551D01*
X000747Y006617D01*
X000573Y006617D01*
X000412Y006551D01*
X000380Y006519D01*
X000380Y006960D01*
X010695Y006960D01*
X010613Y006878D01*
X010560Y006750D01*
X010560Y006610D01*
X010613Y006482D01*
X010712Y006383D01*
X010840Y006330D01*
X010980Y006330D01*
X011108Y006383D01*
X011175Y006450D01*
X013505Y006450D01*
X013755Y006700D01*
X014780Y006700D01*
X014610Y006629D01*
X014461Y006480D01*
X014430Y006405D01*
X014358Y006477D01*
X014230Y006530D01*
X014090Y006530D01*
X013962Y006477D01*
X013863Y006378D01*
X013810Y006250D01*
X013810Y006110D01*
X013863Y005982D01*
X013930Y005915D01*
X013930Y005335D01*
X014180Y005085D01*
X014315Y004950D01*
X014432Y004950D01*
X014461Y004880D01*
X014610Y004731D01*
X014805Y004650D01*
X015015Y004650D01*
X015210Y004731D01*
X015359Y004880D01*
X015440Y005075D01*
X015440Y005285D01*
X015411Y005356D01*
X015635Y005580D01*
X015730Y005580D01*
X015858Y005633D01*
X015957Y005732D01*
X016010Y005860D01*
X016010Y006000D01*
X015957Y006128D01*
X015858Y006227D01*
X015730Y006280D01*
X015590Y006280D01*
X015462Y006227D01*
X015440Y006205D01*
X015440Y006285D01*
X015359Y006480D01*
X015210Y006629D01*
X015040Y006700D01*
X021105Y006700D01*
X020430Y006025D01*
X020430Y005695D01*
X020363Y005628D01*
X020310Y005500D01*
X020310Y005360D01*
X020363Y005232D01*
X020462Y005133D01*
X020590Y005080D01*
X020730Y005080D01*
X020858Y005133D01*
X020957Y005232D01*
X021010Y005360D01*
X021010Y005500D01*
X020957Y005628D01*
X020890Y005695D01*
X020890Y005835D01*
X021505Y006450D01*
X023202Y006450D01*
X023093Y006405D01*
X022935Y006247D01*
X022850Y006041D01*
X022850Y005819D01*
X022935Y005613D01*
X023093Y005455D01*
X023299Y005370D01*
X023521Y005370D01*
X023727Y005455D01*
X023885Y005613D01*
X023970Y005819D01*
X023970Y006041D01*
X023885Y006247D01*
X023727Y006405D01*
X023618Y006450D01*
X024065Y006450D01*
X024386Y006129D01*
X024350Y006041D01*
X024350Y005819D01*
X024435Y005613D01*
X024593Y005455D01*
X024799Y005370D01*
X025021Y005370D01*
X025227Y005455D01*
X025385Y005613D01*
X025470Y005819D01*
X025470Y006041D01*
X025385Y006247D01*
X025227Y006405D01*
X025021Y006490D01*
X024799Y006490D01*
X024711Y006454D01*
X024465Y006700D01*
X025315Y006700D01*
X026060Y005955D01*
X026060Y005860D01*
X026113Y005732D01*
X026212Y005633D01*
X026340Y005580D01*
X026480Y005580D01*
X026608Y005633D01*
X026707Y005732D01*
X026760Y005860D01*
X026760Y006000D01*
X026707Y006128D01*
X026608Y006227D01*
X026480Y006280D01*
X026385Y006280D01*
X025705Y006960D01*
X047940Y006960D01*
X047940Y006519D01*
X047908Y006551D01*
X047747Y006617D01*
X047573Y006617D01*
X047412Y006551D01*
X047289Y006428D01*
X047223Y006267D01*
X047223Y006093D01*
X047289Y005932D01*
X047412Y005809D01*
X047573Y005743D01*
X047747Y005743D01*
X047908Y005809D01*
X047940Y005841D01*
X047940Y002896D01*
X047692Y003144D01*
X047308Y003366D01*
X046881Y003480D01*
X046439Y003480D01*
X046012Y003366D01*
X045628Y003144D01*
X045316Y002832D01*
X045094Y002448D01*
X044980Y002021D01*
X044980Y001579D01*
X045094Y001152D01*
X045316Y000768D01*
X045628Y000456D01*
X045725Y000400D01*
X040719Y000400D01*
X040899Y000580D01*
X040980Y000580D01*
X041108Y000633D01*
X041207Y000732D01*
X041260Y000860D01*
X041260Y001000D01*
X041207Y001128D01*
X042373Y001128D01*
X042491Y001010D02*
X041256Y001010D01*
X041207Y001128D02*
X041155Y001180D01*
X041207Y001232D01*
X041260Y001360D01*
X041260Y001500D01*
X041207Y001628D01*
X041155Y001680D01*
X041207Y001732D01*
X041260Y001860D01*
X041260Y002000D01*
X041207Y002128D01*
X041145Y002190D01*
X041311Y002190D01*
X042774Y000727D01*
X042862Y000690D01*
X044155Y000690D01*
X044212Y000633D01*
X044340Y000580D01*
X044480Y000580D01*
X044608Y000633D01*
X044707Y000732D01*
X044760Y000860D01*
X044760Y001000D01*
X044707Y001128D01*
X045108Y001128D01*
X045176Y001010D02*
X044756Y001010D01*
X044707Y001128D02*
X044655Y001180D01*
X044707Y001232D01*
X044760Y001360D01*
X044760Y001500D01*
X044707Y001628D01*
X044655Y001680D01*
X044707Y001732D01*
X044760Y001860D01*
X044760Y002000D01*
X044707Y002128D01*
X044608Y002227D01*
X044480Y002280D01*
X044340Y002280D01*
X044212Y002227D01*
X044155Y002170D01*
X043509Y002170D01*
X042613Y003066D01*
X042546Y003133D01*
X042458Y003170D01*
X039612Y003170D01*
X039524Y003133D01*
X039171Y002780D01*
X039090Y002780D01*
X038962Y002727D01*
X038863Y002628D01*
X038810Y002500D01*
X038810Y002360D01*
X038863Y002232D01*
X038962Y002133D01*
X039090Y002080D01*
X039221Y002080D01*
X039061Y001920D01*
X035665Y001920D01*
X035608Y001977D01*
X035480Y002030D01*
X035340Y002030D01*
X035212Y001977D01*
X035113Y001878D01*
X035060Y001750D01*
X035060Y001610D01*
X035113Y001482D01*
X035175Y001420D01*
X031510Y001420D01*
X031510Y001500D01*
X031457Y001628D01*
X031358Y001727D01*
X031230Y001780D01*
X031090Y001780D01*
X030962Y001727D01*
X030863Y001628D01*
X030810Y001500D01*
X030810Y001360D01*
X030863Y001232D01*
X030925Y001170D01*
X029609Y001170D01*
X029610Y001171D01*
X029621Y001212D01*
X029621Y001392D01*
X029283Y001392D01*
X029283Y001468D01*
X029621Y001468D01*
X029621Y001648D01*
X029610Y001689D01*
X029589Y001725D01*
X029559Y001755D01*
X029523Y001776D01*
X029482Y001787D01*
X029283Y001787D01*
X029283Y001468D01*
X029206Y001468D01*
X029206Y001787D01*
X029007Y001787D01*
X028966Y001776D01*
X028930Y001755D01*
X028924Y001749D01*
X028866Y001807D01*
X028284Y001807D01*
X028179Y001701D01*
X028179Y001670D01*
X028165Y001670D01*
X028108Y001727D01*
X027980Y001780D01*
X027840Y001780D01*
X027712Y001727D01*
X027707Y001722D01*
X027624Y001805D01*
X027759Y001940D01*
X031561Y001940D01*
X031707Y001794D01*
X031774Y001727D01*
X031862Y001690D01*
X032155Y001690D01*
X032212Y001633D01*
X032340Y001580D01*
X032480Y001580D01*
X032608Y001633D01*
X032665Y001690D01*
X032679Y001690D01*
X032679Y001659D01*
X032784Y001553D01*
X033366Y001553D01*
X033424Y001611D01*
X033430Y001605D01*
X033466Y001584D01*
X033507Y001573D01*
X033706Y001573D01*
X033706Y001892D01*
X033783Y001892D01*
X033783Y001968D01*
X034121Y001968D01*
X034121Y002148D01*
X034110Y002189D01*
X034109Y002190D01*
X035958Y002190D01*
X036046Y002227D01*
X036259Y002440D01*
X036405Y002440D01*
X036462Y002383D01*
X036590Y002330D01*
X036730Y002330D01*
X036858Y002383D01*
X036915Y002440D01*
X036929Y002440D01*
X036929Y002409D01*
X037034Y002303D01*
X037616Y002303D01*
X037674Y002361D01*
X037680Y002355D01*
X037716Y002334D01*
X037757Y002323D01*
X037956Y002323D01*
X037956Y002642D01*
X038033Y002642D01*
X038033Y002718D01*
X038371Y002718D01*
X038371Y002898D01*
X038360Y002939D01*
X038339Y002975D01*
X038309Y003005D01*
X038273Y003026D01*
X038232Y003037D01*
X038033Y003037D01*
X038033Y002718D01*
X037956Y002718D01*
X037956Y003037D01*
X037757Y003037D01*
X037716Y003026D01*
X037680Y003005D01*
X037674Y002999D01*
X037616Y003057D01*
X037034Y003057D01*
X036929Y002951D01*
X036929Y002920D01*
X036915Y002920D01*
X036858Y002977D01*
X036730Y003030D01*
X036590Y003030D01*
X036462Y002977D01*
X036405Y002920D01*
X036112Y002920D01*
X036024Y002883D01*
X035957Y002816D01*
X035811Y002670D01*
X027362Y002670D01*
X027274Y002633D01*
X027207Y002566D01*
X027061Y002420D01*
X025862Y002420D01*
X025774Y002383D01*
X025707Y002316D01*
X024561Y001170D01*
X006259Y001170D01*
X005296Y002133D01*
X005208Y002170D01*
X005165Y002170D01*
X005108Y002227D01*
X004980Y002280D01*
X004840Y002280D01*
X004712Y002227D01*
X004613Y002128D01*
X004560Y002000D01*
X004560Y001860D01*
X004613Y001732D01*
X004665Y001680D01*
X004613Y001628D01*
X004560Y001500D01*
X004560Y001360D01*
X004613Y001232D01*
X004665Y001180D01*
X004613Y001128D01*
X004564Y001010D02*
X003144Y001010D01*
X003075Y000891D02*
X004560Y000891D01*
X004596Y000773D02*
X003007Y000773D01*
X003004Y000768D02*
X003226Y001152D01*
X003251Y001247D02*
X004607Y001247D01*
X004560Y001365D02*
X003283Y001365D01*
X003314Y001484D02*
X004560Y001484D01*
X004910Y001430D02*
X005160Y001430D01*
X005910Y000680D01*
X024910Y000680D01*
X026160Y001930D01*
X027410Y001930D01*
X027660Y002180D01*
X031660Y002180D01*
X031910Y001930D01*
X032410Y001930D01*
X033075Y001930D01*
X033706Y001839D02*
X033783Y001839D01*
X033783Y001892D02*
X033783Y001573D01*
X033982Y001573D01*
X034023Y001584D01*
X034059Y001605D01*
X034089Y001635D01*
X034110Y001671D01*
X034121Y001712D01*
X034121Y001892D01*
X033783Y001892D01*
X033783Y001958D02*
X035193Y001958D01*
X035097Y001839D02*
X034121Y001839D01*
X034121Y001721D02*
X035060Y001721D01*
X035063Y001602D02*
X034054Y001602D01*
X033783Y001602D02*
X033706Y001602D01*
X033706Y001721D02*
X033783Y001721D01*
X033435Y001602D02*
X033415Y001602D01*
X032735Y001602D02*
X032533Y001602D01*
X032287Y001602D02*
X031468Y001602D01*
X031364Y001721D02*
X031789Y001721D01*
X030956Y001721D02*
X029592Y001721D01*
X029621Y001602D02*
X030852Y001602D01*
X030810Y001484D02*
X029621Y001484D01*
X029621Y001365D02*
X030810Y001365D01*
X031160Y001430D02*
X031410Y001180D01*
X039410Y001180D01*
X040660Y002430D01*
X041410Y002430D01*
X042910Y000930D01*
X044410Y000930D01*
X044760Y000891D02*
X045245Y000891D01*
X045313Y000773D02*
X044724Y000773D01*
X044629Y000654D02*
X045430Y000654D01*
X045549Y000536D02*
X040855Y000536D01*
X041129Y000654D02*
X044191Y000654D01*
X042728Y000773D02*
X041224Y000773D01*
X041260Y000891D02*
X042610Y000891D01*
X040910Y000930D02*
X040410Y000430D01*
X026910Y000430D01*
X026410Y000930D01*
X026910Y000930D02*
X027160Y000680D01*
X040160Y000680D01*
X040910Y001430D01*
X041260Y001484D02*
X042017Y001484D01*
X042136Y001365D02*
X041260Y001365D01*
X041213Y001247D02*
X042254Y001247D01*
X043160Y001430D02*
X041910Y002680D01*
X040160Y002680D01*
X039160Y001680D01*
X035410Y001680D01*
X035627Y001958D02*
X039098Y001958D01*
X039217Y002076D02*
X034121Y002076D01*
X035969Y002195D02*
X038901Y002195D01*
X038830Y002313D02*
X037626Y002313D01*
X038033Y002323D02*
X038232Y002323D01*
X038273Y002334D01*
X038309Y002355D01*
X038339Y002385D01*
X038360Y002421D01*
X038371Y002462D01*
X038371Y002642D01*
X038033Y002642D01*
X038033Y002323D01*
X038033Y002432D02*
X037956Y002432D01*
X037956Y002550D02*
X038033Y002550D01*
X038371Y002550D02*
X038831Y002550D01*
X038810Y002432D02*
X038363Y002432D01*
X039160Y002430D02*
X039660Y002930D01*
X042410Y002930D01*
X043410Y001930D01*
X044410Y001930D01*
X044760Y001958D02*
X044980Y001958D01*
X044980Y001839D02*
X044751Y001839D01*
X044695Y001721D02*
X044980Y001721D01*
X044980Y001602D02*
X044718Y001602D01*
X044760Y001484D02*
X045006Y001484D01*
X045037Y001365D02*
X044760Y001365D01*
X044410Y001430D02*
X043160Y001430D01*
X041899Y001602D02*
X041218Y001602D01*
X041195Y001721D02*
X041780Y001721D01*
X041662Y001839D02*
X041251Y001839D01*
X041260Y001958D02*
X041543Y001958D01*
X040910Y001930D02*
X039910Y000930D01*
X027660Y000930D01*
X027410Y001180D01*
X027660Y001430D02*
X027910Y001430D01*
X028575Y001430D01*
X029206Y001484D02*
X029283Y001484D01*
X029283Y001602D02*
X029206Y001602D01*
X029206Y001721D02*
X029283Y001721D01*
X028198Y001721D02*
X028114Y001721D01*
X027658Y001839D02*
X031662Y001839D01*
X031510Y001484D02*
X035113Y001484D01*
X030857Y001247D02*
X029621Y001247D01*
X027660Y001430D02*
X027410Y001680D01*
X026410Y001680D01*
X025160Y000430D01*
X005660Y000430D01*
X005160Y000930D01*
X004910Y000930D01*
X005160Y001930D02*
X006160Y000930D01*
X024660Y000930D01*
X025910Y002180D01*
X027160Y002180D01*
X027410Y002430D01*
X035910Y002430D01*
X036160Y002680D01*
X036660Y002680D01*
X037325Y002680D01*
X037956Y002787D02*
X038033Y002787D01*
X038033Y002669D02*
X038904Y002669D01*
X039178Y002787D02*
X038371Y002787D01*
X038369Y002906D02*
X039296Y002906D01*
X039415Y003024D02*
X038276Y003024D01*
X038033Y003024D02*
X037956Y003024D01*
X037956Y002906D02*
X038033Y002906D01*
X037713Y003024D02*
X037649Y003024D01*
X037001Y003024D02*
X036744Y003024D01*
X036576Y003024D02*
X025579Y003024D01*
X025461Y002906D02*
X036077Y002906D01*
X035928Y002787D02*
X025342Y002787D01*
X025255Y002700D02*
X025755Y003200D01*
X028505Y003200D01*
X028755Y003450D01*
X030315Y003450D01*
X030430Y003335D01*
X030565Y003200D01*
X032005Y003200D01*
X032255Y003450D01*
X036005Y003450D01*
X036255Y003700D01*
X039145Y003700D01*
X039212Y003633D01*
X039340Y003580D01*
X039480Y003580D01*
X039608Y003633D01*
X039707Y003732D01*
X039760Y003860D01*
X039760Y004000D01*
X039707Y004128D01*
X039608Y004227D01*
X039480Y004280D01*
X039340Y004280D01*
X039212Y004227D01*
X039145Y004160D01*
X036065Y004160D01*
X035815Y003910D01*
X035635Y003910D01*
X035707Y003982D01*
X035760Y004110D01*
X035760Y004250D01*
X035707Y004378D01*
X035635Y004450D01*
X039565Y004450D01*
X040315Y003700D01*
X044395Y003700D01*
X044462Y003633D01*
X044590Y003580D01*
X044730Y003580D01*
X044858Y003633D01*
X044957Y003732D01*
X045010Y003860D01*
X045010Y004000D01*
X044957Y004128D01*
X044858Y004227D01*
X044730Y004280D01*
X044590Y004280D01*
X044462Y004227D01*
X044395Y004160D01*
X040505Y004160D01*
X039987Y004678D01*
X040055Y004650D01*
X040265Y004650D01*
X040460Y004731D01*
X040609Y004880D01*
X040690Y005075D01*
X040690Y005285D01*
X040609Y005480D01*
X040460Y005629D01*
X040338Y005680D01*
X040460Y005731D01*
X040609Y005880D01*
X040690Y006075D01*
X040690Y006285D01*
X040609Y006480D01*
X040460Y006629D01*
X040265Y006710D01*
X040055Y006710D01*
X039860Y006629D01*
X039711Y006480D01*
X039630Y006285D01*
X039630Y006075D01*
X039711Y005880D01*
X039860Y005731D01*
X039982Y005680D01*
X039860Y005629D01*
X039711Y005480D01*
X039630Y005285D01*
X039630Y005075D01*
X039698Y004910D01*
X033872Y004910D01*
X033940Y005075D01*
X033940Y005285D01*
X033940Y005286D01*
X033950Y005295D01*
X034042Y005295D01*
X034139Y005199D01*
X034681Y005199D01*
X034787Y005304D01*
X034787Y005886D01*
X034729Y005944D01*
X034735Y005950D01*
X034756Y005986D01*
X034767Y006027D01*
X034767Y006226D01*
X034448Y006226D01*
X034448Y006303D01*
X034372Y006303D01*
X034372Y006641D01*
X034192Y006641D01*
X034151Y006630D01*
X034115Y006609D01*
X034085Y006579D01*
X033728Y006579D01*
X033742Y006569D02*
X033677Y006616D01*
X033606Y006653D01*
X033529Y006677D01*
X033450Y006690D01*
X033450Y006690D01*
X033450Y006220D01*
X033920Y006220D01*
X033920Y006220D01*
X033907Y006299D01*
X033883Y006376D01*
X033846Y006447D01*
X033799Y006512D01*
X033742Y006569D01*
X033837Y006461D02*
X034053Y006461D01*
X034053Y006502D02*
X034053Y006303D01*
X034372Y006303D01*
X034372Y006226D01*
X034053Y006226D01*
X034053Y006027D01*
X034064Y005986D01*
X034085Y005950D01*
X034091Y005944D01*
X034042Y005895D01*
X033834Y005895D01*
X033846Y005913D01*
X033883Y005984D01*
X033907Y006061D01*
X033920Y006140D01*
X033450Y006140D01*
X033450Y006220D01*
X033370Y006220D01*
X033370Y006690D01*
X033370Y006690D01*
X033291Y006677D01*
X033214Y006653D01*
X033143Y006616D01*
X033078Y006569D01*
X033021Y006512D01*
X032974Y006447D01*
X032937Y006376D01*
X032913Y006299D01*
X032900Y006220D01*
X033370Y006220D01*
X033370Y006140D01*
X032900Y006140D01*
X032900Y006140D01*
X032913Y006061D01*
X032937Y005984D01*
X032974Y005913D01*
X033021Y005848D01*
X033078Y005791D01*
X033143Y005744D01*
X033214Y005707D01*
X033261Y005692D01*
X033110Y005629D01*
X032961Y005480D01*
X032880Y005285D01*
X032880Y005075D01*
X032948Y004910D01*
X029872Y004910D01*
X029940Y005075D01*
X029940Y005285D01*
X029859Y005480D01*
X029710Y005629D01*
X029588Y005680D01*
X029710Y005731D01*
X029859Y005880D01*
X029940Y006075D01*
X029940Y006285D01*
X029859Y006480D01*
X029710Y006629D01*
X029515Y006710D01*
X029305Y006710D01*
X029110Y006629D01*
X028961Y006480D01*
X028880Y006285D01*
X028880Y006075D01*
X028961Y005880D01*
X029110Y005731D01*
X029232Y005680D01*
X029110Y005629D01*
X028961Y005480D01*
X028880Y005285D01*
X028880Y005075D01*
X028948Y004910D01*
X028510Y004910D01*
X028510Y005000D01*
X028457Y005128D01*
X028358Y005227D01*
X028230Y005280D01*
X028090Y005280D01*
X027962Y005227D01*
X027863Y005128D01*
X027810Y005000D01*
X027810Y004860D01*
X027845Y004775D01*
X027738Y004820D01*
X027582Y004820D01*
X027439Y004761D01*
X027410Y004732D01*
X027381Y004761D01*
X027238Y004820D01*
X027082Y004820D01*
X026939Y004761D01*
X026910Y004732D01*
X026881Y004761D01*
X026738Y004820D01*
X026582Y004820D01*
X026439Y004761D01*
X026408Y004730D01*
X023034Y004730D01*
X022830Y004934D01*
X022720Y004980D01*
X021850Y004980D01*
X021740Y004934D01*
X021656Y004850D01*
X021036Y004230D01*
X020662Y004230D01*
X020631Y004261D01*
X020488Y004320D01*
X020332Y004320D01*
X020189Y004261D01*
X020160Y004232D01*
X020131Y004261D01*
X019988Y004320D01*
X019832Y004320D01*
X019689Y004261D01*
X019660Y004232D01*
X019631Y004261D01*
X019488Y004320D01*
X019332Y004320D01*
X019189Y004261D01*
X019079Y004151D01*
X019020Y004008D01*
X019020Y003852D01*
X019079Y003709D01*
X019189Y003599D01*
X019332Y003540D01*
X019488Y003540D01*
X019631Y003599D01*
X019660Y003628D01*
X019689Y003599D01*
X019832Y003540D01*
X019988Y003540D01*
X020131Y003599D01*
X020160Y003628D01*
X020189Y003599D01*
X020332Y003540D01*
X020488Y003540D01*
X020631Y003599D01*
X020662Y003630D01*
X020860Y003630D01*
X020860Y002870D01*
X020906Y002760D01*
X021156Y002510D01*
X021240Y002426D01*
X021350Y002380D01*
X021720Y002380D01*
X021840Y002330D01*
X021980Y002330D01*
X022108Y002383D01*
X022207Y002482D01*
X022260Y002610D01*
X022260Y002750D01*
X022207Y002878D01*
X022108Y002977D01*
X021980Y003030D01*
X021840Y003030D01*
X021720Y002980D01*
X021534Y002980D01*
X021460Y003054D01*
X021460Y003806D01*
X021810Y004156D01*
X021810Y004110D01*
X021863Y003982D01*
X021962Y003883D01*
X022090Y003830D01*
X022230Y003830D01*
X022358Y003883D01*
X022425Y003950D01*
X022565Y003950D01*
X022815Y003700D01*
X023685Y003700D01*
X023613Y003628D01*
X023560Y003500D01*
X023560Y003360D01*
X023613Y003232D01*
X023712Y003133D01*
X023840Y003080D01*
X023935Y003080D01*
X024315Y002700D01*
X025255Y002700D01*
X024228Y002787D02*
X022245Y002787D01*
X022260Y002669D02*
X027359Y002669D01*
X027191Y002550D02*
X022235Y002550D01*
X022156Y002432D02*
X027072Y002432D01*
X025704Y002313D02*
X019691Y002313D01*
X019710Y002267D02*
X019643Y002428D01*
X019520Y002551D01*
X019359Y002617D01*
X019185Y002617D01*
X019024Y002551D01*
X018901Y002428D01*
X018879Y002373D01*
X018856Y002428D01*
X018733Y002551D01*
X018572Y002617D01*
X018398Y002617D01*
X018237Y002551D01*
X018114Y002428D01*
X018091Y002373D01*
X018068Y002428D01*
X017945Y002551D01*
X017784Y002617D01*
X017610Y002617D01*
X017450Y002551D01*
X017327Y002428D01*
X017293Y002347D01*
X017267Y002399D01*
X017228Y002452D01*
X017182Y002498D01*
X017129Y002537D01*
X017070Y002567D01*
X017008Y002587D01*
X016943Y002597D01*
X016929Y002597D01*
X016929Y002199D01*
X016891Y002199D01*
X016891Y002597D01*
X016877Y002597D01*
X016812Y002587D01*
X016750Y002567D01*
X016691Y002537D01*
X016638Y002498D01*
X016592Y002452D01*
X016553Y002399D01*
X016527Y002347D01*
X016493Y002428D01*
X016370Y002551D01*
X016210Y002617D01*
X016036Y002617D01*
X016018Y002610D01*
X015890Y002738D01*
X015890Y002915D01*
X015957Y002982D01*
X016010Y003110D01*
X016010Y003250D01*
X015957Y003378D01*
X015890Y003445D01*
X015890Y004580D01*
X015980Y004580D01*
X016108Y004633D01*
X016207Y004732D01*
X016260Y004860D01*
X016260Y005000D01*
X016207Y005128D01*
X016108Y005227D01*
X015980Y005280D01*
X015840Y005280D01*
X015712Y005227D01*
X015613Y005128D01*
X015560Y005000D01*
X015560Y004905D01*
X015430Y004775D01*
X015430Y003445D01*
X015363Y003378D01*
X015310Y003250D01*
X015310Y003110D01*
X015363Y002982D01*
X015430Y002915D01*
X015430Y002614D01*
X015422Y002617D01*
X015248Y002617D01*
X015087Y002551D01*
X014985Y002449D01*
X014985Y002512D01*
X014880Y002617D01*
X014216Y002617D01*
X014110Y002512D01*
X014110Y001848D01*
X014216Y001743D01*
X014880Y001743D01*
X014985Y001848D01*
X014985Y001911D01*
X015087Y001809D01*
X015248Y001743D01*
X015422Y001743D01*
X015583Y001809D01*
X015706Y001932D01*
X015729Y001987D01*
X015752Y001932D01*
X015875Y001809D01*
X016036Y001743D01*
X016210Y001743D01*
X016370Y001809D01*
X016493Y001932D01*
X016527Y002013D01*
X016553Y001961D01*
X016592Y001908D01*
X016638Y001862D01*
X016691Y001823D01*
X016750Y001793D01*
X016812Y001773D01*
X016877Y001763D01*
X016891Y001763D01*
X016891Y002161D01*
X016929Y002161D01*
X016929Y001763D01*
X016943Y001763D01*
X017008Y001773D01*
X017070Y001793D01*
X017129Y001823D01*
X017182Y001862D01*
X017228Y001908D01*
X017267Y001961D01*
X017293Y002013D01*
X017327Y001932D01*
X017450Y001809D01*
X017610Y001743D01*
X017784Y001743D01*
X017945Y001809D01*
X018068Y001932D01*
X018091Y001987D01*
X018114Y001932D01*
X018237Y001809D01*
X018398Y001743D01*
X018572Y001743D01*
X018733Y001809D01*
X018856Y001932D01*
X018879Y001987D01*
X018901Y001932D01*
X019024Y001809D01*
X019185Y001743D01*
X019359Y001743D01*
X019520Y001809D01*
X019643Y001932D01*
X019710Y002093D01*
X019710Y002267D01*
X019710Y002195D02*
X025585Y002195D01*
X025467Y002076D02*
X019703Y002076D01*
X019654Y001958D02*
X025348Y001958D01*
X025230Y001839D02*
X019550Y001839D01*
X018995Y001839D02*
X018762Y001839D01*
X018866Y001958D02*
X018891Y001958D01*
X018207Y001839D02*
X017975Y001839D01*
X018079Y001958D02*
X018103Y001958D01*
X017420Y001839D02*
X017151Y001839D01*
X017264Y001958D02*
X017316Y001958D01*
X016929Y001958D02*
X016891Y001958D01*
X016891Y001839D02*
X016929Y001839D01*
X016669Y001839D02*
X016400Y001839D01*
X016504Y001958D02*
X016556Y001958D01*
X016891Y002076D02*
X016929Y002076D01*
X016929Y002313D02*
X016891Y002313D01*
X016891Y002432D02*
X016929Y002432D01*
X016929Y002550D02*
X016891Y002550D01*
X016717Y002550D02*
X016371Y002550D01*
X016340Y002580D02*
X016480Y002580D01*
X016608Y002633D01*
X016707Y002732D01*
X016760Y002860D01*
X016760Y003000D01*
X016707Y003128D01*
X016640Y003195D01*
X016640Y004165D01*
X016707Y004232D01*
X016760Y004360D01*
X016760Y004500D01*
X016707Y004628D01*
X016608Y004727D01*
X016480Y004780D01*
X016340Y004780D01*
X016212Y004727D01*
X016113Y004628D01*
X016060Y004500D01*
X016060Y004360D01*
X016113Y004232D01*
X016180Y004165D01*
X016180Y003195D01*
X016113Y003128D01*
X016060Y003000D01*
X016060Y002860D01*
X016113Y002732D01*
X016212Y002633D01*
X016340Y002580D01*
X016177Y002669D02*
X015959Y002669D01*
X015890Y002787D02*
X016090Y002787D01*
X016643Y002669D02*
X020997Y002669D01*
X020895Y002787D02*
X016730Y002787D01*
X016760Y002906D02*
X020860Y002906D01*
X020860Y003024D02*
X016750Y003024D01*
X016070Y003024D02*
X015974Y003024D01*
X015890Y002906D02*
X016060Y002906D01*
X015430Y002906D02*
X002930Y002906D01*
X002812Y003024D02*
X015346Y003024D01*
X015310Y003143D02*
X002693Y003143D01*
X002489Y003261D02*
X015315Y003261D01*
X015365Y003380D02*
X002256Y003380D01*
X001064Y003380D02*
X000380Y003380D01*
X000380Y003261D02*
X000831Y003261D01*
X000627Y003143D02*
X000380Y003143D01*
X000380Y003024D02*
X000508Y003024D01*
X000390Y002906D02*
X000380Y002906D01*
X003030Y002787D02*
X015430Y002787D01*
X015430Y002669D02*
X003098Y002669D01*
X003167Y002550D02*
X014148Y002550D01*
X014110Y002432D02*
X003230Y002432D01*
X003262Y002313D02*
X014110Y002313D01*
X014110Y002195D02*
X005140Y002195D01*
X004680Y002195D02*
X003294Y002195D01*
X003325Y002076D02*
X004592Y002076D01*
X004560Y001958D02*
X003340Y001958D01*
X003340Y001839D02*
X004569Y001839D01*
X004910Y001930D02*
X005160Y001930D01*
X005472Y001958D02*
X014110Y001958D01*
X014119Y001839D02*
X005590Y001839D01*
X005709Y001721D02*
X025111Y001721D01*
X024993Y001602D02*
X005827Y001602D01*
X005946Y001484D02*
X024874Y001484D01*
X024756Y001365D02*
X006064Y001365D01*
X006183Y001247D02*
X024637Y001247D01*
X021234Y002432D02*
X019639Y002432D01*
X019521Y002550D02*
X021116Y002550D01*
X019024Y002550D02*
X018733Y002550D01*
X018852Y002432D02*
X018905Y002432D01*
X018236Y002550D02*
X017946Y002550D01*
X018065Y002432D02*
X018118Y002432D01*
X017449Y002550D02*
X017103Y002550D01*
X017243Y002432D02*
X017330Y002432D01*
X016577Y002432D02*
X016490Y002432D01*
X015087Y002550D02*
X014947Y002550D01*
X014110Y002076D02*
X005353Y002076D01*
X004625Y001721D02*
X003340Y001721D01*
X003340Y001602D02*
X004602Y001602D01*
X003004Y000768D02*
X002692Y000456D01*
X002625Y000417D02*
X005334Y000417D01*
X005215Y000536D02*
X002771Y000536D01*
X002890Y000654D02*
X004691Y000654D01*
X014976Y001839D02*
X015058Y001839D01*
X015613Y001839D02*
X015845Y001839D01*
X015741Y001958D02*
X015717Y001958D01*
X022179Y002906D02*
X024109Y002906D01*
X023991Y003024D02*
X021994Y003024D01*
X021826Y003024D02*
X021490Y003024D01*
X021460Y003143D02*
X023703Y003143D01*
X023601Y003261D02*
X021460Y003261D01*
X021460Y003380D02*
X023560Y003380D01*
X023560Y003498D02*
X021460Y003498D01*
X021460Y003617D02*
X023608Y003617D01*
X022780Y003735D02*
X021460Y003735D01*
X021508Y003854D02*
X022034Y003854D01*
X022286Y003854D02*
X022661Y003854D01*
X021873Y003972D02*
X021626Y003972D01*
X021745Y004091D02*
X021818Y004091D01*
X021133Y004328D02*
X018746Y004328D01*
X018760Y004360D02*
X018760Y004500D01*
X018707Y004628D01*
X018640Y004695D01*
X018640Y004718D01*
X018805Y004650D01*
X019015Y004650D01*
X019210Y004731D01*
X019359Y004880D01*
X019440Y005075D01*
X019440Y005285D01*
X019440Y005286D01*
X019450Y005295D01*
X019542Y005295D01*
X019639Y005199D01*
X020181Y005199D01*
X020287Y005304D01*
X020287Y005886D01*
X020229Y005944D01*
X020235Y005950D01*
X020256Y005986D01*
X020267Y006027D01*
X020267Y006226D01*
X019948Y006226D01*
X019948Y006303D01*
X019872Y006303D01*
X019872Y006641D01*
X019692Y006641D01*
X019651Y006630D01*
X019615Y006609D01*
X019585Y006579D01*
X019228Y006579D01*
X019242Y006569D02*
X019177Y006616D01*
X019106Y006653D01*
X019029Y006677D01*
X018950Y006690D01*
X018950Y006690D01*
X018950Y006220D01*
X019420Y006220D01*
X019420Y006220D01*
X019407Y006299D01*
X019383Y006376D01*
X019346Y006447D01*
X019299Y006512D01*
X019242Y006569D01*
X019337Y006461D02*
X019553Y006461D01*
X019553Y006502D02*
X019553Y006303D01*
X019872Y006303D01*
X019872Y006226D01*
X019553Y006226D01*
X019553Y006027D01*
X019564Y005986D01*
X019585Y005950D01*
X019591Y005944D01*
X019542Y005895D01*
X019334Y005895D01*
X019346Y005913D01*
X019383Y005984D01*
X019407Y006061D01*
X019420Y006140D01*
X018950Y006140D01*
X018950Y006220D01*
X018870Y006220D01*
X018870Y006690D01*
X018870Y006690D01*
X018791Y006677D01*
X018714Y006653D01*
X018643Y006616D01*
X018578Y006569D01*
X018521Y006512D01*
X018474Y006447D01*
X018437Y006376D01*
X018413Y006299D01*
X018400Y006220D01*
X018870Y006220D01*
X018870Y006140D01*
X018400Y006140D01*
X018400Y006140D01*
X018413Y006061D01*
X018422Y006030D01*
X018340Y006030D01*
X018212Y005977D01*
X018113Y005878D01*
X018060Y005750D01*
X018060Y005610D01*
X018113Y005482D01*
X018180Y005415D01*
X018180Y004695D01*
X018113Y004628D01*
X018060Y004500D01*
X018060Y004360D01*
X018113Y004232D01*
X018212Y004133D01*
X018340Y004080D01*
X018480Y004080D01*
X018608Y004133D01*
X018707Y004232D01*
X018760Y004360D01*
X018760Y004446D02*
X021252Y004446D01*
X021370Y004565D02*
X018733Y004565D01*
X018725Y004683D02*
X018652Y004683D01*
X019095Y004683D02*
X021489Y004683D01*
X021607Y004802D02*
X019281Y004802D01*
X019376Y004920D02*
X021726Y004920D01*
X020882Y005157D02*
X027892Y005157D01*
X028080Y005276D02*
X020975Y005276D01*
X020438Y005157D02*
X019440Y005157D01*
X019440Y005276D02*
X019562Y005276D01*
X020258Y005276D02*
X020345Y005276D01*
X020310Y005394D02*
X020287Y005394D01*
X020287Y005513D02*
X020315Y005513D01*
X021005Y005513D02*
X023036Y005513D01*
X023241Y005394D02*
X021010Y005394D01*
X020954Y005631D02*
X022928Y005631D01*
X022879Y005750D02*
X020890Y005750D01*
X020923Y005868D02*
X022850Y005868D01*
X022850Y005987D02*
X021042Y005987D01*
X021160Y006105D02*
X022876Y006105D01*
X022925Y006224D02*
X021279Y006224D01*
X021397Y006342D02*
X023030Y006342D01*
X023790Y006342D02*
X024173Y006342D01*
X024291Y006224D02*
X023895Y006224D01*
X023944Y006105D02*
X024376Y006105D01*
X024350Y005987D02*
X023970Y005987D01*
X023970Y005868D02*
X024350Y005868D01*
X024379Y005750D02*
X023941Y005750D01*
X023892Y005631D02*
X024428Y005631D01*
X024536Y005513D02*
X023784Y005513D01*
X023579Y005394D02*
X024741Y005394D01*
X025079Y005394D02*
X028925Y005394D01*
X028993Y005513D02*
X025284Y005513D01*
X025392Y005631D02*
X026217Y005631D01*
X026603Y005631D02*
X029114Y005631D01*
X029706Y005631D02*
X033114Y005631D01*
X033135Y005750D02*
X029729Y005750D01*
X029848Y005868D02*
X033006Y005868D01*
X032937Y005987D02*
X029904Y005987D01*
X029940Y006105D02*
X032906Y006105D01*
X032900Y006220D02*
X032900Y006220D01*
X032901Y006224D02*
X029940Y006224D01*
X029917Y006342D02*
X032926Y006342D01*
X033370Y006342D02*
X033450Y006342D01*
X033450Y006224D02*
X033370Y006224D01*
X033894Y006342D02*
X034053Y006342D01*
X034053Y006224D02*
X033919Y006224D01*
X033920Y006140D02*
X033920Y006140D01*
X033914Y006105D02*
X034053Y006105D01*
X034064Y005987D02*
X033883Y005987D01*
X034756Y005987D02*
X039666Y005987D01*
X039630Y006105D02*
X034767Y006105D01*
X034767Y006224D02*
X039630Y006224D01*
X039653Y006342D02*
X034767Y006342D01*
X034767Y006303D02*
X034767Y006502D01*
X034756Y006543D01*
X034735Y006579D01*
X039809Y006579D01*
X039703Y006461D02*
X034767Y006461D01*
X034735Y006579D02*
X034705Y006609D01*
X034669Y006630D01*
X034628Y006641D01*
X034448Y006641D01*
X034448Y006303D01*
X034767Y006303D01*
X034448Y006342D02*
X034372Y006342D01*
X034372Y006461D02*
X034448Y006461D01*
X034448Y006579D02*
X034372Y006579D01*
X034085Y006579D02*
X034064Y006543D01*
X034053Y006502D01*
X033450Y006461D02*
X033370Y006461D01*
X033370Y006579D02*
X033450Y006579D01*
X033092Y006579D02*
X029761Y006579D01*
X029867Y006461D02*
X032983Y006461D01*
X029546Y006698D02*
X040024Y006698D01*
X040296Y006698D02*
X047940Y006698D01*
X047940Y006816D02*
X025849Y006816D01*
X025731Y006935D02*
X047940Y006935D01*
X047097Y006512D02*
X046992Y006617D01*
X046328Y006617D01*
X046223Y006512D01*
X046223Y005848D01*
X046328Y005743D01*
X046992Y005743D01*
X047097Y005848D01*
X047097Y006512D01*
X047097Y006461D02*
X047322Y006461D01*
X047480Y006579D02*
X047031Y006579D01*
X046289Y006579D02*
X045485Y006579D01*
X045455Y006609D01*
X045419Y006630D01*
X045378Y006641D01*
X045198Y006641D01*
X045198Y006303D01*
X045122Y006303D01*
X045122Y006641D01*
X044942Y006641D01*
X044901Y006630D01*
X044865Y006609D01*
X044835Y006579D01*
X044478Y006579D01*
X044492Y006569D02*
X044427Y006616D01*
X044356Y006653D01*
X044279Y006677D01*
X044200Y006690D01*
X044200Y006690D01*
X044200Y006220D01*
X044670Y006220D01*
X044670Y006220D01*
X044657Y006299D01*
X044633Y006376D01*
X044596Y006447D01*
X044549Y006512D01*
X044492Y006569D01*
X044587Y006461D02*
X044803Y006461D01*
X044803Y006502D02*
X044803Y006303D01*
X045122Y006303D01*
X045122Y006226D01*
X044803Y006226D01*
X044803Y006027D01*
X044814Y005986D01*
X044835Y005950D01*
X044841Y005944D01*
X044792Y005895D01*
X044584Y005895D01*
X044596Y005913D01*
X044633Y005984D01*
X044657Y006061D01*
X044670Y006140D01*
X044200Y006140D01*
X044200Y006220D01*
X044120Y006220D01*
X044120Y006690D01*
X044120Y006690D01*
X044041Y006677D01*
X043964Y006653D01*
X043893Y006616D01*
X043828Y006569D01*
X043771Y006512D01*
X043724Y006447D01*
X043687Y006376D01*
X043663Y006299D01*
X043650Y006220D01*
X044120Y006220D01*
X044120Y006140D01*
X043650Y006140D01*
X043650Y006140D01*
X043663Y006061D01*
X043687Y005984D01*
X043724Y005913D01*
X043771Y005848D01*
X043828Y005791D01*
X043893Y005744D01*
X043964Y005707D01*
X044011Y005692D01*
X043860Y005629D01*
X043711Y005480D01*
X043630Y005285D01*
X043630Y005075D01*
X043711Y004880D01*
X043860Y004731D01*
X044055Y004650D01*
X044265Y004650D01*
X044460Y004731D01*
X044609Y004880D01*
X044690Y005075D01*
X044690Y005285D01*
X044690Y005286D01*
X044700Y005295D01*
X044792Y005295D01*
X044889Y005199D01*
X045431Y005199D01*
X045537Y005304D01*
X045537Y005886D01*
X045479Y005944D01*
X045485Y005950D01*
X045506Y005986D01*
X045517Y006027D01*
X045517Y006226D01*
X045198Y006226D01*
X045198Y006303D01*
X045517Y006303D01*
X045517Y006502D01*
X045506Y006543D01*
X045485Y006579D01*
X045517Y006461D02*
X046223Y006461D01*
X046223Y006342D02*
X045517Y006342D01*
X045517Y006224D02*
X046223Y006224D01*
X046223Y006105D02*
X045517Y006105D01*
X045506Y005987D02*
X046223Y005987D01*
X046223Y005868D02*
X045537Y005868D01*
X045537Y005750D02*
X046321Y005750D01*
X046999Y005750D02*
X047556Y005750D01*
X047764Y005750D02*
X047940Y005750D01*
X047940Y005631D02*
X045537Y005631D01*
X045537Y005513D02*
X047940Y005513D01*
X047940Y005394D02*
X045537Y005394D01*
X045508Y005276D02*
X047940Y005276D01*
X047940Y005157D02*
X044690Y005157D01*
X044690Y005276D02*
X044812Y005276D01*
X043675Y005394D02*
X040645Y005394D01*
X040577Y005513D02*
X043743Y005513D01*
X043864Y005631D02*
X040456Y005631D01*
X039864Y005631D02*
X034787Y005631D01*
X034787Y005513D02*
X039743Y005513D01*
X039675Y005394D02*
X034787Y005394D01*
X034758Y005276D02*
X039630Y005276D01*
X039630Y005157D02*
X033940Y005157D01*
X033940Y005276D02*
X034062Y005276D01*
X032925Y005394D02*
X029895Y005394D01*
X029827Y005513D02*
X032993Y005513D01*
X032880Y005276D02*
X029940Y005276D01*
X029940Y005157D02*
X032880Y005157D01*
X032895Y005039D02*
X029925Y005039D01*
X029876Y004920D02*
X032944Y004920D01*
X033876Y004920D02*
X039694Y004920D01*
X039645Y005039D02*
X033925Y005039D01*
X035639Y004446D02*
X039569Y004446D01*
X039687Y004328D02*
X035728Y004328D01*
X035760Y004209D02*
X039194Y004209D01*
X039626Y004209D02*
X039806Y004209D01*
X039722Y004091D02*
X039924Y004091D01*
X040456Y004209D02*
X044444Y004209D01*
X044876Y004209D02*
X047940Y004209D01*
X047940Y004091D02*
X044972Y004091D01*
X045010Y003972D02*
X047940Y003972D01*
X047940Y003854D02*
X045007Y003854D01*
X044958Y003735D02*
X047940Y003735D01*
X047940Y003617D02*
X044818Y003617D01*
X044502Y003617D02*
X039568Y003617D01*
X039252Y003617D02*
X036172Y003617D01*
X036053Y003498D02*
X047940Y003498D01*
X047940Y003380D02*
X047256Y003380D01*
X047489Y003261D02*
X047940Y003261D01*
X047940Y003143D02*
X047693Y003143D01*
X047812Y003024D02*
X047940Y003024D01*
X047930Y002906D02*
X047940Y002906D01*
X045831Y003261D02*
X032066Y003261D01*
X032185Y003380D02*
X046064Y003380D01*
X045627Y003143D02*
X042524Y003143D01*
X042613Y003066D02*
X042613Y003066D01*
X042655Y003024D02*
X045508Y003024D01*
X045390Y002906D02*
X042774Y002906D01*
X042892Y002787D02*
X045290Y002787D01*
X045222Y002669D02*
X043011Y002669D01*
X043129Y002550D02*
X045153Y002550D01*
X045090Y002432D02*
X043248Y002432D01*
X043366Y002313D02*
X045058Y002313D01*
X045026Y002195D02*
X044640Y002195D01*
X044180Y002195D02*
X043485Y002195D01*
X044728Y002076D02*
X044995Y002076D01*
X041425Y002076D02*
X041228Y002076D01*
X037024Y002313D02*
X036132Y002313D01*
X036251Y002432D02*
X036414Y002432D01*
X036906Y002432D02*
X036929Y002432D01*
X039546Y003143D02*
X025698Y003143D01*
X028566Y003261D02*
X030504Y003261D01*
X030385Y003380D02*
X028685Y003380D01*
X035697Y003972D02*
X035877Y003972D01*
X035995Y004091D02*
X035752Y004091D01*
X039708Y003735D02*
X040280Y003735D01*
X040161Y003854D02*
X039757Y003854D01*
X039760Y003972D02*
X040043Y003972D01*
X040338Y004328D02*
X047940Y004328D01*
X047940Y004446D02*
X040219Y004446D01*
X040101Y004565D02*
X047940Y004565D01*
X047940Y004683D02*
X044345Y004683D01*
X043975Y004683D02*
X040345Y004683D01*
X040531Y004802D02*
X043789Y004802D01*
X043694Y004920D02*
X040626Y004920D01*
X040675Y005039D02*
X043645Y005039D01*
X043630Y005157D02*
X040690Y005157D01*
X040690Y005276D02*
X043630Y005276D01*
X044675Y005039D02*
X047940Y005039D01*
X047940Y004920D02*
X044626Y004920D01*
X044531Y004802D02*
X047940Y004802D01*
X043885Y005750D02*
X040479Y005750D01*
X040598Y005868D02*
X043756Y005868D01*
X043687Y005987D02*
X040654Y005987D01*
X040690Y006105D02*
X043656Y006105D01*
X043650Y006220D02*
X043650Y006220D01*
X043651Y006224D02*
X040690Y006224D01*
X040667Y006342D02*
X043676Y006342D01*
X044120Y006342D02*
X044200Y006342D01*
X044200Y006224D02*
X044120Y006224D01*
X044644Y006342D02*
X044803Y006342D01*
X044803Y006224D02*
X044669Y006224D01*
X044670Y006140D02*
X044670Y006140D01*
X044664Y006105D02*
X044803Y006105D01*
X044814Y005987D02*
X044633Y005987D01*
X045122Y006342D02*
X045198Y006342D01*
X045198Y006461D02*
X045122Y006461D01*
X045122Y006579D02*
X045198Y006579D01*
X044835Y006579D02*
X044814Y006543D01*
X044803Y006502D01*
X044200Y006461D02*
X044120Y006461D01*
X044120Y006579D02*
X044200Y006579D01*
X043842Y006579D02*
X040511Y006579D01*
X040617Y006461D02*
X043733Y006461D01*
X047097Y006342D02*
X047254Y006342D01*
X047223Y006224D02*
X047097Y006224D01*
X047097Y006105D02*
X047223Y006105D01*
X047267Y005987D02*
X047097Y005987D01*
X047097Y005868D02*
X047353Y005868D01*
X047840Y006579D02*
X047940Y006579D01*
X039841Y005750D02*
X034787Y005750D01*
X034787Y005868D02*
X039722Y005868D01*
X029274Y006698D02*
X025968Y006698D01*
X025317Y006698D02*
X024468Y006698D01*
X024586Y006579D02*
X025436Y006579D01*
X025554Y006461D02*
X025093Y006461D01*
X024727Y006461D02*
X024705Y006461D01*
X025290Y006342D02*
X025673Y006342D01*
X025791Y006224D02*
X025395Y006224D01*
X025444Y006105D02*
X025910Y006105D01*
X026028Y005987D02*
X025470Y005987D01*
X025470Y005868D02*
X026060Y005868D01*
X026106Y005750D02*
X025441Y005750D01*
X026714Y005750D02*
X029091Y005750D01*
X028972Y005868D02*
X026760Y005868D01*
X026760Y005987D02*
X028916Y005987D01*
X028880Y006105D02*
X026716Y006105D01*
X026611Y006224D02*
X028880Y006224D01*
X028903Y006342D02*
X026323Y006342D01*
X026205Y006461D02*
X028953Y006461D01*
X029059Y006579D02*
X026086Y006579D01*
X021102Y006698D02*
X015046Y006698D01*
X014774Y006698D02*
X013753Y006698D01*
X013634Y006579D02*
X014559Y006579D01*
X014453Y006461D02*
X014374Y006461D01*
X013946Y006461D02*
X013516Y006461D01*
X013848Y006342D02*
X011009Y006342D01*
X010811Y006342D02*
X009517Y006342D01*
X009517Y006303D02*
X009517Y006502D01*
X009506Y006543D01*
X009485Y006579D01*
X010573Y006579D01*
X010635Y006461D02*
X009517Y006461D01*
X009485Y006579D02*
X009455Y006609D01*
X009419Y006630D01*
X009378Y006641D01*
X009198Y006641D01*
X009198Y006303D01*
X009122Y006303D01*
X009122Y006641D01*
X008942Y006641D01*
X008901Y006630D01*
X008865Y006609D01*
X008835Y006579D01*
X008478Y006579D01*
X008492Y006569D02*
X008427Y006616D01*
X008356Y006653D01*
X008279Y006677D01*
X008200Y006690D01*
X008200Y006690D01*
X008200Y006220D01*
X008670Y006220D01*
X008670Y006220D01*
X008657Y006299D01*
X008633Y006376D01*
X008596Y006447D01*
X008549Y006512D01*
X008492Y006569D01*
X008587Y006461D02*
X008803Y006461D01*
X008803Y006502D02*
X008803Y006303D01*
X009122Y006303D01*
X009122Y006226D01*
X008803Y006226D01*
X008803Y006027D01*
X008814Y005986D01*
X008835Y005950D01*
X008841Y005944D01*
X008792Y005895D01*
X008584Y005895D01*
X008596Y005913D01*
X008633Y005984D01*
X008657Y006061D01*
X008670Y006140D01*
X008200Y006140D01*
X008200Y006220D01*
X008120Y006220D01*
X008120Y006690D01*
X008120Y006690D01*
X008041Y006677D01*
X007964Y006653D01*
X007893Y006616D01*
X007828Y006569D01*
X007771Y006512D01*
X007724Y006447D01*
X007687Y006376D01*
X007663Y006299D01*
X007650Y006220D01*
X008120Y006220D01*
X008120Y006140D01*
X007650Y006140D01*
X007650Y006140D01*
X007663Y006061D01*
X007687Y005984D01*
X007724Y005913D01*
X007771Y005848D01*
X007828Y005791D01*
X007893Y005744D01*
X007964Y005707D01*
X008011Y005692D01*
X007860Y005629D01*
X007711Y005480D01*
X007630Y005285D01*
X007630Y005075D01*
X007711Y004880D01*
X007860Y004731D01*
X008055Y004650D01*
X008265Y004650D01*
X008460Y004731D01*
X008609Y004880D01*
X008690Y005075D01*
X008690Y005285D01*
X008690Y005286D01*
X008700Y005295D01*
X008792Y005295D01*
X008889Y005199D01*
X009431Y005199D01*
X009537Y005304D01*
X009537Y005886D01*
X009479Y005944D01*
X009485Y005950D01*
X009506Y005986D01*
X009517Y006027D01*
X009517Y006226D01*
X009198Y006226D01*
X009198Y006303D01*
X009517Y006303D01*
X009517Y006224D02*
X013810Y006224D01*
X013812Y006105D02*
X009517Y006105D01*
X009506Y005987D02*
X013861Y005987D01*
X013930Y005868D02*
X009537Y005868D01*
X009537Y005750D02*
X013930Y005750D01*
X013930Y005631D02*
X009537Y005631D01*
X009537Y005513D02*
X013930Y005513D01*
X013930Y005394D02*
X009537Y005394D01*
X009508Y005276D02*
X013989Y005276D01*
X014108Y005157D02*
X008690Y005157D01*
X008690Y005276D02*
X008812Y005276D01*
X008675Y005039D02*
X014226Y005039D01*
X014444Y004920D02*
X008626Y004920D01*
X008531Y004802D02*
X014539Y004802D01*
X015281Y004802D02*
X015456Y004802D01*
X015430Y004683D02*
X015095Y004683D01*
X015430Y004565D02*
X000380Y004565D01*
X000380Y004683D02*
X003975Y004683D01*
X004055Y004650D02*
X004265Y004650D01*
X004460Y004731D01*
X004609Y004880D01*
X004638Y004950D01*
X004755Y004950D01*
X004890Y005085D01*
X005390Y005585D01*
X005390Y006165D01*
X005457Y006232D01*
X005510Y006360D01*
X005510Y006500D01*
X005457Y006628D01*
X005358Y006727D01*
X005230Y006780D01*
X005090Y006780D01*
X004962Y006727D01*
X004863Y006628D01*
X004810Y006500D01*
X004810Y006360D01*
X004863Y006232D01*
X004930Y006165D01*
X004930Y005775D01*
X004617Y005462D01*
X004609Y005480D01*
X004460Y005629D01*
X004338Y005680D01*
X004460Y005731D01*
X004609Y005880D01*
X004690Y006075D01*
X004690Y006285D01*
X004609Y006480D01*
X004460Y006629D01*
X004265Y006710D01*
X004055Y006710D01*
X003860Y006629D01*
X003711Y006480D01*
X003630Y006285D01*
X003630Y006075D01*
X003711Y005880D01*
X003860Y005731D01*
X003982Y005680D01*
X003860Y005629D01*
X003711Y005480D01*
X003630Y005285D01*
X003630Y005075D01*
X003711Y004880D01*
X003860Y004731D01*
X004055Y004650D01*
X004345Y004683D02*
X007975Y004683D01*
X008345Y004683D02*
X014725Y004683D01*
X015890Y004565D02*
X016087Y004565D01*
X016158Y004683D02*
X016168Y004683D01*
X016652Y004683D02*
X018168Y004683D01*
X018087Y004565D02*
X016733Y004565D01*
X016760Y004446D02*
X018060Y004446D01*
X018074Y004328D02*
X016746Y004328D01*
X016074Y004328D02*
X015890Y004328D01*
X015890Y004446D02*
X016060Y004446D01*
X015430Y004446D02*
X000380Y004446D01*
X000380Y004328D02*
X015430Y004328D01*
X015430Y004209D02*
X000380Y004209D01*
X000380Y004091D02*
X015430Y004091D01*
X015890Y004091D02*
X016180Y004091D01*
X016136Y004209D02*
X015890Y004209D01*
X016640Y004091D02*
X018315Y004091D01*
X018505Y004091D02*
X019054Y004091D01*
X019137Y004209D02*
X018684Y004209D01*
X018136Y004209D02*
X016684Y004209D01*
X016640Y003972D02*
X019020Y003972D01*
X019020Y003854D02*
X016640Y003854D01*
X016640Y003735D02*
X019069Y003735D01*
X019172Y003617D02*
X016640Y003617D01*
X016640Y003498D02*
X020860Y003498D01*
X020860Y003617D02*
X020648Y003617D01*
X020172Y003617D02*
X020148Y003617D01*
X019672Y003617D02*
X019648Y003617D01*
X020860Y003380D02*
X016640Y003380D01*
X016640Y003261D02*
X020860Y003261D01*
X020860Y003143D02*
X016692Y003143D01*
X016128Y003143D02*
X016010Y003143D01*
X016005Y003261D02*
X016180Y003261D01*
X016180Y003380D02*
X015955Y003380D01*
X015890Y003498D02*
X016180Y003498D01*
X016180Y003617D02*
X015890Y003617D01*
X015430Y003617D02*
X000380Y003617D01*
X000380Y003498D02*
X015430Y003498D01*
X015430Y003735D02*
X000380Y003735D01*
X000380Y003854D02*
X015430Y003854D01*
X015890Y003854D02*
X016180Y003854D01*
X016180Y003735D02*
X015890Y003735D01*
X015890Y003972D02*
X016180Y003972D01*
X015430Y003972D02*
X000380Y003972D01*
X000380Y004802D02*
X003789Y004802D01*
X003694Y004920D02*
X000380Y004920D01*
X000380Y005039D02*
X003645Y005039D01*
X003630Y005157D02*
X000380Y005157D01*
X000380Y005276D02*
X003630Y005276D01*
X003675Y005394D02*
X000380Y005394D01*
X000380Y005513D02*
X003743Y005513D01*
X003864Y005631D02*
X000380Y005631D01*
X000380Y005750D02*
X000556Y005750D01*
X000764Y005750D02*
X001321Y005750D01*
X001328Y005743D02*
X001992Y005743D01*
X002097Y005848D01*
X002097Y006512D01*
X001992Y006617D01*
X001328Y006617D01*
X001223Y006512D01*
X001223Y005848D01*
X001328Y005743D01*
X001223Y005868D02*
X000967Y005868D01*
X001053Y005987D02*
X001223Y005987D01*
X001223Y006105D02*
X001097Y006105D01*
X001097Y006224D02*
X001223Y006224D01*
X001223Y006342D02*
X001066Y006342D01*
X000998Y006461D02*
X001223Y006461D01*
X001289Y006579D02*
X000840Y006579D01*
X000480Y006579D02*
X000380Y006579D01*
X000380Y006698D02*
X004024Y006698D01*
X004296Y006698D02*
X004933Y006698D01*
X005387Y006698D02*
X010560Y006698D01*
X010588Y006816D02*
X000380Y006816D01*
X000380Y006935D02*
X010670Y006935D01*
X009198Y006579D02*
X009122Y006579D01*
X009122Y006461D02*
X009198Y006461D01*
X008835Y006579D02*
X008814Y006543D01*
X008803Y006502D01*
X008803Y006342D02*
X008644Y006342D01*
X008669Y006224D02*
X008803Y006224D01*
X008670Y006140D02*
X008670Y006140D01*
X008664Y006105D02*
X008803Y006105D01*
X008814Y005987D02*
X008633Y005987D01*
X007756Y005868D02*
X005390Y005868D01*
X005390Y005750D02*
X007885Y005750D01*
X007864Y005631D02*
X005390Y005631D01*
X005318Y005513D02*
X007743Y005513D01*
X007675Y005394D02*
X005199Y005394D01*
X004667Y005513D02*
X004577Y005513D01*
X004456Y005631D02*
X004786Y005631D01*
X004904Y005750D02*
X004479Y005750D01*
X004598Y005868D02*
X004930Y005868D01*
X004930Y005987D02*
X004654Y005987D01*
X004690Y006105D02*
X004930Y006105D01*
X005390Y006105D02*
X007656Y006105D01*
X007687Y005987D02*
X005390Y005987D01*
X005448Y006224D02*
X007651Y006224D01*
X007650Y006220D02*
X007650Y006220D01*
X007676Y006342D02*
X005502Y006342D01*
X004872Y006224D02*
X004690Y006224D01*
X004667Y006342D02*
X004818Y006342D01*
X004810Y006461D02*
X004617Y006461D01*
X004511Y006579D02*
X004843Y006579D01*
X005477Y006579D02*
X007842Y006579D01*
X007733Y006461D02*
X005510Y006461D01*
X003809Y006579D02*
X002031Y006579D01*
X002097Y006461D02*
X003703Y006461D01*
X003653Y006342D02*
X002097Y006342D01*
X002097Y006224D02*
X003630Y006224D01*
X003630Y006105D02*
X002097Y006105D01*
X002097Y005987D02*
X003666Y005987D01*
X003722Y005868D02*
X002097Y005868D01*
X001999Y005750D02*
X003841Y005750D01*
X005081Y005276D02*
X007630Y005276D01*
X007630Y005157D02*
X004962Y005157D01*
X004844Y005039D02*
X007645Y005039D01*
X007694Y004920D02*
X004626Y004920D01*
X004531Y004802D02*
X007789Y004802D01*
X015376Y004920D02*
X015560Y004920D01*
X015576Y005039D02*
X015425Y005039D01*
X015440Y005157D02*
X015642Y005157D01*
X015830Y005276D02*
X015440Y005276D01*
X015449Y005394D02*
X018180Y005394D01*
X018101Y005513D02*
X015568Y005513D01*
X015853Y005631D02*
X018060Y005631D01*
X018060Y005750D02*
X015964Y005750D01*
X016010Y005868D02*
X018109Y005868D01*
X018235Y005987D02*
X016010Y005987D01*
X015966Y006105D02*
X018406Y006105D01*
X018400Y006220D02*
X018400Y006220D01*
X018401Y006224D02*
X015861Y006224D01*
X015459Y006224D02*
X015440Y006224D01*
X015417Y006342D02*
X018426Y006342D01*
X018870Y006342D02*
X018950Y006342D01*
X018950Y006224D02*
X018870Y006224D01*
X019394Y006342D02*
X019553Y006342D01*
X019553Y006224D02*
X019419Y006224D01*
X019420Y006140D02*
X019420Y006140D01*
X019414Y006105D02*
X019553Y006105D01*
X019564Y005987D02*
X019383Y005987D01*
X020256Y005987D02*
X020430Y005987D01*
X020510Y006105D02*
X020267Y006105D01*
X020267Y006224D02*
X020628Y006224D01*
X020747Y006342D02*
X020267Y006342D01*
X020267Y006303D02*
X020267Y006502D01*
X020256Y006543D01*
X020235Y006579D01*
X020984Y006579D01*
X020865Y006461D02*
X020267Y006461D01*
X020235Y006579D02*
X020205Y006609D01*
X020169Y006630D01*
X020128Y006641D01*
X019948Y006641D01*
X019948Y006303D01*
X020267Y006303D01*
X019948Y006342D02*
X019872Y006342D01*
X019872Y006461D02*
X019948Y006461D01*
X019948Y006579D02*
X019872Y006579D01*
X019585Y006579D02*
X019564Y006543D01*
X019553Y006502D01*
X018950Y006461D02*
X018870Y006461D01*
X018870Y006579D02*
X018950Y006579D01*
X018592Y006579D02*
X015261Y006579D01*
X015367Y006461D02*
X018483Y006461D01*
X020287Y005868D02*
X020430Y005868D01*
X020430Y005750D02*
X020287Y005750D01*
X020287Y005631D02*
X020366Y005631D01*
X018180Y005276D02*
X015990Y005276D01*
X016178Y005157D02*
X018180Y005157D01*
X018180Y005039D02*
X016244Y005039D01*
X016260Y004920D02*
X018180Y004920D01*
X018180Y004802D02*
X016236Y004802D01*
X019425Y005039D02*
X027826Y005039D01*
X027810Y004920D02*
X022844Y004920D01*
X022963Y004802D02*
X026538Y004802D01*
X026782Y004802D02*
X027038Y004802D01*
X027282Y004802D02*
X027538Y004802D01*
X027782Y004802D02*
X027834Y004802D01*
X028510Y004920D02*
X028944Y004920D01*
X028895Y005039D02*
X028494Y005039D01*
X028428Y005157D02*
X028880Y005157D01*
X028880Y005276D02*
X028240Y005276D01*
X009198Y006342D02*
X009122Y006342D01*
X008200Y006342D02*
X008120Y006342D01*
X008120Y006224D02*
X008200Y006224D01*
X008200Y006461D02*
X008120Y006461D01*
X008120Y006579D02*
X008200Y006579D01*
X044713Y001247D02*
X045069Y001247D01*
X045695Y000417D02*
X040736Y000417D01*
D17*
X040910Y000930D03*
X040910Y001430D03*
X040910Y001930D03*
X039160Y002430D03*
X039160Y002930D03*
X038660Y002930D03*
X036660Y002680D03*
X034910Y002930D03*
X034410Y002930D03*
X032410Y003180D03*
X030660Y002930D03*
X030160Y002930D03*
X028160Y002930D03*
X024410Y002430D03*
X023910Y002430D03*
X021910Y002680D03*
X023660Y002930D03*
X023910Y003430D03*
X024410Y003430D03*
X022160Y004180D03*
X020160Y004430D03*
X018410Y004430D03*
X016410Y004430D03*
X015910Y004930D03*
X016410Y005430D03*
X018410Y005680D03*
X020660Y005430D03*
X024160Y005930D03*
X025660Y005930D03*
X026410Y005930D03*
X022010Y006330D03*
X017910Y006430D03*
X015660Y005930D03*
X014160Y006180D03*
X010910Y006680D03*
X005160Y006430D03*
X015660Y003180D03*
X016410Y002930D03*
X019910Y002680D03*
X023910Y001930D03*
X024410Y001930D03*
X024410Y001430D03*
X023910Y001430D03*
X026410Y000930D03*
X026910Y000930D03*
X027410Y001180D03*
X027910Y001430D03*
X031160Y001430D03*
X032410Y001930D03*
X035410Y001680D03*
X044410Y001430D03*
X044410Y000930D03*
X044410Y001930D03*
X036660Y003180D03*
X039160Y003430D03*
X041160Y003430D03*
X041910Y003430D03*
X042660Y003430D03*
X043410Y003430D03*
X044160Y003430D03*
X044660Y003930D03*
X039410Y003930D03*
X035410Y004180D03*
X031160Y004180D03*
X028160Y004930D03*
X012410Y002930D03*
X006910Y002430D03*
X006410Y002430D03*
X006410Y001930D03*
X006910Y001930D03*
X004910Y001930D03*
X004910Y001430D03*
X006410Y001430D03*
X006910Y001430D03*
X004910Y000930D03*
D18*
X019410Y003930D03*
X019910Y003930D03*
X020410Y003930D03*
X026660Y004430D03*
X027160Y004430D03*
X027660Y004430D03*
D19*
X027160Y004430D01*
X022910Y004430D01*
X022660Y004680D01*
X021910Y004680D01*
X021160Y003930D01*
X020410Y003930D01*
X019910Y003930D01*
X019410Y003930D01*
X021160Y003930D02*
X021160Y002930D01*
X021410Y002680D01*
X021910Y002680D01*
X019325Y005595D02*
X018910Y005180D01*
X019325Y005595D02*
X019910Y005595D01*
X009160Y005595D02*
X008575Y005595D01*
X008160Y005180D01*
X033410Y005180D02*
X033825Y005595D01*
X034410Y005595D01*
X044160Y005180D02*
X044575Y005595D01*
X045160Y005595D01*
D20*
X040410Y003930D02*
X039660Y004680D01*
X028410Y004680D01*
X028160Y004930D01*
X028160Y004180D02*
X031160Y004180D01*
X031660Y003680D02*
X032160Y004180D01*
X035410Y004180D01*
X035910Y003680D02*
X036160Y003930D01*
X039410Y003930D01*
X040410Y003930D02*
X044660Y003930D01*
X035910Y003680D02*
X032160Y003680D01*
X031910Y003430D01*
X030660Y003430D01*
X030410Y003680D01*
X028660Y003680D01*
X028410Y003430D01*
X025660Y003430D01*
X025160Y002930D01*
X024410Y002930D01*
X023910Y003430D01*
X024410Y003430D02*
X024660Y003680D01*
X028160Y003680D01*
X028410Y003930D01*
X030660Y003930D01*
X030910Y003680D01*
X031660Y003680D01*
X028160Y004180D02*
X027910Y003930D01*
X022910Y003930D01*
X022660Y004180D01*
X022160Y004180D01*
X018410Y004430D02*
X018410Y005680D01*
X020660Y005430D02*
X020660Y005930D01*
X021410Y006680D01*
X024160Y006680D01*
X024910Y005930D01*
X025410Y006930D02*
X026410Y005930D01*
X025410Y006930D02*
X013660Y006930D01*
X013410Y006680D01*
X010910Y006680D01*
X014160Y006180D02*
X014160Y005430D01*
X014410Y005180D01*
X014910Y005180D01*
X015660Y005930D01*
X015910Y004930D02*
X015660Y004680D01*
X015660Y003180D01*
X015660Y002643D01*
X016123Y002180D01*
X016410Y002930D02*
X016410Y004430D01*
X005160Y005680D02*
X004660Y005180D01*
X004160Y005180D01*
X005160Y005680D02*
X005160Y006430D01*
M02*
