%
M48
M72
T01C0.0180
T02C0.0315
T03C0.0400
T04C0.0460
T05C0.1290
%
T01
X4910Y930
X4910Y1430
X6410Y1430
X6910Y1430
X6910Y1930
X6410Y1930
X4910Y1930
X6410Y2430
X6910Y2430
X12410Y2930
X15660Y3180
X16410Y2930
X19910Y2680
X21910Y2680
X23660Y2930
X23910Y2430
X24410Y2430
X24410Y1930
X23910Y1930
X23910Y1430
X24410Y1430
X26410Y930
X26910Y930
X27410Y1180
X27910Y1430
X31160Y1430
X32410Y1930
X35410Y1680
X39160Y2430
X39160Y2930
X38660Y2930
X36660Y2680
X34910Y2930
X34410Y2930
X32410Y3180
X30660Y2930
X30160Y2930
X28160Y2930
X24410Y3430
X23910Y3430
X20410Y3930
X19910Y3930
X19410Y3930
X22160Y4180
X20160Y4430
X18410Y4430
X16410Y4430
X15910Y4930
X16410Y5430
X18410Y5680
X20660Y5430
X24160Y5930
X25660Y5930
X26410Y5930
X22010Y6330
X17910Y6430
X15660Y5930
X14160Y6180
X10910Y6680
X5160Y6430
X26660Y4430
X27160Y4430
X27660Y4430
X28160Y4930
X31160Y4180
X35410Y4180
X39410Y3930
X39160Y3430
X41160Y3430
X41910Y3430
X42660Y3430
X43410Y3430
X44160Y3430
X44660Y3930
X36660Y3180
X40910Y1930
X40910Y1430
X40910Y930
X44410Y930
X44410Y1430
X44410Y1930
T02
X19272Y2180
X18485Y2180
X17697Y2180
X16910Y2180
X16123Y2180
X15335Y2180
X14548Y2180
X1660Y6180
X660Y6180
X46660Y6180
X47660Y6180
T03
X44160Y6180
X40160Y6180
X40160Y5180
X44160Y5180
X33410Y5180
X29410Y5180
X29410Y6180
X33410Y6180
X18910Y6180
X14910Y6180
X14910Y5180
X18910Y5180
X8160Y5180
X4160Y5180
X4160Y6180
X8160Y6180
T04
X23410Y5930
X24910Y5930
T05
X46660Y1800
X1660Y1800
M30
