G75*
G70*
%OFA0B0*%
%FSLAX24Y24*%
%IPPOS*%
%LPD*%
%AMOC8*
5,1,8,0,0,1.08239X$1,22.5*
%
%ADD10C,0.0070*%
%ADD11C,0.0080*%
%ADD12C,0.0120*%
D10*
X010715Y001865D02*
X010770Y001865D01*
X010770Y001920D01*
X010715Y001920D01*
X010715Y001865D01*
X010918Y002085D02*
X011028Y001865D01*
X011138Y002085D01*
X011286Y002030D02*
X011342Y002085D01*
X011452Y002085D01*
X011507Y002030D01*
X011507Y001920D01*
X011452Y001865D01*
X011342Y001865D01*
X011655Y001865D02*
X011765Y001975D01*
X011710Y001975D02*
X011875Y001975D01*
X011710Y001975D02*
X011655Y002030D01*
X011655Y002140D01*
X011710Y002195D01*
X011875Y002195D01*
X011875Y001865D01*
X011507Y001975D02*
X011286Y001975D01*
X011286Y002030D01*
X013760Y001786D02*
X020060Y001786D01*
X020060Y003755D01*
X013760Y003755D01*
X013760Y001786D01*
X013796Y001638D02*
X013796Y001308D01*
X013906Y001308D02*
X013686Y001308D01*
X014109Y001363D02*
X014109Y001638D01*
X014054Y001638D02*
X014165Y001638D01*
X013906Y001528D02*
X013796Y001638D01*
X014109Y001363D02*
X014165Y001308D01*
X014220Y001308D01*
X014275Y001363D01*
X014193Y001944D02*
X013918Y001944D01*
X013918Y003597D01*
X019902Y003597D01*
X019902Y001944D01*
X019508Y001944D01*
X011875Y002615D02*
X011875Y003145D01*
X011610Y003145D01*
X011521Y003057D01*
X011521Y002880D01*
X011610Y002792D01*
X011875Y002792D01*
X011323Y002703D02*
X011234Y002615D01*
X011057Y002615D01*
X010969Y002703D01*
X011323Y002703D02*
X011323Y003057D01*
X011234Y003145D01*
X011057Y003145D01*
X010969Y003057D01*
X010218Y003057D02*
X010129Y003145D01*
X009952Y003145D01*
X009864Y003057D01*
X010218Y002703D01*
X010129Y002615D01*
X009952Y002615D01*
X009864Y002703D01*
X009864Y003057D01*
X009665Y003145D02*
X009311Y003145D01*
X009311Y003057D01*
X009665Y002703D01*
X009665Y002615D01*
X010218Y002703D02*
X010218Y003057D01*
X010416Y002880D02*
X010770Y002880D01*
X009970Y005215D02*
X009750Y005215D01*
X009695Y005270D01*
X009695Y005380D01*
X009750Y005435D01*
X009970Y005435D02*
X010025Y005380D01*
X010025Y005270D01*
X009970Y005215D01*
X009480Y005270D02*
X009480Y006590D01*
X008840Y006590D01*
X008840Y005270D01*
X009480Y005270D01*
X009695Y005583D02*
X009695Y005804D01*
X009695Y005693D02*
X010025Y005693D01*
X009915Y005583D01*
X019590Y005270D02*
X020230Y005270D01*
X020230Y006590D01*
X019590Y006590D01*
X019590Y005270D01*
X020495Y006070D02*
X020550Y006015D01*
X020770Y006015D01*
X020825Y006070D01*
X020825Y006180D01*
X020770Y006235D01*
X020550Y006235D02*
X020495Y006180D01*
X020495Y006070D01*
X020495Y006383D02*
X020715Y006604D01*
X020770Y006604D01*
X020825Y006548D01*
X020825Y006438D01*
X020770Y006383D01*
X020495Y006383D02*
X020495Y006604D01*
X034090Y006590D02*
X034090Y005270D01*
X034730Y005270D01*
X034730Y006590D01*
X034090Y006590D01*
X034995Y005748D02*
X034995Y005638D01*
X035050Y005583D01*
X035270Y005583D02*
X035325Y005638D01*
X035325Y005748D01*
X035270Y005804D01*
X035215Y005804D01*
X035160Y005748D01*
X035160Y005693D01*
X035160Y005748D02*
X035105Y005804D01*
X035050Y005804D01*
X034995Y005748D01*
X035050Y005435D02*
X034995Y005380D01*
X034995Y005270D01*
X035050Y005215D01*
X035270Y005215D01*
X035325Y005270D01*
X035325Y005380D01*
X035270Y005435D01*
X044840Y005270D02*
X045480Y005270D01*
X045480Y006590D01*
X044840Y006590D01*
X044840Y005270D01*
X045695Y005270D02*
X045695Y005380D01*
X045750Y005435D01*
X045970Y005435D02*
X046025Y005380D01*
X046025Y005270D01*
X045970Y005215D01*
X045750Y005215D01*
X045695Y005270D01*
X045860Y005583D02*
X045860Y005804D01*
X045695Y005748D02*
X046025Y005748D01*
X045860Y005583D01*
X038320Y003000D02*
X037000Y003000D01*
X037000Y002360D01*
X038320Y002360D01*
X038320Y003000D01*
X034070Y002250D02*
X032750Y002250D01*
X032750Y001610D01*
X034070Y001610D01*
X034070Y002250D01*
X037093Y001855D02*
X037313Y001855D01*
X037203Y001855D02*
X037203Y002185D01*
X037313Y002075D01*
X037572Y002185D02*
X037682Y002075D01*
X037572Y002185D02*
X037572Y001855D01*
X037682Y001855D02*
X037461Y001855D01*
X037830Y001910D02*
X037885Y001855D01*
X037995Y001855D01*
X038050Y001910D01*
X038050Y002130D01*
X037995Y002185D01*
X037885Y002185D01*
X037830Y002130D01*
X033800Y001380D02*
X033800Y001160D01*
X033745Y001105D01*
X033635Y001105D01*
X033580Y001160D01*
X033432Y001105D02*
X033211Y001105D01*
X033322Y001105D02*
X033322Y001435D01*
X033432Y001325D01*
X033580Y001380D02*
X033635Y001435D01*
X033745Y001435D01*
X033800Y001380D01*
X033063Y001380D02*
X033008Y001435D01*
X032898Y001435D01*
X032843Y001380D01*
X032843Y001325D01*
X033063Y001105D01*
X032843Y001105D01*
X029570Y001110D02*
X029570Y001750D01*
X028250Y001750D01*
X028250Y001110D01*
X029570Y001110D01*
X029300Y000880D02*
X029245Y000935D01*
X029135Y000935D01*
X029080Y000880D01*
X028932Y000825D02*
X028822Y000935D01*
X028822Y000605D01*
X028932Y000605D02*
X028711Y000605D01*
X028563Y000660D02*
X028508Y000605D01*
X028398Y000605D01*
X028343Y000660D01*
X028343Y000715D01*
X028398Y000770D01*
X028453Y000770D01*
X028398Y000770D02*
X028343Y000825D01*
X028343Y000880D01*
X028398Y000935D01*
X028508Y000935D01*
X028563Y000880D01*
X029300Y000880D02*
X029300Y000660D01*
X029245Y000605D01*
X029135Y000605D01*
X029080Y000660D01*
D11*
X010160Y001870D02*
X010090Y001940D01*
X010160Y001870D02*
X010300Y001870D01*
X010370Y001940D01*
X010370Y002220D01*
X010300Y002290D01*
X010160Y002290D01*
X010090Y002220D01*
D12*
X010034Y003490D02*
X009744Y003490D01*
X009487Y003490D02*
X009487Y004070D01*
X009744Y003877D02*
X010034Y003877D01*
X010131Y003780D01*
X010131Y003587D01*
X010034Y003490D01*
X010389Y003587D02*
X010389Y003780D01*
X010486Y003877D01*
X010679Y003877D01*
X010776Y003780D01*
X010776Y003587D01*
X010679Y003490D01*
X010486Y003490D01*
X010389Y003587D01*
X011012Y003490D02*
X011205Y003490D01*
X011109Y003490D02*
X011109Y004070D01*
X011205Y004070D01*
X011463Y003974D02*
X011560Y004070D01*
X011753Y004070D01*
X011850Y003974D01*
X011850Y003587D01*
X011753Y003490D01*
X011560Y003490D01*
X011463Y003587D01*
X009487Y003683D02*
X009196Y003877D01*
X009487Y003683D02*
X009196Y003490D01*
M02*
