G75*
G70*
%OFA0B0*%
%FSLAX24Y24*%
%IPPOS*%
%LPD*%
%AMOC8*
5,1,8,0,0,1.08239X$1,22.5*
%
%ADD10C,0.0600*%
%ADD11R,0.0515X0.0515*%
%ADD12C,0.0515*%
%ADD13C,0.0120*%
%ADD14C,0.0340*%
%ADD15C,0.0160*%
%ADD16C,0.0100*%
D10*
X003160Y005660D03*
X004160Y005660D03*
X008160Y005660D03*
X009160Y005660D03*
X013910Y005660D03*
X014910Y005660D03*
X018910Y005660D03*
X019910Y005660D03*
X023410Y006160D03*
X024910Y006160D03*
X028410Y005660D03*
X029410Y005660D03*
X033410Y005660D03*
X034410Y005660D03*
X039160Y005660D03*
X040160Y005660D03*
X044160Y005660D03*
X045160Y005660D03*
D11*
X046660Y005410D03*
X014548Y002160D03*
D12*
X015335Y002160D03*
X016123Y002160D03*
X016910Y002160D03*
X017697Y002160D03*
X018485Y002160D03*
X019272Y002160D03*
X047660Y005410D03*
D13*
X002716Y000404D02*
X002675Y000380D01*
X019888Y000380D01*
X019829Y000439D01*
X019770Y000582D01*
X019770Y000738D01*
X019791Y000787D01*
X019689Y000829D01*
X019579Y000939D01*
X019520Y001082D01*
X019520Y001238D01*
X019579Y001381D01*
X019689Y001491D01*
X019791Y001533D01*
X019770Y001582D01*
X003380Y001582D01*
X003380Y001554D02*
X003380Y002006D01*
X003263Y002444D01*
X003036Y002836D01*
X002716Y003156D01*
X002324Y003383D01*
X001886Y003500D01*
X001434Y003500D01*
X000996Y003383D01*
X000604Y003156D01*
X000380Y002932D01*
X000380Y006940D01*
X047940Y006940D01*
X047940Y005805D01*
X047930Y005815D01*
X047755Y005887D01*
X047565Y005887D01*
X047390Y005815D01*
X047255Y005680D01*
X047183Y005505D01*
X047183Y005315D01*
X047255Y005140D01*
X047390Y005005D01*
X047565Y004933D01*
X047755Y004933D01*
X047930Y005005D01*
X047940Y005015D01*
X047940Y002932D01*
X047716Y003156D01*
X047324Y003383D01*
X046886Y003500D01*
X046434Y003500D01*
X045996Y003383D01*
X045604Y003156D01*
X045284Y002836D01*
X045057Y002444D01*
X044940Y002006D01*
X044940Y001682D01*
X044881Y001741D01*
X044779Y001783D01*
X044800Y001832D01*
X044800Y001988D01*
X044741Y002131D01*
X044631Y002241D01*
X044488Y002300D01*
X044332Y002300D01*
X044189Y002241D01*
X044158Y002210D01*
X042600Y002210D01*
X042490Y002164D01*
X042406Y002080D01*
X042036Y001710D01*
X031284Y001710D01*
X030830Y002164D01*
X030720Y002210D01*
X027662Y002210D01*
X027631Y002241D01*
X027488Y002300D01*
X027332Y002300D01*
X027189Y002241D01*
X027158Y002210D01*
X025850Y002210D01*
X025740Y002164D01*
X025656Y002080D01*
X025286Y001710D01*
X022034Y001710D01*
X021830Y001914D01*
X021720Y001960D01*
X020412Y001960D01*
X020381Y001991D01*
X020238Y002050D01*
X020082Y002050D01*
X019939Y001991D01*
X019829Y001881D01*
X019770Y001738D01*
X019770Y001582D01*
X019543Y001755D02*
X019367Y001683D01*
X019177Y001683D01*
X019002Y001755D01*
X018879Y001878D01*
X018755Y001755D01*
X018580Y001683D01*
X018390Y001683D01*
X018214Y001755D01*
X018091Y001878D01*
X017968Y001755D01*
X017792Y001683D01*
X017602Y001683D01*
X017427Y001755D01*
X017293Y001890D01*
X017269Y001946D01*
X017267Y001941D01*
X017228Y001888D01*
X017182Y001842D01*
X017129Y001803D01*
X017070Y001773D01*
X017008Y001753D01*
X016943Y001743D01*
X016929Y001743D01*
X016929Y002141D01*
X016891Y002141D01*
X016891Y001743D01*
X016877Y001743D01*
X016812Y001753D01*
X016750Y001773D01*
X016691Y001803D01*
X016638Y001842D01*
X016592Y001888D01*
X016553Y001941D01*
X016551Y001946D01*
X016527Y001890D01*
X016393Y001755D01*
X016218Y001683D01*
X016028Y001683D01*
X015852Y001755D01*
X015729Y001878D01*
X015606Y001755D01*
X015430Y001683D01*
X015240Y001683D01*
X015065Y001755D01*
X015017Y001803D01*
X014896Y001683D01*
X014199Y001683D01*
X014070Y001811D01*
X014070Y002509D01*
X014199Y002637D01*
X014896Y002637D01*
X015017Y002517D01*
X015065Y002565D01*
X015240Y002637D01*
X015263Y002637D01*
X015181Y002720D01*
X015140Y002819D01*
X015140Y002878D01*
X015079Y002939D01*
X015020Y003082D01*
X015020Y003238D01*
X015079Y003381D01*
X015140Y003442D01*
X015140Y004628D01*
X015079Y004689D01*
X015020Y004832D01*
X015020Y004988D01*
X015079Y005131D01*
X015142Y005193D01*
X015013Y005140D01*
X014807Y005140D01*
X014615Y005219D01*
X014469Y005365D01*
X014410Y005508D01*
X014351Y005365D01*
X014205Y005219D01*
X014013Y005140D01*
X013807Y005140D01*
X013615Y005219D01*
X013469Y005365D01*
X013390Y005557D01*
X013390Y005763D01*
X013469Y005955D01*
X013615Y006101D01*
X013807Y006180D01*
X014013Y006180D01*
X014020Y006177D01*
X014020Y006238D01*
X014079Y006381D01*
X014189Y006491D01*
X014332Y006550D01*
X014418Y006550D01*
X014507Y006639D01*
X014606Y006680D01*
X015128Y006680D01*
X015189Y006741D01*
X015332Y006800D01*
X015488Y006800D01*
X015631Y006741D01*
X015741Y006631D01*
X015800Y006488D01*
X015800Y006332D01*
X015741Y006189D01*
X015631Y006079D01*
X015488Y006020D01*
X015332Y006020D01*
X015252Y006053D01*
X015351Y005955D01*
X015361Y005930D01*
X015464Y005930D01*
X015563Y005889D01*
X016139Y005313D01*
X016180Y005214D01*
X016180Y003442D01*
X016241Y003381D01*
X016300Y003238D01*
X016300Y003082D01*
X016241Y002939D01*
X016131Y002829D01*
X015988Y002770D01*
X015894Y002770D01*
X016027Y002637D01*
X016028Y002637D01*
X016218Y002637D01*
X016393Y002565D01*
X016527Y002430D01*
X016551Y002374D01*
X016553Y002379D01*
X016592Y002432D01*
X016638Y002478D01*
X016691Y002517D01*
X016750Y002547D01*
X016812Y002567D01*
X016877Y002577D01*
X016891Y002577D01*
X016891Y002179D01*
X016929Y002179D01*
X016929Y002577D01*
X016943Y002577D01*
X017008Y002567D01*
X017070Y002547D01*
X017129Y002517D01*
X017182Y002478D01*
X017228Y002432D01*
X017267Y002379D01*
X017269Y002374D01*
X017293Y002430D01*
X017427Y002565D01*
X017602Y002637D01*
X017792Y002637D01*
X017968Y002565D01*
X018091Y002442D01*
X018214Y002565D01*
X018390Y002637D01*
X018580Y002637D01*
X018755Y002565D01*
X018879Y002442D01*
X019002Y002565D01*
X019177Y002637D01*
X019367Y002637D01*
X019543Y002565D01*
X019677Y002430D01*
X019750Y002255D01*
X019750Y002065D01*
X019677Y001890D01*
X019543Y001755D01*
X019606Y001819D02*
X019804Y001819D01*
X019770Y001701D02*
X019411Y001701D01*
X019134Y001701D02*
X018623Y001701D01*
X018819Y001819D02*
X018938Y001819D01*
X018346Y001701D02*
X017836Y001701D01*
X018032Y001819D02*
X018151Y001819D01*
X017559Y001701D02*
X016261Y001701D01*
X016457Y001819D02*
X016669Y001819D01*
X016891Y001819D02*
X016929Y001819D01*
X017151Y001819D02*
X017363Y001819D01*
X017273Y001938D02*
X017264Y001938D01*
X016929Y001938D02*
X016891Y001938D01*
X016556Y001938D02*
X016547Y001938D01*
X016891Y002056D02*
X016929Y002056D01*
X016929Y002293D02*
X016891Y002293D01*
X016891Y002412D02*
X016929Y002412D01*
X017243Y002412D02*
X017285Y002412D01*
X016577Y002412D02*
X016535Y002412D01*
X016428Y002530D02*
X016717Y002530D01*
X016891Y002530D02*
X016929Y002530D01*
X017103Y002530D02*
X017392Y002530D01*
X018003Y002530D02*
X018180Y002530D01*
X018790Y002530D02*
X018967Y002530D01*
X019577Y002530D02*
X020542Y002530D01*
X020520Y002582D02*
X020579Y002439D01*
X020689Y002329D01*
X020832Y002270D01*
X020988Y002270D01*
X021131Y002329D01*
X021241Y002439D01*
X021300Y002582D01*
X021300Y002738D01*
X021241Y002881D01*
X021210Y002912D01*
X021210Y004158D01*
X021241Y004189D01*
X021300Y004332D01*
X021300Y004376D01*
X021770Y004846D01*
X021770Y004832D01*
X021829Y004689D01*
X021939Y004579D01*
X022082Y004520D01*
X022238Y004520D01*
X022381Y004579D01*
X022491Y004689D01*
X022550Y004832D01*
X022550Y004890D01*
X023338Y004890D01*
X023329Y004881D01*
X023270Y004738D01*
X023270Y004582D01*
X023329Y004439D01*
X023439Y004329D01*
X023582Y004270D01*
X023668Y004270D01*
X024007Y003931D01*
X024106Y003890D01*
X025048Y003890D01*
X025507Y003431D01*
X025606Y003390D01*
X027378Y003390D01*
X027439Y003329D01*
X027582Y003270D01*
X027738Y003270D01*
X027881Y003329D01*
X027991Y003439D01*
X028050Y003582D01*
X028050Y003738D01*
X027991Y003881D01*
X027982Y003890D01*
X030878Y003890D01*
X030939Y003829D01*
X031082Y003770D01*
X031238Y003770D01*
X031381Y003829D01*
X031491Y003939D01*
X031550Y004082D01*
X031550Y004238D01*
X031491Y004381D01*
X031482Y004390D01*
X033298Y004390D01*
X033520Y004168D01*
X033520Y004082D01*
X033579Y003939D01*
X033689Y003829D01*
X033832Y003770D01*
X033988Y003770D01*
X034131Y003829D01*
X034241Y003939D01*
X034300Y004082D01*
X034300Y004140D01*
X038628Y004140D01*
X038689Y004079D01*
X038832Y004020D01*
X038988Y004020D01*
X039131Y004079D01*
X039241Y004189D01*
X039300Y004332D01*
X039300Y004488D01*
X039241Y004631D01*
X039131Y004741D01*
X038988Y004800D01*
X038832Y004800D01*
X038689Y004741D01*
X038628Y004680D01*
X034272Y004680D01*
X033719Y005233D01*
X033851Y005365D01*
X033930Y005557D01*
X033930Y005763D01*
X033851Y005955D01*
X033705Y006101D01*
X033513Y006180D01*
X033307Y006180D01*
X033115Y006101D01*
X032969Y005955D01*
X032890Y005763D01*
X032890Y005557D01*
X032942Y005430D01*
X029878Y005430D01*
X029930Y005557D01*
X029930Y005763D01*
X029851Y005955D01*
X029705Y006101D01*
X029513Y006180D01*
X029307Y006180D01*
X029115Y006101D01*
X028969Y005955D01*
X028910Y005812D01*
X028851Y005955D01*
X028705Y006101D01*
X028513Y006180D01*
X028307Y006180D01*
X028115Y006101D01*
X027969Y005955D01*
X027890Y005763D01*
X027890Y005557D01*
X027942Y005430D01*
X026272Y005430D01*
X025889Y005813D01*
X025813Y005889D01*
X025714Y005930D01*
X025378Y005930D01*
X025430Y006057D01*
X025430Y006263D01*
X025351Y006455D01*
X025205Y006601D01*
X025013Y006680D01*
X024807Y006680D01*
X024615Y006601D01*
X024469Y006455D01*
X024390Y006263D01*
X024390Y006232D01*
X024381Y006241D01*
X024238Y006300D01*
X024082Y006300D01*
X023939Y006241D01*
X023930Y006232D01*
X023930Y006263D01*
X023851Y006455D01*
X023705Y006601D01*
X023513Y006680D01*
X023307Y006680D01*
X023115Y006601D01*
X022969Y006455D01*
X022890Y006263D01*
X022890Y006057D01*
X022969Y005865D01*
X023110Y005725D01*
X023110Y005710D01*
X021850Y005710D01*
X021740Y005664D01*
X021656Y005580D01*
X020876Y004800D01*
X020832Y004800D01*
X020689Y004741D01*
X020660Y004712D01*
X020631Y004741D01*
X020488Y004800D01*
X020332Y004800D01*
X020189Y004741D01*
X020079Y004631D01*
X020020Y004488D01*
X020020Y004332D01*
X020079Y004189D01*
X020189Y004079D01*
X020332Y004020D01*
X020488Y004020D01*
X020610Y004071D01*
X020610Y002912D01*
X020579Y002881D01*
X020520Y002738D01*
X020520Y002582D01*
X020520Y002649D02*
X016016Y002649D01*
X015897Y002767D02*
X020532Y002767D01*
X020584Y002886D02*
X016187Y002886D01*
X016268Y003004D02*
X020610Y003004D01*
X020610Y003123D02*
X016300Y003123D01*
X016299Y003241D02*
X020610Y003241D01*
X020610Y003360D02*
X016249Y003360D01*
X016180Y003478D02*
X020610Y003478D01*
X021210Y003478D02*
X025460Y003478D01*
X025342Y003597D02*
X021210Y003597D01*
X021210Y003715D02*
X025223Y003715D01*
X025105Y003834D02*
X021210Y003834D01*
X021210Y003952D02*
X023986Y003952D01*
X023868Y004071D02*
X021210Y004071D01*
X020610Y004071D02*
X020610Y004071D01*
X020210Y004071D02*
X018110Y004071D01*
X018131Y004079D02*
X018241Y004189D01*
X018300Y004332D01*
X018300Y004488D01*
X018241Y004631D01*
X018180Y004692D01*
X018180Y005628D01*
X018241Y005689D01*
X018300Y005832D01*
X018300Y005988D01*
X018241Y006131D01*
X018131Y006241D01*
X017988Y006300D01*
X017832Y006300D01*
X017689Y006241D01*
X017579Y006131D01*
X017520Y005988D01*
X017520Y005832D01*
X017579Y005689D01*
X017640Y005628D01*
X017640Y004692D01*
X017579Y004631D01*
X017520Y004488D01*
X017520Y004332D01*
X017579Y004189D01*
X017689Y004079D01*
X017832Y004020D01*
X017988Y004020D01*
X018131Y004079D01*
X017710Y004071D02*
X016180Y004071D01*
X016180Y004189D02*
X017579Y004189D01*
X017530Y004308D02*
X016180Y004308D01*
X016180Y004426D02*
X017520Y004426D01*
X018300Y004426D02*
X020020Y004426D01*
X020030Y004308D02*
X018290Y004308D01*
X018241Y004189D02*
X020079Y004189D01*
X021241Y004189D02*
X023749Y004189D01*
X023492Y004308D02*
X021290Y004308D01*
X021350Y004426D02*
X023342Y004426D01*
X023286Y004545D02*
X022297Y004545D01*
X022465Y004663D02*
X023270Y004663D01*
X023288Y004782D02*
X022529Y004782D01*
X021791Y004782D02*
X021706Y004782D01*
X020976Y004900D02*
X018180Y004900D01*
X018180Y004782D02*
X020288Y004782D01*
X020532Y004782D02*
X020788Y004782D01*
X020111Y004663D02*
X018209Y004663D01*
X018276Y004545D02*
X020044Y004545D01*
X021469Y004545D02*
X022023Y004545D01*
X021855Y004663D02*
X021587Y004663D01*
X021094Y005019D02*
X018180Y005019D01*
X017640Y005019D02*
X016180Y005019D01*
X016180Y005137D02*
X017640Y005137D01*
X017640Y005256D02*
X016163Y005256D01*
X016078Y005374D02*
X017640Y005374D01*
X018180Y005374D02*
X018466Y005374D01*
X018469Y005365D02*
X018615Y005219D01*
X018807Y005140D01*
X019013Y005140D01*
X019205Y005219D01*
X019351Y005365D01*
X019430Y005557D01*
X019430Y005763D01*
X019351Y005955D01*
X019205Y006101D01*
X019013Y006180D01*
X018807Y006180D01*
X018615Y006101D01*
X018469Y005955D01*
X018390Y005763D01*
X018390Y005557D01*
X018469Y005365D01*
X018417Y005493D02*
X018180Y005493D01*
X018180Y005611D02*
X018390Y005611D01*
X018390Y005730D02*
X018257Y005730D01*
X018300Y005848D02*
X018425Y005848D01*
X018481Y005967D02*
X018300Y005967D01*
X017520Y005967D02*
X015339Y005967D01*
X015604Y005848D02*
X017520Y005848D01*
X017563Y005730D02*
X015722Y005730D01*
X015841Y005611D02*
X017640Y005611D01*
X017640Y005493D02*
X015959Y005493D01*
X014579Y005256D02*
X014241Y005256D01*
X013579Y005256D02*
X009379Y005256D01*
X009401Y005267D02*
X009460Y005309D01*
X009511Y005360D01*
X009553Y005419D01*
X009586Y005483D01*
X009609Y005552D01*
X009619Y005620D01*
X009200Y005620D01*
X009200Y005700D01*
X009619Y005700D01*
X009609Y005768D01*
X009586Y005837D01*
X009553Y005901D01*
X009511Y005960D01*
X009460Y006011D01*
X009401Y006053D01*
X009337Y006086D01*
X009268Y006109D01*
X009200Y006119D01*
X009200Y005700D01*
X009120Y005700D01*
X009120Y006119D01*
X009052Y006109D01*
X008983Y006086D01*
X008919Y006053D01*
X008860Y006011D01*
X008809Y005960D01*
X008767Y005901D01*
X008734Y005837D01*
X008711Y005768D01*
X008701Y005700D01*
X009120Y005700D01*
X009120Y005620D01*
X009200Y005620D01*
X009200Y005201D01*
X009268Y005211D01*
X009337Y005234D01*
X009401Y005267D01*
X009200Y005256D02*
X009120Y005256D01*
X009120Y005201D02*
X009120Y005620D01*
X008701Y005620D01*
X008711Y005552D01*
X008734Y005483D01*
X008767Y005419D01*
X008809Y005360D01*
X008860Y005309D01*
X008919Y005267D01*
X008983Y005234D01*
X009052Y005211D01*
X009120Y005201D01*
X008941Y005256D02*
X008491Y005256D01*
X008455Y005219D02*
X008601Y005365D01*
X008680Y005557D01*
X008680Y005763D01*
X008601Y005955D01*
X008455Y006101D01*
X008263Y006180D01*
X008057Y006180D01*
X007865Y006101D01*
X007719Y005955D01*
X007640Y005763D01*
X007640Y005557D01*
X007719Y005365D01*
X007865Y005219D01*
X008057Y005140D01*
X008263Y005140D01*
X008455Y005219D01*
X007829Y005256D02*
X004491Y005256D01*
X004455Y005219D02*
X004601Y005365D01*
X004680Y005557D01*
X004680Y005763D01*
X004601Y005955D01*
X004455Y006101D01*
X004263Y006180D01*
X004057Y006180D01*
X003865Y006101D01*
X003719Y005955D01*
X003660Y005812D01*
X003601Y005955D01*
X003455Y006101D01*
X003263Y006180D01*
X003057Y006180D01*
X002865Y006101D01*
X002719Y005955D01*
X002640Y005763D01*
X002640Y005557D01*
X002719Y005365D01*
X002865Y005219D01*
X003057Y005140D01*
X003263Y005140D01*
X003455Y005219D01*
X003601Y005365D01*
X003660Y005508D01*
X003719Y005365D01*
X003865Y005219D01*
X004057Y005140D01*
X004263Y005140D01*
X004455Y005219D01*
X004604Y005374D02*
X007716Y005374D01*
X007667Y005493D02*
X004653Y005493D01*
X004680Y005611D02*
X007640Y005611D01*
X007640Y005730D02*
X004680Y005730D01*
X004645Y005848D02*
X007675Y005848D01*
X007731Y005967D02*
X004589Y005967D01*
X004470Y006085D02*
X007850Y006085D01*
X008470Y006085D02*
X008981Y006085D01*
X009120Y006085D02*
X009200Y006085D01*
X009339Y006085D02*
X013600Y006085D01*
X014020Y006204D02*
X000380Y006204D01*
X000380Y006085D02*
X002850Y006085D01*
X002731Y005967D02*
X000380Y005967D01*
X000380Y005848D02*
X002675Y005848D01*
X002640Y005730D02*
X000380Y005730D01*
X000380Y005611D02*
X002640Y005611D01*
X002667Y005493D02*
X000380Y005493D01*
X000380Y005374D02*
X002716Y005374D01*
X002829Y005256D02*
X000380Y005256D01*
X000380Y005137D02*
X015085Y005137D01*
X015033Y005019D02*
X000380Y005019D01*
X000380Y004900D02*
X015020Y004900D01*
X015041Y004782D02*
X000380Y004782D01*
X000380Y004663D02*
X015105Y004663D01*
X015140Y004545D02*
X000380Y004545D01*
X000380Y004426D02*
X015140Y004426D01*
X015140Y004308D02*
X000380Y004308D01*
X000380Y004189D02*
X015140Y004189D01*
X015140Y004071D02*
X000380Y004071D01*
X000380Y003952D02*
X015140Y003952D01*
X015140Y003834D02*
X000380Y003834D01*
X000380Y003715D02*
X015140Y003715D01*
X015140Y003597D02*
X000380Y003597D01*
X000380Y003478D02*
X001351Y003478D01*
X000956Y003360D02*
X000380Y003360D01*
X000380Y003241D02*
X000751Y003241D01*
X000570Y003123D02*
X000380Y003123D01*
X000380Y003004D02*
X000452Y003004D01*
X002364Y003360D02*
X015071Y003360D01*
X015021Y003241D02*
X002569Y003241D01*
X002750Y003123D02*
X015020Y003123D01*
X015052Y003004D02*
X002868Y003004D01*
X002987Y002886D02*
X015133Y002886D01*
X015161Y002767D02*
X003076Y002767D01*
X003145Y002649D02*
X015252Y002649D01*
X015030Y002530D02*
X015004Y002530D01*
X014092Y002530D02*
X003213Y002530D01*
X003271Y002412D02*
X014070Y002412D01*
X014070Y002293D02*
X003303Y002293D01*
X003335Y002175D02*
X014070Y002175D01*
X014070Y002056D02*
X003367Y002056D01*
X003380Y001938D02*
X014070Y001938D01*
X014070Y001819D02*
X003380Y001819D01*
X003380Y001701D02*
X014181Y001701D01*
X014914Y001701D02*
X015197Y001701D01*
X015474Y001701D02*
X015984Y001701D01*
X015788Y001819D02*
X015669Y001819D01*
X019520Y001227D02*
X003292Y001227D01*
X003263Y001116D02*
X003380Y001554D01*
X003356Y001464D02*
X019662Y001464D01*
X019564Y001345D02*
X003324Y001345D01*
X003263Y001116D02*
X003036Y000724D01*
X002716Y000404D01*
X002705Y000397D02*
X019871Y000397D01*
X019798Y000516D02*
X002828Y000516D01*
X002946Y000634D02*
X019770Y000634D01*
X019776Y000753D02*
X003053Y000753D01*
X003121Y000871D02*
X019647Y000871D01*
X019558Y000990D02*
X003190Y000990D01*
X003258Y001108D02*
X019520Y001108D01*
X021925Y001819D02*
X025395Y001819D01*
X025513Y001938D02*
X021774Y001938D01*
X019886Y001938D02*
X019697Y001938D01*
X019746Y002056D02*
X025632Y002056D01*
X025765Y002175D02*
X019750Y002175D01*
X019734Y002293D02*
X020777Y002293D01*
X020607Y002412D02*
X019685Y002412D01*
X021043Y002293D02*
X027316Y002293D01*
X027504Y002293D02*
X044316Y002293D01*
X044504Y002293D02*
X045017Y002293D01*
X045049Y002412D02*
X021213Y002412D01*
X021278Y002530D02*
X045107Y002530D01*
X045175Y002649D02*
X021300Y002649D01*
X021288Y002767D02*
X045244Y002767D01*
X045333Y002886D02*
X021236Y002886D01*
X021210Y003004D02*
X045452Y003004D01*
X045570Y003123D02*
X021210Y003123D01*
X021210Y003241D02*
X045751Y003241D01*
X045956Y003360D02*
X027911Y003360D01*
X027409Y003360D02*
X021210Y003360D01*
X020610Y003597D02*
X016180Y003597D01*
X016180Y003715D02*
X020610Y003715D01*
X020610Y003834D02*
X016180Y003834D01*
X016180Y003952D02*
X020610Y003952D01*
X017544Y004545D02*
X016180Y004545D01*
X016180Y004663D02*
X017611Y004663D01*
X017640Y004782D02*
X016180Y004782D01*
X016180Y004900D02*
X017640Y004900D01*
X018180Y005137D02*
X021213Y005137D01*
X021331Y005256D02*
X020129Y005256D01*
X020151Y005267D02*
X020210Y005309D01*
X020261Y005360D01*
X020303Y005419D01*
X020336Y005483D01*
X020359Y005552D01*
X020369Y005620D01*
X019950Y005620D01*
X019950Y005700D01*
X020369Y005700D01*
X020359Y005768D01*
X020336Y005837D01*
X020303Y005901D01*
X020261Y005960D01*
X020210Y006011D01*
X020151Y006053D01*
X020087Y006086D01*
X020018Y006109D01*
X019950Y006119D01*
X019950Y005700D01*
X019870Y005700D01*
X019870Y006119D01*
X019802Y006109D01*
X019733Y006086D01*
X019669Y006053D01*
X019610Y006011D01*
X019559Y005960D01*
X019517Y005901D01*
X019484Y005837D01*
X019461Y005768D01*
X019451Y005700D01*
X019870Y005700D01*
X019870Y005620D01*
X019950Y005620D01*
X019950Y005201D01*
X020018Y005211D01*
X020087Y005234D01*
X020151Y005267D01*
X019950Y005256D02*
X019870Y005256D01*
X019870Y005201D02*
X019870Y005620D01*
X019451Y005620D01*
X019461Y005552D01*
X019484Y005483D01*
X019517Y005419D01*
X019559Y005360D01*
X019610Y005309D01*
X019669Y005267D01*
X019733Y005234D01*
X019802Y005211D01*
X019870Y005201D01*
X019691Y005256D02*
X019241Y005256D01*
X018579Y005256D02*
X018180Y005256D01*
X019354Y005374D02*
X019549Y005374D01*
X019870Y005374D02*
X019950Y005374D01*
X020271Y005374D02*
X021450Y005374D01*
X021568Y005493D02*
X020339Y005493D01*
X020368Y005611D02*
X021687Y005611D01*
X020365Y005730D02*
X023105Y005730D01*
X022987Y005848D02*
X020330Y005848D01*
X019950Y005848D02*
X019870Y005848D01*
X019870Y005730D02*
X019950Y005730D01*
X019490Y005848D02*
X019395Y005848D01*
X019430Y005730D02*
X019455Y005730D01*
X019452Y005611D02*
X019430Y005611D01*
X019403Y005493D02*
X019481Y005493D01*
X019870Y005493D02*
X019950Y005493D01*
X019950Y005611D02*
X019870Y005611D01*
X019870Y005967D02*
X019950Y005967D01*
X020254Y005967D02*
X022927Y005967D01*
X022890Y006085D02*
X020089Y006085D01*
X019950Y006085D02*
X019870Y006085D01*
X019731Y006085D02*
X019220Y006085D01*
X018600Y006085D02*
X018260Y006085D01*
X018168Y006204D02*
X022890Y006204D01*
X022914Y006322D02*
X015796Y006322D01*
X015800Y006441D02*
X022963Y006441D01*
X023074Y006559D02*
X015770Y006559D01*
X015694Y006678D02*
X023301Y006678D01*
X023519Y006678D02*
X024801Y006678D01*
X025019Y006678D02*
X047940Y006678D01*
X047940Y006796D02*
X015497Y006796D01*
X015323Y006796D02*
X000380Y006796D01*
X000380Y006678D02*
X014600Y006678D01*
X014427Y006559D02*
X000380Y006559D01*
X000380Y006441D02*
X014139Y006441D01*
X014055Y006322D02*
X000380Y006322D01*
X003470Y006085D02*
X003850Y006085D01*
X003731Y005967D02*
X003589Y005967D01*
X003645Y005848D02*
X003675Y005848D01*
X003653Y005493D02*
X003667Y005493D01*
X003716Y005374D02*
X003604Y005374D01*
X003491Y005256D02*
X003829Y005256D01*
X008604Y005374D02*
X008799Y005374D01*
X009120Y005374D02*
X009200Y005374D01*
X009521Y005374D02*
X013466Y005374D01*
X013417Y005493D02*
X009589Y005493D01*
X009618Y005611D02*
X013390Y005611D01*
X013390Y005730D02*
X009615Y005730D01*
X009580Y005848D02*
X013425Y005848D01*
X013481Y005967D02*
X009504Y005967D01*
X009200Y005967D02*
X009120Y005967D01*
X008816Y005967D02*
X008589Y005967D01*
X008645Y005848D02*
X008740Y005848D01*
X008705Y005730D02*
X008680Y005730D01*
X009120Y005730D02*
X009200Y005730D01*
X009200Y005848D02*
X009120Y005848D01*
X009120Y005611D02*
X009200Y005611D01*
X009200Y005493D02*
X009120Y005493D01*
X008731Y005493D02*
X008653Y005493D01*
X008680Y005611D02*
X008702Y005611D01*
X014354Y005374D02*
X014466Y005374D01*
X014417Y005493D02*
X014403Y005493D01*
X015637Y006085D02*
X017560Y006085D01*
X017652Y006204D02*
X015747Y006204D01*
X019339Y005967D02*
X019566Y005967D01*
X023746Y006559D02*
X024574Y006559D01*
X024463Y006441D02*
X023857Y006441D01*
X023906Y006322D02*
X024414Y006322D01*
X025357Y006441D02*
X047940Y006441D01*
X047940Y006322D02*
X025406Y006322D01*
X025430Y006204D02*
X047940Y006204D01*
X047940Y006085D02*
X045339Y006085D01*
X045337Y006086D02*
X045268Y006109D01*
X045200Y006119D01*
X045200Y005700D01*
X045619Y005700D01*
X045609Y005768D01*
X045586Y005837D01*
X045553Y005901D01*
X045511Y005960D01*
X045460Y006011D01*
X045401Y006053D01*
X045337Y006086D01*
X045200Y006085D02*
X045120Y006085D01*
X045120Y006119D02*
X045052Y006109D01*
X044983Y006086D01*
X044919Y006053D01*
X044860Y006011D01*
X044809Y005960D01*
X044767Y005901D01*
X044734Y005837D01*
X044711Y005768D01*
X044701Y005700D01*
X045120Y005700D01*
X045120Y006119D01*
X044981Y006085D02*
X044470Y006085D01*
X044455Y006101D02*
X044263Y006180D01*
X044057Y006180D01*
X043865Y006101D01*
X043719Y005955D01*
X043640Y005763D01*
X043640Y005557D01*
X043719Y005365D01*
X043865Y005219D01*
X044057Y005140D01*
X044263Y005140D01*
X044455Y005219D01*
X044601Y005365D01*
X044680Y005557D01*
X044680Y005763D01*
X044601Y005955D01*
X044455Y006101D01*
X044589Y005967D02*
X044816Y005967D01*
X045120Y005967D02*
X045200Y005967D01*
X045504Y005967D02*
X047940Y005967D01*
X047940Y005848D02*
X047850Y005848D01*
X047470Y005848D02*
X047048Y005848D01*
X047009Y005887D02*
X047137Y005759D01*
X047137Y005061D01*
X047009Y004933D01*
X046311Y004933D01*
X046183Y005061D01*
X046183Y005759D01*
X046311Y005887D01*
X047009Y005887D01*
X047137Y005730D02*
X047304Y005730D01*
X047226Y005611D02*
X047137Y005611D01*
X047137Y005493D02*
X047183Y005493D01*
X047183Y005374D02*
X047137Y005374D01*
X047137Y005256D02*
X047207Y005256D01*
X047258Y005137D02*
X047137Y005137D01*
X047095Y005019D02*
X047376Y005019D01*
X047940Y004900D02*
X034052Y004900D01*
X034170Y004782D02*
X038788Y004782D01*
X039032Y004782D02*
X047940Y004782D01*
X047940Y004663D02*
X039209Y004663D01*
X039276Y004545D02*
X047940Y004545D01*
X047940Y004426D02*
X039300Y004426D01*
X039290Y004308D02*
X047940Y004308D01*
X047940Y004189D02*
X039241Y004189D01*
X039110Y004071D02*
X047940Y004071D01*
X047940Y003952D02*
X034246Y003952D01*
X034135Y003834D02*
X047940Y003834D01*
X047940Y003715D02*
X028050Y003715D01*
X028050Y003597D02*
X047940Y003597D01*
X047940Y003478D02*
X046969Y003478D01*
X047364Y003360D02*
X047940Y003360D01*
X047940Y003241D02*
X047569Y003241D01*
X047750Y003123D02*
X047940Y003123D01*
X047940Y003004D02*
X047868Y003004D01*
X046351Y003478D02*
X028007Y003478D01*
X028010Y003834D02*
X030935Y003834D01*
X031385Y003834D02*
X033685Y003834D01*
X033574Y003952D02*
X031496Y003952D01*
X031545Y004071D02*
X033525Y004071D01*
X034295Y004071D02*
X038710Y004071D01*
X033499Y004189D02*
X031550Y004189D01*
X031521Y004308D02*
X033381Y004308D01*
X033933Y005019D02*
X046225Y005019D01*
X046183Y005137D02*
X033815Y005137D01*
X033741Y005256D02*
X034191Y005256D01*
X034169Y005267D02*
X034233Y005234D01*
X034302Y005211D01*
X034370Y005201D01*
X034370Y005620D01*
X034450Y005620D01*
X034450Y005700D01*
X034869Y005700D01*
X034859Y005768D01*
X034836Y005837D01*
X034803Y005901D01*
X034761Y005960D01*
X034710Y006011D01*
X034651Y006053D01*
X034587Y006086D01*
X034518Y006109D01*
X034450Y006119D01*
X034450Y005700D01*
X034370Y005700D01*
X034370Y006119D01*
X034302Y006109D01*
X034233Y006086D01*
X034169Y006053D01*
X034110Y006011D01*
X034059Y005960D01*
X034017Y005901D01*
X033984Y005837D01*
X033961Y005768D01*
X033951Y005700D01*
X034370Y005700D01*
X034370Y005620D01*
X033951Y005620D01*
X033961Y005552D01*
X033984Y005483D01*
X034017Y005419D01*
X034059Y005360D01*
X034110Y005309D01*
X034169Y005267D01*
X034370Y005256D02*
X034450Y005256D01*
X034450Y005201D02*
X034518Y005211D01*
X034587Y005234D01*
X034651Y005267D01*
X034710Y005309D01*
X034761Y005360D01*
X034803Y005419D01*
X034836Y005483D01*
X034859Y005552D01*
X034869Y005620D01*
X034450Y005620D01*
X034450Y005201D01*
X034629Y005256D02*
X038829Y005256D01*
X038865Y005219D02*
X039057Y005140D01*
X039263Y005140D01*
X039455Y005219D01*
X039601Y005365D01*
X039660Y005508D01*
X039719Y005365D01*
X039865Y005219D01*
X040057Y005140D01*
X040263Y005140D01*
X040455Y005219D01*
X040601Y005365D01*
X040680Y005557D01*
X040680Y005763D01*
X040601Y005955D01*
X040455Y006101D01*
X040263Y006180D01*
X040057Y006180D01*
X039865Y006101D01*
X039719Y005955D01*
X039660Y005812D01*
X039601Y005955D01*
X039455Y006101D01*
X039263Y006180D01*
X039057Y006180D01*
X038865Y006101D01*
X038719Y005955D01*
X038640Y005763D01*
X038640Y005557D01*
X038719Y005365D01*
X038865Y005219D01*
X039491Y005256D02*
X039829Y005256D01*
X040491Y005256D02*
X043829Y005256D01*
X043716Y005374D02*
X040604Y005374D01*
X040653Y005493D02*
X043667Y005493D01*
X043640Y005611D02*
X040680Y005611D01*
X040680Y005730D02*
X043640Y005730D01*
X043675Y005848D02*
X040645Y005848D01*
X040589Y005967D02*
X043731Y005967D01*
X043850Y006085D02*
X040470Y006085D01*
X039850Y006085D02*
X039470Y006085D01*
X038850Y006085D02*
X034589Y006085D01*
X034450Y006085D02*
X034370Y006085D01*
X034231Y006085D02*
X033720Y006085D01*
X033100Y006085D02*
X029720Y006085D01*
X029100Y006085D02*
X028720Y006085D01*
X028100Y006085D02*
X025430Y006085D01*
X025393Y005967D02*
X027981Y005967D01*
X027925Y005848D02*
X025854Y005848D01*
X025972Y005730D02*
X027890Y005730D01*
X027890Y005611D02*
X026091Y005611D01*
X026209Y005493D02*
X027917Y005493D01*
X028895Y005848D02*
X028925Y005848D01*
X028981Y005967D02*
X028839Y005967D01*
X029839Y005967D02*
X032981Y005967D01*
X032925Y005848D02*
X029895Y005848D01*
X029930Y005730D02*
X032890Y005730D01*
X032890Y005611D02*
X029930Y005611D01*
X029903Y005493D02*
X032917Y005493D01*
X033854Y005374D02*
X034049Y005374D01*
X034370Y005374D02*
X034450Y005374D01*
X034771Y005374D02*
X038716Y005374D01*
X039604Y005374D02*
X039716Y005374D01*
X039667Y005493D02*
X039653Y005493D01*
X038667Y005493D02*
X034839Y005493D01*
X034868Y005611D02*
X038640Y005611D01*
X038640Y005730D02*
X034865Y005730D01*
X034830Y005848D02*
X038675Y005848D01*
X038731Y005967D02*
X034754Y005967D01*
X034450Y005967D02*
X034370Y005967D01*
X034066Y005967D02*
X033839Y005967D01*
X033895Y005848D02*
X033990Y005848D01*
X033955Y005730D02*
X033930Y005730D01*
X034370Y005730D02*
X034450Y005730D01*
X034450Y005848D02*
X034370Y005848D01*
X034370Y005611D02*
X034450Y005611D01*
X034450Y005493D02*
X034370Y005493D01*
X033981Y005493D02*
X033903Y005493D01*
X033930Y005611D02*
X033952Y005611D01*
X039589Y005967D02*
X039731Y005967D01*
X039675Y005848D02*
X039645Y005848D01*
X044491Y005256D02*
X044941Y005256D01*
X044919Y005267D02*
X044983Y005234D01*
X045052Y005211D01*
X045120Y005201D01*
X045120Y005620D01*
X045200Y005620D01*
X045200Y005700D01*
X045120Y005700D01*
X045120Y005620D01*
X044701Y005620D01*
X044711Y005552D01*
X044734Y005483D01*
X044767Y005419D01*
X044809Y005360D01*
X044860Y005309D01*
X044919Y005267D01*
X045120Y005256D02*
X045200Y005256D01*
X045200Y005201D02*
X045268Y005211D01*
X045337Y005234D01*
X045401Y005267D01*
X045460Y005309D01*
X045511Y005360D01*
X045553Y005419D01*
X045586Y005483D01*
X045609Y005552D01*
X045619Y005620D01*
X045200Y005620D01*
X045200Y005201D01*
X045379Y005256D02*
X046183Y005256D01*
X046183Y005374D02*
X045521Y005374D01*
X045200Y005374D02*
X045120Y005374D01*
X044799Y005374D02*
X044604Y005374D01*
X044653Y005493D02*
X044731Y005493D01*
X044702Y005611D02*
X044680Y005611D01*
X045120Y005611D02*
X045200Y005611D01*
X045200Y005493D02*
X045120Y005493D01*
X045589Y005493D02*
X046183Y005493D01*
X046183Y005611D02*
X045618Y005611D01*
X045615Y005730D02*
X046183Y005730D01*
X046272Y005848D02*
X045580Y005848D01*
X045200Y005848D02*
X045120Y005848D01*
X045120Y005730D02*
X045200Y005730D01*
X044740Y005848D02*
X044645Y005848D01*
X044680Y005730D02*
X044705Y005730D01*
X047940Y006559D02*
X025246Y006559D01*
X015140Y003478D02*
X001969Y003478D01*
X000380Y006915D02*
X047940Y006915D01*
X044985Y002175D02*
X044697Y002175D01*
X044772Y002056D02*
X044953Y002056D01*
X044940Y001938D02*
X044800Y001938D01*
X044794Y001819D02*
X044940Y001819D01*
X044940Y001701D02*
X044921Y001701D01*
X042382Y002056D02*
X030938Y002056D01*
X030805Y002175D02*
X042515Y002175D01*
X042263Y001938D02*
X031057Y001938D01*
X031175Y001819D02*
X042145Y001819D01*
D14*
X040910Y001910D03*
X044410Y001910D03*
X044660Y001410D03*
X044410Y000910D03*
X034660Y002660D03*
X033910Y002660D03*
X031910Y002660D03*
X031160Y002660D03*
X029160Y002660D03*
X028410Y002660D03*
X024660Y003160D03*
X024160Y003160D03*
X024160Y002660D03*
X020910Y002660D03*
X019660Y003160D03*
X015910Y003160D03*
X015410Y003160D03*
X012410Y002910D03*
X009410Y002910D03*
X008660Y002910D03*
X007910Y002910D03*
X007160Y002910D03*
X006410Y002910D03*
X005660Y002910D03*
X007660Y001910D03*
X019910Y001160D03*
X020160Y000660D03*
X020160Y001660D03*
X024160Y001910D03*
X027410Y001910D03*
X027660Y001410D03*
X027410Y000910D03*
X038910Y002910D03*
X039660Y002910D03*
X040410Y002910D03*
X041160Y002910D03*
X041910Y002910D03*
X042660Y002910D03*
X034660Y003410D03*
X033910Y003410D03*
X031910Y003410D03*
X031160Y003410D03*
X029160Y003410D03*
X028410Y003410D03*
X027660Y003660D03*
X024660Y003660D03*
X024160Y003660D03*
X020910Y004410D03*
X020410Y004410D03*
X017910Y004410D03*
X015410Y004910D03*
X015910Y005660D03*
X017910Y005910D03*
X015410Y006410D03*
X014410Y006160D03*
X017910Y006535D03*
X024160Y005910D03*
X022160Y004910D03*
X023660Y004660D03*
X024160Y004660D03*
X026660Y004660D03*
X027160Y004660D03*
X031160Y004160D03*
X033910Y004160D03*
X038910Y004410D03*
D15*
X027160Y004660D02*
X026660Y004660D01*
X026160Y004660D01*
X025410Y005410D01*
X023410Y005410D01*
X023410Y006160D01*
X023410Y005410D02*
X021910Y005410D01*
X020910Y004410D01*
X020410Y004410D01*
X020910Y004410D02*
X020910Y002660D01*
X019660Y002910D02*
X019660Y003160D01*
X025410Y001410D02*
X025910Y001910D01*
X027410Y001910D01*
X030660Y001910D01*
X031160Y001410D01*
X042160Y001410D01*
X042660Y001910D01*
X044410Y001910D01*
X044660Y001410D02*
X042910Y001410D01*
X042410Y000910D01*
X030910Y000910D01*
X030410Y001410D01*
X027660Y001410D01*
X026160Y001410D01*
X025660Y000910D01*
X021660Y000910D01*
X021410Y001160D01*
X019910Y001160D01*
X021660Y001660D02*
X021910Y001410D01*
X025410Y001410D01*
X026410Y000910D02*
X027410Y000910D01*
X030160Y000910D01*
X030660Y000410D01*
X042660Y000410D01*
X043160Y000910D01*
X044410Y000910D01*
X026410Y000910D02*
X025910Y000410D01*
X021410Y000410D01*
X021160Y000660D01*
X020160Y000660D01*
X020160Y001660D02*
X021660Y001660D01*
D16*
X016123Y002160D02*
X015410Y002873D01*
X015410Y003160D01*
X015410Y004910D01*
X015910Y005160D02*
X015410Y005660D01*
X014910Y005660D01*
X015910Y005660D02*
X015910Y005910D01*
X014660Y006410D02*
X014410Y006160D01*
X014660Y006410D02*
X015410Y006410D01*
X017910Y005910D02*
X017910Y004410D01*
X022160Y004910D02*
X022410Y005160D01*
X025160Y005160D01*
X026160Y004160D01*
X027160Y004160D01*
X027660Y004660D01*
X033410Y004660D01*
X033910Y004160D01*
X034160Y004410D02*
X033410Y005160D01*
X026160Y005160D01*
X025660Y005660D01*
X024410Y005660D01*
X024160Y005910D01*
X024160Y004660D02*
X025160Y004660D01*
X025910Y003910D01*
X027410Y003910D01*
X027660Y004160D01*
X031160Y004160D01*
X034160Y004410D02*
X038910Y004410D01*
X027660Y003660D02*
X025660Y003660D01*
X025160Y004160D01*
X024160Y004160D01*
X023660Y004660D01*
X015910Y005160D02*
X015910Y003160D01*
M02*
