G75*
G70*
%OFA0B0*%
%FSLAX24Y24*%
%IPPOS*%
%LPD*%
%AMOC8*
5,1,8,0,0,1.08239X$1,22.5*
%
%ADD10C,0.0070*%
%ADD11C,0.0080*%
%ADD12C,0.0120*%
D10*
X003758Y000495D02*
X003758Y000825D01*
X003924Y000825D01*
X003979Y000770D01*
X003979Y000660D01*
X003924Y000605D01*
X003758Y000605D01*
X003868Y000605D02*
X003979Y000495D01*
X004127Y000550D02*
X004182Y000495D01*
X004292Y000495D01*
X004347Y000550D01*
X004347Y000605D01*
X004292Y000660D01*
X004237Y000660D01*
X004292Y000660D02*
X004347Y000715D01*
X004347Y000770D01*
X004292Y000825D01*
X004182Y000825D01*
X004127Y000770D01*
X004500Y000980D02*
X004500Y000340D01*
X005820Y000340D01*
X005820Y000980D01*
X004500Y000980D01*
X004500Y001090D02*
X004500Y001730D01*
X005820Y001730D01*
X005820Y001090D01*
X004500Y001090D01*
X004347Y001295D02*
X004127Y001295D01*
X004237Y001295D02*
X004237Y001625D01*
X004127Y001515D01*
X003979Y001460D02*
X003924Y001405D01*
X003758Y001405D01*
X003868Y001405D02*
X003979Y001295D01*
X003758Y001295D02*
X003758Y001625D01*
X003924Y001625D01*
X003979Y001570D01*
X003979Y001460D01*
X004500Y001840D02*
X004500Y002480D01*
X005820Y002480D01*
X005820Y001840D01*
X004500Y001840D01*
X004347Y001995D02*
X004127Y001995D01*
X004347Y002215D01*
X004347Y002270D01*
X004292Y002325D01*
X004182Y002325D01*
X004127Y002270D01*
X003979Y002270D02*
X003979Y002160D01*
X003924Y002105D01*
X003758Y002105D01*
X003758Y001995D02*
X003758Y002325D01*
X003924Y002325D01*
X003979Y002270D01*
X003868Y002105D02*
X003979Y001995D01*
X009438Y002126D02*
X009603Y002126D01*
X009658Y002181D01*
X009658Y002401D01*
X009603Y002456D01*
X009438Y002456D01*
X009438Y002126D01*
X009807Y002126D02*
X010027Y002126D01*
X009917Y002126D02*
X009917Y002456D01*
X009807Y002346D01*
X009845Y002645D02*
X009845Y002975D01*
X010010Y002975D01*
X010065Y002920D01*
X010065Y002810D01*
X010010Y002755D01*
X009845Y002755D01*
X009955Y002755D02*
X010065Y002645D01*
X010213Y002700D02*
X010213Y002810D01*
X010268Y002865D01*
X010378Y002865D01*
X010434Y002810D01*
X010434Y002755D01*
X010213Y002755D01*
X010213Y002700D02*
X010268Y002645D01*
X010378Y002645D01*
X010582Y002865D02*
X010692Y002645D01*
X010802Y002865D01*
X010950Y002700D02*
X011005Y002700D01*
X011005Y002645D01*
X010950Y002645D01*
X010950Y002700D01*
X012670Y002510D02*
X014150Y002510D01*
X014150Y003310D01*
X012670Y003310D01*
X012670Y002510D01*
X013358Y002370D02*
X013413Y002425D01*
X013524Y002425D01*
X013579Y002370D01*
X013727Y002370D02*
X013782Y002425D01*
X013892Y002425D01*
X013947Y002370D01*
X013947Y002315D01*
X013892Y002260D01*
X013947Y002205D01*
X013947Y002150D01*
X013892Y002095D01*
X013782Y002095D01*
X013727Y002150D01*
X013579Y002150D02*
X013524Y002095D01*
X013413Y002095D01*
X013358Y002150D01*
X013358Y002370D01*
X013837Y002260D02*
X013892Y002260D01*
X017919Y002798D02*
X018048Y002669D01*
X018237Y002823D01*
X018313Y002784D01*
X018420Y003043D01*
X018380Y003065D01*
X018344Y003094D01*
X018315Y003130D01*
X018293Y003170D01*
X018280Y003214D01*
X018276Y003260D01*
X018281Y003310D01*
X018297Y003358D01*
X018323Y003401D01*
X018358Y003438D01*
X018400Y003467D01*
X018446Y003486D01*
X018496Y003494D01*
X018547Y003491D01*
X018595Y003478D01*
X018640Y003455D01*
X018679Y003422D01*
X018710Y003382D01*
X018731Y003337D01*
X018743Y003288D01*
X018743Y003237D01*
X018733Y003188D01*
X018712Y003141D01*
X018682Y003101D01*
X018644Y003068D01*
X018600Y003043D01*
X018707Y002784D01*
X018783Y002823D01*
X018972Y002669D01*
X019101Y002798D01*
X018947Y002987D01*
X018986Y003063D01*
X019012Y003144D01*
X019254Y003169D01*
X019254Y003351D01*
X019012Y003376D01*
X018986Y003457D01*
X018947Y003533D01*
X019101Y003722D01*
X018972Y003851D01*
X018783Y003697D01*
X018707Y003736D01*
X018626Y003762D01*
X018601Y004004D01*
X018419Y004004D01*
X018394Y003762D01*
X018313Y003736D01*
X018237Y003697D01*
X018048Y003851D01*
X017919Y003722D01*
X018073Y003533D01*
X018034Y003457D01*
X018008Y003376D01*
X017766Y003351D01*
X017766Y003169D01*
X018008Y003144D01*
X018034Y003063D01*
X018073Y002987D01*
X017919Y002798D01*
X017946Y002832D02*
X018333Y002832D01*
X018361Y002900D02*
X018002Y002900D01*
X018058Y002969D02*
X018389Y002969D01*
X018418Y003037D02*
X018047Y003037D01*
X018020Y003106D02*
X018335Y003106D01*
X018292Y003174D02*
X017766Y003174D01*
X017766Y003243D02*
X018277Y003243D01*
X018281Y003311D02*
X017766Y003311D01*
X018009Y003380D02*
X018310Y003380D01*
X018372Y003448D02*
X018031Y003448D01*
X018064Y003517D02*
X018956Y003517D01*
X018989Y003585D02*
X018031Y003585D01*
X017975Y003654D02*
X019045Y003654D01*
X019101Y003722D02*
X018814Y003722D01*
X018735Y003722D02*
X018285Y003722D01*
X018206Y003722D02*
X017919Y003722D01*
X017988Y003791D02*
X018122Y003791D01*
X018397Y003791D02*
X018623Y003791D01*
X018616Y003859D02*
X018404Y003859D01*
X018411Y003928D02*
X018609Y003928D01*
X018602Y003996D02*
X018418Y003996D01*
X018898Y003791D02*
X019032Y003791D01*
X020515Y003880D02*
X020515Y003660D01*
X020570Y003605D01*
X020680Y003605D01*
X020735Y003660D01*
X020883Y003605D02*
X021104Y003605D01*
X020993Y003605D02*
X020993Y003935D01*
X020883Y003825D01*
X020735Y003880D02*
X020680Y003935D01*
X020570Y003935D01*
X020515Y003880D01*
X020500Y003480D02*
X021820Y003480D01*
X021820Y002840D01*
X020500Y002840D01*
X020500Y003480D01*
X019254Y003311D02*
X018737Y003311D01*
X018743Y003243D02*
X019254Y003243D01*
X019254Y003174D02*
X018727Y003174D01*
X018686Y003106D02*
X019000Y003106D01*
X018973Y003037D02*
X018602Y003037D01*
X018631Y002969D02*
X018962Y002969D01*
X019018Y002900D02*
X018659Y002900D01*
X018687Y002832D02*
X019074Y002832D01*
X019066Y002763D02*
X018856Y002763D01*
X018940Y002695D02*
X018997Y002695D01*
X018164Y002763D02*
X017954Y002763D01*
X018023Y002695D02*
X018080Y002695D01*
X020308Y002325D02*
X020474Y002325D01*
X020529Y002270D01*
X020529Y002160D01*
X020474Y002105D01*
X020308Y002105D01*
X020308Y001995D02*
X020308Y002325D01*
X020677Y002325D02*
X020677Y002160D01*
X020787Y002215D01*
X020842Y002215D01*
X020897Y002160D01*
X020897Y002050D01*
X020842Y001995D01*
X020732Y001995D01*
X020677Y002050D01*
X020529Y001995D02*
X020418Y002105D01*
X020677Y002325D02*
X020897Y002325D01*
X021000Y002480D02*
X021000Y001840D01*
X022320Y001840D01*
X022320Y002480D01*
X021000Y002480D01*
X023294Y002861D02*
X023924Y002861D01*
X023926Y002891D01*
X023931Y002920D01*
X023941Y002948D01*
X023953Y002975D01*
X023969Y003000D01*
X023988Y003023D01*
X024010Y003043D01*
X024034Y003060D01*
X024060Y003075D01*
X024087Y003085D01*
X024116Y003093D01*
X024145Y003097D01*
X024175Y003097D01*
X024204Y003093D01*
X024233Y003085D01*
X024260Y003075D01*
X024286Y003060D01*
X024310Y003043D01*
X024332Y003023D01*
X024351Y003000D01*
X024367Y002975D01*
X024379Y002948D01*
X024389Y002920D01*
X024394Y002891D01*
X024396Y002861D01*
X025026Y002861D01*
X025026Y005459D01*
X023294Y005459D01*
X023294Y002861D01*
X025938Y002556D02*
X026103Y002556D01*
X026158Y002501D01*
X026158Y002281D01*
X026103Y002226D01*
X025938Y002226D01*
X025938Y002556D01*
X026307Y002501D02*
X026362Y002556D01*
X026472Y002556D01*
X026527Y002501D01*
X026527Y002446D01*
X026307Y002226D01*
X026527Y002226D01*
X029158Y002250D02*
X029213Y002195D01*
X029324Y002195D01*
X029379Y002250D01*
X029379Y002470D01*
X029324Y002525D01*
X029213Y002525D01*
X029158Y002470D01*
X029158Y002250D01*
X029268Y002305D02*
X029379Y002195D01*
X029527Y002195D02*
X029747Y002415D01*
X029747Y002470D01*
X029692Y002525D01*
X029582Y002525D01*
X029527Y002470D01*
X029589Y002654D02*
X029589Y003028D01*
X030022Y003166D02*
X030298Y003166D01*
X030731Y003028D02*
X030731Y002654D01*
X030416Y002654D01*
X029904Y002654D02*
X029589Y002654D01*
X031884Y002471D02*
X031939Y002526D01*
X032049Y002526D01*
X032104Y002471D01*
X032104Y002250D01*
X032049Y002195D01*
X031939Y002195D01*
X031884Y002250D01*
X031884Y002471D01*
X032252Y002416D02*
X032362Y002526D01*
X032362Y002195D01*
X032252Y002195D02*
X032472Y002195D01*
X032104Y002195D02*
X031994Y002305D01*
X032339Y002654D02*
X032339Y003028D01*
X032772Y003166D02*
X033048Y003166D01*
X033481Y003028D02*
X033481Y002654D01*
X033166Y002654D01*
X032654Y002654D02*
X032339Y002654D01*
X034658Y002470D02*
X034713Y002525D01*
X034824Y002525D01*
X034879Y002470D01*
X034879Y002250D01*
X034824Y002195D01*
X034713Y002195D01*
X034658Y002250D01*
X034658Y002470D01*
X035027Y002470D02*
X035082Y002525D01*
X035192Y002525D01*
X035247Y002470D01*
X035247Y002415D01*
X035192Y002360D01*
X035247Y002305D01*
X035247Y002250D01*
X035192Y002195D01*
X035082Y002195D01*
X035027Y002250D01*
X034879Y002195D02*
X034768Y002305D01*
X035137Y002360D02*
X035192Y002360D01*
X035089Y002654D02*
X035089Y003028D01*
X035522Y003166D02*
X035798Y003166D01*
X036231Y003028D02*
X036231Y002654D01*
X035916Y002654D01*
X035404Y002654D02*
X035089Y002654D01*
X037258Y002325D02*
X037424Y002325D01*
X037479Y002270D01*
X037479Y002160D01*
X037424Y002105D01*
X037258Y002105D01*
X037258Y001995D02*
X037258Y002325D01*
X037627Y002270D02*
X037627Y002215D01*
X037682Y002160D01*
X037792Y002160D01*
X037847Y002105D01*
X037847Y002050D01*
X037792Y001995D01*
X037682Y001995D01*
X037627Y002050D01*
X037627Y002105D01*
X037682Y002160D01*
X037792Y002160D02*
X037847Y002215D01*
X037847Y002270D01*
X037792Y002325D01*
X037682Y002325D01*
X037627Y002270D01*
X038000Y002480D02*
X038000Y001840D01*
X039320Y001840D01*
X039320Y002480D01*
X038000Y002480D01*
X037479Y001995D02*
X037368Y002105D01*
X038000Y001730D02*
X038000Y001090D01*
X039320Y001090D01*
X039320Y001730D01*
X038000Y001730D01*
X037847Y001525D02*
X037627Y001525D01*
X037479Y001470D02*
X037479Y001360D01*
X037424Y001305D01*
X037258Y001305D01*
X037258Y001195D02*
X037258Y001525D01*
X037424Y001525D01*
X037479Y001470D01*
X037627Y001250D02*
X037847Y001470D01*
X037847Y001525D01*
X037627Y001250D02*
X037627Y001195D01*
X037479Y001195D02*
X037368Y001305D01*
X038000Y000980D02*
X038000Y000340D01*
X039320Y000340D01*
X039320Y000980D01*
X038000Y000980D01*
X037792Y000825D02*
X037682Y000825D01*
X037627Y000770D01*
X037627Y000715D01*
X037682Y000660D01*
X037847Y000660D01*
X037847Y000550D02*
X037847Y000770D01*
X037792Y000825D01*
X037479Y000770D02*
X037479Y000660D01*
X037424Y000605D01*
X037258Y000605D01*
X037368Y000605D02*
X037479Y000495D01*
X037627Y000550D02*
X037682Y000495D01*
X037792Y000495D01*
X037847Y000550D01*
X037258Y000495D02*
X037258Y000825D01*
X037424Y000825D01*
X037479Y000770D01*
X042938Y002126D02*
X043103Y002126D01*
X043158Y002181D01*
X043158Y002401D01*
X043103Y002456D01*
X042938Y002456D01*
X042938Y002126D01*
X043307Y002181D02*
X043362Y002126D01*
X043472Y002126D01*
X043527Y002181D01*
X043527Y002236D01*
X043472Y002291D01*
X043417Y002291D01*
X043472Y002291D02*
X043527Y002346D01*
X043527Y002401D01*
X043472Y002456D01*
X043362Y002456D01*
X043307Y002401D01*
X035570Y003840D02*
X034250Y003840D01*
X034250Y004480D01*
X035570Y004480D01*
X035570Y003840D01*
X032820Y003840D02*
X031500Y003840D01*
X031500Y004480D01*
X032820Y004480D01*
X032820Y003840D01*
X030070Y003840D02*
X028750Y003840D01*
X028750Y004480D01*
X030070Y004480D01*
X030070Y003840D01*
X029667Y004655D02*
X029557Y004655D01*
X029502Y004710D01*
X029722Y004930D01*
X029722Y004710D01*
X029667Y004655D01*
X029502Y004710D02*
X029502Y004930D01*
X029557Y004985D01*
X029667Y004985D01*
X029722Y004930D01*
X029243Y004985D02*
X029133Y004875D01*
X028985Y004820D02*
X028930Y004765D01*
X028765Y004765D01*
X028875Y004765D02*
X028985Y004655D01*
X029133Y004655D02*
X029354Y004655D01*
X029243Y004655D02*
X029243Y004985D01*
X028985Y004930D02*
X028985Y004820D01*
X028985Y004930D02*
X028930Y004985D01*
X028765Y004985D01*
X028765Y004655D01*
X026717Y004895D02*
X026717Y005226D01*
X026552Y005061D01*
X026772Y005061D01*
X026404Y005171D02*
X026404Y004950D01*
X026349Y004895D01*
X026239Y004895D01*
X026184Y004950D01*
X026184Y005171D01*
X026239Y005226D01*
X026349Y005226D01*
X026404Y005171D01*
X026294Y005005D02*
X026404Y004895D01*
X027340Y005250D02*
X027980Y005250D01*
X027980Y006570D01*
X027340Y006570D01*
X027340Y005250D01*
X026528Y005339D02*
X026154Y005339D01*
X026154Y005654D01*
X026666Y005772D02*
X026666Y006048D01*
X026154Y006166D02*
X026154Y006481D01*
X026528Y006481D01*
X028095Y006525D02*
X028095Y006195D01*
X028205Y006305D02*
X028315Y006195D01*
X028463Y006195D02*
X028684Y006195D01*
X028573Y006195D02*
X028573Y006525D01*
X028463Y006415D01*
X028315Y006360D02*
X028260Y006305D01*
X028095Y006305D01*
X028315Y006360D02*
X028315Y006470D01*
X028260Y006525D01*
X028095Y006525D01*
X028832Y006470D02*
X028887Y006525D01*
X028997Y006525D01*
X029052Y006470D01*
X029052Y006415D01*
X028997Y006360D01*
X029052Y006305D01*
X029052Y006250D01*
X028997Y006195D01*
X028887Y006195D01*
X028832Y006250D01*
X028942Y006360D02*
X028997Y006360D01*
X023188Y005502D02*
X022968Y005502D01*
X023078Y005502D02*
X023078Y005833D01*
X022968Y005723D01*
X022820Y005833D02*
X022820Y005558D01*
X022764Y005502D01*
X022654Y005502D01*
X022599Y005558D01*
X022599Y005833D01*
X017570Y005730D02*
X017570Y005090D01*
X016250Y005090D01*
X016250Y005730D01*
X017570Y005730D01*
X017422Y004965D02*
X017312Y004965D01*
X017257Y004910D01*
X017109Y004910D02*
X017054Y004965D01*
X016943Y004965D01*
X016888Y004910D01*
X016888Y004690D01*
X016943Y004635D01*
X017054Y004635D01*
X017109Y004690D01*
X017257Y004635D02*
X017477Y004855D01*
X017477Y004910D01*
X017422Y004965D01*
X017477Y004635D02*
X017257Y004635D01*
X012409Y003925D02*
X012409Y003837D01*
X012055Y003483D01*
X012055Y003395D01*
X011856Y003483D02*
X011768Y003395D01*
X011591Y003395D01*
X011502Y003483D01*
X011856Y003837D01*
X011856Y003483D01*
X011502Y003483D02*
X011502Y003837D01*
X011591Y003925D01*
X011768Y003925D01*
X011856Y003837D01*
X012055Y003925D02*
X012409Y003925D01*
X011304Y003660D02*
X010950Y003660D01*
X010199Y003660D02*
X010110Y003572D01*
X009845Y003572D01*
X010397Y003483D02*
X010486Y003395D01*
X010663Y003395D01*
X010751Y003483D01*
X010397Y003483D02*
X010397Y003837D01*
X010486Y003925D01*
X010663Y003925D01*
X010751Y003837D01*
X010199Y003837D02*
X010199Y003660D01*
X010199Y003837D02*
X010110Y003925D01*
X009845Y003925D01*
X009845Y003395D01*
X018648Y003448D02*
X018989Y003448D01*
X019011Y003380D02*
X018711Y003380D01*
X021000Y001730D02*
X021000Y001090D01*
X022320Y001090D01*
X022320Y001730D01*
X021000Y001730D01*
X020892Y001575D02*
X020727Y001410D01*
X020947Y001410D01*
X020579Y001410D02*
X020524Y001355D01*
X020358Y001355D01*
X020358Y001245D02*
X020358Y001575D01*
X020524Y001575D01*
X020579Y001520D01*
X020579Y001410D01*
X020468Y001355D02*
X020579Y001245D01*
X020892Y001245D02*
X020892Y001575D01*
X021000Y000980D02*
X021000Y000340D01*
X022320Y000340D01*
X022320Y000980D01*
X021000Y000980D01*
X020897Y000825D02*
X020787Y000770D01*
X020677Y000660D01*
X020842Y000660D01*
X020897Y000605D01*
X020897Y000550D01*
X020842Y000495D01*
X020732Y000495D01*
X020677Y000550D01*
X020677Y000660D01*
X020529Y000660D02*
X020474Y000605D01*
X020308Y000605D01*
X020418Y000605D02*
X020529Y000495D01*
X020308Y000495D02*
X020308Y000825D01*
X020474Y000825D01*
X020529Y000770D01*
X020529Y000660D01*
X029527Y002195D02*
X029747Y002195D01*
X044000Y004340D02*
X044000Y004980D01*
X045320Y004980D01*
X045320Y004340D01*
X044000Y004340D01*
X044290Y004225D02*
X044455Y004225D01*
X044510Y004170D01*
X044510Y004060D01*
X044455Y004005D01*
X044290Y004005D01*
X044290Y003895D02*
X044290Y004225D01*
X044658Y004115D02*
X044768Y004225D01*
X044768Y003895D01*
X044658Y003895D02*
X044879Y003895D01*
X045192Y003895D02*
X045192Y004225D01*
X045027Y004060D01*
X045247Y004060D01*
X044510Y003895D02*
X044400Y004005D01*
X046888Y004126D02*
X046888Y004456D01*
X047053Y004456D01*
X047108Y004401D01*
X047108Y004181D01*
X047053Y004126D01*
X046888Y004126D01*
X047421Y004126D02*
X047421Y004456D01*
X047256Y004291D01*
X047476Y004291D01*
X035222Y004655D02*
X035002Y004655D01*
X035112Y004655D02*
X035112Y004985D01*
X035002Y004875D01*
X034743Y004985D02*
X034633Y004875D01*
X034485Y004820D02*
X034430Y004765D01*
X034265Y004765D01*
X034375Y004765D02*
X034485Y004655D01*
X034633Y004655D02*
X034854Y004655D01*
X034743Y004655D02*
X034743Y004985D01*
X034485Y004930D02*
X034430Y004985D01*
X034265Y004985D01*
X034265Y004655D01*
X034485Y004820D02*
X034485Y004930D01*
X032472Y004875D02*
X032472Y004930D01*
X032417Y004985D01*
X032307Y004985D01*
X032252Y004930D01*
X032472Y004875D02*
X032252Y004655D01*
X032472Y004655D01*
X032104Y004655D02*
X031883Y004655D01*
X031993Y004655D02*
X031993Y004985D01*
X031883Y004875D01*
X031735Y004820D02*
X031680Y004765D01*
X031515Y004765D01*
X031625Y004765D02*
X031735Y004655D01*
X031515Y004655D02*
X031515Y004985D01*
X031680Y004985D01*
X031735Y004930D01*
X031735Y004820D01*
X015730Y006594D02*
X015510Y006594D01*
X015730Y006814D01*
X015730Y006869D01*
X015675Y006924D01*
X015565Y006924D01*
X015510Y006869D01*
X015362Y006924D02*
X015362Y006649D01*
X015307Y006594D01*
X015196Y006594D01*
X015141Y006649D01*
X015141Y006924D01*
X007570Y005980D02*
X007570Y005340D01*
X006250Y005340D01*
X006250Y005980D01*
X007570Y005980D01*
X007252Y006150D02*
X007197Y006095D01*
X007087Y006095D01*
X007032Y006150D01*
X007032Y006260D01*
X007197Y006260D01*
X007252Y006205D01*
X007252Y006150D01*
X007142Y006370D02*
X007032Y006260D01*
X006773Y006425D02*
X006663Y006315D01*
X006773Y006425D02*
X006773Y006095D01*
X006663Y006095D02*
X006884Y006095D01*
X006515Y006095D02*
X006405Y006205D01*
X006460Y006205D02*
X006295Y006205D01*
X006295Y006095D02*
X006295Y006425D01*
X006460Y006425D01*
X006515Y006370D01*
X006515Y006260D01*
X006460Y006205D01*
X005752Y006150D02*
X005697Y006095D01*
X005587Y006095D01*
X005532Y006150D01*
X005532Y006260D02*
X005642Y006315D01*
X005697Y006315D01*
X005752Y006260D01*
X005752Y006150D01*
X005532Y006260D02*
X005532Y006425D01*
X005752Y006425D01*
X005273Y006425D02*
X005163Y006315D01*
X005273Y006425D02*
X005273Y006095D01*
X005163Y006095D02*
X005384Y006095D01*
X005015Y006095D02*
X004905Y006205D01*
X004960Y006205D02*
X004795Y006205D01*
X004795Y006095D02*
X004795Y006425D01*
X004960Y006425D01*
X005015Y006370D01*
X005015Y006260D01*
X004960Y006205D01*
X004750Y005980D02*
X004750Y005340D01*
X006070Y005340D01*
X006070Y005980D01*
X004750Y005980D01*
X007142Y006370D02*
X007252Y006425D01*
D11*
X016266Y006843D02*
X017054Y006843D01*
X017054Y005977D02*
X016266Y005977D01*
X011630Y002930D02*
X011490Y003070D01*
X011350Y002930D01*
X011350Y002650D01*
X011630Y002650D02*
X011630Y002930D01*
X011630Y002860D02*
X011350Y002860D01*
X009235Y002434D02*
X009235Y000426D01*
X008132Y000426D02*
X007188Y000426D01*
X007660Y000544D02*
X008054Y000938D01*
X008054Y000544D01*
X007660Y000544D01*
X007669Y000553D02*
X008054Y000553D01*
X008054Y000631D02*
X007747Y000631D01*
X007826Y000710D02*
X008054Y000710D01*
X008054Y000788D02*
X007904Y000788D01*
X007983Y000867D02*
X008054Y000867D01*
X006085Y000426D02*
X006085Y002434D01*
X007188Y002394D02*
X008132Y002394D01*
X022585Y002434D02*
X022585Y000426D01*
X023688Y000426D02*
X024632Y000426D01*
X024554Y000544D02*
X024160Y000544D01*
X024554Y000938D01*
X024554Y000544D01*
X024554Y000553D02*
X024169Y000553D01*
X024247Y000631D02*
X024554Y000631D01*
X024554Y000710D02*
X024326Y000710D01*
X024404Y000788D02*
X024554Y000788D01*
X024554Y000867D02*
X024483Y000867D01*
X025735Y000426D02*
X025735Y002434D01*
X024632Y002394D02*
X023688Y002394D01*
X039585Y002434D02*
X039585Y000426D01*
X040688Y000426D02*
X041632Y000426D01*
X041554Y000544D02*
X041160Y000544D01*
X041554Y000938D01*
X041554Y000544D01*
X041554Y000553D02*
X041169Y000553D01*
X041247Y000631D02*
X041554Y000631D01*
X041554Y000710D02*
X041326Y000710D01*
X041404Y000788D02*
X041554Y000788D01*
X041554Y000867D02*
X041483Y000867D01*
X042735Y000426D02*
X042735Y002434D01*
X041632Y002394D02*
X040688Y002394D01*
X047790Y004938D02*
X047790Y005075D01*
X047671Y005784D02*
X047640Y005823D01*
X047606Y005859D01*
X047569Y005892D01*
X047530Y005923D01*
X047488Y005950D01*
X047444Y005974D01*
X047398Y005994D01*
X047351Y006010D01*
X047303Y006023D01*
X047254Y006032D01*
X047205Y006037D01*
X047155Y006038D01*
X047105Y006035D01*
X047056Y006028D01*
X047007Y006017D01*
X046960Y006003D01*
X046913Y005984D01*
X046869Y005963D01*
X046826Y005937D01*
X046785Y005908D01*
X046747Y005877D01*
X046711Y005842D01*
X046678Y005804D01*
X046648Y005764D01*
X047790Y005745D02*
X047790Y005882D01*
X047672Y005056D02*
X047643Y005017D01*
X047610Y004981D01*
X047575Y004948D01*
X047537Y004917D01*
X047497Y004889D01*
X047455Y004865D01*
X047411Y004844D01*
X047366Y004826D01*
X047319Y004812D01*
X047272Y004802D01*
X047224Y004795D01*
X047175Y004792D01*
X047127Y004793D01*
X047078Y004798D01*
X047030Y004806D01*
X046983Y004818D01*
X046937Y004834D01*
X046893Y004854D01*
X046850Y004877D01*
X046809Y004903D01*
X046770Y004932D01*
X046733Y004964D01*
X046699Y004999D01*
X046668Y005036D01*
X046471Y005036D02*
X046499Y004989D01*
X046529Y004945D01*
X046563Y004902D01*
X046599Y004862D01*
X046638Y004824D01*
X046680Y004790D01*
X046724Y004758D01*
X046770Y004729D01*
X046818Y004704D01*
X046867Y004682D01*
X046918Y004663D01*
X046970Y004648D01*
X047023Y004636D01*
X047077Y004629D01*
X047131Y004625D01*
X047185Y004624D01*
X047239Y004628D01*
X047293Y004635D01*
X047346Y004646D01*
X047398Y004660D01*
X047449Y004678D01*
X047499Y004700D01*
X047547Y004725D01*
X047593Y004753D01*
X047637Y004784D01*
X047679Y004819D01*
X047719Y004856D01*
X047756Y004896D01*
X047790Y004938D01*
X047790Y005882D02*
X047756Y005924D01*
X047719Y005964D01*
X047679Y006001D01*
X047637Y006036D01*
X047593Y006067D01*
X047547Y006095D01*
X047499Y006120D01*
X047449Y006142D01*
X047398Y006160D01*
X047346Y006174D01*
X047293Y006185D01*
X047239Y006192D01*
X047185Y006196D01*
X047131Y006195D01*
X047077Y006191D01*
X047023Y006184D01*
X046970Y006172D01*
X046918Y006157D01*
X046867Y006138D01*
X046818Y006116D01*
X046770Y006091D01*
X046724Y006062D01*
X046680Y006030D01*
X046638Y005996D01*
X046599Y005958D01*
X046563Y005918D01*
X046529Y005875D01*
X046499Y005831D01*
X046471Y005784D01*
D12*
X012524Y004657D02*
X012233Y004463D01*
X012524Y004270D01*
X012233Y004270D02*
X012233Y004850D01*
X011976Y004657D02*
X011686Y004657D01*
X011589Y004560D01*
X011589Y004367D01*
X011686Y004270D01*
X011976Y004270D01*
X011331Y004367D02*
X011331Y004560D01*
X011234Y004657D01*
X011041Y004657D01*
X010944Y004560D01*
X010944Y004367D01*
X011041Y004270D01*
X011234Y004270D01*
X011331Y004367D01*
X010708Y004270D02*
X010515Y004270D01*
X010611Y004270D02*
X010611Y004850D01*
X010515Y004850D01*
X010257Y004754D02*
X010160Y004850D01*
X009967Y004850D01*
X009870Y004754D01*
X009870Y004367D01*
X009967Y004270D01*
X010160Y004270D01*
X010257Y004367D01*
M02*
