%
M48
M72
T01C0.0180
T02C0.0315
T03C0.0400
T04C0.1290
%
T01
X7660Y1910
X7910Y2910
X8660Y2910
X9410Y2910
X7160Y2910
X6410Y2910
X5660Y2910
X12410Y2910
X15410Y3160
X15910Y3160
X19660Y3160
X20910Y2660
X24160Y2660
X24160Y3160
X24660Y3160
X24660Y3660
X24160Y3660
X27660Y3660
X28410Y3410
X29160Y3410
X31160Y3410
X31910Y3410
X33910Y3410
X34660Y3410
X38910Y2910
X39660Y2910
X40410Y2910
X41160Y2910
X41910Y2910
X42660Y2910
X40910Y1910
X44410Y1910
X44660Y1410
X44410Y910
X34660Y2660
X33910Y2660
X31910Y2660
X31160Y2660
X29160Y2660
X28410Y2660
X27410Y1910
X24160Y1910
X27660Y1410
X27410Y910
X20160Y660
X19910Y1160
X20160Y1660
X31160Y4160
X33910Y4160
X38910Y4410
X27160Y4660
X26660Y4660
X24160Y4660
X23660Y4660
X22160Y4910
X20910Y4410
X20410Y4410
X17910Y4410
X15410Y4910
X15910Y5660
X17910Y5910
X15410Y6410
X14410Y6160
X17910Y6535
X24160Y5910
T02
X46660Y5410
X47660Y5410
X19272Y2160
X18485Y2160
X17697Y2160
X16910Y2160
X16123Y2160
X15335Y2160
X14548Y2160
T03
X14910Y5660
X13910Y5660
X9160Y5660
X8160Y5660
X4160Y5660
X3160Y5660
X18910Y5660
X19910Y5660
X23410Y6160
X24910Y6160
X28410Y5660
X29410Y5660
X33410Y5660
X34410Y5660
X39160Y5660
X40160Y5660
X44160Y5660
X45160Y5660
T04
X1660Y1780
X46660Y1780
M30
