G75*
G70*
%OFA0B0*%
%FSLAX24Y24*%
%IPPOS*%
%LPD*%
%AMOC8*
5,1,8,0,0,1.08239X$1,22.5*
%
%ADD10C,0.1370*%
%ADD11C,0.0680*%
%ADD12R,0.0789X0.0230*%
%ADD13R,0.0595X0.0595*%
%ADD14C,0.0595*%
%ADD15R,0.0946X0.0631*%
%ADD16R,0.0946X0.0474*%
%ADD17R,0.0513X0.0474*%
%ADD18R,0.0395X0.0434*%
%ADD19R,0.0434X0.0395*%
%ADD20R,0.0474X0.0513*%
%ADD21R,0.0749X0.0218*%
%ADD22C,0.0090*%
%ADD23R,0.0592X0.0671*%
D10*
X001660Y001780D03*
X046660Y001780D03*
D11*
X045160Y005660D03*
X044160Y005660D03*
X040160Y005660D03*
X039160Y005660D03*
X034410Y005660D03*
X033410Y005660D03*
X029410Y005660D03*
X028410Y005660D03*
X024910Y006160D03*
X023410Y006160D03*
X019910Y005660D03*
X018910Y005660D03*
X014910Y005660D03*
X013910Y005660D03*
X009160Y005660D03*
X008160Y005660D03*
X004160Y005660D03*
X003160Y005660D03*
D12*
X022841Y005312D03*
X022841Y005056D03*
X022841Y004800D03*
X022841Y004544D03*
X022841Y004288D03*
X022841Y004032D03*
X022841Y003776D03*
X022841Y003520D03*
X022841Y003264D03*
X022841Y003008D03*
X025479Y003008D03*
X025479Y003264D03*
X025479Y003520D03*
X025479Y003776D03*
X025479Y004032D03*
X025479Y004288D03*
X025479Y004544D03*
X025479Y004800D03*
X025479Y005056D03*
X025479Y005312D03*
D13*
X014548Y002160D03*
X046660Y005410D03*
D14*
X047660Y005410D03*
X019272Y002160D03*
X018485Y002160D03*
X017697Y002160D03*
X016910Y002160D03*
X016123Y002160D03*
X015335Y002160D03*
D15*
X008684Y002119D03*
X006636Y002119D03*
X006636Y000701D03*
X008684Y000701D03*
X023136Y000701D03*
X025184Y000701D03*
X025184Y002119D03*
X023136Y002119D03*
X040136Y002119D03*
X042184Y002119D03*
X042184Y000701D03*
X040136Y000701D03*
D16*
X040136Y001410D03*
X042184Y001410D03*
X025184Y001410D03*
X023136Y001410D03*
X008684Y001410D03*
X006636Y001410D03*
D17*
X004825Y000660D03*
X005495Y000660D03*
X005495Y001410D03*
X004825Y001410D03*
X004825Y002160D03*
X005495Y002160D03*
X020825Y003160D03*
X021495Y003160D03*
X021325Y002160D03*
X021995Y002160D03*
X021995Y001410D03*
X021325Y001410D03*
X021325Y000660D03*
X021995Y000660D03*
X038325Y000660D03*
X038995Y000660D03*
X038995Y001410D03*
X038325Y001410D03*
X038325Y002160D03*
X038995Y002160D03*
X035245Y004160D03*
X034575Y004160D03*
X032495Y004160D03*
X031825Y004160D03*
X029745Y004160D03*
X029075Y004160D03*
X017245Y005410D03*
X016575Y005410D03*
X007245Y005660D03*
X006575Y005660D03*
X005745Y005660D03*
X005075Y005660D03*
X044325Y004660D03*
X044995Y004660D03*
D18*
X036054Y003304D03*
X035266Y003304D03*
X033304Y003304D03*
X032516Y003304D03*
X030554Y003304D03*
X029766Y003304D03*
X030160Y002516D03*
X032910Y002516D03*
X035660Y002516D03*
D19*
X026804Y005516D03*
X026016Y005910D03*
X026804Y006304D03*
D20*
X027660Y006245D03*
X027660Y005575D03*
D21*
X017093Y006154D03*
X016227Y006154D03*
X016227Y006410D03*
X017093Y006410D03*
X017093Y006666D03*
X016227Y006666D03*
D22*
X011844Y005865D02*
X011570Y005865D01*
X011570Y005455D01*
X011408Y005455D02*
X011340Y005455D01*
X011340Y005523D01*
X011408Y005523D01*
X011408Y005455D01*
X011153Y005523D02*
X011085Y005455D01*
X010880Y005455D01*
X010880Y005865D01*
X011085Y005865D01*
X011153Y005797D01*
X011153Y005729D01*
X011085Y005660D01*
X010880Y005660D01*
X011085Y005660D02*
X011153Y005592D01*
X011153Y005523D01*
X011570Y005660D02*
X011707Y005660D01*
D23*
X013036Y002910D03*
X013784Y002910D03*
M02*
