G75*
G70*
%OFA0B0*%
%FSLAX24Y24*%
%IPPOS*%
%LPD*%
%AMOC8*
5,1,8,0,0,1.08239X$1,22.5*
%
%ADD10C,0.0600*%
%ADD11R,0.0709X0.0150*%
%ADD12R,0.0515X0.0515*%
%ADD13C,0.0515*%
%ADD14R,0.0866X0.0551*%
%ADD15R,0.0866X0.0394*%
%ADD16R,0.0433X0.0394*%
%ADD17R,0.0315X0.0354*%
%ADD18R,0.0354X0.0315*%
%ADD19R,0.0394X0.0433*%
%ADD20R,0.0669X0.0138*%
%ADD21C,0.0090*%
%ADD22R,0.0512X0.0591*%
%ADD23C,0.0160*%
%ADD24C,0.0340*%
%ADD25C,0.0120*%
%ADD26C,0.0100*%
%ADD27C,0.0500*%
D10*
X003160Y005660D03*
X004160Y005660D03*
X008160Y005660D03*
X009160Y005660D03*
X013910Y005660D03*
X014910Y005660D03*
X018910Y005660D03*
X019910Y005660D03*
X023410Y006160D03*
X024910Y006160D03*
X028410Y005660D03*
X029410Y005660D03*
X033410Y005660D03*
X034410Y005660D03*
X039160Y005660D03*
X040160Y005660D03*
X044160Y005660D03*
X045160Y005660D03*
D11*
X025479Y005312D03*
X025479Y005056D03*
X025479Y004800D03*
X025479Y004544D03*
X025479Y004288D03*
X025479Y004032D03*
X025479Y003776D03*
X025479Y003520D03*
X025479Y003264D03*
X025479Y003008D03*
X022841Y003008D03*
X022841Y003264D03*
X022841Y003520D03*
X022841Y003776D03*
X022841Y004032D03*
X022841Y004288D03*
X022841Y004544D03*
X022841Y004800D03*
X022841Y005056D03*
X022841Y005312D03*
D12*
X014548Y002160D03*
X046660Y005410D03*
D13*
X047660Y005410D03*
X019272Y002160D03*
X018485Y002160D03*
X017697Y002160D03*
X016910Y002160D03*
X016123Y002160D03*
X015335Y002160D03*
D14*
X008684Y002119D03*
X006636Y002119D03*
X006636Y000701D03*
X008684Y000701D03*
X023136Y000701D03*
X025184Y000701D03*
X025184Y002119D03*
X023136Y002119D03*
X040136Y002119D03*
X042184Y002119D03*
X042184Y000701D03*
X040136Y000701D03*
D15*
X040136Y001410D03*
X042184Y001410D03*
X025184Y001410D03*
X023136Y001410D03*
X008684Y001410D03*
X006636Y001410D03*
D16*
X004825Y000660D03*
X005495Y000660D03*
X005495Y001410D03*
X004825Y001410D03*
X004825Y002160D03*
X005495Y002160D03*
X020825Y003160D03*
X021495Y003160D03*
X021325Y002160D03*
X021995Y002160D03*
X021995Y001410D03*
X021325Y001410D03*
X021325Y000660D03*
X021995Y000660D03*
X038325Y000660D03*
X038995Y000660D03*
X038995Y001410D03*
X038325Y001410D03*
X038325Y002160D03*
X038995Y002160D03*
X035245Y004160D03*
X034575Y004160D03*
X032495Y004160D03*
X031825Y004160D03*
X029745Y004160D03*
X029075Y004160D03*
X017245Y005410D03*
X016575Y005410D03*
X007245Y005660D03*
X006575Y005660D03*
X005745Y005660D03*
X005075Y005660D03*
X044325Y004660D03*
X044995Y004660D03*
D17*
X036054Y003304D03*
X035266Y003304D03*
X033304Y003304D03*
X032516Y003304D03*
X030554Y003304D03*
X029766Y003304D03*
X030160Y002516D03*
X032910Y002516D03*
X035660Y002516D03*
D18*
X026804Y005516D03*
X026016Y005910D03*
X026804Y006304D03*
D19*
X027660Y006245D03*
X027660Y005575D03*
D20*
X017093Y006154D03*
X016227Y006154D03*
X016227Y006410D03*
X017093Y006410D03*
X017093Y006666D03*
X016227Y006666D03*
D21*
X011844Y005865D02*
X011570Y005865D01*
X011570Y005455D01*
X011408Y005455D02*
X011340Y005455D01*
X011340Y005523D01*
X011408Y005523D01*
X011408Y005455D01*
X011153Y005523D02*
X011085Y005455D01*
X010880Y005455D01*
X010880Y005865D01*
X011085Y005865D01*
X011153Y005797D01*
X011153Y005729D01*
X011085Y005660D01*
X010880Y005660D01*
X011085Y005660D02*
X011153Y005592D01*
X011153Y005523D01*
X011570Y005660D02*
X011707Y005660D01*
X001615Y005710D02*
X001615Y005436D01*
X001341Y005436D02*
X001205Y005573D01*
X001615Y005573D01*
X001410Y005897D02*
X001410Y006170D01*
X001615Y006102D02*
X001205Y006102D01*
X001410Y005897D01*
X001205Y005249D02*
X001615Y004976D01*
X001547Y004789D02*
X001273Y004789D01*
X001205Y004721D01*
X001205Y004584D01*
X001273Y004515D01*
X001341Y004515D01*
X001410Y004584D01*
X001410Y004789D01*
X001547Y004789D02*
X001615Y004721D01*
X001615Y004584D01*
X001547Y004515D01*
X001547Y004329D02*
X001273Y004329D01*
X001547Y004055D01*
X001615Y004123D01*
X001615Y004260D01*
X001547Y004329D01*
X001273Y004329D02*
X001205Y004260D01*
X001205Y004123D01*
X001273Y004055D01*
X001547Y004055D01*
D22*
X013036Y002910D03*
X013784Y002910D03*
D23*
X014410Y002910D01*
X014548Y002772D01*
X014548Y002160D01*
X013660Y001410D02*
X013160Y001910D01*
X010660Y001910D01*
X010451Y002119D01*
X009951Y002119D01*
X008051Y002062D02*
X007269Y002062D01*
X007269Y001904D02*
X008051Y001904D01*
X008051Y001760D02*
X008086Y001725D01*
X008051Y001690D01*
X008051Y001130D01*
X008086Y001095D01*
X008051Y001060D01*
X008051Y000410D01*
X007269Y000410D01*
X007269Y001060D01*
X007234Y001095D01*
X007269Y001130D01*
X007269Y001690D01*
X007234Y001725D01*
X007269Y001760D01*
X007269Y002477D01*
X007152Y002594D01*
X006120Y002594D01*
X006003Y002477D01*
X006003Y002440D01*
X005911Y002440D01*
X005794Y002557D01*
X005410Y002557D01*
X005410Y004630D01*
X009660Y004630D01*
X009660Y002569D01*
X009225Y002569D01*
X009200Y002594D01*
X008168Y002594D01*
X008051Y002477D01*
X008051Y001760D01*
X008066Y001745D02*
X007254Y001745D01*
X007269Y001587D02*
X008051Y001587D01*
X008051Y001428D02*
X007269Y001428D01*
X007269Y001270D02*
X008051Y001270D01*
X008070Y001111D02*
X007250Y001111D01*
X007269Y000953D02*
X008051Y000953D01*
X008051Y000794D02*
X007269Y000794D01*
X007269Y000636D02*
X008051Y000636D01*
X008051Y000477D02*
X007269Y000477D01*
X006636Y000701D02*
X006504Y000660D01*
X005495Y000660D01*
X004825Y000660D02*
X004825Y001410D01*
X004825Y002160D01*
X004825Y002745D01*
X003160Y004410D01*
X003160Y004910D01*
X006160Y004910D01*
X006160Y005660D01*
X006575Y005660D01*
X006160Y005660D02*
X005745Y005660D01*
X003160Y005660D02*
X003160Y004910D01*
X005410Y004598D02*
X009660Y004598D01*
X009660Y004440D02*
X005410Y004440D01*
X005410Y004281D02*
X009660Y004281D01*
X009660Y004123D02*
X005410Y004123D01*
X005410Y003964D02*
X009660Y003964D01*
X009660Y003806D02*
X005410Y003806D01*
X005410Y003647D02*
X009660Y003647D01*
X009660Y003489D02*
X005410Y003489D01*
X005410Y003330D02*
X009660Y003330D01*
X009660Y003172D02*
X005410Y003172D01*
X005410Y003013D02*
X009660Y003013D01*
X009660Y002855D02*
X005410Y002855D01*
X005410Y002696D02*
X009660Y002696D01*
X008111Y002538D02*
X007209Y002538D01*
X007269Y002379D02*
X008051Y002379D01*
X008051Y002221D02*
X007269Y002221D01*
X006636Y002119D02*
X006504Y002160D01*
X005495Y002160D01*
X005813Y002538D02*
X006064Y002538D01*
X012410Y002910D02*
X013036Y002910D01*
X014410Y002910D02*
X014410Y004410D01*
X017910Y004410D01*
X020910Y004410D01*
X022841Y004288D02*
X023282Y004288D01*
X023410Y004160D01*
X023282Y004032D01*
X022841Y004032D01*
X023532Y004288D02*
X023910Y003910D01*
X023910Y002910D01*
X023660Y003160D02*
X023508Y003008D01*
X022841Y003008D01*
X022258Y003008D01*
X021910Y002660D01*
X021495Y002660D01*
X021495Y003160D01*
X020825Y003160D02*
X019660Y003160D01*
X020910Y002660D02*
X021325Y002660D01*
X021495Y002660D01*
X021325Y002660D02*
X021325Y002160D01*
X021325Y001410D01*
X021325Y000660D01*
X021995Y000660D02*
X023254Y000660D01*
X023136Y000701D01*
X020160Y000660D02*
X019410Y000660D01*
X019160Y000410D01*
X013160Y000410D01*
X012660Y000910D01*
X010660Y000910D01*
X010451Y000701D01*
X009951Y000701D01*
X012910Y001410D02*
X013410Y000910D01*
X018910Y000910D01*
X019160Y001160D01*
X019910Y001160D01*
X018910Y001660D02*
X018660Y001410D01*
X013660Y001410D01*
X012910Y001410D02*
X009910Y001410D01*
X006636Y001410D02*
X005495Y001410D01*
X018910Y001660D02*
X020160Y001660D01*
X021995Y001410D02*
X023136Y001410D01*
X026410Y001410D02*
X027660Y001410D01*
X032410Y001410D01*
X032910Y001910D01*
X032910Y002516D01*
X033227Y002538D02*
X035343Y002538D01*
X035660Y002516D02*
X035660Y001410D01*
X035160Y000910D01*
X027410Y000910D01*
X027160Y000910D01*
X026951Y000701D01*
X026451Y000701D01*
X027160Y001910D02*
X026951Y002119D01*
X026451Y002119D01*
X027160Y001910D02*
X027410Y001910D01*
X029910Y001910D01*
X030160Y002160D01*
X030160Y002516D01*
X030477Y002538D02*
X032593Y002538D01*
X032593Y002410D02*
X030477Y002410D01*
X030477Y002760D01*
X030384Y002853D01*
X029936Y002853D01*
X029843Y002760D01*
X029843Y002410D01*
X028160Y002410D01*
X028160Y003660D01*
X029582Y003660D01*
X029539Y003649D01*
X029498Y003625D01*
X029465Y003591D01*
X029441Y003550D01*
X029429Y003505D01*
X029429Y003304D01*
X029766Y003304D01*
X029766Y003304D01*
X029429Y003304D01*
X029429Y003103D01*
X029441Y003057D01*
X029465Y003016D01*
X029498Y002982D01*
X029539Y002959D01*
X029585Y002947D01*
X029766Y002947D01*
X029766Y003304D01*
X029766Y003304D01*
X030104Y003304D01*
X030104Y003505D01*
X030092Y003550D01*
X030068Y003591D01*
X030034Y003625D01*
X029993Y003649D01*
X029951Y003660D01*
X030344Y003660D01*
X030344Y003641D01*
X030330Y003641D01*
X030236Y003547D01*
X030236Y003060D01*
X030330Y002967D01*
X030777Y002967D01*
X030871Y003060D01*
X030871Y003547D01*
X030777Y003641D01*
X030764Y003641D01*
X030764Y003660D01*
X032332Y003660D01*
X032289Y003649D01*
X032248Y003625D01*
X032215Y003591D01*
X032191Y003550D01*
X032179Y003505D01*
X032179Y003304D01*
X032516Y003304D01*
X032516Y003304D01*
X032179Y003304D01*
X032179Y003103D01*
X032191Y003057D01*
X032215Y003016D01*
X032248Y002982D01*
X032289Y002959D01*
X032335Y002947D01*
X032516Y002947D01*
X032516Y003304D01*
X032516Y003304D01*
X032854Y003304D01*
X032854Y003505D01*
X032842Y003550D01*
X032818Y003591D01*
X032784Y003625D01*
X032743Y003649D01*
X032701Y003660D01*
X033094Y003660D01*
X033094Y003641D01*
X033080Y003641D01*
X032986Y003547D01*
X032986Y003060D01*
X033080Y002967D01*
X033527Y002967D01*
X033621Y003060D01*
X033621Y003547D01*
X033527Y003641D01*
X033514Y003641D01*
X033514Y003660D01*
X035082Y003660D01*
X035039Y003649D01*
X034998Y003625D01*
X034965Y003591D01*
X034941Y003550D01*
X034929Y003505D01*
X034929Y003304D01*
X035266Y003304D01*
X035266Y003304D01*
X034929Y003304D01*
X034929Y003103D01*
X034941Y003057D01*
X034965Y003016D01*
X034998Y002982D01*
X035039Y002959D01*
X035085Y002947D01*
X035266Y002947D01*
X035266Y003304D01*
X035266Y003304D01*
X035604Y003304D01*
X035604Y003505D01*
X035592Y003550D01*
X035568Y003591D01*
X035534Y003625D01*
X035493Y003649D01*
X035451Y003660D01*
X035844Y003660D01*
X035844Y003641D01*
X035830Y003641D01*
X035736Y003547D01*
X035736Y003060D01*
X035830Y002967D01*
X036277Y002967D01*
X036371Y003060D01*
X036371Y003547D01*
X036277Y003641D01*
X036264Y003641D01*
X036264Y003660D01*
X036660Y003660D01*
X036660Y002410D01*
X035977Y002410D01*
X035977Y002760D01*
X035884Y002853D01*
X035436Y002853D01*
X035343Y002760D01*
X035343Y002410D01*
X033227Y002410D01*
X033227Y002760D01*
X033134Y002853D01*
X032686Y002853D01*
X032593Y002760D01*
X032593Y002410D01*
X032593Y002696D02*
X030477Y002696D01*
X029843Y002696D02*
X028160Y002696D01*
X028160Y002538D02*
X029843Y002538D01*
X028160Y002855D02*
X036660Y002855D01*
X036660Y003013D02*
X036324Y003013D01*
X035783Y003013D02*
X035565Y003013D01*
X035568Y003016D02*
X035592Y003057D01*
X035604Y003103D01*
X035604Y003304D01*
X035266Y003304D01*
X035266Y003304D01*
X035266Y002947D01*
X035447Y002947D01*
X035493Y002959D01*
X035534Y002982D01*
X035568Y003016D01*
X035266Y003013D02*
X035266Y003013D01*
X034968Y003013D02*
X033574Y003013D01*
X033033Y003013D02*
X032815Y003013D01*
X032818Y003016D02*
X032842Y003057D01*
X032854Y003103D01*
X032854Y003304D01*
X032516Y003304D01*
X032516Y003304D01*
X032516Y002947D01*
X032697Y002947D01*
X032743Y002959D01*
X032784Y002982D01*
X032818Y003016D01*
X032516Y003013D02*
X032516Y003013D01*
X032218Y003013D02*
X030824Y003013D01*
X030283Y003013D02*
X030065Y003013D01*
X030068Y003016D02*
X030092Y003057D01*
X030104Y003103D01*
X030104Y003304D01*
X029766Y003304D01*
X029766Y003304D01*
X029766Y002947D01*
X029947Y002947D01*
X029993Y002959D01*
X030034Y002982D01*
X030068Y003016D01*
X029766Y003013D02*
X029766Y003013D01*
X029468Y003013D02*
X028160Y003013D01*
X028160Y003172D02*
X029429Y003172D01*
X029766Y003172D02*
X029766Y003172D01*
X030104Y003172D02*
X030236Y003172D01*
X030871Y003172D02*
X032179Y003172D01*
X032516Y003172D02*
X032516Y003172D01*
X032854Y003172D02*
X032986Y003172D01*
X033621Y003172D02*
X034929Y003172D01*
X035266Y003172D02*
X035266Y003172D01*
X035604Y003172D02*
X035736Y003172D01*
X035736Y003330D02*
X035604Y003330D01*
X034929Y003330D02*
X033621Y003330D01*
X032986Y003330D02*
X032854Y003330D01*
X032179Y003330D02*
X030871Y003330D01*
X030236Y003330D02*
X030104Y003330D01*
X030104Y003489D02*
X030236Y003489D01*
X030871Y003489D02*
X032179Y003489D01*
X032854Y003489D02*
X032986Y003489D01*
X033621Y003489D02*
X034929Y003489D01*
X035604Y003489D02*
X035736Y003489D01*
X035844Y003647D02*
X035496Y003647D01*
X035037Y003647D02*
X033514Y003647D01*
X033094Y003647D02*
X032746Y003647D01*
X032287Y003647D02*
X030764Y003647D01*
X030344Y003647D02*
X029996Y003647D01*
X029537Y003647D02*
X028160Y003647D01*
X028160Y003489D02*
X029429Y003489D01*
X029429Y003330D02*
X028160Y003330D01*
X026660Y003410D02*
X026660Y004032D01*
X026660Y004660D01*
X028160Y004660D01*
X028410Y004910D01*
X028410Y005660D01*
X028410Y004910D02*
X038410Y004910D01*
X038410Y002910D01*
X038325Y002825D01*
X038325Y002160D01*
X038325Y001410D01*
X038325Y000660D01*
X038995Y000660D02*
X040004Y000660D01*
X040136Y000701D01*
X040769Y000636D02*
X041551Y000636D01*
X041551Y000794D02*
X040769Y000794D01*
X040769Y000953D02*
X041551Y000953D01*
X041551Y001060D02*
X041551Y000410D01*
X040769Y000410D01*
X040769Y001060D01*
X040734Y001095D01*
X040769Y001130D01*
X040769Y001690D01*
X040734Y001725D01*
X040769Y001760D01*
X040769Y002477D01*
X040652Y002594D01*
X039620Y002594D01*
X039503Y002477D01*
X039503Y002440D01*
X039411Y002440D01*
X039294Y002557D01*
X038695Y002557D01*
X038660Y002522D01*
X038660Y002782D01*
X038690Y002854D01*
X038690Y004107D01*
X038700Y004096D01*
X038836Y004040D01*
X038984Y004040D01*
X039120Y004096D01*
X039183Y004160D01*
X039306Y004160D01*
X039518Y003948D01*
X039610Y003910D01*
X042910Y003910D01*
X042910Y002569D01*
X042725Y002569D01*
X042700Y002594D01*
X041668Y002594D01*
X041551Y002477D01*
X041551Y001760D01*
X041586Y001725D01*
X041551Y001690D01*
X041551Y001130D01*
X041586Y001095D01*
X041551Y001060D01*
X041570Y001111D02*
X040750Y001111D01*
X040769Y001270D02*
X041551Y001270D01*
X041551Y001428D02*
X040769Y001428D01*
X040136Y001410D02*
X038995Y001410D01*
X040769Y001587D02*
X041551Y001587D01*
X041566Y001745D02*
X040754Y001745D01*
X040769Y001904D02*
X041551Y001904D01*
X041551Y002062D02*
X040769Y002062D01*
X040136Y002119D02*
X040004Y002160D01*
X038995Y002160D01*
X040769Y002221D02*
X041551Y002221D01*
X041551Y002379D02*
X040769Y002379D01*
X040709Y002538D02*
X041611Y002538D01*
X042910Y002696D02*
X038660Y002696D01*
X038660Y002538D02*
X038676Y002538D01*
X039313Y002538D02*
X039564Y002538D01*
X038690Y002855D02*
X042910Y002855D01*
X042910Y003013D02*
X038690Y003013D01*
X038690Y003172D02*
X042910Y003172D01*
X042910Y003330D02*
X038690Y003330D01*
X038690Y003489D02*
X042910Y003489D01*
X042910Y003647D02*
X038690Y003647D01*
X038690Y003806D02*
X042910Y003806D01*
X039502Y003964D02*
X038690Y003964D01*
X039146Y004123D02*
X039344Y004123D01*
X039910Y004660D02*
X044325Y004660D01*
X039910Y004660D02*
X039660Y004910D01*
X039160Y004910D01*
X039160Y005660D01*
X039160Y004910D02*
X038410Y004910D01*
X036660Y003647D02*
X036264Y003647D01*
X036371Y003489D02*
X036660Y003489D01*
X036660Y003330D02*
X036371Y003330D01*
X036371Y003172D02*
X036660Y003172D01*
X036660Y002696D02*
X035977Y002696D01*
X035343Y002696D02*
X033227Y002696D01*
X035977Y002538D02*
X036660Y002538D01*
X043451Y002119D02*
X043951Y002119D01*
X044160Y001910D01*
X044410Y001910D01*
X044660Y001410D02*
X043410Y001410D01*
X043951Y000701D02*
X044160Y000910D01*
X044410Y000910D01*
X043951Y000701D02*
X043451Y000701D01*
X041551Y000477D02*
X040769Y000477D01*
X026660Y003410D02*
X026258Y003008D01*
X025479Y003008D01*
X023660Y003160D02*
X023660Y003660D01*
X023544Y003776D01*
X022841Y003776D01*
X025479Y004032D02*
X026660Y004032D01*
X023532Y004288D02*
X022841Y004288D01*
X014410Y004410D02*
X013910Y004910D01*
X013910Y005660D01*
X013910Y004910D02*
X006160Y004910D01*
X021995Y002160D02*
X023254Y002160D01*
X023136Y002119D01*
D24*
X024160Y001910D03*
X027410Y001910D03*
X027660Y001410D03*
X027410Y000910D03*
X020160Y000660D03*
X019910Y001160D03*
X020160Y001660D03*
X020910Y002660D03*
X019660Y003160D03*
X015910Y003160D03*
X015410Y003160D03*
X012410Y002910D03*
X009410Y002910D03*
X008660Y002910D03*
X007910Y002910D03*
X007160Y002910D03*
X006410Y002910D03*
X005660Y002910D03*
X007660Y001910D03*
X017910Y004410D03*
X020410Y004410D03*
X020910Y004410D03*
X023660Y004660D03*
X024160Y004660D03*
X022160Y004910D03*
X026660Y004660D03*
X027160Y004660D03*
X031160Y004160D03*
X033910Y004160D03*
X033910Y003410D03*
X034660Y003410D03*
X031910Y003410D03*
X031160Y003410D03*
X029160Y003410D03*
X028410Y003410D03*
X027660Y003660D03*
X024660Y003660D03*
X024160Y003660D03*
X024160Y003160D03*
X024660Y003160D03*
X024160Y002660D03*
X028410Y002660D03*
X029160Y002660D03*
X031160Y002660D03*
X031910Y002660D03*
X033910Y002660D03*
X034660Y002660D03*
X038910Y002910D03*
X039660Y002910D03*
X040410Y002910D03*
X041160Y002910D03*
X041910Y002910D03*
X042660Y002910D03*
X040910Y001910D03*
X044410Y001910D03*
X044660Y001410D03*
X044410Y000910D03*
X038910Y004410D03*
X024160Y005910D03*
X017910Y005910D03*
X015910Y005660D03*
X014410Y006160D03*
X015410Y006410D03*
X017910Y006535D03*
X015410Y004910D03*
D25*
X022910Y004288D02*
X023355Y004288D01*
X023355Y004374D01*
X023375Y004394D01*
X023375Y004450D01*
X023462Y004363D01*
X023590Y004310D01*
X023730Y004310D01*
X023858Y004363D01*
X023910Y004415D01*
X023962Y004363D01*
X024090Y004310D01*
X024230Y004310D01*
X024358Y004363D01*
X024457Y004462D01*
X024510Y004590D01*
X024510Y004730D01*
X024457Y004858D01*
X024358Y004957D01*
X024230Y005010D01*
X024135Y005010D01*
X023994Y005151D01*
X023985Y005160D01*
X024235Y005410D01*
X024965Y005410D01*
X024965Y005407D01*
X024965Y005312D01*
X025410Y005312D01*
X025410Y005312D01*
X024965Y005312D01*
X024965Y005225D01*
X024945Y005205D01*
X024945Y003883D01*
X024965Y003863D01*
X024965Y003776D01*
X024965Y003680D01*
X024973Y003648D01*
X024965Y003616D01*
X024965Y003520D01*
X024965Y003424D01*
X024973Y003392D01*
X024965Y003360D01*
X024965Y003264D01*
X024965Y003178D01*
X024945Y003158D01*
X024945Y002859D01*
X025050Y002754D01*
X025415Y002754D01*
X025427Y002748D01*
X026310Y002748D01*
X026406Y002788D01*
X026410Y002792D01*
X026410Y002549D01*
X025717Y002549D01*
X025691Y002574D01*
X024676Y002574D01*
X024571Y002469D01*
X024571Y001769D01*
X024614Y001725D01*
X024571Y001681D01*
X024571Y001139D01*
X024614Y001095D01*
X024571Y001051D01*
X024571Y000410D01*
X023749Y000410D01*
X023749Y001051D01*
X023706Y001095D01*
X023749Y001139D01*
X023749Y001681D01*
X023706Y001725D01*
X023749Y001769D01*
X023749Y002469D01*
X023644Y002574D01*
X022629Y002574D01*
X022523Y002469D01*
X022523Y002420D01*
X022391Y002420D01*
X022391Y002431D01*
X022286Y002537D01*
X022160Y002537D01*
X022160Y002542D01*
X022366Y002748D01*
X023560Y002748D01*
X023656Y002788D01*
X023880Y003013D01*
X023920Y003108D01*
X023920Y003712D01*
X023880Y003807D01*
X023807Y003880D01*
X023691Y003997D01*
X023596Y004036D01*
X023355Y004036D01*
X023355Y004128D01*
X023347Y004160D01*
X023355Y004192D01*
X023355Y004288D01*
X022910Y004288D01*
X022910Y004288D01*
X023355Y004308D02*
X024945Y004308D01*
X024945Y004189D02*
X023355Y004189D01*
X023355Y004071D02*
X024945Y004071D01*
X024945Y003952D02*
X023736Y003952D01*
X023854Y003834D02*
X024965Y003834D01*
X024965Y003776D02*
X025410Y003776D01*
X024965Y003776D01*
X024965Y003715D02*
X023919Y003715D01*
X023920Y003597D02*
X024965Y003597D01*
X024965Y003520D02*
X025410Y003520D01*
X024965Y003520D01*
X024965Y003478D02*
X023920Y003478D01*
X023920Y003360D02*
X024965Y003360D01*
X024965Y003264D02*
X025410Y003264D01*
X024965Y003264D01*
X024965Y003241D02*
X023920Y003241D01*
X023920Y003123D02*
X024945Y003123D01*
X024945Y003004D02*
X023872Y003004D01*
X023753Y002886D02*
X024945Y002886D01*
X025037Y002767D02*
X023605Y002767D01*
X022266Y002649D02*
X026410Y002649D01*
X026410Y002767D02*
X026355Y002767D01*
X024632Y002530D02*
X023688Y002530D01*
X023749Y002412D02*
X024571Y002412D01*
X024571Y002293D02*
X023749Y002293D01*
X023749Y002175D02*
X024571Y002175D01*
X024571Y002056D02*
X023749Y002056D01*
X023749Y001938D02*
X024571Y001938D01*
X024571Y001819D02*
X023749Y001819D01*
X023730Y001701D02*
X024590Y001701D01*
X024571Y001582D02*
X023749Y001582D01*
X023749Y001464D02*
X024571Y001464D01*
X024571Y001345D02*
X023749Y001345D01*
X023749Y001227D02*
X024571Y001227D01*
X024601Y001108D02*
X023719Y001108D01*
X023749Y000990D02*
X024571Y000990D01*
X024571Y000871D02*
X023749Y000871D01*
X023749Y000753D02*
X024571Y000753D01*
X024571Y000634D02*
X023749Y000634D01*
X023749Y000516D02*
X024571Y000516D01*
X022585Y002530D02*
X022293Y002530D01*
X025410Y003264D02*
X025410Y003264D01*
X025410Y003520D02*
X025410Y003520D01*
X025410Y003776D02*
X025410Y003776D01*
X024945Y004426D02*
X024421Y004426D01*
X024491Y004545D02*
X024945Y004545D01*
X024945Y004663D02*
X024510Y004663D01*
X024489Y004782D02*
X024945Y004782D01*
X024945Y004900D02*
X024415Y004900D01*
X024127Y005019D02*
X024945Y005019D01*
X024945Y005137D02*
X024008Y005137D01*
X024081Y005256D02*
X024965Y005256D01*
X025479Y005312D02*
X026062Y005312D01*
X026410Y005660D01*
X026410Y006160D01*
X026554Y006304D01*
X026804Y006304D01*
X025660Y005910D02*
X025410Y006160D01*
X024910Y006160D01*
X025660Y005910D02*
X026016Y005910D01*
X024965Y005374D02*
X024199Y005374D01*
X023399Y004426D02*
X023375Y004426D01*
D26*
X022841Y004544D02*
X022276Y004544D01*
X022160Y004660D01*
X022160Y004910D01*
X022841Y004800D02*
X023520Y004800D01*
X023660Y004660D01*
X023764Y005056D02*
X024160Y004660D01*
X026038Y004288D02*
X026160Y004410D01*
X026160Y004910D01*
X026410Y005160D01*
X027410Y005160D01*
X027660Y005410D01*
X027660Y005575D01*
X027160Y005660D02*
X027160Y006160D01*
X027245Y006245D01*
X027660Y006245D01*
X028410Y006660D02*
X028910Y006160D01*
X028910Y005410D01*
X029160Y005160D01*
X032910Y005160D01*
X033410Y005660D01*
X033410Y006160D01*
X033660Y006410D01*
X039410Y006410D01*
X039660Y006160D01*
X039660Y005410D01*
X039910Y005160D01*
X042410Y005160D01*
X042910Y005660D01*
X044160Y005660D01*
X045410Y004660D02*
X046160Y005410D01*
X046660Y005410D01*
X047660Y005410D02*
X047660Y004660D01*
X047160Y004160D01*
X039660Y004160D01*
X039410Y004410D01*
X038910Y004410D01*
X036054Y003766D02*
X035660Y004160D01*
X035245Y004160D01*
X034575Y004160D02*
X033910Y004160D01*
X033304Y003766D02*
X032910Y004160D01*
X032495Y004160D01*
X031825Y004160D02*
X031160Y004160D01*
X030554Y003766D02*
X030160Y004160D01*
X029745Y004160D01*
X029075Y004160D02*
X028160Y004160D01*
X027660Y003660D01*
X030554Y003766D02*
X030554Y003304D01*
X033304Y003304D02*
X033304Y003766D01*
X036054Y003766D02*
X036054Y003304D01*
X044995Y004660D02*
X045410Y004660D01*
X040160Y005660D02*
X040160Y006160D01*
X039660Y006660D01*
X029410Y006660D01*
X028910Y006660D01*
X028660Y006910D01*
X015160Y006910D01*
X014910Y006660D01*
X014910Y005660D01*
X015160Y005660D01*
X015654Y006154D01*
X016227Y006154D01*
X017093Y006154D02*
X017666Y006154D01*
X017910Y005910D01*
X017910Y005660D01*
X017660Y005410D01*
X017245Y005410D01*
X016575Y005410D02*
X016160Y005410D01*
X015910Y005660D01*
X014910Y004910D02*
X014410Y005410D01*
X014410Y006160D01*
X014160Y006410D01*
X008410Y006410D01*
X008160Y006160D01*
X008160Y005660D01*
X007245Y005660D01*
X005075Y005660D02*
X004160Y005660D01*
X004160Y006410D01*
X004410Y006660D01*
X014910Y006660D01*
X015410Y006410D02*
X015666Y006666D01*
X016227Y006666D01*
X017093Y006666D02*
X017099Y006660D01*
X017535Y006660D01*
X017660Y006535D01*
X017535Y006410D01*
X017093Y006410D01*
X017660Y006535D02*
X017910Y006535D01*
X018910Y006160D02*
X019410Y006660D01*
X028410Y006660D01*
X029410Y006660D02*
X029410Y005660D01*
X027160Y005660D02*
X027016Y005516D01*
X026804Y005516D01*
X024160Y005660D02*
X024160Y005910D01*
X024160Y005660D02*
X023812Y005312D01*
X022841Y005312D01*
X022841Y005056D02*
X023764Y005056D01*
X018910Y005160D02*
X018660Y004910D01*
X015410Y004910D01*
X014910Y004910D01*
X018910Y005160D02*
X018910Y005660D01*
X018910Y006160D01*
X025479Y004288D02*
X026038Y004288D01*
X022300Y003520D02*
X021910Y003910D01*
X016160Y003910D01*
X015410Y003160D01*
X015910Y003160D02*
X015335Y002585D01*
X015335Y002160D01*
X015910Y003160D02*
X016410Y003660D01*
X021660Y003660D01*
X022056Y003264D01*
X022841Y003264D01*
X022841Y003520D02*
X022300Y003520D01*
D27*
X025184Y002119D02*
X026451Y002119D01*
X026410Y001410D02*
X025184Y001410D01*
X025184Y000701D02*
X026451Y000701D01*
X042184Y000701D02*
X043451Y000701D01*
X043410Y001410D02*
X042184Y001410D01*
X042184Y002119D02*
X043451Y002119D01*
X009951Y002119D02*
X008684Y002119D01*
X008684Y001410D02*
X009910Y001410D01*
X009951Y000701D02*
X008684Y000701D01*
M02*
