G75*
G70*
%OFA0B0*%
%FSLAX24Y24*%
%IPPOS*%
%LPD*%
%AMOC8*
5,1,8,0,0,1.08239X$1,22.5*
%
%ADD10C,0.0000*%
D10*
X000160Y000160D02*
X000160Y007160D01*
X048160Y007160D01*
X048160Y000160D01*
X000160Y000160D01*
X001015Y001780D02*
X001017Y001831D01*
X001023Y001881D01*
X001033Y001931D01*
X001047Y001979D01*
X001064Y002027D01*
X001085Y002073D01*
X001110Y002117D01*
X001138Y002159D01*
X001170Y002199D01*
X001204Y002236D01*
X001241Y002270D01*
X001281Y002302D01*
X001323Y002330D01*
X001367Y002355D01*
X001413Y002376D01*
X001461Y002393D01*
X001509Y002407D01*
X001559Y002417D01*
X001609Y002423D01*
X001660Y002425D01*
X001711Y002423D01*
X001761Y002417D01*
X001811Y002407D01*
X001859Y002393D01*
X001907Y002376D01*
X001953Y002355D01*
X001997Y002330D01*
X002039Y002302D01*
X002079Y002270D01*
X002116Y002236D01*
X002150Y002199D01*
X002182Y002159D01*
X002210Y002117D01*
X002235Y002073D01*
X002256Y002027D01*
X002273Y001979D01*
X002287Y001931D01*
X002297Y001881D01*
X002303Y001831D01*
X002305Y001780D01*
X002303Y001729D01*
X002297Y001679D01*
X002287Y001629D01*
X002273Y001581D01*
X002256Y001533D01*
X002235Y001487D01*
X002210Y001443D01*
X002182Y001401D01*
X002150Y001361D01*
X002116Y001324D01*
X002079Y001290D01*
X002039Y001258D01*
X001997Y001230D01*
X001953Y001205D01*
X001907Y001184D01*
X001859Y001167D01*
X001811Y001153D01*
X001761Y001143D01*
X001711Y001137D01*
X001660Y001135D01*
X001609Y001137D01*
X001559Y001143D01*
X001509Y001153D01*
X001461Y001167D01*
X001413Y001184D01*
X001367Y001205D01*
X001323Y001230D01*
X001281Y001258D01*
X001241Y001290D01*
X001204Y001324D01*
X001170Y001361D01*
X001138Y001401D01*
X001110Y001443D01*
X001085Y001487D01*
X001064Y001533D01*
X001047Y001581D01*
X001033Y001629D01*
X001023Y001679D01*
X001017Y001729D01*
X001015Y001780D01*
X046015Y001780D02*
X046017Y001831D01*
X046023Y001881D01*
X046033Y001931D01*
X046047Y001979D01*
X046064Y002027D01*
X046085Y002073D01*
X046110Y002117D01*
X046138Y002159D01*
X046170Y002199D01*
X046204Y002236D01*
X046241Y002270D01*
X046281Y002302D01*
X046323Y002330D01*
X046367Y002355D01*
X046413Y002376D01*
X046461Y002393D01*
X046509Y002407D01*
X046559Y002417D01*
X046609Y002423D01*
X046660Y002425D01*
X046711Y002423D01*
X046761Y002417D01*
X046811Y002407D01*
X046859Y002393D01*
X046907Y002376D01*
X046953Y002355D01*
X046997Y002330D01*
X047039Y002302D01*
X047079Y002270D01*
X047116Y002236D01*
X047150Y002199D01*
X047182Y002159D01*
X047210Y002117D01*
X047235Y002073D01*
X047256Y002027D01*
X047273Y001979D01*
X047287Y001931D01*
X047297Y001881D01*
X047303Y001831D01*
X047305Y001780D01*
X047303Y001729D01*
X047297Y001679D01*
X047287Y001629D01*
X047273Y001581D01*
X047256Y001533D01*
X047235Y001487D01*
X047210Y001443D01*
X047182Y001401D01*
X047150Y001361D01*
X047116Y001324D01*
X047079Y001290D01*
X047039Y001258D01*
X046997Y001230D01*
X046953Y001205D01*
X046907Y001184D01*
X046859Y001167D01*
X046811Y001153D01*
X046761Y001143D01*
X046711Y001137D01*
X046660Y001135D01*
X046609Y001137D01*
X046559Y001143D01*
X046509Y001153D01*
X046461Y001167D01*
X046413Y001184D01*
X046367Y001205D01*
X046323Y001230D01*
X046281Y001258D01*
X046241Y001290D01*
X046204Y001324D01*
X046170Y001361D01*
X046138Y001401D01*
X046110Y001443D01*
X046085Y001487D01*
X046064Y001533D01*
X046047Y001581D01*
X046033Y001629D01*
X046023Y001679D01*
X046017Y001729D01*
X046015Y001780D01*
M02*
