G75*
G70*
%OFA0B0*%
%FSLAX24Y24*%
%IPPOS*%
%LPD*%
%AMOC8*
5,1,8,0,0,1.08239X$1,22.5*
%
%ADD10R,0.0866X0.0236*%
%ADD11R,0.0906X0.0906*%
%ADD12R,0.0709X0.0630*%
%ADD13R,0.0394X0.0433*%
%ADD14R,0.0433X0.0394*%
%ADD15R,0.0860X0.0800*%
%ADD16R,0.0630X0.0709*%
%ADD17R,0.0594X0.0594*%
%ADD18OC8,0.0594*%
%ADD19C,0.0240*%
%ADD20C,0.0400*%
%ADD21C,0.0900*%
%ADD22C,0.0100*%
%ADD23C,0.0480*%
D10*
X003670Y001970D03*
X003670Y002470D03*
X003670Y002970D03*
X003670Y003470D03*
X005770Y003470D03*
X005770Y002970D03*
X005770Y002470D03*
X005770Y001970D03*
D11*
X004720Y002720D03*
D12*
X007220Y003669D03*
X007220Y004771D03*
X002220Y002771D03*
X002220Y001669D03*
D13*
X002220Y003635D03*
X002220Y004305D03*
D14*
X004385Y001220D03*
X005055Y001220D03*
D15*
X007220Y000820D03*
X007220Y002620D03*
D16*
X005021Y004470D03*
X003919Y004470D03*
D17*
X000720Y003720D03*
X008720Y003720D03*
D18*
X008720Y002720D03*
X008720Y001720D03*
X000720Y001720D03*
X000720Y002720D03*
D19*
X000500Y001143D02*
X000500Y000500D01*
X004998Y000500D01*
X004950Y000617D01*
X004950Y000743D01*
X004782Y000743D01*
X004720Y000769D01*
X004658Y000743D01*
X004113Y000743D01*
X004010Y000786D01*
X003976Y000820D01*
X003890Y000820D01*
X003743Y000881D01*
X003443Y001181D01*
X003443Y001181D01*
X003331Y001293D01*
X003270Y001440D01*
X003270Y001572D01*
X003181Y001572D01*
X003078Y001615D01*
X003000Y001693D01*
X002957Y001796D01*
X002957Y002070D01*
X002890Y002070D01*
X002743Y002131D01*
X002678Y002196D01*
X002660Y002189D01*
X002709Y002160D01*
X002750Y002119D01*
X002779Y002069D01*
X002794Y002013D01*
X002794Y001706D01*
X002257Y001706D01*
X002257Y001631D01*
X002257Y001134D01*
X002603Y001134D01*
X002659Y001149D01*
X002709Y001178D01*
X002750Y001219D01*
X002779Y001269D01*
X002794Y001325D01*
X002794Y001631D01*
X002257Y001631D01*
X002183Y001631D01*
X002183Y001134D01*
X001837Y001134D01*
X001781Y001149D01*
X001731Y001178D01*
X001690Y001219D01*
X001661Y001269D01*
X001646Y001325D01*
X001646Y001631D01*
X002183Y001631D01*
X002183Y001706D01*
X001646Y001706D01*
X001646Y002013D01*
X001661Y002069D01*
X001690Y002119D01*
X001731Y002160D01*
X001780Y002189D01*
X001707Y002219D01*
X001628Y002298D01*
X001586Y002401D01*
X001586Y003142D01*
X001624Y003235D01*
X001225Y003235D01*
X001175Y003186D01*
X001073Y003143D01*
X001028Y003143D01*
X001237Y002934D01*
X001237Y002720D01*
X000720Y002720D01*
X000720Y002720D01*
X001237Y002720D01*
X001237Y002506D01*
X000993Y002262D01*
X001297Y001959D01*
X001297Y001481D01*
X000959Y001143D01*
X000500Y001143D01*
X000500Y000936D02*
X003689Y000936D01*
X003450Y001174D02*
X002703Y001174D01*
X002794Y001413D02*
X003282Y001413D01*
X003670Y001520D02*
X003970Y001220D01*
X004385Y001220D01*
X005055Y001220D02*
X005970Y001220D01*
X005970Y001470D01*
X005770Y001670D01*
X005770Y001970D01*
X006570Y001970D01*
X007220Y002620D01*
X007930Y002605D02*
X008203Y002605D01*
X008203Y002506D02*
X008447Y002262D01*
X008143Y001959D01*
X008143Y001481D01*
X008481Y001143D01*
X008940Y001143D01*
X008940Y000500D01*
X007870Y000500D01*
X007870Y000740D01*
X007300Y000740D01*
X007300Y000900D01*
X007140Y000900D01*
X007140Y001440D01*
X006761Y001440D01*
X006705Y001425D01*
X006655Y001396D01*
X006614Y001355D01*
X006585Y001305D01*
X006570Y001249D01*
X006570Y000900D01*
X007140Y000900D01*
X007140Y000740D01*
X006570Y000740D01*
X006570Y000500D01*
X006442Y000500D01*
X006490Y000617D01*
X006490Y000823D01*
X006429Y000970D01*
X006490Y001117D01*
X006490Y001323D01*
X006411Y001515D01*
X006366Y001560D01*
X006362Y001570D01*
X006490Y001570D01*
X006650Y001570D01*
X006797Y001631D01*
X007106Y001940D01*
X007706Y001940D01*
X007809Y001983D01*
X007887Y002061D01*
X007930Y002164D01*
X007930Y003076D01*
X007887Y003179D01*
X007829Y003237D01*
X007854Y003298D01*
X007854Y003320D01*
X008163Y003320D01*
X008186Y003265D01*
X008265Y003186D01*
X008367Y003143D01*
X008412Y003143D01*
X008203Y002934D01*
X008203Y002720D01*
X008203Y002506D01*
X008343Y002367D02*
X007930Y002367D01*
X007915Y002128D02*
X008312Y002128D01*
X008143Y001890D02*
X007055Y001890D01*
X006817Y001651D02*
X008143Y001651D01*
X008212Y001413D02*
X007757Y001413D01*
X007735Y001425D02*
X007785Y001396D01*
X007826Y001355D01*
X007855Y001305D01*
X007870Y001249D01*
X007870Y000900D01*
X007300Y000900D01*
X007300Y001440D01*
X007679Y001440D01*
X007735Y001425D01*
X007870Y001174D02*
X008450Y001174D01*
X008940Y000936D02*
X007870Y000936D01*
X007870Y000697D02*
X008940Y000697D01*
X007300Y000936D02*
X007140Y000936D01*
X007140Y001174D02*
X007300Y001174D01*
X007300Y001413D02*
X007140Y001413D01*
X006683Y001413D02*
X006453Y001413D01*
X006490Y001174D02*
X006570Y001174D01*
X006570Y000936D02*
X006444Y000936D01*
X006490Y000697D02*
X006570Y000697D01*
X005970Y000720D02*
X005470Y000720D01*
X004950Y000697D02*
X000500Y000697D01*
X000990Y001174D02*
X001737Y001174D01*
X001646Y001413D02*
X001228Y001413D01*
X001297Y001651D02*
X002183Y001651D01*
X002257Y001651D02*
X003042Y001651D01*
X002957Y001890D02*
X002794Y001890D01*
X002750Y002128D02*
X002741Y002128D01*
X002970Y002470D02*
X003670Y002470D01*
X002970Y002470D02*
X002669Y002771D01*
X002868Y002970D01*
X003670Y002970D01*
X004383Y003082D02*
X005057Y003082D01*
X005057Y003144D02*
X005057Y002796D01*
X005100Y002693D01*
X005129Y002663D01*
X005117Y002617D01*
X005117Y002470D01*
X005117Y002323D01*
X005129Y002277D01*
X005100Y002247D01*
X005057Y002144D01*
X005057Y001796D01*
X005098Y001697D01*
X004782Y001697D01*
X004720Y001671D01*
X004658Y001697D01*
X004342Y001697D01*
X004383Y001796D01*
X004383Y002144D01*
X004352Y002220D01*
X004383Y002296D01*
X004383Y002644D01*
X004352Y002720D01*
X004383Y002796D01*
X004383Y003144D01*
X004352Y003220D01*
X004383Y003296D01*
X004383Y003644D01*
X004340Y003747D01*
X004262Y003825D01*
X004159Y003868D01*
X003768Y003868D01*
X003745Y003896D01*
X003881Y003896D01*
X003881Y004433D01*
X003384Y004433D01*
X003384Y004273D01*
X003165Y004492D01*
X003072Y004584D01*
X002951Y004635D01*
X002673Y004635D01*
X002654Y004680D01*
X002575Y004759D01*
X002473Y004801D01*
X001967Y004801D01*
X001865Y004759D01*
X001786Y004680D01*
X001743Y004577D01*
X001743Y004035D01*
X001297Y004035D01*
X001297Y004073D01*
X001254Y004175D01*
X001175Y004254D01*
X001073Y004297D01*
X000500Y004297D01*
X000500Y004940D01*
X003417Y004940D01*
X003399Y004909D01*
X003384Y004853D01*
X003384Y004507D01*
X003881Y004507D01*
X003881Y004433D01*
X003956Y004433D01*
X003956Y003896D01*
X004263Y003896D01*
X004319Y003911D01*
X004369Y003940D01*
X004410Y003981D01*
X004439Y004030D01*
X004469Y003957D01*
X004548Y003878D01*
X004651Y003836D01*
X005203Y003836D01*
X005178Y003825D01*
X005100Y003747D01*
X005057Y003644D01*
X005057Y003296D01*
X005088Y003220D01*
X005057Y003144D01*
X005057Y003321D02*
X004383Y003321D01*
X004383Y003559D02*
X005057Y003559D01*
X005150Y003798D02*
X004290Y003798D01*
X003956Y004036D02*
X003881Y004036D01*
X003881Y004275D02*
X003956Y004275D01*
X003384Y004275D02*
X003382Y004275D01*
X003384Y004513D02*
X003144Y004513D01*
X003384Y004752D02*
X002583Y004752D01*
X001857Y004752D02*
X000500Y004752D01*
X000500Y004513D02*
X001743Y004513D01*
X001743Y004275D02*
X001126Y004275D01*
X001297Y004036D02*
X001743Y004036D01*
X002220Y003635D02*
X000720Y003635D01*
X000720Y003720D01*
X001089Y003082D02*
X001586Y003082D01*
X001586Y002844D02*
X001237Y002844D01*
X001237Y002605D02*
X001586Y002605D01*
X001600Y002367D02*
X001097Y002367D01*
X001128Y002128D02*
X001699Y002128D01*
X001646Y001890D02*
X001297Y001890D01*
X002183Y001413D02*
X002257Y001413D01*
X002257Y001174D02*
X002183Y001174D01*
X003670Y001520D02*
X003670Y001970D01*
X004383Y001890D02*
X005057Y001890D01*
X005057Y002128D02*
X004383Y002128D01*
X004383Y002367D02*
X005117Y002367D01*
X005117Y002470D02*
X005770Y002470D01*
X006423Y002470D01*
X006423Y002389D01*
X006510Y002476D01*
X006510Y003076D01*
X006553Y003179D01*
X006611Y003237D01*
X006594Y003278D01*
X006476Y003160D01*
X006483Y003144D01*
X006483Y002796D01*
X006440Y002693D01*
X006411Y002663D01*
X006423Y002617D01*
X006423Y002470D01*
X005770Y002470D01*
X005770Y002470D01*
X005770Y002470D01*
X005117Y002470D01*
X005117Y002605D02*
X004383Y002605D01*
X004383Y002844D02*
X005057Y002844D01*
X005770Y003470D02*
X006220Y003470D01*
X006470Y003720D01*
X006220Y003970D01*
X005970Y004220D01*
X005720Y004470D01*
X005021Y004470D01*
X004970Y004470D01*
X005944Y004940D02*
X006646Y004940D01*
X006646Y004809D01*
X007183Y004809D01*
X007183Y004734D01*
X006646Y004734D01*
X006646Y004427D01*
X006661Y004371D01*
X006690Y004321D01*
X006731Y004280D01*
X006780Y004251D01*
X006707Y004221D01*
X006687Y004201D01*
X006661Y004265D01*
X006515Y004411D01*
X006441Y004441D01*
X006411Y004515D01*
X006265Y004661D01*
X006191Y004691D01*
X006161Y004765D01*
X006015Y004911D01*
X005944Y004940D01*
X006166Y004752D02*
X007183Y004752D01*
X007257Y004752D02*
X008940Y004752D01*
X008940Y004940D02*
X008940Y004297D01*
X008367Y004297D01*
X008265Y004254D01*
X008186Y004175D01*
X008163Y004120D01*
X007821Y004120D01*
X007812Y004142D01*
X007733Y004221D01*
X007660Y004251D01*
X007709Y004280D01*
X007750Y004321D01*
X007779Y004371D01*
X007794Y004427D01*
X007794Y004734D01*
X007257Y004734D01*
X007257Y004809D01*
X007794Y004809D01*
X007794Y004940D01*
X008940Y004940D01*
X008940Y004513D02*
X007794Y004513D01*
X007700Y004275D02*
X008314Y004275D01*
X008720Y003720D02*
X006970Y003720D01*
X007220Y003669D01*
X006970Y003720D02*
X006470Y003720D01*
X006651Y004275D02*
X006740Y004275D01*
X006646Y004513D02*
X006411Y004513D01*
X006483Y003082D02*
X006513Y003082D01*
X006510Y002844D02*
X006483Y002844D01*
X006510Y002605D02*
X006423Y002605D01*
X007927Y003082D02*
X008351Y003082D01*
X008203Y002844D02*
X007930Y002844D01*
X008203Y002720D02*
X008720Y002720D01*
X008720Y002720D01*
X008203Y002720D01*
X005970Y001220D02*
X005970Y000720D01*
X002669Y002771D02*
X002220Y002771D01*
X002220Y003635D01*
D20*
X001720Y004720D03*
X001220Y004720D03*
X000720Y004720D03*
X004470Y003470D03*
X004970Y003470D03*
X004970Y001970D03*
X004470Y001970D03*
X001720Y000720D03*
X001220Y000720D03*
X000720Y000720D03*
X008220Y000720D03*
X008720Y000720D03*
X008720Y004720D03*
X008220Y004720D03*
D21*
X004720Y002720D03*
D22*
X003670Y003470D02*
X003420Y003770D01*
X002885Y004305D01*
X002220Y004305D01*
D23*
X005720Y004470D03*
X005970Y004220D03*
X006220Y003970D03*
X005970Y001220D03*
X005970Y000720D03*
X005470Y000720D03*
M02*
