G75*
G70*
%OFA0B0*%
%FSLAX24Y24*%
%IPPOS*%
%LPD*%
%AMOC8*
5,1,8,0,0,1.08239X$1,22.5*
%
%ADD10C,0.0070*%
D10*
X000220Y001220D02*
X000220Y004220D01*
X001220Y004220D01*
X001220Y001220D01*
X000220Y001220D01*
X001405Y002255D02*
X001460Y002200D01*
X001680Y002200D01*
X001735Y002255D01*
X001735Y002365D01*
X001680Y002420D01*
X001570Y002420D01*
X001570Y002310D01*
X001460Y002420D02*
X001405Y002365D01*
X001405Y002255D01*
X001405Y002568D02*
X001735Y002789D01*
X001405Y002789D01*
X001405Y002937D02*
X001405Y003102D01*
X001460Y003157D01*
X001680Y003157D01*
X001735Y003102D01*
X001735Y002937D01*
X001405Y002937D01*
X001405Y002568D02*
X001735Y002568D01*
X002751Y001933D02*
X002751Y000751D01*
X006689Y000751D01*
X006689Y001933D01*
X007755Y002310D02*
X007810Y002255D01*
X008030Y002255D01*
X008085Y002310D01*
X008085Y002420D01*
X008030Y002475D01*
X007920Y002475D01*
X007920Y002365D01*
X007810Y002475D02*
X007755Y002420D01*
X007755Y002310D01*
X007755Y002623D02*
X008085Y002844D01*
X007755Y002844D01*
X007755Y002992D02*
X007755Y003157D01*
X007810Y003212D01*
X008030Y003212D01*
X008085Y003157D01*
X008085Y002992D01*
X007755Y002992D01*
X007755Y002623D02*
X008085Y002623D01*
X006689Y003507D02*
X006689Y004689D01*
X002751Y004689D01*
X002751Y003507D01*
X001735Y003891D02*
X001735Y004001D01*
X001735Y003946D02*
X001405Y003946D01*
X001405Y003891D02*
X001405Y004001D01*
X001405Y004137D02*
X001735Y004357D01*
X001405Y004357D01*
X001405Y004137D02*
X001735Y004137D01*
X002781Y004821D02*
X003002Y004821D01*
X003150Y004821D02*
X003370Y004821D01*
X003260Y004821D02*
X003260Y005151D01*
X003150Y005041D01*
X002781Y005151D02*
X002781Y004821D01*
X007755Y004662D02*
X007755Y004442D01*
X007755Y004552D02*
X008085Y004552D01*
X008030Y004294D02*
X007755Y004294D01*
X008030Y004294D02*
X008085Y004238D01*
X008085Y004128D01*
X008030Y004073D01*
X007755Y004073D01*
X007810Y003925D02*
X007755Y003870D01*
X007755Y003760D01*
X007810Y003705D01*
X008030Y003705D01*
X008085Y003760D01*
X008085Y003870D01*
X008030Y003925D01*
X007810Y003925D01*
X008220Y004220D02*
X009220Y004220D01*
X009220Y001220D01*
X008220Y001220D01*
X008220Y004220D01*
M02*
