%
M48
M72
T01C0.0240
T02C0.0394
T03C0.0600
%
T01
X720Y720
X1220Y720
X1720Y720
X4470Y1970
X4970Y1970
X5970Y1220
X5970Y720
X5470Y720
X8220Y720
X8720Y720
X4970Y3470
X4470Y3470
X5970Y4220
X6220Y3970
X5720Y4470
X8220Y4720
X8720Y4720
X1720Y4720
X1220Y4720
X720Y4720
T02
X720Y3720
X720Y2720
X720Y1720
X8720Y1720
X8720Y2720
X8720Y3720
T03
X4720Y2720
M30
