G75*
G70*
%OFA0B0*%
%FSLAX24Y24*%
%IPPOS*%
%LPD*%
%AMOC8*
5,1,8,0,0,1.08239X$1,22.5*
%
%ADD10R,0.1575X0.1260*%
%ADD11R,0.0594X0.0594*%
%ADD12OC8,0.0594*%
%ADD13C,0.0240*%
%ADD14C,0.0400*%
%ADD15C,0.0900*%
%ADD16C,0.0480*%
D10*
X003048Y002720D03*
X006392Y002720D03*
D11*
X008720Y003720D03*
X000720Y003720D03*
D12*
X000720Y002720D03*
X000720Y001720D03*
X008720Y001720D03*
X008720Y002720D03*
D13*
X000500Y001143D02*
X000500Y000500D01*
X003874Y000500D01*
X002709Y001665D01*
X002649Y001810D01*
X002205Y001810D01*
X002102Y001853D01*
X002024Y001931D01*
X001981Y002034D01*
X001981Y003406D01*
X002024Y003509D01*
X002102Y003587D01*
X002205Y003630D01*
X003891Y003630D01*
X003994Y003587D01*
X004073Y003509D01*
X004116Y003406D01*
X004116Y002034D01*
X004073Y001931D01*
X003994Y001853D01*
X003891Y001810D01*
X003696Y001810D01*
X004386Y001120D01*
X005135Y001120D01*
X005175Y001161D01*
X005367Y001240D01*
X005450Y001240D01*
X005450Y001323D01*
X005529Y001515D01*
X005675Y001661D01*
X005867Y001740D01*
X006073Y001740D01*
X006265Y001661D01*
X006411Y001515D01*
X006490Y001323D01*
X006490Y001117D01*
X006429Y000970D01*
X006490Y000823D01*
X006490Y000617D01*
X006442Y000500D01*
X008940Y000500D01*
X008940Y001143D01*
X008481Y001143D01*
X008143Y001481D01*
X008143Y001959D01*
X008447Y002262D01*
X008203Y002506D01*
X008203Y002720D01*
X008720Y002720D01*
X008720Y002720D01*
X008203Y002720D01*
X008203Y002934D01*
X008412Y003143D01*
X008367Y003143D01*
X008265Y003186D01*
X008186Y003265D01*
X008143Y003367D01*
X008143Y004073D01*
X008186Y004175D01*
X008265Y004254D01*
X008367Y004297D01*
X008940Y004297D01*
X008940Y004940D01*
X005944Y004940D01*
X006015Y004911D01*
X006161Y004765D01*
X006191Y004691D01*
X006265Y004661D01*
X006411Y004515D01*
X006441Y004441D01*
X006515Y004411D01*
X006661Y004265D01*
X006740Y004073D01*
X006740Y004003D01*
X006792Y003878D01*
X006792Y003630D01*
X007235Y003630D01*
X007338Y003587D01*
X007416Y003509D01*
X007459Y003406D01*
X007459Y002034D01*
X007416Y001931D01*
X007338Y001853D01*
X007235Y001810D01*
X005549Y001810D01*
X005446Y001853D01*
X005367Y001931D01*
X005324Y002034D01*
X005324Y003406D01*
X005367Y003509D01*
X005446Y003587D01*
X005549Y003630D01*
X005825Y003630D01*
X005779Y003675D01*
X005749Y003749D01*
X005675Y003779D01*
X005529Y003925D01*
X005499Y003999D01*
X005425Y004029D01*
X005279Y004175D01*
X005200Y004367D01*
X005200Y004573D01*
X005279Y004765D01*
X005425Y004911D01*
X005496Y004940D01*
X000500Y004940D01*
X000500Y004297D01*
X001073Y004297D01*
X001175Y004254D01*
X001254Y004175D01*
X001297Y004073D01*
X001297Y003367D01*
X001254Y003265D01*
X001175Y003186D01*
X001073Y003143D01*
X001028Y003143D01*
X001237Y002934D01*
X001237Y002720D01*
X000720Y002720D01*
X000720Y002720D01*
X001237Y002720D01*
X001237Y002506D01*
X000993Y002262D01*
X001297Y001959D01*
X001297Y001481D01*
X000959Y001143D01*
X000500Y001143D01*
X000500Y000936D02*
X003439Y000936D01*
X003200Y001174D02*
X000990Y001174D01*
X001228Y001413D02*
X002962Y001413D01*
X002723Y001651D02*
X001297Y001651D01*
X001297Y001890D02*
X002066Y001890D01*
X001981Y002128D02*
X001128Y002128D01*
X001097Y002367D02*
X001981Y002367D01*
X001981Y002605D02*
X001237Y002605D01*
X001237Y002844D02*
X001981Y002844D01*
X001981Y003082D02*
X001089Y003082D01*
X001277Y003321D02*
X001981Y003321D01*
X002074Y003559D02*
X001297Y003559D01*
X001297Y003798D02*
X005657Y003798D01*
X005419Y004036D02*
X001297Y004036D01*
X001126Y004275D02*
X005238Y004275D01*
X005200Y004513D02*
X000500Y004513D01*
X000500Y004752D02*
X005274Y004752D01*
X005720Y004470D02*
X006220Y003970D01*
X006392Y003798D01*
X006392Y002720D01*
X005324Y002605D02*
X004116Y002605D01*
X004116Y002367D02*
X005324Y002367D01*
X005324Y002128D02*
X004116Y002128D01*
X004031Y001890D02*
X005409Y001890D01*
X005666Y001651D02*
X003855Y001651D01*
X004093Y001413D02*
X005487Y001413D01*
X005207Y001174D02*
X004332Y001174D01*
X004220Y000720D02*
X005470Y000720D01*
X005970Y000720D01*
X005970Y001220D01*
X006453Y001413D02*
X008212Y001413D01*
X008450Y001174D02*
X006490Y001174D01*
X006444Y000936D02*
X008940Y000936D01*
X008940Y000697D02*
X006490Y000697D01*
X006274Y001651D02*
X008143Y001651D01*
X008143Y001890D02*
X007374Y001890D01*
X007459Y002128D02*
X008312Y002128D01*
X008343Y002367D02*
X007459Y002367D01*
X007459Y002605D02*
X008203Y002605D01*
X008203Y002844D02*
X007459Y002844D01*
X007459Y003082D02*
X008351Y003082D01*
X008163Y003321D02*
X007459Y003321D01*
X007366Y003559D02*
X008143Y003559D01*
X008143Y003798D02*
X006792Y003798D01*
X006740Y004036D02*
X008143Y004036D01*
X008314Y004275D02*
X006651Y004275D01*
X006411Y004513D02*
X008940Y004513D01*
X008940Y004752D02*
X006166Y004752D01*
X005417Y003559D02*
X004023Y003559D01*
X004116Y003321D02*
X005324Y003321D01*
X005324Y003082D02*
X004116Y003082D01*
X004116Y002844D02*
X005324Y002844D01*
X003048Y002720D02*
X003048Y001892D01*
X004220Y000720D01*
X003677Y000697D02*
X000500Y000697D01*
D14*
X000720Y000720D03*
X001220Y000720D03*
X001720Y000720D03*
X004470Y001970D03*
X004970Y001970D03*
X004970Y003470D03*
X004470Y003470D03*
X001720Y004720D03*
X001220Y004720D03*
X000720Y004720D03*
X008220Y004720D03*
X008720Y004720D03*
X008720Y000720D03*
X008220Y000720D03*
D15*
X004720Y002720D03*
D16*
X006220Y003970D03*
X005970Y004220D03*
X005720Y004470D03*
X005970Y001220D03*
X005970Y000720D03*
X005470Y000720D03*
M02*
