G75*
G70*
%OFA0B0*%
%FSLAX24Y24*%
%IPPOS*%
%LPD*%
%AMOC8*
5,1,8,0,0,1.08239X$1,22.5*
%
%ADD10C,0.0070*%
%ADD11R,0.1400X0.0300*%
%ADD12C,0.0080*%
D10*
X001760Y001240D02*
X001760Y003200D01*
X002680Y003200D01*
X002680Y001240D01*
X001760Y001240D01*
X002223Y001125D02*
X002223Y000795D01*
X002333Y000795D02*
X002113Y000795D01*
X002333Y001015D02*
X002223Y001125D01*
X002481Y001070D02*
X002536Y001125D01*
X002647Y001125D01*
X002702Y001070D01*
X002702Y000850D01*
X002647Y000795D01*
X002536Y000795D01*
X002481Y000850D01*
X003133Y001355D02*
X003353Y001355D01*
X003243Y001355D02*
X003243Y001685D01*
X003353Y001575D01*
X003501Y001685D02*
X003501Y001410D01*
X003556Y001355D01*
X003667Y001355D01*
X003722Y001410D01*
X003722Y001685D01*
X004060Y001540D02*
X004060Y000900D01*
X005380Y000900D01*
X005380Y001540D01*
X004060Y001540D01*
X004158Y000775D02*
X004268Y000775D01*
X004323Y000720D01*
X004158Y000775D02*
X004103Y000720D01*
X004103Y000665D01*
X004323Y000445D01*
X004103Y000445D01*
X004471Y000500D02*
X004526Y000445D01*
X004637Y000445D01*
X004692Y000500D01*
X004692Y000720D01*
X004637Y000775D01*
X004526Y000775D01*
X004471Y000720D01*
X006520Y000870D02*
X006670Y000870D01*
X006520Y000870D02*
X006520Y002520D01*
X006670Y002520D01*
X007770Y002520D02*
X007920Y002520D01*
X007920Y000870D01*
X007770Y000870D01*
X008055Y000855D02*
X008055Y001020D01*
X008110Y001075D01*
X008330Y001075D01*
X008385Y001020D01*
X008385Y000855D01*
X008055Y000855D01*
X008055Y001223D02*
X008055Y001444D01*
X008055Y001333D02*
X008385Y001333D01*
X008275Y001223D01*
X007680Y003240D02*
X006760Y003240D01*
X006760Y005200D01*
X007680Y005200D01*
X007680Y003240D01*
X006570Y004488D02*
X006350Y004488D01*
X006295Y004543D01*
X006295Y004654D01*
X006350Y004709D01*
X006570Y004709D02*
X006625Y004654D01*
X006625Y004543D01*
X006570Y004488D01*
X006570Y004857D02*
X006625Y004912D01*
X006625Y005022D01*
X006570Y005077D01*
X006515Y005077D01*
X006460Y005022D01*
X006405Y005077D01*
X006350Y005077D01*
X006295Y005022D01*
X006295Y004912D01*
X006350Y004857D01*
X006460Y004967D02*
X006460Y005022D01*
X005450Y004930D02*
X005450Y004010D01*
X003490Y004010D01*
X003490Y004930D01*
X005450Y004930D01*
X003375Y004922D02*
X003210Y004757D01*
X003210Y004977D01*
X003045Y004922D02*
X003375Y004922D01*
X003320Y004609D02*
X003375Y004554D01*
X003375Y004443D01*
X003320Y004388D01*
X003100Y004388D01*
X003045Y004443D01*
X003045Y004554D01*
X003100Y004609D01*
X002665Y004314D02*
X002665Y004093D01*
X002665Y004203D02*
X002995Y004203D01*
X002885Y004093D01*
X002830Y003945D02*
X002775Y003890D01*
X002775Y003725D01*
X002665Y003725D02*
X002995Y003725D01*
X002995Y003890D01*
X002940Y003945D01*
X002830Y003945D01*
X002775Y003835D02*
X002665Y003945D01*
X002540Y003310D02*
X001900Y003310D01*
X001900Y004630D01*
X002540Y004630D01*
X002540Y003310D01*
D11*
X007220Y001970D03*
D12*
X005470Y002170D02*
X005470Y002270D01*
X005470Y002670D02*
X005470Y002770D01*
X005470Y003170D02*
X005470Y003270D01*
X005470Y003680D02*
X004220Y003680D01*
X004220Y003320D01*
X003970Y003270D02*
X003970Y003170D01*
X003970Y002770D02*
X003970Y002670D01*
X003970Y002270D02*
X003970Y002170D01*
X004220Y002120D02*
X004220Y001760D01*
X004470Y001760D01*
X004220Y001760D02*
X003970Y001760D01*
X004470Y001760D02*
X004472Y001790D01*
X004477Y001820D01*
X004486Y001849D01*
X004499Y001876D01*
X004514Y001902D01*
X004533Y001926D01*
X004554Y001947D01*
X004578Y001966D01*
X004604Y001981D01*
X004631Y001994D01*
X004660Y002003D01*
X004690Y002008D01*
X004720Y002010D01*
X004750Y002008D01*
X004780Y002003D01*
X004809Y001994D01*
X004836Y001981D01*
X004862Y001966D01*
X004886Y001947D01*
X004907Y001926D01*
X004926Y001902D01*
X004941Y001876D01*
X004954Y001849D01*
X004963Y001820D01*
X004968Y001790D01*
X004970Y001760D01*
X005470Y001760D01*
X004220Y003680D02*
X003970Y003680D01*
M02*
