G75*
G70*
%OFA0B0*%
%FSLAX24Y24*%
%IPPOS*%
%LPD*%
%AMOC8*
5,1,8,0,0,1.08239X$1,22.5*
%
%ADD10C,0.0070*%
%ADD11C,0.0080*%
D10*
X004530Y001190D02*
X005170Y001190D01*
X005170Y002510D01*
X004530Y002510D01*
X004530Y001190D01*
X006165Y001651D02*
X006415Y001651D01*
X006415Y001776D01*
X006374Y001818D01*
X006290Y001818D01*
X006248Y001776D01*
X006248Y001651D01*
X006248Y001734D02*
X006165Y001818D01*
X006165Y001946D02*
X006165Y002113D01*
X006165Y002029D02*
X006415Y002029D01*
X006332Y001946D01*
X006290Y002240D02*
X006290Y002365D01*
X006248Y002407D01*
X006207Y002407D01*
X006165Y002365D01*
X006165Y002282D01*
X006207Y002240D01*
X006290Y002240D01*
X006374Y002324D01*
X006415Y002407D01*
X005535Y002324D02*
X005410Y002324D01*
X005452Y002408D01*
X005452Y002449D01*
X005410Y002491D01*
X005327Y002491D01*
X005285Y002449D01*
X005285Y002366D01*
X005327Y002324D01*
X005285Y002196D02*
X005285Y002030D01*
X005285Y002113D02*
X005535Y002113D01*
X005452Y002030D01*
X005494Y001902D02*
X005410Y001902D01*
X005368Y001860D01*
X005368Y001735D01*
X005285Y001735D02*
X005535Y001735D01*
X005535Y001860D01*
X005494Y001902D01*
X005368Y001818D02*
X005285Y001902D01*
X005535Y002324D02*
X005535Y002491D01*
X005732Y002779D02*
X006106Y002779D01*
X006106Y003094D01*
X006530Y003010D02*
X006530Y001690D01*
X007170Y001690D01*
X007170Y003010D01*
X006530Y003010D01*
X005594Y003212D02*
X005594Y003488D01*
X005166Y003333D02*
X005124Y003249D01*
X005040Y003166D01*
X005040Y003291D01*
X004999Y003333D01*
X004957Y003333D01*
X004915Y003291D01*
X004915Y003208D01*
X004957Y003166D01*
X005040Y003166D01*
X004957Y003038D02*
X004915Y002996D01*
X004915Y002913D01*
X004957Y002871D01*
X005124Y002871D01*
X005166Y002913D01*
X005166Y002996D01*
X005124Y003038D01*
X004957Y003038D01*
X004915Y003038D02*
X004999Y002955D01*
X006106Y003606D02*
X006106Y003921D01*
X005732Y003921D01*
X004290Y003930D02*
X004235Y003875D01*
X004125Y003875D01*
X004070Y003820D01*
X004070Y003765D01*
X004125Y003710D01*
X004235Y003710D01*
X004290Y003765D01*
X004290Y003930D02*
X004290Y003985D01*
X004235Y004040D01*
X004125Y004040D01*
X004070Y003985D01*
X003922Y004040D02*
X003757Y004040D01*
X003701Y003985D01*
X003701Y003765D01*
X003757Y003710D01*
X003922Y003710D01*
X003922Y004040D01*
X003920Y004190D02*
X003920Y005510D01*
X003280Y005510D01*
X003280Y004190D01*
X003920Y004190D01*
X003553Y003930D02*
X003443Y004040D01*
X003333Y003930D01*
X003333Y003710D01*
X003333Y003875D02*
X003553Y003875D01*
X003553Y003930D02*
X003553Y003710D01*
X002265Y003350D02*
X001978Y003350D01*
X002212Y005094D02*
X002488Y005094D01*
X002921Y005232D02*
X002921Y005606D01*
X002606Y005606D01*
X002780Y005690D02*
X003420Y005690D01*
X003420Y007010D01*
X002780Y007010D01*
X002780Y005690D01*
X002094Y005606D02*
X001779Y005606D01*
X001779Y005232D01*
X001615Y005287D02*
X001615Y005371D01*
X001574Y005413D01*
X001407Y005413D01*
X001365Y005371D01*
X001365Y005287D01*
X001407Y005246D01*
X001574Y005246D01*
X001615Y005287D01*
X001448Y005329D02*
X001365Y005413D01*
X001407Y005540D02*
X001365Y005582D01*
X001365Y005665D01*
X001407Y005707D01*
X001490Y005707D01*
X001532Y005665D01*
X001532Y005624D01*
X001490Y005540D01*
X001615Y005540D01*
X001615Y005707D01*
X002415Y006301D02*
X002665Y006301D01*
X002665Y006426D01*
X002624Y006468D01*
X002540Y006468D01*
X002498Y006426D01*
X002498Y006301D01*
X002498Y006384D02*
X002415Y006468D01*
X002415Y006596D02*
X002582Y006763D01*
X002624Y006763D01*
X002665Y006721D01*
X002665Y006637D01*
X002624Y006596D01*
X002415Y006596D02*
X002415Y006763D01*
X002415Y006890D02*
X002415Y007057D01*
X002415Y006974D02*
X002665Y006974D01*
X002582Y006890D01*
X003695Y006319D02*
X003695Y006236D01*
X003737Y006194D01*
X003904Y006361D01*
X003737Y006361D01*
X003695Y006319D01*
X003737Y006194D02*
X003904Y006194D01*
X003945Y006236D01*
X003945Y006319D01*
X003904Y006361D01*
X003904Y006066D02*
X003945Y006025D01*
X003945Y005941D01*
X003904Y005900D01*
X003904Y005772D02*
X003820Y005772D01*
X003778Y005730D01*
X003778Y005605D01*
X003695Y005605D02*
X003945Y005605D01*
X003945Y005730D01*
X003904Y005772D01*
X003778Y005688D02*
X003695Y005772D01*
X003695Y005900D02*
X003862Y006066D01*
X003904Y006066D01*
X003695Y006066D02*
X003695Y005900D01*
X004984Y007301D02*
X004984Y009899D01*
X005614Y009899D01*
X005616Y009869D01*
X005621Y009840D01*
X005631Y009812D01*
X005643Y009785D01*
X005659Y009760D01*
X005678Y009737D01*
X005700Y009717D01*
X005724Y009700D01*
X005750Y009685D01*
X005777Y009675D01*
X005806Y009667D01*
X005835Y009663D01*
X005865Y009663D01*
X005894Y009667D01*
X005923Y009675D01*
X005950Y009685D01*
X005976Y009700D01*
X006000Y009717D01*
X006022Y009737D01*
X006041Y009760D01*
X006057Y009785D01*
X006069Y009812D01*
X006079Y009840D01*
X006084Y009869D01*
X006086Y009899D01*
X006716Y009899D01*
X006716Y007301D01*
X004984Y007301D01*
X002749Y007815D02*
X002749Y008065D01*
X002624Y008065D01*
X002582Y008024D01*
X002582Y007940D01*
X002624Y007898D01*
X002749Y007898D01*
X002666Y007898D02*
X002582Y007815D01*
X002454Y007815D02*
X002287Y007982D01*
X002287Y008024D01*
X002329Y008065D01*
X002413Y008065D01*
X002454Y008024D01*
X002454Y007815D02*
X002287Y007815D01*
X002160Y007857D02*
X002118Y007815D01*
X002035Y007815D01*
X001993Y007857D01*
X001993Y007898D01*
X002035Y007940D01*
X002076Y007940D01*
X002035Y007940D02*
X001993Y007982D01*
X001993Y008024D01*
X002035Y008065D01*
X002118Y008065D01*
X002160Y008024D01*
X002030Y008190D02*
X002670Y008190D01*
X002670Y009510D01*
X002030Y009510D01*
X002030Y008190D01*
X002482Y009779D02*
X002856Y009779D01*
X002856Y010094D01*
X003280Y009940D02*
X003920Y009940D01*
X003920Y011260D01*
X003280Y011260D01*
X003280Y009940D01*
X002344Y010212D02*
X002344Y010488D01*
X001865Y010307D02*
X001824Y010307D01*
X001657Y010140D01*
X001615Y010140D01*
X001615Y010013D02*
X001698Y009929D01*
X001657Y009846D02*
X001615Y009887D01*
X001615Y009971D01*
X001657Y010013D01*
X001824Y010013D01*
X001865Y009971D01*
X001865Y009887D01*
X001824Y009846D01*
X001657Y009846D01*
X001865Y010140D02*
X001865Y010307D01*
X002856Y010606D02*
X002856Y010921D01*
X002482Y010921D01*
X001940Y011030D02*
X003260Y011030D01*
X003260Y011670D01*
X001940Y011670D01*
X001940Y011030D01*
X001765Y011076D02*
X001765Y010951D01*
X001515Y010951D01*
X001598Y010951D02*
X001598Y011076D01*
X001640Y011118D01*
X001724Y011118D01*
X001765Y011076D01*
X001598Y011034D02*
X001515Y011118D01*
X001515Y011246D02*
X001682Y011413D01*
X001724Y011413D01*
X001765Y011371D01*
X001765Y011287D01*
X001724Y011246D01*
X001515Y011246D02*
X001515Y011413D01*
X001515Y011540D02*
X001682Y011707D01*
X001724Y011707D01*
X001765Y011665D01*
X001765Y011582D01*
X001724Y011540D01*
X001515Y011540D02*
X001515Y011707D01*
X001779Y012094D02*
X001779Y012468D01*
X002212Y012606D02*
X002488Y012606D01*
X002921Y012468D02*
X002921Y012094D01*
X002606Y012094D01*
X003035Y012177D02*
X003035Y012260D01*
X003077Y012302D01*
X003244Y012302D01*
X003285Y012260D01*
X003285Y012177D01*
X003244Y012135D01*
X003077Y012135D01*
X003035Y012177D01*
X003118Y012218D02*
X003035Y012302D01*
X003160Y012430D02*
X003160Y012596D01*
X003035Y012555D02*
X003285Y012555D01*
X003160Y012430D01*
X002094Y012094D02*
X001779Y012094D01*
X003535Y011796D02*
X003535Y011630D01*
X003535Y011713D02*
X003785Y011713D01*
X003702Y011630D01*
X003744Y011502D02*
X003785Y011460D01*
X003785Y011377D01*
X003744Y011335D01*
X003577Y011335D01*
X003535Y011377D01*
X003535Y011460D01*
X003577Y011502D01*
X007665Y012501D02*
X007915Y012501D01*
X007915Y012626D01*
X007874Y012668D01*
X007790Y012668D01*
X007748Y012626D01*
X007748Y012501D01*
X007748Y012584D02*
X007665Y012668D01*
X007665Y012796D02*
X007665Y012963D01*
X007665Y012879D02*
X007915Y012879D01*
X007832Y012796D01*
X007832Y013090D02*
X007874Y013090D01*
X007915Y013132D01*
X007915Y013215D01*
X007874Y013257D01*
X007832Y013257D01*
X007790Y013215D01*
X007790Y013132D01*
X007832Y013090D01*
X007790Y013132D02*
X007748Y013090D01*
X007707Y013090D01*
X007665Y013132D01*
X007665Y013215D01*
X007707Y013257D01*
X007748Y013257D01*
X007790Y013215D01*
X008030Y013260D02*
X008670Y013260D01*
X008670Y011940D01*
X008030Y011940D01*
X008030Y013260D01*
X007788Y013709D02*
X007659Y013838D01*
X007813Y014027D01*
X007774Y014103D01*
X007748Y014184D01*
X007506Y014209D01*
X007506Y014391D01*
X007748Y014416D01*
X007774Y014497D01*
X007813Y014573D01*
X007659Y014762D01*
X007788Y014891D01*
X007977Y014737D01*
X008053Y014776D01*
X008134Y014802D01*
X008159Y015044D01*
X008341Y015044D01*
X008366Y014802D01*
X008447Y014776D01*
X008523Y014737D01*
X008712Y014891D01*
X008841Y014762D01*
X008687Y014573D01*
X008726Y014497D01*
X008752Y014416D01*
X008994Y014391D01*
X008994Y014209D01*
X008752Y014184D01*
X008726Y014103D01*
X008687Y014027D01*
X008841Y013838D01*
X008712Y013709D01*
X008523Y013863D01*
X008447Y013824D01*
X008340Y014083D01*
X008380Y014105D01*
X008416Y014134D01*
X008445Y014170D01*
X008467Y014210D01*
X008480Y014254D01*
X008484Y014300D01*
X008479Y014350D01*
X008463Y014398D01*
X008437Y014441D01*
X008402Y014478D01*
X008360Y014507D01*
X008314Y014526D01*
X008264Y014534D01*
X008213Y014531D01*
X008165Y014518D01*
X008120Y014495D01*
X008081Y014462D01*
X008050Y014422D01*
X008029Y014377D01*
X008017Y014328D01*
X008017Y014277D01*
X008027Y014228D01*
X008048Y014181D01*
X008078Y014141D01*
X008116Y014108D01*
X008160Y014083D01*
X008053Y013824D01*
X007977Y013863D01*
X007788Y013709D01*
X007725Y013773D02*
X007866Y013773D01*
X007950Y013841D02*
X007661Y013841D01*
X007717Y013910D02*
X008088Y013910D01*
X008117Y013978D02*
X007773Y013978D01*
X007803Y014047D02*
X008145Y014047D01*
X008108Y014115D02*
X007770Y014115D01*
X007748Y014184D02*
X008047Y014184D01*
X008022Y014252D02*
X007506Y014252D01*
X007506Y014321D02*
X008017Y014321D01*
X008034Y014389D02*
X007506Y014389D01*
X007761Y014458D02*
X008077Y014458D01*
X008193Y014526D02*
X007788Y014526D01*
X007795Y014595D02*
X008705Y014595D01*
X008712Y014526D02*
X008311Y014526D01*
X008422Y014458D02*
X008739Y014458D01*
X008761Y014663D02*
X007739Y014663D01*
X007684Y014732D02*
X008816Y014732D01*
X008803Y014800D02*
X008600Y014800D01*
X008684Y014869D02*
X008734Y014869D01*
X008373Y014800D02*
X008127Y014800D01*
X008141Y014869D02*
X008359Y014869D01*
X008352Y014937D02*
X008148Y014937D01*
X008155Y015006D02*
X008345Y015006D01*
X007900Y014800D02*
X007697Y014800D01*
X007766Y014869D02*
X007816Y014869D01*
X008466Y014389D02*
X008994Y014389D01*
X008994Y014321D02*
X008482Y014321D01*
X008479Y014252D02*
X008994Y014252D01*
X008752Y014184D02*
X008452Y014184D01*
X008392Y014115D02*
X008730Y014115D01*
X008697Y014047D02*
X008355Y014047D01*
X008383Y013978D02*
X008727Y013978D01*
X008783Y013910D02*
X008412Y013910D01*
X008440Y013841D02*
X008481Y013841D01*
X008550Y013841D02*
X008839Y013841D01*
X008775Y013773D02*
X008634Y013773D01*
X008060Y013841D02*
X008019Y013841D01*
X007215Y014035D02*
X007215Y014285D01*
X007090Y014285D01*
X007048Y014244D01*
X007048Y014160D01*
X007090Y014118D01*
X007215Y014118D01*
X007132Y014118D02*
X007048Y014035D01*
X007010Y013920D02*
X007010Y013280D01*
X005690Y013280D01*
X005690Y013920D01*
X007010Y013920D01*
X006920Y014035D02*
X006754Y014035D01*
X006837Y014035D02*
X006837Y014285D01*
X006920Y014202D01*
X006626Y014202D02*
X006584Y014160D01*
X006459Y014160D01*
X006459Y014077D02*
X006459Y014244D01*
X006501Y014285D01*
X006584Y014285D01*
X006626Y014244D01*
X006626Y014202D01*
X006626Y014077D02*
X006584Y014035D01*
X006501Y014035D01*
X006459Y014077D01*
X006106Y014029D02*
X005732Y014029D01*
X006106Y014029D02*
X006106Y014344D01*
X005594Y014462D02*
X005594Y014738D01*
X006106Y014856D02*
X006106Y015171D01*
X005732Y015171D01*
X005795Y015285D02*
X005879Y015285D01*
X005920Y015327D01*
X005837Y015410D02*
X005795Y015410D01*
X005754Y015368D01*
X005754Y015327D01*
X005795Y015285D01*
X005795Y015410D02*
X005754Y015452D01*
X005754Y015494D01*
X005795Y015535D01*
X005879Y015535D01*
X005920Y015494D01*
X006048Y015494D02*
X006048Y015327D01*
X006090Y015285D01*
X006173Y015285D01*
X006215Y015327D01*
X006215Y015494D01*
X006173Y015535D01*
X006090Y015535D01*
X006048Y015494D01*
X006132Y015368D02*
X006048Y015285D01*
X004765Y014210D02*
X004710Y014265D01*
X004600Y014265D01*
X004545Y014210D01*
X004765Y013990D01*
X004710Y013935D01*
X004600Y013935D01*
X004545Y013990D01*
X004545Y014210D01*
X004397Y014210D02*
X004397Y014155D01*
X004342Y014100D01*
X004176Y014100D01*
X004176Y013990D02*
X004176Y014210D01*
X004232Y014265D01*
X004342Y014265D01*
X004397Y014210D01*
X004397Y013990D02*
X004342Y013935D01*
X004232Y013935D01*
X004176Y013990D01*
X004028Y013935D02*
X003808Y014265D01*
X003660Y014155D02*
X003550Y014265D01*
X003550Y013935D01*
X003660Y013935D02*
X003440Y013935D01*
X003292Y014100D02*
X003127Y014265D01*
X003127Y013935D01*
X003072Y014100D02*
X003292Y014100D01*
X003283Y013665D02*
X003283Y013500D01*
X003173Y013555D01*
X003118Y013555D01*
X003063Y013500D01*
X003063Y013390D01*
X003118Y013335D01*
X003228Y013335D01*
X003283Y013390D01*
X003431Y013390D02*
X003486Y013335D01*
X003597Y013335D01*
X003652Y013390D01*
X003431Y013610D01*
X003431Y013390D01*
X003652Y013390D02*
X003652Y013610D01*
X003597Y013665D01*
X003486Y013665D01*
X003431Y013610D01*
X003283Y013665D02*
X003063Y013665D01*
X003800Y013500D02*
X004020Y013500D01*
X004168Y013390D02*
X004223Y013335D01*
X004333Y013335D01*
X004388Y013390D01*
X004388Y013610D01*
X004333Y013665D01*
X004223Y013665D01*
X004168Y013610D01*
X004536Y013610D02*
X004536Y013500D01*
X004591Y013445D01*
X004757Y013445D01*
X004757Y013335D02*
X004757Y013665D01*
X004591Y013665D01*
X004536Y013610D01*
X004765Y013990D02*
X004765Y014210D01*
X008779Y012718D02*
X008779Y012344D01*
X009094Y012344D01*
X009606Y012344D02*
X009921Y012344D01*
X009921Y012718D01*
X010035Y012680D02*
X010202Y012846D01*
X010244Y012846D01*
X010285Y012805D01*
X010285Y012721D01*
X010244Y012680D01*
X010244Y012552D02*
X010077Y012552D01*
X010035Y012510D01*
X010035Y012427D01*
X010077Y012385D01*
X010244Y012385D01*
X010285Y012427D01*
X010285Y012510D01*
X010244Y012552D01*
X010118Y012468D02*
X010035Y012552D01*
X010035Y012680D02*
X010035Y012846D01*
X009488Y012856D02*
X009212Y012856D01*
X009160Y011665D02*
X009050Y011665D01*
X008995Y011610D01*
X009215Y011390D01*
X009160Y011335D01*
X009050Y011335D01*
X008995Y011390D01*
X008995Y011610D01*
X009160Y011665D02*
X009215Y011610D01*
X009215Y011390D01*
X009105Y010465D02*
X009105Y010135D01*
X009215Y010135D02*
X008995Y010135D01*
X009215Y010355D02*
X009105Y010465D01*
X009687Y009765D02*
X009687Y009435D01*
X009797Y009435D02*
X009576Y009435D01*
X009945Y009435D02*
X009945Y009655D01*
X010055Y009765D01*
X010165Y009655D01*
X010165Y009435D01*
X010165Y009600D02*
X009945Y009600D01*
X009797Y009655D02*
X009687Y009765D01*
X008515Y009655D02*
X008515Y009435D01*
X008515Y009600D02*
X008295Y009600D01*
X008295Y009655D02*
X008295Y009435D01*
X008147Y009490D02*
X008092Y009435D01*
X007982Y009435D01*
X007926Y009490D01*
X007926Y009710D01*
X008147Y009490D01*
X008147Y009710D01*
X008092Y009765D01*
X007982Y009765D01*
X007926Y009710D01*
X008295Y009655D02*
X008405Y009765D01*
X008515Y009655D01*
X008882Y007465D02*
X008992Y007465D01*
X009047Y007410D01*
X009195Y007355D02*
X009305Y007465D01*
X009415Y007355D01*
X009415Y007135D01*
X009415Y007300D02*
X009195Y007300D01*
X009195Y007355D02*
X009195Y007135D01*
X009047Y007135D02*
X008826Y007355D01*
X008826Y007410D01*
X008882Y007465D01*
X008826Y007135D02*
X009047Y007135D01*
X008547Y006715D02*
X008437Y006605D01*
X008437Y006385D01*
X008437Y006550D02*
X008658Y006550D01*
X008658Y006605D02*
X008547Y006715D01*
X008658Y006605D02*
X008658Y006385D01*
X009155Y006385D02*
X009210Y006385D01*
X009210Y006440D01*
X009155Y006440D01*
X009155Y006385D01*
X009358Y006605D02*
X009468Y006385D01*
X009578Y006605D01*
X009726Y006550D02*
X009726Y006495D01*
X009947Y006495D01*
X009947Y006440D02*
X009947Y006550D01*
X009892Y006605D01*
X009782Y006605D01*
X009726Y006550D01*
X009782Y006385D02*
X009892Y006385D01*
X009947Y006440D01*
X010095Y006385D02*
X010205Y006495D01*
X010150Y006495D02*
X010315Y006495D01*
X010315Y006385D02*
X010315Y006715D01*
X010150Y006715D01*
X010095Y006660D01*
X010095Y006550D01*
X010150Y006495D01*
X008415Y005683D02*
X008415Y005516D01*
X008415Y005599D02*
X008666Y005599D01*
X008582Y005516D01*
X008624Y005388D02*
X008457Y005388D01*
X008415Y005346D01*
X008415Y005263D01*
X008457Y005221D01*
X008624Y005221D01*
X008666Y005263D01*
X008666Y005346D01*
X008624Y005388D01*
X008499Y005305D02*
X008415Y005388D01*
X008779Y005232D02*
X008779Y005606D01*
X009094Y005606D01*
X009606Y005606D02*
X009921Y005606D01*
X009921Y005232D01*
X009488Y005094D02*
X009212Y005094D01*
X008940Y004670D02*
X008940Y004030D01*
X010260Y004030D01*
X010260Y004670D01*
X008940Y004670D01*
X008815Y004635D02*
X008690Y004635D01*
X008648Y004594D01*
X008648Y004510D01*
X008690Y004468D01*
X008815Y004468D01*
X008815Y004385D02*
X008815Y004635D01*
X008732Y004468D02*
X008648Y004385D01*
X008520Y004385D02*
X008354Y004385D01*
X008437Y004385D02*
X008437Y004635D01*
X008520Y004552D01*
X008226Y004635D02*
X008059Y004635D01*
X008059Y004594D01*
X008226Y004427D01*
X008226Y004385D01*
X008160Y004165D02*
X008050Y004165D01*
X007995Y004110D01*
X008050Y004000D02*
X007995Y003945D01*
X007995Y003890D01*
X008050Y003835D01*
X008160Y003835D01*
X008215Y003890D01*
X008160Y004000D02*
X008050Y004000D01*
X008160Y004000D02*
X008215Y004055D01*
X008215Y004110D01*
X008160Y004165D01*
X007847Y004110D02*
X007847Y003890D01*
X007792Y003835D01*
X007682Y003835D01*
X007626Y003890D01*
X007478Y003835D02*
X007258Y003835D01*
X007478Y003835D02*
X007478Y004165D01*
X007626Y004110D02*
X007682Y004165D01*
X007792Y004165D01*
X007847Y004110D01*
X009528Y003350D02*
X009815Y003350D01*
X009672Y003494D02*
X009672Y003207D01*
X007823Y006985D02*
X007740Y006985D01*
X007698Y007027D01*
X007698Y007235D01*
X007570Y007152D02*
X007487Y007235D01*
X007487Y006985D01*
X007570Y006985D02*
X007404Y006985D01*
X007823Y006985D02*
X007865Y007027D01*
X007865Y007235D01*
D11*
X008700Y007650D02*
X008700Y007800D01*
X009500Y007800D01*
X009500Y007650D01*
X008700Y007650D01*
X008700Y007694D02*
X009500Y007694D01*
X009500Y007773D02*
X008700Y007773D01*
X008700Y007800D02*
X009500Y007800D01*
X009500Y009400D01*
X008700Y009400D01*
X008700Y007800D01*
X008750Y009900D02*
X007950Y009900D01*
X007950Y010050D01*
X008750Y010050D01*
X008750Y009900D01*
X008750Y009971D02*
X007950Y009971D01*
X007950Y010049D02*
X008750Y010049D01*
X008750Y010050D02*
X007950Y010050D01*
X007950Y011650D01*
X008750Y011650D01*
X008750Y010050D01*
X009450Y010050D02*
X009450Y009900D01*
X010250Y009900D01*
X010250Y010050D01*
X009450Y010050D01*
X010250Y010050D01*
X010250Y011650D01*
X009450Y011650D01*
X009450Y010050D01*
X009450Y010049D02*
X010250Y010049D01*
X010250Y009971D02*
X009450Y009971D01*
M02*
