G75*
G70*
%OFA0B0*%
%FSLAX24Y24*%
%IPPOS*%
%LPD*%
%AMOC8*
5,1,8,0,0,1.08239X$1,22.5*
%
%ADD10C,0.0000*%
%ADD11C,0.0030*%
D10*
X001100Y003850D02*
X003850Y001100D01*
X007850Y001100D01*
X010600Y003850D01*
X010600Y007600D01*
X009975Y008225D01*
X009975Y008975D01*
X010600Y009600D01*
X010600Y013350D01*
X007850Y016100D01*
X003850Y016098D01*
X003848Y016098D01*
X001100Y013350D01*
X001100Y009600D01*
X001725Y008975D01*
X001725Y008225D01*
X001100Y007600D01*
X001100Y003850D01*
X004100Y004600D02*
X004100Y006600D01*
X004600Y007100D01*
X007100Y007100D01*
X007600Y006600D01*
X007600Y004600D01*
X007100Y004100D01*
X004600Y004100D01*
X004100Y004600D01*
X004600Y010100D02*
X004100Y010600D01*
X004100Y012600D01*
X004600Y013100D01*
X007100Y013100D01*
X007600Y012600D01*
X007600Y010600D01*
X007100Y010100D01*
X004600Y010100D01*
D11*
X004677Y011365D02*
X004800Y011365D01*
X004862Y011427D01*
X004983Y011427D02*
X005045Y011365D01*
X005168Y011365D01*
X005230Y011427D01*
X005230Y011735D01*
X005352Y011735D02*
X005599Y011735D01*
X005475Y011735D02*
X005475Y011365D01*
X004983Y011427D02*
X004983Y011735D01*
X004862Y011674D02*
X004800Y011735D01*
X004677Y011735D01*
X004615Y011674D01*
X004615Y011427D01*
X004677Y011365D01*
X006088Y011427D02*
X006150Y011365D01*
X006273Y011365D01*
X006335Y011427D01*
X006335Y011674D01*
X006273Y011735D01*
X006150Y011735D01*
X006088Y011674D01*
X006088Y011427D01*
X006457Y011427D02*
X006518Y011365D01*
X006642Y011365D01*
X006703Y011427D01*
X006703Y011735D01*
X006825Y011735D02*
X007072Y011735D01*
X006948Y011735D02*
X006948Y011365D01*
X006457Y011427D02*
X006457Y011735D01*
X006457Y005785D02*
X006457Y005477D01*
X006518Y005415D01*
X006642Y005415D01*
X006703Y005477D01*
X006703Y005785D01*
X006825Y005785D02*
X007072Y005785D01*
X006948Y005785D02*
X006948Y005415D01*
X006335Y005477D02*
X006335Y005724D01*
X006273Y005785D01*
X006150Y005785D01*
X006088Y005724D01*
X006088Y005477D01*
X006150Y005415D01*
X006273Y005415D01*
X006335Y005477D01*
X005599Y005785D02*
X005352Y005785D01*
X005230Y005785D02*
X005230Y005477D01*
X005168Y005415D01*
X005045Y005415D01*
X004983Y005477D01*
X004983Y005785D01*
X004862Y005724D02*
X004800Y005785D01*
X004677Y005785D01*
X004615Y005724D01*
X004615Y005477D01*
X004677Y005415D01*
X004800Y005415D01*
X004862Y005477D01*
X005475Y005415D02*
X005475Y005785D01*
M02*
