G75*
G70*
%OFA0B0*%
%FSLAX24Y24*%
%IPPOS*%
%LPD*%
%AMOC8*
5,1,8,0,0,1.08239X$1,22.5*
%
%ADD10C,0.0080*%
%ADD11R,0.0240X0.0760*%
%ADD12R,0.0760X0.0240*%
%ADD13C,0.0070*%
%ADD14C,0.0100*%
D10*
X004510Y001840D02*
X004510Y003360D01*
X005190Y003360D01*
X005190Y002780D01*
X005190Y002420D01*
X005190Y001840D01*
X004510Y001840D01*
X006510Y001840D02*
X006510Y002420D01*
X006510Y002780D01*
X006510Y003360D01*
X007190Y003360D01*
X007190Y001840D01*
X006510Y001840D01*
X008340Y004260D02*
X008340Y004940D01*
X008920Y004940D01*
X009280Y004940D01*
X009860Y004940D01*
X009860Y004260D01*
X008340Y004260D01*
X003360Y004260D02*
X001840Y004260D01*
X001840Y004940D01*
X002420Y004940D01*
X002780Y004940D01*
X003360Y004940D01*
X003360Y004260D01*
X003360Y006260D02*
X002780Y006260D01*
X002420Y006260D01*
X001840Y006260D01*
X001840Y006940D01*
X003360Y006940D01*
X003360Y006260D01*
X004510Y007840D02*
X004510Y009360D01*
X005190Y009360D01*
X005190Y008780D01*
X005190Y008420D01*
X005190Y007840D01*
X004510Y007840D01*
X006510Y007840D02*
X006510Y008420D01*
X006510Y008780D01*
X006510Y009360D01*
X007190Y009360D01*
X007190Y007840D01*
X006510Y007840D01*
X008340Y006940D02*
X009860Y006940D01*
X009860Y006260D01*
X009280Y006260D01*
X008920Y006260D01*
X008340Y006260D01*
X008340Y006940D01*
X008340Y010260D02*
X008340Y010940D01*
X008920Y010940D01*
X009280Y010940D01*
X009860Y010940D01*
X009860Y010260D01*
X008340Y010260D01*
X003360Y010260D02*
X001840Y010260D01*
X001840Y010940D01*
X002420Y010940D01*
X002780Y010940D01*
X003360Y010940D01*
X003360Y010260D01*
X003360Y012260D02*
X002780Y012260D01*
X002420Y012260D01*
X001840Y012260D01*
X001840Y012940D01*
X003360Y012940D01*
X003360Y012260D01*
X004510Y013840D02*
X004510Y015360D01*
X005190Y015360D01*
X005190Y014780D01*
X005190Y014420D01*
X005190Y013840D01*
X004510Y013840D01*
X006510Y013840D02*
X006510Y014420D01*
X006510Y014780D01*
X006510Y015360D01*
X007190Y015360D01*
X007190Y013840D01*
X006510Y013840D01*
X008340Y012940D02*
X009860Y012940D01*
X009860Y012260D01*
X009280Y012260D01*
X008920Y012260D01*
X008340Y012260D01*
X008340Y012940D01*
D11*
X008260Y012600D03*
X003440Y012600D03*
X001760Y010600D03*
X009940Y010600D03*
X008260Y006600D03*
X003440Y006600D03*
X001760Y004600D03*
X009940Y004600D03*
D12*
X004850Y003440D03*
X006850Y001760D03*
X006850Y007760D03*
X004850Y009440D03*
X006850Y013760D03*
X004850Y015440D03*
D13*
X005190Y015420D02*
X005190Y014780D01*
X006510Y014780D01*
X006510Y015420D01*
X005190Y015420D01*
X005190Y014420D02*
X006510Y014420D01*
X006510Y013780D01*
X005190Y013780D01*
X005190Y014420D01*
X003420Y012260D02*
X002780Y012260D01*
X002780Y010940D01*
X003420Y010940D01*
X003420Y012260D01*
X002420Y012260D02*
X002420Y010940D01*
X001780Y010940D01*
X001780Y012260D01*
X002420Y012260D01*
X008280Y012260D02*
X008280Y010940D01*
X008920Y010940D01*
X008920Y012260D01*
X008280Y012260D01*
X009280Y012260D02*
X009920Y012260D01*
X009920Y010940D01*
X009280Y010940D01*
X009280Y012260D01*
X006510Y009420D02*
X005190Y009420D01*
X005190Y008780D01*
X006510Y008780D01*
X006510Y009420D01*
X006510Y008420D02*
X005190Y008420D01*
X005190Y007780D01*
X006510Y007780D01*
X006510Y008420D01*
X008280Y006260D02*
X008920Y006260D01*
X008920Y004940D01*
X008280Y004940D01*
X008280Y006260D01*
X009280Y006260D02*
X009920Y006260D01*
X009920Y004940D01*
X009280Y004940D01*
X009280Y006260D01*
X003420Y006260D02*
X003420Y004940D01*
X002780Y004940D01*
X002780Y006260D01*
X003420Y006260D01*
X002420Y006260D02*
X002420Y004940D01*
X001780Y004940D01*
X001780Y006260D01*
X002420Y006260D01*
X005190Y003420D02*
X005190Y002780D01*
X006510Y002780D01*
X006510Y003420D01*
X005190Y003420D01*
X005190Y002420D02*
X006510Y002420D01*
X006510Y001780D01*
X005190Y001780D01*
X005190Y002420D01*
D14*
X003850Y001100D02*
X002725Y002225D01*
X002225Y002725D01*
X001100Y003850D01*
X001100Y007600D01*
X001725Y008225D01*
X001725Y008975D01*
X001100Y009600D01*
X001100Y013350D01*
X002225Y014475D01*
X004100Y012600D01*
X004600Y013100D01*
X002725Y014975D01*
X003850Y016100D01*
X007850Y016100D01*
X008975Y014975D01*
X007100Y013100D01*
X007600Y012600D01*
X009475Y014475D01*
X010600Y013350D01*
X010600Y009600D01*
X009975Y008975D01*
X009975Y008225D01*
X010600Y007600D01*
X010600Y003850D01*
X009475Y002725D01*
X008975Y002225D01*
X007100Y004100D01*
X007600Y004600D01*
X009475Y002725D01*
X008975Y002225D02*
X007850Y001100D01*
X003850Y001100D01*
X002725Y002225D02*
X004600Y004100D01*
X004100Y004600D01*
X002225Y002725D01*
X004600Y004100D02*
X007100Y004100D01*
X007600Y004600D02*
X007600Y006600D01*
X007100Y007100D01*
X008600Y008600D01*
X007100Y010100D01*
X007600Y010600D01*
X009225Y008975D01*
X009975Y008975D01*
X009975Y008225D02*
X009225Y008225D01*
X007600Y006600D01*
X007100Y007100D02*
X004600Y007100D01*
X004100Y006600D01*
X002475Y008225D01*
X001725Y008225D01*
X003100Y008600D02*
X004600Y007100D01*
X004100Y006600D02*
X004100Y004600D01*
X003100Y008600D02*
X004600Y010100D01*
X004100Y010600D01*
X002475Y008975D01*
X001725Y008975D01*
X004600Y010100D02*
X007100Y010100D01*
X007600Y010600D02*
X007600Y012600D01*
X007100Y013100D02*
X004600Y013100D01*
X004100Y012600D02*
X004100Y010600D01*
X002225Y014475D02*
X002725Y014975D01*
X008975Y014975D02*
X009475Y014475D01*
M02*
