G75*
G70*
%OFA0B0*%
%FSLAX24Y24*%
%IPPOS*%
%LPD*%
%AMOC8*
5,1,8,0,0,1.08239X$1,22.5*
%
%ADD10R,0.0552X0.0552*%
%ADD11R,0.0474X0.0513*%
%ADD12R,0.0513X0.0474*%
D10*
X004850Y002187D03*
X006850Y002187D03*
X006850Y003013D03*
X004850Y003013D03*
X003013Y004600D03*
X002187Y004600D03*
X002187Y006600D03*
X003013Y006600D03*
X004850Y008187D03*
X006850Y008187D03*
X006850Y009013D03*
X004850Y009013D03*
X003013Y010600D03*
X002187Y010600D03*
X002187Y012600D03*
X003013Y012600D03*
X004850Y014187D03*
X006850Y014187D03*
X006850Y015013D03*
X004850Y015013D03*
X008687Y012600D03*
X009513Y012600D03*
X009513Y010600D03*
X008687Y010600D03*
X008687Y006600D03*
X009513Y006600D03*
X009513Y004600D03*
X008687Y004600D03*
D11*
X008600Y005265D03*
X009600Y005265D03*
X009600Y005935D03*
X008600Y005935D03*
X003100Y005935D03*
X002100Y005935D03*
X002100Y005265D03*
X003100Y005265D03*
X003100Y011265D03*
X002100Y011265D03*
X002100Y011935D03*
X003100Y011935D03*
X008600Y011935D03*
X009600Y011935D03*
X009600Y011265D03*
X008600Y011265D03*
D12*
X006185Y009100D03*
X005515Y009100D03*
X005515Y008100D03*
X006185Y008100D03*
X006185Y003100D03*
X005515Y003100D03*
X005515Y002100D03*
X006185Y002100D03*
X006185Y014100D03*
X005515Y014100D03*
X005515Y015100D03*
X006185Y015100D03*
M02*
