G75*
G70*
%OFA0B0*%
%FSLAX24Y24*%
%IPPOS*%
%LPD*%
%AMOC8*
5,1,8,0,0,1.08239X$1,22.5*
%
%ADD10R,0.0472X0.0472*%
%ADD11R,0.0394X0.0433*%
%ADD12R,0.0433X0.0394*%
%ADD13C,0.0120*%
%ADD14C,0.0340*%
%ADD15C,0.0100*%
%ADD16C,0.0160*%
D10*
X004850Y002187D03*
X006850Y002187D03*
X006850Y003013D03*
X004850Y003013D03*
X003013Y004600D03*
X002187Y004600D03*
X002187Y006600D03*
X003013Y006600D03*
X004850Y008187D03*
X006850Y008187D03*
X006850Y009013D03*
X004850Y009013D03*
X003013Y010600D03*
X002187Y010600D03*
X002187Y012600D03*
X003013Y012600D03*
X004850Y014187D03*
X006850Y014187D03*
X006850Y015013D03*
X004850Y015013D03*
X008687Y012600D03*
X009513Y012600D03*
X009513Y010600D03*
X008687Y010600D03*
X008687Y006600D03*
X009513Y006600D03*
X009513Y004600D03*
X008687Y004600D03*
D11*
X008600Y005265D03*
X009600Y005265D03*
X009600Y005935D03*
X008600Y005935D03*
X003100Y005935D03*
X002100Y005935D03*
X002100Y005265D03*
X003100Y005265D03*
X003100Y011265D03*
X002100Y011265D03*
X002100Y011935D03*
X003100Y011935D03*
X008600Y011935D03*
X009600Y011935D03*
X009600Y011265D03*
X008600Y011265D03*
D12*
X006185Y009100D03*
X005515Y009100D03*
X005515Y008100D03*
X006185Y008100D03*
X006185Y003100D03*
X005515Y003100D03*
X005515Y002100D03*
X006185Y002100D03*
X006185Y014100D03*
X005515Y014100D03*
X005515Y015100D03*
X006185Y015100D03*
D13*
X006850Y015100D01*
X006850Y015013D01*
X007100Y015600D02*
X007600Y015100D01*
X007100Y015600D02*
X005100Y015600D01*
X004850Y015350D01*
X004850Y015013D01*
X004850Y014187D02*
X004850Y014100D01*
X005515Y014100D01*
X006850Y014187D02*
X007437Y014187D01*
X007523Y014100D01*
X007600Y014100D01*
X009350Y013600D02*
X009600Y013600D01*
X010100Y013100D01*
X010100Y010850D01*
X009850Y010600D01*
X009513Y010600D01*
X008687Y010600D02*
X008600Y010600D01*
X008600Y011265D01*
X009600Y011935D02*
X009600Y012600D01*
X009513Y012600D01*
X003013Y012600D02*
X003013Y013187D01*
X002850Y013350D01*
X002600Y013350D01*
X001850Y013350D01*
X001600Y013100D01*
X001600Y010850D01*
X001850Y010600D01*
X002187Y010600D01*
X003013Y010600D02*
X003100Y010600D01*
X003100Y011265D01*
X002100Y011935D02*
X002100Y012600D01*
X002187Y012600D01*
X003350Y009600D02*
X004850Y009600D01*
X004850Y009100D01*
X004850Y009600D02*
X007100Y009600D01*
X007350Y009350D01*
X007350Y008350D01*
X007187Y008187D01*
X006850Y008187D01*
X005515Y008100D02*
X004850Y008100D01*
X004850Y008187D01*
X006185Y009100D02*
X006850Y009100D01*
X006850Y009013D01*
X003013Y007187D02*
X002850Y007350D01*
X003013Y007187D02*
X003013Y006600D01*
X002187Y006600D02*
X002100Y006600D01*
X002100Y005935D01*
X003100Y005265D02*
X003100Y004600D01*
X003013Y004600D01*
X002187Y004600D02*
X001850Y004600D01*
X001600Y004850D01*
X001600Y007100D01*
X001850Y007350D01*
X008600Y007100D02*
X008687Y007013D01*
X008687Y006600D01*
X009513Y006600D02*
X009600Y006600D01*
X009600Y005935D01*
X010100Y005600D02*
X010100Y004850D01*
X009850Y004600D01*
X009513Y004600D01*
X008687Y004600D02*
X008600Y004600D01*
X008600Y005265D01*
X007100Y003600D02*
X005100Y003600D01*
X004850Y003350D01*
X004850Y003013D01*
X006185Y003100D02*
X006850Y003100D01*
X006850Y003013D01*
X007350Y003100D02*
X007350Y003350D01*
X007100Y003600D01*
X007263Y002187D02*
X006850Y002187D01*
X007263Y002187D02*
X007350Y002100D01*
X005515Y002100D02*
X004850Y002100D01*
X004850Y002187D01*
X002187Y004600D02*
X002100Y004600D01*
D14*
X004100Y001600D03*
X006350Y002600D03*
X007350Y002100D03*
X007350Y003100D03*
X007850Y003600D03*
X008600Y004100D03*
X009350Y003600D03*
X009350Y003100D03*
X003600Y003600D03*
X010100Y005600D03*
X008600Y007100D03*
X009100Y007600D03*
X008100Y007850D03*
X007850Y008350D03*
X005600Y008600D03*
X003850Y009100D03*
X003350Y009100D03*
X002850Y008600D03*
X003600Y008350D03*
X003600Y007850D03*
X002850Y007350D03*
X001850Y007350D03*
X005600Y007600D03*
X003350Y009600D03*
X009100Y011100D03*
X009850Y009850D03*
X003600Y011850D03*
X002600Y013350D03*
X007350Y013600D03*
X007850Y013600D03*
X008350Y013600D03*
X007600Y014100D03*
X009350Y013600D03*
X007600Y015100D03*
D15*
X007350Y013600D02*
X007350Y013350D01*
X007850Y012850D01*
X007850Y008350D01*
X008350Y008100D02*
X008350Y008850D01*
X008100Y009100D01*
X008100Y013350D01*
X007850Y013600D01*
X008350Y013600D02*
X008687Y013263D01*
X008687Y012600D01*
X003600Y011850D02*
X003600Y010350D01*
X002350Y009100D01*
X002350Y008350D01*
X002850Y007850D01*
X003600Y007850D01*
X004100Y007600D02*
X003600Y007100D01*
X003600Y003600D01*
X004350Y003850D02*
X007600Y003850D01*
X007850Y003600D01*
X008350Y004100D02*
X008600Y004100D01*
X008350Y004100D02*
X007850Y004600D01*
X007850Y006850D01*
X007350Y007350D01*
X005850Y007350D01*
X005600Y007600D01*
X004350Y007350D02*
X003850Y006850D01*
X003850Y004350D01*
X004350Y003850D01*
X004100Y002600D02*
X004100Y001600D01*
X004350Y007350D02*
X004350Y008600D01*
X003850Y009100D01*
X003350Y009100D02*
X004100Y008350D01*
X004100Y007600D01*
X003600Y008350D02*
X003350Y008600D01*
X002850Y008600D01*
X008100Y007850D02*
X008350Y008100D01*
D16*
X008600Y007600D02*
X008350Y007350D01*
X007850Y007350D01*
X007600Y007600D01*
X006350Y007600D01*
X006185Y007765D01*
X006185Y008100D01*
X006185Y008515D01*
X006100Y008600D01*
X005600Y008600D01*
X005515Y008685D01*
X005515Y009100D01*
X004850Y009100D02*
X004850Y009013D01*
X002600Y010100D02*
X002100Y009600D01*
X002100Y007600D01*
X002600Y007100D01*
X002600Y005935D01*
X002600Y005265D01*
X002100Y005265D01*
X002600Y005265D02*
X002600Y003600D01*
X003600Y002600D01*
X004100Y002600D01*
X005515Y002600D01*
X006350Y002600D01*
X006185Y002600D01*
X006185Y002100D01*
X006350Y002600D02*
X008850Y002600D01*
X009350Y003100D01*
X009350Y003600D01*
X009350Y003850D01*
X009100Y004100D01*
X009100Y005265D01*
X009100Y005935D01*
X008600Y005935D01*
X009100Y005935D02*
X009100Y007600D01*
X008600Y007600D01*
X009100Y007600D02*
X009100Y009850D01*
X009850Y009850D01*
X009100Y009850D02*
X009100Y011100D01*
X009100Y011265D01*
X009100Y011935D01*
X008600Y011935D01*
X009100Y011935D02*
X009100Y013350D01*
X007850Y014600D01*
X006185Y014600D01*
X005600Y014600D01*
X005515Y014685D01*
X005515Y015100D01*
X006185Y014600D02*
X006185Y014100D01*
X003100Y011935D02*
X002685Y011935D01*
X002600Y011850D01*
X002600Y011265D01*
X002600Y010100D01*
X002600Y011265D02*
X002100Y011265D01*
X009100Y011265D02*
X009600Y011265D01*
X003100Y005935D02*
X002600Y005935D01*
X009100Y005265D02*
X009600Y005265D01*
X005515Y003100D02*
X005515Y002600D01*
M02*
