%
M48
M72
T01C0.0180
%
T01
X4100Y1600
X6350Y2600
X7350Y2100
X7350Y3100
X7850Y3600
X8600Y4100
X9350Y3600
X9350Y3100
X3600Y3600
X10100Y5600
X8600Y7100
X9100Y7600
X8100Y7850
X7850Y8350
X5600Y8600
X3850Y9100
X3350Y9100
X2850Y8600
X3600Y8350
X3600Y7850
X2850Y7350
X1850Y7350
X5600Y7600
X3350Y9600
X9100Y11100
X9850Y9850
X3600Y11850
X2600Y13350
X7350Y13600
X7850Y13600
X8350Y13600
X7600Y14100
X9350Y13600
X7600Y15100
M30
