G75*
G70*
%OFA0B0*%
%FSLAX24Y24*%
%IPPOS*%
%LPD*%
%AMOC8*
5,1,8,0,0,1.08239X$1,22.5*
%
%ADD10R,0.0315X0.0354*%
%ADD11R,0.0354X0.0315*%
%ADD12R,0.0709X0.0150*%
%ADD13R,0.0600X0.0500*%
%ADD14R,0.0600X0.0300*%
%ADD15C,0.0500*%
%ADD16R,0.0394X0.0433*%
%ADD17C,0.0090*%
%ADD18R,0.0433X0.0394*%
%ADD19C,0.0120*%
%ADD20C,0.0340*%
%ADD21C,0.0160*%
%ADD22C,0.0100*%
D10*
X001956Y004956D03*
X002744Y004956D03*
X002350Y005744D03*
X008956Y004956D03*
X009744Y004956D03*
X009350Y005744D03*
X002350Y011956D03*
X001956Y012744D03*
X002744Y012744D03*
X008956Y012994D03*
X009744Y012994D03*
X009350Y012206D03*
D11*
X005456Y014206D03*
X006244Y014600D03*
X005456Y014994D03*
X002206Y010744D03*
X002994Y010350D03*
X002206Y009956D03*
X005456Y003744D03*
X006244Y003350D03*
X005456Y002956D03*
D12*
X004531Y007448D03*
X004531Y007704D03*
X004531Y007960D03*
X004531Y008216D03*
X004531Y008472D03*
X004531Y008728D03*
X004531Y008984D03*
X004531Y009240D03*
X004531Y009496D03*
X004531Y009752D03*
X007169Y009752D03*
X007169Y009496D03*
X007169Y009240D03*
X007169Y008984D03*
X007169Y008728D03*
X007169Y008472D03*
X007169Y008216D03*
X007169Y007960D03*
X007169Y007704D03*
X007169Y007448D03*
D13*
X009100Y008600D03*
X008350Y010850D03*
X009850Y010850D03*
D14*
X009850Y011400D03*
X008350Y011400D03*
X008350Y010300D03*
X009850Y010300D03*
X009100Y009150D03*
X009100Y008050D03*
D15*
X008850Y003475D02*
X008850Y002725D01*
X007850Y002975D02*
X007850Y002225D01*
X003850Y002225D02*
X003850Y002975D01*
X002850Y002725D02*
X002850Y003475D01*
D16*
X003600Y004515D03*
X003600Y005185D03*
X003100Y006015D03*
X003100Y006685D03*
X002350Y008515D03*
X002350Y009185D03*
X003600Y010265D03*
X003600Y010935D03*
X008350Y012265D03*
X008350Y012935D03*
X006850Y002685D03*
X006850Y002015D03*
X004850Y002185D03*
X004850Y001515D03*
D17*
X004405Y014595D02*
X004200Y014595D01*
X004132Y014663D01*
X004132Y014732D01*
X004200Y014800D01*
X004405Y014800D01*
X004200Y014800D02*
X004132Y014869D01*
X004132Y014937D01*
X004200Y015005D01*
X004405Y015005D01*
X004405Y014595D01*
X003945Y014595D02*
X003945Y014663D01*
X003877Y014663D01*
X003877Y014595D01*
X003945Y014595D01*
X003715Y014595D02*
X003715Y015005D01*
X003441Y015005D01*
X003578Y014800D02*
X003715Y014800D01*
D18*
X006015Y013600D03*
X006685Y013600D03*
X002935Y011350D03*
X002265Y011350D03*
X009265Y004350D03*
X009935Y004350D03*
D19*
X003764Y001498D02*
X002937Y002324D01*
X002946Y002325D01*
X003007Y002345D01*
X003065Y002374D01*
X003117Y002412D01*
X003163Y002458D01*
X003201Y002510D01*
X003230Y002568D01*
X003250Y002629D01*
X003260Y002693D01*
X003260Y003040D01*
X002910Y003040D01*
X002910Y003160D01*
X003260Y003160D01*
X003260Y003506D01*
X003303Y003402D01*
X003402Y003303D01*
X003521Y003254D01*
X003485Y003219D01*
X003420Y003061D01*
X003420Y002139D01*
X003485Y001981D01*
X003606Y001860D01*
X003764Y001795D01*
X003802Y001795D01*
X003750Y001670D01*
X003750Y001530D01*
X003764Y001498D01*
X003750Y001574D02*
X003687Y001574D01*
X003759Y001693D02*
X003569Y001693D01*
X003450Y001811D02*
X003726Y001811D01*
X003537Y001930D02*
X003332Y001930D01*
X003213Y002048D02*
X003458Y002048D01*
X003420Y002167D02*
X003095Y002167D01*
X002976Y002285D02*
X003420Y002285D01*
X003420Y002404D02*
X003105Y002404D01*
X003207Y002522D02*
X003420Y002522D01*
X003420Y002641D02*
X003252Y002641D01*
X003260Y002759D02*
X003420Y002759D01*
X003420Y002878D02*
X003260Y002878D01*
X003260Y002996D02*
X003420Y002996D01*
X003442Y003115D02*
X002910Y003115D01*
X002910Y003160D02*
X002790Y003160D01*
X002790Y003881D01*
X002754Y003875D01*
X002693Y003855D01*
X002635Y003826D01*
X002583Y003788D01*
X002537Y003742D01*
X002499Y003690D01*
X002470Y003632D01*
X002450Y003571D01*
X002440Y003507D01*
X002440Y003160D01*
X002790Y003160D01*
X002790Y003040D01*
X002440Y003040D01*
X002440Y002821D01*
X001320Y003941D01*
X001320Y007509D01*
X001945Y008134D01*
X001945Y009066D01*
X001816Y009195D01*
X001320Y009691D01*
X001320Y013259D01*
X003939Y015878D01*
X003941Y015878D01*
X003941Y015878D01*
X007759Y015880D01*
X010380Y013259D01*
X010380Y009691D01*
X009755Y009066D01*
X009755Y008134D01*
X009884Y008005D01*
X010380Y007509D01*
X010380Y005815D01*
X010298Y005897D01*
X010170Y005950D01*
X010030Y005950D01*
X009902Y005897D01*
X009897Y005892D01*
X009842Y005947D01*
X009754Y005984D01*
X009687Y005984D01*
X009687Y005995D01*
X009582Y006101D01*
X009118Y006101D01*
X009028Y006011D01*
X008840Y006199D01*
X008840Y006845D01*
X008897Y006902D01*
X008950Y007030D01*
X008950Y007170D01*
X008897Y007298D01*
X008798Y007397D01*
X008670Y007450D01*
X008530Y007450D01*
X008402Y007397D01*
X008303Y007298D01*
X008250Y007170D01*
X008250Y007030D01*
X008303Y006902D01*
X008360Y006845D01*
X008360Y006052D01*
X008397Y005964D01*
X008753Y005608D01*
X008820Y005540D01*
X008909Y005504D01*
X009013Y005504D01*
X009013Y005492D01*
X009118Y005387D01*
X009582Y005387D01*
X009653Y005458D01*
X009714Y005397D01*
X009802Y005360D01*
X009845Y005360D01*
X009892Y005313D01*
X009512Y005313D01*
X009406Y005208D01*
X009406Y004727D01*
X009265Y004727D01*
X009274Y004758D01*
X009274Y004938D01*
X008975Y004938D01*
X008975Y004975D01*
X008938Y004975D01*
X008938Y005293D01*
X008778Y005293D01*
X008737Y005283D01*
X008701Y005261D01*
X008671Y005232D01*
X008650Y005195D01*
X008639Y005155D01*
X008639Y004975D01*
X008938Y004975D01*
X008938Y004938D01*
X008639Y004938D01*
X008639Y004758D01*
X008650Y004717D01*
X008671Y004681D01*
X008701Y004651D01*
X008737Y004630D01*
X008778Y004619D01*
X008869Y004619D01*
X008869Y004580D01*
X008755Y004580D01*
X008625Y004450D01*
X008530Y004450D01*
X008402Y004397D01*
X008303Y004298D01*
X008250Y004170D01*
X008250Y004030D01*
X008303Y003902D01*
X008402Y003803D01*
X008521Y003754D01*
X008485Y003719D01*
X008420Y003561D01*
X008420Y002639D01*
X008485Y002481D01*
X008606Y002360D01*
X008743Y002304D01*
X007759Y001320D01*
X005227Y001320D01*
X005227Y001806D01*
X005183Y001850D01*
X005227Y001894D01*
X005227Y002476D01*
X005121Y002581D01*
X004579Y002581D01*
X004473Y002476D01*
X004473Y002415D01*
X004361Y002415D01*
X004280Y002495D01*
X004280Y003061D01*
X004215Y003219D01*
X004094Y003340D01*
X004080Y003345D01*
X004080Y003445D01*
X003950Y003575D01*
X003950Y003670D01*
X003897Y003798D01*
X003798Y003897D01*
X003670Y003950D01*
X003530Y003950D01*
X003402Y003897D01*
X003303Y003798D01*
X003250Y003670D01*
X003250Y003570D01*
X003250Y003571D01*
X003230Y003632D01*
X003201Y003690D01*
X003163Y003742D01*
X003117Y003788D01*
X003065Y003826D01*
X003007Y003855D01*
X002946Y003875D01*
X002910Y003881D01*
X002910Y003160D01*
X002910Y003233D02*
X002790Y003233D01*
X002790Y003115D02*
X002147Y003115D01*
X002028Y003233D02*
X002440Y003233D01*
X002440Y003352D02*
X001910Y003352D01*
X001791Y003470D02*
X002440Y003470D01*
X002456Y003589D02*
X001673Y003589D01*
X001554Y003707D02*
X002512Y003707D01*
X002635Y003826D02*
X001436Y003826D01*
X001320Y003944D02*
X003516Y003944D01*
X003684Y003944D02*
X003931Y003944D01*
X003869Y003826D02*
X004049Y003826D01*
X003935Y003707D02*
X004168Y003707D01*
X004286Y003589D02*
X003950Y003589D01*
X004055Y003470D02*
X004405Y003470D01*
X004523Y003352D02*
X004080Y003352D01*
X004200Y003233D02*
X004642Y003233D01*
X004760Y003115D02*
X004258Y003115D01*
X004280Y002996D02*
X004879Y002996D01*
X004997Y002878D02*
X004280Y002878D01*
X004280Y002759D02*
X005099Y002759D01*
X005099Y002776D02*
X005099Y002724D01*
X005205Y002619D01*
X005708Y002619D01*
X005813Y002724D01*
X005813Y003188D01*
X005708Y003294D01*
X005231Y003294D01*
X004645Y003880D01*
X005119Y003880D01*
X005119Y003762D01*
X005438Y003762D01*
X005438Y003725D01*
X005475Y003725D01*
X005475Y003762D01*
X005793Y003762D01*
X005793Y003880D01*
X007191Y003880D01*
X007320Y004009D01*
X007820Y004509D01*
X007820Y006691D01*
X007691Y006820D01*
X007298Y007214D01*
X007544Y007214D01*
X007585Y007225D01*
X007621Y007246D01*
X007651Y007275D01*
X007672Y007312D01*
X007683Y007353D01*
X007683Y007448D01*
X007169Y007448D01*
X007169Y007448D01*
X006655Y007448D01*
X006655Y007353D01*
X006663Y007320D01*
X005815Y007320D01*
X005865Y007370D01*
X006195Y007370D01*
X006300Y007474D01*
X006655Y007474D01*
X006655Y007448D01*
X007169Y007448D01*
X007169Y007448D01*
X007683Y007448D01*
X007683Y007535D01*
X007703Y007555D01*
X007703Y007730D01*
X007771Y007730D01*
X007803Y007652D01*
X007902Y007553D01*
X008030Y007500D01*
X008170Y007500D01*
X008298Y007553D01*
X008397Y007652D01*
X008450Y007780D01*
X008450Y007920D01*
X008397Y008048D01*
X008298Y008147D01*
X008170Y008200D01*
X008167Y008200D01*
X008200Y008280D01*
X008200Y008420D01*
X008147Y008548D01*
X008048Y008647D01*
X007920Y008700D01*
X007780Y008700D01*
X007683Y008660D01*
X007683Y008728D01*
X007683Y008814D01*
X007703Y008834D01*
X007703Y009010D01*
X007865Y009010D01*
X008370Y008505D01*
X008505Y008370D01*
X008620Y008370D01*
X008620Y008275D01*
X008620Y008275D01*
X008620Y007825D01*
X008725Y007720D01*
X008771Y007720D01*
X008750Y007670D01*
X008750Y007530D01*
X008803Y007402D01*
X008902Y007303D01*
X009030Y007250D01*
X009170Y007250D01*
X009298Y007303D01*
X009397Y007402D01*
X009450Y007530D01*
X009450Y007670D01*
X009429Y007720D01*
X009475Y007720D01*
X009580Y007825D01*
X009580Y008275D01*
X009580Y008925D01*
X009553Y008952D01*
X009560Y008979D01*
X009560Y009135D01*
X009115Y009135D01*
X009115Y009165D01*
X009085Y009165D01*
X009085Y009460D01*
X009035Y009460D01*
X009330Y009755D01*
X009330Y010505D01*
X009370Y010545D01*
X009370Y010525D01*
X009370Y010525D01*
X009370Y010075D01*
X009475Y009970D01*
X009521Y009970D01*
X009500Y009920D01*
X009500Y009780D01*
X009553Y009652D01*
X009652Y009553D01*
X009780Y009500D01*
X009920Y009500D01*
X010048Y009553D01*
X010147Y009652D01*
X010200Y009780D01*
X010200Y009920D01*
X010179Y009970D01*
X010225Y009970D01*
X010330Y010075D01*
X010330Y010525D01*
X010330Y011175D01*
X010303Y011202D01*
X010310Y011229D01*
X010310Y011385D01*
X009865Y011385D01*
X009865Y011415D01*
X009835Y011415D01*
X009835Y011710D01*
X009529Y011710D01*
X009488Y011699D01*
X009452Y011678D01*
X009422Y011648D01*
X009401Y011612D01*
X009390Y011571D01*
X009390Y011415D01*
X009835Y011415D01*
X009835Y011385D01*
X009390Y011385D01*
X009390Y011305D01*
X009298Y011397D01*
X009170Y011450D01*
X009030Y011450D01*
X008902Y011397D01*
X008810Y011305D01*
X008810Y011385D01*
X008365Y011385D01*
X008365Y011415D01*
X008335Y011415D01*
X008335Y011710D01*
X008029Y011710D01*
X007988Y011699D01*
X007952Y011678D01*
X007922Y011648D01*
X007901Y011612D01*
X007890Y011571D01*
X007890Y011415D01*
X008335Y011415D01*
X008335Y011385D01*
X007890Y011385D01*
X007890Y011229D01*
X007897Y011202D01*
X007870Y011175D01*
X007870Y010945D01*
X007820Y010895D01*
X007820Y012691D01*
X007691Y012820D01*
X007248Y013264D01*
X007280Y013250D01*
X007420Y013250D01*
X007548Y013303D01*
X007600Y013355D01*
X007620Y013335D01*
X007620Y013005D01*
X007755Y012870D01*
X007920Y012705D01*
X007973Y012705D01*
X007973Y012644D01*
X008017Y012600D01*
X007973Y012556D01*
X007973Y011974D01*
X008079Y011869D01*
X008621Y011869D01*
X008727Y011974D01*
X008727Y012035D01*
X008861Y012035D01*
X009013Y012187D01*
X009013Y011955D01*
X009118Y011849D01*
X009582Y011849D01*
X009687Y011955D01*
X009687Y012458D01*
X009590Y012556D01*
X009590Y012657D01*
X009725Y012657D01*
X009725Y012975D01*
X009762Y012975D01*
X009762Y012657D01*
X009922Y012657D01*
X009963Y012667D01*
X009999Y012689D01*
X010029Y012718D01*
X010050Y012755D01*
X010061Y012795D01*
X010061Y012975D01*
X009762Y012975D01*
X009762Y013012D01*
X009725Y013012D01*
X009725Y013331D01*
X009590Y013331D01*
X009590Y013345D01*
X009647Y013402D01*
X009700Y013530D01*
X009700Y013670D01*
X009647Y013798D01*
X009548Y013897D01*
X009420Y013950D01*
X009280Y013950D01*
X009152Y013897D01*
X009095Y013840D01*
X008605Y013840D01*
X008548Y013897D01*
X008420Y013950D01*
X008280Y013950D01*
X008152Y013897D01*
X008100Y013845D01*
X008048Y013897D01*
X007920Y013950D01*
X007917Y013950D01*
X007950Y014030D01*
X007950Y014170D01*
X007897Y014298D01*
X007840Y014355D01*
X007840Y014845D01*
X007897Y014902D01*
X007950Y015030D01*
X007950Y015170D01*
X007897Y015298D01*
X007798Y015397D01*
X007670Y015450D01*
X007530Y015450D01*
X007402Y015397D01*
X007345Y015340D01*
X006552Y015340D01*
X006464Y015303D01*
X006397Y015236D01*
X006098Y014937D01*
X005992Y014937D01*
X005887Y014832D01*
X005887Y014368D01*
X005992Y014263D01*
X006495Y014263D01*
X006601Y014368D01*
X006601Y014761D01*
X006699Y014860D01*
X007345Y014860D01*
X007360Y014845D01*
X007360Y014355D01*
X007303Y014298D01*
X007250Y014170D01*
X007250Y014030D01*
X007283Y013950D01*
X007280Y013950D01*
X007152Y013897D01*
X007085Y013830D01*
X007081Y013830D01*
X007081Y013871D01*
X006976Y013977D01*
X006394Y013977D01*
X006350Y013933D01*
X006306Y013977D01*
X005813Y013977D01*
X005813Y014438D01*
X005708Y014544D01*
X005205Y014544D01*
X005099Y014438D01*
X005099Y013974D01*
X005205Y013869D01*
X005226Y013869D01*
X005226Y013648D01*
X005505Y013370D01*
X005619Y013370D01*
X005619Y013329D01*
X005627Y013320D01*
X004509Y013320D01*
X004380Y013191D01*
X003880Y012691D01*
X003880Y012065D01*
X003798Y012147D01*
X003670Y012200D01*
X003530Y012200D01*
X003402Y012147D01*
X003335Y012080D01*
X003005Y012080D01*
X002705Y011780D01*
X002705Y011727D01*
X002687Y011727D01*
X002687Y012208D01*
X002590Y012306D01*
X002590Y012407D01*
X002725Y012407D01*
X002725Y012725D01*
X002762Y012725D01*
X002762Y012407D01*
X002922Y012407D01*
X002963Y012417D01*
X002999Y012439D01*
X003029Y012468D01*
X003050Y012505D01*
X003061Y012545D01*
X003061Y012725D01*
X002762Y012725D01*
X002762Y012762D01*
X003061Y012762D01*
X003061Y012942D01*
X003050Y012983D01*
X003029Y013019D01*
X002999Y013049D01*
X002963Y013070D01*
X002922Y013081D01*
X002826Y013081D01*
X002897Y013152D01*
X002950Y013280D01*
X002950Y013420D01*
X002897Y013548D01*
X002798Y013647D01*
X002670Y013700D01*
X002530Y013700D01*
X002402Y013647D01*
X002303Y013548D01*
X002250Y013420D01*
X002250Y013339D01*
X002147Y013236D01*
X002110Y013148D01*
X002110Y013101D01*
X001724Y013101D01*
X001619Y012995D01*
X001619Y012492D01*
X001724Y012387D01*
X001726Y012387D01*
X001726Y011648D01*
X001869Y011506D01*
X001869Y011079D01*
X001925Y011023D01*
X001901Y010999D01*
X001880Y010963D01*
X001869Y010922D01*
X001869Y010762D01*
X002188Y010762D01*
X002188Y010725D01*
X002225Y010725D01*
X002225Y010762D01*
X002543Y010762D01*
X002543Y010922D01*
X002533Y010963D01*
X002527Y010973D01*
X002556Y010973D01*
X002600Y011017D01*
X002644Y010973D01*
X003226Y010973D01*
X003243Y010991D01*
X003243Y010973D01*
X003562Y010973D01*
X003562Y011311D01*
X003382Y011311D01*
X003341Y011300D01*
X003331Y011294D01*
X003331Y011620D01*
X003335Y011620D01*
X003402Y011553D01*
X003530Y011500D01*
X003670Y011500D01*
X003798Y011553D01*
X003880Y011635D01*
X003880Y011288D01*
X003859Y011300D01*
X003818Y011311D01*
X003638Y011311D01*
X003638Y010973D01*
X003562Y010973D01*
X003562Y010896D01*
X003243Y010896D01*
X003243Y010697D01*
X003246Y010687D01*
X003245Y010687D01*
X002742Y010687D01*
X002637Y010582D01*
X002637Y010118D01*
X002742Y010013D01*
X002754Y010013D01*
X002754Y009659D01*
X002790Y009570D01*
X002964Y009397D01*
X003052Y009360D01*
X003095Y009360D01*
X003105Y009350D01*
X003053Y009298D01*
X003000Y009170D01*
X003000Y009030D01*
X003053Y008902D01*
X003152Y008803D01*
X003280Y008750D01*
X003420Y008750D01*
X003548Y008803D01*
X003600Y008855D01*
X003652Y008803D01*
X003780Y008750D01*
X003920Y008750D01*
X003997Y008782D01*
X003997Y008579D01*
X004017Y008559D01*
X004017Y008472D01*
X004017Y008446D01*
X003939Y008446D01*
X003897Y008548D01*
X003798Y008647D01*
X003670Y008700D01*
X003530Y008700D01*
X003402Y008647D01*
X003303Y008548D01*
X003250Y008420D01*
X003250Y008280D01*
X003303Y008152D01*
X003355Y008100D01*
X003303Y008048D01*
X003250Y007920D01*
X003250Y007780D01*
X003303Y007652D01*
X003402Y007553D01*
X003456Y007531D01*
X003196Y007272D01*
X003200Y007280D01*
X003200Y007420D01*
X003147Y007548D01*
X003048Y007647D01*
X002920Y007700D01*
X002780Y007700D01*
X002652Y007647D01*
X002595Y007590D01*
X002105Y007590D01*
X002048Y007647D01*
X001920Y007700D01*
X001780Y007700D01*
X001652Y007647D01*
X001553Y007548D01*
X001500Y007420D01*
X001500Y007280D01*
X001553Y007152D01*
X001652Y007053D01*
X001780Y007000D01*
X001920Y007000D01*
X002048Y007053D01*
X002105Y007110D01*
X002110Y007110D01*
X002110Y006093D01*
X002013Y005995D01*
X002013Y005492D01*
X002118Y005387D01*
X002561Y005387D01*
X002514Y005339D01*
X002514Y005313D01*
X002512Y005313D01*
X002406Y005208D01*
X002406Y004705D01*
X002512Y004599D01*
X002976Y004599D01*
X003081Y004705D01*
X003081Y005208D01*
X003057Y005232D01*
X003195Y005370D01*
X003223Y005398D01*
X003223Y004894D01*
X003267Y004850D01*
X003223Y004806D01*
X003223Y004224D01*
X003329Y004119D01*
X003756Y004119D01*
X005014Y002861D01*
X005099Y002776D01*
X005183Y002641D02*
X004280Y002641D01*
X004280Y002522D02*
X004519Y002522D01*
X005181Y002522D02*
X006003Y002522D01*
X006000Y002530D02*
X006053Y002402D01*
X006152Y002303D01*
X006280Y002250D01*
X006420Y002250D01*
X006473Y002272D01*
X006473Y001724D01*
X006579Y001619D01*
X006756Y001619D01*
X006870Y001505D01*
X007005Y001370D01*
X007695Y001370D01*
X007945Y001620D01*
X008080Y001755D01*
X008080Y001855D01*
X008094Y001860D01*
X008215Y001981D01*
X008280Y002139D01*
X008280Y003061D01*
X008215Y003219D01*
X008094Y003340D01*
X008087Y003342D01*
X008147Y003402D01*
X008200Y003530D01*
X008200Y003670D01*
X008147Y003798D01*
X008048Y003897D01*
X007920Y003950D01*
X007780Y003950D01*
X007652Y003897D01*
X007553Y003798D01*
X007500Y003670D01*
X007500Y003530D01*
X007553Y003402D01*
X007613Y003342D01*
X007606Y003340D01*
X007606Y003339D01*
X007548Y003397D01*
X007420Y003450D01*
X007339Y003450D01*
X007236Y003553D01*
X007148Y003590D01*
X006593Y003590D01*
X006495Y003687D01*
X005992Y003687D01*
X005887Y003582D01*
X005887Y003118D01*
X005992Y003013D01*
X006495Y003013D01*
X006593Y003110D01*
X007000Y003110D01*
X007000Y003081D01*
X006579Y003081D01*
X006473Y002976D01*
X006473Y002928D01*
X006420Y002950D01*
X006280Y002950D01*
X006152Y002897D01*
X006053Y002798D01*
X006000Y002670D01*
X006000Y002530D01*
X006000Y002641D02*
X005730Y002641D01*
X005813Y002759D02*
X006037Y002759D01*
X006133Y002878D02*
X005813Y002878D01*
X005813Y002996D02*
X006493Y002996D01*
X005890Y003115D02*
X005813Y003115D01*
X005769Y003233D02*
X005887Y003233D01*
X005887Y003352D02*
X005174Y003352D01*
X005217Y003437D02*
X005258Y003426D01*
X005438Y003426D01*
X005438Y003725D01*
X005119Y003725D01*
X005119Y003565D01*
X005130Y003524D01*
X005151Y003488D01*
X005181Y003458D01*
X005217Y003437D01*
X005169Y003470D02*
X005055Y003470D01*
X005119Y003589D02*
X004937Y003589D01*
X004818Y003707D02*
X005119Y003707D01*
X005119Y003826D02*
X004700Y003826D01*
X003812Y004063D02*
X001320Y004063D01*
X001320Y004181D02*
X003266Y004181D01*
X003223Y004300D02*
X001320Y004300D01*
X001320Y004418D02*
X003223Y004418D01*
X003223Y004537D02*
X001320Y004537D01*
X001320Y004655D02*
X001697Y004655D01*
X001701Y004651D02*
X001737Y004630D01*
X001778Y004619D01*
X001938Y004619D01*
X001938Y004938D01*
X001639Y004938D01*
X001639Y004758D01*
X001650Y004717D01*
X001671Y004681D01*
X001701Y004651D01*
X001639Y004774D02*
X001320Y004774D01*
X001320Y004892D02*
X001639Y004892D01*
X001639Y004975D02*
X001938Y004975D01*
X001938Y005293D01*
X001778Y005293D01*
X001737Y005283D01*
X001701Y005261D01*
X001671Y005232D01*
X001650Y005195D01*
X001639Y005155D01*
X001639Y004975D01*
X001639Y005011D02*
X001320Y005011D01*
X001320Y005129D02*
X001639Y005129D01*
X001687Y005248D02*
X001320Y005248D01*
X001320Y005366D02*
X002541Y005366D01*
X002446Y005248D02*
X002226Y005248D01*
X002212Y005261D02*
X002176Y005283D01*
X002135Y005293D01*
X001975Y005293D01*
X001975Y004975D01*
X001938Y004975D01*
X001938Y004938D01*
X001975Y004938D01*
X001975Y004975D01*
X002274Y004975D01*
X002274Y005155D01*
X002263Y005195D01*
X002242Y005232D01*
X002212Y005261D01*
X002274Y005129D02*
X002406Y005129D01*
X002406Y005011D02*
X002274Y005011D01*
X002274Y004938D02*
X001975Y004938D01*
X001975Y004619D01*
X002135Y004619D01*
X002176Y004630D01*
X002212Y004651D01*
X002242Y004681D01*
X002263Y004717D01*
X002274Y004758D01*
X002274Y004938D01*
X002274Y004892D02*
X002406Y004892D01*
X002406Y004774D02*
X002274Y004774D01*
X002216Y004655D02*
X002456Y004655D01*
X001975Y004655D02*
X001938Y004655D01*
X001938Y004774D02*
X001975Y004774D01*
X001975Y004892D02*
X001938Y004892D01*
X001938Y005011D02*
X001975Y005011D01*
X001975Y005129D02*
X001938Y005129D01*
X001938Y005248D02*
X001975Y005248D01*
X002020Y005485D02*
X001320Y005485D01*
X001320Y005603D02*
X002013Y005603D01*
X002013Y005722D02*
X001320Y005722D01*
X001320Y005840D02*
X002013Y005840D01*
X002013Y005959D02*
X001320Y005959D01*
X001320Y006077D02*
X002094Y006077D01*
X002110Y006196D02*
X001320Y006196D01*
X001320Y006314D02*
X002110Y006314D01*
X002110Y006433D02*
X001320Y006433D01*
X001320Y006551D02*
X002110Y006551D01*
X002110Y006670D02*
X001320Y006670D01*
X001320Y006788D02*
X002110Y006788D01*
X002110Y006907D02*
X001320Y006907D01*
X001320Y007025D02*
X001720Y007025D01*
X001562Y007144D02*
X001320Y007144D01*
X001320Y007262D02*
X001508Y007262D01*
X001500Y007381D02*
X001320Y007381D01*
X001320Y007499D02*
X001533Y007499D01*
X001623Y007618D02*
X001429Y007618D01*
X001547Y007736D02*
X003268Y007736D01*
X003250Y007855D02*
X001666Y007855D01*
X001784Y007973D02*
X003272Y007973D01*
X003347Y008092D02*
X001903Y008092D01*
X001945Y008210D02*
X001987Y008210D01*
X001973Y008224D02*
X002079Y008119D01*
X002621Y008119D01*
X002727Y008224D01*
X002727Y008272D01*
X002780Y008250D01*
X002920Y008250D01*
X003048Y008303D01*
X003147Y008402D01*
X003200Y008530D01*
X003200Y008670D01*
X003147Y008798D01*
X003048Y008897D01*
X002920Y008950D01*
X002780Y008950D01*
X002727Y008928D01*
X002727Y009476D01*
X002621Y009581D01*
X002580Y009581D01*
X002580Y009695D01*
X002557Y009718D01*
X002563Y009724D01*
X002563Y010188D01*
X002458Y010294D01*
X001955Y010294D01*
X001849Y010188D01*
X001849Y009724D01*
X001955Y009619D01*
X002006Y009619D01*
X002061Y009564D01*
X001973Y009476D01*
X001973Y008894D01*
X002017Y008850D01*
X001973Y008806D01*
X001973Y008224D01*
X001973Y008329D02*
X001945Y008329D01*
X001945Y008447D02*
X001973Y008447D01*
X001973Y008566D02*
X001945Y008566D01*
X001945Y008684D02*
X001973Y008684D01*
X001973Y008803D02*
X001945Y008803D01*
X001945Y008921D02*
X001973Y008921D01*
X001973Y009040D02*
X001945Y009040D01*
X001973Y009158D02*
X001853Y009158D01*
X001735Y009277D02*
X001973Y009277D01*
X001973Y009395D02*
X001616Y009395D01*
X001498Y009514D02*
X002011Y009514D01*
X001941Y009632D02*
X001379Y009632D01*
X001320Y009751D02*
X001849Y009751D01*
X001849Y009869D02*
X001320Y009869D01*
X001320Y009988D02*
X001849Y009988D01*
X001849Y010106D02*
X001320Y010106D01*
X001320Y010225D02*
X001885Y010225D01*
X001967Y010437D02*
X002008Y010426D01*
X002188Y010426D01*
X002188Y010725D01*
X001869Y010725D01*
X001869Y010565D01*
X001880Y010524D01*
X001901Y010488D01*
X001931Y010458D01*
X001967Y010437D01*
X001928Y010462D02*
X001320Y010462D01*
X001320Y010580D02*
X001869Y010580D01*
X001869Y010699D02*
X001320Y010699D01*
X001320Y010817D02*
X001869Y010817D01*
X001873Y010936D02*
X001320Y010936D01*
X001320Y011054D02*
X001893Y011054D01*
X001869Y011173D02*
X001320Y011173D01*
X001320Y011291D02*
X001869Y011291D01*
X001869Y011410D02*
X001320Y011410D01*
X001320Y011528D02*
X001847Y011528D01*
X001728Y011647D02*
X001320Y011647D01*
X001320Y011765D02*
X001726Y011765D01*
X001726Y011884D02*
X001320Y011884D01*
X001320Y012002D02*
X001726Y012002D01*
X001726Y012121D02*
X001320Y012121D01*
X001320Y012239D02*
X001726Y012239D01*
X001726Y012358D02*
X001320Y012358D01*
X001320Y012476D02*
X001635Y012476D01*
X001619Y012595D02*
X001320Y012595D01*
X001320Y012713D02*
X001619Y012713D01*
X001619Y012832D02*
X001320Y012832D01*
X001320Y012950D02*
X001619Y012950D01*
X001692Y013069D02*
X001320Y013069D01*
X001320Y013187D02*
X002126Y013187D01*
X002216Y013306D02*
X001367Y013306D01*
X001485Y013424D02*
X002252Y013424D01*
X002301Y013543D02*
X001604Y013543D01*
X001722Y013661D02*
X002436Y013661D01*
X002764Y013661D02*
X005226Y013661D01*
X005226Y013780D02*
X001841Y013780D01*
X001959Y013898D02*
X005175Y013898D01*
X005099Y014017D02*
X002078Y014017D01*
X002196Y014135D02*
X005099Y014135D01*
X005099Y014254D02*
X002315Y014254D01*
X002433Y014372D02*
X003298Y014372D01*
X003310Y014360D02*
X004540Y014360D01*
X004645Y014465D01*
X004645Y015135D01*
X004540Y015240D01*
X003310Y015240D01*
X003205Y015135D01*
X003205Y014465D01*
X003310Y014360D01*
X003205Y014491D02*
X002552Y014491D01*
X002670Y014609D02*
X003205Y014609D01*
X003205Y014728D02*
X002789Y014728D01*
X002907Y014846D02*
X003205Y014846D01*
X003205Y014965D02*
X003026Y014965D01*
X003144Y015083D02*
X003205Y015083D01*
X003263Y015202D02*
X003272Y015202D01*
X003381Y015320D02*
X006504Y015320D01*
X006362Y015202D02*
X005786Y015202D01*
X005783Y015213D02*
X005761Y015249D01*
X005732Y015279D01*
X005695Y015300D01*
X005655Y015311D01*
X005475Y015311D01*
X005475Y015012D01*
X005793Y015012D01*
X005793Y015172D01*
X005783Y015213D01*
X005793Y015083D02*
X006244Y015083D01*
X006125Y014965D02*
X005793Y014965D01*
X005793Y014975D02*
X005475Y014975D01*
X005475Y015012D01*
X005438Y015012D01*
X005438Y015311D01*
X005258Y015311D01*
X005217Y015300D01*
X005181Y015279D01*
X005151Y015249D01*
X005130Y015213D01*
X005119Y015172D01*
X005119Y015012D01*
X005438Y015012D01*
X005438Y014975D01*
X005475Y014975D01*
X005475Y014676D01*
X005655Y014676D01*
X005695Y014687D01*
X005732Y014708D01*
X005761Y014738D01*
X005783Y014774D01*
X005793Y014815D01*
X005793Y014975D01*
X005793Y014846D02*
X005901Y014846D01*
X005887Y014728D02*
X005751Y014728D01*
X005887Y014609D02*
X004645Y014609D01*
X004645Y014491D02*
X005151Y014491D01*
X005099Y014372D02*
X004552Y014372D01*
X004645Y014728D02*
X005162Y014728D01*
X005151Y014738D02*
X005181Y014708D01*
X005217Y014687D01*
X005258Y014676D01*
X005438Y014676D01*
X005438Y014975D01*
X005119Y014975D01*
X005119Y014815D01*
X005130Y014774D01*
X005151Y014738D01*
X005119Y014846D02*
X004645Y014846D01*
X004645Y014965D02*
X005119Y014965D01*
X005119Y015083D02*
X004645Y015083D01*
X004578Y015202D02*
X005127Y015202D01*
X005438Y015202D02*
X005475Y015202D01*
X005475Y015083D02*
X005438Y015083D01*
X005438Y014965D02*
X005475Y014965D01*
X005475Y014846D02*
X005438Y014846D01*
X005438Y014728D02*
X005475Y014728D01*
X005761Y014491D02*
X005887Y014491D01*
X005887Y014372D02*
X005813Y014372D01*
X005813Y014254D02*
X007285Y014254D01*
X007250Y014135D02*
X005813Y014135D01*
X005813Y014017D02*
X007256Y014017D01*
X007155Y013898D02*
X007055Y013898D01*
X007600Y014100D02*
X007600Y015100D01*
X006600Y015100D01*
X006244Y014744D01*
X006244Y014600D01*
X006601Y014609D02*
X007360Y014609D01*
X007360Y014491D02*
X006601Y014491D01*
X006601Y014372D02*
X007360Y014372D01*
X007840Y014372D02*
X009267Y014372D01*
X009385Y014254D02*
X007915Y014254D01*
X007950Y014135D02*
X009504Y014135D01*
X009622Y014017D02*
X007944Y014017D01*
X008045Y013898D02*
X008155Y013898D01*
X008350Y013600D02*
X009350Y013600D01*
X009350Y012206D01*
X009687Y012239D02*
X010380Y012239D01*
X010380Y012121D02*
X009687Y012121D01*
X009687Y012002D02*
X010380Y012002D01*
X010380Y011884D02*
X009616Y011884D01*
X009865Y011710D02*
X009865Y011415D01*
X010310Y011415D01*
X010310Y011571D01*
X010299Y011612D01*
X010278Y011648D01*
X010248Y011678D01*
X010212Y011699D01*
X010171Y011710D01*
X009865Y011710D01*
X009865Y011647D02*
X009835Y011647D01*
X009835Y011528D02*
X009865Y011528D01*
X009865Y011410D02*
X010380Y011410D01*
X010380Y011528D02*
X010310Y011528D01*
X010279Y011647D02*
X010380Y011647D01*
X010380Y011765D02*
X007820Y011765D01*
X007820Y011647D02*
X007921Y011647D01*
X007890Y011528D02*
X007820Y011528D01*
X007820Y011410D02*
X008335Y011410D01*
X008365Y011410D02*
X008933Y011410D01*
X008810Y011415D02*
X008810Y011571D01*
X008799Y011612D01*
X008778Y011648D01*
X008748Y011678D01*
X008712Y011699D01*
X008671Y011710D01*
X008365Y011710D01*
X008365Y011415D01*
X008810Y011415D01*
X008810Y011528D02*
X009390Y011528D01*
X009421Y011647D02*
X008779Y011647D01*
X008365Y011647D02*
X008335Y011647D01*
X008335Y011528D02*
X008365Y011528D01*
X008636Y011884D02*
X009084Y011884D01*
X009013Y012002D02*
X008727Y012002D01*
X008946Y012121D02*
X009013Y012121D01*
X009687Y012358D02*
X010380Y012358D01*
X010380Y012476D02*
X009669Y012476D01*
X009590Y012595D02*
X010380Y012595D01*
X010380Y012713D02*
X010024Y012713D01*
X010061Y012832D02*
X010380Y012832D01*
X010380Y012950D02*
X010061Y012950D01*
X010061Y013012D02*
X010061Y013192D01*
X010050Y013233D01*
X010029Y013269D01*
X009999Y013299D01*
X009963Y013320D01*
X009922Y013331D01*
X009762Y013331D01*
X009762Y013012D01*
X010061Y013012D01*
X010061Y013069D02*
X010380Y013069D01*
X010380Y013187D02*
X010061Y013187D01*
X009988Y013306D02*
X010333Y013306D01*
X010215Y013424D02*
X009656Y013424D01*
X009700Y013543D02*
X010096Y013543D01*
X009978Y013661D02*
X009700Y013661D01*
X009654Y013780D02*
X009859Y013780D01*
X009741Y013898D02*
X009545Y013898D01*
X009155Y013898D02*
X008545Y013898D01*
X007620Y013306D02*
X007550Y013306D01*
X007620Y013187D02*
X007324Y013187D01*
X007443Y013069D02*
X007620Y013069D01*
X007675Y012950D02*
X007561Y012950D01*
X007680Y012832D02*
X007793Y012832D01*
X007798Y012713D02*
X007912Y012713D01*
X007820Y012595D02*
X008011Y012595D01*
X007973Y012476D02*
X007820Y012476D01*
X007820Y012358D02*
X007973Y012358D01*
X007973Y012239D02*
X007820Y012239D01*
X007820Y012121D02*
X007973Y012121D01*
X007973Y012002D02*
X007820Y012002D01*
X007820Y011884D02*
X008064Y011884D01*
X009267Y011410D02*
X009835Y011410D01*
X010310Y011291D02*
X010380Y011291D01*
X010380Y011173D02*
X010330Y011173D01*
X010330Y011054D02*
X010380Y011054D01*
X010380Y010936D02*
X010330Y010936D01*
X010330Y010817D02*
X010380Y010817D01*
X010380Y010699D02*
X010330Y010699D01*
X010330Y010580D02*
X010380Y010580D01*
X010330Y010525D02*
X010330Y010525D01*
X010330Y010525D01*
X010330Y010462D02*
X010380Y010462D01*
X010380Y010343D02*
X010330Y010343D01*
X010330Y010225D02*
X010380Y010225D01*
X010380Y010106D02*
X010330Y010106D01*
X010380Y009988D02*
X010242Y009988D01*
X010200Y009869D02*
X010380Y009869D01*
X010380Y009751D02*
X010188Y009751D01*
X010127Y009632D02*
X010321Y009632D01*
X010202Y009514D02*
X009952Y009514D01*
X010084Y009395D02*
X009530Y009395D01*
X009528Y009398D02*
X009498Y009428D01*
X009462Y009449D01*
X009421Y009460D01*
X009115Y009460D01*
X009115Y009165D01*
X009560Y009165D01*
X009560Y009321D01*
X009549Y009362D01*
X009528Y009398D01*
X009560Y009277D02*
X009965Y009277D01*
X009847Y009158D02*
X009115Y009158D01*
X009085Y009158D02*
X008367Y009158D01*
X008260Y009266D02*
X008640Y009266D01*
X008640Y009165D01*
X009085Y009165D01*
X009085Y009135D01*
X008640Y009135D01*
X008640Y008979D01*
X008647Y008952D01*
X008620Y008925D01*
X008620Y008905D01*
X008260Y009266D01*
X008486Y009040D02*
X008640Y009040D01*
X008620Y008921D02*
X008604Y008921D01*
X008191Y008684D02*
X007958Y008684D01*
X008072Y008803D02*
X007683Y008803D01*
X007683Y008728D02*
X007169Y008728D01*
X007169Y008728D01*
X007683Y008728D01*
X007683Y008684D02*
X007742Y008684D01*
X007703Y008921D02*
X007954Y008921D01*
X007169Y008984D02*
X006484Y008984D01*
X006100Y008600D01*
X005600Y008600D01*
X005600Y009350D01*
X005198Y009752D01*
X004531Y009752D01*
X003948Y009752D01*
X003600Y010100D01*
X003600Y010265D01*
X002994Y010350D02*
X002994Y009706D01*
X003100Y009600D01*
X003350Y009600D01*
X002968Y009395D02*
X002727Y009395D01*
X002727Y009277D02*
X003044Y009277D01*
X003000Y009158D02*
X002727Y009158D01*
X002727Y009040D02*
X003000Y009040D01*
X002990Y008921D02*
X003045Y008921D01*
X003142Y008803D02*
X003154Y008803D01*
X003194Y008684D02*
X003492Y008684D01*
X003546Y008803D02*
X003654Y008803D01*
X003708Y008684D02*
X003997Y008684D01*
X004010Y008566D02*
X003879Y008566D01*
X003939Y008447D02*
X004017Y008447D01*
X004017Y008472D02*
X004531Y008472D01*
X004531Y008472D01*
X004017Y008472D01*
X004531Y008472D02*
X005045Y008472D01*
X005045Y008386D01*
X005065Y008366D01*
X005065Y007320D01*
X005385Y007320D01*
X005303Y007402D01*
X005250Y007530D01*
X005250Y007670D01*
X005303Y007798D01*
X005402Y007897D01*
X005530Y007950D01*
X005670Y007950D01*
X005798Y007897D01*
X005865Y007830D01*
X006005Y007830D01*
X006109Y007934D01*
X006635Y007934D01*
X006635Y008621D01*
X006655Y008641D01*
X006655Y008728D01*
X007169Y008728D01*
X007169Y008728D01*
X006655Y008728D01*
X006655Y008744D01*
X006583Y008744D01*
X006236Y008397D01*
X006148Y008360D01*
X005855Y008360D01*
X005798Y008303D01*
X005670Y008250D01*
X005530Y008250D01*
X005402Y008303D01*
X005345Y008360D01*
X005302Y008360D01*
X005214Y008397D01*
X005094Y008516D01*
X005045Y008496D01*
X005045Y008472D01*
X004531Y008472D01*
X004531Y008472D01*
X004531Y008728D02*
X004978Y008728D01*
X005100Y008850D01*
X004966Y008984D01*
X004531Y008984D01*
X005100Y008850D02*
X005350Y008600D01*
X005600Y008600D01*
X005164Y008447D02*
X005045Y008447D01*
X005065Y008329D02*
X005377Y008329D01*
X005065Y008210D02*
X006635Y008210D01*
X006635Y008092D02*
X005065Y008092D01*
X005065Y007973D02*
X006635Y007973D01*
X006029Y007855D02*
X005840Y007855D01*
X005360Y007855D02*
X005065Y007855D01*
X005065Y007736D02*
X005278Y007736D01*
X005250Y007618D02*
X005065Y007618D01*
X005065Y007499D02*
X005263Y007499D01*
X005325Y007381D02*
X005065Y007381D01*
X006206Y007381D02*
X006655Y007381D01*
X007368Y007144D02*
X008250Y007144D01*
X008252Y007025D02*
X007486Y007025D01*
X007605Y006907D02*
X008301Y006907D01*
X008360Y006788D02*
X007723Y006788D01*
X007820Y006670D02*
X008360Y006670D01*
X008360Y006551D02*
X007820Y006551D01*
X007820Y006433D02*
X008360Y006433D01*
X008360Y006314D02*
X007820Y006314D01*
X007820Y006196D02*
X008360Y006196D01*
X008360Y006077D02*
X007820Y006077D01*
X007820Y005959D02*
X008402Y005959D01*
X008521Y005840D02*
X007820Y005840D01*
X007820Y005722D02*
X008639Y005722D01*
X008758Y005603D02*
X007820Y005603D01*
X007820Y005485D02*
X009020Y005485D01*
X008975Y005293D02*
X008975Y004975D01*
X009274Y004975D01*
X009274Y005155D01*
X009263Y005195D01*
X009242Y005232D01*
X009212Y005261D01*
X009176Y005283D01*
X009135Y005293D01*
X008975Y005293D01*
X008975Y005248D02*
X008938Y005248D01*
X008938Y005129D02*
X008975Y005129D01*
X008975Y005011D02*
X008938Y005011D01*
X008639Y005011D02*
X007820Y005011D01*
X007820Y005129D02*
X008639Y005129D01*
X008687Y005248D02*
X007820Y005248D01*
X007820Y005366D02*
X009788Y005366D01*
X009850Y005600D02*
X010100Y005600D01*
X009850Y005600D02*
X009706Y005744D01*
X009350Y005744D01*
X008956Y005744D01*
X008600Y006100D01*
X008600Y007100D01*
X008288Y007262D02*
X007638Y007262D01*
X007683Y007381D02*
X008386Y007381D01*
X008763Y007499D02*
X007683Y007499D01*
X007703Y007618D02*
X007838Y007618D01*
X008362Y007618D02*
X008750Y007618D01*
X008709Y007736D02*
X008432Y007736D01*
X008450Y007855D02*
X008620Y007855D01*
X008620Y007973D02*
X008428Y007973D01*
X008353Y008092D02*
X008620Y008092D01*
X008620Y008210D02*
X008171Y008210D01*
X008200Y008329D02*
X008620Y008329D01*
X008620Y008275D02*
X008620Y008275D01*
X008428Y008447D02*
X008189Y008447D01*
X008129Y008566D02*
X008309Y008566D01*
X009580Y008566D02*
X009755Y008566D01*
X009755Y008684D02*
X009580Y008684D01*
X009580Y008803D02*
X009755Y008803D01*
X009755Y008921D02*
X009580Y008921D01*
X009560Y009040D02*
X009755Y009040D01*
X009115Y009277D02*
X009085Y009277D01*
X009085Y009395D02*
X009115Y009395D01*
X009089Y009514D02*
X009748Y009514D01*
X009573Y009632D02*
X009207Y009632D01*
X009326Y009751D02*
X009512Y009751D01*
X009500Y009869D02*
X009330Y009869D01*
X009330Y009988D02*
X009458Y009988D01*
X009370Y010106D02*
X009330Y010106D01*
X009330Y010225D02*
X009370Y010225D01*
X009370Y010343D02*
X009330Y010343D01*
X009330Y010462D02*
X009370Y010462D01*
X009370Y010525D02*
X009370Y010525D01*
X007860Y010936D02*
X007820Y010936D01*
X007820Y011054D02*
X007870Y011054D01*
X007870Y011173D02*
X007820Y011173D01*
X007820Y011291D02*
X007890Y011291D01*
X009725Y012713D02*
X009762Y012713D01*
X009762Y012832D02*
X009725Y012832D01*
X009725Y012950D02*
X009762Y012950D01*
X009762Y013069D02*
X009725Y013069D01*
X009725Y013187D02*
X009762Y013187D01*
X009762Y013306D02*
X009725Y013306D01*
X009148Y014491D02*
X007840Y014491D01*
X007840Y014609D02*
X009030Y014609D01*
X008911Y014728D02*
X007840Y014728D01*
X007841Y014846D02*
X008793Y014846D01*
X008674Y014965D02*
X007923Y014965D01*
X007950Y015083D02*
X008556Y015083D01*
X008437Y015202D02*
X007937Y015202D01*
X007875Y015320D02*
X008319Y015320D01*
X008200Y015439D02*
X007697Y015439D01*
X007503Y015439D02*
X003500Y015439D01*
X003618Y015557D02*
X008082Y015557D01*
X007963Y015676D02*
X003737Y015676D01*
X003855Y015794D02*
X007845Y015794D01*
X007359Y014846D02*
X006685Y014846D01*
X006601Y014728D02*
X007360Y014728D01*
X005451Y013424D02*
X002948Y013424D01*
X002950Y013306D02*
X004494Y013306D01*
X004376Y013187D02*
X002911Y013187D01*
X002965Y013069D02*
X004257Y013069D01*
X004139Y012950D02*
X003059Y012950D01*
X003061Y012832D02*
X004020Y012832D01*
X003902Y012713D02*
X003061Y012713D01*
X003061Y012595D02*
X003880Y012595D01*
X003880Y012476D02*
X003034Y012476D01*
X002762Y012476D02*
X002725Y012476D01*
X002725Y012595D02*
X002762Y012595D01*
X002762Y012713D02*
X002725Y012713D01*
X002590Y012358D02*
X003880Y012358D01*
X003880Y012239D02*
X002656Y012239D01*
X002687Y012121D02*
X003376Y012121D01*
X003824Y012121D02*
X003880Y012121D01*
X002927Y012002D02*
X002687Y012002D01*
X002687Y011884D02*
X002808Y011884D01*
X002705Y011765D02*
X002687Y011765D01*
X002350Y011956D02*
X002350Y013100D01*
X002600Y013350D01*
X002899Y013543D02*
X005332Y013543D01*
X003880Y011528D02*
X003737Y011528D01*
X003880Y011410D02*
X003331Y011410D01*
X003331Y011528D02*
X003463Y011528D01*
X003562Y011291D02*
X003638Y011291D01*
X003638Y011173D02*
X003562Y011173D01*
X003562Y011054D02*
X003638Y011054D01*
X003562Y010936D02*
X002540Y010936D01*
X002543Y010817D02*
X003243Y010817D01*
X003243Y010699D02*
X002543Y010699D01*
X002543Y010725D02*
X002225Y010725D01*
X002225Y010426D01*
X002405Y010426D01*
X002445Y010437D01*
X002482Y010458D01*
X002511Y010488D01*
X002533Y010524D01*
X002543Y010565D01*
X002543Y010725D01*
X002543Y010580D02*
X002637Y010580D01*
X002637Y010462D02*
X002485Y010462D01*
X002637Y010343D02*
X001320Y010343D01*
X002188Y010462D02*
X002225Y010462D01*
X002225Y010580D02*
X002188Y010580D01*
X002188Y010699D02*
X002225Y010699D01*
X002527Y010225D02*
X002637Y010225D01*
X002648Y010106D02*
X002563Y010106D01*
X002563Y009988D02*
X002754Y009988D01*
X002754Y009869D02*
X002563Y009869D01*
X002563Y009751D02*
X002754Y009751D01*
X002765Y009632D02*
X002580Y009632D01*
X002689Y009514D02*
X002847Y009514D01*
X003200Y008566D02*
X003321Y008566D01*
X003261Y008447D02*
X003165Y008447D01*
X003250Y008329D02*
X003073Y008329D01*
X003279Y008210D02*
X002713Y008210D01*
X002623Y007618D02*
X002077Y007618D01*
X001850Y007350D02*
X002350Y007350D01*
X002350Y005744D01*
X003191Y005366D02*
X003223Y005366D01*
X003223Y005248D02*
X003073Y005248D01*
X003081Y005129D02*
X003223Y005129D01*
X003223Y005011D02*
X003081Y005011D01*
X003081Y004892D02*
X003225Y004892D01*
X003223Y004774D02*
X003081Y004774D01*
X003032Y004655D02*
X003223Y004655D01*
X003331Y003826D02*
X003065Y003826D01*
X002910Y003826D02*
X002790Y003826D01*
X002790Y003707D02*
X002910Y003707D01*
X002910Y003589D02*
X002790Y003589D01*
X002790Y003470D02*
X002910Y003470D01*
X002910Y003352D02*
X002790Y003352D01*
X003260Y003352D02*
X003354Y003352D01*
X003275Y003470D02*
X003260Y003470D01*
X003250Y003589D02*
X003244Y003589D01*
X003265Y003707D02*
X003188Y003707D01*
X003260Y003233D02*
X003500Y003233D01*
X002440Y002996D02*
X002265Y002996D01*
X002384Y002878D02*
X002440Y002878D01*
X005227Y002404D02*
X006053Y002404D01*
X006196Y002285D02*
X005227Y002285D01*
X005227Y002167D02*
X006473Y002167D01*
X006473Y002048D02*
X005227Y002048D01*
X005227Y001930D02*
X006473Y001930D01*
X006473Y001811D02*
X005222Y001811D01*
X005227Y001693D02*
X006505Y001693D01*
X006801Y001574D02*
X005227Y001574D01*
X005227Y001456D02*
X006919Y001456D01*
X007781Y001456D02*
X007894Y001456D01*
X007899Y001574D02*
X008013Y001574D01*
X008018Y001693D02*
X008131Y001693D01*
X008080Y001811D02*
X008250Y001811D01*
X008163Y001930D02*
X008368Y001930D01*
X008487Y002048D02*
X008242Y002048D01*
X008280Y002167D02*
X008605Y002167D01*
X008724Y002285D02*
X008280Y002285D01*
X008280Y002404D02*
X008563Y002404D01*
X008469Y002522D02*
X008280Y002522D01*
X008280Y002641D02*
X008420Y002641D01*
X008420Y002759D02*
X008280Y002759D01*
X008280Y002878D02*
X008420Y002878D01*
X008420Y002996D02*
X008280Y002996D01*
X008258Y003115D02*
X008420Y003115D01*
X008420Y003233D02*
X008200Y003233D01*
X008096Y003352D02*
X008420Y003352D01*
X008420Y003470D02*
X008175Y003470D01*
X008200Y003589D02*
X008432Y003589D01*
X008481Y003707D02*
X008185Y003707D01*
X008119Y003826D02*
X008380Y003826D01*
X008286Y003944D02*
X007934Y003944D01*
X007766Y003944D02*
X007255Y003944D01*
X007374Y004063D02*
X008250Y004063D01*
X008255Y004181D02*
X007492Y004181D01*
X007611Y004300D02*
X008305Y004300D01*
X008453Y004418D02*
X007729Y004418D01*
X007820Y004537D02*
X008711Y004537D01*
X008697Y004655D02*
X007820Y004655D01*
X007820Y004774D02*
X008639Y004774D01*
X008639Y004892D02*
X007820Y004892D01*
X009226Y005248D02*
X009446Y005248D01*
X009406Y005129D02*
X009274Y005129D01*
X009274Y005011D02*
X009406Y005011D01*
X009406Y004892D02*
X009274Y004892D01*
X009274Y004774D02*
X009406Y004774D01*
X007581Y003826D02*
X005793Y003826D01*
X005793Y003725D02*
X005475Y003725D01*
X005475Y003426D01*
X005655Y003426D01*
X005695Y003437D01*
X005732Y003458D01*
X005761Y003488D01*
X005783Y003524D01*
X005793Y003565D01*
X005793Y003725D01*
X005793Y003707D02*
X007515Y003707D01*
X007500Y003589D02*
X007151Y003589D01*
X007319Y003470D02*
X007525Y003470D01*
X007593Y003352D02*
X007604Y003352D01*
X007350Y003100D02*
X007100Y003350D01*
X006244Y003350D01*
X005887Y003470D02*
X005744Y003470D01*
X005793Y003589D02*
X005893Y003589D01*
X005475Y003589D02*
X005438Y003589D01*
X005438Y003707D02*
X005475Y003707D01*
X005475Y003470D02*
X005438Y003470D01*
X007350Y003100D02*
X007350Y002100D01*
X007776Y001337D02*
X005227Y001337D01*
X010355Y005840D02*
X010380Y005840D01*
X010380Y005959D02*
X009815Y005959D01*
X009606Y006077D02*
X010380Y006077D01*
X010380Y006196D02*
X008844Y006196D01*
X008840Y006314D02*
X010380Y006314D01*
X010380Y006433D02*
X008840Y006433D01*
X008840Y006551D02*
X010380Y006551D01*
X010380Y006670D02*
X008840Y006670D01*
X008840Y006788D02*
X010380Y006788D01*
X010380Y006907D02*
X008899Y006907D01*
X008948Y007025D02*
X010380Y007025D01*
X010380Y007144D02*
X008950Y007144D01*
X008912Y007262D02*
X009001Y007262D01*
X009199Y007262D02*
X010380Y007262D01*
X010380Y007381D02*
X009375Y007381D01*
X009437Y007499D02*
X010380Y007499D01*
X010271Y007618D02*
X009450Y007618D01*
X009491Y007736D02*
X010153Y007736D01*
X010034Y007855D02*
X009580Y007855D01*
X009580Y007973D02*
X009916Y007973D01*
X009797Y008092D02*
X009580Y008092D01*
X009580Y008210D02*
X009755Y008210D01*
X009755Y008329D02*
X009580Y008329D01*
X009580Y008275D02*
X009580Y008275D01*
X009580Y008275D01*
X009580Y008447D02*
X009755Y008447D01*
X006655Y008684D02*
X006523Y008684D01*
X006635Y008566D02*
X006405Y008566D01*
X006286Y008447D02*
X006635Y008447D01*
X006635Y008329D02*
X005823Y008329D01*
X003424Y007499D02*
X003167Y007499D01*
X003200Y007381D02*
X003305Y007381D01*
X002850Y007350D02*
X002350Y007350D01*
X002110Y007025D02*
X001980Y007025D01*
X003077Y007618D02*
X003338Y007618D01*
X008814Y007381D02*
X008825Y007381D01*
X008962Y006077D02*
X009094Y006077D01*
X003880Y011291D02*
X003875Y011291D01*
D20*
X003600Y011850D03*
X002600Y013350D03*
X007350Y013600D03*
X007850Y013600D03*
X008350Y013600D03*
X007600Y014100D03*
X009350Y013600D03*
X007600Y015100D03*
X009100Y011100D03*
X009850Y009850D03*
X007850Y008350D03*
X008100Y007850D03*
X009100Y007600D03*
X008600Y007100D03*
X005600Y007600D03*
X003600Y007850D03*
X003600Y008350D03*
X002850Y008600D03*
X003350Y009100D03*
X003850Y009100D03*
X003350Y009600D03*
X005600Y008600D03*
X002850Y007350D03*
X001850Y007350D03*
X010100Y005600D03*
X008600Y004100D03*
X007850Y003600D03*
X007350Y003100D03*
X006350Y002600D03*
X007350Y002100D03*
X009350Y003100D03*
X009350Y003600D03*
X004100Y001600D03*
X003600Y003600D03*
D21*
X008850Y003350D02*
X008850Y003100D01*
X009350Y003100D01*
X009350Y003600D01*
D22*
X008600Y004100D02*
X008850Y004350D01*
X009265Y004350D01*
X009744Y004706D02*
X009935Y004515D01*
X009935Y004350D01*
X009744Y004706D02*
X009744Y004956D01*
X007850Y003600D02*
X007850Y002600D01*
X007850Y001850D01*
X007600Y001600D01*
X007100Y001600D01*
X006850Y001850D01*
X006850Y002015D01*
X006850Y002685D02*
X006435Y002685D01*
X006350Y002600D01*
X005456Y002956D02*
X005244Y002956D01*
X003600Y004600D01*
X003600Y004515D01*
X002744Y004956D02*
X002744Y005244D01*
X003100Y005600D01*
X003100Y006015D01*
X003100Y006685D02*
X003100Y006850D01*
X003954Y007704D01*
X004531Y007704D01*
X004531Y007448D02*
X004198Y007448D01*
X003600Y006850D01*
X003600Y005185D01*
X003600Y003600D02*
X003850Y003350D01*
X003850Y002600D01*
X004265Y002185D01*
X004850Y002185D01*
X004350Y001600D02*
X004100Y001600D01*
X004350Y001600D02*
X004435Y001515D01*
X004850Y001515D01*
X005456Y002956D02*
X005456Y003015D01*
X005600Y007600D02*
X006100Y007600D01*
X006204Y007704D01*
X007169Y007704D01*
X007169Y007960D02*
X007990Y007960D01*
X008100Y007850D01*
X007716Y008216D02*
X007169Y008216D01*
X007716Y008216D02*
X007850Y008350D01*
X008600Y008600D02*
X009100Y008600D01*
X008600Y008600D02*
X007960Y009240D01*
X007169Y009240D01*
X007169Y009496D02*
X008746Y009496D01*
X009100Y009850D01*
X009100Y010600D01*
X009350Y010850D01*
X009850Y010850D01*
X009100Y011100D02*
X008850Y010850D01*
X008850Y010350D01*
X008800Y010300D01*
X008350Y010300D01*
X007850Y010600D02*
X007850Y009850D01*
X007752Y009752D01*
X007169Y009752D01*
X007850Y010600D02*
X008100Y010850D01*
X008350Y010850D01*
X009850Y010300D02*
X009850Y009850D01*
X009100Y008050D02*
X009100Y007600D01*
X004531Y007960D02*
X003710Y007960D01*
X003600Y007850D01*
X003734Y008216D02*
X003600Y008350D01*
X003734Y008216D02*
X004531Y008216D01*
X002850Y008600D02*
X002600Y008600D01*
X002515Y008515D01*
X002350Y008515D01*
X003350Y009100D02*
X003746Y009496D01*
X004531Y009496D01*
X004531Y009240D02*
X003990Y009240D01*
X003850Y009100D01*
X002350Y009185D02*
X002350Y009600D01*
X002206Y009744D01*
X002206Y009956D01*
X002265Y011350D02*
X002265Y011435D01*
X001956Y011744D01*
X001956Y012744D01*
X002935Y011685D02*
X003100Y011850D01*
X003600Y011850D01*
X002935Y011685D02*
X002935Y011350D01*
X007850Y013100D02*
X008015Y012935D01*
X008350Y012935D01*
X007850Y013100D02*
X007850Y013600D01*
X007350Y013600D02*
X006685Y013600D01*
X006015Y013600D02*
X005600Y013600D01*
X005456Y013744D01*
X005456Y014206D01*
X008956Y012994D02*
X008956Y012456D01*
X008765Y012265D01*
X008350Y012265D01*
M02*
