G75*
G70*
%OFA0B0*%
%FSLAX24Y24*%
%IPPOS*%
%LPD*%
%AMOC8*
5,1,8,0,0,1.08239X$1,22.5*
%
%ADD10C,0.0070*%
D10*
X011425Y010113D02*
X011740Y010113D01*
X011740Y010802D01*
X011740Y013558D01*
X011740Y014247D01*
X011425Y014247D01*
X011425Y010113D01*
X011740Y010802D02*
X013354Y010802D01*
X013354Y013558D01*
X011740Y013558D01*
X013196Y014247D02*
X013629Y014247D01*
X013629Y010526D01*
X013216Y010113D01*
X013196Y010113D01*
X015060Y010345D02*
X015280Y010345D01*
X015170Y010345D02*
X015170Y010015D01*
X015242Y009774D02*
X015242Y009487D01*
X015385Y009630D02*
X015098Y009630D01*
X015428Y010015D02*
X015428Y010235D01*
X015538Y010345D01*
X015648Y010235D01*
X015648Y010015D01*
X015796Y010070D02*
X015852Y010015D01*
X016017Y010015D01*
X016017Y010345D01*
X015852Y010345D01*
X015796Y010290D01*
X015796Y010235D01*
X015852Y010180D01*
X016017Y010180D01*
X016165Y010125D02*
X016165Y010345D01*
X016165Y010125D02*
X016275Y010015D01*
X016385Y010125D01*
X016385Y010345D01*
X015852Y010180D02*
X015796Y010125D01*
X015796Y010070D01*
X015648Y010180D02*
X015428Y010180D01*
X016348Y009630D02*
X016635Y009630D01*
X015990Y011215D02*
X015825Y011215D01*
X015770Y011270D01*
X015770Y011490D01*
X015825Y011545D01*
X015990Y011545D01*
X015990Y011215D01*
X015622Y011215D02*
X015622Y011545D01*
X015456Y011545D01*
X015401Y011490D01*
X015401Y011380D01*
X015456Y011325D01*
X015622Y011325D01*
X015512Y011325D02*
X015401Y011215D01*
X015253Y011215D02*
X015033Y011545D01*
X015253Y011545D02*
X015033Y011215D01*
X015088Y012015D02*
X015033Y012070D01*
X015033Y012290D01*
X015088Y012345D01*
X015253Y012345D01*
X015253Y012015D01*
X015088Y012015D01*
X015401Y012015D02*
X015401Y012345D01*
X015622Y012345D02*
X015401Y012015D01*
X015622Y012015D02*
X015622Y012345D01*
X015770Y012290D02*
X015825Y012345D01*
X015935Y012345D01*
X015990Y012290D01*
X015990Y012070D01*
X015935Y012015D01*
X015825Y012015D01*
X015770Y012070D01*
X015770Y012180D01*
X015880Y012180D01*
X015825Y012815D02*
X015770Y012870D01*
X015770Y013090D01*
X015825Y013145D01*
X015990Y013145D01*
X015990Y012815D01*
X015825Y012815D01*
X015512Y012815D02*
X015512Y013145D01*
X015622Y013145D02*
X015401Y013145D01*
X015253Y013145D02*
X015033Y012815D01*
X015253Y012815D02*
X015033Y013145D01*
X014096Y013758D02*
X014096Y013868D01*
X014096Y013813D02*
X013820Y013813D01*
X013765Y013758D01*
X013765Y013703D01*
X013820Y013648D01*
X013930Y014016D02*
X013930Y014237D01*
X013765Y014182D02*
X014096Y014182D01*
X013930Y014016D01*
X013122Y015665D02*
X013122Y015995D01*
X012956Y015995D01*
X012901Y015940D01*
X012901Y015830D01*
X012956Y015775D01*
X013122Y015775D01*
X013012Y015775D02*
X012901Y015665D01*
X012753Y015665D02*
X012533Y015885D01*
X012533Y015940D01*
X012588Y015995D01*
X012698Y015995D01*
X012753Y015940D01*
X012753Y015665D02*
X012533Y015665D01*
X012380Y015610D02*
X012380Y016250D01*
X011060Y016250D01*
X011060Y015610D01*
X012380Y015610D01*
X012380Y016360D02*
X012380Y017000D01*
X011060Y017000D01*
X011060Y016360D01*
X012380Y016360D01*
X012285Y017115D02*
X012285Y017445D01*
X012120Y017445D01*
X012065Y017390D01*
X012065Y017280D01*
X012120Y017225D01*
X012285Y017225D01*
X012175Y017225D02*
X012065Y017115D01*
X011917Y017115D02*
X011696Y017115D01*
X011807Y017115D02*
X011807Y017445D01*
X011917Y017335D01*
X016555Y019778D02*
X016885Y019778D01*
X016885Y019944D01*
X016830Y019999D01*
X016720Y019999D01*
X016665Y019944D01*
X016665Y019778D01*
X016665Y019888D02*
X016555Y019999D01*
X016610Y020147D02*
X016665Y020147D01*
X016720Y020202D01*
X016720Y020312D01*
X016665Y020367D01*
X016610Y020367D01*
X016555Y020312D01*
X016555Y020202D01*
X016610Y020147D01*
X016720Y020202D02*
X016775Y020147D01*
X016830Y020147D01*
X016885Y020202D01*
X016885Y020312D01*
X016830Y020367D01*
X016775Y020367D01*
X016720Y020312D01*
X016400Y020520D02*
X017040Y020520D01*
X017040Y021840D01*
X016400Y021840D01*
X016400Y020520D01*
X017150Y020520D02*
X017790Y020520D01*
X017790Y021840D01*
X017150Y021840D01*
X017150Y020520D01*
X017355Y020147D02*
X017410Y020147D01*
X017630Y020367D01*
X017685Y020367D01*
X017685Y020147D01*
X017630Y019999D02*
X017520Y019999D01*
X017465Y019944D01*
X017465Y019778D01*
X017355Y019778D02*
X017685Y019778D01*
X017685Y019944D01*
X017630Y019999D01*
X017465Y019888D02*
X017355Y019999D01*
X018150Y020520D02*
X018790Y020520D01*
X018790Y021840D01*
X018150Y021840D01*
X018150Y020520D01*
X018455Y020047D02*
X018510Y020047D01*
X018730Y020267D01*
X018785Y020267D01*
X018785Y020047D01*
X018785Y019899D02*
X018510Y019899D01*
X018455Y019844D01*
X018455Y019733D01*
X018510Y019678D01*
X018785Y019678D01*
X018910Y019600D02*
X018910Y019940D01*
X019200Y019940D01*
X019740Y019940D02*
X020030Y019940D01*
X020030Y019600D01*
X020400Y019590D02*
X021040Y019590D01*
X021040Y018270D01*
X020400Y018270D01*
X020400Y019590D01*
X020400Y019770D02*
X021040Y019770D01*
X021040Y021090D01*
X020400Y021090D01*
X020400Y019770D01*
X021155Y019815D02*
X021485Y019815D01*
X021485Y019980D01*
X021430Y020035D01*
X021320Y020035D01*
X021265Y019980D01*
X021265Y019815D01*
X021265Y019925D02*
X021155Y020035D01*
X021155Y020183D02*
X021375Y020404D01*
X021430Y020404D01*
X021485Y020348D01*
X021485Y020238D01*
X021430Y020183D01*
X021155Y020183D02*
X021155Y020404D01*
X021210Y020552D02*
X021155Y020607D01*
X021155Y020717D01*
X021210Y020772D01*
X021265Y020772D01*
X021320Y020717D01*
X021320Y020607D01*
X021375Y020552D01*
X021430Y020552D01*
X021485Y020607D01*
X021485Y020717D01*
X021430Y020772D01*
X021375Y020772D01*
X021320Y020717D01*
X021320Y020607D02*
X021265Y020552D01*
X021210Y020552D01*
X020485Y021215D02*
X020485Y021380D01*
X020430Y021435D01*
X020320Y021435D01*
X020265Y021380D01*
X020265Y021215D01*
X020155Y021215D02*
X020485Y021215D01*
X020265Y021325D02*
X020155Y021435D01*
X020210Y021583D02*
X020155Y021638D01*
X020155Y021748D01*
X020210Y021804D01*
X020265Y021804D01*
X020320Y021748D01*
X020320Y021583D01*
X020210Y021583D01*
X020320Y021583D02*
X020430Y021693D01*
X020485Y021804D01*
X020380Y022360D02*
X020380Y023000D01*
X019060Y023000D01*
X019060Y022360D01*
X020380Y022360D01*
X019985Y021804D02*
X019985Y021583D01*
X019820Y021583D01*
X019875Y021693D01*
X019875Y021748D01*
X019820Y021804D01*
X019710Y021804D01*
X019655Y021748D01*
X019655Y021638D01*
X019710Y021583D01*
X019655Y021435D02*
X019765Y021325D01*
X019765Y021380D02*
X019765Y021215D01*
X019655Y021215D02*
X019985Y021215D01*
X019985Y021380D01*
X019930Y021435D01*
X019820Y021435D01*
X019765Y021380D01*
X019540Y021840D02*
X019540Y020520D01*
X018900Y020520D01*
X018900Y021840D01*
X019540Y021840D01*
X019463Y023175D02*
X019463Y023505D01*
X019628Y023340D01*
X019408Y023340D01*
X019776Y023395D02*
X019776Y023450D01*
X019832Y023505D01*
X019942Y023505D01*
X019997Y023450D01*
X020145Y023450D02*
X020145Y023340D01*
X020200Y023285D01*
X020365Y023285D01*
X020365Y023175D02*
X020365Y023505D01*
X020200Y023505D01*
X020145Y023450D01*
X020255Y023285D02*
X020145Y023175D01*
X019997Y023175D02*
X019776Y023395D01*
X019776Y023175D02*
X019997Y023175D01*
X021060Y022250D02*
X021060Y021610D01*
X022380Y021610D01*
X022380Y022250D01*
X021060Y022250D01*
X021408Y022480D02*
X021408Y022535D01*
X021463Y022590D01*
X021628Y022590D01*
X021628Y022480D01*
X021573Y022425D01*
X021463Y022425D01*
X021408Y022480D01*
X021518Y022700D02*
X021408Y022755D01*
X021518Y022700D02*
X021628Y022590D01*
X021776Y022645D02*
X021776Y022700D01*
X021832Y022755D01*
X021942Y022755D01*
X021997Y022700D01*
X022145Y022700D02*
X022200Y022755D01*
X022365Y022755D01*
X022365Y022425D01*
X022365Y022535D02*
X022200Y022535D01*
X022145Y022590D01*
X022145Y022700D01*
X022255Y022535D02*
X022145Y022425D01*
X021997Y022425D02*
X021776Y022645D01*
X021776Y022425D02*
X021997Y022425D01*
X023495Y022460D02*
X023605Y022350D01*
X023605Y022405D02*
X023605Y022240D01*
X023495Y022240D02*
X023825Y022240D01*
X023825Y022405D01*
X023770Y022460D01*
X023660Y022460D01*
X023605Y022405D01*
X023495Y022608D02*
X023495Y022829D01*
X023495Y022718D02*
X023825Y022718D01*
X023715Y022608D01*
X023945Y022608D02*
X023945Y022829D01*
X023945Y022718D02*
X024275Y022718D01*
X024165Y022608D01*
X024110Y022460D02*
X024055Y022405D01*
X024055Y022240D01*
X023945Y022240D02*
X024275Y022240D01*
X024275Y022405D01*
X024220Y022460D01*
X024110Y022460D01*
X024055Y022350D02*
X023945Y022460D01*
X024400Y022270D02*
X025040Y022270D01*
X025040Y023590D01*
X024400Y023590D01*
X024400Y022270D01*
X024220Y022977D02*
X024275Y023032D01*
X024275Y023142D01*
X024220Y023197D01*
X024165Y023197D01*
X023945Y022977D01*
X023945Y023197D01*
X023825Y023087D02*
X023715Y022977D01*
X023825Y023087D02*
X023495Y023087D01*
X023495Y022977D02*
X023495Y023197D01*
X025150Y023590D02*
X025150Y022270D01*
X025790Y022270D01*
X025790Y023590D01*
X025150Y023590D01*
X025900Y023590D02*
X025900Y022270D01*
X026540Y022270D01*
X026540Y023590D01*
X025900Y023590D01*
X026650Y023590D02*
X026650Y022270D01*
X027290Y022270D01*
X027290Y023590D01*
X026650Y023590D01*
X027415Y023187D02*
X027415Y023077D01*
X027470Y023022D01*
X027690Y023242D01*
X027470Y023242D01*
X027415Y023187D01*
X027470Y023022D02*
X027690Y023022D01*
X027745Y023077D01*
X027745Y023187D01*
X027690Y023242D01*
X027920Y022874D02*
X027865Y022818D01*
X027865Y022708D01*
X027920Y022653D01*
X028030Y022708D02*
X028030Y022874D01*
X027920Y022874D02*
X028140Y022874D01*
X028195Y022818D01*
X028195Y022708D01*
X028140Y022653D01*
X028085Y022653D01*
X028030Y022708D01*
X028030Y022505D02*
X027975Y022450D01*
X027975Y022285D01*
X027865Y022285D02*
X028195Y022285D01*
X028195Y022450D01*
X028140Y022505D01*
X028030Y022505D01*
X027975Y022395D02*
X027865Y022505D01*
X027745Y022450D02*
X027690Y022505D01*
X027580Y022505D01*
X027525Y022450D01*
X027525Y022285D01*
X027415Y022285D02*
X027745Y022285D01*
X027745Y022450D01*
X027525Y022395D02*
X027415Y022505D01*
X027415Y022653D02*
X027415Y022874D01*
X027415Y022763D02*
X027745Y022763D01*
X027635Y022653D01*
X027094Y019475D02*
X024181Y019475D01*
X023511Y019475D02*
X023472Y019475D01*
X021485Y019272D02*
X021430Y019162D01*
X021320Y019052D01*
X021320Y019217D01*
X021265Y019272D01*
X021210Y019272D01*
X021155Y019217D01*
X021155Y019107D01*
X021210Y019052D01*
X021320Y019052D01*
X021375Y018904D02*
X021430Y018904D01*
X021485Y018848D01*
X021485Y018738D01*
X021430Y018683D01*
X021430Y018535D02*
X021485Y018480D01*
X021485Y018370D01*
X021430Y018315D01*
X021210Y018315D01*
X021155Y018370D01*
X021155Y018480D01*
X021210Y018535D01*
X021155Y018683D02*
X021155Y018904D01*
X021375Y018904D02*
X021155Y018683D01*
X019570Y019420D02*
X019370Y019420D01*
X023314Y015263D02*
X023314Y014790D01*
X023472Y013885D02*
X027645Y013885D01*
X028826Y013885D02*
X029220Y013885D01*
X029220Y014515D01*
X029023Y014515D01*
X028932Y014902D01*
X028859Y015293D01*
X028804Y015687D01*
X028768Y016084D01*
X028749Y016481D01*
X028749Y016879D01*
X028768Y017276D01*
X028804Y017673D01*
X028859Y018067D01*
X028932Y018458D01*
X029023Y018845D01*
X029220Y018845D01*
X029220Y019475D01*
X028826Y019475D01*
X024064Y013732D02*
X023953Y013732D01*
X024008Y013732D02*
X024008Y013457D01*
X024064Y013402D01*
X024119Y013402D01*
X024174Y013457D01*
X023805Y013457D02*
X023750Y013402D01*
X023640Y013402D01*
X023585Y013457D01*
X023585Y013512D01*
X023640Y013567D01*
X023695Y013567D01*
X023640Y013567D02*
X023585Y013622D01*
X023585Y013677D01*
X023640Y013732D01*
X023750Y013732D01*
X023805Y013677D01*
X019385Y005995D02*
X019220Y005995D01*
X019165Y005940D01*
X019165Y005720D01*
X019220Y005665D01*
X019385Y005665D01*
X019385Y005995D01*
X019017Y005830D02*
X018796Y005830D01*
X018385Y005665D02*
X018220Y005665D01*
X018165Y005720D01*
X018165Y005940D01*
X018220Y005995D01*
X018385Y005995D01*
X018385Y005665D01*
X018017Y005830D02*
X017796Y005830D01*
X017907Y005940D02*
X017907Y005720D01*
X017790Y002840D02*
X017150Y002840D01*
X017150Y001520D01*
X017790Y001520D01*
X017790Y002840D01*
X018150Y002840D02*
X018150Y001520D01*
X018790Y001520D01*
X018790Y002840D01*
X018150Y002840D01*
X018965Y002468D02*
X018965Y002358D01*
X019020Y002303D01*
X019130Y002303D02*
X019185Y002413D01*
X019185Y002468D01*
X019130Y002524D01*
X019020Y002524D01*
X018965Y002468D01*
X019130Y002303D02*
X019295Y002303D01*
X019295Y002524D01*
X019465Y002468D02*
X019795Y002468D01*
X019630Y002303D01*
X019630Y002524D01*
X019520Y002155D02*
X019465Y002100D01*
X019465Y001990D01*
X019520Y001935D01*
X019740Y001935D01*
X019795Y001990D01*
X019795Y002100D01*
X019740Y002155D01*
X019295Y002100D02*
X019295Y001990D01*
X019240Y001935D01*
X019020Y001935D01*
X018965Y001990D01*
X018965Y002100D01*
X019020Y002155D01*
X019240Y002155D02*
X019295Y002100D01*
X018630Y001500D02*
X018630Y000860D01*
X017310Y000860D01*
X017310Y001500D01*
X018630Y001500D01*
X018415Y000705D02*
X018250Y000705D01*
X018195Y000650D01*
X018195Y000540D01*
X018250Y000485D01*
X018415Y000485D01*
X018415Y000375D02*
X018415Y000705D01*
X018305Y000485D02*
X018195Y000375D01*
X018047Y000375D02*
X017826Y000375D01*
X017937Y000375D02*
X017937Y000705D01*
X018047Y000595D01*
X017678Y000650D02*
X017623Y000705D01*
X017513Y000705D01*
X017458Y000650D01*
X017458Y000595D01*
X017513Y000540D01*
X017458Y000485D01*
X017458Y000430D01*
X017513Y000375D01*
X017623Y000375D01*
X017678Y000430D01*
X017568Y000540D02*
X017513Y000540D01*
X015290Y001270D02*
X015290Y002590D01*
X014650Y002590D01*
X014650Y001270D01*
X015290Y001270D01*
X014540Y001270D02*
X014540Y002590D01*
X013900Y002590D01*
X013900Y001270D01*
X014540Y001270D01*
X014490Y002685D02*
X014270Y002685D01*
X014215Y002740D01*
X014215Y002850D01*
X014270Y002905D01*
X014215Y003053D02*
X014215Y003274D01*
X014215Y003163D02*
X014545Y003163D01*
X014435Y003053D01*
X014490Y002905D02*
X014545Y002850D01*
X014545Y002740D01*
X014490Y002685D01*
X014865Y002685D02*
X015195Y002685D01*
X015195Y002850D01*
X015140Y002905D01*
X015030Y002905D01*
X014975Y002850D01*
X014975Y002685D01*
X014975Y002795D02*
X014865Y002905D01*
X014865Y003053D02*
X014865Y003274D01*
X014865Y003163D02*
X015195Y003163D01*
X015085Y003053D01*
X015030Y003422D02*
X015030Y003642D01*
X014865Y003587D02*
X015195Y003587D01*
X015030Y003422D01*
X015130Y003860D02*
X015130Y004500D01*
X013810Y004500D01*
X013810Y003860D01*
X015130Y003860D01*
X014545Y003587D02*
X014545Y003477D01*
X014490Y003422D01*
X014545Y003587D02*
X014490Y003642D01*
X014435Y003642D01*
X014215Y003422D01*
X014215Y003642D01*
X014268Y004675D02*
X014268Y005005D01*
X014378Y004895D01*
X014378Y004675D02*
X014158Y004675D01*
X014526Y004675D02*
X014747Y004675D01*
X014637Y004675D02*
X014637Y005005D01*
X014747Y004895D01*
X014895Y004950D02*
X014950Y005005D01*
X015060Y005005D01*
X015115Y004950D01*
X015115Y004730D01*
X015060Y004675D01*
X014950Y004675D01*
X014895Y004730D01*
X002880Y023860D02*
X001560Y023860D01*
X001560Y024500D01*
X002880Y024500D01*
X002880Y023860D01*
X002735Y024615D02*
X002735Y024945D01*
X002570Y024945D01*
X002515Y024890D01*
X002515Y024780D01*
X002570Y024725D01*
X002735Y024725D01*
X002625Y024725D02*
X002515Y024615D01*
X002367Y024615D02*
X002146Y024835D01*
X002146Y024890D01*
X002202Y024945D01*
X002312Y024945D01*
X002367Y024890D01*
X002367Y024615D02*
X002146Y024615D01*
X001998Y024615D02*
X001778Y024835D01*
X001778Y024890D01*
X001833Y024945D01*
X001943Y024945D01*
X001998Y024890D01*
X001998Y024615D02*
X001778Y024615D01*
X010730Y025780D02*
X010730Y026580D01*
X012210Y026580D01*
X012210Y025780D01*
X010730Y025780D01*
X010933Y025640D02*
X011153Y025420D01*
X011098Y025365D01*
X010988Y025365D01*
X010933Y025420D01*
X010933Y025640D01*
X010988Y025695D01*
X011098Y025695D01*
X011153Y025640D01*
X011153Y025420D01*
X011301Y025365D02*
X011522Y025365D01*
X011301Y025585D01*
X011301Y025640D01*
X011356Y025695D01*
X011467Y025695D01*
X011522Y025640D01*
X011670Y025640D02*
X011725Y025695D01*
X011835Y025695D01*
X011890Y025640D01*
X011890Y025420D01*
X011835Y025365D01*
X011725Y025365D01*
X011670Y025420D01*
M02*
