%
M48
M72
T01C0.0180
T02C0.0240
T03C0.0315
T04C0.0320
T05C0.0354
T06C0.0394
T07C0.0469
T08C0.0551
T09C0.0709
T10C0.0787
T11C0.0906
T12C0.0984
T13C0.1290
T14C0.1660
%
T01
X5470Y3930
X8470Y5430
X9220Y4680
X9220Y4180
X9720Y3680
X12720Y6680
X13220Y7430
X14720Y6680
X15220Y7680
X15720Y7430
X16220Y6680
X16720Y7180
X17220Y6680
X15470Y4680
X15970Y4430
X15470Y4180
X13970Y3680
X13970Y3180
X13720Y2680
X13220Y2180
X13720Y1680
X13720Y1180
X13220Y1430
X13220Y3180
X13220Y3680
X13220Y4180
X15720Y2180
X15720Y1680
X18720Y3680
X18720Y4430
X19970Y4680
X20470Y4180
X22720Y6680
X22720Y7430
X22970Y7930
X23720Y7680
X24970Y6430
X25220Y6930
X25720Y7680
X25720Y9680
X25720Y10430
X23720Y11180
X23220Y11680
X22720Y11930
X22720Y12430
X21220Y12930
X21720Y13930
X20220Y15180
X19720Y14680
X19220Y14930
X17970Y14180
X17970Y13680
X17970Y13180
X17970Y12680
X17720Y12180
X17220Y11680
X18970Y9430
X22220Y9430
X22720Y9430
X23470Y5180
X26220Y3680
X28220Y3680
X28595Y4055
X28470Y14680
X27970Y14680
X27970Y20180
X28470Y20180
X26970Y21930
X25720Y21930
X26220Y23930
X26970Y23930
X24970Y24180
X24470Y24180
X23970Y24180
X23220Y23430
X22845Y23430
X22220Y24680
X20470Y24680
X19220Y24680
X18220Y24680
X17220Y24680
X15720Y22930
X15220Y22930
X17220Y22180
X17720Y22180
X18220Y22180
X18720Y22180
X20720Y21930
X20220Y19930
X21970Y18930
X22720Y20180
X22470Y16930
X17970Y18680
X15720Y16430
X14720Y20430
X12720Y22430
X12220Y22180
X11720Y22180
X11470Y23930
X11970Y23930
X12220Y24680
X13220Y24680
X11470Y27930
X11470Y28430
X7220Y24680
X7220Y24180
X6720Y24180
X6720Y24680
X6470Y22930
X6470Y22430
X6470Y21930
X5595Y21680
X5595Y21180
X5595Y20680
X3720Y21430
X3720Y21930
X3220Y21930
X3220Y21430
X2220Y21430
X2220Y21930
X1720Y21930
X1720Y21430
X1470Y22680
X1470Y23680
X3970Y24180
X3970Y24680
X4470Y24680
X4970Y24680
X4970Y24180
X3970Y22930
X3970Y22430
X7720Y19180
X8970Y20180
X8720Y20930
X8470Y21180
X8720Y21430
X8470Y21680
X8720Y21930
X8470Y22180
X10220Y19180
X11220Y20180
X10470Y16680
X10470Y15930
X10220Y15180
X10220Y14680
X10220Y14180
X10970Y13930
X10970Y13430
X8220Y13680
X7720Y14180
X5470Y10930
X4970Y10930
X3720Y10930
X4470Y9430
X4970Y9430
X5470Y9430
X5470Y7930
X5970Y7930
X4970Y7930
X4470Y7930
X3220Y8680
X1470Y12680
X1470Y13180
X1470Y13680
X1470Y14180
X1470Y14680
X1470Y15180
X1470Y15680
X1470Y16430
X1470Y16930
X1970Y16930
X1970Y16430
X8220Y9930
X8220Y9430
X8220Y8930
X8220Y7930
X8220Y7430
X8220Y6930
X19220Y25930
X18970Y27930
X18970Y28430
X24720Y28680
X24720Y27430
X27220Y27180
X27220Y28430
X1720Y27930
X1720Y27430
X1220Y27930
X720Y27930
X1720Y26930
T02
X1970Y23430
X4970Y18680
X6470Y18680
X11220Y18680
X9470Y23930
X8970Y23930
T03
X1970Y10830
X1970Y10042
X1970Y9255
X1970Y8467
X1970Y7680
X1970Y6893
X1970Y6105
X1970Y5318
X1970Y4530
T04
X17020Y1180
X18920Y1180
T05
X27076Y4568
X27864Y4568
X27864Y5355
X27864Y6143
X27076Y6143
X27076Y5355
X27076Y6930
X27076Y7717
X27864Y7717
X27864Y6930
X27864Y8505
X27076Y8505
X27076Y9292
X27864Y9292
X27287Y26451
X26306Y26537
X25522Y26606
X24541Y26691
T06
X10970Y24680
X10970Y23680
X10970Y22680
X2720Y21680
X970Y22180
X970Y23180
X970Y24180
X970Y25180
X4970Y8680
T07
X27470Y8899
X27470Y4961
T08
X16598Y25261
X13842Y25261
T09
X6177Y28400
T10
X9962Y20438
X9962Y6422
X23978Y6422
X23978Y20438
T11
X28584Y27413
X23430Y27864
T12
X7274Y27453
X7205Y29421
T13
X3610Y2450
X21680Y2450
X21680Y27150
X3610Y27150
T14
X6970Y11930
X6970Y1930
X27470Y1930
X27470Y11930
M30
