G75*
G70*
%OFA0B0*%
%FSLAX24Y24*%
%IPPOS*%
%LPD*%
%AMOC8*
5,1,8,0,0,1.08239X$1,22.5*
%
%ADD10C,0.1384*%
%ADD11C,0.1063*%
%ADD12C,0.0554*%
%ADD13C,0.1306*%
%ADD14R,0.0512X0.0591*%
%ADD15R,0.0866X0.0394*%
%ADD16R,0.0984X0.0394*%
%ADD17R,0.0457X0.0315*%
%ADD18R,0.0457X0.0787*%
%ADD19R,0.0457X0.0630*%
%ADD20R,0.0492X0.0413*%
%ADD21R,0.0394X0.0433*%
%ADD22R,0.0433X0.0394*%
%ADD23R,0.0515X0.0515*%
%ADD24C,0.0515*%
%ADD25C,0.0520*%
%ADD26R,0.0394X0.0551*%
%ADD27R,0.0594X0.0594*%
%ADD28OC8,0.0594*%
%ADD29C,0.0500*%
%ADD30R,0.1024X0.0472*%
%ADD31R,0.1299X0.0906*%
%ADD32R,0.1000X0.1000*%
%ADD33C,0.0090*%
%ADD34C,0.0160*%
%ADD35C,0.0340*%
%ADD36C,0.0591*%
%ADD37C,0.0320*%
%ADD38C,0.0100*%
%ADD39C,0.0240*%
%ADD40C,0.0400*%
D10*
X007274Y027453D03*
X007205Y029421D03*
D11*
X006177Y028400D03*
D12*
X024541Y026691D03*
X025522Y026606D03*
X026306Y026537D03*
X027287Y026451D03*
D13*
X028584Y027413D03*
X023430Y027864D03*
D14*
X011844Y026180D03*
X011096Y026180D03*
D15*
X028295Y019554D03*
D16*
X028236Y013806D03*
D17*
X023149Y015538D03*
X023149Y015971D03*
X023149Y016404D03*
X023149Y016837D03*
X023149Y017271D03*
X023149Y017704D03*
X023149Y018137D03*
X023149Y018570D03*
D18*
X023149Y014314D03*
D19*
X023149Y019137D03*
D20*
X023836Y019391D03*
X027429Y019391D03*
D21*
X026970Y022595D03*
X026970Y023265D03*
X026220Y023265D03*
X026220Y022595D03*
X025470Y022595D03*
X025470Y023265D03*
X024720Y023265D03*
X024720Y022595D03*
X020720Y020765D03*
X020720Y020095D03*
X020720Y019265D03*
X020720Y018595D03*
X019220Y020845D03*
X019220Y021515D03*
X018470Y021515D03*
X018470Y020845D03*
X017470Y020845D03*
X017470Y021515D03*
X016720Y021515D03*
X016720Y020845D03*
X017470Y002515D03*
X017470Y001845D03*
X018470Y001845D03*
X018470Y002515D03*
X014970Y002265D03*
X014970Y001595D03*
X014220Y001595D03*
X014220Y002265D03*
D22*
X014135Y004180D03*
X014805Y004180D03*
X017635Y001180D03*
X018305Y001180D03*
X012055Y015930D03*
X011385Y015930D03*
X011385Y016680D03*
X012055Y016680D03*
X019385Y022680D03*
X020055Y022680D03*
X021385Y021930D03*
X022055Y021930D03*
X002555Y024180D03*
X001885Y024180D03*
D23*
X001970Y010830D03*
D24*
X001970Y010042D03*
X001970Y009255D03*
X001970Y008467D03*
X001970Y007680D03*
X001970Y006893D03*
X001970Y006105D03*
X001970Y005318D03*
X001970Y004530D03*
D25*
X017020Y001180D03*
X018920Y001180D03*
D26*
X019096Y019247D03*
X019844Y019247D03*
X019470Y020113D03*
D27*
X010970Y024680D03*
X000970Y025180D03*
D28*
X000970Y024180D03*
X000970Y023180D03*
X000970Y022180D03*
X010970Y022680D03*
X010970Y023680D03*
D29*
X015220Y008930D03*
X016470Y008930D03*
X018220Y005180D03*
X019220Y005180D03*
D30*
X014220Y011393D03*
X014220Y012180D03*
X014220Y012967D03*
D31*
X012468Y014739D03*
X012468Y009621D03*
D32*
X000970Y018680D03*
D33*
X024765Y003272D02*
X025175Y003272D01*
X024970Y003067D01*
X024970Y003340D01*
X024765Y002880D02*
X024765Y002606D01*
X024765Y002743D02*
X025175Y002743D01*
X025039Y002606D01*
X025175Y002419D02*
X024765Y002146D01*
X024765Y001959D02*
X024765Y001685D01*
X024765Y001822D02*
X025175Y001822D01*
X025039Y001685D01*
X025107Y001499D02*
X024833Y001499D01*
X024765Y001430D01*
X024765Y001293D01*
X024833Y001225D01*
X025107Y001499D01*
X025175Y001430D01*
X025175Y001293D01*
X025107Y001225D01*
X024833Y001225D01*
D34*
X000460Y000420D02*
X000460Y018000D01*
X000890Y018000D01*
X000890Y018600D01*
X001050Y018600D01*
X001050Y018760D01*
X000890Y018760D01*
X000890Y019360D01*
X000460Y019360D01*
X000460Y021931D01*
X000680Y021711D01*
X000680Y020872D01*
X000724Y020766D01*
X002974Y018516D01*
X003056Y018434D01*
X003162Y018390D01*
X004638Y018390D01*
X004721Y018307D01*
X004882Y018240D01*
X005058Y018240D01*
X005219Y018307D01*
X005343Y018431D01*
X005410Y018592D01*
X005410Y018768D01*
X005343Y018929D01*
X005219Y019053D01*
X005058Y019120D01*
X004882Y019120D01*
X004721Y019053D01*
X004638Y018970D01*
X003340Y018970D01*
X001260Y021050D01*
X001260Y021711D01*
X001507Y021958D01*
X001507Y022402D01*
X001192Y022717D01*
X001181Y022717D01*
X001447Y022982D01*
X001447Y023162D01*
X000988Y023162D01*
X000988Y023198D01*
X001447Y023198D01*
X001447Y023378D01*
X001181Y023643D01*
X001192Y023643D01*
X001439Y023890D01*
X001448Y023890D01*
X001465Y023847D01*
X001533Y023780D01*
X001621Y023743D01*
X001661Y023743D01*
X001597Y023679D01*
X001530Y023518D01*
X001530Y023342D01*
X001597Y023181D01*
X001721Y023057D01*
X001882Y022990D01*
X002058Y022990D01*
X002219Y023057D01*
X002320Y023157D01*
X002384Y023184D01*
X002466Y023266D01*
X002800Y023600D01*
X002845Y023707D01*
X002845Y023754D01*
X002907Y023780D01*
X002975Y023847D01*
X003011Y023935D01*
X003011Y024425D01*
X002975Y024513D01*
X002907Y024580D01*
X002819Y024617D01*
X002290Y024617D01*
X002220Y024588D01*
X002150Y024617D01*
X001621Y024617D01*
X001533Y024580D01*
X001465Y024513D01*
X001448Y024470D01*
X001439Y024470D01*
X001266Y024643D01*
X001315Y024643D01*
X001403Y024680D01*
X001470Y024747D01*
X001507Y024835D01*
X001507Y025525D01*
X001470Y025613D01*
X001403Y025680D01*
X001315Y025717D01*
X000625Y025717D01*
X000537Y025680D01*
X000470Y025613D01*
X000460Y025589D01*
X000460Y029472D01*
X004220Y029667D01*
X004220Y028788D01*
X003839Y028890D01*
X003381Y028890D01*
X002938Y028771D01*
X002542Y028542D01*
X002218Y028218D01*
X001989Y027822D01*
X001870Y027379D01*
X001870Y026921D01*
X001989Y026478D01*
X002218Y026082D01*
X002542Y025758D01*
X002938Y025529D01*
X003381Y025410D01*
X003839Y025410D01*
X004282Y025529D01*
X004544Y025680D01*
X008720Y025680D01*
X008720Y026680D01*
X011220Y026680D01*
X011220Y026655D01*
X011144Y026655D01*
X011144Y026228D01*
X011048Y026228D01*
X011048Y026655D01*
X010816Y026655D01*
X010771Y026643D01*
X010730Y026619D01*
X010696Y026586D01*
X010672Y026545D01*
X010660Y026499D01*
X010660Y026228D01*
X011048Y026228D01*
X011048Y026132D01*
X011144Y026132D01*
X011144Y025705D01*
X011220Y025705D01*
X011220Y025180D01*
X013326Y025180D01*
X013326Y025158D01*
X013405Y024969D01*
X013550Y024824D01*
X013739Y024745D01*
X013945Y024745D01*
X014134Y024824D01*
X014279Y024969D01*
X014358Y025158D01*
X014358Y025180D01*
X016082Y025180D01*
X016082Y025158D01*
X016161Y024969D01*
X016306Y024824D01*
X016495Y024745D01*
X016701Y024745D01*
X016890Y024824D01*
X017035Y024969D01*
X017114Y025158D01*
X017114Y025180D01*
X025560Y025180D01*
X025930Y024810D01*
X025930Y024220D01*
X025872Y024162D01*
X025810Y024012D01*
X025810Y023848D01*
X025872Y023698D01*
X025886Y023684D01*
X025820Y023617D01*
X025810Y023593D01*
X025777Y023625D01*
X025736Y023649D01*
X025691Y023661D01*
X025488Y023661D01*
X025488Y023283D01*
X025452Y023283D01*
X025452Y023661D01*
X025249Y023661D01*
X025204Y023649D01*
X025163Y023625D01*
X025129Y023592D01*
X025105Y023551D01*
X025095Y023512D01*
X025085Y023551D01*
X025061Y023592D01*
X025027Y023625D01*
X024986Y023649D01*
X024941Y023661D01*
X024738Y023661D01*
X024738Y023283D01*
X024702Y023283D01*
X024702Y023661D01*
X024499Y023661D01*
X024454Y023649D01*
X024413Y023625D01*
X024379Y023592D01*
X024355Y023551D01*
X024343Y023505D01*
X024343Y023283D01*
X024702Y023283D01*
X024702Y023246D01*
X024343Y023246D01*
X024343Y023024D01*
X024354Y022983D01*
X024320Y022948D01*
X024283Y022860D01*
X024283Y022331D01*
X024320Y022243D01*
X024387Y022175D01*
X024430Y022158D01*
X024430Y022122D01*
X024474Y022016D01*
X024556Y021934D01*
X024806Y021684D01*
X024912Y021640D01*
X025430Y021640D01*
X025488Y021582D01*
X025638Y021520D01*
X025802Y021520D01*
X025952Y021582D01*
X026068Y021698D01*
X026130Y021848D01*
X026130Y021860D01*
X026430Y021560D01*
X026430Y015550D01*
X023600Y012720D01*
X023010Y012720D01*
X022952Y012778D01*
X022802Y012840D01*
X022638Y012840D01*
X022488Y012778D01*
X022372Y012662D01*
X022310Y012512D01*
X022310Y012348D01*
X022372Y012198D01*
X022390Y012180D01*
X022372Y012162D01*
X022310Y012012D01*
X022310Y011848D01*
X022372Y011698D01*
X022488Y011582D01*
X022638Y011520D01*
X022802Y011520D01*
X022836Y011534D01*
X022872Y011448D01*
X022988Y011332D01*
X023138Y011270D01*
X023302Y011270D01*
X023316Y011276D01*
X023310Y011262D01*
X023310Y011098D01*
X023372Y010948D01*
X023488Y010832D01*
X023638Y010770D01*
X023802Y010770D01*
X023952Y010832D01*
X024010Y010890D01*
X024100Y010890D01*
X025310Y009680D01*
X025310Y009598D01*
X025372Y009448D01*
X025488Y009332D01*
X025638Y009270D01*
X025802Y009270D01*
X025952Y009332D01*
X026068Y009448D01*
X026130Y009598D01*
X026130Y009762D01*
X026068Y009912D01*
X025952Y010028D01*
X025886Y010055D01*
X025952Y010082D01*
X026068Y010198D01*
X026130Y010348D01*
X026130Y010512D01*
X026068Y010662D01*
X025952Y010778D01*
X025802Y010840D01*
X025720Y010840D01*
X024716Y011844D01*
X024634Y011926D01*
X024528Y011970D01*
X024170Y011970D01*
X024216Y012016D01*
X027134Y014934D01*
X027134Y014934D01*
X027216Y015016D01*
X027220Y015026D01*
X027220Y013180D01*
X028980Y013180D01*
X028980Y000420D01*
X020215Y000420D01*
X020215Y001507D01*
X020288Y001382D01*
X020612Y001058D01*
X021008Y000829D01*
X021451Y000710D01*
X021909Y000710D01*
X022352Y000829D01*
X022748Y001058D01*
X023072Y001382D01*
X023301Y001778D01*
X023420Y002221D01*
X023420Y002679D01*
X023301Y003122D01*
X023072Y003518D01*
X022748Y003842D01*
X022352Y004071D01*
X021909Y004190D01*
X021451Y004190D01*
X021008Y004071D01*
X020825Y003966D01*
X020880Y004098D01*
X020880Y004262D01*
X020818Y004412D01*
X020760Y004470D01*
X020760Y005488D01*
X020716Y005594D01*
X018420Y007890D01*
X018600Y007890D01*
X021474Y005016D01*
X021474Y005016D01*
X021556Y004934D01*
X021662Y004890D01*
X023180Y004890D01*
X023238Y004832D01*
X023388Y004770D01*
X023552Y004770D01*
X023702Y004832D01*
X023818Y004948D01*
X023880Y005098D01*
X023880Y005262D01*
X023818Y005412D01*
X023702Y005528D01*
X023552Y005590D01*
X023388Y005590D01*
X023238Y005528D01*
X023180Y005470D01*
X021840Y005470D01*
X018884Y008426D01*
X018778Y008470D01*
X015390Y008470D01*
X015498Y008515D01*
X015635Y008652D01*
X015710Y008833D01*
X015710Y009027D01*
X015635Y009208D01*
X015498Y009345D01*
X015317Y009420D01*
X015123Y009420D01*
X014942Y009345D01*
X014805Y009208D01*
X014730Y009027D01*
X014730Y008893D01*
X013587Y007750D01*
X013480Y007750D01*
X013452Y007778D01*
X013302Y007840D01*
X013138Y007840D01*
X012988Y007778D01*
X012872Y007662D01*
X012810Y007512D01*
X012810Y007348D01*
X012872Y007198D01*
X012988Y007082D01*
X013138Y007020D01*
X013302Y007020D01*
X013452Y007082D01*
X013480Y007110D01*
X013490Y007110D01*
X013350Y006970D01*
X013010Y006970D01*
X012952Y007028D01*
X012802Y007090D01*
X012638Y007090D01*
X012488Y007028D01*
X012372Y006912D01*
X012310Y006762D01*
X012310Y006598D01*
X012372Y006448D01*
X012488Y006332D01*
X012638Y006270D01*
X012802Y006270D01*
X012952Y006332D01*
X013010Y006390D01*
X013528Y006390D01*
X013634Y006434D01*
X013716Y006516D01*
X014810Y007610D01*
X014810Y007598D01*
X014872Y007448D01*
X014988Y007332D01*
X015138Y007270D01*
X015302Y007270D01*
X015336Y007284D01*
X015372Y007198D01*
X015488Y007082D01*
X015638Y007020D01*
X015802Y007020D01*
X015952Y007082D01*
X016068Y007198D01*
X016130Y007348D01*
X016130Y007390D01*
X016363Y007390D01*
X016310Y007262D01*
X016310Y007098D01*
X016372Y006948D01*
X016488Y006832D01*
X016638Y006770D01*
X016802Y006770D01*
X016816Y006776D01*
X016810Y006762D01*
X016810Y006598D01*
X016872Y006448D01*
X016930Y006390D01*
X016930Y006122D01*
X016974Y006016D01*
X017056Y005934D01*
X017730Y005260D01*
X017730Y005083D01*
X017795Y004925D01*
X016330Y004925D01*
X016330Y005002D01*
X016275Y005134D01*
X015525Y005884D01*
X015424Y005985D01*
X015292Y006040D01*
X011369Y006040D01*
X011080Y006329D01*
X011080Y008502D01*
X011025Y008634D01*
X008775Y010884D01*
X008674Y010985D01*
X008542Y011040D01*
X007834Y011040D01*
X007962Y011169D01*
X008125Y011451D01*
X008210Y011767D01*
X008210Y012093D01*
X008125Y012409D01*
X007962Y012691D01*
X007731Y012922D01*
X007449Y013085D01*
X007133Y013170D01*
X006807Y013170D01*
X006491Y013085D01*
X006209Y012922D01*
X005978Y012691D01*
X005815Y012409D01*
X005730Y012093D01*
X005730Y011767D01*
X005815Y011451D01*
X005978Y011169D01*
X006106Y011040D01*
X005869Y011040D01*
X005868Y011042D01*
X005818Y011162D01*
X005702Y011278D01*
X005552Y011340D01*
X005388Y011340D01*
X005268Y011290D01*
X005172Y011290D01*
X005052Y011340D01*
X004888Y011340D01*
X004738Y011278D01*
X004622Y011162D01*
X004560Y011012D01*
X004560Y010848D01*
X004622Y010698D01*
X004738Y010582D01*
X004888Y010520D01*
X005052Y010520D01*
X005172Y010570D01*
X005268Y010570D01*
X005358Y010532D01*
X005516Y010375D01*
X005648Y010320D01*
X008321Y010320D01*
X010360Y008281D01*
X010360Y006920D01*
X010321Y006959D01*
X010088Y007056D01*
X009836Y007056D01*
X009603Y006959D01*
X009425Y006781D01*
X009328Y006548D01*
X009328Y006296D01*
X009425Y006063D01*
X009603Y005885D01*
X009836Y005788D01*
X010088Y005788D01*
X010321Y005885D01*
X010414Y005978D01*
X010415Y005976D01*
X010516Y005875D01*
X011016Y005375D01*
X011148Y005320D01*
X015071Y005320D01*
X015327Y005064D01*
X015238Y005028D01*
X015180Y004970D01*
X010590Y004970D01*
X009966Y005594D01*
X009884Y005676D01*
X009778Y005720D01*
X008760Y005720D01*
X008702Y005778D01*
X008552Y005840D01*
X008388Y005840D01*
X008238Y005778D01*
X008122Y005662D01*
X008060Y005512D01*
X008060Y005348D01*
X008122Y005198D01*
X008238Y005082D01*
X008388Y005020D01*
X008552Y005020D01*
X008702Y005082D01*
X008760Y005140D01*
X009600Y005140D01*
X010306Y004434D01*
X010412Y004390D01*
X013739Y004390D01*
X013739Y004198D01*
X014117Y004198D01*
X014117Y004162D01*
X013739Y004162D01*
X013739Y003959D01*
X013751Y003914D01*
X013775Y003873D01*
X013808Y003839D01*
X013849Y003815D01*
X013895Y003803D01*
X014117Y003803D01*
X014117Y004162D01*
X014154Y004162D01*
X014154Y003803D01*
X014376Y003803D01*
X014417Y003814D01*
X014452Y003780D01*
X014540Y003743D01*
X015069Y003743D01*
X015157Y003780D01*
X015224Y003846D01*
X015238Y003832D01*
X015388Y003770D01*
X015552Y003770D01*
X015702Y003832D01*
X015818Y003948D01*
X015854Y004034D01*
X015888Y004020D01*
X016052Y004020D01*
X016202Y004082D01*
X016305Y004185D01*
X017975Y004185D01*
X017975Y003131D01*
X018012Y003041D01*
X018081Y002972D01*
X018171Y002935D01*
X019475Y002935D01*
X019475Y000420D01*
X000460Y000420D01*
X000460Y000497D02*
X019475Y000497D01*
X019475Y000656D02*
X000460Y000656D01*
X000460Y000814D02*
X002993Y000814D01*
X002938Y000829D02*
X003381Y000710D01*
X003839Y000710D01*
X004282Y000829D01*
X004678Y001058D01*
X005002Y001382D01*
X005231Y001778D01*
X005350Y002221D01*
X005350Y002679D01*
X005273Y002967D01*
X005306Y002934D01*
X005412Y002890D01*
X006176Y002890D01*
X005978Y002691D01*
X005815Y002409D01*
X005730Y002093D01*
X005730Y001767D01*
X005815Y001451D01*
X005978Y001169D01*
X006209Y000938D01*
X006491Y000775D01*
X006807Y000690D01*
X007133Y000690D01*
X007449Y000775D01*
X007731Y000938D01*
X007962Y001169D01*
X008125Y001451D01*
X008210Y001767D01*
X008210Y002093D01*
X008125Y002409D01*
X007962Y002691D01*
X007764Y002890D01*
X008600Y002890D01*
X009056Y002434D01*
X009162Y002390D01*
X012863Y002390D01*
X012810Y002262D01*
X012810Y002098D01*
X012872Y001948D01*
X012988Y001832D01*
X013138Y001770D01*
X013302Y001770D01*
X013452Y001832D01*
X013510Y001890D01*
X013778Y001890D01*
X013823Y001909D01*
X013854Y001877D01*
X013843Y001836D01*
X013843Y001614D01*
X014202Y001614D01*
X014202Y001577D01*
X014238Y001577D01*
X014238Y001199D01*
X014441Y001199D01*
X014486Y001211D01*
X014527Y001235D01*
X014560Y001267D01*
X014570Y001243D01*
X014637Y001175D01*
X014725Y001139D01*
X015215Y001139D01*
X015303Y001175D01*
X015370Y001243D01*
X015396Y001305D01*
X015443Y001305D01*
X015498Y001328D01*
X015638Y001270D01*
X015802Y001270D01*
X015952Y001332D01*
X016068Y001448D01*
X016590Y001448D01*
X016596Y001463D02*
X016520Y001279D01*
X016520Y001081D01*
X016596Y000897D01*
X016737Y000756D01*
X016921Y000680D01*
X017119Y000680D01*
X017303Y000756D01*
X017314Y000767D01*
X017371Y000743D01*
X017900Y000743D01*
X017970Y000772D01*
X018040Y000743D01*
X018569Y000743D01*
X018626Y000767D01*
X018637Y000756D01*
X018821Y000680D01*
X019019Y000680D01*
X019203Y000756D01*
X019344Y000897D01*
X019420Y001081D01*
X019420Y001279D01*
X019344Y001463D01*
X019203Y001604D01*
X019019Y001680D01*
X018907Y001680D01*
X018907Y002110D01*
X018870Y002198D01*
X018836Y002233D01*
X018847Y002274D01*
X018847Y002496D01*
X018488Y002496D01*
X018488Y002533D01*
X018452Y002533D01*
X018452Y002911D01*
X018249Y002911D01*
X018204Y002899D01*
X018163Y002875D01*
X018129Y002842D01*
X018105Y002801D01*
X018093Y002755D01*
X018093Y002533D01*
X018452Y002533D01*
X018452Y002496D01*
X018093Y002496D01*
X018093Y002274D01*
X018104Y002233D01*
X018070Y002198D01*
X018033Y002110D01*
X018033Y001617D01*
X018032Y001613D01*
X017970Y001588D01*
X017908Y001613D01*
X017907Y001617D01*
X017907Y002110D01*
X017870Y002198D01*
X017836Y002233D01*
X017847Y002274D01*
X017847Y002496D01*
X017488Y002496D01*
X017488Y002533D01*
X017452Y002533D01*
X017452Y002911D01*
X017249Y002911D01*
X017204Y002899D01*
X017163Y002875D01*
X017129Y002842D01*
X017105Y002801D01*
X017093Y002755D01*
X017093Y002533D01*
X017452Y002533D01*
X017452Y002496D01*
X017093Y002496D01*
X017093Y002274D01*
X017104Y002233D01*
X017070Y002198D01*
X017033Y002110D01*
X017033Y001680D01*
X016921Y001680D01*
X016737Y001604D01*
X016596Y001463D01*
X016524Y001290D02*
X015849Y001290D01*
X015591Y001290D02*
X015390Y001290D01*
X016050Y001930D02*
X016068Y001948D01*
X016130Y002098D01*
X016130Y002262D01*
X016068Y002412D01*
X015952Y002528D01*
X015802Y002590D01*
X015638Y002590D01*
X015498Y002532D01*
X015443Y002555D01*
X015396Y002555D01*
X015370Y002617D01*
X015303Y002685D01*
X015215Y002721D01*
X014725Y002721D01*
X014637Y002685D01*
X014595Y002642D01*
X014553Y002685D01*
X014465Y002721D01*
X014130Y002721D01*
X014130Y002762D01*
X014068Y002912D01*
X013952Y003028D01*
X013802Y003090D01*
X013638Y003090D01*
X013488Y003028D01*
X013430Y002970D01*
X009340Y002970D01*
X008966Y003344D01*
X008884Y003426D01*
X008778Y003470D01*
X005590Y003470D01*
X005540Y003520D01*
X005552Y003520D01*
X005702Y003582D01*
X005818Y003698D01*
X005880Y003848D01*
X005880Y004012D01*
X005818Y004162D01*
X005760Y004220D01*
X005760Y007310D01*
X005970Y007520D01*
X006052Y007520D01*
X006202Y007582D01*
X006318Y007698D01*
X006380Y007848D01*
X006380Y008012D01*
X006318Y008162D01*
X006202Y008278D01*
X006052Y008340D01*
X005888Y008340D01*
X005738Y008278D01*
X005622Y008162D01*
X005560Y008012D01*
X005560Y007930D01*
X005306Y007676D01*
X005224Y007594D01*
X005180Y007488D01*
X005180Y004220D01*
X005122Y004162D01*
X005060Y004012D01*
X005060Y004000D01*
X003010Y006050D01*
X003010Y006988D01*
X002966Y007094D01*
X002467Y007593D01*
X002467Y007779D01*
X002392Y007962D01*
X002280Y008074D01*
X002392Y008186D01*
X002467Y008368D01*
X002467Y008566D01*
X002392Y008749D01*
X002280Y008861D01*
X002392Y008973D01*
X002467Y009156D01*
X002467Y009354D01*
X002392Y009537D01*
X002252Y009677D01*
X002226Y009687D01*
X002255Y009709D01*
X002304Y009757D01*
X002344Y009813D01*
X002375Y009874D01*
X002397Y009940D01*
X002407Y010008D01*
X002407Y010042D01*
X001970Y010042D01*
X001533Y010042D01*
X001533Y010008D01*
X001543Y009940D01*
X001565Y009874D01*
X001596Y009813D01*
X001636Y009757D01*
X001685Y009709D01*
X001714Y009687D01*
X001688Y009677D01*
X001548Y009537D01*
X001473Y009354D01*
X001473Y009156D01*
X001548Y008973D01*
X001660Y008861D01*
X001548Y008749D01*
X001473Y008566D01*
X001473Y008368D01*
X001548Y008186D01*
X001660Y008074D01*
X001548Y007962D01*
X001473Y007779D01*
X001473Y007581D01*
X001548Y007398D01*
X001660Y007286D01*
X001548Y007174D01*
X001473Y006992D01*
X001473Y006794D01*
X001548Y006611D01*
X001660Y006499D01*
X001548Y006387D01*
X001473Y006204D01*
X001473Y006006D01*
X001548Y005823D01*
X001660Y005711D01*
X001548Y005600D01*
X001473Y005417D01*
X001473Y005219D01*
X001548Y005036D01*
X001660Y004924D01*
X001548Y004812D01*
X001473Y004629D01*
X001473Y004431D01*
X001548Y004249D01*
X001688Y004109D01*
X001871Y004033D01*
X002069Y004033D01*
X002252Y004109D01*
X002392Y004249D01*
X002467Y004431D01*
X002467Y004629D01*
X002392Y004812D01*
X002280Y004924D01*
X002392Y005036D01*
X002467Y005219D01*
X002467Y005417D01*
X002392Y005600D01*
X002280Y005711D01*
X002392Y005823D01*
X002430Y005916D01*
X002430Y005872D01*
X002474Y005766D01*
X002556Y005684D01*
X004127Y004113D01*
X003839Y004190D01*
X003381Y004190D01*
X002938Y004071D01*
X002542Y003842D01*
X002218Y003518D01*
X001989Y003122D01*
X001870Y002679D01*
X001870Y002221D01*
X001989Y001778D01*
X002218Y001382D01*
X002542Y001058D01*
X002938Y000829D01*
X002689Y000973D02*
X000460Y000973D01*
X000460Y001131D02*
X002468Y001131D01*
X002310Y001290D02*
X000460Y001290D01*
X000460Y001448D02*
X002179Y001448D01*
X002088Y001607D02*
X000460Y001607D01*
X000460Y001765D02*
X001996Y001765D01*
X001950Y001924D02*
X000460Y001924D01*
X000460Y002082D02*
X001907Y002082D01*
X001870Y002241D02*
X000460Y002241D01*
X000460Y002399D02*
X001870Y002399D01*
X001870Y002558D02*
X000460Y002558D01*
X000460Y002716D02*
X001880Y002716D01*
X001922Y002875D02*
X000460Y002875D01*
X000460Y003033D02*
X001965Y003033D01*
X002029Y003192D02*
X000460Y003192D01*
X000460Y003350D02*
X002120Y003350D01*
X002212Y003509D02*
X000460Y003509D01*
X000460Y003667D02*
X002366Y003667D01*
X002525Y003826D02*
X000460Y003826D01*
X000460Y003984D02*
X002787Y003984D01*
X003204Y004143D02*
X002286Y004143D01*
X002413Y004301D02*
X003939Y004301D01*
X004016Y004143D02*
X004097Y004143D01*
X003780Y004460D02*
X002467Y004460D01*
X002467Y004618D02*
X003622Y004618D01*
X003463Y004777D02*
X002407Y004777D01*
X002291Y004935D02*
X003305Y004935D01*
X003146Y005094D02*
X002416Y005094D01*
X002467Y005252D02*
X002988Y005252D01*
X002829Y005411D02*
X002467Y005411D01*
X002404Y005569D02*
X002671Y005569D01*
X002512Y005728D02*
X002296Y005728D01*
X002418Y005886D02*
X002430Y005886D01*
X003016Y006045D02*
X005180Y006045D01*
X005180Y006203D02*
X003010Y006203D01*
X003010Y006362D02*
X005180Y006362D01*
X005180Y006520D02*
X003010Y006520D01*
X003010Y006679D02*
X005180Y006679D01*
X005180Y006837D02*
X003010Y006837D01*
X003007Y006996D02*
X005180Y006996D01*
X005180Y007154D02*
X002906Y007154D01*
X002748Y007313D02*
X005180Y007313D01*
X005180Y007471D02*
X002589Y007471D01*
X002467Y007630D02*
X005259Y007630D01*
X005418Y007788D02*
X002464Y007788D01*
X002398Y007947D02*
X005560Y007947D01*
X005599Y008105D02*
X002311Y008105D01*
X002424Y008264D02*
X005724Y008264D01*
X006216Y008264D02*
X010360Y008264D01*
X010360Y008105D02*
X006341Y008105D01*
X006380Y007947D02*
X010360Y007947D01*
X010360Y007788D02*
X006355Y007788D01*
X006249Y007630D02*
X010360Y007630D01*
X010360Y007471D02*
X005921Y007471D01*
X005763Y007313D02*
X010360Y007313D01*
X010360Y007154D02*
X005760Y007154D01*
X005760Y006996D02*
X009690Y006996D01*
X009481Y006837D02*
X005760Y006837D01*
X005760Y006679D02*
X009382Y006679D01*
X009328Y006520D02*
X005760Y006520D01*
X005760Y006362D02*
X009328Y006362D01*
X009367Y006203D02*
X005760Y006203D01*
X005760Y006045D02*
X009444Y006045D01*
X009602Y005886D02*
X005760Y005886D01*
X005760Y005728D02*
X008188Y005728D01*
X008084Y005569D02*
X005760Y005569D01*
X005760Y005411D02*
X008060Y005411D01*
X008100Y005252D02*
X005760Y005252D01*
X005760Y005094D02*
X008227Y005094D01*
X008713Y005094D02*
X009646Y005094D01*
X009805Y004935D02*
X005760Y004935D01*
X005760Y004777D02*
X009963Y004777D01*
X010122Y004618D02*
X005760Y004618D01*
X005760Y004460D02*
X010280Y004460D01*
X010467Y005094D02*
X015297Y005094D01*
X015139Y005252D02*
X010308Y005252D01*
X010150Y005411D02*
X010980Y005411D01*
X010822Y005569D02*
X009991Y005569D01*
X010322Y005886D02*
X010505Y005886D01*
X010663Y005728D02*
X008752Y005728D01*
X010234Y006996D02*
X010360Y006996D01*
X011080Y006996D02*
X012456Y006996D01*
X012341Y006837D02*
X011080Y006837D01*
X011080Y006679D02*
X012310Y006679D01*
X012342Y006520D02*
X011080Y006520D01*
X011080Y006362D02*
X012459Y006362D01*
X012981Y006362D02*
X016930Y006362D01*
X016930Y006203D02*
X011206Y006203D01*
X011365Y006045D02*
X016962Y006045D01*
X017104Y005886D02*
X015523Y005886D01*
X015682Y005728D02*
X017262Y005728D01*
X017421Y005569D02*
X015840Y005569D01*
X015999Y005411D02*
X017579Y005411D01*
X017730Y005252D02*
X016157Y005252D01*
X016292Y005094D02*
X017730Y005094D01*
X017791Y004935D02*
X016330Y004935D01*
X016262Y004143D02*
X017975Y004143D01*
X017975Y003984D02*
X015833Y003984D01*
X015686Y003826D02*
X017975Y003826D01*
X017975Y003667D02*
X005787Y003667D01*
X005870Y003826D02*
X013832Y003826D01*
X013739Y003984D02*
X005880Y003984D01*
X005826Y004143D02*
X013739Y004143D01*
X013739Y004301D02*
X005760Y004301D01*
X005180Y004301D02*
X004759Y004301D01*
X004601Y004460D02*
X005180Y004460D01*
X005180Y004618D02*
X004442Y004618D01*
X004284Y004777D02*
X005180Y004777D01*
X005180Y004935D02*
X004125Y004935D01*
X003967Y005094D02*
X005180Y005094D01*
X005180Y005252D02*
X003808Y005252D01*
X003650Y005411D02*
X005180Y005411D01*
X005180Y005569D02*
X003491Y005569D01*
X003333Y005728D02*
X005180Y005728D01*
X005180Y005886D02*
X003174Y005886D01*
X001644Y005728D02*
X000460Y005728D01*
X000460Y005886D02*
X001522Y005886D01*
X001473Y006045D02*
X000460Y006045D01*
X000460Y006203D02*
X001473Y006203D01*
X001538Y006362D02*
X000460Y006362D01*
X000460Y006520D02*
X001639Y006520D01*
X001520Y006679D02*
X000460Y006679D01*
X000460Y006837D02*
X001473Y006837D01*
X001474Y006996D02*
X000460Y006996D01*
X000460Y007154D02*
X001540Y007154D01*
X001634Y007313D02*
X000460Y007313D01*
X000460Y007471D02*
X001518Y007471D01*
X001473Y007630D02*
X000460Y007630D01*
X000460Y007788D02*
X001476Y007788D01*
X001542Y007947D02*
X000460Y007947D01*
X000460Y008105D02*
X001629Y008105D01*
X001516Y008264D02*
X000460Y008264D01*
X000460Y008422D02*
X001473Y008422D01*
X001478Y008581D02*
X000460Y008581D01*
X000460Y008739D02*
X001544Y008739D01*
X001624Y008898D02*
X000460Y008898D01*
X000460Y009056D02*
X001514Y009056D01*
X001473Y009215D02*
X000460Y009215D01*
X000460Y009373D02*
X001480Y009373D01*
X001546Y009532D02*
X000460Y009532D01*
X000460Y009690D02*
X001710Y009690D01*
X001578Y009849D02*
X000460Y009849D01*
X000460Y010007D02*
X001533Y010007D01*
X001533Y010042D02*
X001970Y010042D01*
X001970Y010042D01*
X001970Y010042D01*
X002407Y010042D01*
X002407Y010077D01*
X002397Y010145D01*
X002375Y010210D01*
X002344Y010271D01*
X002304Y010327D01*
X002292Y010339D01*
X002363Y010369D01*
X002431Y010436D01*
X002467Y010524D01*
X002467Y011135D01*
X002431Y011223D01*
X002363Y011291D01*
X002275Y011327D01*
X001665Y011327D01*
X001577Y011291D01*
X001509Y011223D01*
X001473Y011135D01*
X001473Y010524D01*
X001509Y010436D01*
X001577Y010369D01*
X001648Y010339D01*
X001636Y010327D01*
X001596Y010271D01*
X001565Y010210D01*
X001543Y010145D01*
X001533Y010077D01*
X001533Y010042D01*
X001550Y010166D02*
X000460Y010166D01*
X000460Y010324D02*
X001634Y010324D01*
X001490Y010483D02*
X000460Y010483D01*
X000460Y010641D02*
X001473Y010641D01*
X001473Y010800D02*
X000460Y010800D01*
X000460Y010958D02*
X001473Y010958D01*
X001473Y011117D02*
X000460Y011117D01*
X000460Y011275D02*
X001561Y011275D01*
X002379Y011275D02*
X003485Y011275D01*
X003488Y011278D02*
X003372Y011162D01*
X003310Y011012D01*
X003310Y010848D01*
X003360Y010728D01*
X003360Y010079D01*
X002915Y009634D01*
X002860Y009502D01*
X002860Y008882D01*
X002810Y008762D01*
X002810Y008598D01*
X002872Y008448D01*
X002988Y008332D01*
X003138Y008270D01*
X003302Y008270D01*
X003452Y008332D01*
X003568Y008448D01*
X003630Y008598D01*
X003630Y008762D01*
X003580Y008882D01*
X003580Y009281D01*
X003924Y009625D01*
X004025Y009726D01*
X004080Y009858D01*
X004080Y010728D01*
X004130Y010848D01*
X004130Y011012D01*
X004068Y011162D01*
X003952Y011278D01*
X003802Y011340D01*
X003638Y011340D01*
X003488Y011278D01*
X003353Y011117D02*
X002467Y011117D01*
X002467Y010958D02*
X003310Y010958D01*
X003330Y010800D02*
X002467Y010800D01*
X002467Y010641D02*
X003360Y010641D01*
X003360Y010483D02*
X002450Y010483D01*
X002306Y010324D02*
X003360Y010324D01*
X003360Y010166D02*
X002390Y010166D01*
X002407Y010007D02*
X003288Y010007D01*
X003129Y009849D02*
X002362Y009849D01*
X002230Y009690D02*
X002971Y009690D01*
X002872Y009532D02*
X002394Y009532D01*
X002460Y009373D02*
X002860Y009373D01*
X002860Y009215D02*
X002467Y009215D01*
X002426Y009056D02*
X002860Y009056D01*
X002860Y008898D02*
X002316Y008898D01*
X002396Y008739D02*
X002810Y008739D01*
X002817Y008581D02*
X002462Y008581D01*
X002467Y008422D02*
X002898Y008422D01*
X003542Y008422D02*
X010219Y008422D01*
X010060Y008581D02*
X003623Y008581D01*
X003630Y008739D02*
X009902Y008739D01*
X009743Y008898D02*
X003580Y008898D01*
X003580Y009056D02*
X009585Y009056D01*
X009426Y009215D02*
X003580Y009215D01*
X003672Y009373D02*
X009268Y009373D01*
X009109Y009532D02*
X003831Y009532D01*
X003989Y009690D02*
X008951Y009690D01*
X008792Y009849D02*
X004076Y009849D01*
X004080Y010007D02*
X008634Y010007D01*
X008475Y010166D02*
X004080Y010166D01*
X004080Y010324D02*
X005639Y010324D01*
X005408Y010483D02*
X004080Y010483D01*
X004080Y010641D02*
X004679Y010641D01*
X004580Y010800D02*
X004110Y010800D01*
X004130Y010958D02*
X004560Y010958D01*
X004603Y011117D02*
X004087Y011117D01*
X003955Y011275D02*
X004735Y011275D01*
X005705Y011275D02*
X005916Y011275D01*
X005837Y011117D02*
X006030Y011117D01*
X005825Y011434D02*
X000460Y011434D01*
X000460Y011592D02*
X005777Y011592D01*
X005734Y011751D02*
X000460Y011751D01*
X000460Y011909D02*
X005730Y011909D01*
X005730Y012068D02*
X000460Y012068D01*
X000460Y012226D02*
X005766Y012226D01*
X005808Y012385D02*
X001754Y012385D01*
X001760Y012390D02*
X002528Y012390D01*
X002634Y012434D01*
X002716Y012516D01*
X004840Y014640D01*
X007850Y014640D01*
X009232Y013257D01*
X009053Y013257D01*
X008630Y013680D01*
X008630Y013762D01*
X008568Y013912D01*
X008452Y014028D01*
X008302Y014090D01*
X008138Y014090D01*
X008124Y014084D01*
X008130Y014098D01*
X008130Y014262D01*
X008068Y014412D01*
X007952Y014528D01*
X007802Y014590D01*
X007638Y014590D01*
X007488Y014528D01*
X007372Y014412D01*
X007310Y014262D01*
X007310Y014098D01*
X007372Y013948D01*
X007430Y013890D01*
X007430Y013372D01*
X007474Y013266D01*
X009512Y011228D01*
X009593Y011147D01*
X009700Y011103D01*
X013471Y011103D01*
X013505Y011020D01*
X013572Y010953D01*
X013660Y010916D01*
X014780Y010916D01*
X014868Y010953D01*
X014935Y011020D01*
X014972Y011109D01*
X014972Y011677D01*
X014935Y011765D01*
X014871Y011829D01*
X014876Y011833D01*
X014900Y011874D01*
X014912Y011920D01*
X014912Y012142D01*
X014258Y012142D01*
X014258Y012218D01*
X014912Y012218D01*
X014912Y012440D01*
X014900Y012486D01*
X014876Y012527D01*
X014871Y012531D01*
X014935Y012595D01*
X014972Y012683D01*
X014972Y013251D01*
X014935Y013340D01*
X014868Y013407D01*
X014780Y013444D01*
X013660Y013444D01*
X013572Y013407D01*
X013505Y013340D01*
X013471Y013257D01*
X011342Y013257D01*
X011380Y013348D01*
X011380Y013512D01*
X011318Y013662D01*
X011300Y013680D01*
X011318Y013698D01*
X011380Y013848D01*
X011380Y014012D01*
X011318Y014162D01*
X011202Y014278D01*
X011052Y014340D01*
X010888Y014340D01*
X010738Y014278D01*
X010680Y014220D01*
X010662Y014220D01*
X010630Y014207D01*
X010630Y014262D01*
X010568Y014412D01*
X010550Y014430D01*
X010568Y014448D01*
X010630Y014598D01*
X010630Y014762D01*
X011578Y014762D01*
X011578Y014604D02*
X010630Y014604D01*
X010630Y014762D02*
X010568Y014912D01*
X010550Y014930D01*
X010568Y014948D01*
X010630Y015098D01*
X010630Y015262D01*
X010568Y015412D01*
X010460Y015520D01*
X010552Y015520D01*
X010702Y015582D01*
X010760Y015640D01*
X010948Y015640D01*
X010965Y015597D01*
X011033Y015530D01*
X011121Y015493D01*
X011650Y015493D01*
X011720Y015522D01*
X011790Y015493D01*
X012319Y015493D01*
X012407Y015530D01*
X012475Y015597D01*
X012480Y015610D01*
X015284Y015610D01*
X015401Y015659D01*
X015491Y015749D01*
X015763Y016020D01*
X015802Y016020D01*
X015952Y016082D01*
X016068Y016198D01*
X016130Y016348D01*
X016130Y016512D01*
X016068Y016662D01*
X015952Y016778D01*
X015802Y016840D01*
X015638Y016840D01*
X015488Y016778D01*
X015372Y016662D01*
X015310Y016512D01*
X015310Y016473D01*
X015087Y016250D01*
X012480Y016250D01*
X012475Y016263D01*
X012432Y016305D01*
X012475Y016347D01*
X012511Y016435D01*
X012511Y016925D01*
X012475Y017013D01*
X012407Y017080D01*
X012319Y017117D01*
X011790Y017117D01*
X011720Y017088D01*
X011650Y017117D01*
X011121Y017117D01*
X011033Y017080D01*
X010965Y017013D01*
X010948Y016970D01*
X010760Y016970D01*
X010702Y017028D01*
X010552Y017090D01*
X010388Y017090D01*
X010238Y017028D01*
X010122Y016912D01*
X010060Y016762D01*
X010060Y016720D01*
X003162Y016720D01*
X003056Y016676D01*
X002350Y015970D01*
X001760Y015970D01*
X001702Y016028D01*
X001552Y016090D01*
X001388Y016090D01*
X001238Y016028D01*
X001122Y015912D01*
X001060Y015762D01*
X001060Y015598D01*
X001122Y015448D01*
X001140Y015430D01*
X001122Y015412D01*
X001060Y015262D01*
X001060Y015098D01*
X001122Y014948D01*
X001140Y014930D01*
X001122Y014912D01*
X001060Y014762D01*
X000460Y014762D01*
X000460Y014604D02*
X001060Y014604D01*
X001060Y014598D02*
X001122Y014448D01*
X001140Y014430D01*
X001122Y014412D01*
X001060Y014262D01*
X001060Y014098D01*
X001122Y013948D01*
X001140Y013930D01*
X001122Y013912D01*
X001060Y013762D01*
X001060Y013598D01*
X001122Y013448D01*
X001140Y013430D01*
X001122Y013412D01*
X001060Y013262D01*
X001060Y013098D01*
X001122Y012948D01*
X001140Y012930D01*
X001122Y012912D01*
X001060Y012762D01*
X001060Y012598D01*
X001122Y012448D01*
X001238Y012332D01*
X001388Y012270D01*
X001552Y012270D01*
X001702Y012332D01*
X001760Y012390D01*
X001186Y012385D02*
X000460Y012385D01*
X000460Y012543D02*
X001083Y012543D01*
X001060Y012702D02*
X000460Y012702D01*
X000460Y012860D02*
X001101Y012860D01*
X001093Y013019D02*
X000460Y013019D01*
X000460Y013177D02*
X001060Y013177D01*
X001091Y013336D02*
X000460Y013336D01*
X000460Y013494D02*
X001103Y013494D01*
X001060Y013653D02*
X000460Y013653D01*
X000460Y013811D02*
X001080Y013811D01*
X001113Y013970D02*
X000460Y013970D01*
X000460Y014128D02*
X001060Y014128D01*
X001070Y014287D02*
X000460Y014287D01*
X000460Y014445D02*
X001125Y014445D01*
X001060Y014598D02*
X001060Y014762D01*
X001131Y014921D02*
X000460Y014921D01*
X000460Y015079D02*
X001068Y015079D01*
X001060Y015238D02*
X000460Y015238D01*
X000460Y015396D02*
X001116Y015396D01*
X001078Y015555D02*
X000460Y015555D01*
X000460Y015713D02*
X001060Y015713D01*
X001106Y015872D02*
X000460Y015872D01*
X000460Y016030D02*
X001244Y016030D01*
X001696Y016030D02*
X002410Y016030D01*
X002568Y016189D02*
X000460Y016189D01*
X000460Y016347D02*
X002727Y016347D01*
X002885Y016506D02*
X000460Y016506D01*
X000460Y016664D02*
X003044Y016664D01*
X003120Y018408D02*
X001650Y018408D01*
X001650Y018566D02*
X002924Y018566D01*
X002765Y018725D02*
X001050Y018725D01*
X001050Y018760D02*
X001650Y018760D01*
X001650Y019204D01*
X001638Y019249D01*
X001614Y019291D01*
X001581Y019324D01*
X001539Y019348D01*
X001494Y019360D01*
X001050Y019360D01*
X001050Y018760D01*
X001050Y018883D02*
X000890Y018883D01*
X000890Y019042D02*
X001050Y019042D01*
X001050Y019200D02*
X000890Y019200D01*
X000890Y019359D02*
X001050Y019359D01*
X001499Y019359D02*
X002131Y019359D01*
X001973Y019517D02*
X000460Y019517D01*
X000460Y019676D02*
X001814Y019676D01*
X001656Y019834D02*
X000460Y019834D01*
X000460Y019993D02*
X001497Y019993D01*
X001339Y020151D02*
X000460Y020151D01*
X000460Y020310D02*
X001180Y020310D01*
X001022Y020468D02*
X000460Y020468D01*
X000460Y020627D02*
X000863Y020627D01*
X000716Y020785D02*
X000460Y020785D01*
X000460Y020944D02*
X000680Y020944D01*
X000680Y021102D02*
X000460Y021102D01*
X000460Y021261D02*
X000680Y021261D01*
X000680Y021419D02*
X000460Y021419D01*
X000460Y021578D02*
X000680Y021578D01*
X000655Y021736D02*
X000460Y021736D01*
X000460Y021895D02*
X000496Y021895D01*
X000460Y022429D02*
X000460Y023931D01*
X000748Y023643D01*
X000759Y023643D01*
X000493Y023378D01*
X000493Y023198D01*
X000952Y023198D01*
X000952Y023162D01*
X000493Y023162D01*
X000493Y022982D01*
X000759Y022717D01*
X000748Y022717D01*
X000460Y022429D01*
X000460Y022529D02*
X000559Y022529D01*
X000460Y022687D02*
X000718Y022687D01*
X000630Y022846D02*
X000460Y022846D01*
X000460Y023004D02*
X000493Y023004D01*
X000460Y023163D02*
X000952Y023163D01*
X000988Y023163D02*
X001615Y023163D01*
X001539Y023321D02*
X001447Y023321D01*
X001530Y023480D02*
X001345Y023480D01*
X001186Y023638D02*
X001580Y023638D01*
X001516Y023797D02*
X001346Y023797D01*
X000754Y023638D02*
X000460Y023638D01*
X000460Y023480D02*
X000595Y023480D01*
X000493Y023321D02*
X000460Y023321D01*
X000460Y023797D02*
X000594Y023797D01*
X001320Y024589D02*
X001554Y024589D01*
X001470Y024748D02*
X010493Y024748D01*
X010493Y024698D02*
X010952Y024698D01*
X010952Y024662D01*
X010493Y024662D01*
X010493Y024359D01*
X010505Y024314D01*
X010529Y024273D01*
X010563Y024239D01*
X010604Y024215D01*
X010649Y024203D01*
X010734Y024203D01*
X010433Y023902D01*
X010433Y023458D01*
X010711Y023180D01*
X010433Y022902D01*
X010433Y022458D01*
X010601Y022290D01*
X009580Y022290D01*
X009580Y023499D01*
X009719Y023557D01*
X009843Y023681D01*
X009910Y023842D01*
X009910Y024018D01*
X009843Y024179D01*
X009719Y024303D01*
X009558Y024370D01*
X009382Y024370D01*
X009221Y024303D01*
X009220Y024302D01*
X009219Y024303D01*
X009058Y024370D01*
X008882Y024370D01*
X008721Y024303D01*
X008597Y024179D01*
X008530Y024018D01*
X008530Y023842D01*
X008597Y023681D01*
X008721Y023557D01*
X008860Y023499D01*
X008860Y020829D01*
X008665Y020634D01*
X008610Y020502D01*
X008610Y020382D01*
X008560Y020262D01*
X008560Y020098D01*
X008610Y019978D01*
X008610Y019829D01*
X008321Y019540D01*
X007922Y019540D01*
X007802Y019590D01*
X007638Y019590D01*
X007488Y019528D01*
X007460Y019500D01*
X007460Y023728D01*
X007423Y023816D01*
X007356Y023883D01*
X007268Y023920D01*
X006922Y023920D01*
X006834Y023883D01*
X006767Y023816D01*
X006730Y023728D01*
X006730Y019042D01*
X006719Y019053D01*
X006558Y019120D01*
X006382Y019120D01*
X006221Y019053D01*
X006097Y018929D01*
X006030Y018768D01*
X006030Y018592D01*
X006097Y018431D01*
X006221Y018307D01*
X006382Y018240D01*
X006558Y018240D01*
X006719Y018307D01*
X006802Y018390D01*
X010888Y018390D01*
X010971Y018307D01*
X011132Y018240D01*
X011308Y018240D01*
X011469Y018307D01*
X011593Y018431D01*
X011660Y018592D01*
X011660Y018768D01*
X011593Y018929D01*
X011469Y019053D01*
X011308Y019120D01*
X011132Y019120D01*
X010971Y019053D01*
X010888Y018970D01*
X008769Y018970D01*
X009174Y019375D01*
X009275Y019476D01*
X009330Y019608D01*
X009330Y019978D01*
X009380Y020098D01*
X009380Y020187D01*
X009425Y020079D01*
X009603Y019901D01*
X009836Y019804D01*
X010088Y019804D01*
X010321Y019901D01*
X010499Y020079D01*
X010596Y020312D01*
X010596Y020564D01*
X010499Y020797D01*
X010321Y020975D01*
X010088Y021072D01*
X009836Y021072D01*
X009603Y020975D01*
X009580Y020952D01*
X009580Y021570D01*
X010821Y021570D01*
X012665Y019726D01*
X012766Y019625D01*
X012898Y019570D01*
X015042Y019570D01*
X015174Y019625D01*
X016034Y020485D01*
X016327Y020485D01*
X016387Y020425D01*
X016475Y020389D01*
X016965Y020389D01*
X017053Y020425D01*
X017095Y020468D01*
X017137Y020425D01*
X017225Y020389D01*
X017650Y020389D01*
X017650Y018940D01*
X017622Y018912D01*
X017560Y018762D01*
X017560Y018598D01*
X017622Y018448D01*
X017738Y018332D01*
X017888Y018270D01*
X018052Y018270D01*
X018202Y018332D01*
X018318Y018448D01*
X018380Y018598D01*
X018380Y018762D01*
X018318Y018912D01*
X018290Y018940D01*
X018290Y020389D01*
X018715Y020389D01*
X018803Y020425D01*
X018845Y020468D01*
X018887Y020425D01*
X018975Y020389D01*
X019033Y020389D01*
X019033Y019790D01*
X019069Y019703D01*
X018875Y019703D01*
X018830Y019690D01*
X018789Y019667D01*
X018755Y019633D01*
X018731Y019592D01*
X018719Y019546D01*
X018719Y019265D01*
X019078Y019265D01*
X019078Y019229D01*
X019078Y019228D02*
X019114Y019228D01*
X019114Y018791D01*
X019317Y018791D01*
X019362Y018804D01*
X019403Y018827D01*
X019434Y018858D01*
X019444Y018835D01*
X019511Y018768D01*
X019599Y018731D01*
X020089Y018731D01*
X020177Y018768D01*
X020244Y018835D01*
X020281Y018924D01*
X020281Y019520D01*
X020283Y019520D01*
X020283Y019000D01*
X020320Y018912D01*
X020354Y018877D01*
X020343Y018836D01*
X020343Y018614D01*
X020702Y018614D01*
X020702Y018577D01*
X020738Y018577D01*
X020738Y018199D01*
X020941Y018199D01*
X020986Y018211D01*
X021027Y018235D01*
X021061Y018268D01*
X021085Y018309D01*
X021097Y018355D01*
X021097Y018577D01*
X020738Y018577D01*
X020738Y018614D01*
X021097Y018614D01*
X021097Y018836D01*
X021086Y018877D01*
X021120Y018912D01*
X021157Y019000D01*
X021157Y019529D01*
X021120Y019617D01*
X021057Y019680D01*
X021120Y019743D01*
X021157Y019831D01*
X021157Y020360D01*
X021128Y020430D01*
X021151Y020485D01*
X021156Y020485D01*
X021766Y019875D01*
X021898Y019820D01*
X022518Y019820D01*
X022638Y019770D01*
X022802Y019770D01*
X022952Y019832D01*
X023068Y019948D01*
X023130Y020098D01*
X023130Y020262D01*
X023068Y020412D01*
X022952Y020528D01*
X022802Y020590D01*
X022638Y020590D01*
X022518Y020540D01*
X022119Y020540D01*
X021509Y021151D01*
X021376Y021205D01*
X021003Y021205D01*
X020965Y021221D01*
X020475Y021221D01*
X020437Y021205D01*
X019638Y021205D01*
X019657Y021250D01*
X019657Y021779D01*
X019620Y021867D01*
X019553Y021935D01*
X019510Y021952D01*
X019510Y021988D01*
X019466Y022094D01*
X019384Y022176D01*
X019317Y022243D01*
X019650Y022243D01*
X019720Y022272D01*
X019790Y022243D01*
X020319Y022243D01*
X020407Y022280D01*
X020430Y022303D01*
X020430Y022220D01*
X020372Y022162D01*
X020310Y022012D01*
X020310Y021848D01*
X020372Y021698D01*
X020488Y021582D01*
X020638Y021520D01*
X020802Y021520D01*
X020952Y021582D01*
X020966Y021596D01*
X021033Y021530D01*
X021121Y021493D01*
X021650Y021493D01*
X021738Y021530D01*
X021773Y021564D01*
X021814Y021553D01*
X022036Y021553D01*
X022036Y021912D01*
X022073Y021912D01*
X022073Y021948D01*
X022451Y021948D01*
X022451Y022151D01*
X022439Y022196D01*
X022415Y022237D01*
X022382Y022271D01*
X022341Y022295D01*
X022295Y022307D01*
X022073Y022307D01*
X022073Y021948D01*
X022036Y021948D01*
X022036Y022307D01*
X021814Y022307D01*
X021773Y022296D01*
X021738Y022330D01*
X021650Y022367D01*
X021121Y022367D01*
X021033Y022330D01*
X021010Y022307D01*
X021010Y022488D01*
X020966Y022594D01*
X020716Y022844D01*
X020634Y022926D01*
X020528Y022970D01*
X020492Y022970D01*
X020475Y023013D01*
X020407Y023080D01*
X020319Y023117D01*
X019790Y023117D01*
X019720Y023088D01*
X019650Y023117D01*
X019121Y023117D01*
X019033Y023080D01*
X018965Y023013D01*
X018948Y022970D01*
X017340Y022970D01*
X016740Y023570D01*
X021571Y023570D01*
X022016Y023125D01*
X022148Y023070D01*
X022643Y023070D01*
X022763Y023020D01*
X022927Y023020D01*
X023033Y023064D01*
X023138Y023020D01*
X023302Y023020D01*
X023452Y023082D01*
X023568Y023198D01*
X023630Y023348D01*
X023630Y023512D01*
X023568Y023662D01*
X023452Y023778D01*
X023302Y023840D01*
X023138Y023840D01*
X023033Y023796D01*
X022927Y023840D01*
X022763Y023840D01*
X022643Y023790D01*
X022369Y023790D01*
X022025Y024134D01*
X021924Y024235D01*
X021792Y024290D01*
X012172Y024290D01*
X012052Y024340D01*
X011888Y024340D01*
X011768Y024290D01*
X011672Y024290D01*
X011552Y024340D01*
X011442Y024340D01*
X011447Y024359D01*
X011447Y024662D01*
X010988Y024662D01*
X010988Y024698D01*
X010952Y024698D01*
X010952Y025157D01*
X010649Y025157D01*
X010604Y025145D01*
X010563Y025121D01*
X010529Y025087D01*
X010505Y025046D01*
X010493Y025001D01*
X010493Y024698D01*
X010493Y024589D02*
X002886Y024589D01*
X003009Y024431D02*
X010493Y024431D01*
X010530Y024272D02*
X009750Y024272D01*
X009870Y024114D02*
X010644Y024114D01*
X010486Y023955D02*
X009910Y023955D01*
X009891Y023797D02*
X010433Y023797D01*
X010433Y023638D02*
X009800Y023638D01*
X009580Y023480D02*
X010433Y023480D01*
X010570Y023321D02*
X009580Y023321D01*
X009580Y023163D02*
X010693Y023163D01*
X010535Y023004D02*
X009580Y023004D01*
X009580Y022846D02*
X010433Y022846D01*
X010433Y022687D02*
X009580Y022687D01*
X009580Y022529D02*
X010433Y022529D01*
X010521Y022370D02*
X009580Y022370D01*
X008860Y022370D02*
X007460Y022370D01*
X007460Y022212D02*
X008860Y022212D01*
X008860Y022053D02*
X007460Y022053D01*
X007460Y021895D02*
X008860Y021895D01*
X008860Y021736D02*
X007460Y021736D01*
X007460Y021578D02*
X008860Y021578D01*
X008860Y021419D02*
X007460Y021419D01*
X007460Y021261D02*
X008860Y021261D01*
X008860Y021102D02*
X007460Y021102D01*
X007460Y020944D02*
X008860Y020944D01*
X008816Y020785D02*
X007460Y020785D01*
X007460Y020627D02*
X008662Y020627D01*
X008610Y020468D02*
X007460Y020468D01*
X007460Y020310D02*
X008580Y020310D01*
X008560Y020151D02*
X007460Y020151D01*
X007460Y019993D02*
X008604Y019993D01*
X008610Y019834D02*
X007460Y019834D01*
X007460Y019676D02*
X008456Y019676D01*
X008999Y019200D02*
X017650Y019200D01*
X017650Y019042D02*
X011481Y019042D01*
X011612Y018883D02*
X017610Y018883D01*
X017560Y018725D02*
X011660Y018725D01*
X011649Y018566D02*
X017573Y018566D01*
X017663Y018408D02*
X011570Y018408D01*
X011329Y018249D02*
X020398Y018249D01*
X020413Y018235D02*
X020454Y018211D01*
X020499Y018199D01*
X020702Y018199D01*
X020702Y018577D01*
X020343Y018577D01*
X020343Y018355D01*
X020355Y018309D01*
X020379Y018268D01*
X020413Y018235D01*
X020343Y018408D02*
X018277Y018408D01*
X018367Y018566D02*
X020343Y018566D01*
X020343Y018725D02*
X018380Y018725D01*
X018330Y018883D02*
X018742Y018883D01*
X018731Y018902D02*
X018755Y018861D01*
X018789Y018827D01*
X018830Y018804D01*
X018875Y018791D01*
X019078Y018791D01*
X019078Y019228D01*
X019078Y019229D02*
X018719Y019229D01*
X018719Y018948D01*
X018731Y018902D01*
X018719Y019042D02*
X018290Y019042D01*
X018290Y019200D02*
X018719Y019200D01*
X018719Y019359D02*
X018290Y019359D01*
X018290Y019517D02*
X018719Y019517D01*
X018804Y019676D02*
X018290Y019676D01*
X018290Y019834D02*
X019033Y019834D01*
X019033Y019993D02*
X018290Y019993D01*
X018290Y020151D02*
X019033Y020151D01*
X019033Y020310D02*
X018290Y020310D01*
X017970Y020845D02*
X017970Y018680D01*
X017650Y019359D02*
X009158Y019359D01*
X009174Y019375D02*
X009174Y019375D01*
X009292Y019517D02*
X017650Y019517D01*
X017650Y019676D02*
X015225Y019676D01*
X015383Y019834D02*
X017650Y019834D01*
X017650Y019993D02*
X015542Y019993D01*
X015700Y020151D02*
X017650Y020151D01*
X017650Y020310D02*
X015859Y020310D01*
X016017Y020468D02*
X016345Y020468D01*
X017306Y023004D02*
X018962Y023004D01*
X019349Y022212D02*
X020422Y022212D01*
X020327Y022053D02*
X019483Y022053D01*
X019593Y021895D02*
X020310Y021895D01*
X020357Y021736D02*
X019657Y021736D01*
X019657Y021578D02*
X020500Y021578D01*
X020940Y021578D02*
X020985Y021578D01*
X021557Y021102D02*
X026430Y021102D01*
X026430Y020944D02*
X024368Y020944D01*
X024337Y020975D02*
X024104Y021072D01*
X023852Y021072D01*
X023619Y020975D01*
X023441Y020797D01*
X023344Y020564D01*
X023344Y020312D01*
X023441Y020079D01*
X023619Y019901D01*
X023772Y019837D01*
X023542Y019837D01*
X023454Y019801D01*
X023387Y019733D01*
X023369Y019692D01*
X022873Y019692D01*
X022785Y019655D01*
X022717Y019588D01*
X022681Y019499D01*
X022681Y018860D01*
X022450Y018860D01*
X022380Y018930D01*
X022380Y019012D01*
X022318Y019162D01*
X022202Y019278D01*
X022052Y019340D01*
X021888Y019340D01*
X021738Y019278D01*
X021622Y019162D01*
X021560Y019012D01*
X021560Y018848D01*
X021622Y018698D01*
X021738Y018582D01*
X021888Y018520D01*
X021970Y018520D01*
X022084Y018405D01*
X022166Y018324D01*
X022193Y018313D01*
X019220Y015340D01*
X019138Y015340D01*
X018988Y015278D01*
X018872Y015162D01*
X018810Y015012D01*
X018810Y014848D01*
X018872Y014698D01*
X018988Y014582D01*
X019138Y014520D01*
X019302Y014520D01*
X019336Y014534D01*
X019372Y014448D01*
X019488Y014332D01*
X019638Y014270D01*
X019802Y014270D01*
X019952Y014332D01*
X020010Y014390D01*
X020528Y014390D01*
X020634Y014434D01*
X020716Y014516D01*
X021430Y015230D01*
X021430Y014220D01*
X021372Y014162D01*
X021310Y014012D01*
X021310Y013848D01*
X021372Y013698D01*
X021475Y013595D01*
X021220Y013340D01*
X021138Y013340D01*
X020988Y013278D01*
X020872Y013162D01*
X020810Y013012D01*
X020810Y012848D01*
X020872Y012698D01*
X020988Y012582D01*
X021138Y012520D01*
X021302Y012520D01*
X021452Y012582D01*
X021568Y012698D01*
X021630Y012848D01*
X021630Y012930D01*
X022466Y013766D01*
X022510Y013872D01*
X022510Y015060D01*
X022698Y015248D01*
X022716Y015248D01*
X022717Y015245D01*
X022785Y015177D01*
X022873Y015141D01*
X023425Y015141D01*
X023513Y015177D01*
X023581Y015245D01*
X023617Y015333D01*
X023617Y015743D01*
X023613Y015755D01*
X023617Y015766D01*
X023617Y016177D01*
X023613Y016188D01*
X023617Y016199D01*
X023617Y016610D01*
X023613Y016621D01*
X023617Y016632D01*
X023617Y017043D01*
X023613Y017054D01*
X023617Y017065D01*
X023617Y017476D01*
X023581Y017564D01*
X023557Y017587D01*
X023557Y017704D01*
X023557Y017820D01*
X023581Y017843D01*
X023617Y017931D01*
X023617Y018342D01*
X023613Y018353D01*
X023617Y018365D01*
X023617Y018944D01*
X024130Y018944D01*
X024218Y018980D01*
X024286Y019048D01*
X024322Y019136D01*
X024322Y019160D01*
X025331Y019160D01*
X025419Y019197D01*
X025486Y019265D01*
X025523Y019353D01*
X025523Y019606D01*
X025486Y019694D01*
X025419Y019761D01*
X025331Y019798D01*
X024290Y019798D01*
X024241Y019778D01*
X024218Y019801D01*
X024157Y019826D01*
X024337Y019901D01*
X024515Y020079D01*
X024612Y020312D01*
X024612Y020564D01*
X024515Y020797D01*
X024337Y020975D01*
X024520Y020785D02*
X026430Y020785D01*
X026430Y020627D02*
X024586Y020627D01*
X024612Y020468D02*
X026430Y020468D01*
X026430Y020310D02*
X024611Y020310D01*
X024545Y020151D02*
X026430Y020151D01*
X026430Y019993D02*
X024429Y019993D01*
X024176Y019834D02*
X026430Y019834D01*
X026430Y019676D02*
X025494Y019676D01*
X025523Y019517D02*
X026430Y019517D01*
X026430Y019359D02*
X025523Y019359D01*
X025422Y019200D02*
X026430Y019200D01*
X026430Y019042D02*
X025907Y019042D01*
X025908Y019040D02*
X025840Y019108D01*
X025752Y019144D01*
X024869Y019144D01*
X024781Y019108D01*
X024713Y019040D01*
X024677Y018952D01*
X024677Y015156D01*
X024713Y015068D01*
X024781Y015000D01*
X024869Y014964D01*
X025752Y014964D01*
X025840Y015000D01*
X025908Y015068D01*
X025944Y015156D01*
X025944Y018952D01*
X025908Y019040D01*
X025944Y018883D02*
X026430Y018883D01*
X026430Y018725D02*
X025944Y018725D01*
X025944Y018566D02*
X026430Y018566D01*
X026430Y018408D02*
X025944Y018408D01*
X025944Y018249D02*
X026430Y018249D01*
X026430Y018091D02*
X025944Y018091D01*
X025944Y017932D02*
X026430Y017932D01*
X026430Y017774D02*
X025944Y017774D01*
X025944Y017615D02*
X026430Y017615D01*
X026430Y017457D02*
X025944Y017457D01*
X025944Y017298D02*
X026430Y017298D01*
X026430Y017140D02*
X025944Y017140D01*
X025944Y016981D02*
X026430Y016981D01*
X026430Y016823D02*
X025944Y016823D01*
X025944Y016664D02*
X026430Y016664D01*
X026430Y016506D02*
X025944Y016506D01*
X025944Y016347D02*
X026430Y016347D01*
X026430Y016189D02*
X025944Y016189D01*
X025944Y016030D02*
X026430Y016030D01*
X026430Y015872D02*
X025944Y015872D01*
X025944Y015713D02*
X026430Y015713D01*
X026430Y015555D02*
X025944Y015555D01*
X025944Y015396D02*
X026276Y015396D01*
X026117Y015238D02*
X025944Y015238D01*
X025959Y015079D02*
X025912Y015079D01*
X025800Y014921D02*
X023490Y014921D01*
X023513Y014911D02*
X023425Y014948D01*
X022873Y014948D01*
X022785Y014911D01*
X022717Y014844D01*
X022681Y014755D01*
X022681Y013872D01*
X022717Y013784D01*
X022785Y013717D01*
X022873Y013680D01*
X023425Y013680D01*
X023513Y013717D01*
X023581Y013784D01*
X023617Y013872D01*
X023617Y014755D01*
X023581Y014844D01*
X023513Y014911D01*
X023615Y014762D02*
X025642Y014762D01*
X025483Y014604D02*
X023617Y014604D01*
X023617Y014445D02*
X025325Y014445D01*
X025166Y014287D02*
X023617Y014287D01*
X023617Y014128D02*
X025008Y014128D01*
X024849Y013970D02*
X023617Y013970D01*
X023592Y013811D02*
X024691Y013811D01*
X024532Y013653D02*
X022353Y013653D01*
X022485Y013811D02*
X022706Y013811D01*
X022681Y013970D02*
X022510Y013970D01*
X022510Y014128D02*
X022681Y014128D01*
X022681Y014287D02*
X022510Y014287D01*
X022510Y014445D02*
X022681Y014445D01*
X022681Y014604D02*
X022510Y014604D01*
X022510Y014762D02*
X022684Y014762D01*
X022808Y014921D02*
X022510Y014921D01*
X022529Y015079D02*
X024709Y015079D01*
X024677Y015238D02*
X023574Y015238D01*
X023617Y015396D02*
X024677Y015396D01*
X024677Y015555D02*
X023617Y015555D01*
X023617Y015713D02*
X024677Y015713D01*
X024677Y015872D02*
X023617Y015872D01*
X023617Y016030D02*
X024677Y016030D01*
X024677Y016189D02*
X023613Y016189D01*
X023617Y016347D02*
X024677Y016347D01*
X024677Y016506D02*
X023617Y016506D01*
X023617Y016664D02*
X024677Y016664D01*
X024677Y016823D02*
X023617Y016823D01*
X023617Y016981D02*
X024677Y016981D01*
X024677Y017140D02*
X023617Y017140D01*
X023617Y017298D02*
X024677Y017298D01*
X024677Y017457D02*
X023617Y017457D01*
X023557Y017615D02*
X024677Y017615D01*
X024677Y017774D02*
X023557Y017774D01*
X023557Y017704D02*
X023149Y017704D01*
X023149Y017739D01*
X023149Y017739D01*
X023149Y017704D01*
X023149Y017704D01*
X023149Y017704D01*
X022741Y017704D01*
X022741Y017820D01*
X022717Y017843D01*
X022716Y017847D01*
X022547Y017847D01*
X022261Y017561D01*
X022716Y017561D01*
X022717Y017564D01*
X022741Y017587D01*
X022741Y017704D01*
X023149Y017704D01*
X023149Y017704D01*
X023557Y017704D01*
X023617Y017932D02*
X024677Y017932D01*
X024677Y018091D02*
X023617Y018091D01*
X023617Y018249D02*
X024677Y018249D01*
X024677Y018408D02*
X023617Y018408D01*
X023617Y018566D02*
X024677Y018566D01*
X024677Y018725D02*
X023617Y018725D01*
X023617Y018883D02*
X024677Y018883D01*
X024715Y019042D02*
X024279Y019042D01*
X023534Y019834D02*
X022954Y019834D01*
X022834Y019676D02*
X021062Y019676D01*
X021157Y019834D02*
X021865Y019834D01*
X021648Y019993D02*
X021157Y019993D01*
X021157Y020151D02*
X021490Y020151D01*
X021331Y020310D02*
X021157Y020310D01*
X021143Y020468D02*
X021173Y020468D01*
X021716Y020944D02*
X023587Y020944D01*
X023436Y020785D02*
X021874Y020785D01*
X022033Y020627D02*
X023370Y020627D01*
X023344Y020468D02*
X023012Y020468D01*
X023110Y020310D02*
X023345Y020310D01*
X023411Y020151D02*
X023130Y020151D01*
X023086Y019993D02*
X023527Y019993D01*
X022688Y019517D02*
X021157Y019517D01*
X021157Y019359D02*
X022681Y019359D01*
X022681Y019200D02*
X022280Y019200D01*
X022368Y019042D02*
X022681Y019042D01*
X022681Y018883D02*
X022427Y018883D01*
X022082Y018408D02*
X021097Y018408D01*
X021097Y018566D02*
X021777Y018566D01*
X021611Y018725D02*
X021097Y018725D01*
X021091Y018883D02*
X021560Y018883D01*
X021572Y019042D02*
X021157Y019042D01*
X021157Y019200D02*
X021660Y019200D01*
X022084Y018405D02*
X022084Y018405D01*
X022129Y018249D02*
X021042Y018249D01*
X020738Y018249D02*
X020702Y018249D01*
X020702Y018408D02*
X020738Y018408D01*
X020738Y018566D02*
X020702Y018566D01*
X020349Y018883D02*
X020264Y018883D01*
X020281Y019042D02*
X020283Y019042D01*
X020281Y019200D02*
X020283Y019200D01*
X020281Y019359D02*
X020283Y019359D01*
X020281Y019517D02*
X020283Y019517D01*
X019114Y019200D02*
X019078Y019200D01*
X019078Y019042D02*
X019114Y019042D01*
X019114Y018883D02*
X019078Y018883D01*
X020861Y016981D02*
X012488Y016981D01*
X012511Y016823D02*
X015596Y016823D01*
X015844Y016823D02*
X020702Y016823D01*
X020544Y016664D02*
X016066Y016664D01*
X016130Y016506D02*
X020385Y016506D01*
X020227Y016347D02*
X016129Y016347D01*
X016058Y016189D02*
X020068Y016189D01*
X019910Y016030D02*
X015826Y016030D01*
X015614Y015872D02*
X019751Y015872D01*
X019593Y015713D02*
X015456Y015713D01*
X015220Y015930D02*
X012055Y015930D01*
X012055Y016680D01*
X012055Y016430D01*
X012474Y016347D02*
X015184Y016347D01*
X015310Y016506D02*
X012511Y016506D01*
X012511Y016664D02*
X015374Y016664D01*
X015720Y016430D02*
X015220Y015930D01*
X013358Y015240D02*
X013358Y014239D01*
X013321Y014150D01*
X013254Y014083D01*
X013165Y014046D01*
X011771Y014046D01*
X011682Y014083D01*
X011615Y014150D01*
X011578Y014239D01*
X011578Y015240D01*
X011615Y015328D01*
X011682Y015395D01*
X011771Y015432D01*
X013165Y015432D01*
X013254Y015395D01*
X013321Y015328D01*
X013358Y015240D01*
X013358Y015238D02*
X018948Y015238D01*
X018838Y015079D02*
X013358Y015079D01*
X013358Y014921D02*
X018810Y014921D01*
X018846Y014762D02*
X013358Y014762D01*
X013358Y014604D02*
X018967Y014604D01*
X019375Y014445D02*
X018285Y014445D01*
X018318Y014412D02*
X018202Y014528D01*
X018052Y014590D01*
X017888Y014590D01*
X017738Y014528D01*
X017622Y014412D01*
X017560Y014262D01*
X017560Y014098D01*
X017622Y013948D01*
X017640Y013930D01*
X017622Y013912D01*
X017560Y013762D01*
X017560Y013598D01*
X017622Y013448D01*
X017640Y013430D01*
X017622Y013412D01*
X017560Y013262D01*
X017560Y013098D01*
X017622Y012948D01*
X017640Y012930D01*
X017622Y012912D01*
X017560Y012762D01*
X017560Y012598D01*
X017574Y012564D01*
X017488Y012528D01*
X017372Y012412D01*
X017310Y012262D01*
X017310Y012098D01*
X017316Y012084D01*
X017302Y012090D01*
X017138Y012090D01*
X016988Y012028D01*
X016872Y011912D01*
X016810Y011762D01*
X016810Y011598D01*
X016872Y011448D01*
X016988Y011332D01*
X017138Y011270D01*
X017302Y011270D01*
X017452Y011332D01*
X017510Y011390D01*
X017850Y011390D01*
X021450Y007790D01*
X021119Y007790D01*
X019368Y009542D01*
X019318Y009662D01*
X019202Y009778D01*
X019052Y009840D01*
X018888Y009840D01*
X018738Y009778D01*
X018622Y009662D01*
X018560Y009512D01*
X018560Y009348D01*
X018622Y009198D01*
X018738Y009082D01*
X018858Y009032D01*
X020665Y007226D01*
X020766Y007125D01*
X020898Y007070D01*
X022518Y007070D01*
X022638Y007020D01*
X022802Y007020D01*
X022952Y007082D01*
X023068Y007198D01*
X023130Y007348D01*
X023130Y007512D01*
X023116Y007546D01*
X023202Y007582D01*
X023318Y007698D01*
X023380Y007848D01*
X023380Y008012D01*
X023327Y008140D01*
X023850Y008140D01*
X024430Y007560D01*
X024430Y006866D01*
X024337Y006959D01*
X024104Y007056D01*
X023852Y007056D01*
X023619Y006959D01*
X023441Y006781D01*
X023344Y006548D01*
X023344Y006296D01*
X023441Y006063D01*
X023619Y005885D01*
X023852Y005788D01*
X024104Y005788D01*
X024337Y005885D01*
X024515Y006063D01*
X024597Y006260D01*
X024622Y006198D01*
X024738Y006082D01*
X024888Y006020D01*
X025052Y006020D01*
X025202Y006082D01*
X025318Y006198D01*
X025380Y006348D01*
X025380Y006512D01*
X025366Y006546D01*
X025452Y006582D01*
X025568Y006698D01*
X025630Y006848D01*
X025630Y007012D01*
X025568Y007162D01*
X025510Y007220D01*
X025510Y007323D01*
X025638Y007270D01*
X025802Y007270D01*
X025952Y007332D01*
X026068Y007448D01*
X026130Y007598D01*
X026130Y007762D01*
X026068Y007912D01*
X025952Y008028D01*
X025802Y008090D01*
X025720Y008090D01*
X024716Y009094D01*
X024634Y009176D01*
X024528Y009220D01*
X023077Y009220D01*
X023130Y009348D01*
X023130Y009512D01*
X023068Y009662D01*
X022952Y009778D01*
X022802Y009840D01*
X022720Y009840D01*
X018380Y014180D01*
X018380Y014262D01*
X018318Y014412D01*
X018370Y014287D02*
X019599Y014287D01*
X019841Y014287D02*
X021430Y014287D01*
X021430Y014445D02*
X020645Y014445D01*
X020804Y014604D02*
X021430Y014604D01*
X021430Y014762D02*
X020962Y014762D01*
X021121Y014921D02*
X021430Y014921D01*
X021430Y015079D02*
X021279Y015079D01*
X021358Y014128D02*
X018432Y014128D01*
X018591Y013970D02*
X021310Y013970D01*
X021326Y013811D02*
X018749Y013811D01*
X018908Y013653D02*
X021418Y013653D01*
X021374Y013494D02*
X019066Y013494D01*
X019225Y013336D02*
X021128Y013336D01*
X020887Y013177D02*
X019383Y013177D01*
X019542Y013019D02*
X020813Y013019D01*
X020810Y012860D02*
X019700Y012860D01*
X019859Y012702D02*
X020871Y012702D01*
X021083Y012543D02*
X020017Y012543D01*
X020176Y012385D02*
X022310Y012385D01*
X022323Y012543D02*
X021357Y012543D01*
X021569Y012702D02*
X022412Y012702D01*
X022361Y012226D02*
X020334Y012226D01*
X020493Y012068D02*
X022333Y012068D01*
X022310Y011909D02*
X020651Y011909D01*
X020810Y011751D02*
X022351Y011751D01*
X022478Y011592D02*
X020968Y011592D01*
X021127Y011434D02*
X022887Y011434D01*
X023126Y011275D02*
X021285Y011275D01*
X021444Y011117D02*
X023310Y011117D01*
X023314Y011275D02*
X023316Y011275D01*
X023368Y010958D02*
X021602Y010958D01*
X021761Y010800D02*
X023567Y010800D01*
X023873Y010800D02*
X024190Y010800D01*
X024349Y010641D02*
X021919Y010641D01*
X022078Y010483D02*
X024507Y010483D01*
X024666Y010324D02*
X022236Y010324D01*
X022395Y010166D02*
X024824Y010166D01*
X024983Y010007D02*
X022553Y010007D01*
X022712Y009849D02*
X025141Y009849D01*
X025300Y009690D02*
X023040Y009690D01*
X023122Y009532D02*
X025338Y009532D01*
X025447Y009373D02*
X023130Y009373D01*
X023341Y008105D02*
X023885Y008105D01*
X024043Y007947D02*
X023380Y007947D01*
X023355Y007788D02*
X024202Y007788D01*
X024360Y007630D02*
X023249Y007630D01*
X023130Y007471D02*
X024430Y007471D01*
X024430Y007313D02*
X023115Y007313D01*
X023024Y007154D02*
X024430Y007154D01*
X024430Y006996D02*
X024250Y006996D01*
X023706Y006996D02*
X020315Y006996D01*
X020156Y007154D02*
X020737Y007154D01*
X020578Y007313D02*
X019998Y007313D01*
X019839Y007471D02*
X020420Y007471D01*
X020261Y007630D02*
X019681Y007630D01*
X019522Y007788D02*
X020103Y007788D01*
X019944Y007947D02*
X019364Y007947D01*
X019205Y008105D02*
X019786Y008105D01*
X019627Y008264D02*
X019047Y008264D01*
X018888Y008422D02*
X019469Y008422D01*
X019310Y008581D02*
X016721Y008581D01*
X016695Y008562D02*
X016750Y008602D01*
X016798Y008650D01*
X016838Y008705D01*
X016868Y008765D01*
X016889Y008829D01*
X016898Y008885D01*
X016515Y008885D01*
X016515Y008975D01*
X016425Y008975D01*
X016425Y009358D01*
X016369Y009349D01*
X016305Y009328D01*
X016245Y009298D01*
X016190Y009258D01*
X016142Y009210D01*
X016102Y009155D01*
X016072Y009095D01*
X016051Y009031D01*
X016042Y008975D01*
X016425Y008975D01*
X016425Y008885D01*
X016042Y008885D01*
X016051Y008829D01*
X016072Y008765D01*
X016102Y008705D01*
X016142Y008650D01*
X016190Y008602D01*
X016245Y008562D01*
X016305Y008532D01*
X016369Y008511D01*
X016425Y008502D01*
X016425Y008885D01*
X016515Y008885D01*
X016515Y008502D01*
X016571Y008511D01*
X016635Y008532D01*
X016695Y008562D01*
X016515Y008581D02*
X016425Y008581D01*
X016425Y008739D02*
X016515Y008739D01*
X016515Y008898D02*
X018993Y008898D01*
X019152Y008739D02*
X016855Y008739D01*
X016898Y008975D02*
X016515Y008975D01*
X016515Y009358D01*
X016571Y009349D01*
X016635Y009328D01*
X016695Y009298D01*
X016750Y009258D01*
X016798Y009210D01*
X016838Y009155D01*
X016868Y009095D01*
X016889Y009031D01*
X016898Y008975D01*
X016881Y009056D02*
X018802Y009056D01*
X018615Y009215D02*
X016794Y009215D01*
X016515Y009215D02*
X016425Y009215D01*
X016425Y009056D02*
X016515Y009056D01*
X016425Y008898D02*
X015710Y008898D01*
X015698Y009056D02*
X016059Y009056D01*
X016146Y009215D02*
X015628Y009215D01*
X015431Y009373D02*
X018560Y009373D01*
X018568Y009532D02*
X013358Y009532D01*
X013358Y009690D02*
X018650Y009690D01*
X019074Y010166D02*
X013339Y010166D01*
X013321Y010210D02*
X013358Y010121D01*
X013358Y009120D01*
X013321Y009032D01*
X013254Y008965D01*
X013165Y008928D01*
X011771Y008928D01*
X011682Y008965D01*
X011615Y009032D01*
X011578Y009120D01*
X011578Y010121D01*
X011615Y010210D01*
X011682Y010277D01*
X011771Y010314D01*
X013165Y010314D01*
X013254Y010277D01*
X013321Y010210D01*
X013358Y010007D02*
X019233Y010007D01*
X019391Y009849D02*
X013358Y009849D01*
X013358Y009373D02*
X015009Y009373D01*
X014812Y009215D02*
X013358Y009215D01*
X013331Y009056D02*
X014742Y009056D01*
X014730Y008898D02*
X010762Y008898D01*
X010603Y009056D02*
X011605Y009056D01*
X011578Y009215D02*
X010445Y009215D01*
X010286Y009373D02*
X011578Y009373D01*
X011578Y009532D02*
X010128Y009532D01*
X009969Y009690D02*
X011578Y009690D01*
X011578Y009849D02*
X009811Y009849D01*
X009652Y010007D02*
X011578Y010007D01*
X011597Y010166D02*
X009494Y010166D01*
X009335Y010324D02*
X018916Y010324D01*
X018757Y010483D02*
X009177Y010483D01*
X009018Y010641D02*
X018599Y010641D01*
X018440Y010800D02*
X008860Y010800D01*
X008701Y010958D02*
X013567Y010958D01*
X013471Y011683D02*
X009878Y011683D01*
X008883Y012677D01*
X013471Y012677D01*
X013505Y012595D01*
X013569Y012531D01*
X013564Y012527D01*
X013540Y012486D01*
X013528Y012440D01*
X013528Y012218D01*
X014182Y012218D01*
X014182Y012142D01*
X013528Y012142D01*
X013528Y011920D01*
X013540Y011874D01*
X013564Y011833D01*
X013569Y011829D01*
X013505Y011765D01*
X013471Y011683D01*
X013499Y011751D02*
X009810Y011751D01*
X009651Y011909D02*
X013531Y011909D01*
X013528Y012068D02*
X009493Y012068D01*
X009334Y012226D02*
X013528Y012226D01*
X013528Y012385D02*
X009176Y012385D01*
X009017Y012543D02*
X013557Y012543D01*
X013503Y013336D02*
X011375Y013336D01*
X011380Y013494D02*
X017603Y013494D01*
X017591Y013336D02*
X014937Y013336D01*
X014972Y013177D02*
X017560Y013177D01*
X017593Y013019D02*
X014972Y013019D01*
X014972Y012860D02*
X017601Y012860D01*
X017560Y012702D02*
X014972Y012702D01*
X014883Y012543D02*
X017525Y012543D01*
X017361Y012385D02*
X014912Y012385D01*
X014912Y012226D02*
X017310Y012226D01*
X017084Y012068D02*
X014912Y012068D01*
X014909Y011909D02*
X016871Y011909D01*
X016810Y011751D02*
X014941Y011751D01*
X014972Y011592D02*
X016813Y011592D01*
X016887Y011434D02*
X014972Y011434D01*
X014972Y011275D02*
X017126Y011275D01*
X017314Y011275D02*
X017965Y011275D01*
X018123Y011117D02*
X014972Y011117D01*
X014873Y010958D02*
X018282Y010958D01*
X019290Y009690D02*
X019550Y009690D01*
X019708Y009532D02*
X019378Y009532D01*
X019536Y009373D02*
X019867Y009373D01*
X020025Y009215D02*
X019695Y009215D01*
X019853Y009056D02*
X020184Y009056D01*
X020342Y008898D02*
X020012Y008898D01*
X020170Y008739D02*
X020501Y008739D01*
X020659Y008581D02*
X020329Y008581D01*
X020487Y008422D02*
X020818Y008422D01*
X020976Y008264D02*
X020646Y008264D01*
X020804Y008105D02*
X021135Y008105D01*
X021293Y007947D02*
X020963Y007947D01*
X020473Y006837D02*
X023497Y006837D01*
X023398Y006679D02*
X020632Y006679D01*
X020790Y006520D02*
X023344Y006520D01*
X023344Y006362D02*
X020949Y006362D01*
X021107Y006203D02*
X023383Y006203D01*
X023459Y006045D02*
X021266Y006045D01*
X021424Y005886D02*
X023618Y005886D01*
X023602Y005569D02*
X026713Y005569D01*
X026723Y005592D02*
X026659Y005438D01*
X026659Y005272D01*
X026723Y005119D01*
X026840Y005002D01*
X026937Y004961D01*
X026840Y004921D01*
X026723Y004804D01*
X026659Y004651D01*
X026659Y004485D01*
X026723Y004331D01*
X026840Y004214D01*
X026993Y004151D01*
X027159Y004151D01*
X027313Y004214D01*
X027430Y004331D01*
X027470Y004428D01*
X027510Y004331D01*
X027627Y004214D01*
X027781Y004151D01*
X027947Y004151D01*
X028100Y004214D01*
X028217Y004331D01*
X028281Y004485D01*
X028281Y004651D01*
X028217Y004804D01*
X028100Y004921D01*
X028003Y004961D01*
X028100Y005002D01*
X028217Y005119D01*
X028281Y005272D01*
X028281Y005438D01*
X028217Y005592D01*
X028100Y005709D01*
X028003Y005749D01*
X028100Y005789D01*
X028217Y005906D01*
X028281Y006060D01*
X028281Y006226D01*
X028217Y006379D01*
X028100Y006496D01*
X028003Y006536D01*
X028100Y006576D01*
X028217Y006694D01*
X028281Y006847D01*
X028281Y007013D01*
X028217Y007166D01*
X028100Y007284D01*
X028003Y007324D01*
X028100Y007364D01*
X028217Y007481D01*
X028281Y007634D01*
X028281Y007800D01*
X028217Y007954D01*
X028100Y008071D01*
X028003Y008111D01*
X028100Y008151D01*
X028217Y008268D01*
X028281Y008422D01*
X028980Y008422D01*
X028980Y008264D02*
X028212Y008264D01*
X028281Y008422D02*
X028281Y008588D01*
X028217Y008741D01*
X028100Y008858D01*
X028003Y008899D01*
X028100Y008939D01*
X028217Y009056D01*
X028281Y009209D01*
X028281Y009375D01*
X028217Y009529D01*
X028100Y009646D01*
X027947Y009709D01*
X027781Y009709D01*
X027627Y009646D01*
X027510Y009529D01*
X027470Y009432D01*
X027430Y009529D01*
X027313Y009646D01*
X027159Y009709D01*
X026993Y009709D01*
X026840Y009646D01*
X026723Y009529D01*
X026659Y009375D01*
X026659Y009209D01*
X026723Y009056D01*
X026840Y008939D01*
X026937Y008899D01*
X026840Y008858D01*
X026723Y008741D01*
X026659Y008588D01*
X026659Y008422D01*
X025388Y008422D01*
X025230Y008581D02*
X026659Y008581D01*
X026659Y008422D02*
X026723Y008268D01*
X026840Y008151D01*
X026937Y008111D01*
X026840Y008071D01*
X026723Y007954D01*
X026659Y007800D01*
X026659Y007634D01*
X026723Y007481D01*
X026840Y007364D01*
X026937Y007324D01*
X026840Y007284D01*
X026723Y007166D01*
X026659Y007013D01*
X026659Y006847D01*
X026723Y006694D01*
X026840Y006576D01*
X026937Y006536D01*
X026840Y006496D01*
X026723Y006379D01*
X026659Y006226D01*
X026659Y006060D01*
X026723Y005906D01*
X026840Y005789D01*
X026937Y005749D01*
X026840Y005709D01*
X026723Y005592D01*
X026659Y005411D02*
X023818Y005411D01*
X023880Y005252D02*
X026668Y005252D01*
X026748Y005094D02*
X023878Y005094D01*
X023805Y004935D02*
X026873Y004935D01*
X026711Y004777D02*
X023567Y004777D01*
X023373Y004777D02*
X020760Y004777D01*
X020760Y004935D02*
X021555Y004935D01*
X021396Y005094D02*
X020760Y005094D01*
X020760Y005252D02*
X021238Y005252D01*
X021079Y005411D02*
X020760Y005411D01*
X020726Y005569D02*
X020921Y005569D01*
X020762Y005728D02*
X020583Y005728D01*
X020604Y005886D02*
X020424Y005886D01*
X020445Y006045D02*
X020266Y006045D01*
X020287Y006203D02*
X020107Y006203D01*
X020128Y006362D02*
X019949Y006362D01*
X019970Y006520D02*
X019790Y006520D01*
X019811Y006679D02*
X019632Y006679D01*
X019653Y006837D02*
X019473Y006837D01*
X019494Y006996D02*
X019315Y006996D01*
X019336Y007154D02*
X019156Y007154D01*
X019177Y007313D02*
X018998Y007313D01*
X019019Y007471D02*
X018839Y007471D01*
X018860Y007630D02*
X018681Y007630D01*
X018702Y007788D02*
X018522Y007788D01*
X016810Y006679D02*
X013879Y006679D01*
X014037Y006837D02*
X016483Y006837D01*
X016353Y006996D02*
X014196Y006996D01*
X014354Y007154D02*
X015416Y007154D01*
X015036Y007313D02*
X014513Y007313D01*
X014671Y007471D02*
X014863Y007471D01*
X014101Y008264D02*
X011080Y008264D01*
X011080Y008422D02*
X014259Y008422D01*
X014418Y008581D02*
X011047Y008581D01*
X010920Y008739D02*
X014576Y008739D01*
X015220Y008930D02*
X013720Y007430D01*
X013220Y007430D01*
X012916Y007154D02*
X011080Y007154D01*
X011080Y007313D02*
X012825Y007313D01*
X012810Y007471D02*
X011080Y007471D01*
X011080Y007630D02*
X012859Y007630D01*
X013013Y007788D02*
X011080Y007788D01*
X011080Y007947D02*
X013784Y007947D01*
X013942Y008105D02*
X011080Y008105D01*
X012984Y006996D02*
X013375Y006996D01*
X013720Y006520D02*
X016842Y006520D01*
X016310Y007154D02*
X016024Y007154D01*
X016115Y007313D02*
X016331Y007313D01*
X016219Y008581D02*
X015563Y008581D01*
X015671Y008739D02*
X016085Y008739D01*
X013716Y006516D02*
X013716Y006516D01*
X013625Y007788D02*
X013427Y007788D01*
X014117Y004143D02*
X014154Y004143D01*
X014154Y003984D02*
X014117Y003984D01*
X014117Y003826D02*
X014154Y003826D01*
X013939Y003033D02*
X018021Y003033D01*
X017975Y003192D02*
X009119Y003192D01*
X008960Y003350D02*
X017975Y003350D01*
X017975Y003509D02*
X005552Y003509D01*
X005298Y002875D02*
X006161Y002875D01*
X006002Y002716D02*
X005340Y002716D01*
X005350Y002558D02*
X005900Y002558D01*
X005812Y002399D02*
X005350Y002399D01*
X005350Y002241D02*
X005769Y002241D01*
X005730Y002082D02*
X005313Y002082D01*
X005270Y001924D02*
X005730Y001924D01*
X005730Y001765D02*
X005224Y001765D01*
X005132Y001607D02*
X005773Y001607D01*
X005816Y001448D02*
X005041Y001448D01*
X004910Y001290D02*
X005908Y001290D01*
X006015Y001131D02*
X004752Y001131D01*
X004531Y000973D02*
X006174Y000973D01*
X006423Y000814D02*
X004227Y000814D01*
X004918Y004143D02*
X005114Y004143D01*
X007779Y002875D02*
X008615Y002875D01*
X008774Y002716D02*
X007938Y002716D01*
X008040Y002558D02*
X008932Y002558D01*
X009141Y002399D02*
X008128Y002399D01*
X008171Y002241D02*
X012810Y002241D01*
X012817Y002082D02*
X008210Y002082D01*
X008210Y001924D02*
X012897Y001924D01*
X013843Y001765D02*
X008210Y001765D01*
X008167Y001607D02*
X014202Y001607D01*
X014202Y001577D02*
X013843Y001577D01*
X013843Y001355D01*
X013855Y001309D01*
X013879Y001268D01*
X013913Y001235D01*
X013954Y001211D01*
X013999Y001199D01*
X014202Y001199D01*
X014202Y001577D01*
X014202Y001448D02*
X014238Y001448D01*
X014238Y001290D02*
X014202Y001290D01*
X013867Y001290D02*
X008032Y001290D01*
X008124Y001448D02*
X013843Y001448D01*
X014477Y002716D02*
X014713Y002716D01*
X015227Y002716D02*
X017093Y002716D01*
X017093Y002558D02*
X015880Y002558D01*
X016073Y002399D02*
X017093Y002399D01*
X017102Y002241D02*
X016130Y002241D01*
X016123Y002082D02*
X017033Y002082D01*
X017033Y001924D02*
X016056Y001924D01*
X016050Y001930D02*
X016068Y001912D01*
X016130Y001762D01*
X016130Y001598D01*
X016068Y001448D01*
X016130Y001607D02*
X016743Y001607D01*
X017033Y001765D02*
X016129Y001765D01*
X016520Y001131D02*
X007925Y001131D01*
X007766Y000973D02*
X016565Y000973D01*
X016679Y000814D02*
X007517Y000814D01*
X009277Y003033D02*
X013501Y003033D01*
X014083Y002875D02*
X017162Y002875D01*
X017452Y002875D02*
X017488Y002875D01*
X017488Y002911D02*
X017488Y002533D01*
X017847Y002533D01*
X017847Y002755D01*
X017835Y002801D01*
X017811Y002842D01*
X017777Y002875D01*
X017736Y002899D01*
X017691Y002911D01*
X017488Y002911D01*
X017488Y002716D02*
X017452Y002716D01*
X017452Y002558D02*
X017488Y002558D01*
X017847Y002558D02*
X018093Y002558D01*
X018093Y002716D02*
X017847Y002716D01*
X017778Y002875D02*
X018162Y002875D01*
X018452Y002875D02*
X018488Y002875D01*
X018488Y002911D02*
X018488Y002533D01*
X018847Y002533D01*
X018847Y002755D01*
X018835Y002801D01*
X018811Y002842D01*
X018777Y002875D01*
X018736Y002899D01*
X018691Y002911D01*
X018488Y002911D01*
X018488Y002716D02*
X018452Y002716D01*
X018452Y002558D02*
X018488Y002558D01*
X018847Y002558D02*
X019475Y002558D01*
X019475Y002716D02*
X018847Y002716D01*
X018778Y002875D02*
X019475Y002875D01*
X019475Y002399D02*
X018847Y002399D01*
X018838Y002241D02*
X019475Y002241D01*
X019475Y002082D02*
X018907Y002082D01*
X018907Y001924D02*
X019475Y001924D01*
X019475Y001765D02*
X018907Y001765D01*
X019197Y001607D02*
X019475Y001607D01*
X019475Y001448D02*
X019350Y001448D01*
X019416Y001290D02*
X019475Y001290D01*
X019475Y001131D02*
X019420Y001131D01*
X019375Y000973D02*
X019475Y000973D01*
X019475Y000814D02*
X019261Y000814D01*
X020215Y000814D02*
X021063Y000814D01*
X020759Y000973D02*
X020215Y000973D01*
X020215Y001131D02*
X020538Y001131D01*
X020380Y001290D02*
X020215Y001290D01*
X020215Y001448D02*
X020249Y001448D01*
X020215Y000656D02*
X028980Y000656D01*
X028980Y000814D02*
X028017Y000814D01*
X027949Y000775D02*
X028231Y000938D01*
X028462Y001169D01*
X028625Y001451D01*
X028710Y001767D01*
X028710Y002093D01*
X028625Y002409D01*
X028462Y002691D01*
X028231Y002922D01*
X027949Y003085D01*
X027633Y003170D01*
X027307Y003170D01*
X026991Y003085D01*
X026709Y002922D01*
X026478Y002691D01*
X026315Y002409D01*
X026230Y002093D01*
X026230Y001767D01*
X026315Y001451D01*
X026478Y001169D01*
X026709Y000938D01*
X026991Y000775D01*
X027307Y000690D01*
X027633Y000690D01*
X027949Y000775D01*
X028266Y000973D02*
X028980Y000973D01*
X028980Y001131D02*
X028425Y001131D01*
X028532Y001290D02*
X028980Y001290D01*
X028980Y001448D02*
X028624Y001448D01*
X028667Y001607D02*
X028980Y001607D01*
X028980Y001765D02*
X028710Y001765D01*
X028710Y001924D02*
X028980Y001924D01*
X028980Y002082D02*
X028710Y002082D01*
X028671Y002241D02*
X028980Y002241D01*
X028980Y002399D02*
X028628Y002399D01*
X028540Y002558D02*
X028980Y002558D01*
X028980Y002716D02*
X028438Y002716D01*
X028279Y002875D02*
X028980Y002875D01*
X028980Y003033D02*
X028040Y003033D01*
X028980Y003192D02*
X025560Y003192D01*
X025560Y003350D02*
X028980Y003350D01*
X028980Y003509D02*
X025560Y003509D01*
X025560Y003528D02*
X025523Y003616D01*
X025456Y003683D01*
X025368Y003720D01*
X024572Y003720D01*
X024484Y003683D01*
X024417Y003616D01*
X024380Y003528D01*
X024380Y001032D01*
X024417Y000944D01*
X024484Y000877D01*
X024572Y000840D01*
X025368Y000840D01*
X025456Y000877D01*
X025523Y000944D01*
X025560Y001032D01*
X025560Y003528D01*
X025472Y003667D02*
X028980Y003667D01*
X028980Y003826D02*
X022765Y003826D01*
X022924Y003667D02*
X024468Y003667D01*
X024380Y003509D02*
X023078Y003509D01*
X023170Y003350D02*
X024380Y003350D01*
X024380Y003192D02*
X023261Y003192D01*
X023325Y003033D02*
X024380Y003033D01*
X024380Y002875D02*
X023368Y002875D01*
X023410Y002716D02*
X024380Y002716D01*
X024380Y002558D02*
X023420Y002558D01*
X023420Y002399D02*
X024380Y002399D01*
X024380Y002241D02*
X023420Y002241D01*
X023383Y002082D02*
X024380Y002082D01*
X024380Y001924D02*
X023340Y001924D01*
X023294Y001765D02*
X024380Y001765D01*
X024380Y001607D02*
X023202Y001607D01*
X023111Y001448D02*
X024380Y001448D01*
X024380Y001290D02*
X022980Y001290D01*
X022822Y001131D02*
X024380Y001131D01*
X024405Y000973D02*
X022601Y000973D01*
X022297Y000814D02*
X026923Y000814D01*
X026674Y000973D02*
X025535Y000973D01*
X025560Y001131D02*
X026515Y001131D01*
X026408Y001290D02*
X025560Y001290D01*
X025560Y001448D02*
X026316Y001448D01*
X026273Y001607D02*
X025560Y001607D01*
X025560Y001765D02*
X026230Y001765D01*
X026230Y001924D02*
X025560Y001924D01*
X025560Y002082D02*
X026230Y002082D01*
X026269Y002241D02*
X025560Y002241D01*
X025560Y002399D02*
X026312Y002399D01*
X026400Y002558D02*
X025560Y002558D01*
X025560Y002716D02*
X026502Y002716D01*
X026661Y002875D02*
X025560Y002875D01*
X025560Y003033D02*
X026900Y003033D01*
X026753Y004301D02*
X020864Y004301D01*
X020880Y004143D02*
X021274Y004143D01*
X020857Y003984D02*
X020833Y003984D01*
X020770Y004460D02*
X026670Y004460D01*
X026659Y004618D02*
X020760Y004618D01*
X021741Y005569D02*
X023338Y005569D01*
X024338Y005886D02*
X026743Y005886D01*
X026665Y006045D02*
X025111Y006045D01*
X025320Y006203D02*
X026659Y006203D01*
X026715Y006362D02*
X025380Y006362D01*
X025376Y006520D02*
X026897Y006520D01*
X026738Y006679D02*
X025548Y006679D01*
X025625Y006837D02*
X026663Y006837D01*
X026659Y006996D02*
X025630Y006996D01*
X025571Y007154D02*
X026718Y007154D01*
X026910Y007313D02*
X025904Y007313D01*
X026077Y007471D02*
X026733Y007471D01*
X026661Y007630D02*
X026130Y007630D01*
X026119Y007788D02*
X026659Y007788D01*
X026720Y007947D02*
X026033Y007947D01*
X025705Y008105D02*
X026922Y008105D01*
X026728Y008264D02*
X025547Y008264D01*
X025071Y008739D02*
X026722Y008739D01*
X026934Y008898D02*
X024913Y008898D01*
X024754Y009056D02*
X026723Y009056D01*
X026659Y009215D02*
X024541Y009215D01*
X025993Y009373D02*
X026659Y009373D01*
X026726Y009532D02*
X026102Y009532D01*
X026130Y009690D02*
X026947Y009690D01*
X027206Y009690D02*
X027734Y009690D01*
X027993Y009690D02*
X028980Y009690D01*
X028980Y009532D02*
X028214Y009532D01*
X028281Y009373D02*
X028980Y009373D01*
X028980Y009215D02*
X028281Y009215D01*
X028217Y009056D02*
X028980Y009056D01*
X028980Y008898D02*
X028006Y008898D01*
X028218Y008739D02*
X028980Y008739D01*
X028980Y008581D02*
X028281Y008581D01*
X028018Y008105D02*
X028980Y008105D01*
X028980Y007947D02*
X028220Y007947D01*
X028281Y007788D02*
X028980Y007788D01*
X028980Y007630D02*
X028279Y007630D01*
X028207Y007471D02*
X028980Y007471D01*
X028980Y007313D02*
X028030Y007313D01*
X028222Y007154D02*
X028980Y007154D01*
X028980Y006996D02*
X028281Y006996D01*
X028277Y006837D02*
X028980Y006837D01*
X028980Y006679D02*
X028202Y006679D01*
X028043Y006520D02*
X028980Y006520D01*
X028980Y006362D02*
X028225Y006362D01*
X028281Y006203D02*
X028980Y006203D01*
X028980Y006045D02*
X028275Y006045D01*
X028197Y005886D02*
X028980Y005886D01*
X028980Y005728D02*
X028055Y005728D01*
X028227Y005569D02*
X028980Y005569D01*
X028980Y005411D02*
X028281Y005411D01*
X028272Y005252D02*
X028980Y005252D01*
X028980Y005094D02*
X028192Y005094D01*
X028067Y004935D02*
X028980Y004935D01*
X028980Y004777D02*
X028229Y004777D01*
X028281Y004618D02*
X028980Y004618D01*
X028980Y004460D02*
X028270Y004460D01*
X028187Y004301D02*
X028980Y004301D01*
X028980Y004143D02*
X022086Y004143D01*
X022503Y003984D02*
X028980Y003984D01*
X027541Y004301D02*
X027399Y004301D01*
X026885Y005728D02*
X021583Y005728D01*
X024496Y006045D02*
X024829Y006045D01*
X024620Y006203D02*
X024573Y006203D01*
X025510Y007313D02*
X025536Y007313D01*
X027427Y009532D02*
X027513Y009532D01*
X027633Y010690D02*
X027307Y010690D01*
X026991Y010775D01*
X026709Y010938D01*
X026478Y011169D01*
X026315Y011451D01*
X026230Y011767D01*
X026230Y012093D01*
X026315Y012409D01*
X026478Y012691D01*
X026709Y012922D01*
X026991Y013085D01*
X027307Y013170D01*
X027633Y013170D01*
X027949Y013085D01*
X028231Y012922D01*
X028462Y012691D01*
X028625Y012409D01*
X028710Y012093D01*
X028710Y011767D01*
X028625Y011451D01*
X028462Y011169D01*
X028231Y010938D01*
X027949Y010775D01*
X027633Y010690D01*
X027992Y010800D02*
X028980Y010800D01*
X028980Y010958D02*
X028252Y010958D01*
X028410Y011117D02*
X028980Y011117D01*
X028980Y011275D02*
X028524Y011275D01*
X028615Y011434D02*
X028980Y011434D01*
X028980Y011592D02*
X028663Y011592D01*
X028706Y011751D02*
X028980Y011751D01*
X028980Y011909D02*
X028710Y011909D01*
X028710Y012068D02*
X028980Y012068D01*
X028980Y012226D02*
X028674Y012226D01*
X028632Y012385D02*
X028980Y012385D01*
X028980Y012543D02*
X028548Y012543D01*
X028452Y012702D02*
X028980Y012702D01*
X028980Y012860D02*
X028294Y012860D01*
X028065Y013019D02*
X028980Y013019D01*
X028980Y013177D02*
X025377Y013177D01*
X025219Y013019D02*
X026875Y013019D01*
X026646Y012860D02*
X025060Y012860D01*
X024902Y012702D02*
X026488Y012702D01*
X026392Y012543D02*
X024743Y012543D01*
X024585Y012385D02*
X026308Y012385D01*
X026266Y012226D02*
X024426Y012226D01*
X024268Y012068D02*
X026230Y012068D01*
X026230Y011909D02*
X024651Y011909D01*
X024810Y011751D02*
X026234Y011751D01*
X026277Y011592D02*
X024968Y011592D01*
X025127Y011434D02*
X026325Y011434D01*
X026416Y011275D02*
X025285Y011275D01*
X025444Y011117D02*
X026530Y011117D01*
X026688Y010958D02*
X025602Y010958D01*
X025899Y010800D02*
X026948Y010800D01*
X026130Y010483D02*
X028980Y010483D01*
X028980Y010641D02*
X026076Y010641D01*
X026120Y010324D02*
X028980Y010324D01*
X028980Y010166D02*
X026035Y010166D01*
X025973Y010007D02*
X028980Y010007D01*
X028980Y009849D02*
X026094Y009849D01*
X023740Y012860D02*
X021630Y012860D01*
X021719Y013019D02*
X023898Y013019D01*
X024057Y013177D02*
X021877Y013177D01*
X022036Y013336D02*
X024215Y013336D01*
X024374Y013494D02*
X022194Y013494D01*
X022688Y015238D02*
X022725Y015238D01*
X022813Y016837D02*
X022720Y016930D01*
X022470Y016930D01*
X022813Y016837D02*
X023149Y016837D01*
X023149Y017668D02*
X023149Y017704D01*
X023149Y017704D01*
X023149Y017668D01*
X023149Y017668D01*
X022741Y017615D02*
X022315Y017615D01*
X022474Y017774D02*
X022741Y017774D01*
X021970Y018091D02*
X001626Y018091D01*
X001638Y018111D02*
X001650Y018156D01*
X001650Y018600D01*
X001050Y018600D01*
X001050Y018000D01*
X001494Y018000D01*
X001539Y018012D01*
X001581Y018036D01*
X001614Y018069D01*
X001638Y018111D01*
X001650Y018249D02*
X004861Y018249D01*
X005079Y018249D02*
X006361Y018249D01*
X006579Y018249D02*
X011111Y018249D01*
X010959Y019042D02*
X008841Y019042D01*
X009330Y019676D02*
X012715Y019676D01*
X012557Y019834D02*
X010160Y019834D01*
X010413Y019993D02*
X012398Y019993D01*
X012240Y020151D02*
X010529Y020151D01*
X010595Y020310D02*
X012081Y020310D01*
X011923Y020468D02*
X010596Y020468D01*
X010570Y020627D02*
X011764Y020627D01*
X011606Y020785D02*
X010504Y020785D01*
X010353Y020944D02*
X011447Y020944D01*
X011289Y021102D02*
X009580Y021102D01*
X009580Y021261D02*
X011130Y021261D01*
X010972Y021419D02*
X009580Y021419D01*
X008860Y022529D02*
X007460Y022529D01*
X007460Y022687D02*
X008860Y022687D01*
X008860Y022846D02*
X007460Y022846D01*
X007460Y023004D02*
X008860Y023004D01*
X008860Y023163D02*
X007460Y023163D01*
X007460Y023321D02*
X008860Y023321D01*
X008860Y023480D02*
X007460Y023480D01*
X007460Y023638D02*
X008640Y023638D01*
X008549Y023797D02*
X007432Y023797D01*
X006758Y023797D02*
X002924Y023797D01*
X003011Y023955D02*
X008530Y023955D01*
X008570Y024114D02*
X003011Y024114D01*
X003011Y024272D02*
X008690Y024272D01*
X008720Y025699D02*
X011220Y025699D01*
X011220Y025540D02*
X004301Y025540D01*
X002919Y025540D02*
X001500Y025540D01*
X001507Y025382D02*
X011220Y025382D01*
X011220Y025223D02*
X001507Y025223D01*
X001507Y025065D02*
X010516Y025065D01*
X010493Y024906D02*
X001507Y024906D01*
X002217Y024589D02*
X002223Y024589D01*
X002816Y023638D02*
X006730Y023638D01*
X006730Y023480D02*
X002680Y023480D01*
X002521Y023321D02*
X006730Y023321D01*
X006730Y023163D02*
X002332Y023163D01*
X002091Y023004D02*
X006730Y023004D01*
X006730Y022846D02*
X001310Y022846D01*
X001222Y022687D02*
X006730Y022687D01*
X006730Y022529D02*
X001381Y022529D01*
X001507Y022370D02*
X006730Y022370D01*
X006730Y022212D02*
X001507Y022212D01*
X001507Y022053D02*
X006730Y022053D01*
X006730Y021895D02*
X001444Y021895D01*
X001285Y021736D02*
X006730Y021736D01*
X006730Y021578D02*
X001260Y021578D01*
X001260Y021419D02*
X006730Y021419D01*
X006730Y021261D02*
X001260Y021261D01*
X001260Y021102D02*
X006730Y021102D01*
X006730Y020944D02*
X001367Y020944D01*
X001525Y020785D02*
X006730Y020785D01*
X006730Y020627D02*
X001684Y020627D01*
X001842Y020468D02*
X006730Y020468D01*
X006730Y020310D02*
X002001Y020310D01*
X002159Y020151D02*
X006730Y020151D01*
X006730Y019993D02*
X002318Y019993D01*
X002476Y019834D02*
X006730Y019834D01*
X006730Y019676D02*
X002635Y019676D01*
X002793Y019517D02*
X006730Y019517D01*
X006730Y019359D02*
X002952Y019359D01*
X003110Y019200D02*
X006730Y019200D01*
X006209Y019042D02*
X005231Y019042D01*
X005362Y018883D02*
X006078Y018883D01*
X006030Y018725D02*
X005410Y018725D01*
X005399Y018566D02*
X006041Y018566D01*
X006120Y018408D02*
X005320Y018408D01*
X004709Y019042D02*
X003269Y019042D01*
X002607Y018883D02*
X001650Y018883D01*
X001650Y019042D02*
X002448Y019042D01*
X002290Y019200D02*
X001650Y019200D01*
X001050Y018566D02*
X000890Y018566D01*
X000890Y018408D02*
X001050Y018408D01*
X001050Y018249D02*
X000890Y018249D01*
X000890Y018091D02*
X001050Y018091D01*
X000460Y017932D02*
X021812Y017932D01*
X021653Y017774D02*
X000460Y017774D01*
X000460Y017615D02*
X021495Y017615D01*
X021336Y017457D02*
X000460Y017457D01*
X000460Y017298D02*
X021178Y017298D01*
X021019Y017140D02*
X000460Y017140D01*
X000460Y016981D02*
X010191Y016981D01*
X010085Y016823D02*
X000460Y016823D01*
X003694Y013494D02*
X007430Y013494D01*
X007430Y013653D02*
X003853Y013653D01*
X004011Y013811D02*
X007430Y013811D01*
X007363Y013970D02*
X004170Y013970D01*
X004328Y014128D02*
X007310Y014128D01*
X007320Y014287D02*
X004487Y014287D01*
X004645Y014445D02*
X007405Y014445D01*
X007886Y014604D02*
X004804Y014604D01*
X003536Y013336D02*
X007445Y013336D01*
X007563Y013177D02*
X003377Y013177D01*
X003219Y013019D02*
X006375Y013019D01*
X006146Y012860D02*
X003060Y012860D01*
X002902Y012702D02*
X005988Y012702D01*
X005892Y012543D02*
X002743Y012543D01*
X007565Y013019D02*
X007721Y013019D01*
X007794Y012860D02*
X007880Y012860D01*
X007952Y012702D02*
X008038Y012702D01*
X008048Y012543D02*
X008197Y012543D01*
X008132Y012385D02*
X008355Y012385D01*
X008514Y012226D02*
X008174Y012226D01*
X008210Y012068D02*
X008672Y012068D01*
X008831Y011909D02*
X008210Y011909D01*
X008206Y011751D02*
X008989Y011751D01*
X009148Y011592D02*
X008163Y011592D01*
X008115Y011434D02*
X009306Y011434D01*
X009465Y011275D02*
X008024Y011275D01*
X007910Y011117D02*
X009666Y011117D01*
X009154Y013336D02*
X008975Y013336D01*
X008996Y013494D02*
X008816Y013494D01*
X008837Y013653D02*
X008658Y013653D01*
X008679Y013811D02*
X008610Y013811D01*
X008520Y013970D02*
X008510Y013970D01*
X008362Y014128D02*
X008130Y014128D01*
X008120Y014287D02*
X008203Y014287D01*
X008045Y014445D02*
X008035Y014445D01*
X010565Y014445D02*
X011578Y014445D01*
X011578Y014287D02*
X011181Y014287D01*
X011332Y014128D02*
X011637Y014128D01*
X011380Y013970D02*
X017613Y013970D01*
X017580Y013811D02*
X011364Y013811D01*
X011322Y013653D02*
X017560Y013653D01*
X017560Y014128D02*
X013299Y014128D01*
X013358Y014287D02*
X017570Y014287D01*
X017655Y014445D02*
X013358Y014445D01*
X013252Y015396D02*
X019276Y015396D01*
X019434Y015555D02*
X012432Y015555D01*
X011684Y015396D02*
X010574Y015396D01*
X010630Y015238D02*
X011578Y015238D01*
X011578Y015079D02*
X010622Y015079D01*
X010559Y014921D02*
X011578Y014921D01*
X011008Y015555D02*
X010635Y015555D01*
X010620Y014287D02*
X010759Y014287D01*
X010749Y016981D02*
X010952Y016981D01*
X009764Y019834D02*
X009330Y019834D01*
X009336Y019993D02*
X009511Y019993D01*
X009395Y020151D02*
X009380Y020151D01*
X007477Y019517D02*
X007460Y019517D01*
X011447Y024431D02*
X025930Y024431D01*
X025930Y024589D02*
X011447Y024589D01*
X011447Y024698D02*
X010988Y024698D01*
X010988Y025157D01*
X011291Y025157D01*
X011336Y025145D01*
X011377Y025121D01*
X011411Y025087D01*
X011435Y025046D01*
X011447Y025001D01*
X011447Y024698D01*
X011447Y024748D02*
X013734Y024748D01*
X013950Y024748D02*
X016490Y024748D01*
X016706Y024748D02*
X025930Y024748D01*
X025834Y024906D02*
X016972Y024906D01*
X017075Y025065D02*
X025675Y025065D01*
X025232Y025680D02*
X022614Y025680D01*
X022748Y025758D01*
X023072Y026082D01*
X023301Y026478D01*
X023420Y026921D01*
X023420Y027379D01*
X023335Y027695D01*
X023344Y027791D01*
X023503Y027777D01*
X023438Y027031D01*
X023485Y027031D01*
X023593Y027045D01*
X023699Y027073D01*
X023800Y027115D01*
X023894Y027170D01*
X023981Y027236D01*
X024058Y027313D01*
X024124Y027400D01*
X024179Y027494D01*
X024221Y027595D01*
X024249Y027701D01*
X024250Y027712D01*
X023503Y027777D01*
X023517Y027936D01*
X024263Y027871D01*
X024263Y027918D01*
X024249Y028026D01*
X024221Y028132D01*
X024179Y028233D01*
X024124Y028327D01*
X024058Y028414D01*
X023981Y028491D01*
X023894Y028557D01*
X023800Y028612D01*
X023699Y028654D01*
X023593Y028682D01*
X023583Y028684D01*
X023517Y027936D01*
X023358Y027950D01*
X023423Y028696D01*
X023376Y028696D01*
X023268Y028682D01*
X023162Y028654D01*
X023061Y028612D01*
X022967Y028557D01*
X022880Y028491D01*
X022840Y028451D01*
X022748Y028542D01*
X022352Y028771D01*
X021909Y028890D01*
X021451Y028890D01*
X021008Y028771D01*
X020612Y028542D01*
X020288Y028218D01*
X020059Y027822D01*
X019940Y027379D01*
X019940Y026921D01*
X020059Y026478D01*
X020288Y026082D01*
X020612Y025758D01*
X020746Y025680D01*
X016908Y025680D01*
X016890Y025698D01*
X016701Y025776D01*
X016495Y025776D01*
X016306Y025698D01*
X016288Y025680D01*
X014152Y025680D01*
X014134Y025698D01*
X013945Y025776D01*
X013739Y025776D01*
X013550Y025698D01*
X013532Y025680D01*
X011720Y025680D01*
X011720Y025705D01*
X011796Y025705D01*
X011796Y026132D01*
X011892Y026132D01*
X011892Y025705D01*
X012124Y025705D01*
X012169Y025717D01*
X012210Y025741D01*
X012244Y025774D01*
X012268Y025815D01*
X012280Y025861D01*
X012280Y026132D01*
X011892Y026132D01*
X011892Y026228D01*
X011796Y026228D01*
X011796Y026655D01*
X011720Y026655D01*
X011720Y027680D01*
X011220Y027680D01*
X011220Y029940D01*
X011780Y029940D01*
X011780Y026882D01*
X011817Y026794D01*
X011884Y026727D01*
X011972Y026690D01*
X018468Y026690D01*
X018556Y026727D01*
X018623Y026794D01*
X018660Y026882D01*
X018660Y029940D01*
X020459Y029940D01*
X028980Y029190D01*
X028980Y028146D01*
X028953Y028161D01*
X028852Y028203D01*
X028747Y028231D01*
X028736Y028233D01*
X028671Y027485D01*
X028511Y027499D01*
X028497Y027340D01*
X027751Y027405D01*
X027751Y027358D01*
X027766Y027250D01*
X027794Y027144D01*
X027836Y027044D01*
X027890Y026949D01*
X027957Y026862D01*
X028034Y026785D01*
X028120Y026719D01*
X028215Y026664D01*
X028316Y026622D01*
X028421Y026594D01*
X028432Y026593D01*
X028497Y027340D01*
X028657Y027326D01*
X028591Y026580D01*
X028639Y026580D01*
X028747Y026594D01*
X028852Y026622D01*
X028953Y026664D01*
X028980Y026680D01*
X028980Y013680D01*
X028908Y013680D01*
X028908Y013788D01*
X028254Y013788D01*
X028254Y013824D01*
X028908Y013824D01*
X028908Y014027D01*
X028896Y014072D01*
X028872Y014113D01*
X028838Y014147D01*
X028797Y014171D01*
X028752Y014183D01*
X028254Y014183D01*
X028254Y013824D01*
X028217Y013824D01*
X028217Y014183D01*
X027720Y014183D01*
X027720Y018944D01*
X027722Y018944D01*
X027811Y018980D01*
X027878Y019048D01*
X027915Y019136D01*
X027915Y019177D01*
X028276Y019177D01*
X028276Y019536D01*
X028313Y019536D01*
X028313Y019572D01*
X028908Y019572D01*
X028908Y019775D01*
X028896Y019820D01*
X028872Y019861D01*
X028838Y019895D01*
X028797Y019919D01*
X028752Y019931D01*
X028313Y019931D01*
X028313Y019572D01*
X028276Y019572D01*
X028276Y019931D01*
X027838Y019931D01*
X027792Y019919D01*
X027751Y019895D01*
X027720Y019864D01*
X027720Y025680D01*
X026880Y025680D01*
X026596Y025964D01*
X026596Y026097D01*
X026599Y026099D01*
X026745Y026244D01*
X026779Y026326D01*
X026848Y026158D01*
X026994Y026013D01*
X027184Y025934D01*
X027390Y025934D01*
X027580Y026013D01*
X027725Y026158D01*
X027804Y026348D01*
X027804Y026554D01*
X027725Y026744D01*
X027580Y026890D01*
X027390Y026968D01*
X027184Y026968D01*
X026994Y026890D01*
X026848Y026744D01*
X026814Y026662D01*
X026745Y026830D01*
X026599Y026975D01*
X026409Y027054D01*
X026203Y027054D01*
X026013Y026975D01*
X025948Y026911D01*
X025815Y027044D01*
X025625Y027123D01*
X025419Y027123D01*
X025229Y027044D01*
X025083Y026899D01*
X025049Y026816D01*
X024980Y026984D01*
X024834Y027130D01*
X024644Y027209D01*
X024438Y027209D01*
X024248Y027130D01*
X024103Y026984D01*
X024024Y026794D01*
X024024Y026589D01*
X024103Y026399D01*
X024248Y026253D01*
X024438Y026174D01*
X024644Y026174D01*
X024834Y026253D01*
X024980Y026399D01*
X025014Y026481D01*
X025083Y026313D01*
X025229Y026167D01*
X025232Y026166D01*
X025232Y025680D01*
X025232Y025699D02*
X022646Y025699D01*
X022848Y025857D02*
X025232Y025857D01*
X025232Y026016D02*
X023006Y026016D01*
X023126Y026174D02*
X025222Y026174D01*
X025075Y026333D02*
X024914Y026333D01*
X024987Y026967D02*
X025151Y026967D01*
X024839Y027125D02*
X027802Y027125D01*
X027761Y027284D02*
X024028Y027284D01*
X024149Y027442D02*
X028506Y027442D01*
X028511Y027499D02*
X027764Y027565D01*
X027766Y027576D01*
X027794Y027681D01*
X027836Y027782D01*
X027890Y027876D01*
X027957Y027963D01*
X028034Y028040D01*
X028120Y028107D01*
X028215Y028161D01*
X028316Y028203D01*
X028421Y028231D01*
X028529Y028245D01*
X028577Y028245D01*
X028511Y027499D01*
X028520Y027601D02*
X028681Y027601D01*
X028695Y027759D02*
X028534Y027759D01*
X028548Y027918D02*
X028709Y027918D01*
X028722Y028076D02*
X028562Y028076D01*
X028576Y028235D02*
X028980Y028235D01*
X028980Y028393D02*
X024074Y028393D01*
X024178Y028235D02*
X028446Y028235D01*
X028081Y028076D02*
X024236Y028076D01*
X024263Y027918D02*
X027922Y027918D01*
X027826Y027759D02*
X023708Y027759D01*
X023732Y027918D02*
X023516Y027918D01*
X023529Y028076D02*
X023369Y028076D01*
X023383Y028235D02*
X023543Y028235D01*
X023557Y028393D02*
X023397Y028393D01*
X023410Y028552D02*
X023571Y028552D01*
X023902Y028552D02*
X028980Y028552D01*
X028980Y028710D02*
X022458Y028710D01*
X022732Y028552D02*
X022959Y028552D01*
X023341Y027759D02*
X023502Y027759D01*
X023488Y027601D02*
X023361Y027601D01*
X023403Y027442D02*
X023474Y027442D01*
X023460Y027284D02*
X023420Y027284D01*
X023420Y027125D02*
X023446Y027125D01*
X023420Y026967D02*
X024095Y026967D01*
X024030Y026808D02*
X023390Y026808D01*
X023347Y026650D02*
X024024Y026650D01*
X024064Y026491D02*
X023305Y026491D01*
X023217Y026333D02*
X024169Y026333D01*
X024243Y027125D02*
X023817Y027125D01*
X024222Y027601D02*
X027772Y027601D01*
X027880Y026967D02*
X027394Y026967D01*
X027179Y026967D02*
X026608Y026967D01*
X026754Y026808D02*
X026912Y026808D01*
X026842Y026174D02*
X026674Y026174D01*
X026596Y026016D02*
X026991Y026016D01*
X026703Y025857D02*
X028980Y025857D01*
X028980Y025699D02*
X026862Y025699D01*
X027582Y026016D02*
X028980Y026016D01*
X028980Y026174D02*
X027732Y026174D01*
X027797Y026333D02*
X028980Y026333D01*
X028980Y026491D02*
X027804Y026491D01*
X027764Y026650D02*
X028250Y026650D01*
X028437Y026650D02*
X028598Y026650D01*
X028611Y026808D02*
X028451Y026808D01*
X028465Y026967D02*
X028625Y026967D01*
X028639Y027125D02*
X028479Y027125D01*
X028492Y027284D02*
X028653Y027284D01*
X028918Y026650D02*
X028980Y026650D01*
X028011Y026808D02*
X027661Y026808D01*
X027720Y025540D02*
X028980Y025540D01*
X028980Y025382D02*
X027720Y025382D01*
X027720Y025223D02*
X028980Y025223D01*
X028980Y025065D02*
X027720Y025065D01*
X027720Y024906D02*
X028980Y024906D01*
X028980Y024748D02*
X027720Y024748D01*
X027720Y024589D02*
X028980Y024589D01*
X028980Y024431D02*
X027720Y024431D01*
X027720Y024272D02*
X028980Y024272D01*
X028980Y024114D02*
X027720Y024114D01*
X027720Y023955D02*
X028980Y023955D01*
X028980Y023797D02*
X027720Y023797D01*
X027720Y023638D02*
X028980Y023638D01*
X028980Y023480D02*
X027720Y023480D01*
X027720Y023321D02*
X028980Y023321D01*
X028980Y023163D02*
X027720Y023163D01*
X027720Y023004D02*
X028980Y023004D01*
X028980Y022846D02*
X027720Y022846D01*
X027720Y022687D02*
X028980Y022687D01*
X028980Y022529D02*
X027720Y022529D01*
X027720Y022370D02*
X028980Y022370D01*
X028980Y022212D02*
X027720Y022212D01*
X027720Y022053D02*
X028980Y022053D01*
X028980Y021895D02*
X027720Y021895D01*
X027720Y021736D02*
X028980Y021736D01*
X028980Y021578D02*
X027720Y021578D01*
X027720Y021419D02*
X028980Y021419D01*
X028980Y021261D02*
X027720Y021261D01*
X027720Y021102D02*
X028980Y021102D01*
X028980Y020944D02*
X027720Y020944D01*
X027720Y020785D02*
X028980Y020785D01*
X028980Y020627D02*
X027720Y020627D01*
X027720Y020468D02*
X028980Y020468D01*
X028980Y020310D02*
X027720Y020310D01*
X027720Y020151D02*
X028980Y020151D01*
X028980Y019993D02*
X027720Y019993D01*
X028276Y019834D02*
X028313Y019834D01*
X028313Y019676D02*
X028276Y019676D01*
X028313Y019536D02*
X028908Y019536D01*
X028908Y019333D01*
X028896Y019288D01*
X028872Y019247D01*
X028838Y019213D01*
X028797Y019189D01*
X028752Y019177D01*
X028313Y019177D01*
X028313Y019536D01*
X028313Y019517D02*
X028276Y019517D01*
X028276Y019359D02*
X028313Y019359D01*
X028313Y019200D02*
X028276Y019200D01*
X027872Y019042D02*
X028980Y019042D01*
X028980Y019200D02*
X028816Y019200D01*
X028908Y019359D02*
X028980Y019359D01*
X028980Y019517D02*
X028908Y019517D01*
X028908Y019676D02*
X028980Y019676D01*
X028980Y019834D02*
X028888Y019834D01*
X028980Y018883D02*
X027720Y018883D01*
X027720Y018725D02*
X028980Y018725D01*
X028980Y018566D02*
X027720Y018566D01*
X027720Y018408D02*
X028980Y018408D01*
X028980Y018249D02*
X027720Y018249D01*
X027720Y018091D02*
X028980Y018091D01*
X028980Y017932D02*
X027720Y017932D01*
X027720Y017774D02*
X028980Y017774D01*
X028980Y017615D02*
X027720Y017615D01*
X027720Y017457D02*
X028980Y017457D01*
X028980Y017298D02*
X027720Y017298D01*
X027720Y017140D02*
X028980Y017140D01*
X028980Y016981D02*
X027720Y016981D01*
X027720Y016823D02*
X028980Y016823D01*
X028980Y016664D02*
X027720Y016664D01*
X027720Y016506D02*
X028980Y016506D01*
X028980Y016347D02*
X027720Y016347D01*
X027720Y016189D02*
X028980Y016189D01*
X028980Y016030D02*
X027720Y016030D01*
X027720Y015872D02*
X028980Y015872D01*
X028980Y015713D02*
X027720Y015713D01*
X027720Y015555D02*
X028980Y015555D01*
X028980Y015396D02*
X027720Y015396D01*
X027720Y015238D02*
X028980Y015238D01*
X028980Y015079D02*
X027720Y015079D01*
X027720Y014921D02*
X028980Y014921D01*
X028980Y014762D02*
X027720Y014762D01*
X027720Y014604D02*
X028980Y014604D01*
X028980Y014445D02*
X027720Y014445D01*
X027720Y014287D02*
X028980Y014287D01*
X028980Y014128D02*
X028857Y014128D01*
X028908Y013970D02*
X028980Y013970D01*
X028980Y013811D02*
X028254Y013811D01*
X028254Y013970D02*
X028217Y013970D01*
X028217Y014128D02*
X028254Y014128D01*
X027220Y014128D02*
X026328Y014128D01*
X026170Y013970D02*
X027220Y013970D01*
X027220Y013811D02*
X026011Y013811D01*
X025853Y013653D02*
X027220Y013653D01*
X027220Y013494D02*
X025694Y013494D01*
X025536Y013336D02*
X027220Y013336D01*
X027220Y014287D02*
X026487Y014287D01*
X026645Y014445D02*
X027220Y014445D01*
X027220Y014604D02*
X026804Y014604D01*
X026962Y014762D02*
X027220Y014762D01*
X027220Y014921D02*
X027121Y014921D01*
X026430Y021261D02*
X019657Y021261D01*
X019657Y021419D02*
X026430Y021419D01*
X026412Y021578D02*
X025940Y021578D01*
X026083Y021736D02*
X026254Y021736D01*
X025500Y021578D02*
X022362Y021578D01*
X022382Y021589D02*
X022415Y021623D01*
X022439Y021664D01*
X022451Y021709D01*
X022451Y021912D01*
X022073Y021912D01*
X022073Y021553D01*
X022295Y021553D01*
X022341Y021565D01*
X022382Y021589D01*
X022451Y021736D02*
X024754Y021736D01*
X024595Y021895D02*
X022451Y021895D01*
X022451Y022053D02*
X024459Y022053D01*
X024351Y022212D02*
X022430Y022212D01*
X022073Y022212D02*
X022036Y022212D01*
X022036Y022053D02*
X022073Y022053D01*
X022073Y021895D02*
X022036Y021895D01*
X022036Y021736D02*
X022073Y021736D01*
X022073Y021578D02*
X022036Y021578D01*
X021010Y022370D02*
X024283Y022370D01*
X024283Y022529D02*
X020993Y022529D01*
X020873Y022687D02*
X024283Y022687D01*
X024283Y022846D02*
X020715Y022846D01*
X020478Y023004D02*
X024349Y023004D01*
X024343Y023163D02*
X023532Y023163D01*
X023619Y023321D02*
X024343Y023321D01*
X024343Y023480D02*
X023630Y023480D01*
X023578Y023638D02*
X024435Y023638D01*
X024702Y023638D02*
X024738Y023638D01*
X024738Y023480D02*
X024702Y023480D01*
X024702Y023321D02*
X024738Y023321D01*
X024738Y023283D02*
X025097Y023283D01*
X025452Y023283D01*
X025452Y023246D01*
X024738Y023246D01*
X024738Y023283D01*
X025005Y023638D02*
X025185Y023638D01*
X025452Y023638D02*
X025488Y023638D01*
X025488Y023480D02*
X025452Y023480D01*
X025452Y023321D02*
X025488Y023321D01*
X025755Y023638D02*
X025841Y023638D01*
X025832Y023797D02*
X023406Y023797D01*
X023034Y023797D02*
X023031Y023797D01*
X022659Y023797D02*
X022363Y023797D01*
X022204Y023955D02*
X025810Y023955D01*
X025852Y024114D02*
X022046Y024114D01*
X022025Y024134D02*
X022025Y024134D01*
X021835Y024272D02*
X025930Y024272D01*
X025892Y026967D02*
X026004Y026967D01*
X025431Y029503D02*
X018660Y029503D01*
X018660Y029661D02*
X023629Y029661D01*
X021828Y029820D02*
X018660Y029820D01*
X018660Y029344D02*
X027232Y029344D01*
X028980Y029186D02*
X018660Y029186D01*
X018660Y029027D02*
X028980Y029027D01*
X028980Y028869D02*
X021989Y028869D01*
X021371Y028869D02*
X018660Y028869D01*
X018660Y028710D02*
X020902Y028710D01*
X020628Y028552D02*
X018660Y028552D01*
X018660Y028393D02*
X020462Y028393D01*
X020304Y028235D02*
X018660Y028235D01*
X018660Y028076D02*
X020205Y028076D01*
X020114Y027918D02*
X018660Y027918D01*
X018660Y027759D02*
X020042Y027759D01*
X019999Y027601D02*
X018660Y027601D01*
X018660Y027442D02*
X019957Y027442D01*
X019940Y027284D02*
X018660Y027284D01*
X018660Y027125D02*
X019940Y027125D01*
X019940Y026967D02*
X018660Y026967D01*
X018629Y026808D02*
X019970Y026808D01*
X020013Y026650D02*
X012145Y026650D01*
X012124Y026655D02*
X011892Y026655D01*
X011892Y026228D01*
X012280Y026228D01*
X012280Y026499D01*
X012268Y026545D01*
X012244Y026586D01*
X012210Y026619D01*
X012169Y026643D01*
X012124Y026655D01*
X012280Y026491D02*
X020055Y026491D01*
X020143Y026333D02*
X012280Y026333D01*
X012280Y026016D02*
X020354Y026016D01*
X020234Y026174D02*
X011892Y026174D01*
X011892Y026016D02*
X011796Y026016D01*
X011796Y025857D02*
X011892Y025857D01*
X011720Y025699D02*
X013552Y025699D01*
X014132Y025699D02*
X016308Y025699D01*
X016888Y025699D02*
X020714Y025699D01*
X020512Y025857D02*
X012279Y025857D01*
X011892Y026333D02*
X011796Y026333D01*
X011796Y026491D02*
X011892Y026491D01*
X011892Y026650D02*
X011796Y026650D01*
X011811Y026808D02*
X011720Y026808D01*
X011720Y026967D02*
X011780Y026967D01*
X011780Y027125D02*
X011720Y027125D01*
X011720Y027284D02*
X011780Y027284D01*
X011780Y027442D02*
X011720Y027442D01*
X011720Y027601D02*
X011780Y027601D01*
X011780Y027759D02*
X011220Y027759D01*
X011220Y027918D02*
X011780Y027918D01*
X011780Y028076D02*
X011220Y028076D01*
X011220Y028235D02*
X011780Y028235D01*
X011780Y028393D02*
X011220Y028393D01*
X011220Y028552D02*
X011780Y028552D01*
X011780Y028710D02*
X011220Y028710D01*
X011220Y028869D02*
X011780Y028869D01*
X011780Y029027D02*
X011220Y029027D01*
X011220Y029186D02*
X011780Y029186D01*
X011780Y029344D02*
X011220Y029344D01*
X011220Y029503D02*
X011780Y029503D01*
X011780Y029661D02*
X011220Y029661D01*
X011220Y029820D02*
X011780Y029820D01*
X011144Y026650D02*
X011048Y026650D01*
X011048Y026491D02*
X011144Y026491D01*
X011144Y026333D02*
X011048Y026333D01*
X011048Y026174D02*
X008720Y026174D01*
X008720Y026016D02*
X010660Y026016D01*
X010660Y026132D02*
X010660Y025861D01*
X010672Y025815D01*
X010696Y025774D01*
X010730Y025741D01*
X010771Y025717D01*
X010816Y025705D01*
X011048Y025705D01*
X011048Y026132D01*
X010660Y026132D01*
X010660Y026333D02*
X008720Y026333D01*
X008720Y026491D02*
X010660Y026491D01*
X010795Y026650D02*
X008720Y026650D01*
X008720Y025857D02*
X010661Y025857D01*
X011048Y025857D02*
X011144Y025857D01*
X011144Y026016D02*
X011048Y026016D01*
X010988Y025065D02*
X010952Y025065D01*
X010952Y024906D02*
X010988Y024906D01*
X010988Y024748D02*
X010952Y024748D01*
X011447Y024906D02*
X013468Y024906D01*
X013365Y025065D02*
X011424Y025065D01*
X014217Y024906D02*
X016223Y024906D01*
X016121Y025065D02*
X014319Y025065D01*
X016831Y023480D02*
X021661Y023480D01*
X021820Y023321D02*
X016989Y023321D01*
X017148Y023163D02*
X021978Y023163D01*
X004220Y028869D02*
X003919Y028869D01*
X004220Y029027D02*
X000460Y029027D01*
X000460Y028869D02*
X003301Y028869D01*
X002832Y028710D02*
X000460Y028710D01*
X000460Y028552D02*
X002558Y028552D01*
X002392Y028393D02*
X000460Y028393D01*
X000460Y028235D02*
X002234Y028235D01*
X002135Y028076D02*
X000460Y028076D01*
X000460Y027918D02*
X002044Y027918D01*
X001972Y027759D02*
X000460Y027759D01*
X000460Y027601D02*
X001929Y027601D01*
X001887Y027442D02*
X000460Y027442D01*
X000460Y027284D02*
X001870Y027284D01*
X001870Y027125D02*
X000460Y027125D01*
X000460Y026967D02*
X001870Y026967D01*
X001900Y026808D02*
X000460Y026808D01*
X000460Y026650D02*
X001943Y026650D01*
X001985Y026491D02*
X000460Y026491D01*
X000460Y026333D02*
X002073Y026333D01*
X002164Y026174D02*
X000460Y026174D01*
X000460Y026016D02*
X002284Y026016D01*
X002442Y025857D02*
X000460Y025857D01*
X000460Y025699D02*
X000581Y025699D01*
X001359Y025699D02*
X002644Y025699D01*
X001849Y023004D02*
X001447Y023004D01*
X000460Y029186D02*
X004220Y029186D01*
X004220Y029344D02*
X000460Y029344D01*
X001046Y029503D02*
X004220Y029503D01*
X004220Y029661D02*
X004101Y029661D01*
X001536Y005569D02*
X000460Y005569D01*
X000460Y005411D02*
X001473Y005411D01*
X001473Y005252D02*
X000460Y005252D01*
X000460Y005094D02*
X001524Y005094D01*
X001649Y004935D02*
X000460Y004935D01*
X000460Y004777D02*
X001533Y004777D01*
X001473Y004618D02*
X000460Y004618D01*
X000460Y004460D02*
X001473Y004460D01*
X001527Y004301D02*
X000460Y004301D01*
X000460Y004143D02*
X001654Y004143D01*
X015203Y003826D02*
X015254Y003826D01*
X015395Y002558D02*
X015560Y002558D01*
X017847Y002399D02*
X018093Y002399D01*
X018102Y002241D02*
X017838Y002241D01*
X017907Y002082D02*
X018033Y002082D01*
X018033Y001924D02*
X017907Y001924D01*
X017907Y001765D02*
X018033Y001765D01*
X018015Y001607D02*
X017925Y001607D01*
X020215Y000497D02*
X028980Y000497D01*
D35*
X028220Y003680D03*
X028595Y004055D03*
X026220Y003680D03*
X024970Y006430D03*
X025220Y006930D03*
X025720Y007680D03*
X025720Y009680D03*
X025720Y010430D03*
X023720Y011180D03*
X023220Y011680D03*
X022720Y011930D03*
X022720Y012430D03*
X021220Y012930D03*
X021720Y013930D03*
X020220Y015180D03*
X019720Y014680D03*
X019220Y014930D03*
X017970Y014180D03*
X017970Y013680D03*
X017970Y013180D03*
X017970Y012680D03*
X017720Y012180D03*
X017220Y011680D03*
X018970Y009430D03*
X016720Y007180D03*
X017220Y006680D03*
X016220Y006680D03*
X015720Y007430D03*
X015220Y007680D03*
X014720Y006680D03*
X013220Y007430D03*
X012720Y006680D03*
X013220Y004180D03*
X013220Y003680D03*
X013220Y003180D03*
X013720Y002680D03*
X013970Y003180D03*
X013970Y003680D03*
X015470Y004180D03*
X015970Y004430D03*
X015470Y004680D03*
X015720Y002180D03*
X015720Y001680D03*
X013720Y001680D03*
X013720Y001180D03*
X013220Y001430D03*
X013220Y002180D03*
X009720Y003680D03*
X009220Y004180D03*
X009220Y004680D03*
X008470Y005430D03*
X008220Y006930D03*
X008220Y007430D03*
X008220Y007930D03*
X008220Y008930D03*
X008220Y009430D03*
X008220Y009930D03*
X005970Y007930D03*
X005470Y007930D03*
X004970Y007930D03*
X004470Y007930D03*
X003220Y008680D03*
X004470Y009430D03*
X004970Y009430D03*
X005470Y009430D03*
X005470Y010930D03*
X004970Y010930D03*
X003720Y010930D03*
X001470Y012680D03*
X001470Y013180D03*
X001470Y013680D03*
X001470Y014180D03*
X001470Y014680D03*
X001470Y015180D03*
X001470Y015680D03*
X001470Y016430D03*
X001470Y016930D03*
X001970Y016930D03*
X001970Y016430D03*
X005595Y020680D03*
X005595Y021180D03*
X005595Y021680D03*
X006470Y021930D03*
X006470Y022430D03*
X006470Y022930D03*
X006720Y024180D03*
X006720Y024680D03*
X007220Y024680D03*
X007220Y024180D03*
X008470Y022180D03*
X008720Y021930D03*
X008470Y021680D03*
X008720Y021430D03*
X008470Y021180D03*
X008720Y020930D03*
X008970Y020180D03*
X007720Y019180D03*
X010220Y019180D03*
X011220Y020180D03*
X011720Y022180D03*
X012220Y022180D03*
X012720Y022430D03*
X011970Y023930D03*
X011470Y023930D03*
X012220Y024680D03*
X013220Y024680D03*
X015220Y022930D03*
X015720Y022930D03*
X017220Y022180D03*
X017720Y022180D03*
X018220Y022180D03*
X018720Y022180D03*
X020720Y021930D03*
X020220Y019930D03*
X021970Y018930D03*
X022720Y020180D03*
X022845Y023430D03*
X023220Y023430D03*
X023970Y024180D03*
X024470Y024180D03*
X024970Y024180D03*
X026220Y023930D03*
X026970Y023930D03*
X026970Y021930D03*
X025720Y021930D03*
X027970Y020180D03*
X028470Y020180D03*
X028470Y014680D03*
X027970Y014680D03*
X022470Y016930D03*
X017970Y018680D03*
X015720Y016430D03*
X014720Y020430D03*
X017220Y024680D03*
X018220Y024680D03*
X019220Y024680D03*
X019220Y025930D03*
X020470Y024680D03*
X022220Y024680D03*
X024720Y027430D03*
X024720Y028680D03*
X027220Y028430D03*
X027220Y027180D03*
X018970Y027930D03*
X018970Y028430D03*
X011470Y028430D03*
X011470Y027930D03*
X004970Y024680D03*
X004970Y024180D03*
X004470Y024680D03*
X003970Y024680D03*
X003970Y024180D03*
X003970Y022930D03*
X003970Y022430D03*
X003720Y021930D03*
X003720Y021430D03*
X003220Y021430D03*
X003220Y021930D03*
X002220Y021930D03*
X002220Y021430D03*
X001720Y021430D03*
X001720Y021930D03*
X001470Y022680D03*
X001470Y023680D03*
X001720Y026930D03*
X001720Y027430D03*
X001720Y027930D03*
X001220Y027930D03*
X000720Y027930D03*
X010470Y016680D03*
X010470Y015930D03*
X010220Y015180D03*
X010220Y014680D03*
X010220Y014180D03*
X010970Y013930D03*
X010970Y013430D03*
X008220Y013680D03*
X007720Y014180D03*
X005470Y003930D03*
X018720Y003680D03*
X018720Y004430D03*
X019970Y004680D03*
X020470Y004180D03*
X022720Y006680D03*
X022720Y007430D03*
X022970Y007930D03*
X023720Y007680D03*
X022720Y009430D03*
X022220Y009430D03*
X023470Y005180D03*
D36*
X004970Y008680D03*
X002720Y021680D03*
D37*
X009970Y024680D02*
X010970Y024680D01*
X010970Y025180D01*
X010970Y024680D02*
X011720Y024680D01*
D38*
X011970Y023430D02*
X011220Y022680D01*
X010970Y022680D01*
X011720Y022680D02*
X011720Y022180D01*
X011720Y022680D02*
X012220Y023180D01*
X013720Y023180D01*
X014470Y022430D01*
X014970Y022430D01*
X015220Y022680D01*
X015220Y022930D01*
X015720Y022930D02*
X015720Y022680D01*
X015220Y022180D01*
X014220Y022180D01*
X013470Y022930D01*
X012470Y022930D01*
X012220Y022680D01*
X012220Y022180D01*
X012720Y022430D02*
X013470Y022430D01*
X014720Y021180D01*
X014720Y020430D01*
X016720Y021515D02*
X016720Y021930D01*
X016970Y022180D01*
X017220Y022180D01*
X017470Y021930D02*
X017470Y021515D01*
X017470Y021930D02*
X017720Y022180D01*
X018220Y022180D02*
X018470Y021930D01*
X018470Y021515D01*
X018720Y022180D02*
X018970Y022180D01*
X019220Y021930D01*
X019220Y021515D01*
X019385Y022680D02*
X017220Y022680D01*
X016470Y023430D01*
X011970Y023430D01*
X011220Y018680D02*
X006470Y018680D01*
X004970Y018680D02*
X003220Y018680D01*
X000970Y020930D01*
X000970Y022180D01*
X001970Y023430D02*
X002220Y023430D01*
X002555Y023765D01*
X002555Y024180D01*
X001885Y024180D02*
X000970Y024180D01*
X003220Y016430D02*
X002470Y015680D01*
X001470Y015680D01*
X001470Y015180D02*
X002470Y015180D01*
X003470Y016180D01*
X010220Y016180D01*
X010470Y015930D01*
X011385Y015930D01*
X011385Y016680D02*
X010470Y016680D01*
X010220Y016430D01*
X003220Y016430D01*
X003720Y015930D02*
X002470Y014680D01*
X001470Y014680D01*
X001470Y014180D02*
X002470Y014180D01*
X003970Y015680D01*
X009220Y015680D01*
X010220Y014680D01*
X010220Y014180D02*
X008970Y015430D01*
X004220Y015430D01*
X002470Y013680D01*
X001470Y013680D01*
X001470Y013180D02*
X002470Y013180D01*
X004470Y015180D01*
X008220Y015180D01*
X009720Y013680D01*
X010470Y013680D01*
X010720Y013930D01*
X010970Y013930D01*
X010970Y013430D02*
X009470Y013430D01*
X007970Y014930D01*
X004720Y014930D01*
X002470Y012680D01*
X001470Y012680D01*
X003720Y015930D02*
X009470Y015930D01*
X010220Y015180D01*
X008220Y013680D02*
X008933Y012967D01*
X014220Y012967D01*
X014220Y011393D02*
X009757Y011393D01*
X007720Y013430D01*
X007720Y014180D01*
X005970Y007930D02*
X005470Y007430D01*
X005470Y003930D01*
X005470Y003180D02*
X002720Y005930D01*
X002720Y006930D01*
X001970Y007680D01*
X005470Y003180D02*
X008720Y003180D01*
X009220Y002680D01*
X013720Y002680D01*
X013805Y002265D02*
X013720Y002180D01*
X013220Y002180D01*
X013805Y002265D02*
X014220Y002265D01*
X014970Y002265D01*
X015385Y002265D01*
X015470Y002180D01*
X015720Y002180D01*
X015720Y001680D02*
X015470Y001680D01*
X015385Y001595D01*
X014970Y001595D01*
X017020Y001180D02*
X017635Y001180D01*
X017635Y001515D01*
X017470Y001680D01*
X017470Y001845D01*
X018305Y001515D02*
X018305Y001180D01*
X018920Y001180D01*
X018470Y001680D02*
X018305Y001515D01*
X018470Y001680D02*
X018470Y001845D01*
X018720Y003680D02*
X019220Y004180D01*
X019220Y005180D01*
X017220Y007180D01*
X016720Y007180D01*
X017220Y006680D02*
X017220Y006180D01*
X018220Y005180D01*
X018720Y004680D01*
X018720Y004430D01*
X019970Y004680D02*
X019970Y005430D01*
X017720Y007680D01*
X015970Y007680D01*
X015720Y007430D01*
X015470Y007930D02*
X015220Y007680D01*
X015470Y007930D02*
X017970Y007930D01*
X020470Y005430D01*
X020470Y004180D01*
X021720Y005180D02*
X023470Y005180D01*
X024720Y006680D02*
X024720Y007680D01*
X023970Y008430D01*
X021720Y008430D01*
X017970Y012180D01*
X017720Y012180D01*
X017970Y011680D02*
X017220Y011680D01*
X017970Y011680D02*
X021720Y007930D01*
X022970Y007930D01*
X022220Y008930D02*
X017970Y013180D01*
X017970Y013680D02*
X022220Y009430D01*
X022220Y008930D02*
X024470Y008930D01*
X025720Y007680D01*
X025220Y007680D02*
X024220Y008680D01*
X021970Y008680D01*
X017970Y012680D01*
X017970Y014180D02*
X022720Y009430D01*
X023720Y011180D02*
X024220Y011180D01*
X025720Y009680D01*
X025720Y010430D02*
X024470Y011680D01*
X023220Y011680D01*
X022970Y012180D02*
X022720Y011930D01*
X022970Y012180D02*
X023970Y012180D01*
X026970Y015180D01*
X026970Y021930D01*
X026970Y022595D01*
X026970Y023265D02*
X026970Y023930D01*
X026970Y025180D01*
X026306Y025844D01*
X026306Y026537D01*
X025522Y026606D02*
X025522Y025628D01*
X026220Y024930D01*
X026220Y023930D01*
X026220Y023265D01*
X026220Y022595D02*
X025470Y022595D01*
X025720Y021930D02*
X024970Y021930D01*
X024720Y022180D01*
X024720Y022595D01*
X026220Y022595D02*
X026220Y022180D01*
X026720Y021680D01*
X026720Y015430D01*
X023720Y012430D01*
X022720Y012430D01*
X022220Y013930D02*
X021220Y012930D01*
X021720Y013930D02*
X021720Y015180D01*
X022511Y015971D01*
X023149Y015971D01*
X023149Y015538D02*
X022578Y015538D01*
X022220Y015180D01*
X022220Y013930D01*
X020470Y014680D02*
X019720Y014680D01*
X019220Y014930D02*
X022427Y018137D01*
X023149Y018137D01*
X023149Y018570D02*
X022330Y018570D01*
X021970Y018930D01*
X020720Y019265D02*
X020720Y020095D01*
X020385Y020095D01*
X020220Y019930D01*
X019844Y019554D01*
X019844Y019247D01*
X020720Y021930D02*
X020720Y022430D01*
X020470Y022680D01*
X020055Y022680D01*
X020720Y021930D02*
X021385Y021930D01*
X022311Y017271D02*
X020220Y015180D01*
X020470Y014680D02*
X022194Y016404D01*
X023149Y016404D01*
X023149Y017271D02*
X022311Y017271D01*
X018720Y008180D02*
X014970Y008180D01*
X013470Y006680D01*
X012720Y006680D01*
X010470Y004680D02*
X009720Y005430D01*
X008470Y005430D01*
X010470Y004680D02*
X015470Y004680D01*
X015470Y004180D02*
X014805Y004180D01*
X018720Y008180D02*
X021720Y005180D01*
X024720Y006680D02*
X024970Y006430D01*
X025220Y006930D02*
X025220Y007680D01*
D39*
X022720Y007430D02*
X020970Y007430D01*
X018970Y009430D01*
X015220Y005680D02*
X011220Y005680D01*
X010720Y006180D01*
X010720Y008430D01*
X008470Y010680D01*
X005720Y010680D01*
X005470Y010930D01*
X004970Y010930D01*
X003720Y010930D02*
X003720Y009930D01*
X003220Y009430D01*
X003220Y008680D01*
X007720Y019180D02*
X008470Y019180D01*
X008970Y019680D01*
X008970Y020180D01*
X008970Y020430D01*
X009220Y020680D01*
X009220Y021930D01*
X009220Y023930D01*
X009470Y023930D01*
X009220Y023930D02*
X008970Y023930D01*
X009220Y021930D02*
X010970Y021930D01*
X012970Y019930D01*
X014970Y019930D01*
X015885Y020845D01*
X016720Y020845D01*
X017470Y020845D01*
X017970Y020845D01*
X018470Y020845D01*
X019220Y020845D01*
X020720Y020845D01*
X020720Y020765D01*
X020720Y020845D02*
X021305Y020845D01*
X021970Y020180D01*
X022720Y020180D01*
X022845Y023430D02*
X022220Y023430D01*
X021720Y023930D01*
X011470Y023930D01*
X011220Y023930D01*
X010970Y023680D01*
X022845Y023430D02*
X023220Y023430D01*
X015220Y005680D02*
X015970Y004930D01*
X015970Y004430D01*
D40*
X011220Y018680D03*
X006470Y018680D03*
X004970Y018680D03*
X001970Y023430D03*
X008970Y023930D03*
X009470Y023930D03*
M02*
