G75*
G70*
%OFA0B0*%
%FSLAX24Y24*%
%IPPOS*%
%LPD*%
%AMOC8*
5,1,8,0,0,1.08239X$1,22.5*
%
%ADD10C,0.0070*%
%ADD11R,0.0250X0.0800*%
%ADD12R,0.0800X0.0250*%
%ADD13C,0.0080*%
%ADD14R,0.1200X0.0190*%
%ADD15R,0.1400X0.0300*%
%ADD16R,0.0100X0.0580*%
%ADD17C,0.0160*%
%ADD18C,0.0120*%
%ADD19C,0.0256*%
D10*
X000479Y003197D02*
X000534Y003197D01*
X000589Y003252D01*
X000589Y003527D01*
X000534Y003527D02*
X000644Y003527D01*
X000793Y003527D02*
X001013Y003527D01*
X001013Y003472D01*
X000793Y003252D01*
X000793Y003197D01*
X000479Y003197D02*
X000424Y003252D01*
X000395Y003743D02*
X002364Y003743D01*
X002364Y011617D01*
X000395Y011617D01*
X000395Y003743D01*
X000553Y003900D02*
X002206Y003900D01*
X002206Y004294D01*
X003625Y005390D02*
X003680Y005335D01*
X003900Y005335D01*
X003955Y005390D01*
X003955Y005500D01*
X003900Y005555D01*
X003955Y005703D02*
X003955Y005924D01*
X003955Y005813D02*
X003625Y005813D01*
X003735Y005703D01*
X003680Y005555D02*
X003625Y005500D01*
X003625Y005390D01*
X003680Y006072D02*
X003625Y006127D01*
X003625Y006237D01*
X003680Y006292D01*
X003735Y006292D01*
X003790Y006237D01*
X003845Y006292D01*
X003900Y006292D01*
X003955Y006237D01*
X003955Y006127D01*
X003900Y006072D01*
X003790Y006182D02*
X003790Y006237D01*
X003790Y006770D02*
X003150Y006770D01*
X003150Y008090D01*
X003790Y008090D01*
X003790Y006770D01*
X003035Y006965D02*
X002705Y006965D01*
X002705Y007130D01*
X002760Y007185D01*
X002870Y007185D01*
X002925Y007130D01*
X002925Y006965D01*
X002925Y007075D02*
X003035Y007185D01*
X003035Y007333D02*
X003035Y007554D01*
X003035Y007443D02*
X002705Y007443D01*
X002815Y007333D01*
X002815Y007702D02*
X002870Y007757D01*
X002870Y007922D01*
X002980Y007922D02*
X002760Y007922D01*
X002705Y007867D01*
X002705Y007757D01*
X002760Y007702D01*
X002815Y007702D01*
X002980Y007702D02*
X003035Y007757D01*
X003035Y007867D01*
X002980Y007922D01*
X003670Y009294D02*
X003615Y009349D01*
X003615Y009624D01*
X003680Y009815D02*
X003460Y009815D01*
X003405Y009870D01*
X003405Y009980D01*
X003460Y010035D01*
X003515Y010183D02*
X003405Y010293D01*
X003735Y010293D01*
X003735Y010183D02*
X003735Y010404D01*
X003680Y010552D02*
X003460Y010772D01*
X003680Y010772D01*
X003735Y010717D01*
X003735Y010607D01*
X003680Y010552D01*
X003460Y010552D01*
X003405Y010607D01*
X003405Y010717D01*
X003460Y010772D01*
X003340Y011135D02*
X002600Y011135D01*
X002600Y009725D01*
X003340Y009725D01*
X003340Y011135D01*
X003900Y011090D02*
X004540Y011090D01*
X004540Y009770D01*
X003900Y009770D01*
X003900Y011090D01*
X003458Y011568D02*
X002868Y011568D01*
X002868Y012710D01*
X002206Y011460D02*
X002206Y011184D01*
X002206Y011460D02*
X000553Y011460D01*
X000553Y003900D01*
X004455Y007515D02*
X004455Y007845D01*
X004620Y007845D01*
X004675Y007790D01*
X004675Y007680D01*
X004620Y007625D01*
X004455Y007625D01*
X004565Y007625D02*
X004675Y007515D01*
X004823Y007515D02*
X005044Y007515D01*
X004933Y007515D02*
X004933Y007845D01*
X004823Y007735D01*
X004379Y008129D02*
X005561Y008129D01*
X005357Y007845D02*
X005412Y007790D01*
X005412Y007735D01*
X005357Y007680D01*
X005247Y007680D01*
X005192Y007735D01*
X005192Y007790D01*
X005247Y007845D01*
X005357Y007845D01*
X005357Y007680D02*
X005412Y007625D01*
X005412Y007570D01*
X005357Y007515D01*
X005247Y007515D01*
X005192Y007570D01*
X005192Y007625D01*
X005247Y007680D01*
X005515Y007300D02*
X005515Y006560D01*
X006925Y006560D01*
X006925Y007300D01*
X005515Y007300D01*
X006400Y007520D02*
X007040Y007520D01*
X007040Y008840D01*
X006400Y008840D01*
X006400Y007520D01*
X007150Y007520D02*
X007790Y007520D01*
X007790Y008840D01*
X007150Y008840D01*
X007150Y007520D01*
X007150Y007340D02*
X007790Y007340D01*
X007790Y006020D01*
X007150Y006020D01*
X007150Y007340D01*
X007895Y007735D02*
X007895Y007900D01*
X007950Y007955D01*
X008060Y007955D01*
X008115Y007900D01*
X008115Y007735D01*
X008225Y007735D02*
X007895Y007735D01*
X008115Y007845D02*
X008225Y007955D01*
X008225Y008103D02*
X008005Y008324D01*
X007950Y008324D01*
X007895Y008268D01*
X007895Y008158D01*
X007950Y008103D01*
X008225Y008103D02*
X008225Y008324D01*
X008170Y008472D02*
X008225Y008527D01*
X008225Y008637D01*
X008170Y008692D01*
X007950Y008692D01*
X007895Y008637D01*
X007895Y008527D01*
X007950Y008472D01*
X008005Y008472D01*
X008060Y008527D01*
X008060Y008692D01*
X007790Y009020D02*
X007150Y009020D01*
X007150Y010340D01*
X007790Y010340D01*
X007790Y009020D01*
X007040Y009020D02*
X006400Y009020D01*
X006400Y010340D01*
X007040Y010340D01*
X007040Y009020D01*
X006380Y009860D02*
X006380Y010500D01*
X005060Y010500D01*
X005060Y009860D01*
X006380Y009860D01*
X006292Y010615D02*
X006292Y010670D01*
X006512Y010890D01*
X006512Y010945D01*
X006292Y010945D01*
X006033Y010945D02*
X006033Y010615D01*
X005923Y010615D02*
X006144Y010615D01*
X005923Y010835D02*
X006033Y010945D01*
X005775Y010890D02*
X005720Y010945D01*
X005610Y010945D01*
X005555Y010890D01*
X005555Y010670D01*
X005610Y010615D01*
X005720Y010615D01*
X005775Y010670D01*
X004985Y010362D02*
X004930Y010417D01*
X004710Y010417D01*
X004655Y010362D01*
X004655Y010252D01*
X004710Y010197D01*
X004765Y010197D01*
X004820Y010252D01*
X004820Y010417D01*
X004985Y010362D02*
X004985Y010252D01*
X004930Y010197D01*
X004930Y010049D02*
X004985Y009994D01*
X004985Y009883D01*
X004930Y009828D01*
X004710Y009828D01*
X004655Y009883D01*
X004655Y009994D01*
X004710Y010049D01*
X004149Y009624D02*
X003984Y009459D01*
X004204Y009459D01*
X004149Y009294D02*
X004149Y009624D01*
X003835Y009624D02*
X003835Y009349D01*
X003780Y009294D01*
X003670Y009294D01*
X003680Y009815D02*
X003735Y009870D01*
X003735Y009980D01*
X003680Y010035D01*
X004379Y009231D02*
X005561Y009231D01*
X005072Y011568D02*
X004482Y011568D01*
X005072Y011568D02*
X005072Y012710D01*
X006905Y015215D02*
X006905Y015480D01*
X006993Y015569D01*
X007170Y015569D01*
X007258Y015480D01*
X007258Y015215D01*
X007435Y015215D02*
X006905Y015215D01*
X006993Y015767D02*
X007347Y015767D01*
X007435Y015856D01*
X007435Y016033D01*
X007347Y016121D01*
X007170Y016320D02*
X007170Y016674D01*
X007347Y016872D02*
X006993Y016872D01*
X006905Y016961D01*
X006905Y017138D01*
X006993Y017226D01*
X007347Y016872D01*
X007435Y016961D01*
X007435Y017138D01*
X007347Y017226D01*
X006993Y017226D01*
X006993Y017425D02*
X006905Y017513D01*
X006905Y017690D01*
X006993Y017779D01*
X007081Y017779D01*
X007170Y017690D01*
X007258Y017779D01*
X007347Y017779D01*
X007435Y017690D01*
X007435Y017513D01*
X007347Y017425D01*
X007170Y017602D02*
X007170Y017690D01*
X008130Y016375D02*
X008185Y016375D01*
X008185Y016320D01*
X008130Y016320D01*
X008130Y016375D01*
X007965Y016172D02*
X008185Y016062D01*
X007965Y015952D01*
X008020Y015804D02*
X008075Y015804D01*
X008075Y015583D01*
X008130Y015583D02*
X008020Y015583D01*
X007965Y015638D01*
X007965Y015748D01*
X008020Y015804D01*
X008185Y015748D02*
X008185Y015638D01*
X008130Y015583D01*
X008185Y015435D02*
X008075Y015325D01*
X008075Y015380D02*
X008075Y015215D01*
X008185Y015215D02*
X007855Y015215D01*
X007855Y015380D01*
X007910Y015435D01*
X008020Y015435D01*
X008075Y015380D01*
X006993Y015767D02*
X006905Y015856D01*
X006905Y016033D01*
X006993Y016121D01*
X005072Y017650D02*
X005072Y018792D01*
X004482Y018792D01*
X004455Y019180D02*
X004675Y019180D01*
X004455Y019180D02*
X004455Y019510D01*
X004823Y019345D02*
X005043Y019345D01*
X004988Y019180D02*
X004988Y019510D01*
X004823Y019345D01*
X005311Y019843D02*
X005557Y019843D01*
X005557Y021517D01*
X005311Y021517D01*
X005135Y021965D02*
X005135Y022130D01*
X005080Y022185D01*
X004860Y022185D01*
X004805Y022130D01*
X004805Y021965D01*
X005135Y021965D01*
X005135Y022333D02*
X005135Y022554D01*
X005170Y022630D02*
X005020Y022630D01*
X005020Y024280D01*
X005170Y024280D01*
X004790Y024090D02*
X004150Y024090D01*
X004150Y022770D01*
X004790Y022770D01*
X004790Y024090D01*
X004990Y024970D02*
X006950Y024970D01*
X006950Y025890D01*
X004990Y025890D01*
X004990Y024970D01*
X004807Y025015D02*
X004587Y025015D01*
X004697Y025015D02*
X004697Y025345D01*
X004587Y025235D01*
X004439Y025345D02*
X004218Y025345D01*
X004218Y025015D01*
X004218Y025180D02*
X004328Y025180D01*
X003700Y024890D02*
X001740Y024890D01*
X001740Y023970D01*
X003700Y023970D01*
X003700Y024890D01*
X002712Y025015D02*
X002492Y025015D01*
X002712Y025235D01*
X002712Y025290D01*
X002657Y025345D01*
X002547Y025345D01*
X002492Y025290D01*
X002344Y025290D02*
X002288Y025345D01*
X002178Y025345D01*
X002123Y025290D01*
X001975Y025290D02*
X001920Y025345D01*
X001810Y025345D01*
X001755Y025290D01*
X001755Y025070D01*
X001810Y025015D01*
X001920Y025015D01*
X001975Y025070D01*
X002123Y025015D02*
X002344Y025235D01*
X002344Y025290D01*
X002344Y025015D02*
X002123Y025015D01*
X001830Y025760D02*
X001610Y025760D01*
X001555Y025815D01*
X001555Y025925D01*
X001610Y025980D01*
X001665Y026128D02*
X001555Y026238D01*
X001885Y026238D01*
X001885Y026128D02*
X001885Y026349D01*
X001830Y026497D02*
X001885Y026552D01*
X001885Y026662D01*
X001830Y026717D01*
X001610Y026717D01*
X001555Y026662D01*
X001555Y026552D01*
X001610Y026497D01*
X001665Y026497D01*
X001720Y026552D01*
X001720Y026717D01*
X001370Y027420D02*
X000570Y027420D01*
X000570Y025940D01*
X001370Y025940D01*
X001370Y027420D01*
X001830Y025980D02*
X001885Y025925D01*
X001885Y025815D01*
X001830Y025760D01*
X001470Y025680D02*
X000470Y025680D01*
X000470Y021680D01*
X001470Y021680D01*
X001470Y025680D01*
X004255Y022657D02*
X004585Y022657D01*
X004585Y022547D02*
X004585Y022767D01*
X004365Y022547D02*
X004255Y022657D01*
X004310Y022399D02*
X004255Y022344D01*
X004255Y022233D01*
X004310Y022178D01*
X004310Y022030D02*
X004255Y021975D01*
X004255Y021865D01*
X004310Y021810D01*
X004530Y021810D01*
X004585Y021865D01*
X004585Y021975D01*
X004530Y022030D01*
X004585Y022178D02*
X004365Y022399D01*
X004310Y022399D01*
X004585Y022399D02*
X004585Y022178D01*
X004805Y022443D02*
X005135Y022443D01*
X004915Y022333D02*
X004805Y022443D01*
X004129Y021517D02*
X003883Y021517D01*
X003883Y019843D01*
X004129Y019843D01*
X003630Y020000D02*
X003630Y019360D01*
X002310Y019360D01*
X002310Y020000D01*
X003630Y020000D01*
X003152Y019245D02*
X003207Y019190D01*
X003207Y019135D01*
X003152Y019080D01*
X003207Y019025D01*
X003207Y018970D01*
X003152Y018915D01*
X003042Y018915D01*
X002987Y018970D01*
X003097Y019080D02*
X003152Y019080D01*
X003152Y019245D02*
X003042Y019245D01*
X002987Y019190D01*
X002839Y019190D02*
X002784Y019245D01*
X002673Y019245D01*
X002618Y019190D01*
X002470Y019190D02*
X002470Y019080D01*
X002415Y019025D01*
X002250Y019025D01*
X002250Y018915D02*
X002250Y019245D01*
X002415Y019245D01*
X002470Y019190D01*
X002360Y019025D02*
X002470Y018915D01*
X002618Y018915D02*
X002839Y019135D01*
X002839Y019190D01*
X002839Y018915D02*
X002618Y018915D01*
X002868Y018792D02*
X002868Y017650D01*
X002715Y017779D02*
X002715Y017834D01*
X002659Y017889D01*
X002384Y017889D01*
X002384Y017834D02*
X002384Y017944D01*
X002439Y018092D02*
X002384Y018147D01*
X002384Y018258D01*
X002439Y018313D01*
X002494Y018313D01*
X002715Y018092D01*
X002715Y018313D01*
X002868Y018792D02*
X003458Y018792D01*
X002715Y017779D02*
X002659Y017724D01*
X001752Y018915D02*
X001642Y018915D01*
X001587Y018970D01*
X001587Y019080D02*
X001697Y019135D01*
X001752Y019135D01*
X001807Y019080D01*
X001807Y018970D01*
X001752Y018915D01*
X001587Y019080D02*
X001587Y019245D01*
X001807Y019245D01*
X001439Y019190D02*
X001384Y019245D01*
X001273Y019245D01*
X001218Y019190D01*
X001070Y019190D02*
X001070Y019080D01*
X001015Y019025D01*
X000850Y019025D01*
X000850Y018915D02*
X000850Y019245D01*
X001015Y019245D01*
X001070Y019190D01*
X000960Y019025D02*
X001070Y018915D01*
X001218Y018915D02*
X001439Y019135D01*
X001439Y019190D01*
X001439Y018915D02*
X001218Y018915D01*
X000810Y019360D02*
X000810Y020000D01*
X002130Y020000D01*
X002130Y019360D01*
X000810Y019360D01*
X001305Y020765D02*
X001580Y020765D01*
X001635Y020820D01*
X001635Y020930D01*
X001580Y020985D01*
X001305Y020985D01*
X001305Y021133D02*
X001470Y021133D01*
X001415Y021243D01*
X001415Y021298D01*
X001470Y021354D01*
X001580Y021354D01*
X001635Y021298D01*
X001635Y021188D01*
X001580Y021133D01*
X001305Y021133D02*
X001305Y021354D01*
X000985Y021302D02*
X000985Y021412D01*
X000930Y021467D01*
X000710Y021467D01*
X000655Y021412D01*
X000655Y021302D01*
X000710Y021247D01*
X000765Y021247D01*
X000820Y021302D01*
X000820Y021467D01*
X000985Y021302D02*
X000930Y021247D01*
X000930Y021044D02*
X000655Y021044D01*
X000655Y021099D02*
X000655Y020988D01*
X000930Y021044D02*
X000985Y020988D01*
X000985Y020933D01*
X000930Y020878D01*
X005755Y019490D02*
X005755Y019270D01*
X005810Y019215D01*
X005920Y019215D01*
X005975Y019270D01*
X006123Y019215D02*
X006344Y019435D01*
X006344Y019490D01*
X006288Y019545D01*
X006178Y019545D01*
X006123Y019490D01*
X005975Y019490D02*
X005920Y019545D01*
X005810Y019545D01*
X005755Y019490D01*
X005760Y019700D02*
X006680Y019700D01*
X006680Y021660D01*
X005760Y021660D01*
X005760Y019700D01*
X006123Y019215D02*
X006344Y019215D01*
X006492Y019270D02*
X006547Y019215D01*
X006657Y019215D01*
X006712Y019270D01*
X006712Y019325D01*
X006657Y019380D01*
X006602Y019380D01*
X006657Y019380D02*
X006712Y019435D01*
X006712Y019490D01*
X006657Y019545D01*
X006547Y019545D01*
X006492Y019490D01*
X007310Y019860D02*
X007310Y020500D01*
X008630Y020500D01*
X008630Y019860D01*
X007310Y019860D01*
X007500Y019745D02*
X007665Y019745D01*
X007720Y019690D01*
X007720Y019580D01*
X007665Y019525D01*
X007500Y019525D01*
X007500Y019415D02*
X007500Y019745D01*
X007610Y019525D02*
X007720Y019415D01*
X007868Y019415D02*
X008089Y019635D01*
X008089Y019690D01*
X008034Y019745D01*
X007923Y019745D01*
X007868Y019690D01*
X007868Y019415D02*
X008089Y019415D01*
X008237Y019415D02*
X008237Y019470D01*
X008457Y019690D01*
X008457Y019745D01*
X008237Y019745D01*
X009120Y019580D02*
X009470Y019580D01*
X009470Y019430D01*
X009120Y019580D02*
X009120Y021280D01*
X010820Y021280D01*
X010820Y020930D01*
X010970Y020930D01*
X010907Y021715D02*
X010797Y021715D01*
X010742Y021770D01*
X010742Y021880D02*
X010852Y021935D01*
X010907Y021935D01*
X010962Y021880D01*
X010962Y021770D01*
X010907Y021715D01*
X010742Y021880D02*
X010742Y022045D01*
X010962Y022045D01*
X010470Y022180D02*
X011470Y022180D01*
X011470Y025180D01*
X010470Y025180D01*
X010470Y022180D01*
X010428Y022045D02*
X010373Y021990D01*
X010428Y022045D02*
X010538Y022045D01*
X010594Y021990D01*
X010594Y021935D01*
X010373Y021715D01*
X010594Y021715D01*
X010225Y021770D02*
X010170Y021715D01*
X010060Y021715D01*
X010005Y021770D01*
X010005Y021990D01*
X010060Y022045D01*
X010170Y022045D01*
X010225Y021990D01*
X009930Y021700D02*
X009930Y023660D01*
X009010Y023660D01*
X009010Y021700D01*
X009930Y021700D01*
X008700Y022470D02*
X008700Y023390D01*
X006740Y023390D01*
X006740Y022470D01*
X008700Y022470D01*
X008153Y021824D02*
X008114Y021824D01*
X008153Y021824D02*
X008153Y021036D01*
X007287Y021036D02*
X007287Y021824D01*
X007326Y021824D01*
X007118Y021620D02*
X007063Y021620D01*
X007008Y021565D01*
X007008Y021400D01*
X007118Y021400D01*
X007173Y021455D01*
X007173Y021565D01*
X007118Y021620D01*
X006898Y021510D02*
X007008Y021400D01*
X006898Y021510D02*
X006843Y021620D01*
X006843Y021252D02*
X007118Y021252D01*
X007173Y021197D01*
X007173Y021087D01*
X007118Y021032D01*
X006843Y021032D01*
X006420Y022630D02*
X006270Y022630D01*
X006420Y022630D02*
X006420Y024280D01*
X006270Y024280D01*
X006835Y023800D02*
X006835Y023580D01*
X006890Y023525D01*
X007000Y023525D01*
X007055Y023580D01*
X007203Y023525D02*
X007424Y023745D01*
X007424Y023800D01*
X007368Y023855D01*
X007258Y023855D01*
X007203Y023800D01*
X007055Y023800D02*
X007000Y023855D01*
X006890Y023855D01*
X006835Y023800D01*
X007203Y023525D02*
X007424Y023525D01*
X007572Y023690D02*
X007792Y023690D01*
X007737Y023525D02*
X007737Y023855D01*
X007572Y023690D01*
X007854Y023893D02*
X007854Y024129D01*
X007854Y023893D02*
X009586Y023893D01*
X009586Y024129D01*
X009586Y025231D02*
X009586Y025467D01*
X007854Y025467D01*
X007854Y025231D01*
X007855Y025615D02*
X008075Y025615D01*
X008223Y025670D02*
X008278Y025615D01*
X008388Y025615D01*
X008444Y025670D01*
X008444Y025780D01*
X008388Y025835D01*
X008333Y025835D01*
X008223Y025780D01*
X008223Y025945D01*
X008444Y025945D01*
X008789Y026052D02*
X008986Y026052D01*
X008789Y026052D02*
X008789Y028808D01*
X008986Y028808D01*
X009773Y028808D02*
X010167Y028808D01*
X010954Y028808D02*
X011151Y028808D01*
X011151Y026052D01*
X010954Y026052D01*
X011304Y026106D02*
X011634Y026106D01*
X011634Y026327D01*
X011579Y026475D02*
X011634Y026530D01*
X011634Y026640D01*
X011579Y026695D01*
X011524Y026695D01*
X011469Y026640D01*
X011469Y026585D01*
X011469Y026640D02*
X011414Y026695D01*
X011359Y026695D01*
X011304Y026640D01*
X011304Y026530D01*
X011359Y026475D01*
X012139Y026839D02*
X018301Y026839D01*
X018301Y023832D01*
X018081Y023832D01*
X018455Y023838D02*
X018455Y023949D01*
X018455Y023894D02*
X018730Y023894D01*
X018785Y023838D01*
X018785Y023783D01*
X018730Y023728D01*
X018730Y024097D02*
X018785Y024152D01*
X018785Y024262D01*
X018730Y024317D01*
X018620Y024317D01*
X018565Y024262D01*
X018565Y024207D01*
X018620Y024097D01*
X018455Y024097D01*
X018455Y024317D01*
X017159Y023832D02*
X016881Y023832D01*
X016359Y023832D02*
X016081Y023832D01*
X013559Y023832D02*
X013281Y023832D01*
X012359Y023832D02*
X012139Y023832D01*
X012139Y026839D01*
X010167Y026052D02*
X009773Y026052D01*
X008260Y027409D02*
X008064Y027402D01*
X008260Y027409D02*
X008174Y030064D01*
X006206Y029956D02*
X006234Y029032D01*
X005926Y029290D02*
X005979Y029347D01*
X005976Y029457D01*
X005919Y029510D01*
X005864Y029508D01*
X005811Y029451D01*
X005814Y029341D01*
X005761Y029284D01*
X005706Y029282D01*
X005649Y029335D01*
X005646Y029445D01*
X005699Y029502D01*
X005754Y029504D01*
X005811Y029451D01*
X005814Y029341D02*
X005871Y029288D01*
X005926Y029290D01*
X005968Y029660D02*
X005965Y029770D01*
X005967Y029715D02*
X005692Y029705D01*
X005635Y029758D01*
X005633Y029813D01*
X005686Y029870D01*
X006278Y027773D02*
X006293Y027340D01*
X006490Y027347D01*
X006710Y026830D02*
X006710Y026030D01*
X005230Y026030D01*
X005230Y026830D01*
X006710Y026830D01*
X006910Y026445D02*
X006855Y026390D01*
X006855Y026170D01*
X006910Y026115D01*
X007020Y026115D01*
X007075Y026170D01*
X007223Y026115D02*
X007444Y026115D01*
X007333Y026115D02*
X007333Y026445D01*
X007223Y026335D01*
X007075Y026390D02*
X007020Y026445D01*
X006910Y026445D01*
X007592Y026390D02*
X007592Y026335D01*
X007647Y026280D01*
X007757Y026280D01*
X007812Y026225D01*
X007812Y026170D01*
X007757Y026115D01*
X007647Y026115D01*
X007592Y026170D01*
X007592Y026225D01*
X007647Y026280D01*
X007757Y026280D02*
X007812Y026335D01*
X007812Y026390D01*
X007757Y026445D01*
X007647Y026445D01*
X007592Y026390D01*
X007855Y025945D02*
X007855Y025615D01*
X011555Y023162D02*
X011610Y023217D01*
X011830Y022997D01*
X011885Y023052D01*
X011885Y023162D01*
X011830Y023217D01*
X011610Y023217D01*
X011555Y023162D02*
X011555Y023052D01*
X011610Y022997D01*
X011830Y022997D01*
X011885Y022849D02*
X011885Y022628D01*
X011885Y022738D02*
X011555Y022738D01*
X011665Y022628D01*
X011555Y022480D02*
X011555Y022370D01*
X011555Y022425D02*
X011830Y022425D01*
X011885Y022370D01*
X011885Y022315D01*
X011830Y022260D01*
X021055Y024320D02*
X021110Y024265D01*
X021220Y024265D01*
X021275Y024320D01*
X021275Y024595D01*
X021423Y024485D02*
X021533Y024595D01*
X021533Y024265D01*
X021423Y024265D02*
X021644Y024265D01*
X021055Y024320D02*
X021055Y024595D01*
X022730Y025030D02*
X022730Y025830D01*
X024210Y025830D01*
X024210Y025030D01*
X022730Y025030D01*
X022810Y025000D02*
X022810Y024360D01*
X024130Y024360D01*
X024130Y025000D01*
X022810Y025000D01*
X022930Y024205D02*
X022875Y024150D01*
X022875Y023930D01*
X022930Y023875D01*
X023040Y023875D01*
X023095Y023930D01*
X023243Y023875D02*
X023464Y023875D01*
X023353Y023875D02*
X023353Y024205D01*
X023243Y024095D01*
X023095Y024150D02*
X023040Y024205D01*
X022930Y024205D01*
X024230Y023830D02*
X024230Y023030D01*
X025710Y023030D01*
X025710Y023830D01*
X024230Y023830D01*
X024720Y023980D02*
X024720Y024430D01*
X024320Y024440D02*
X025120Y024440D01*
X025120Y025920D01*
X024320Y025920D01*
X024320Y024440D01*
X024720Y023980D02*
X025850Y023980D01*
X025844Y024045D02*
X025623Y024045D01*
X025844Y024265D01*
X025844Y024320D01*
X025788Y024375D01*
X025678Y024375D01*
X025623Y024320D01*
X025790Y024520D02*
X025150Y024520D01*
X025150Y025840D01*
X025790Y025840D01*
X025790Y024520D01*
X025475Y024045D02*
X025255Y024045D01*
X025255Y024375D01*
X026470Y024830D02*
X026470Y024910D01*
X026970Y024830D02*
X026970Y025030D01*
X026790Y025500D02*
X026650Y025500D01*
X026408Y025725D02*
X026298Y025725D01*
X026243Y025780D01*
X026095Y025780D02*
X026040Y025725D01*
X025930Y025725D01*
X025875Y025780D01*
X025875Y026000D01*
X025930Y026055D01*
X026040Y026055D01*
X026095Y026000D01*
X026243Y026000D02*
X026298Y026055D01*
X026408Y026055D01*
X026464Y026000D01*
X026464Y025945D01*
X026408Y025890D01*
X026464Y025835D01*
X026464Y025780D01*
X026408Y025725D01*
X026408Y025890D02*
X026353Y025890D01*
X027605Y025062D02*
X027715Y024952D01*
X027715Y024804D02*
X027935Y024804D01*
X027935Y024952D02*
X027935Y025172D01*
X027935Y025062D02*
X027605Y025062D01*
X027715Y024804D02*
X027605Y024693D01*
X027715Y024583D01*
X027935Y024583D01*
X027880Y024435D02*
X027660Y024435D01*
X027605Y024380D01*
X027605Y024215D01*
X027935Y024215D01*
X027935Y024380D01*
X027880Y024435D01*
X027770Y024583D02*
X027770Y024804D01*
X028160Y025500D02*
X028215Y025500D01*
X028270Y025555D01*
X028270Y025831D01*
X028215Y025831D02*
X028325Y025831D01*
X028454Y025954D02*
X028514Y026640D01*
X028454Y025954D02*
X023305Y026404D01*
X023365Y027091D01*
X023370Y026245D02*
X023260Y026245D01*
X023205Y026190D01*
X023205Y025970D01*
X023260Y025915D01*
X023370Y025915D01*
X023425Y025970D01*
X023573Y025915D02*
X023794Y026135D01*
X023794Y026190D01*
X023738Y026245D01*
X023628Y026245D01*
X023573Y026190D01*
X023425Y026190D02*
X023370Y026245D01*
X023573Y025915D02*
X023794Y025915D01*
X023502Y028660D02*
X023605Y029855D01*
X028105Y025555D02*
X028160Y025500D01*
X028474Y025555D02*
X028529Y025500D01*
X028639Y025500D01*
X028694Y025555D01*
X028694Y025611D01*
X028639Y025666D01*
X028474Y025666D01*
X028474Y025555D01*
X028474Y025666D02*
X028584Y025776D01*
X028694Y025831D01*
X026790Y024360D02*
X026650Y024360D01*
X025697Y022945D02*
X025697Y022615D01*
X025587Y022615D02*
X025807Y022615D01*
X025587Y022835D02*
X025697Y022945D01*
X025439Y022615D02*
X025218Y022615D01*
X025218Y022945D01*
X024820Y021280D02*
X024820Y019580D01*
X024470Y019580D01*
X024470Y019430D01*
X025041Y020600D02*
X025317Y020600D01*
X025372Y020655D01*
X025372Y020766D01*
X025317Y020821D01*
X025041Y020821D01*
X025096Y020969D02*
X025041Y021024D01*
X025041Y021134D01*
X025096Y021189D01*
X025151Y021189D01*
X025372Y020969D01*
X025372Y021189D01*
X024820Y021280D02*
X023120Y021280D01*
X023120Y020930D01*
X022970Y020930D01*
X025560Y019000D02*
X025560Y018360D01*
X026880Y018360D01*
X026880Y019000D01*
X025560Y019000D01*
X025560Y018250D02*
X026880Y018250D01*
X026880Y017610D01*
X025560Y017610D01*
X025560Y018250D01*
X027055Y018045D02*
X027055Y017715D01*
X027055Y017825D02*
X027220Y017825D01*
X027275Y017880D01*
X027275Y017990D01*
X027220Y018045D01*
X027055Y018045D01*
X027165Y017825D02*
X027275Y017715D01*
X027423Y017880D02*
X027644Y017880D01*
X027588Y017715D02*
X027588Y018045D01*
X027423Y017880D01*
X027478Y018515D02*
X027423Y018570D01*
X027478Y018515D02*
X027588Y018515D01*
X027644Y018570D01*
X027644Y018625D01*
X027588Y018680D01*
X027533Y018680D01*
X027588Y018680D02*
X027644Y018735D01*
X027644Y018790D01*
X027588Y018845D01*
X027478Y018845D01*
X027423Y018790D01*
X027275Y018790D02*
X027275Y018680D01*
X027220Y018625D01*
X027055Y018625D01*
X027055Y018515D02*
X027055Y018845D01*
X027220Y018845D01*
X027275Y018790D01*
X027165Y018625D02*
X027275Y018515D01*
X026762Y016567D02*
X026810Y016550D01*
X026870Y016515D01*
X026898Y016488D01*
X026919Y016455D01*
X026934Y016419D01*
X026940Y016380D01*
X026935Y016342D01*
X026925Y016305D01*
X026910Y016270D01*
X026970Y016270D01*
X026993Y016290D01*
X027020Y016304D01*
X027050Y016311D01*
X027080Y016310D01*
X027107Y016298D01*
X027130Y016280D01*
X027148Y016257D01*
X027160Y016230D01*
X027180Y016185D01*
X027191Y016154D01*
X027197Y016121D01*
X027196Y016088D01*
X027190Y016055D01*
X027160Y015960D01*
X027147Y015934D01*
X027128Y015912D01*
X027106Y015893D01*
X027080Y015880D01*
X027060Y015875D01*
X027040Y015875D01*
X027020Y015880D01*
X026947Y015915D01*
X026880Y015960D01*
X026750Y016060D01*
X026710Y016030D01*
X026700Y015971D01*
X026702Y015911D01*
X026716Y015853D01*
X026740Y015799D01*
X026775Y015750D01*
X026695Y015765D01*
X026675Y015795D01*
X026652Y015832D01*
X026638Y015873D01*
X026634Y015917D01*
X026640Y015960D01*
X026653Y015991D01*
X026670Y016020D01*
X026610Y016020D01*
X026410Y015920D01*
X026383Y015912D01*
X026354Y015910D01*
X026326Y015914D01*
X026300Y015925D01*
X026290Y015931D01*
X026281Y015940D01*
X026275Y015950D01*
X026261Y015979D01*
X026250Y016010D01*
X026241Y016063D01*
X026241Y016117D01*
X026250Y016170D01*
X026266Y016217D01*
X026290Y016260D01*
X026306Y016279D01*
X026325Y016294D01*
X026348Y016303D01*
X026372Y016308D01*
X026396Y016307D01*
X026420Y016300D01*
X026459Y016287D01*
X026500Y016280D01*
X026500Y016340D01*
X026470Y016400D01*
X026461Y016426D01*
X026459Y016454D01*
X026465Y016481D01*
X026478Y016505D01*
X026497Y016525D01*
X026520Y016540D01*
X026564Y016557D01*
X026610Y016570D01*
X026661Y016577D01*
X026712Y016576D01*
X026762Y016567D01*
X026806Y016552D02*
X026550Y016552D01*
X026466Y016483D02*
X026901Y016483D01*
X026934Y016415D02*
X026465Y016415D01*
X026497Y016346D02*
X026936Y016346D01*
X026913Y016278D02*
X026305Y016278D01*
X026264Y016209D02*
X027169Y016209D01*
X027193Y016141D02*
X026245Y016141D01*
X026241Y016072D02*
X027193Y016072D01*
X027174Y016004D02*
X026823Y016004D01*
X026917Y015935D02*
X027147Y015935D01*
X027132Y016278D02*
X026978Y016278D01*
X026071Y016170D02*
X026073Y016220D01*
X026079Y016270D01*
X026089Y016319D01*
X026102Y016367D01*
X026120Y016415D01*
X026141Y016460D01*
X026165Y016504D01*
X026193Y016546D01*
X026224Y016585D01*
X026258Y016622D01*
X026295Y016656D01*
X026334Y016687D01*
X026376Y016715D01*
X026420Y016739D01*
X026465Y016760D01*
X026513Y016778D01*
X026561Y016791D01*
X026610Y016801D01*
X026660Y016807D01*
X026710Y016809D01*
X026760Y016807D01*
X026810Y016801D01*
X026859Y016791D01*
X026907Y016778D01*
X026955Y016760D01*
X027000Y016739D01*
X027044Y016715D01*
X027086Y016687D01*
X027125Y016656D01*
X027162Y016622D01*
X027196Y016585D01*
X027227Y016546D01*
X027255Y016504D01*
X027279Y016460D01*
X027300Y016415D01*
X027318Y016367D01*
X027331Y016319D01*
X027341Y016270D01*
X027347Y016220D01*
X027349Y016170D01*
X027347Y016120D01*
X027341Y016070D01*
X027331Y016021D01*
X027318Y015973D01*
X027300Y015925D01*
X027279Y015880D01*
X027255Y015836D01*
X027227Y015794D01*
X027196Y015755D01*
X027162Y015718D01*
X027125Y015684D01*
X027086Y015653D01*
X027044Y015625D01*
X027000Y015601D01*
X026955Y015580D01*
X026907Y015562D01*
X026859Y015549D01*
X026810Y015539D01*
X026760Y015533D01*
X026710Y015531D01*
X026660Y015533D01*
X026610Y015539D01*
X026561Y015549D01*
X026513Y015562D01*
X026465Y015580D01*
X026420Y015601D01*
X026376Y015625D01*
X026334Y015653D01*
X026295Y015684D01*
X026258Y015718D01*
X026224Y015755D01*
X026193Y015794D01*
X026165Y015836D01*
X026141Y015880D01*
X026120Y015925D01*
X026102Y015973D01*
X026089Y016021D01*
X026079Y016070D01*
X026073Y016120D01*
X026071Y016170D01*
X026252Y016004D02*
X026577Y016004D01*
X026661Y016004D02*
X026706Y016004D01*
X026702Y015935D02*
X026636Y015935D01*
X026640Y015867D02*
X026713Y015867D01*
X026741Y015798D02*
X026673Y015798D01*
X026440Y015935D02*
X026286Y015935D01*
X023720Y013430D02*
X023470Y013680D01*
X023470Y013180D01*
X023720Y013430D01*
X023691Y013401D02*
X023470Y013401D01*
X023470Y013469D02*
X023681Y013469D01*
X023612Y013538D02*
X023470Y013538D01*
X023470Y013606D02*
X023544Y013606D01*
X023475Y013675D02*
X023470Y013675D01*
X023470Y013332D02*
X023622Y013332D01*
X023554Y013264D02*
X023470Y013264D01*
X023470Y013195D02*
X023485Y013195D01*
X026643Y009686D02*
X028297Y009686D01*
X028297Y009568D01*
X028297Y009017D02*
X028297Y008780D01*
X028297Y008229D02*
X028297Y007993D01*
X028297Y007442D02*
X028297Y007206D01*
X028297Y006654D02*
X028297Y006418D01*
X028297Y005867D02*
X028297Y005631D01*
X028297Y005080D02*
X028297Y004843D01*
X028297Y004292D02*
X028297Y004174D01*
X026643Y004174D01*
X026643Y004292D01*
X026643Y004843D02*
X026643Y005080D01*
X026643Y005631D02*
X026643Y005867D01*
X026643Y006418D02*
X026643Y006654D01*
X026643Y007206D02*
X026643Y007442D01*
X026643Y007993D02*
X026643Y008229D01*
X026643Y008780D02*
X026643Y009017D01*
X026643Y009568D02*
X026643Y009686D01*
X024820Y007280D02*
X024470Y007280D01*
X024470Y007430D01*
X024820Y007280D02*
X024820Y005580D01*
X023120Y005580D01*
X023120Y005930D01*
X022970Y005930D01*
X024598Y002423D02*
X024565Y002100D01*
X024457Y002065D01*
X024356Y002013D01*
X024104Y002218D01*
X023932Y002046D01*
X024137Y001794D01*
X024085Y001693D01*
X024050Y001585D01*
X023727Y001552D01*
X023727Y001308D01*
X024050Y001275D01*
X024085Y001167D01*
X024137Y001066D01*
X023932Y000814D01*
X024104Y000642D01*
X024356Y000847D01*
X024457Y000795D01*
X024600Y001141D01*
X024546Y001170D01*
X024499Y001209D01*
X024460Y001256D01*
X024431Y001310D01*
X024414Y001369D01*
X024408Y001430D01*
X024414Y001494D01*
X024434Y001555D01*
X024465Y001611D01*
X024507Y001659D01*
X024559Y001698D01*
X024617Y001725D01*
X024679Y001740D01*
X024743Y001742D01*
X024807Y001730D01*
X024866Y001706D01*
X024919Y001671D01*
X024964Y001625D01*
X024999Y001571D01*
X025022Y001511D01*
X025032Y001448D01*
X025029Y001383D01*
X025013Y001321D01*
X024985Y001264D01*
X024945Y001213D01*
X024896Y001172D01*
X024840Y001141D01*
X024983Y000795D01*
X025084Y000847D01*
X025336Y000642D01*
X025508Y000814D01*
X025303Y001066D01*
X025355Y001167D01*
X025390Y001275D01*
X025713Y001308D01*
X025713Y001552D01*
X025390Y001585D01*
X025355Y001693D01*
X025303Y001794D01*
X025508Y002046D01*
X025336Y002218D01*
X025084Y002013D01*
X024983Y002065D01*
X024875Y002100D01*
X024842Y002423D01*
X024598Y002423D01*
X024593Y002372D02*
X024847Y002372D01*
X024854Y002304D02*
X024586Y002304D01*
X024579Y002235D02*
X024861Y002235D01*
X024868Y002167D02*
X024572Y002167D01*
X024560Y002098D02*
X024881Y002098D01*
X025052Y002030D02*
X024388Y002030D01*
X024335Y002030D02*
X023945Y002030D01*
X023984Y002098D02*
X024251Y002098D01*
X024167Y002167D02*
X024053Y002167D01*
X024001Y001961D02*
X025439Y001961D01*
X025495Y002030D02*
X025105Y002030D01*
X025189Y002098D02*
X025456Y002098D01*
X025387Y002167D02*
X025273Y002167D01*
X025383Y001893D02*
X024057Y001893D01*
X024113Y001824D02*
X025327Y001824D01*
X025323Y001756D02*
X024117Y001756D01*
X024083Y001687D02*
X024545Y001687D01*
X024472Y001619D02*
X024061Y001619D01*
X023727Y001550D02*
X024432Y001550D01*
X024413Y001482D02*
X023727Y001482D01*
X023727Y001413D02*
X024409Y001413D01*
X024421Y001345D02*
X023727Y001345D01*
X024044Y001276D02*
X024450Y001276D01*
X024501Y001208D02*
X024072Y001208D01*
X024099Y001139D02*
X024599Y001139D01*
X024571Y001071D02*
X024134Y001071D01*
X024085Y001002D02*
X024543Y001002D01*
X024514Y000934D02*
X024029Y000934D01*
X023973Y000865D02*
X024486Y000865D01*
X024458Y000797D02*
X024454Y000797D01*
X024294Y000797D02*
X023950Y000797D01*
X024018Y000728D02*
X024210Y000728D01*
X024126Y000660D02*
X024087Y000660D01*
X024841Y001139D02*
X025341Y001139D01*
X025368Y001208D02*
X024938Y001208D01*
X024991Y001276D02*
X025396Y001276D01*
X025306Y001071D02*
X024869Y001071D01*
X024897Y001002D02*
X025355Y001002D01*
X025411Y000934D02*
X024926Y000934D01*
X024954Y000865D02*
X025467Y000865D01*
X025490Y000797D02*
X025146Y000797D01*
X025230Y000728D02*
X025422Y000728D01*
X025353Y000660D02*
X025314Y000660D01*
X024986Y000797D02*
X024982Y000797D01*
X025019Y001345D02*
X025713Y001345D01*
X025713Y001413D02*
X025030Y001413D01*
X025027Y001482D02*
X025713Y001482D01*
X025713Y001550D02*
X025007Y001550D01*
X024968Y001619D02*
X025379Y001619D01*
X025357Y001687D02*
X024895Y001687D01*
X027518Y003620D02*
X027573Y003565D01*
X027628Y003565D01*
X027684Y003620D01*
X027684Y003895D01*
X027739Y003895D02*
X027628Y003895D01*
X027887Y003785D02*
X027997Y003895D01*
X027997Y003565D01*
X027887Y003565D02*
X028107Y003565D01*
X019170Y001830D02*
X016770Y001830D01*
X016720Y001828D01*
X016671Y001822D01*
X016622Y001813D01*
X016574Y001800D01*
X016527Y001783D01*
X016482Y001763D01*
X016438Y001739D01*
X016396Y001712D01*
X016356Y001681D01*
X016319Y001648D01*
X016285Y001612D01*
X016253Y001574D01*
X016224Y001533D01*
X016199Y001491D01*
X016177Y001446D01*
X016158Y001400D01*
X016143Y001352D01*
X016132Y001304D01*
X016124Y001255D01*
X016120Y001205D01*
X016120Y001155D01*
X016124Y001105D01*
X016132Y001056D01*
X016143Y001008D01*
X016158Y000960D01*
X016177Y000914D01*
X016199Y000869D01*
X016224Y000827D01*
X016253Y000786D01*
X016285Y000748D01*
X016319Y000712D01*
X016356Y000679D01*
X016396Y000648D01*
X016438Y000621D01*
X016482Y000597D01*
X016527Y000577D01*
X016574Y000560D01*
X016622Y000547D01*
X016671Y000538D01*
X016720Y000532D01*
X016770Y000530D01*
X019170Y000530D01*
X019220Y000532D01*
X019269Y000538D01*
X019318Y000547D01*
X019366Y000560D01*
X019413Y000577D01*
X019458Y000597D01*
X019502Y000621D01*
X019544Y000648D01*
X019584Y000679D01*
X019621Y000712D01*
X019655Y000748D01*
X019687Y000786D01*
X019716Y000827D01*
X019741Y000869D01*
X019763Y000914D01*
X019782Y000960D01*
X019797Y001008D01*
X019808Y001056D01*
X019816Y001105D01*
X019820Y001155D01*
X019820Y001205D01*
X019816Y001255D01*
X019808Y001304D01*
X019797Y001352D01*
X019782Y001400D01*
X019763Y001446D01*
X019741Y001491D01*
X019716Y001533D01*
X019687Y001574D01*
X019655Y001612D01*
X019621Y001648D01*
X019584Y001681D01*
X019544Y001712D01*
X019502Y001739D01*
X019458Y001763D01*
X019413Y001783D01*
X019366Y001800D01*
X019318Y001813D01*
X019269Y001822D01*
X019220Y001828D01*
X019170Y001830D01*
X018470Y001180D02*
X018220Y001180D01*
X018220Y001480D01*
X018070Y001480D02*
X018070Y000880D01*
X017870Y000880D01*
X017870Y001480D01*
X018070Y001480D01*
X018220Y001180D02*
X018220Y000880D01*
X017720Y000880D02*
X017720Y001180D01*
X017470Y001180D01*
X017720Y001180D02*
X017720Y001480D01*
X017060Y002610D02*
X017060Y003250D01*
X018380Y003250D01*
X018380Y002610D01*
X017060Y002610D01*
X016832Y002805D02*
X016722Y002805D01*
X016667Y002860D01*
X016667Y002970D02*
X016777Y003025D01*
X016832Y003025D01*
X016887Y002970D01*
X016887Y002860D01*
X016832Y002805D01*
X016667Y002970D02*
X016667Y003135D01*
X016887Y003135D01*
X017060Y003360D02*
X017060Y004000D01*
X018380Y004000D01*
X018380Y003360D01*
X017060Y003360D01*
X016667Y003455D02*
X016667Y003510D01*
X016887Y003730D01*
X016887Y003785D01*
X016667Y003785D01*
X016408Y003785D02*
X016408Y003455D01*
X016298Y003455D02*
X016519Y003455D01*
X016298Y003675D02*
X016408Y003785D01*
X016150Y003730D02*
X016150Y003620D01*
X016095Y003565D01*
X015930Y003565D01*
X015930Y003455D02*
X015930Y003785D01*
X016095Y003785D01*
X016150Y003730D01*
X016040Y003565D02*
X016150Y003455D01*
X016095Y003135D02*
X015930Y003135D01*
X015930Y002805D01*
X015930Y002915D02*
X016095Y002915D01*
X016150Y002970D01*
X016150Y003080D01*
X016095Y003135D01*
X016040Y002915D02*
X016150Y002805D01*
X016298Y002805D02*
X016519Y002805D01*
X016408Y002805D02*
X016408Y003135D01*
X016298Y003025D01*
X016298Y004205D02*
X016519Y004205D01*
X016408Y004205D02*
X016408Y004535D01*
X016298Y004425D01*
X016150Y004370D02*
X016095Y004315D01*
X015930Y004315D01*
X015930Y004205D02*
X015930Y004535D01*
X016095Y004535D01*
X016150Y004480D01*
X016150Y004370D01*
X016040Y004315D02*
X016150Y004205D01*
X016667Y004260D02*
X016722Y004205D01*
X016832Y004205D01*
X016887Y004260D01*
X016887Y004315D01*
X016832Y004370D01*
X016667Y004370D01*
X016667Y004260D01*
X016667Y004370D02*
X016777Y004480D01*
X016887Y004535D01*
X017060Y004750D02*
X017060Y004110D01*
X018380Y004110D01*
X018380Y004750D01*
X017060Y004750D01*
X014385Y004645D02*
X012893Y004645D01*
X012893Y001023D01*
X014385Y001023D01*
X014385Y004645D01*
X011380Y004360D02*
X011380Y005000D01*
X010060Y005000D01*
X010060Y004360D01*
X011380Y004360D01*
X011380Y004250D02*
X011380Y003610D01*
X010060Y003610D01*
X010060Y004250D01*
X011380Y004250D01*
X011425Y003550D02*
X011425Y002810D01*
X010015Y002810D01*
X010015Y003550D01*
X011425Y003550D01*
X010552Y002545D02*
X010607Y002490D01*
X010607Y002435D01*
X010552Y002380D01*
X010442Y002380D01*
X010387Y002435D01*
X010387Y002490D01*
X010442Y002545D01*
X010552Y002545D01*
X010552Y002380D02*
X010607Y002325D01*
X010607Y002270D01*
X010552Y002215D01*
X010442Y002215D01*
X010387Y002270D01*
X010387Y002325D01*
X010442Y002380D01*
X010239Y002270D02*
X010184Y002215D01*
X010073Y002215D01*
X010018Y002270D01*
X010018Y002490D01*
X010073Y002545D01*
X010184Y002545D01*
X010239Y002490D01*
X010184Y002045D02*
X010073Y002045D01*
X010018Y001990D01*
X010018Y001770D01*
X010073Y001715D01*
X010184Y001715D01*
X010239Y001770D01*
X010387Y001770D02*
X010387Y001715D01*
X010387Y001770D02*
X010607Y001990D01*
X010607Y002045D01*
X010387Y002045D01*
X010239Y001990D02*
X010184Y002045D01*
X010184Y001545D02*
X010073Y001545D01*
X010018Y001490D01*
X010018Y001270D01*
X010073Y001215D01*
X010184Y001215D01*
X010239Y001270D01*
X010387Y001270D02*
X010387Y001380D01*
X010552Y001380D01*
X010607Y001325D01*
X010607Y001270D01*
X010552Y001215D01*
X010442Y001215D01*
X010387Y001270D01*
X010387Y001380D02*
X010497Y001490D01*
X010607Y001545D01*
X010239Y001490D02*
X010184Y001545D01*
X010139Y000795D02*
X010194Y000740D01*
X010194Y000520D01*
X010139Y000465D01*
X010029Y000465D01*
X009974Y000520D01*
X009974Y000740D01*
X010029Y000795D01*
X010139Y000795D01*
X010342Y000795D02*
X010562Y000465D01*
X010562Y000795D01*
X010342Y000795D02*
X010342Y000465D01*
X010710Y000465D02*
X010765Y000465D01*
X010765Y000520D01*
X010710Y000520D01*
X010710Y000465D01*
X010895Y000520D02*
X010950Y000465D01*
X011060Y000465D01*
X011115Y000520D01*
X011263Y000520D02*
X011263Y000740D01*
X011318Y000795D01*
X011428Y000795D01*
X011483Y000740D01*
X011483Y000520D01*
X011428Y000465D01*
X011318Y000465D01*
X011263Y000520D01*
X011115Y000740D02*
X011060Y000795D01*
X010950Y000795D01*
X010895Y000740D01*
X010895Y000520D01*
X011631Y000465D02*
X011631Y000795D01*
X011741Y000685D01*
X011851Y000795D01*
X011851Y000465D01*
X013420Y001030D02*
X013422Y001058D01*
X013427Y001086D01*
X013436Y001113D01*
X013448Y001138D01*
X013463Y001162D01*
X013481Y001184D01*
X013502Y001203D01*
X013524Y001220D01*
X013549Y001234D01*
X013575Y001244D01*
X013603Y001251D01*
X013631Y001255D01*
X013659Y001255D01*
X013687Y001251D01*
X013715Y001244D01*
X013741Y001234D01*
X013766Y001220D01*
X013788Y001203D01*
X013809Y001184D01*
X013827Y001162D01*
X013842Y001138D01*
X013854Y001113D01*
X013863Y001086D01*
X013868Y001058D01*
X013870Y001030D01*
X013868Y000745D02*
X013868Y000470D01*
X013923Y000415D01*
X014034Y000415D01*
X014089Y000470D01*
X014089Y000745D01*
X014237Y000690D02*
X014292Y000745D01*
X014402Y000745D01*
X014457Y000690D01*
X014457Y000635D01*
X014402Y000580D01*
X014457Y000525D01*
X014457Y000470D01*
X014402Y000415D01*
X014292Y000415D01*
X014237Y000470D01*
X014347Y000580D02*
X014402Y000580D01*
X009826Y000630D02*
X009716Y000630D01*
X009826Y000630D02*
X009826Y000520D01*
X009771Y000465D01*
X009661Y000465D01*
X009605Y000520D01*
X009605Y000740D01*
X009661Y000795D01*
X009771Y000795D01*
X009826Y000740D01*
X009470Y000795D02*
X009360Y000795D01*
X009415Y000795D02*
X009415Y000465D01*
X009360Y000465D02*
X009470Y000465D01*
X009212Y000465D02*
X009102Y000575D01*
X009157Y000575D02*
X008992Y000575D01*
X008992Y000465D02*
X008992Y000795D01*
X009157Y000795D01*
X009212Y000740D01*
X009212Y000630D01*
X009157Y000575D01*
X008844Y000795D02*
X008623Y000795D01*
X008623Y000465D01*
X008475Y000520D02*
X008420Y000465D01*
X008255Y000465D01*
X008255Y000795D01*
X008420Y000795D01*
X008475Y000740D01*
X008475Y000685D01*
X008420Y000630D01*
X008255Y000630D01*
X008420Y000630D02*
X008475Y000575D01*
X008475Y000520D01*
X008623Y000630D02*
X008733Y000630D01*
X007585Y004915D02*
X007255Y004915D01*
X007255Y005080D01*
X007310Y005135D01*
X007420Y005135D01*
X007475Y005080D01*
X007475Y004915D01*
X007475Y005025D02*
X007585Y005135D01*
X007585Y005283D02*
X007365Y005504D01*
X007310Y005504D01*
X007255Y005448D01*
X007255Y005338D01*
X007310Y005283D01*
X007585Y005283D02*
X007585Y005504D01*
X007585Y005652D02*
X007585Y005872D01*
X007585Y005762D02*
X007255Y005762D01*
X007365Y005652D01*
X006880Y005610D02*
X005560Y005610D01*
X005560Y006250D01*
X006880Y006250D01*
X006880Y005610D01*
X006707Y005445D02*
X006542Y005280D01*
X006762Y005280D01*
X006707Y005115D02*
X006707Y005445D01*
X006394Y005115D02*
X006173Y005115D01*
X006283Y005115D02*
X006283Y005445D01*
X006173Y005335D01*
X006025Y005390D02*
X005970Y005445D01*
X005860Y005445D01*
X005805Y005390D01*
X005805Y005170D01*
X005860Y005115D01*
X005970Y005115D01*
X006025Y005170D01*
X005920Y004945D02*
X005810Y004945D01*
X005755Y004890D01*
X005755Y004670D01*
X005810Y004615D01*
X005920Y004615D01*
X005975Y004670D01*
X006123Y004615D02*
X006344Y004615D01*
X006233Y004615D02*
X006233Y004945D01*
X006123Y004835D01*
X005975Y004890D02*
X005920Y004945D01*
X006492Y004780D02*
X006657Y004780D01*
X006712Y004725D01*
X006712Y004670D01*
X006657Y004615D01*
X006547Y004615D01*
X006492Y004670D01*
X006492Y004780D01*
X006602Y004890D01*
X006712Y004945D01*
X009120Y005580D02*
X009120Y007280D01*
X009470Y007280D01*
X009470Y007430D01*
X009307Y006223D02*
X009307Y005930D01*
X009120Y005580D02*
X010820Y005580D01*
X010820Y005930D01*
X010970Y005930D01*
X008585Y010415D02*
X008255Y010415D01*
X008255Y010580D01*
X008310Y010635D01*
X008420Y010635D01*
X008475Y010580D01*
X008475Y010415D01*
X008475Y010525D02*
X008585Y010635D01*
X008530Y010783D02*
X008585Y010838D01*
X008585Y010948D01*
X008530Y011004D01*
X008475Y011004D01*
X008420Y010948D01*
X008420Y010893D01*
X008420Y010948D02*
X008365Y011004D01*
X008310Y011004D01*
X008255Y010948D01*
X008255Y010838D01*
X008310Y010783D01*
X008085Y010783D02*
X008085Y011004D01*
X008030Y011152D02*
X007810Y011372D01*
X008030Y011372D01*
X008085Y011317D01*
X008085Y011207D01*
X008030Y011152D01*
X007810Y011152D01*
X007755Y011207D01*
X007755Y011317D01*
X007810Y011372D01*
X007810Y011004D02*
X007755Y010948D01*
X007755Y010838D01*
X007810Y010783D01*
X007810Y010635D02*
X007920Y010635D01*
X007975Y010580D01*
X007975Y010415D01*
X008085Y010415D02*
X007755Y010415D01*
X007755Y010580D01*
X007810Y010635D01*
X007975Y010525D02*
X008085Y010635D01*
X008085Y010783D02*
X007865Y011004D01*
X007810Y011004D01*
X008255Y011207D02*
X008310Y011152D01*
X008530Y011152D01*
X008310Y011372D01*
X008530Y011372D01*
X008585Y011317D01*
X008585Y011207D01*
X008530Y011152D01*
X008255Y011207D02*
X008255Y011317D01*
X008310Y011372D01*
X028652Y028209D02*
X028755Y029405D01*
D11*
X007045Y006930D03*
X011545Y003180D03*
D12*
X002970Y011255D03*
D13*
X005520Y007580D02*
X006370Y007580D01*
X005360Y007160D02*
X004080Y007160D01*
X004080Y005070D01*
X005360Y005070D01*
X005360Y007160D01*
X010830Y013010D02*
X010900Y013010D01*
X010970Y013080D01*
X010970Y013220D01*
X011040Y013290D01*
X011110Y013290D01*
X011180Y013220D01*
X011180Y013080D01*
X011110Y013010D01*
X010830Y013010D02*
X010760Y013080D01*
X010760Y013220D01*
X010830Y013290D01*
X008180Y016720D02*
X007900Y016720D01*
X007760Y016860D01*
X007900Y017000D01*
X008180Y017000D01*
X007970Y017000D02*
X007970Y016720D01*
X003680Y020930D02*
X003680Y021430D01*
X003650Y021432D01*
X003620Y021437D01*
X003591Y021446D01*
X003564Y021459D01*
X003538Y021474D01*
X003514Y021493D01*
X003493Y021514D01*
X003474Y021538D01*
X003459Y021564D01*
X003446Y021591D01*
X003437Y021620D01*
X003432Y021650D01*
X003430Y021680D01*
X003432Y021710D01*
X003437Y021740D01*
X003446Y021769D01*
X003459Y021796D01*
X003474Y021822D01*
X003493Y021846D01*
X003514Y021867D01*
X003538Y021886D01*
X003564Y021901D01*
X003591Y021914D01*
X003620Y021923D01*
X003650Y021928D01*
X003680Y021930D01*
X003680Y022180D01*
X003320Y022180D01*
X003270Y022430D02*
X003170Y022430D01*
X002770Y022430D02*
X002670Y022430D01*
X002270Y022430D02*
X002170Y022430D01*
X002120Y022180D02*
X001760Y022180D01*
X001760Y022430D01*
X001760Y022180D02*
X001760Y020930D01*
X002170Y020930D02*
X002270Y020930D01*
X002670Y020930D02*
X002770Y020930D01*
X003170Y020930D02*
X003270Y020930D01*
X003680Y022180D02*
X003680Y022430D01*
X017010Y019540D02*
X017430Y019540D01*
X017290Y019400D01*
X017430Y019260D01*
X017010Y019260D01*
X020220Y022220D02*
X020470Y022220D01*
X020470Y024140D01*
X020720Y024140D01*
X020470Y024140D02*
X020220Y024140D01*
X020220Y023730D02*
X020220Y023630D01*
X020220Y023230D02*
X020220Y023130D01*
X020220Y022730D02*
X020220Y022630D01*
X020470Y022220D02*
X021720Y022220D01*
X021720Y022630D02*
X021720Y022730D01*
X021720Y023130D02*
X021720Y023230D01*
X021720Y023630D02*
X021720Y023730D01*
X021720Y024140D02*
X021220Y024140D01*
X021218Y024110D01*
X021213Y024080D01*
X021204Y024051D01*
X021191Y024024D01*
X021176Y023998D01*
X021157Y023974D01*
X021136Y023953D01*
X021112Y023934D01*
X021086Y023919D01*
X021059Y023906D01*
X021030Y023897D01*
X021000Y023892D01*
X020970Y023890D01*
X020940Y023892D01*
X020910Y023897D01*
X020881Y023906D01*
X020854Y023919D01*
X020828Y023934D01*
X020804Y023953D01*
X020783Y023974D01*
X020764Y023998D01*
X020749Y024024D01*
X020736Y024051D01*
X020727Y024080D01*
X020722Y024110D01*
X020720Y024140D01*
X025720Y021680D02*
X027720Y019680D01*
X026987Y019840D02*
X026989Y019861D01*
X026995Y019881D01*
X027004Y019899D01*
X027016Y019916D01*
X027032Y019930D01*
X027050Y019941D01*
X027069Y019949D01*
X027090Y019953D01*
X027110Y019953D01*
X027131Y019949D01*
X027150Y019941D01*
X027168Y019930D01*
X027184Y019916D01*
X027196Y019899D01*
X027205Y019881D01*
X027211Y019861D01*
X027213Y019840D01*
X027211Y019819D01*
X027205Y019799D01*
X027196Y019781D01*
X027184Y019764D01*
X027168Y019750D01*
X027150Y019739D01*
X027131Y019731D01*
X027110Y019727D01*
X027090Y019727D01*
X027069Y019731D01*
X027050Y019739D01*
X027032Y019750D01*
X027016Y019764D01*
X027004Y019781D01*
X026995Y019799D01*
X026989Y019819D01*
X026987Y019840D01*
X026990Y019830D02*
X026460Y019830D01*
X026420Y019720D01*
X026420Y019830D01*
X026460Y019830D01*
X026420Y019830D02*
X026392Y019830D01*
X026376Y019832D01*
X026360Y019836D01*
X026345Y019843D01*
X026331Y019853D01*
X026320Y019866D01*
X026312Y019880D01*
X026306Y019895D01*
X026302Y019911D01*
X026160Y021390D01*
X026080Y021390D01*
X026160Y021390D02*
X027240Y021390D01*
X027310Y021390D01*
X027270Y021430D02*
X027240Y021430D01*
X027240Y021390D02*
X027110Y019950D01*
X027240Y021390D02*
X027207Y021417D01*
X027172Y021442D01*
X027136Y021463D01*
X027097Y021481D01*
X027057Y021496D01*
X027016Y021507D01*
X026975Y021515D01*
X026932Y021519D01*
X026890Y021520D01*
X026490Y021520D01*
X026640Y021560D02*
X026750Y021560D01*
X026810Y021150D02*
X026810Y021121D01*
X026808Y021107D01*
X026804Y021095D01*
X026797Y021083D01*
X026787Y021073D01*
X026775Y021066D01*
X026763Y021062D01*
X026749Y021060D01*
X026650Y021060D01*
X026637Y021062D01*
X026624Y021066D01*
X026613Y021073D01*
X026603Y021083D01*
X026596Y021094D01*
X026592Y021107D01*
X026590Y021120D01*
X026590Y021150D01*
X026490Y021521D02*
X026449Y021520D01*
X026409Y021516D01*
X026369Y021509D01*
X026330Y021497D01*
X026292Y021483D01*
X026256Y021464D01*
X026222Y021443D01*
X026190Y021418D01*
X026160Y021391D01*
X027230Y021150D02*
X027260Y021150D01*
X027250Y021070D01*
X027720Y021680D02*
X025720Y019680D01*
X023430Y013290D02*
X023010Y013290D01*
X023010Y013010D02*
X023430Y013290D01*
X023430Y013010D02*
X023010Y013010D01*
X017430Y007040D02*
X017430Y006760D01*
X017010Y006760D01*
X017010Y007040D01*
X017220Y006900D02*
X017220Y006760D01*
X019059Y002690D02*
X019199Y002690D01*
X019269Y002620D01*
X019269Y002340D01*
X019199Y002270D01*
X019059Y002270D01*
X018989Y002340D01*
X018989Y002620D01*
X019059Y002690D01*
X019129Y002410D02*
X019269Y002270D01*
X019450Y002270D02*
X019730Y002270D01*
X019590Y002270D02*
X019590Y002690D01*
X019450Y002550D01*
D14*
X004720Y005165D03*
D15*
X005720Y023180D03*
D16*
X026670Y025220D03*
D17*
X019170Y002030D02*
X016770Y002030D01*
X016713Y002028D01*
X016657Y002022D01*
X016601Y002013D01*
X016545Y002000D01*
X016491Y001983D01*
X016438Y001963D01*
X016387Y001939D01*
X016337Y001911D01*
X016289Y001881D01*
X016243Y001847D01*
X016200Y001810D01*
X016159Y001771D01*
X016121Y001729D01*
X016086Y001684D01*
X016054Y001637D01*
X016025Y001588D01*
X015999Y001538D01*
X015977Y001485D01*
X015958Y001432D01*
X015943Y001377D01*
X015932Y001321D01*
X015924Y001265D01*
X015920Y001208D01*
X015920Y001152D01*
X015924Y001095D01*
X015932Y001039D01*
X015943Y000983D01*
X015958Y000928D01*
X015977Y000875D01*
X015999Y000822D01*
X016025Y000772D01*
X016054Y000723D01*
X016086Y000676D01*
X016121Y000631D01*
X016159Y000589D01*
X016200Y000550D01*
X016243Y000513D01*
X016289Y000479D01*
X016337Y000449D01*
X016387Y000421D01*
X016438Y000397D01*
X016491Y000377D01*
X016545Y000360D01*
X016601Y000347D01*
X016657Y000338D01*
X016713Y000332D01*
X016770Y000330D01*
X019170Y000330D01*
X019227Y000332D01*
X019283Y000338D01*
X019339Y000347D01*
X019395Y000360D01*
X019449Y000377D01*
X019502Y000397D01*
X019553Y000421D01*
X019603Y000449D01*
X019651Y000479D01*
X019697Y000513D01*
X019740Y000550D01*
X019781Y000589D01*
X019819Y000631D01*
X019854Y000676D01*
X019886Y000723D01*
X019915Y000772D01*
X019941Y000822D01*
X019963Y000875D01*
X019982Y000928D01*
X019997Y000983D01*
X020008Y001039D01*
X020016Y001095D01*
X020020Y001152D01*
X020020Y001208D01*
X020016Y001265D01*
X020008Y001321D01*
X019997Y001377D01*
X019982Y001432D01*
X019963Y001485D01*
X019941Y001538D01*
X019915Y001588D01*
X019886Y001637D01*
X019854Y001684D01*
X019819Y001729D01*
X019781Y001771D01*
X019740Y001810D01*
X019697Y001847D01*
X019651Y001881D01*
X019603Y001911D01*
X019553Y001939D01*
X019502Y001963D01*
X019449Y001983D01*
X019395Y002000D01*
X019339Y002013D01*
X019283Y002022D01*
X019227Y002028D01*
X019170Y002030D01*
D18*
X006463Y015240D02*
X006560Y015337D01*
X006560Y015530D01*
X006463Y015627D01*
X006560Y015885D02*
X006560Y016272D01*
X006463Y016529D02*
X006076Y016529D01*
X005980Y016626D01*
X005980Y016819D01*
X006076Y016916D01*
X006463Y016916D01*
X006560Y016819D01*
X006560Y016626D01*
X006463Y016529D01*
X006463Y017174D02*
X006076Y017174D01*
X005980Y017270D01*
X005980Y017464D01*
X006076Y017561D01*
X005980Y017818D02*
X006560Y017818D01*
X006367Y017818D02*
X005980Y018205D01*
X006270Y017915D02*
X006560Y018205D01*
X006463Y017561D02*
X006560Y017464D01*
X006560Y017270D01*
X006463Y017174D01*
X006560Y015885D02*
X005980Y015885D01*
X006076Y015627D02*
X005980Y015530D01*
X005980Y015337D01*
X006076Y015240D01*
X006463Y015240D01*
D19*
X005334Y008345D03*
M02*
