G75*
G70*
%OFA0B0*%
%FSLAX24Y24*%
%IPPOS*%
%LPD*%
%AMOC8*
5,1,8,0,0,1.08239X$1,22.5*
%
%ADD10C,0.1370*%
%ADD11C,0.1740*%
%ADD12R,0.1000X0.1000*%
%ADD13R,0.0375X0.1064*%
%ADD14R,0.1064X0.0375*%
%ADD15C,0.0867*%
%ADD16R,0.0360X0.1064*%
%ADD17R,0.0631X0.1080*%
%ADD18C,0.0631*%
%ADD19C,0.1464*%
%ADD20C,0.1143*%
%ADD21C,0.0634*%
%ADD22C,0.1386*%
%ADD23R,0.0592X0.0671*%
%ADD24R,0.0946X0.0316*%
%ADD25R,0.0671X0.0592*%
%ADD26R,0.0647X0.0474*%
%ADD27R,0.0647X0.0552*%
%ADD28R,0.0474X0.0513*%
%ADD29R,0.0513X0.0474*%
%ADD30C,0.0434*%
%ADD31R,0.0789X0.0434*%
%ADD32C,0.0549*%
%ADD33R,0.0781X0.0245*%
%ADD34R,0.0595X0.0595*%
%ADD35C,0.0595*%
%ADD36C,0.0600*%
%ADD37R,0.0710X0.0237*%
%ADD38R,0.0698X0.0824*%
%ADD39R,0.0674X0.0674*%
%ADD40OC8,0.0674*%
%ADD41R,0.0316X0.0946*%
%ADD42R,0.0986X0.0986*%
%ADD43R,0.0671X0.1064*%
%ADD44R,0.0710X0.0789*%
%ADD45R,0.0749X0.0356*%
%ADD46R,0.0946X0.0867*%
%ADD47R,0.0940X0.0880*%
%ADD48R,0.1025X0.0671*%
%ADD49R,0.0789X0.0710*%
%ADD50R,0.0198X0.0867*%
%ADD51R,0.0178X0.0474*%
%ADD52R,0.0730X0.0986*%
%ADD53R,0.1143X0.0710*%
%ADD54C,0.0090*%
%ADD55C,0.0671*%
D10*
X003610Y002450D03*
X021680Y002450D03*
X021680Y027150D03*
X003610Y027150D03*
D11*
X006970Y011930D03*
X006970Y001930D03*
X027470Y001930D03*
X027470Y011930D03*
D12*
X000970Y028930D03*
D13*
X011220Y021180D03*
X011720Y021180D03*
X012220Y021180D03*
X012720Y021180D03*
X013220Y021180D03*
X013720Y021180D03*
X014220Y021180D03*
X014720Y021180D03*
X015220Y021180D03*
X015720Y021180D03*
X016220Y021180D03*
X016720Y021180D03*
X017220Y021180D03*
X017720Y021180D03*
X018220Y021180D03*
X018720Y021180D03*
X019220Y021180D03*
X019720Y021180D03*
X020220Y021180D03*
X020720Y021180D03*
X021220Y021180D03*
X021720Y021180D03*
X022220Y021180D03*
X022720Y021180D03*
X022720Y005680D03*
X022220Y005680D03*
X021720Y005680D03*
X021220Y005680D03*
X020720Y005680D03*
X020220Y005680D03*
X019720Y005680D03*
X019220Y005680D03*
X018720Y005680D03*
X018220Y005680D03*
X017720Y005680D03*
X017220Y005680D03*
X016720Y005680D03*
X016220Y005680D03*
X015720Y005680D03*
X015220Y005680D03*
X014720Y005680D03*
X014220Y005680D03*
X013720Y005680D03*
X013220Y005680D03*
X012720Y005680D03*
X012220Y005680D03*
X011720Y005680D03*
X011220Y005680D03*
D14*
X009220Y007680D03*
X009220Y008180D03*
X009220Y008680D03*
X009220Y009180D03*
X009220Y009680D03*
X009220Y010180D03*
X009220Y010680D03*
X009220Y011180D03*
X009220Y011680D03*
X009220Y012180D03*
X009220Y012680D03*
X009220Y013180D03*
X009220Y013680D03*
X009220Y014180D03*
X009220Y014680D03*
X009220Y015180D03*
X009220Y015680D03*
X009220Y016180D03*
X009220Y016680D03*
X009220Y017180D03*
X009220Y017680D03*
X009220Y018180D03*
X009220Y018680D03*
X009220Y019180D03*
X024720Y019180D03*
X024720Y018680D03*
X024720Y018180D03*
X024720Y017680D03*
X024720Y017180D03*
X024720Y016680D03*
X024720Y016180D03*
X024720Y015680D03*
X024720Y015180D03*
X024720Y014680D03*
X024720Y014180D03*
X024720Y013680D03*
X024720Y013180D03*
X024720Y012680D03*
X024720Y012180D03*
X024720Y011680D03*
X024720Y011180D03*
X024720Y010680D03*
X024720Y010180D03*
X024720Y009680D03*
X024720Y009180D03*
X024720Y008680D03*
X024720Y008180D03*
X024720Y007680D03*
D15*
X023978Y006422D03*
X023978Y020438D03*
X009962Y020438D03*
X009962Y006422D03*
D16*
X012610Y023808D03*
X013011Y023808D03*
X013814Y023808D03*
X014216Y023808D03*
X014618Y023808D03*
X015019Y023808D03*
X015421Y023808D03*
X015822Y023808D03*
X016626Y023808D03*
X017429Y023808D03*
X017830Y023808D03*
D17*
X018570Y029276D03*
X011870Y029276D03*
D18*
X013842Y025261D03*
X016598Y025261D03*
D19*
X007274Y027453D03*
X007205Y029421D03*
D20*
X006177Y028400D03*
D21*
X024541Y026691D03*
X025522Y026606D03*
X026306Y026537D03*
X027287Y026451D03*
D22*
X028584Y027413D03*
X023430Y027864D03*
D23*
X023096Y025430D03*
X023844Y025430D03*
X024596Y023430D03*
X025344Y023430D03*
X011094Y003180D03*
X010346Y003180D03*
X006594Y006930D03*
X005846Y006930D03*
X005596Y026430D03*
X006344Y026430D03*
D24*
X019920Y023930D03*
X019920Y023430D03*
X019920Y022930D03*
X019920Y022430D03*
X022020Y022430D03*
X022020Y022930D03*
X022020Y023430D03*
X022020Y023930D03*
D25*
X024720Y024806D03*
X024720Y025554D03*
X002970Y010804D03*
X002970Y010056D03*
X000970Y026306D03*
X000970Y027054D03*
D26*
X026287Y024556D03*
X027153Y024556D03*
X027153Y025304D03*
D27*
X026287Y025225D03*
D28*
X025470Y025515D03*
X025470Y024845D03*
X007470Y010015D03*
X007470Y009345D03*
X006720Y009345D03*
X006720Y010015D03*
X006720Y008515D03*
X006720Y007845D03*
X007470Y007845D03*
X007470Y008515D03*
X007470Y007015D03*
X007470Y006345D03*
X004220Y010095D03*
X004220Y010765D03*
X003470Y007765D03*
X003470Y007095D03*
X004470Y023095D03*
X004470Y023765D03*
D29*
X007635Y020180D03*
X008305Y020180D03*
X003305Y019680D03*
X002635Y019680D03*
X001805Y019680D03*
X001135Y019680D03*
X005385Y010180D03*
X006055Y010180D03*
X005885Y005930D03*
X006555Y005930D03*
X010385Y004680D03*
X011055Y004680D03*
X011055Y003930D03*
X010385Y003930D03*
X017385Y003680D03*
X018055Y003680D03*
X018055Y004430D03*
X017385Y004430D03*
X017385Y002930D03*
X018055Y002930D03*
X025885Y017930D03*
X026555Y017930D03*
X026555Y018680D03*
X025885Y018680D03*
X023805Y024680D03*
X023135Y024680D03*
D30*
X027076Y009292D03*
X027864Y009292D03*
X027864Y008505D03*
X027864Y007717D03*
X027864Y006930D03*
X027076Y006930D03*
X027076Y007717D03*
X027076Y008505D03*
X027076Y006143D03*
X027864Y006143D03*
X027864Y005355D03*
X027076Y005355D03*
X027076Y004568D03*
X027864Y004568D03*
D31*
X028572Y004568D03*
X028572Y005355D03*
X028572Y006143D03*
X028572Y006930D03*
X028572Y007717D03*
X028572Y008505D03*
X028572Y009292D03*
X026368Y009292D03*
X026368Y008505D03*
X026368Y007717D03*
X026368Y006930D03*
X026368Y006143D03*
X026368Y005355D03*
X026368Y004568D03*
D32*
X027470Y004961D03*
X027470Y008899D03*
D33*
X014809Y004507D03*
X014809Y004251D03*
X014809Y003995D03*
X014809Y003739D03*
X014809Y003483D03*
X014809Y003227D03*
X014809Y002971D03*
X014809Y002715D03*
X014809Y002460D03*
X014809Y002204D03*
X014809Y001948D03*
X014809Y001692D03*
X014809Y001436D03*
X014809Y001180D03*
X012470Y001180D03*
X012470Y001436D03*
X012470Y001692D03*
X012470Y001948D03*
X012470Y002204D03*
X012470Y002460D03*
X012470Y002715D03*
X012470Y002971D03*
X012470Y003227D03*
X012470Y003483D03*
X012470Y003739D03*
X012470Y003995D03*
X012470Y004251D03*
X012470Y004507D03*
D34*
X001970Y010830D03*
D35*
X001970Y010042D03*
X001970Y009255D03*
X001970Y008467D03*
X001970Y007680D03*
X001970Y006893D03*
X001970Y006105D03*
X001970Y005318D03*
X001970Y004530D03*
D36*
X017020Y001180D03*
X018920Y001180D03*
D37*
X005836Y008296D03*
X005836Y008552D03*
X005836Y008808D03*
X005836Y009064D03*
X004104Y009064D03*
X004104Y008808D03*
X004104Y008552D03*
X004104Y008296D03*
D38*
X004970Y008680D03*
D39*
X010970Y024680D03*
X000970Y025180D03*
D40*
X000970Y024180D03*
X000970Y023180D03*
X000970Y022180D03*
X010970Y022680D03*
X010970Y023680D03*
D41*
X003470Y022730D03*
X002970Y022730D03*
X002470Y022730D03*
X001970Y022730D03*
X001970Y020630D03*
X002470Y020630D03*
X002970Y020630D03*
X003470Y020630D03*
D42*
X002720Y021680D03*
D43*
X009379Y026150D03*
X010561Y026150D03*
X010561Y028710D03*
X009379Y028710D03*
D44*
X006521Y025430D03*
X005419Y025430D03*
X003271Y024430D03*
X002169Y024430D03*
X007169Y022930D03*
X008271Y022930D03*
D45*
X005151Y017395D03*
X005151Y016902D03*
X005151Y016410D03*
X005151Y015918D03*
X005151Y015426D03*
X005151Y014934D03*
X005151Y014442D03*
X005151Y013950D03*
X005151Y013458D03*
X005151Y012965D03*
X002789Y012965D03*
X002789Y013458D03*
X002789Y013950D03*
X002789Y014442D03*
X002789Y014934D03*
X002789Y015426D03*
X002789Y015918D03*
X002789Y016410D03*
X002789Y016902D03*
X002789Y017395D03*
D46*
X003970Y018517D03*
X003970Y011843D03*
D47*
X005720Y022530D03*
X005720Y024330D03*
D48*
X004720Y021408D03*
X004720Y019952D03*
D49*
X006220Y020129D03*
X006220Y021231D03*
X009470Y022129D03*
X009470Y023231D03*
D50*
X007956Y021706D03*
X007720Y021706D03*
X007484Y021706D03*
D51*
X007425Y020997D03*
X007622Y020997D03*
X007818Y020997D03*
X008015Y020997D03*
D52*
X008070Y024680D03*
X009370Y024680D03*
D53*
X004720Y006731D03*
X004720Y005629D03*
D54*
X000990Y001315D02*
X000990Y000905D01*
X001195Y000905D01*
X001263Y000973D01*
X001263Y001042D01*
X001195Y001110D01*
X000990Y001110D01*
X001195Y001110D02*
X001263Y001179D01*
X001263Y001247D01*
X001195Y001315D01*
X000990Y001315D01*
X001450Y000973D02*
X001518Y000973D01*
X001518Y000905D01*
X001450Y000905D01*
X001450Y000973D01*
X001680Y000905D02*
X001680Y001315D01*
X001954Y001315D01*
X001817Y001110D02*
X001680Y001110D01*
D55*
X004970Y008680D03*
X002720Y021680D03*
M02*
