G75*
G70*
%OFA0B0*%
%FSLAX24Y24*%
%IPPOS*%
%LPD*%
%AMOC8*
5,1,8,0,0,1.08239X$1,22.5*
%
%ADD10C,0.1370*%
%ADD11C,0.1740*%
%ADD12C,0.0867*%
%ADD13C,0.0631*%
%ADD14C,0.1464*%
%ADD15C,0.1143*%
%ADD16C,0.0634*%
%ADD17C,0.1386*%
%ADD18R,0.0592X0.0671*%
%ADD19R,0.0946X0.0474*%
%ADD20R,0.1064X0.0474*%
%ADD21R,0.0537X0.0395*%
%ADD22R,0.0537X0.0867*%
%ADD23R,0.0537X0.0710*%
%ADD24R,0.0572X0.0493*%
%ADD25R,0.0474X0.0513*%
%ADD26C,0.0434*%
%ADD27C,0.0549*%
%ADD28R,0.0513X0.0474*%
%ADD29R,0.0595X0.0595*%
%ADD30C,0.0595*%
%ADD31C,0.0600*%
%ADD32R,0.0474X0.0631*%
%ADD33R,0.0674X0.0674*%
%ADD34OC8,0.0674*%
%ADD35C,0.0580*%
%ADD36R,0.1104X0.0552*%
%ADD37R,0.1379X0.0986*%
%ADD38R,0.1080X0.1080*%
%ADD39C,0.0671*%
D10*
X003610Y002450D03*
X021680Y002450D03*
X021680Y027150D03*
X003610Y027150D03*
D11*
X006970Y011930D03*
X006970Y001930D03*
X027470Y001930D03*
X027470Y011930D03*
D12*
X023978Y006422D03*
X023978Y020438D03*
X009962Y020438D03*
X009962Y006422D03*
D13*
X013842Y025261D03*
X016598Y025261D03*
D14*
X007274Y027453D03*
X007205Y029421D03*
D15*
X006177Y028400D03*
D16*
X024541Y026691D03*
X025522Y026606D03*
X026306Y026537D03*
X027287Y026451D03*
D17*
X028584Y027413D03*
X023430Y027864D03*
D18*
X011844Y026180D03*
X011096Y026180D03*
D19*
X028295Y019554D03*
D20*
X028236Y013806D03*
D21*
X023149Y015538D03*
X023149Y015971D03*
X023149Y016404D03*
X023149Y016837D03*
X023149Y017271D03*
X023149Y017704D03*
X023149Y018137D03*
X023149Y018570D03*
D22*
X023149Y014314D03*
D23*
X023149Y019137D03*
D24*
X023836Y019391D03*
X027429Y019391D03*
D25*
X026970Y022595D03*
X026970Y023265D03*
X026220Y023265D03*
X026220Y022595D03*
X025470Y022595D03*
X025470Y023265D03*
X024720Y023265D03*
X024720Y022595D03*
X020720Y020765D03*
X020720Y020095D03*
X020720Y019265D03*
X020720Y018595D03*
X019220Y020845D03*
X019220Y021515D03*
X018470Y021515D03*
X018470Y020845D03*
X017470Y020845D03*
X017470Y021515D03*
X016720Y021515D03*
X016720Y020845D03*
X017470Y002515D03*
X017470Y001845D03*
X018470Y001845D03*
X018470Y002515D03*
X014970Y002265D03*
X014970Y001595D03*
X014220Y001595D03*
X014220Y002265D03*
D26*
X027076Y004568D03*
X027864Y004568D03*
X027864Y005355D03*
X027864Y006143D03*
X027076Y006143D03*
X027076Y005355D03*
X027076Y006930D03*
X027076Y007717D03*
X027864Y007717D03*
X027864Y006930D03*
X027864Y008505D03*
X027076Y008505D03*
X027076Y009292D03*
X027864Y009292D03*
D27*
X027470Y008899D03*
X027470Y004961D03*
D28*
X018305Y001180D03*
X017635Y001180D03*
X014805Y004180D03*
X014135Y004180D03*
X012055Y015930D03*
X011385Y015930D03*
X011385Y016680D03*
X012055Y016680D03*
X019385Y022680D03*
X020055Y022680D03*
X021385Y021930D03*
X022055Y021930D03*
X002555Y024180D03*
X001885Y024180D03*
D29*
X001970Y010830D03*
D30*
X001970Y010042D03*
X001970Y009255D03*
X001970Y008467D03*
X001970Y007680D03*
X001970Y006893D03*
X001970Y006105D03*
X001970Y005318D03*
X001970Y004530D03*
D31*
X017020Y001180D03*
X018920Y001180D03*
D32*
X019096Y019247D03*
X019844Y019247D03*
X019470Y020113D03*
D33*
X010970Y024680D03*
X000970Y025180D03*
D34*
X000970Y024180D03*
X000970Y023180D03*
X000970Y022180D03*
X010970Y022680D03*
X010970Y023680D03*
D35*
X015220Y008930D03*
X016470Y008930D03*
X018220Y005180D03*
X019220Y005180D03*
D36*
X014220Y011393D03*
X014220Y012180D03*
X014220Y012967D03*
D37*
X012468Y014739D03*
X012468Y009621D03*
D38*
X000970Y018680D03*
D39*
X002720Y021680D03*
X004970Y008680D03*
M02*
